g Cylinder001
v -0.7933874 -0.3733409 0
v -0.7683796 -0.4224215 0.1324593
v -0.7683795 -0.4224215 0
v -0.7933874 -0.3733409 0.1324593
v -0.8152641 -0.322787 0
v -0.8152641 -0.322787 0.1324593
v -0.8339233 -0.2709592 0
v -0.8339233 -0.2709592 0.1324593
v -0.8492914 -0.218062 0
v -0.8492914 -0.218062 0.1324593
v -0.8613078 -0.1643043 0
v -0.8613078 -0.1643043 0.1324593
v -0.8699249 -0.1098981 0
v -0.8699249 -0.1098981 0.1324593
v -0.8751089 -0.05505812 0
v -0.8751089 -0.05505813 0.1324593
v -0.8768392 -9.128748E-07 0
v -0.8768392 -9.083748E-07 0.1324593
v -0.875109 0.0550563 0
v -0.875109 0.05505629 0.1324593
v -0.8699252 0.1098962 0
v -0.8699252 0.1098962 0.1324593
v -0.8613081 0.1643025 0
v -0.8613081 0.1643025 0.1324593
v -0.8492919 0.2180603 0
v -0.8492919 0.2180603 0.1324593
v -0.8339239 0.2709575 0
v -0.8339239 0.2709575 0.1324593
v -0.8152648 0.3227853 0
v -0.8152648 0.3227853 0.1324593
v -0.7933881 0.3733393 0
v -0.7933882 0.3733393 0.1324593
v -0.7683804 0.4224198 0
v -0.7683804 0.4224198 0.1324593
v -0.7403402 0.4698333 0
v -0.7403402 0.4698333 0.1324593
v -0.7093782 0.5153925 0
v -0.7093783 0.5153925 0.1324593
v -0.6756166 0.5589178 0
v -0.6756167 0.5589178 0.1324593
v -0.6391888 0.6002373 0
v -0.6391888 0.6002373 0.1324593
v -0.6002381 0.6391879 0
v -0.6002381 0.6391879 0.1324593
v -0.5589188 0.6756158 0
v -0.5589189 0.6756158 0.1324593
v -0.5153936 0.7093775 0
v -0.5153936 0.7093775 0.1324593
v -0.4698344 0.7403395 0
v -0.4698344 0.7403395 0.1324593
v -0.422421 0.7683798 0
v -0.422421 0.7683798 0.1324593
v -0.3733404 0.7933876 0
v -0.3733405 0.7933876 0.1324593
v -0.3227865 0.8152643 0
v -0.3227865 0.8152643 0.1324593
v -0.2709587 0.8339235 0
v -0.2709587 0.8339235 0.1324593
v -0.2180615 0.8492916 0
v -0.2180615 0.8492916 0.1324593
v -0.1643037 0.8613079 0
v -0.1643037 0.8613079 0.1324593
v -0.1098975 0.869925 0
v -0.1098975 0.869925 0.1324593
v -0.05505756 0.875109 0
v -0.05505756 0.875109 0.1324593
v -3.5191E-07 0.8768392 0
v -3.512382E-07 0.8768392 0.1324593
v 0.05505686 0.875109 0
v 0.05505686 0.875109 0.1324593
v 0.1098968 0.8699251 0
v 0.1098968 0.8699251 0.1324593
v 0.164303 0.861308 0
v 0.164303 0.861308 0.1324593
v 0.2180608 0.8492917 0
v 0.2180608 0.8492917 0.1324593
v 0.270958 0.8339237 0
v 0.270958 0.8339237 0.1324593
v 0.3227859 0.8152646 0
v 0.3227859 0.8152646 0.1324593
v 0.3733398 0.7933879 0
v 0.3733398 0.7933879 0.1324593
v 0.4224203 0.7683801 0
v 0.4224203 0.7683801 0.1324593
v 0.4698338 0.7403399 0
v 0.4698338 0.7403399 0.1324593
v 0.515393 0.7093779 0
v 0.515393 0.7093779 0.1324593
v 0.5589182 0.6756163 0
v 0.5589182 0.6756163 0.1324593
v 0.6002376 0.6391883 0
v 0.6002376 0.6391883 0.1324593
v 0.6391882 0.6002378 0
v 0.6391882 0.6002378 0.1324593
v 0.6756161 0.5589184 0
v 0.6756161 0.5589184 0.1324593
v 0.7093778 0.5153932 0
v 0.7093777 0.5153932 0.1324593
v 0.7403398 0.469834 0
v 0.7403398 0.469834 0.1324593
v 0.76838 0.4224205 0
v 0.76838 0.4224205 0.1324593
v 0.7933878 0.37334 0
v 0.7933878 0.37334 0.1324593
v 0.8152645 0.322786 0
v 0.8152645 0.322786 0.1324593
v 0.8339237 0.2709582 0
v 0.8339237 0.2709582 0.1324593
v 0.8492917 0.2180611 0
v 0.8492917 0.2180611 0.1324593
v 0.861308 0.1643033 0
v 0.861308 0.1643033 0.1324593
v 0.8699251 0.1098971 0
v 0.8699251 0.1098971 0.1324593
v 0.875109 0.05505719 0
v 0.875109 0.05505719 0.1324593
v 0.8768392 0 0
v 0.8768392 0 0.1324593
v 0.8751091 -0.05505538 0
v 0.8751091 -0.05505537 0.1324593
v 0.8699253 -0.1098953 0
v 0.8699253 -0.1098953 0.1324593
v 0.8613083 -0.1643016 0
v 0.8613083 -0.1643016 0.1324593
v 0.8492922 -0.2180594 0
v 0.8492922 -0.2180594 0.1324593
v 0.8339242 -0.2709566 0
v 0.8339242 -0.2709566 0.1324593
v 0.8152651 -0.3227845 0
v 0.8152651 -0.3227845 0.1324593
v 0.7933885 -0.3733385 0
v 0.7933885 -0.3733385 0.1324593
v 0.7683809 -0.4224191 0
v 0.7683808 -0.4224191 0.1324593
v 0.7403407 -0.4698326 0
v 0.7403407 -0.4698326 0.1324593
v 0.7093788 -0.5153918 0
v 0.7093788 -0.5153918 0.1324593
v 0.6756172 -0.5589172 0
v 0.6756172 -0.5589172 0.1324593
v 0.6391894 -0.6002366 0
v 0.6391894 -0.6002366 0.1324593
v 0.6002389 -0.6391872 0
v 0.6002389 -0.6391872 0.1324593
v 0.5589195 -0.6756153 0
v 0.5589195 -0.6756153 0.1324593
v 0.5153943 -0.7093769 0
v 0.5153943 -0.7093769 0.1324593
v 0.4698352 -0.740339 0
v 0.4698352 -0.740339 0.1324593
v 0.4224218 -0.7683793 0
v 0.4224218 -0.7683793 0.1324593
v 0.3733413 -0.7933872 0
v 0.3733413 -0.7933872 0.1324593
v 0.3227873 -0.815264 0
v 0.3227873 -0.815264 0.1324593
v 0.2709595 -0.8339232 0
v 0.2709595 -0.8339232 0.1324593
v 0.2180623 -0.8492914 0
v 0.2180623 -0.8492914 0.1324593
vt 1.981673 0.006674428
vt 1.994181 1.000613
vt 1.994181 0.006674428
vt 1.981673 1.000613
vt 1.969165 0.006674428
vt 1.969165 1.000613
vt 1.956658 0.006674428
vt 1.956658 1.000613
vt 1.94415 0.006674428
vt 1.94415 1.000613
vt 1.931643 0.006674428
vt 1.931643 1.000613
vt 1.919135 0.006674428
vt 1.919135 1.000613
vt 1.906627 0.006674428
vt 1.906627 1.000613
vt 1.894119 0.006674428
vt 1.894119 1.000613
vt 1.881612 0.006674428
vt 1.881612 1.000613
vt 1.869104 0.006674428
vt 1.869104 1.000613
vt 1.856597 0.006674428
vt 1.856597 1.000613
vt 1.844089 0.006674428
vt 1.844089 1.000613
vt 1.831581 0.006674428
vt 1.831581 1.000613
vt 1.819074 0.006674428
vt 1.819074 1.000613
vt 1.806566 0.006674428
vt 1.806566 1.000613
vt 1.794058 0.006674428
vt 1.794058 1.000613
vt 1.781551 0.006674428
vt 1.781551 1.000613
vt 1.769043 0.006674428
vt 1.769043 1.000613
vt 1.756536 0.006674428
vt 1.756536 1.000613
vt 1.744028 0.006674428
vt 1.744028 1.000613
vt 1.73152 0.006674428
vt 1.73152 1.000613
vt 1.719012 0.006674428
vt 1.719012 1.000613
vt 1.706505 0.006674428
vt 1.706505 1.000613
vt 1.693997 0.006674428
vt 1.693997 1.000613
vt 1.68149 0.006674428
vt 1.68149 1.000613
vt 1.668982 0.006674428
vt 1.668982 1.000613
vt 1.656474 0.006674428
vt 1.656474 1.000613
vt 1.643967 0.006674428
vt 1.643967 1.000613
vt 1.631459 0.006674428
vt 1.631459 1.000613
vt 1.618951 0.006674428
vt 1.618951 1.000613
vt 1.606444 0.006674428
vt 1.606444 1.000613
vt 1.593936 0.006674428
vt 1.593936 1.000613
vt 1.581429 0.006674428
vt 1.581429 1.000613
vt 1.571888 0.006674428
vt 1.571888 1.000613
vt 1.55938 0.006674428
vt 1.55938 1.000613
vt 1.546873 0.006674428
vt 1.546873 1.000613
vt 1.534365 0.006674428
vt 1.534365 1.000613
vt 1.521858 0.006674428
vt 1.521858 1.000613
vt 1.50935 0.006674428
vt 1.50935 1.000613
vt 1.496842 0.006674428
vt 1.496842 1.000613
vt 1.484335 0.006674428
vt 1.484335 1.000613
vt 1.471827 0.006674428
vt 1.471827 1.000613
vt 1.459319 0.006674428
vt 1.459319 1.000613
vt 1.446812 0.006674428
vt 1.446812 1.000613
vt 1.434304 0.006674428
vt 1.434304 1.000613
vt 1.421796 0.006674428
vt 1.421796 1.000613
vt 1.409289 0.006674428
vt 1.409289 1.000613
vt 1.396781 0.006674428
vt 1.396781 1.000613
vt 1.384273 0.006674428
vt 1.384273 1.000613
vt 1.371766 0.006674428
vt 1.371766 1.000613
vt 1.359258 0.006674428
vt 1.359258 1.000613
vt 1.34675 0.006674428
vt 1.34675 1.000613
vt 1.334243 0.006674428
vt 1.334243 1.000613
vt 1.321735 0.006674428
vt 1.321735 1.000613
vt 1.309227 0.006674428
vt 1.309227 1.000613
vt 1.29672 0.006674428
vt 1.29672 1.000613
vt 1.284212 0.006674428
vt 1.284212 1.000613
vt 1.271705 0.006674428
vt 1.271705 1.000613
vt 1.259197 0.006674428
vt 1.259197 1.000613
vt 1.24669 0.006674428
vt 1.24669 1.000613
vt 1.234182 0.006674428
vt 1.234182 1.000613
vt 1.221674 0.006674428
vt 1.221674 1.000613
vt 1.209167 0.006674428
vt 1.209167 1.000613
vt 1.196659 0.006674428
vt 1.196659 1.000613
vt 1.184152 0.006674428
vt 1.184152 1.000613
vt 1.171644 0.006674428
vt 1.171644 1.000613
vt 1.159136 0.006674428
vt 1.159136 1.000613
vt 1.146629 0.006674428
vt 1.146629 1.000613
vt 1.134121 0.006674428
vt 1.134121 1.000613
vt 1.121613 0.006674428
vt 1.121613 1.000613
vt 1.109106 0.006674428
vt 1.109106 1.000613
vt 1.096598 0.006674428
vt 1.096598 1.000613
vt 1.08409 0.006674428
vt 1.08409 1.000613
vt 1.071583 0.006674428
vt 1.071583 1.000613
vt 1.059075 0.006674428
vt 1.059075 1.000613
vt 1.046567 0.006674428
vt 1.046567 1.000613
vt 1.03406 0.006674428
vt 1.03406 1.000613
vt 1.021552 0.006674428
vt 1.021552 1.000613
vt 1.009045 0.006674428
vt 1.009045 1.000613
vn -0.9048265 -0.4257803 0
vn -0.8910061 -0.4539916 -2.845968E-07
vn -0.8910061 -0.4539916 -2.845968E-07
vn -0.9048265 -0.4257803 0
vn -0.9297762 -0.3681255 0
vn -0.9297762 -0.3681255 0
vn -0.9510561 -0.3090182 0
vn -0.9510561 -0.3090182 0
vn -0.9685828 -0.248691 0
vn -0.9685828 -0.248691 0
vn -0.9822871 -0.1873818 0
vn -0.9822871 -0.1873818 0
vn -0.9921145 -0.1253341 0
vn -0.9921145 -0.1253341 0
vn -0.9980265 -0.06279201 0
vn -0.9980265 -0.06279202 0
vn -1 -8.791092E-07 0
vn -1 -8.767365E-07 0
vn -0.9980268 0.06278938 0
vn -0.9980268 0.06278938 0
vn -0.9921147 0.1253324 0
vn -0.9921147 0.1253324 0
vn -0.9822873 0.1873808 0
vn -0.9822873 0.1873808 0
vn -0.9685836 0.2486884 0
vn -0.9685836 0.2486884 0
vn -0.9510569 0.3090158 0
vn -0.9510569 0.3090158 0
vn -0.9297768 0.3681237 0
vn -0.9297768 0.3681237 0
vn -0.9048274 0.4257786 0
vn -0.9048274 0.4257786 0
vn -0.8763069 0.4817534 0
vn -0.8763069 0.4817534 0
vn -0.8443285 0.5358258 0
vn -0.8443285 0.5358258 0
vn -0.8090178 0.5877842 0
vn -0.8090178 0.5877842 0
vn -0.7705139 0.6374232 -2.834192E-07
vn -0.7705139 0.6374232 -2.834192E-07
vn -0.728969 0.6845467 0
vn -0.728969 0.6845468 0
vn -0.6845475 0.7289683 0
vn -0.6845475 0.7289683 0
vn -0.6374246 0.7705128 0
vn -0.6374246 0.7705128 0
vn -0.5877854 0.809017 0
vn -0.5877854 0.809017 0
vn -0.5358276 0.8443274 0
vn -0.5358276 0.8443274 0
vn -0.4817545 0.8763062 0
vn -0.4817545 0.8763062 0
vn -0.4257793 0.9048271 0
vn -0.4257793 0.9048271 0
vn -0.3681253 0.9297763 0
vn -0.3681253 0.9297763 0
vn -0.3090176 0.9510564 0
vn -0.3090176 0.9510564 0
vn -0.2486902 0.9685832 0
vn -0.2486902 0.9685832 0
vn -0.1873817 0.9822872 0
vn -0.1873817 0.9822872 0
vn -0.1253341 0.9921145 0
vn -0.1253341 0.9921145 0
vn -0.06279114 0.9980267 0
vn -0.06279114 0.9980267 0
vn 0 1 0
vn 0 1 0
vn 0.06279027 0.9980267 0
vn 0.06279027 0.9980267 0
vn 0.1253332 0.9921146 0
vn 0.1253332 0.9921146 0
vn 0.1873809 0.9822873 0
vn 0.1873809 0.9822873 0
vn 0.2486893 0.9685833 0
vn 0.2486893 0.9685833 0
vn 0.3090166 0.9510565 0
vn 0.3090166 0.9510565 0
vn 0.3681244 0.9297766 0
vn 0.3681244 0.9297766 0
vn 0.4257794 0.9048271 0
vn 0.4257794 0.9048271 0
vn 0.4817534 0.8763068 0
vn 0.4817534 0.8763068 0
vn 0.5358266 0.844328 0
vn 0.5358266 0.844328 0
vn 0.587785 0.8090171 0
vn 0.587785 0.8090171 0
vn 0.6374239 0.7705133 0
vn 0.6374239 0.7705133 0
vn 0.6845469 0.7289687 0
vn 0.6845469 0.7289687 0
vn 0.7289684 0.6845472 0
vn 0.7289684 0.6845472 0
vn 0.7705135 0.6374238 0
vn 0.7705135 0.6374238 0
vn 0.8090168 0.5877856 2.952835E-07
vn 0.8090168 0.5877856 2.952835E-07
vn 0.8443277 0.535827 0
vn 0.8443277 0.535827 0
vn 0.8763068 0.4817535 0
vn 0.8763068 0.4817535 0
vn 0.9048271 0.4257794 0
vn 0.9048271 0.4257794 0
vn 0.9297763 0.3681251 0
vn 0.9297763 0.3681251 0
vn 0.9510565 0.3090168 0
vn 0.9510565 0.3090168 0
vn 0.9685832 0.2486894 0
vn 0.9685832 0.2486894 0
vn 0.9822872 0.1873817 0
vn 0.9822872 0.1873817 0
vn 0.9921146 0.1253333 0
vn 0.9921146 0.1253333 0
vn 0.9980267 0.06279027 0
vn 0.9980267 0.06279027 0
vn 1 3.630329E-07 0
vn 1 3.630329E-07 0
vn 0.9980268 -0.062789 0
vn 0.9980268 -0.062789 0
vn 0.9921148 -0.1253314 0
vn 0.9921148 -0.1253315 0
vn 0.9822876 -0.1873791 0
vn 0.9822876 -0.1873791 0
vn 0.9685838 -0.2486876 0
vn 0.9685838 -0.2486876 0
vn 0.951057 -0.3090157 0
vn 0.951057 -0.3090157 0
vn 0.929777 -0.3681231 0
vn 0.929777 -0.3681231 0
vn 0.904828 -0.4257774 2.860558E-07
vn 0.904828 -0.4257774 2.860558E-07
vn 0.8763078 -0.4817517 3.414214E-07
vn 0.8763078 -0.4817517 3.414213E-07
vn 0.844329 -0.5358251 0
vn 0.844329 -0.5358251 0
vn 0.8090179 -0.5877841 0
vn 0.8090179 -0.5877841 0
vn 0.7705145 -0.6374226 0
vn 0.7705145 -0.6374226 0
vn 0.7289699 -0.6845458 0
vn 0.7289699 -0.6845458 0
vn 0.6845483 -0.7289675 0
vn 0.6845483 -0.7289675 0
vn 0.6374252 -0.7705122 3.124204E-07
vn 0.6374252 -0.7705123 3.124204E-07
vn 0.5877868 -0.8090159 3.097841E-07
vn 0.5877868 -0.8090159 3.097841E-07
vn 0.5358281 -0.844327 0
vn 0.5358281 -0.844327 0
vn 0.4817547 -0.8763062 0
vn 0.4817547 -0.8763062 0
vn 0.4257814 -0.904826 0
vn 0.4257814 -0.904826 0
vn 0.3681262 -0.9297758 0
vn 0.3681262 -0.9297758 0
vn 0.3090183 -0.951056 0
vn 0.3090183 -0.951056 0
vn 0.2789928 -0.9602932 0
vn 0.2789928 -0.9602932 0
g Cylinder001_0
f 3/3/3 2/2/2 1/1/1
f 2/2/2 4/4/4 1/1/1
f 1/1/1 4/4/4 5/5/5
f 4/4/4 6/6/6 5/5/5
f 5/5/5 6/6/6 7/7/7
f 6/6/6 8/8/8 7/7/7
f 7/7/7 8/8/8 9/9/9
f 8/8/8 10/10/10 9/9/9
f 9/9/9 10/10/10 11/11/11
f 10/10/10 12/12/12 11/11/11
f 11/11/11 12/12/12 13/13/13
f 12/12/12 14/14/14 13/13/13
f 13/13/13 14/14/14 15/15/15
f 14/14/14 16/16/16 15/15/15
f 15/15/15 16/16/16 17/17/17
f 16/16/16 18/18/18 17/17/17
f 17/17/17 18/18/18 19/19/19
f 18/18/18 20/20/20 19/19/19
f 19/19/19 20/20/20 21/21/21
f 20/20/20 22/22/22 21/21/21
f 21/21/21 22/22/22 23/23/23
f 22/22/22 24/24/24 23/23/23
f 23/23/23 24/24/24 25/25/25
f 24/24/24 26/26/26 25/25/25
f 25/25/25 26/26/26 27/27/27
f 26/26/26 28/28/28 27/27/27
f 27/27/27 28/28/28 29/29/29
f 28/28/28 30/30/30 29/29/29
f 29/29/29 30/30/30 31/31/31
f 30/30/30 32/32/32 31/31/31
f 31/31/31 32/32/32 33/33/33
f 32/32/32 34/34/34 33/33/33
f 33/33/33 34/34/34 35/35/35
f 34/34/34 36/36/36 35/35/35
f 35/35/35 36/36/36 37/37/37
f 36/36/36 38/38/38 37/37/37
f 37/37/37 38/38/38 39/39/39
f 38/38/38 40/40/40 39/39/39
f 39/39/39 40/40/40 41/41/41
f 40/40/40 42/42/42 41/41/41
f 41/41/41 42/42/42 43/43/43
f 42/42/42 44/44/44 43/43/43
f 43/43/43 44/44/44 45/45/45
f 44/44/44 46/46/46 45/45/45
f 45/45/45 46/46/46 47/47/47
f 46/46/46 48/48/48 47/47/47
f 47/47/47 48/48/48 49/49/49
f 48/48/48 50/50/50 49/49/49
f 49/49/49 50/50/50 51/51/51
f 50/50/50 52/52/52 51/51/51
f 51/51/51 52/52/52 53/53/53
f 52/52/52 54/54/54 53/53/53
f 53/53/53 54/54/54 55/55/55
f 54/54/54 56/56/56 55/55/55
f 55/55/55 56/56/56 57/57/57
f 56/56/56 58/58/58 57/57/57
f 57/57/57 58/58/58 59/59/59
f 58/58/58 60/60/60 59/59/59
f 59/59/59 60/60/60 61/61/61
f 60/60/60 62/62/62 61/61/61
f 61/61/61 62/62/62 63/63/63
f 62/62/62 64/64/64 63/63/63
f 63/63/63 64/64/64 65/65/65
f 64/64/64 66/66/66 65/65/65
f 65/65/65 66/66/66 67/67/67
f 66/66/66 68/68/68 67/67/67
f 67/67/67 68/68/68 69/69/69
f 68/68/68 70/70/70 69/69/69
f 69/69/69 70/70/70 71/71/71
f 70/70/70 72/72/72 71/71/71
f 71/71/71 72/72/72 73/73/73
f 72/72/72 74/74/74 73/73/73
f 73/73/73 74/74/74 75/75/75
f 74/74/74 76/76/76 75/75/75
f 75/75/75 76/76/76 77/77/77
f 76/76/76 78/78/78 77/77/77
f 77/77/77 78/78/78 79/79/79
f 78/78/78 80/80/80 79/79/79
f 79/79/79 80/80/80 81/81/81
f 80/80/80 82/82/82 81/81/81
f 81/81/81 82/82/82 83/83/83
f 82/82/82 84/84/84 83/83/83
f 83/83/83 84/84/84 85/85/85
f 84/84/84 86/86/86 85/85/85
f 85/85/85 86/86/86 87/87/87
f 86/86/86 88/88/88 87/87/87
f 87/87/87 88/88/88 89/89/89
f 88/88/88 90/90/90 89/89/89
f 89/89/89 90/90/90 91/91/91
f 90/90/90 92/92/92 91/91/91
f 91/91/91 92/92/92 93/93/93
f 92/92/92 94/94/94 93/93/93
f 93/93/93 94/94/94 95/95/95
f 94/94/94 96/96/96 95/95/95
f 95/95/95 96/96/96 97/97/97
f 96/96/96 98/98/98 97/97/97
f 97/97/97 98/98/98 99/99/99
f 98/98/98 100/100/100 99/99/99
f 99/99/99 100/100/100 101/101/101
f 100/100/100 102/102/102 101/101/101
f 101/101/101 102/102/102 103/103/103
f 102/102/102 104/104/104 103/103/103
f 103/103/103 104/104/104 105/105/105
f 104/104/104 106/106/106 105/105/105
f 105/105/105 106/106/106 107/107/107
f 106/106/106 108/108/108 107/107/107
f 107/107/107 108/108/108 109/109/109
f 108/108/108 110/110/110 109/109/109
f 109/109/109 110/110/110 111/111/111
f 110/110/110 112/112/112 111/111/111
f 111/111/111 112/112/112 113/113/113
f 112/112/112 114/114/114 113/113/113
f 113/113/113 114/114/114 115/115/115
f 114/114/114 116/116/116 115/115/115
f 115/115/115 116/116/116 117/117/117
f 116/116/116 118/118/118 117/117/117
f 117/117/117 118/118/118 119/119/119
f 118/118/118 120/120/120 119/119/119
f 119/119/119 120/120/120 121/121/121
f 120/120/120 122/122/122 121/121/121
f 121/121/121 122/122/122 123/123/123
f 122/122/122 124/124/124 123/123/123
f 123/123/123 124/124/124 125/125/125
f 124/124/124 126/126/126 125/125/125
f 125/125/125 126/126/126 127/127/127
f 126/126/126 128/128/128 127/127/127
f 127/127/127 128/128/128 129/129/129
f 128/128/128 130/130/130 129/129/129
f 129/129/129 130/130/130 131/131/131
f 130/130/130 132/132/132 131/131/131
f 131/131/131 132/132/132 133/133/133
f 132/132/132 134/134/134 133/133/133
f 133/133/133 134/134/134 135/135/135
f 134/134/134 136/136/136 135/135/135
f 135/135/135 136/136/136 137/137/137
f 136/136/136 138/138/138 137/137/137
f 137/137/137 138/138/138 139/139/139
f 138/138/138 140/140/140 139/139/139
f 139/139/139 140/140/140 141/141/141
f 140/140/140 142/142/142 141/141/141
f 141/141/141 142/142/142 143/143/143
f 142/142/142 144/144/144 143/143/143
f 143/143/143 144/144/144 145/145/145
f 144/144/144 146/146/146 145/145/145
f 145/145/145 146/146/146 147/147/147
f 146/146/146 148/148/148 147/147/147
f 147/147/147 148/148/148 149/149/149
f 148/148/148 150/150/150 149/149/149
f 149/149/149 150/150/150 151/151/151
f 150/150/150 152/152/152 151/151/151
f 151/151/151 152/152/152 153/153/153
f 152/152/152 154/154/154 153/153/153
f 153/153/153 154/154/154 155/155/155
f 154/154/154 156/156/156 155/155/155
f 155/155/155 156/156/156 157/157/157
f 156/156/156 158/158/158 157/157/157
f 157/157/157 158/158/158 159/159/159
f 158/158/158 160/160/160 159/159/159
