g fx_mesh_arc_02
v 5.222602E-08 1.487094E-08 0.005523403
v -0.148555 -0.0992614 0.005255687
v -0.1263356 -0.1263358 0.005255687
v -0.2193997 -0.2194 0.004462813
v -0.2579869 -0.1723815 0.004462813
v -0.3211227 -0.3211231 0.003175294
v -0.3776004 -0.2523049 0.003175294
v -0.4207192 -0.4207197 0.001442598
v -0.4947135 -0.3305575 0.001442598
v -0.5384389 -0.5384396 -0.0006687092
v -0.6331374 -0.4230494 -0.0006686607
v -0.647575 -0.6475759 -0.008409225
v -0.7614679 -0.5087972 -0.008409225
v 5.222602E-08 1.487094E-08 0.005523403
v -0.1263356 -0.1263358 0.005255687
v -0.09926118 -0.1485551 0.005255687
v -0.1723812 -0.2579871 0.004462813
v -0.2193997 -0.2194 0.004462813
v -0.2523044 -0.3776007 0.003175294
v -0.3211227 -0.3211231 0.003175294
v -0.3305568 -0.494714 0.001442598
v -0.4207192 -0.4207197 0.001442598
v -0.4230486 -0.6331379 -0.0006687092
v -0.5384389 -0.5384396 -0.0006687092
v -0.5087962 -0.7614685 -0.008409225
v -0.647575 -0.6475759 -0.008409225
v 5.222602E-08 1.487094E-08 0.005523403
v -0.09926118 -0.1485551 0.005255687
v -0.0683722 -0.1650656 0.005255687
v -0.1187381 -0.2866598 0.004462813
v -0.1723812 -0.2579871 0.004462813
v -0.17379 -0.4195674 0.003175294
v -0.2523044 -0.3776007 0.003175294
v -0.2276913 -0.5496966 0.001442598
v -0.3305568 -0.494714 0.001442598
v -0.2914006 -0.7035051 -0.0006687092
v -0.4230486 -0.6331379 -0.0006687092
v -0.3504646 -0.8460984 -0.008409225
v -0.5087962 -0.7614685 -0.008409225
v 5.222602E-08 1.487094E-08 0.005523403
v -0.0683722 -0.1650656 0.005255687
v -0.03485573 -0.1752327 0.005255687
v -0.06053197 -0.3043164 0.004462813
v -0.1187381 -0.2866598 0.004462813
v -0.08859718 -0.4454103 0.003175294
v -0.17379 -0.4195674 0.003175294
v -0.1160757 -0.5835547 0.001442598
v -0.2276913 -0.5496966 0.001442598
v -0.1485544 -0.746837 -0.0006687092
v -0.2914006 -0.7035051 -0.0006687092
v -0.1786648 -0.8982131 -0.008409225
v -0.3504646 -0.8460984 -0.008409225
v 5.222602E-08 1.487094E-08 0.005523403
v -0.03485573 -0.1752327 0.005255687
v 2.247455E-07 -0.1786657 0.005255687
v 3.518667E-07 -0.3102783 0.004462813
v -0.06053197 -0.3043164 0.004462813
v 4.961107E-07 -0.4541363 0.003175294
v -0.08859718 -0.4454103 0.003175294
v 6.307068E-07 -0.5949872 0.001442598
v -0.1160757 -0.5835547 0.001442598
v 7.839855E-07 -0.7614682 -0.0006687092
v -0.1485544 -0.746837 -0.0006687092
v 9.365313E-07 -0.91581 -0.008409225
v -0.1786648 -0.8982131 -0.008409225
v 5.222602E-08 1.487094E-08 0.005523403
v 2.247455E-07 -0.1786657 0.005255687
v 0.03485618 -0.1752326 0.005255687
v 0.06053267 -0.3043163 0.004462813
v 3.518667E-07 -0.3102783 0.004462813
v 0.08859813 -0.4454101 0.003175294
v 4.961107E-07 -0.4541363 0.003175294
v 0.1160769 -0.5835545 0.001442598
v 6.307068E-07 -0.5949872 0.001442598
v 0.1485559 -0.7468366 -0.0006687092
v 7.839855E-07 -0.7614682 -0.0006687092
v 0.1786667 -0.8982128 -0.008409225
v 9.365313E-07 -0.91581 -0.008409225
v 5.222602E-08 1.487094E-08 0.005523403
v 0.03485618 -0.1752326 0.005255687
v 0.06837262 -0.1650655 0.005255687
v 0.1187387 -0.2866596 0.004462813
v 0.06053267 -0.3043163 0.004462813
v 0.1737911 -0.419567 0.003175294
v 0.08859813 -0.4454101 0.003175294
v 0.2276924 -0.5496962 0.001442598
v 0.1160769 -0.5835545 0.001442598
v 0.2914021 -0.7035045 -0.0006687092
v 0.1485559 -0.7468366 -0.0006687092
v 0.3504663 -0.8460976 -0.008409225
v 0.1786667 -0.8982128 -0.008409225
v 5.222602E-08 1.487094E-08 0.005523403
v 0.06837262 -0.1650655 0.005255687
v 0.09926156 -0.148555 0.005255687
v 0.1723818 -0.2579868 0.004462813
v 0.1187387 -0.2866596 0.004462813
v 0.2523052 -0.3776002 0.003175294
v 0.1737911 -0.419567 0.003175294
v 0.3305579 -0.4947134 0.001442598
v 0.2276924 -0.5496962 0.001442598
v 0.4230499 -0.6331372 -0.0006687092
v 0.2914021 -0.7035045 -0.0006687092
v 0.5087978 -0.7614676 -0.008409225
v 0.3504663 -0.8460976 -0.008409225
v 5.222602E-08 1.487094E-08 0.005523403
v 0.09926156 -0.148555 0.005255687
v 0.1263359 -0.1263355 0.005255687
v 0.2194002 -0.2193996 0.004462813
v 0.1723818 -0.2579868 0.004462813
v 0.3211234 -0.3211225 0.003175294
v 0.2523052 -0.3776002 0.003175294
v 0.4207202 -0.4207189 0.001442598
v 0.3305579 -0.4947134 0.001442598
v 0.53844 -0.5384386 -0.0006687092
v 0.4230499 -0.6331372 -0.0006687092
v 0.6475763 -0.6475746 -0.008409225
v 0.5087978 -0.7614676 -0.008409225
v 5.222602E-08 1.487094E-08 0.005523403
v 0.1263359 -0.1263355 0.005255687
v 0.1485553 -0.09926111 0.005255687
v 0.2579873 -0.172381 0.004462813
v 0.2194002 -0.2193996 0.004462813
v 0.377601 -0.2523041 0.003175294
v 0.3211234 -0.3211225 0.003175294
v 0.4947144 -0.3305565 0.001442598
v 0.4207202 -0.4207189 0.001442598
v 0.6331383 -0.4230482 -0.0006686607
v 0.53844 -0.5384386 -0.0006687092
v 0.7614689 -0.5087957 -0.008409225
v 0.6475763 -0.6475746 -0.008409225
vt 0.002050996 0.9995178
vt 0.002050996 0.8324553
vt 0.1018379 0.8324553
vt 0.1018379 0.6653929
vt 0.002050996 0.6653929
vt 0.1018379 0.4983303
vt 0.002050996 0.4983303
vt 0.1018379 0.3312679
vt 0.002050996 0.3312679
vt 0.1018379 0.1642053
vt 0.002050996 0.1642053
vt 0.1018379 0.002822699
vt 0.002050996 0.002822699
vt 0.1018379 0.9995178
vt 0.1018379 0.8324553
vt 0.2016248 0.8324553
vt 0.2016248 0.6653929
vt 0.1018379 0.6653929
vt 0.2016248 0.4983303
vt 0.1018379 0.4983303
vt 0.2016248 0.3312679
vt 0.1018379 0.3312679
vt 0.2016248 0.1642053
vt 0.1018379 0.1642053
vt 0.2016248 0.002822699
vt 0.1018379 0.002822699
vt 0.2016248 0.9995178
vt 0.2016248 0.8324553
vt 0.3014117 0.8324553
vt 0.3014117 0.6653929
vt 0.2016248 0.6653929
vt 0.3014117 0.4983303
vt 0.2016248 0.4983303
vt 0.3014117 0.3312679
vt 0.2016248 0.3312679
vt 0.3014117 0.1642053
vt 0.2016248 0.1642053
vt 0.3014117 0.002822699
vt 0.2016248 0.002822699
vt 0.3014117 0.9995178
vt 0.3014117 0.8324553
vt 0.4011986 0.8324553
vt 0.4011986 0.6653929
vt 0.3014117 0.6653929
vt 0.4011986 0.4983303
vt 0.3014117 0.4983303
vt 0.4011986 0.3312679
vt 0.3014117 0.3312679
vt 0.4011986 0.1642053
vt 0.3014117 0.1642053
vt 0.4011986 0.002822699
vt 0.3014117 0.002822699
vt 0.4011986 0.9995178
vt 0.4011986 0.8324553
vt 0.5009856 0.8324553
vt 0.5009856 0.6653929
vt 0.4011986 0.6653929
vt 0.5009856 0.4983303
vt 0.4011986 0.4983303
vt 0.5009856 0.3312679
vt 0.4011986 0.3312679
vt 0.5009856 0.1642053
vt 0.4011986 0.1642053
vt 0.5009856 0.002822699
vt 0.4011986 0.002822699
vt 0.5009856 0.9995178
vt 0.5009856 0.8324553
vt 0.6007724 0.8324553
vt 0.6007724 0.6653929
vt 0.5009856 0.6653929
vt 0.6007724 0.4983303
vt 0.5009856 0.4983303
vt 0.6007724 0.3312679
vt 0.5009856 0.3312679
vt 0.6007724 0.1642053
vt 0.5009856 0.1642053
vt 0.6007724 0.002822699
vt 0.5009856 0.002822699
vt 0.6007724 0.9995178
vt 0.6007724 0.8324553
vt 0.7005593 0.8324553
vt 0.7005593 0.6653929
vt 0.6007724 0.6653929
vt 0.7005593 0.4983303
vt 0.6007724 0.4983303
vt 0.7005593 0.3312679
vt 0.6007724 0.3312679
vt 0.7005593 0.1642053
vt 0.6007724 0.1642053
vt 0.7005593 0.002822699
vt 0.6007724 0.002822699
vt 0.7005593 0.9995178
vt 0.7005593 0.8324553
vt 0.8003461 0.8324553
vt 0.8003461 0.6653929
vt 0.7005593 0.6653929
vt 0.8003461 0.4983303
vt 0.7005593 0.4983303
vt 0.8003461 0.3312679
vt 0.7005593 0.3312679
vt 0.8003461 0.1642053
vt 0.7005593 0.1642053
vt 0.8003461 0.002822699
vt 0.7005593 0.002822699
vt 0.8003461 0.9995178
vt 0.8003461 0.8324553
vt 0.900133 0.8324553
vt 0.900133 0.6653929
vt 0.8003461 0.6653929
vt 0.900133 0.4983303
vt 0.8003461 0.4983303
vt 0.900133 0.3312679
vt 0.8003461 0.3312679
vt 0.900133 0.1642053
vt 0.8003461 0.1642053
vt 0.900133 0.002822699
vt 0.8003461 0.002822699
vt 0.900133 0.9995178
vt 0.900133 0.8324553
vt 0.99992 0.8324553
vt 0.99992 0.6653929
vt 0.900133 0.6653929
vt 0.99992 0.4983303
vt 0.900133 0.4983303
vt 0.99992 0.3312679
vt 0.900133 0.3312679
vt 0.99992 0.1642053
vt 0.900133 0.1642053
vt 0.99992 0.002822699
vt 0.900133 0.002822699
vn 0.001163897 0.0009551868 -0.9999989
vn 0.001163897 0.0009551868 -0.9999989
vn 0.001163897 0.0009551867 -0.9999989
vn 0.004679294 0.003840202 -0.9999818
vn 0.004679293 0.003840202 -0.9999818
vn 0.006951576 0.005705017 -0.9999596
vn 0.006951576 0.005705017 -0.9999596
vn 0.009554571 0.007841246 -0.9999236
vn 0.009554571 0.007841246 -0.9999236
vn 0.009849694 0.008083686 -0.9999188
vn 0.009849694 0.008083684 -0.9999188
vn 0.03890606 0.03192963 -0.9987326
vn 0.03890606 0.03192962 -0.9987326
vn 0.0009551855 0.001163898 -0.9999989
vn 0.0009551855 0.001163898 -0.9999989
vn 0.0009551855 0.001163898 -0.9999989
vn 0.003840196 0.0046793 -0.9999818
vn 0.003840196 0.0046793 -0.9999818
vn 0.005705004 0.006951584 -0.9999596
vn 0.005705005 0.006951584 -0.9999596
vn 0.007841232 0.009554582 -0.9999236
vn 0.007841232 0.009554581 -0.9999236
vn 0.008083626 0.009849934 -0.9999188
vn 0.008083626 0.009849934 -0.9999188
vn 0.03192935 0.03890609 -0.9987326
vn 0.03192935 0.03890609 -0.9987326
vn 0.0007097667 0.001327882 -0.9999989
vn 0.0007097666 0.001327882 -0.9999989
vn 0.0007097667 0.001327882 -0.9999989
vn 0.002853522 0.005338574 -0.9999818
vn 0.002853522 0.005338574 -0.9999818
vn 0.0042392 0.007931003 -0.9999596
vn 0.0042392 0.007931004 -0.9999596
vn 0.005826552 0.01090074 -0.9999236
vn 0.005826552 0.01090074 -0.9999236
vn 0.006006669 0.01123771 -0.9999188
vn 0.006006669 0.01123771 -0.9999188
vn 0.02372564 0.04438762 -0.9987326
vn 0.02372564 0.04438762 -0.9987326
vn 0.0004370708 0.001440836 -0.9999989
vn 0.0004370708 0.001440836 -0.9999989
vn 0.0004370707 0.001440835 -0.9999989
vn 0.001757186 0.005792691 -0.9999818
vn 0.001757186 0.005792691 -0.9999818
vn 0.002610483 0.008605639 -0.9999596
vn 0.002610483 0.008605638 -0.9999596
vn 0.00358797 0.01182799 -0.9999236
vn 0.00358797 0.01182799 -0.9999236
vn 0.003698885 0.01219362 -0.9999188
vn 0.003698885 0.01219362 -0.9999188
vn 0.01461015 0.04816337 -0.9987326
vn 0.01461015 0.04816337 -0.9987326
vn 0.0001475806 0.001498419 -0.9999989
vn 0.0001475806 0.001498419 -0.9999989
vn 0.0001475806 0.001498419 -0.9999989
vn 0.000593328 0.006024194 -0.9999818
vn 0.000593328 0.006024194 -0.9999818
vn 0.0008814484 0.008949564 -0.9999596
vn 0.0008814484 0.008949564 -0.9999596
vn 0.0012115 0.0123007 -0.9999236
vn 0.0012115 0.0123007 -0.9999236
vn 0.001248949 0.01268094 -0.9999188
vn 0.001248949 0.01268094 -0.9999188
vn 0.00493321 0.05008824 -0.9987326
vn 0.00493321 0.05008823 -0.9987326
vn -0.0001475836 0.001498418 -0.9999989
vn -0.0001475836 0.001498418 -0.9999989
vn -0.0001475836 0.001498418 -0.9999989
vn -0.0005933371 0.006024193 -0.9999818
vn -0.0005933371 0.006024193 -0.9999818
vn -0.0008814645 0.008949564 -0.9999596
vn -0.0008814645 0.008949564 -0.9999596
vn -0.001211526 0.01230069 -0.9999236
vn -0.001211526 0.01230069 -0.9999236
vn -0.001248977 0.01268094 -0.9999188
vn -0.001248977 0.01268094 -0.9999188
vn -0.004933306 0.05008822 -0.9987326
vn -0.004933306 0.05008821 -0.9987326
vn -0.000437074 0.001440835 -0.9999989
vn -0.000437074 0.001440835 -0.9999989
vn -0.000437074 0.001440835 -0.9999989
vn -0.001757201 0.005792685 -0.9999818
vn -0.001757201 0.005792685 -0.9999818
vn -0.002610503 0.008605634 -0.9999596
vn -0.002610503 0.008605634 -0.9999596
vn -0.003587991 0.01182798 -0.9999236
vn -0.003587991 0.01182798 -0.9999236
vn -0.003698907 0.01219362 -0.9999188
vn -0.003698907 0.01219362 -0.9999188
vn -0.01461026 0.04816334 -0.9987326
vn -0.01461026 0.04816334 -0.9987326
vn -0.0007097684 0.00132788 -0.9999989
vn -0.0007097684 0.00132788 -0.9999989
vn -0.0007097684 0.00132788 -0.9999989
vn -0.002853531 0.00533857 -0.9999818
vn -0.002853531 0.00533857 -0.9999818
vn -0.004239216 0.007930996 -0.9999596
vn -0.004239216 0.007930995 -0.9999596
vn -0.005826573 0.01090073 -0.9999236
vn -0.005826573 0.01090073 -0.9999236
vn -0.006006689 0.0112377 -0.9999188
vn -0.006006689 0.0112377 -0.9999188
vn -0.02372572 0.0443876 -0.9987326
vn -0.02372572 0.04438759 -0.9987326
vn -0.0009551872 0.001163897 -0.9999989
vn -0.0009551872 0.001163897 -0.9999989
vn -0.0009551872 0.001163897 -0.9999989
vn -0.003840207 0.004679293 -0.9999818
vn -0.003840206 0.004679292 -0.9999818
vn -0.005705021 0.006951572 -0.9999596
vn -0.00570502 0.006951571 -0.9999596
vn -0.007841246 0.009554562 -0.9999236
vn -0.007841246 0.009554562 -0.9999236
vn -0.008083642 0.00984992 -0.9999188
vn -0.008083642 0.009849919 -0.9999188
vn -0.03192944 0.03890602 -0.9987326
vn -0.03192944 0.03890602 -0.9987326
vn -0.001163898 0.0009551845 -0.9999989
vn -0.001163898 0.0009551845 -0.9999989
vn -0.001163898 0.0009551845 -0.9999989
vn -0.004679302 0.003840195 -0.9999818
vn -0.004679302 0.003840195 -0.9999818
vn -0.006951584 0.005705005 -0.9999596
vn -0.006951584 0.005705005 -0.9999596
vn -0.009554576 0.007841224 -0.9999236
vn -0.009554576 0.007841224 -0.9999236
vn -0.009849716 0.008083672 -0.9999188
vn -0.009849716 0.008083672 -0.9999188
vn -0.03890613 0.03192955 -0.9987326
vn -0.03890613 0.03192955 -0.9987326
g fx_mesh_arc_02_0
f 3/3/3 2/2/2 1/1/1
f 3/3/3 4/4/4 2/2/2
f 4/4/4 5/5/5 2/2/2
f 4/4/4 6/6/6 5/5/5
f 6/6/6 7/7/7 5/5/5
f 6/6/6 8/8/8 7/7/7
f 8/8/8 9/9/9 7/7/7
f 8/8/8 10/10/10 9/9/9
f 10/10/10 11/11/11 9/9/9
f 10/10/10 12/12/12 11/11/11
f 12/12/12 13/13/13 11/11/11
f 16/16/16 15/15/15 14/14/14
f 16/16/16 17/17/17 15/15/15
f 17/17/17 18/18/18 15/15/15
f 17/17/17 19/19/19 18/18/18
f 19/19/19 20/20/20 18/18/18
f 19/19/19 21/21/21 20/20/20
f 21/21/21 22/22/22 20/20/20
f 21/21/21 23/23/23 22/22/22
f 23/23/23 24/24/24 22/22/22
f 23/23/23 25/25/25 24/24/24
f 25/25/25 26/26/26 24/24/24
f 29/29/29 28/28/28 27/27/27
f 29/29/29 30/30/30 28/28/28
f 30/30/30 31/31/31 28/28/28
f 30/30/30 32/32/32 31/31/31
f 32/32/32 33/33/33 31/31/31
f 32/32/32 34/34/34 33/33/33
f 34/34/34 35/35/35 33/33/33
f 34/34/34 36/36/36 35/35/35
f 36/36/36 37/37/37 35/35/35
f 36/36/36 38/38/38 37/37/37
f 38/38/38 39/39/39 37/37/37
f 42/42/42 41/41/41 40/40/40
f 42/42/42 43/43/43 41/41/41
f 43/43/43 44/44/44 41/41/41
f 43/43/43 45/45/45 44/44/44
f 45/45/45 46/46/46 44/44/44
f 45/45/45 47/47/47 46/46/46
f 47/47/47 48/48/48 46/46/46
f 47/47/47 49/49/49 48/48/48
f 49/49/49 50/50/50 48/48/48
f 49/49/49 51/51/51 50/50/50
f 51/51/51 52/52/52 50/50/50
f 55/55/55 54/54/54 53/53/53
f 55/55/55 56/56/56 54/54/54
f 56/56/56 57/57/57 54/54/54
f 56/56/56 58/58/58 57/57/57
f 58/58/58 59/59/59 57/57/57
f 58/58/58 60/60/60 59/59/59
f 60/60/60 61/61/61 59/59/59
f 60/60/60 62/62/62 61/61/61
f 62/62/62 63/63/63 61/61/61
f 62/62/62 64/64/64 63/63/63
f 64/64/64 65/65/65 63/63/63
f 68/68/68 67/67/67 66/66/66
f 68/68/68 69/69/69 67/67/67
f 69/69/69 70/70/70 67/67/67
f 69/69/69 71/71/71 70/70/70
f 71/71/71 72/72/72 70/70/70
f 71/71/71 73/73/73 72/72/72
f 73/73/73 74/74/74 72/72/72
f 73/73/73 75/75/75 74/74/74
f 75/75/75 76/76/76 74/74/74
f 75/75/75 77/77/77 76/76/76
f 77/77/77 78/78/78 76/76/76
f 81/81/81 80/80/80 79/79/79
f 81/81/81 82/82/82 80/80/80
f 82/82/82 83/83/83 80/80/80
f 82/82/82 84/84/84 83/83/83
f 84/84/84 85/85/85 83/83/83
f 84/84/84 86/86/86 85/85/85
f 86/86/86 87/87/87 85/85/85
f 86/86/86 88/88/88 87/87/87
f 88/88/88 89/89/89 87/87/87
f 88/88/88 90/90/90 89/89/89
f 90/90/90 91/91/91 89/89/89
f 94/94/94 93/93/93 92/92/92
f 94/94/94 95/95/95 93/93/93
f 95/95/95 96/96/96 93/93/93
f 95/95/95 97/97/97 96/96/96
f 97/97/97 98/98/98 96/96/96
f 97/97/97 99/99/99 98/98/98
f 99/99/99 100/100/100 98/98/98
f 99/99/99 101/101/101 100/100/100
f 101/101/101 102/102/102 100/100/100
f 101/101/101 103/103/103 102/102/102
f 103/103/103 104/104/104 102/102/102
f 107/107/107 106/106/106 105/105/105
f 107/107/107 108/108/108 106/106/106
f 108/108/108 109/109/109 106/106/106
f 108/108/108 110/110/110 109/109/109
f 110/110/110 111/111/111 109/109/109
f 110/110/110 112/112/112 111/111/111
f 112/112/112 113/113/113 111/111/111
f 112/112/112 114/114/114 113/113/113
f 114/114/114 115/115/115 113/113/113
f 114/114/114 116/116/116 115/115/115
f 116/116/116 117/117/117 115/115/115
f 120/120/120 119/119/119 118/118/118
f 120/120/120 121/121/121 119/119/119
f 121/121/121 122/122/122 119/119/119
f 121/121/121 123/123/123 122/122/122
f 123/123/123 124/124/124 122/122/122
f 123/123/123 125/125/125 124/124/124
f 125/125/125 126/126/126 124/124/124
f 125/125/125 127/127/127 126/126/126
f 127/127/127 128/128/128 126/126/126
f 127/127/127 129/129/129 128/128/128
f 129/129/129 130/130/130 128/128/128
