g fx_mesh_helix_09b
v -0.02727903 -1.670359E-18 0.09583364
v -0.01496857 0.173707 0.1991176
v 0.02727906 1.670361E-18 0.1581664
v -0.08560366 0.157975 0.110412
v -0.07687087 0.3505661 0.2160348
v -0.1564312 0.3107449 0.1050782
v -0.1472236 0.5281505 0.2014987
v -0.2317005 0.4606774 0.07380582
v -0.2119538 0.7037178 0.1533328
v -0.3014595 0.6104499 0.01348533
v -0.2569019 0.8746274 0.07574054
v -0.3543915 0.7626351 -0.07574049
v -0.270256 1.039433 -0.0204882
v -0.3790797 0.9186062 -0.1904938
v -0.2464382 1.195997 -0.1227853
v -0.363731 1.080421 -0.3205285
v -0.1849405 1.343835 -0.2165783
v -0.3003758 1.248479 -0.451402
v -0.09032915 1.48335 -0.2885765
v -0.1868984 1.422286 -0.5646428
v 0.02905793 1.615642 -0.3280939
v -0.02905782 1.60064 -0.6404927
v 0.1623746 1.742103 -0.3260898
v 0.1590171 1.78204 -0.6630521
v 0.2965567 1.864251 -0.2798152
v 0.3567691 1.96485 -0.6194102
v 0.4179602 1.983985 -0.1883126
v 0.5390768 2.147039 -0.5070151
v 0.5121899 2.103074 -0.05427772
v 0.6808355 2.32669 -0.3333598
v 0.5647861 2.223036 0.1152227
v 0.7610938 2.502124 -0.1152225
v 0.5620575 2.344267 0.3085088
v 0.7668905 2.672765 0.1232929
v 0.4949094 2.468788 0.5073394
v 0.6933727 2.836383 0.3559978
v 0.3587717 2.596885 0.6902092
v 0.5465676 2.992459 0.5558845
v 0.1568592 2.7285 0.8328296
v 0.3411879 3.140782 0.7000023
v -0.09850459 2.863305 0.9112808
v 0.0985042 3.281366 0.7718927
v -0.3862668 3.000039 0.905917
v -0.1559449 3.415102 0.7628371
v -0.6771454 3.138827 0.8041827
v -0.396204 3.541417 0.6731559
v -0.937606 3.278781 0.6042864
v -0.5975438 3.660654 0.511065
v -1.133552 3.418873 0.3165811
v -0.7390867 3.773153 0.2918755
v -1.234892 3.557936 -0.0364541
v -0.8055753 3.879185 0.03645337
v -1.220376 3.694309 -0.4221521
v -0.7881845 3.979188 -0.2304698
v -1.079617 3.826756 -0.8005927
v -0.6867771 4.072617 -0.4827695
v -0.8168741 3.952958 -1.129173
v -0.5084897 4.158911 -0.6950328
v -0.4511539 4.069029 -1.367657
v -0.267713 4.236317 -0.8447871
v -0.02031815 4.157374 -1.479061
v 0.02031819 4.300826 -0.918699
vt 1 2.980232E-08
vt 0.977852 1
vt 0.9999999 1
vt 0.977852 2.88342E-08
vt 0.9554186 1
vt 0.9554186 2.785361E-08
vt 0.9326187 1
vt 0.9326187 2.685699E-08
vt 0.9093751 1
vt 0.9093751 2.584098E-08
vt 0.8856151 1
vt 0.8856152 2.48024E-08
vt 0.8612709 1
vt 0.861271 2.373828E-08
vt 0.8362796 1
vt 0.8362796 2.264588E-08
vt 0.8105832 1
vt 0.8105833 2.152266E-08
vt 0.7841287 1
vt 0.7841288 2.036629E-08
vt 0.7568677 1
vt 0.7568678 1.917467E-08
vt 0.7287563 1
vt 0.7287563 1.794589E-08
vt 0.6997547 1
vt 0.6997547 1.667818E-08
vt 0.669827 1
vt 0.669827 1.537E-08
vt 0.638941 1
vt 0.638941 1.401993E-08
vt 0.6070678 1
vt 0.6070678 1.262671E-08
vt 0.5741814 1
vt 0.5741815 1.11892E-08
vt 0.5402593 1
vt 0.5402594 9.706419E-09
vt 0.5052809 1
vt 0.5052809 8.177464E-09
vt 0.4692287 1
vt 0.4692287 6.601574E-09
vt 0.4320874 1
vt 0.4320875 4.978078E-09
vt 0.3938444 1
vt 0.3938445 3.306424E-09
vt 0.3544895 1
vt 0.3544896 1.586166E-09
vt 0.3140151 1
vt 0.3140152 -1.830287E-10
vt 0.2724168 1
vt 0.2724169 -2.001347E-09
vt 0.2296941 1
vt 0.2296941 -3.868816E-09
vt 0.1858516 1
vt 0.1858516 -5.785232E-09
vt 0.1409019 1
vt 0.1409019 -7.750046E-09
vt 0.09487242 1
vt 0.09487247 -9.762058E-09
vt 0.04782385 1
vt 0.04782391 -1.181862E-08
vt 0 1
vt 0 -1.390907E-08
vn -0.7126031 -0.3205527 0.6240536
vn -0.7145022 -0.3151861 0.6246154
vn -0.7126032 -0.3205527 0.6240535
vn -0.7145041 -0.3151803 0.624616
vn -0.7314858 -0.2757916 0.6235925
vn -0.731448 -0.2758805 0.6235974
vn -0.7717769 -0.1847871 0.6084523
vn -0.7716145 -0.1851656 0.6085431
vn -0.8244907 -0.05311038 0.5633776
vn -0.8242229 -0.05385837 0.5636983
vn -0.8693944 0.1035725 0.4831419
vn -0.869174 0.1025261 0.4837611
vn -0.8865567 0.2672085 0.3776465
vn -0.8865594 0.2660455 0.3784603
vn -0.8667107 0.4205659 0.2682107
vn -0.8669892 0.4194908 0.2689928
vn -0.8160559 0.5499834 0.1776827
vn -0.8164918 0.5491601 0.1782254
vn -0.7537777 0.6459582 0.120653
vn -0.7541658 0.6454592 0.1208982
vn -0.7040212 0.7035117 0.09708498
vn -0.7042219 0.7033041 0.09713396
vn -0.6863998 0.7213442 0.09229323
vn -0.6863939 0.7213493 0.09229597
vn -0.7081131 0.701296 0.08221676
vn -0.7080083 0.701396 0.0822663
vn -0.7611137 0.6472577 0.04199165
vn -0.7610493 0.6473294 0.04205315
vn -0.8242421 0.5643901 -0.0457044
vn -0.824271 0.5643433 -0.04575938
vn -0.8692262 0.4585228 -0.1849398
vn -0.869272 0.4583228 -0.1852195
vn -0.8685293 0.3359669 -0.3643942
vn -0.8684434 0.3356087 -0.3649283
vn -0.8031735 0.2029209 -0.5601209
vn -0.8027965 0.2024139 -0.5608444
vn -0.6674491 0.06490408 -0.7418216
vn -0.6667129 0.06430484 -0.7425354
vn -0.4704291 -0.07302479 -0.8794112
vn -0.4693848 -0.07366256 -0.8799157
vn -0.2336042 -0.2066914 -0.9501094
vn -0.2323934 -0.2073235 -0.9502684
vn 0.01384341 -0.3326982 -0.9429317
vn 0.01503845 -0.3332911 -0.9427041
vn 0.2415719 -0.4485765 -0.8604779
vn 0.2425749 -0.4491025 -0.8599212
vn 0.4242492 -0.5528165 -0.7172214
vn 0.4249511 -0.5532623 -0.7164617
vn 0.5454308 -0.6445796 -0.5357446
vn 0.5458033 -0.6449423 -0.5349282
vn 0.5996041 -0.7236791 -0.3417068
vn 0.5996877 -0.7239656 -0.3409523
vn 0.5915753 -0.790413 -0.159016
vn 0.5914477 -0.7906302 -0.1584094
vn 0.533852 -0.8455586 -0.005712236
vn 0.5336121 -0.8457127 -0.005297835
vn 0.4419105 -0.8904811 0.1084367
vn 0.441648 -0.8905828 0.1086703
vn 0.323132 -0.9277964 0.1864926
vn 0.3230408 -0.9278195 0.1865357
vn 0.2562638 -0.9418915 0.2171848
vn 0.2562638 -0.9418915 0.2171848
g fx_mesh_helix_09b_0
f 3/3/3 2/2/2 1/1/1
f 2/2/2 4/4/4 1/1/1
f 2/2/2 5/5/5 4/4/4
f 5/5/5 6/6/6 4/4/4
f 5/5/5 7/7/7 6/6/6
f 7/7/7 8/8/8 6/6/6
f 7/7/7 9/9/9 8/8/8
f 9/9/9 10/10/10 8/8/8
f 9/9/9 11/11/11 10/10/10
f 11/11/11 12/12/12 10/10/10
f 11/11/11 13/13/13 12/12/12
f 13/13/13 14/14/14 12/12/12
f 13/13/13 15/15/15 14/14/14
f 15/15/15 16/16/16 14/14/14
f 15/15/15 17/17/17 16/16/16
f 17/17/17 18/18/18 16/16/16
f 17/17/17 19/19/19 18/18/18
f 19/19/19 20/20/20 18/18/18
f 19/19/19 21/21/21 20/20/20
f 21/21/21 22/22/22 20/20/20
f 21/21/21 23/23/23 22/22/22
f 23/23/23 24/24/24 22/22/22
f 23/23/23 25/25/25 24/24/24
f 25/25/25 26/26/26 24/24/24
f 25/25/25 27/27/27 26/26/26
f 27/27/27 28/28/28 26/26/26
f 27/27/27 29/29/29 28/28/28
f 29/29/29 30/30/30 28/28/28
f 29/29/29 31/31/31 30/30/30
f 31/31/31 32/32/32 30/30/30
f 31/31/31 33/33/33 32/32/32
f 33/33/33 34/34/34 32/32/32
f 33/33/33 35/35/35 34/34/34
f 35/35/35 36/36/36 34/34/34
f 35/35/35 37/37/37 36/36/36
f 37/37/37 38/38/38 36/36/36
f 37/37/37 39/39/39 38/38/38
f 39/39/39 40/40/40 38/38/38
f 39/39/39 41/41/41 40/40/40
f 41/41/41 42/42/42 40/40/40
f 41/41/41 43/43/43 42/42/42
f 43/43/43 44/44/44 42/42/42
f 43/43/43 45/45/45 44/44/44
f 45/45/45 46/46/46 44/44/44
f 45/45/45 47/47/47 46/46/46
f 47/47/47 48/48/48 46/46/46
f 47/47/47 49/49/49 48/48/48
f 49/49/49 50/50/50 48/48/48
f 49/49/49 51/51/51 50/50/50
f 51/51/51 52/52/52 50/50/50
f 51/51/51 53/53/53 52/52/52
f 53/53/53 54/54/54 52/52/52
f 53/53/53 55/55/55 54/54/54
f 55/55/55 56/56/56 54/54/54
f 55/55/55 57/57/57 56/56/56
f 57/57/57 58/58/58 56/56/56
f 57/57/57 59/59/59 58/58/58
f 59/59/59 60/60/60 58/58/58
f 59/59/59 61/61/61 60/60/60
f 61/61/61 62/62/62 60/60/60
