g fx_mesh_trail_01
v 0.4953106 -0.2407435 -2.490093
v 2.867423E-07 1.346736E-07 -3.798017
v 5.505603E-07 -0.2407435 -2.538877
v 0.7409564 1.314836E-07 -3.725039
v 0.9715863 -0.2407435 -2.345616
v 1.453438 1.220363E-07 -3.508909
v 1.410525 -0.2407435 -2.110999
v 2.110065 1.066948E-07 -3.157936
v 1.795257 -0.2407435 -1.795257
v 2.685603 8.604849E-08 -2.685603
v 2.110999 -0.2407435 -1.410524
v 3.157935 6.08909E-08 -2.110065
v 2.345617 -0.2407435 -0.9715861
v 3.508909 3.218883E-08 -1.453438
v 2.490093 -0.2407436 -0.4953104
v 3.725039 1.045256E-09 -0.7409563
v 2.538877 -0.2407436 -1.162192E-07
v 3.798017 -3.134298E-08 -1.370045E-15
v 2.490094 -0.2407436 0.4953063
v 3.725039 -6.373096E-08 0.7409506
v 2.345618 -0.2407436 0.9715824
v 3.508912 -9.487456E-08 1.453433
v 2.111001 -0.2407437 1.410521
v 3.157938 -1.235767E-07 2.11006
v 1.795259 -0.2407437 1.795255
v 2.685606 -1.487343E-07 2.6856
v 1.410527 -0.2407437 2.110997
v 2.110069 -1.693806E-07 3.157933
v 0.9715889 -0.2407437 2.345616
v 1.453442 -1.847222E-07 3.508908
v 0.4953132 -0.2407437 2.490093
v 0.7409601 -1.941696E-07 3.725038
v 2.810417E-06 -0.2407437 2.538877
v 3.667361E-06 -1.973596E-07 3.798017
v -0.4953078 -0.2407437 2.490093
v -0.7409531 -1.941696E-07 3.725039
v -0.9715838 -0.2407437 2.345617
v -1.453435 -1.847224E-07 3.508911
v -1.410522 -0.2407437 2.111
v -2.110063 -1.693808E-07 3.157937
v -1.795255 -0.2407437 1.795258
v -2.685601 -1.487345E-07 2.685605
v -2.110997 -0.2407437 1.410525
v -3.157934 -1.235769E-07 2.110067
v -2.345615 -0.2407436 0.9715871
v -3.508909 -9.487484E-08 1.45344
v -2.490092 -0.2407436 0.4953112
v -3.725038 -6.373128E-08 0.7409579
v -2.538876 -0.2407436 7.110519E-07
v -3.798017 -3.134303E-08 1.237551E-06
v -2.490093 -0.2407436 -0.4953097
v -3.725039 1.045209E-09 -0.7409552
v -2.345616 -0.2407435 -0.9715858
v -3.50891 3.218879E-08 -1.453437
v -2.110999 -0.2407435 -1.410524
v -3.157936 6.08909E-08 -2.110065
v -1.795256 -0.2407435 -1.795257
v -2.685603 8.604849E-08 -2.685603
v -1.410524 -0.2407435 -2.110999
v -2.110065 1.066948E-07 -3.157936
v -0.9715853 -0.2407435 -2.345616
v -1.453437 1.220364E-07 -3.50891
v -0.4953096 -0.2407435 -2.490093
v -0.7409558 1.314837E-07 -3.725039
v 5.505603E-07 -0.2407435 -2.538877
v 2.867423E-07 1.346736E-07 -3.798017
v 0.7409564 1.314836E-07 -3.725039
v 5.505603E-07 0.2407437 -2.538877
v 2.867423E-07 1.346736E-07 -3.798017
v 0.4953106 0.2407437 -2.490093
v 1.453438 1.220363E-07 -3.508909
v 0.9715863 0.2407437 -2.345616
v 2.110065 1.066948E-07 -3.157936
v 1.410525 0.2407437 -2.110999
v 2.685603 8.604849E-08 -2.685603
v 1.795257 0.2407437 -1.795257
v 3.157935 6.08909E-08 -2.110065
v 2.110999 0.2407437 -1.410524
v 3.508909 3.218883E-08 -1.453438
v 2.345617 0.2407437 -0.9715861
v 3.725039 1.045256E-09 -0.7409563
v 2.490093 0.2407436 -0.4953104
v 3.798017 -3.134298E-08 -1.370045E-15
v 2.538877 0.2407436 -9.517277E-08
v 3.725039 -6.373096E-08 0.7409506
v 2.490094 0.2407436 0.4953063
v 3.508912 -9.487456E-08 1.453433
v 2.345618 0.2407436 0.9715824
v 3.157938 -1.235767E-07 2.11006
v 2.111001 0.2407435 1.410521
v 2.685606 -1.487343E-07 2.6856
v 1.795259 0.2407435 1.795255
v 2.110069 -1.693806E-07 3.157933
v 1.410527 0.2407435 2.110997
v 1.453442 -1.847222E-07 3.508908
v 0.9715889 0.2407435 2.345616
v 0.7409601 -1.941696E-07 3.725038
v 0.4953132 0.2407435 2.490093
v 3.667361E-06 -1.973596E-07 3.798017
v 2.810417E-06 0.2407435 2.538877
v -0.7409531 -1.941696E-07 3.725039
v -0.4953078 0.2407435 2.490093
v -1.453435 -1.847224E-07 3.508911
v -0.9715838 0.2407435 2.345617
v -2.110063 -1.693808E-07 3.157937
v -1.410522 0.2407435 2.111
v -2.685601 -1.487345E-07 2.685605
v -1.795255 0.2407435 1.795258
v -3.157934 -1.235769E-07 2.110067
v -2.110997 0.2407435 1.410525
v -3.508909 -9.487484E-08 1.45344
v -2.345615 0.2407436 0.9715871
v -3.725038 -6.373128E-08 0.7409579
v -2.490092 0.2407436 0.4953112
v -3.798017 -3.134303E-08 1.237551E-06
v -2.538876 0.2407436 7.320983E-07
v -3.725039 1.045209E-09 -0.7409552
v -2.490093 0.2407436 -0.4953097
v -3.50891 3.218879E-08 -1.453437
v -2.345616 0.2407437 -0.9715858
v -3.157936 6.08909E-08 -2.110065
v -2.110999 0.2407437 -1.410524
v -2.685603 8.604849E-08 -2.685603
v -1.795256 0.2407437 -1.795257
v -2.110065 1.066948E-07 -3.157936
v -1.410524 0.2407437 -2.110999
v -1.453437 1.220364E-07 -3.50891
v -0.9715853 0.2407437 -2.345616
v -0.7409558 1.314837E-07 -3.725039
v -0.4953096 0.2407437 -2.490093
v 2.867423E-07 1.346736E-07 -3.798017
v 5.505603E-07 0.2407437 -2.538877
vt 0.7758149 0.3350028
vt 5.960464E-08 0.3113566
vt 0.7758149 0.313453
vt 5.960464E-08 0.3329064
vt 0.7758149 0.3565528
vt 5.960464E-08 0.3544563
vt 0.7758149 0.3781025
vt 5.960464E-08 0.3760062
vt 0.7758149 0.3996525
vt 5.960464E-08 0.3975562
vt 0.7758149 0.4212024
vt 5.960464E-08 0.419106
vt 0.7758149 0.4427522
vt 5.960464E-08 0.4406559
vt 0.7758148 0.4643022
vt 5.960464E-08 0.4622058
vt 0.7758148 0.485852
vt 5.960464E-08 0.4837556
vt 0.7758148 0.5074016
vt 5.960464E-08 0.5053053
vt 0.7758148 0.5289516
vt 5.960464E-08 0.5268553
vt 0.7758148 0.5505015
vt 5.960464E-08 0.5484052
vt 0.7758148 0.5720513
vt 5.960464E-08 0.569955
vt 0.7758148 0.5936013
vt 5.960464E-08 0.5915051
vt 0.7758148 0.6151513
vt 5.960464E-08 0.6130549
vt 0.7758148 0.6367012
vt 5.960464E-08 0.6346048
vt 0.7758148 0.6582509
vt 5.960464E-08 0.6561548
vt 0.7758148 0.6798009
vt 5.960464E-08 0.6777047
vt 0.7758148 0.7013508
vt 5.960464E-08 0.6992545
vt 0.7758148 0.7229007
vt 5.960464E-08 0.7208045
vt 0.7758148 0.7444506
vt 0 0.7423544
vt 0.7758148 0.7660004
vt 0 0.7639042
vt 0.7758148 0.7875503
vt 0 0.785454
vt 0.7758148 0.8091003
vt 0 0.807004
vt 0.7758148 0.8306501
vt 0 0.8285538
vt 0.7758148 0.8521999
vt 0 0.8501037
vt 0.7758148 0.87375
vt 0 0.8716536
vt 0.7758148 0.8952998
vt 0 0.8932035
vt 0.7758148 0.9168497
vt 0 0.9147534
vt 0.7758148 0.9383996
vt 0 0.9363034
vt 0.7758148 0.9599495
vt 0 0.9578532
vt 0.7758148 0.9814994
vt 0 0.979403
vt 0.7758148 1.003049
vt 0 1.000953
vt 5.960464E-08 0.3329064
vt 0.7758149 0.313453
vt 5.960464E-08 0.3113566
vt 0.7758149 0.3350028
vt 5.960464E-08 0.3544563
vt 0.7758149 0.3565528
vt 5.960464E-08 0.3760062
vt 0.7758149 0.3781027
vt 5.960464E-08 0.3975562
vt 0.7758149 0.3996525
vt 5.960464E-08 0.419106
vt 0.7758149 0.4212025
vt 5.960464E-08 0.4406559
vt 0.7758149 0.4427523
vt 5.960464E-08 0.4622058
vt 0.7758148 0.4643022
vt 5.960464E-08 0.4837556
vt 0.7758148 0.4858521
vt 5.960464E-08 0.5053053
vt 0.7758148 0.5074018
vt 5.960464E-08 0.5268553
vt 0.7758148 0.5289517
vt 5.960464E-08 0.5484052
vt 0.7758148 0.5505016
vt 5.960464E-08 0.569955
vt 0.7758148 0.5720514
vt 5.960464E-08 0.5915051
vt 0.7758148 0.5936013
vt 5.960464E-08 0.6130549
vt 0.7758148 0.6151513
vt 5.960464E-08 0.6346048
vt 0.7758148 0.6367012
vt 5.960464E-08 0.6561548
vt 0.7758148 0.6582509
vt 5.960464E-08 0.6777047
vt 0.7758148 0.6798009
vt 5.960464E-08 0.6992545
vt 0.7758148 0.7013508
vt 5.960464E-08 0.7208045
vt 0.7758148 0.7229007
vt 0 0.7423544
vt 0.7758148 0.7444506
vt 0 0.7639042
vt 0.7758148 0.7660004
vt 0 0.785454
vt 0.7758148 0.7875503
vt 0 0.807004
vt 0.7758148 0.8091003
vt 0 0.8285538
vt 0.7758148 0.8306502
vt 0 0.8501037
vt 0.7758148 0.8522
vt 0 0.8716536
vt 0.7758148 0.87375
vt 0 0.8932035
vt 0.7758148 0.8952998
vt 0 0.9147534
vt 0.7758148 0.9168497
vt 0 0.9363034
vt 0.7758148 0.9383996
vt 0 0.9578532
vt 0.7758148 0.9599495
vt 0 0.979403
vt 0.7758148 0.9814994
vt 0 1.000953
vt 0.7758148 1.003049
vn 0.04490491 -0.9731901 -0.2255758
vn 0 0 -1
vn 0 -0.9731724 -0.2300772
vn 0.1950903 0 -0.9807853
vn 0.08755591 -0.9733273 -0.2120565
vn 0.3827806 0 -0.9238393
vn 0.1272106 -0.973304 -0.1910412
vn 0.5554626 0 -0.8315416
vn 0.162502 -0.973285 -0.1622016
vn 0.7071068 0 -0.7071068
vn 0.1913236 -0.9732501 -0.1271987
vn 0.8314028 0 -0.5556702
vn 0.2120537 -0.9733145 -0.08770493
vn 0.9238393 0 -0.3827806
vn 0.2255758 -0.9731901 -0.04490491
vn 0.9807853 0 -0.1950903
vn 0.2300772 -0.9731724 0
vn 1 0 -2.888998E-07
vn 0.2255758 -0.9731901 0.04490491
vn 0.9808081 0 0.1949754
vn 0.2126627 -0.973127 0.08830908
vn 0.9240516 0 0.3822678
vn 0.1910306 -0.9732873 0.1273537
vn 0.831264 0 0.5558778
vn 0.1628083 -0.9732828 0.1619072
vn 0.7068064 0 0.707407
vn 0.127206 -0.973306 0.1910343
vn 0.5551161 0 0.8317729
vn 0.08800619 -0.9732868 0.2120559
vn 0.3827806 0 0.9238393
vn 0.0449829 -0.9732528 0.22529
vn 0.1950903 0 0.9807853
vn 0 -0.9733837 0.2291816
vn 9.634174E-07 0 1
vn -0.04467846 -0.973202 0.2255699
vn -0.1950903 0 0.9807853
vn -0.08770656 -0.9731824 0.2126584
vn -0.3826524 0 0.9238923
vn -0.1276539 -0.9732481 0.1910302
vn -0.5558091 0 0.83131
vn -0.1621977 -0.9733365 0.1621977
vn -0.707407 0 0.7068064
vn -0.1910343 -0.973306 0.127206
vn -0.8316342 0 0.5553238
vn -0.2120565 -0.9733273 0.08755591
vn -0.9238393 0 0.3827806
vn -0.2255691 -0.9731987 0.0447534
vn -0.9808081 0 0.1949754
vn -0.2291816 -0.9733837 0
vn -1 0 4.868668E-07
vn -0.2252907 -0.9732561 -0.04490796
vn -0.980765 0 -0.1951921
vn -0.2120565 -0.9733273 -0.08755591
vn -0.9238393 0 -0.3827806
vn -0.1913236 -0.9732501 -0.1271987
vn -0.8315416 0 -0.5554626
vn -0.1619052 -0.9733838 -0.1622056
vn -0.7071068 0 -0.7071068
vn -0.1272106 -0.973304 -0.1910412
vn -0.5554626 0 -0.8315416
vn -0.08755591 -0.9733273 -0.2120565
vn -0.3827806 0 -0.9238393
vn -0.04490491 -0.9731901 -0.2255758
vn -0.1951199 0 -0.9807794
vn 0 -0.9731724 -0.2300772
vn 0 0 -1
vn 0.1950903 0 -0.9807853
vn 0 0.9731743 -0.2300688
vn 0 0 -1
vn 0.04490327 0.9731922 -0.2255676
vn 0.3827806 0 -0.9238393
vn 0.08755591 0.9733273 -0.2120565
vn 0.5554626 0 -0.8315416
vn 0.127206 0.973306 -0.1910343
vn 0.7071068 0 -0.7071068
vn 0.1624961 0.973287 -0.1621957
vn 0.8314028 0 -0.5556702
vn 0.1913236 0.9732501 -0.1271987
vn 0.9238393 0 -0.3827806
vn 0.2120537 0.9733145 -0.08770493
vn 0.9807853 0 -0.1950903
vn 0.2255676 0.9731922 -0.04490327
vn 1 0 -2.888998E-07
vn 0.2300688 0.9731743 0
vn 0.9808081 0 0.1949754
vn 0.2255676 0.9731922 0.04490327
vn 0.9240516 0 0.3822678
vn 0.2126627 0.973127 0.08830908
vn 0.831264 0 0.5558778
vn 0.1910306 0.9732873 0.1273537
vn 0.7068064 0 0.707407
vn 0.1628083 0.9732828 0.1619072
vn 0.5551161 0 0.8317729
vn 0.127206 0.973306 0.1910343
vn 0.3827806 0 0.9238393
vn 0.08800619 0.9732868 0.2120559
vn 0.1950903 0 0.9807853
vn 0.04498126 0.9732547 0.2252817
vn 9.634174E-07 0 1
vn 0 0.9733837 0.2291816
vn -0.1950903 0 0.9807853
vn -0.04467846 0.973202 0.2255699
vn -0.3826524 0 0.9238923
vn -0.08770656 0.9731824 0.2126584
vn -0.5558091 0 0.83131
vn -0.1276539 0.9732481 0.1910302
vn -0.707407 0 0.7068064
vn -0.1621977 0.9733365 0.1621977
vn -0.8316342 0 0.5553238
vn -0.1910343 0.973306 0.127206
vn -0.9238393 0 0.3827806
vn -0.2120565 0.9733273 0.08755591
vn -0.9808081 0 0.1949754
vn -0.2255691 0.9731987 0.0447534
vn -1 0 4.868668E-07
vn -0.2291816 0.9733837 0
vn -0.980765 0 -0.1951921
vn -0.2252825 0.9732581 -0.04490632
vn -0.9238393 0 -0.3827806
vn -0.2120565 0.9733273 -0.08755591
vn -0.8315416 0 -0.5554626
vn -0.1913236 0.9732501 -0.1271987
vn -0.7071068 0 -0.7071068
vn -0.1619052 0.9733838 -0.1622056
vn -0.5554626 0 -0.8315416
vn -0.127206 0.973306 -0.1910343
vn -0.3827806 0 -0.9238393
vn -0.08755591 0.9733273 -0.2120565
vn -0.1951199 0 -0.9807794
vn -0.04490327 0.9731922 -0.2255676
vn 0 0 -1
vn 0 0.9731743 -0.2300688
g fx_mesh_trail_01_0
f 3/3/3 2/2/2 1/1/1
f 2/2/2 4/4/4 1/1/1
f 1/1/1 4/4/4 5/5/5
f 4/4/4 6/6/6 5/5/5
f 5/5/5 6/6/6 7/7/7
f 6/6/6 8/8/8 7/7/7
f 7/7/7 8/8/8 9/9/9
f 8/8/8 10/10/10 9/9/9
f 9/9/9 10/10/10 11/11/11
f 10/10/10 12/12/12 11/11/11
f 11/11/11 12/12/12 13/13/13
f 12/12/12 14/14/14 13/13/13
f 13/13/13 14/14/14 15/15/15
f 14/14/14 16/16/16 15/15/15
f 15/15/15 16/16/16 17/17/17
f 16/16/16 18/18/18 17/17/17
f 17/17/17 18/18/18 19/19/19
f 18/18/18 20/20/20 19/19/19
f 19/19/19 20/20/20 21/21/21
f 20/20/20 22/22/22 21/21/21
f 21/21/21 22/22/22 23/23/23
f 22/22/22 24/24/24 23/23/23
f 23/23/23 24/24/24 25/25/25
f 24/24/24 26/26/26 25/25/25
f 25/25/25 26/26/26 27/27/27
f 26/26/26 28/28/28 27/27/27
f 27/27/27 28/28/28 29/29/29
f 28/28/28 30/30/30 29/29/29
f 29/29/29 30/30/30 31/31/31
f 30/30/30 32/32/32 31/31/31
f 31/31/31 32/32/32 33/33/33
f 32/32/32 34/34/34 33/33/33
f 33/33/33 34/34/34 35/35/35
f 34/34/34 36/36/36 35/35/35
f 35/35/35 36/36/36 37/37/37
f 36/36/36 38/38/38 37/37/37
f 37/37/37 38/38/38 39/39/39
f 38/38/38 40/40/40 39/39/39
f 39/39/39 40/40/40 41/41/41
f 40/40/40 42/42/42 41/41/41
f 41/41/41 42/42/42 43/43/43
f 42/42/42 44/44/44 43/43/43
f 43/43/43 44/44/44 45/45/45
f 44/44/44 46/46/46 45/45/45
f 45/45/45 46/46/46 47/47/47
f 46/46/46 48/48/48 47/47/47
f 47/47/47 48/48/48 49/49/49
f 48/48/48 50/50/50 49/49/49
f 49/49/49 50/50/50 51/51/51
f 50/50/50 52/52/52 51/51/51
f 51/51/51 52/52/52 53/53/53
f 52/52/52 54/54/54 53/53/53
f 53/53/53 54/54/54 55/55/55
f 54/54/54 56/56/56 55/55/55
f 55/55/55 56/56/56 57/57/57
f 56/56/56 58/58/58 57/57/57
f 57/57/57 58/58/58 59/59/59
f 58/58/58 60/60/60 59/59/59
f 59/59/59 60/60/60 61/61/61
f 60/60/60 62/62/62 61/61/61
f 61/61/61 62/62/62 63/63/63
f 62/62/62 64/64/64 63/63/63
f 63/63/63 64/64/64 65/65/65
f 64/64/64 66/66/66 65/65/65
f 69/69/69 68/68/68 67/67/67
f 68/68/68 70/70/70 67/67/67
f 67/67/67 70/70/70 71/71/71
f 70/70/70 72/72/72 71/71/71
f 71/71/71 72/72/72 73/73/73
f 72/72/72 74/74/74 73/73/73
f 73/73/73 74/74/74 75/75/75
f 74/74/74 76/76/76 75/75/75
f 75/75/75 76/76/76 77/77/77
f 76/76/76 78/78/78 77/77/77
f 77/77/77 78/78/78 79/79/79
f 78/78/78 80/80/80 79/79/79
f 79/79/79 80/80/80 81/81/81
f 80/80/80 82/82/82 81/81/81
f 81/81/81 82/82/82 83/83/83
f 82/82/82 84/84/84 83/83/83
f 83/83/83 84/84/84 85/85/85
f 84/84/84 86/86/86 85/85/85
f 85/85/85 86/86/86 87/87/87
f 86/86/86 88/88/88 87/87/87
f 87/87/87 88/88/88 89/89/89
f 88/88/88 90/90/90 89/89/89
f 89/89/89 90/90/90 91/91/91
f 90/90/90 92/92/92 91/91/91
f 91/91/91 92/92/92 93/93/93
f 92/92/92 94/94/94 93/93/93
f 93/93/93 94/94/94 95/95/95
f 94/94/94 96/96/96 95/95/95
f 95/95/95 96/96/96 97/97/97
f 96/96/96 98/98/98 97/97/97
f 97/97/97 98/98/98 99/99/99
f 98/98/98 100/100/100 99/99/99
f 99/99/99 100/100/100 101/101/101
f 100/100/100 102/102/102 101/101/101
f 101/101/101 102/102/102 103/103/103
f 102/102/102 104/104/104 103/103/103
f 103/103/103 104/104/104 105/105/105
f 104/104/104 106/106/106 105/105/105
f 105/105/105 106/106/106 107/107/107
f 106/106/106 108/108/108 107/107/107
f 107/107/107 108/108/108 109/109/109
f 108/108/108 110/110/110 109/109/109
f 109/109/109 110/110/110 111/111/111
f 110/110/110 112/112/112 111/111/111
f 111/111/111 112/112/112 113/113/113
f 112/112/112 114/114/114 113/113/113
f 113/113/113 114/114/114 115/115/115
f 114/114/114 116/116/116 115/115/115
f 115/115/115 116/116/116 117/117/117
f 116/116/116 118/118/118 117/117/117
f 117/117/117 118/118/118 119/119/119
f 118/118/118 120/120/120 119/119/119
f 119/119/119 120/120/120 121/121/121
f 120/120/120 122/122/122 121/121/121
f 121/121/121 122/122/122 123/123/123
f 122/122/122 124/124/124 123/123/123
f 123/123/123 124/124/124 125/125/125
f 124/124/124 126/126/126 125/125/125
f 125/125/125 126/126/126 127/127/127
f 126/126/126 128/128/128 127/127/127
f 127/127/127 128/128/128 129/129/129
f 128/128/128 130/130/130 129/129/129
f 129/129/129 130/130/130 131/131/131
f 130/130/130 132/132/132 131/131/131
