g fx_mesh_expandenergy_05_pivot1
v 0.9446313 -9.689331E-07 -3.525411
v 2.301176E-07 -8.720398E-07 -3.048
v 3.465485E-07 -9.689331E-07 -3.649774
v 0.7888805 -8.720398E-07 -2.944142
v 1.037824E-07 -8.235932E-07 -2.395259
v 1.824887 -9.689331E-07 -3.160797
v 0.6199385 -8.235932E-07 -2.313643
v 1.524 -9.204865E-07 -2.639645
v 2.58078 -1.01738E-06 -2.58078
v 1.197629 -8.235932E-07 -2.074355
v 2.155262 -9.204865E-07 -2.155262
v 3.160797 -1.065826E-06 -1.824887
v 1.693704 -8.235932E-07 -1.693704
v 2.639645 -9.689331E-07 -1.524
v 3.525411 -1.065826E-06 -0.9446306
v 2.074355 -8.720398E-07 -1.197629
v 2.944142 -9.689331E-07 -0.7888806
v 3.649774 -1.114273E-06 5.236411E-08
v 2.313642 -8.720398E-07 -0.6199387
v 3.048 -1.01738E-06 2.314005E-14
v 3.52541 -1.16272E-06 0.9446341
v 2.395258 -9.204865E-07 -6.268311E-08
v 2.944141 -1.065826E-06 0.7888824
v 3.160796 -1.211166E-06 1.824889
v 2.313642 -9.204865E-07 0.6199401
v 2.639644 -1.065826E-06 1.524002
v 2.580779 -1.259613E-06 2.580782
v 2.074354 -9.689331E-07 1.197631
v 2.15526 -1.114273E-06 2.155263
v 1.824885 -1.259613E-06 3.160798
v 1.693703 -9.689331E-07 1.693705
v 1.523998 -1.114273E-06 2.639646
v 0.9446293 -1.30806E-06 3.525412
v 1.197628 -9.689331E-07 2.074355
v 0.7888789 -1.16272E-06 2.944142
v -1.625827E-06 -1.30806E-06 3.649774
v 0.6199372 -1.01738E-06 2.313643
v -1.417053E-06 -1.16272E-06 3.048
v -0.9446325 -1.30806E-06 3.525411
v -1.19064E-06 -1.01738E-06 2.395258
v -0.7888817 -1.16272E-06 2.944142
v -1.824888 -1.259613E-06 3.160797
v -0.6199396 -1.01738E-06 2.313642
v -1.524001 -1.114273E-06 2.639645
v -2.580781 -1.259613E-06 2.580779
v -1.19763 -9.689331E-07 2.074354
v -2.155263 -1.114273E-06 2.15526
v -3.160798 -1.211166E-06 1.824885
v -1.693705 -9.689331E-07 1.693703
v -2.639646 -1.065826E-06 1.523999
v -3.525412 -1.16272E-06 0.9446299
v -2.074356 -9.689331E-07 1.197629
v -2.944142 -1.065826E-06 0.788879
v -3.649774 -1.114273E-06 -1.36891E-06
v -2.313643 -9.204865E-07 0.6199374
v -3.048 -1.01738E-06 -1.186935E-06
v -3.525411 -1.065826E-06 -0.9446319
v -2.395259 -9.204865E-07 -9.954312E-07
v -2.944142 -9.689331E-07 -0.7888816
v -3.160797 -1.065826E-06 -1.824888
v -2.313642 -8.720398E-07 -0.6199395
v -2.639645 -9.689331E-07 -1.524001
v -2.580779 -1.01738E-06 -2.580781
v -2.074355 -8.720398E-07 -1.19763
v -2.155261 -9.204865E-07 -2.155262
v -1.824886 -9.689331E-07 -3.160798
v -1.693703 -8.235932E-07 -1.693704
v -1.523999 -9.204865E-07 -2.639646
v -0.9446305 -9.689331E-07 -3.525411
v -1.197629 -8.235932E-07 -2.074355
v -0.7888801 -8.720398E-07 -2.944142
v 3.465485E-07 -9.689331E-07 -3.649774
v -0.6199384 -8.235932E-07 -2.313643
v 2.301176E-07 -8.720398E-07 -3.048
v 1.037824E-07 -8.235932E-07 -2.395259
vt 0.9583333 0
vt 0.9999999 0.5
vt 0.9999999 0
vt 0.9583333 0.5
vt 0.9999999 1
vt 0.9166666 0
vt 0.9583333 1
vt 0.9166666 0.5
vt 0.875 0
vt 0.9166666 1
vt 0.875 0.5
vt 0.8333333 0
vt 0.875 1
vt 0.8333333 0.5
vt 0.7916666 0
vt 0.8333333 1
vt 0.7916666 0.5
vt 0.75 0
vt 0.7916666 1
vt 0.75 0.5
vt 0.7083333 0
vt 0.75 1
vt 0.7083333 0.5
vt 0.6666665 0
vt 0.7083333 1
vt 0.6666665 0.5
vt 0.6249999 0
vt 0.6666665 1
vt 0.6249999 0.5
vt 0.5833333 0
vt 0.6249999 1
vt 0.5833333 0.5
vt 0.5416666 0
vt 0.5833333 1
vt 0.5416666 0.5
vt 0.4999999 0
vt 0.5416666 1
vt 0.4999999 0.5
vt 0.4583333 0
vt 0.4999999 1
vt 0.4583333 0.5
vt 0.4166667 0
vt 0.4583333 1
vt 0.4166667 0.5
vt 0.3749999 0
vt 0.4166667 1
vt 0.3749999 0.5
vt 0.3333333 0
vt 0.3749999 1
vt 0.3333333 0.5
vt 0.2916666 0
vt 0.3333333 1
vt 0.2916666 0.5
vt 0.2499999 0
vt 0.2916666 1
vt 0.2499999 0.5
vt 0.2083333 0
vt 0.2499999 1
vt 0.2083333 0.5
vt 0.1666666 0
vt 0.2083333 1
vt 0.1666666 0.5
vt 0.125 0
vt 0.1666666 1
vt 0.125 0.5
vt 0.08333331 0
vt 0.125 1
vt 0.08333331 0.5
vt 0.04166666 0
vt 0.08333331 1
vt 0.04166666 0.5
vt -5.960464E-08 0
vt 0.04166666 1
vt -5.960464E-08 0.5
vt -5.960464E-08 1
vn 0 1 0
vn 0 1 0
vn 0 1 0
vn 0 1 0
vn 0 1 0
vn 0 1 0
vn 0 1 0
vn 0 1 0
vn 0 1 0
vn 0 1 0
vn 0 1 0
vn 0 1 0
vn 0 1 0
vn 0 1 0
vn 0 1 0
vn 0 1 0
vn 0 1 0
vn 0 1 0
vn 0 1 0
vn 0 1 0
vn 0 1 0
vn 0 1 0
vn 0 1 0
vn 0 1 0
vn 0 1 0
vn 0 1 0
vn 0 1 0
vn 0 1 0
vn 0 1 0
vn 0 1 0
vn 0 1 0
vn 0 1 0
vn 0 1 0
vn 0 1 0
vn 0 1 0
vn 0 1 0
vn 0 1 0
vn 0 1 0
vn 0 1 0
vn 0 1 0
vn 0 1 0
vn 0 1 0
vn 0 1 0
vn 0 1 0
vn 0 1 0
vn 0 1 0
vn 0 1 0
vn 0 1 0
vn 0 1 0
vn 0 1 0
vn 0 1 0
vn 0 1 0
vn 0 1 0
vn 0 1 0
vn 0 1 0
vn 0 1 0
vn 0 1 0
vn 0 1 0
vn 0 1 0
vn 0 1 0
vn 0 1 0
vn 0 1 0
vn 0 1 0
vn 0 1 0
vn 0 1 0
vn 0 1 0
vn 0 1 0
vn 0 1 0
vn 0 1 0
vn 0 1 0
vn 0 1 0
vn 0 1 0
vn 0 1 0
vn 0 1 0
vn 0 1 0
g fx_mesh_expandenergy_05_pivot1_0
f 3/3/3 2/2/2 1/1/1
f 2/2/2 4/4/4 1/1/1
f 2/2/2 5/5/5 4/4/4
f 1/1/1 4/4/4 6/6/6
f 5/5/5 7/7/7 4/4/4
f 4/4/4 8/8/8 6/6/6
f 4/4/4 7/7/7 8/8/8
f 6/6/6 8/8/8 9/9/9
f 7/7/7 10/10/10 8/8/8
f 8/8/8 11/11/11 9/9/9
f 8/8/8 10/10/10 11/11/11
f 9/9/9 11/11/11 12/12/12
f 10/10/10 13/13/13 11/11/11
f 11/11/11 14/14/14 12/12/12
f 11/11/11 13/13/13 14/14/14
f 12/12/12 14/14/14 15/15/15
f 13/13/13 16/16/16 14/14/14
f 14/14/14 17/17/17 15/15/15
f 14/14/14 16/16/16 17/17/17
f 15/15/15 17/17/17 18/18/18
f 16/16/16 19/19/19 17/17/17
f 17/17/17 20/20/20 18/18/18
f 17/17/17 19/19/19 20/20/20
f 18/18/18 20/20/20 21/21/21
f 19/19/19 22/22/22 20/20/20
f 20/20/20 23/23/23 21/21/21
f 20/20/20 22/22/22 23/23/23
f 21/21/21 23/23/23 24/24/24
f 22/22/22 25/25/25 23/23/23
f 23/23/23 26/26/26 24/24/24
f 23/23/23 25/25/25 26/26/26
f 24/24/24 26/26/26 27/27/27
f 25/25/25 28/28/28 26/26/26
f 26/26/26 29/29/29 27/27/27
f 26/26/26 28/28/28 29/29/29
f 27/27/27 29/29/29 30/30/30
f 28/28/28 31/31/31 29/29/29
f 29/29/29 32/32/32 30/30/30
f 29/29/29 31/31/31 32/32/32
f 30/30/30 32/32/32 33/33/33
f 31/31/31 34/34/34 32/32/32
f 32/32/32 35/35/35 33/33/33
f 32/32/32 34/34/34 35/35/35
f 33/33/33 35/35/35 36/36/36
f 34/34/34 37/37/37 35/35/35
f 35/35/35 38/38/38 36/36/36
f 35/35/35 37/37/37 38/38/38
f 36/36/36 38/38/38 39/39/39
f 37/37/37 40/40/40 38/38/38
f 38/38/38 41/41/41 39/39/39
f 38/38/38 40/40/40 41/41/41
f 39/39/39 41/41/41 42/42/42
f 40/40/40 43/43/43 41/41/41
f 41/41/41 44/44/44 42/42/42
f 41/41/41 43/43/43 44/44/44
f 42/42/42 44/44/44 45/45/45
f 43/43/43 46/46/46 44/44/44
f 44/44/44 47/47/47 45/45/45
f 44/44/44 46/46/46 47/47/47
f 45/45/45 47/47/47 48/48/48
f 46/46/46 49/49/49 47/47/47
f 47/47/47 50/50/50 48/48/48
f 47/47/47 49/49/49 50/50/50
f 48/48/48 50/50/50 51/51/51
f 49/49/49 52/52/52 50/50/50
f 50/50/50 53/53/53 51/51/51
f 50/50/50 52/52/52 53/53/53
f 51/51/51 53/53/53 54/54/54
f 52/52/52 55/55/55 53/53/53
f 53/53/53 56/56/56 54/54/54
f 53/53/53 55/55/55 56/56/56
f 54/54/54 56/56/56 57/57/57
f 55/55/55 58/58/58 56/56/56
f 56/56/56 59/59/59 57/57/57
f 56/56/56 58/58/58 59/59/59
f 57/57/57 59/59/59 60/60/60
f 58/58/58 61/61/61 59/59/59
f 59/59/59 62/62/62 60/60/60
f 59/59/59 61/61/61 62/62/62
f 60/60/60 62/62/62 63/63/63
f 61/61/61 64/64/64 62/62/62
f 62/62/62 65/65/65 63/63/63
f 62/62/62 64/64/64 65/65/65
f 63/63/63 65/65/65 66/66/66
f 64/64/64 67/67/67 65/65/65
f 65/65/65 68/68/68 66/66/66
f 65/65/65 67/67/67 68/68/68
f 66/66/66 68/68/68 69/69/69
f 67/67/67 70/70/70 68/68/68
f 68/68/68 71/71/71 69/69/69
f 68/68/68 70/70/70 71/71/71
f 69/69/69 71/71/71 72/72/72
f 70/70/70 73/73/73 71/71/71
f 71/71/71 74/74/74 72/72/72
f 71/71/71 73/73/73 74/74/74
f 73/73/73 75/75/75 74/74/74
