g fx_mesh_ray_03
v 8.624903 2.303465E-06 3.397766
v 10.97385 3.29035E-06 5.405413
v 11.49987 3.162872E-06 4.530354
v 8.230388 2.405053E-06 4.05406
v 5.749936 1.444057E-06 2.265178
v 10.44783 3.417828E-06 6.280471
v 5.486925 1.519755E-06 2.702707
v 2.874969 5.8465E-07 1.13259
v 7.835871 2.506641E-06 4.710354
v 2.743464 6.344578E-07 1.351354
v 0.007164653 3.409702E-08 -0.001132587
v 0.006828052 1.485427E-07 -0.0005726346
v 5.223915 1.595453E-06 3.140236
v 2.611959 6.842654E-07 1.570119
v 0.006491449 2.629883E-07 -1.268053E-05
v 0.006154846 3.774338E-07 0.0005472723
v 2.480453 7.340731E-07 1.788883
v 0.005818242 4.918795E-07 0.001107225
v 2.348948 7.838809E-07 2.007648
v 4.960904 1.671151E-06 3.577765
v 4.697894 1.746849E-06 4.015295
v 7.441355 2.608229E-06 5.366648
v 7.04684 2.709817E-06 6.022941
v 9.921806 3.545307E-06 7.15553
v 9.395785 3.672785E-06 8.030589
v -7.468141 -9.193855E-07 -0.4690099
v -9.793602 -1.036461E-06 -1.371053
v -9.95752 -1.134261E-06 -0.6253455
v -7.345203 -8.400557E-07 -1.02829
v -4.97876 -7.045094E-07 -0.3126732
v -9.629683 -9.386596E-07 -2.116759
v -4.896801 -6.436504E-07 -0.6855268
v -2.48938 -4.896336E-07 -0.1563371
v -7.222264 -7.607256E-07 -1.58757
v -2.4484 -4.472453E-07 -0.3427639
v -0.007121094 -3.687609E-07 0.001072907
v -0.006781103 -3.476864E-07 -0.0004738146
v -4.814841 -5.827911E-07 -1.05838
v -2.40742 -4.04857E-07 -0.5291906
v -0.006441105 -3.266117E-07 -0.002020535
v -0.006101115 -3.055371E-07 -0.003567254
v -2.366441 -3.624687E-07 -0.7156172
v -0.005761121 -2.844626E-07 -0.005113976
v -2.325462 -3.200804E-07 -0.9020439
v -4.732882 -5.21932E-07 -1.431233
v -4.650923 -4.61073E-07 -1.804087
v -7.099325 -6.813958E-07 -2.14685
v -6.976387 -6.020658E-07 -2.70613
v -9.465766 -8.408591E-07 -2.862466
v -9.301848 -7.430582E-07 -3.608173
v -3.506276 -5.83888E-07 -3.939708
v -4.191444 -4.975079E-07 -5.558697
v -4.675034 -6.869312E-07 -5.252943
v -3.143584 -4.358413E-07 -4.169024
v -2.337518 -4.808448E-07 -2.626473
v -3.707854 -3.080847E-07 -5.86445
v -2.095724 -3.741745E-07 -2.77935
v -1.168761 -3.778018E-07 -1.313238
v -2.780891 -2.877945E-07 -4.398339
v -1.047864 -3.125079E-07 -1.389677
v -0.003044797 -3.358622E-07 -0.003683669
v -0.001299356 -3.014372E-07 -0.004787236
v -1.853929 -2.675041E-07 -2.932227
v -0.9269665 -2.47214E-07 -1.466115
v 0.0004460824 -2.670123E-07 -0.005890805
v 0.002191522 -2.325875E-07 -0.006994375
v -0.806069 -1.819201E-07 -1.542554
v 0.003936959 -1.981625E-07 -0.008097944
v -0.6851715 -1.166262E-07 -1.618992
v -1.612134 -1.608338E-07 -3.085104
v -1.370339 -5.416345E-08 -3.237981
v -2.418199 -1.397477E-07 -4.627655
v -2.055506 8.29914E-09 -4.85697
v -3.224264 -1.186616E-07 -6.170206
v -2.740674 7.076164E-08 -6.47596
v -5.960481 -4.018965E-07 3.076404
v -8.065784 -3.59403E-07 3.829238
v -7.947306 -4.44276E-07 4.101871
v -6.049338 -3.322625E-07 2.871929
v -3.973654 -3.59517E-07 2.050936
v -8.18426 -2.745303E-07 3.556605
v -4.032893 -3.051219E-07 1.914619
v -1.986828 -3.171376E-07 1.025468
v -6.138196 -2.626286E-07 2.667454
v -2.016448 -2.779812E-07 0.9573104
v -0.004893956 -2.506527E-07 0.006424397
v -0.005415823 -2.325117E-07 0.005223514
v -4.092131 -2.507267E-07 1.778303
v -2.046067 -2.388249E-07 0.889152
v -0.005937686 -2.143707E-07 0.004022623
v -0.006459555 -1.962297E-07 0.002821736
v -2.075686 -1.996686E-07 0.8209937
v -0.006981416 -1.780887E-07 0.001620849
v -2.105305 -1.605123E-07 0.7528355
v -4.15137 -1.963316E-07 1.641987
v -4.210608 -1.419364E-07 1.50567
v -6.227054 -1.929945E-07 2.46298
v -6.315912 -1.233606E-07 2.258505
v -8.302738 -1.896576E-07 3.283972
v -8.421216 -1.047848E-07 3.011339
v -4.532465 1.895833E-06 6.062102
v -6.616399 2.746841E-06 7.468143
v -6.027959 2.619363E-06 8.082802
v -4.973795 1.997421E-06 5.601108
v -3.03697 1.172303E-06 4.041402
v -7.204838 2.874319E-06 6.853483
v -3.33119 1.248001E-06 3.734072
v -1.541475 4.487727E-07 2.020702
v -5.415124 2.099009E-06 5.140113
v -1.688585 4.985804E-07 1.867037
v -0.003767585 1.575134E-07 0.0006138849
v -0.004792336 1.776987E-07 -0.0004565225
v -3.62541 1.323698E-06 3.426742
v -1.835695 5.483881E-07 1.713372
v -0.005817088 1.978839E-07 -0.001526937
v -0.006841835 2.180692E-07 -0.002597347
v -1.982805 5.981958E-07 1.559708
v -0.007866587 2.382544E-07 -0.003667758
v -2.129915 6.480035E-07 1.406043
v -3.919629 1.399396E-06 3.119413
v -4.213849 1.475094E-06 2.812083
v -5.856454 2.200597E-06 4.679119
v -6.297784 2.302185E-06 4.218124
v -7.793279 3.001798E-06 6.238824
v -8.381718 3.129276E-06 5.624165
v 5.157359 -1.017034E-06 -5.444128
v 7.409404 -1.114751E-06 -6.553073
v 6.891805 -1.264459E-06 -7.258836
v 5.54556 -8.987735E-07 -4.914805
v 3.422915 -7.69609E-07 -3.629419
v 7.927004 -9.650424E-07 -5.84731
v 3.681715 -6.827962E-07 -3.276537
v 1.68847 -5.221838E-07 -1.81471
v 5.93376 -7.805128E-07 -4.385482
v 1.81787 -4.668186E-07 -1.638269
v -0.001541176 -4.151954E-07 -0.00984264
v -0.0004038483 -3.814786E-07 -0.008291865
v 3.940515 -5.959831E-07 -2.923656
v 1.94727 -4.114534E-07 -1.461829
v 0.0007334778 -3.477618E-07 -0.00674109
v 0.001870802 -3.140449E-07 -0.005190306
v 2.07667 -3.560881E-07 -1.285388
v 0.003008131 -2.803281E-07 -0.003639529
v 2.20607 -3.007229E-07 -1.108947
v 4.199315 -5.091701E-07 -2.570774
v 4.458115 -4.223572E-07 -2.217892
v 6.32196 -6.622519E-07 -3.856159
v 6.71016 -5.439915E-07 -3.326838
v 8.444606 -8.153342E-07 -5.141547
v 8.962206 -6.656257E-07 -4.435783
v 6.606814 -5.648228E-07 0.06814148
v 8.920655 -4.930855E-07 0.4432665
v 8.950603 -6.619971E-07 0.1032816
v 6.584352 -4.321598E-07 0.3231298
v 4.263024 -4.676482E-07 0.03300114
v 8.890708 -3.241741E-07 0.7832511
v 4.24805 -3.712339E-07 0.2029934
v 1.919235 -3.70474E-07 -0.002138939
v 6.561893 -2.994967E-07 0.5781184
v 1.911748 -3.10308E-07 0.08285723
v 0.005713546 -5.492341E-07 -0.004145391
v 0.00553363 -3.92087E-07 -0.002102788
v 4.233077 -2.748193E-07 0.3729861
v 1.904262 -2.50142E-07 0.1678536
v 0.005353705 -2.3494E-07 -6.018106E-05
v 0.005173779 -7.779292E-08 0.001982427
v 1.896775 -1.89976E-07 0.2528499
v 0.004993864 7.935424E-08 0.004025026
v 1.889288 -1.2981E-07 0.3378459
v 4.218102 -1.784048E-07 0.5429786
v 4.203129 -8.199038E-08 0.7129709
v 6.539433 -1.668337E-07 0.8331077
v 6.516971 -3.417078E-08 1.088096
v 8.860762 -1.552627E-07 1.123237
v 8.830813 1.364875E-08 1.463221
v -6.447246 8.473694E-07 -3.712381
v -8.482582 1.314048E-06 -5.105803
v -8.581001 1.221412E-06 -4.949841
v -6.373431 9.22826E-07 -3.829353
v -4.313489 4.733268E-07 -2.474921
v -8.384163 1.406684E-06 -5.261766
v -4.264279 5.316037E-07 -2.552902
v -2.179734 9.928436E-08 -1.237461
v -6.299616 9.982825E-07 -3.946325
v -2.155129 1.403815E-07 -1.276453
v -0.01169472 -3.837264E-07 0.00443827
v -0.01096526 -2.175852E-07 0.003282293
v -4.21507 5.898805E-07 -2.630884
v -2.130524 1.814787E-07 -1.315443
v -0.01023579 -5.144425E-08 0.002126341
v -0.009506331 1.146967E-07 0.0009703753
v -2.105919 2.225758E-07 -1.354434
v -0.008776868 2.808376E-07 -0.0001855877
v -2.081314 2.63673E-07 -1.393424
v -4.16586 6.481574E-07 -2.708865
v -4.116651 7.064342E-07 -2.786847
v -6.225801 1.073739E-06 -4.063297
v -6.151987 1.149195E-06 -4.180269
v -8.285743 1.499321E-06 -5.417728
v -8.187325 1.591957E-06 -5.573692
vt 0.001079947 0.2472474
vt 0.2501218 0.005364408
vt 0.001079947 0.005364408
vt 0.2501218 0.2472474
vt 0.001079947 0.4983318
vt 0.5000001 0.005364408
vt 0.2501218 0.4983318
vt 0.001079947 0.7485795
vt 0.5000001 0.2472474
vt 0.2501218 0.7485795
vt 0.001079947 0.9983373
vt 0.2501218 0.9983373
vt 0.5000002 0.4983317
vt 0.5000001 0.7485795
vt 0.5 0.9983373
vt 0.750715 0.9983373
vt 0.750715 0.7485795
vt 0.9997569 0.9983373
vt 0.9997569 0.7485795
vt 0.750715 0.4983318
vt 0.9997569 0.4983318
vt 0.750715 0.2472474
vt 0.9997569 0.2472474
vt 0.750715 0.00536435
vt 0.9997569 0.005364292
vt 0.001079947 0.2472474
vt 0.2501218 0.005364408
vt 0.001079947 0.005364408
vt 0.2501218 0.2472474
vt 0.001079947 0.4983318
vt 0.5000001 0.005364408
vt 0.2501218 0.4983318
vt 0.001079947 0.7485795
vt 0.5000001 0.2472474
vt 0.2501218 0.7485795
vt 0.001079947 0.9983373
vt 0.2501218 0.9983373
vt 0.5000002 0.4983317
vt 0.5000001 0.7485795
vt 0.5 0.9983373
vt 0.750715 0.9983373
vt 0.750715 0.7485795
vt 0.9997569 0.9983373
vt 0.9997569 0.7485795
vt 0.750715 0.4983318
vt 0.9997569 0.4983318
vt 0.750715 0.2472474
vt 0.9997569 0.2472474
vt 0.750715 0.00536435
vt 0.9997569 0.005364292
vt 0.001079947 0.2472474
vt 0.2501218 0.005364408
vt 0.001079947 0.005364408
vt 0.2501218 0.2472474
vt 0.001079947 0.4983318
vt 0.5000001 0.005364408
vt 0.2501218 0.4983318
vt 0.001079947 0.7485795
vt 0.5000001 0.2472474
vt 0.2501218 0.7485795
vt 0.001079947 0.9983373
vt 0.2501218 0.9983373
vt 0.5000002 0.4983317
vt 0.5000001 0.7485795
vt 0.5 0.9983373
vt 0.750715 0.9983373
vt 0.750715 0.7485795
vt 0.9997569 0.9983373
vt 0.9997569 0.7485795
vt 0.750715 0.4983318
vt 0.9997569 0.4983318
vt 0.750715 0.2472474
vt 0.9997569 0.2472474
vt 0.750715 0.00536435
vt 0.9997569 0.005364292
vt 0.001079947 0.2472474
vt 0.2501218 0.005364408
vt 0.001079947 0.005364408
vt 0.2501218 0.2472474
vt 0.001079947 0.4983318
vt 0.5000001 0.005364408
vt 0.2501218 0.4983318
vt 0.001079947 0.7485795
vt 0.5000001 0.2472474
vt 0.2501218 0.7485795
vt 0.001079947 0.9983373
vt 0.2501218 0.9983373
vt 0.5000002 0.4983317
vt 0.5000001 0.7485795
vt 0.5 0.9983373
vt 0.750715 0.9983373
vt 0.750715 0.7485795
vt 0.9997569 0.9983373
vt 0.9997569 0.7485795
vt 0.750715 0.4983318
vt 0.9997569 0.4983318
vt 0.750715 0.2472474
vt 0.9997569 0.2472474
vt 0.750715 0.00536435
vt 0.9997569 0.005364292
vt 0.001079947 0.2472474
vt 0.2501218 0.005364408
vt 0.001079947 0.005364408
vt 0.2501218 0.2472474
vt 0.001079947 0.4983318
vt 0.5000001 0.005364408
vt 0.2501218 0.4983318
vt 0.001079947 0.7485795
vt 0.5000001 0.2472474
vt 0.2501218 0.7485795
vt 0.001079947 0.9983373
vt 0.2501218 0.9983373
vt 0.5000002 0.4983317
vt 0.5000001 0.7485795
vt 0.5 0.9983373
vt 0.750715 0.9983373
vt 0.750715 0.7485795
vt 0.9997569 0.9983373
vt 0.9997569 0.7485795
vt 0.750715 0.4983318
vt 0.9997569 0.4983318
vt 0.750715 0.2472474
vt 0.9997569 0.2472474
vt 0.750715 0.00536435
vt 0.9997569 0.005364292
vt 0.001079947 0.2472474
vt 0.2501218 0.005364408
vt 0.001079947 0.005364408
vt 0.2501218 0.2472474
vt 0.001079947 0.4983318
vt 0.5000001 0.005364408
vt 0.2501218 0.4983318
vt 0.001079947 0.7485795
vt 0.5000001 0.2472474
vt 0.2501218 0.7485795
vt 0.001079947 0.9983373
vt 0.2501218 0.9983373
vt 0.5000002 0.4983317
vt 0.5000001 0.7485795
vt 0.5 0.9983373
vt 0.750715 0.9983373
vt 0.750715 0.7485795
vt 0.9997569 0.9983373
vt 0.9997569 0.7485795
vt 0.750715 0.4983318
vt 0.9997569 0.4983318
vt 0.750715 0.2472474
vt 0.9997569 0.2472474
vt 0.750715 0.00536435
vt 0.9997569 0.005364292
vt 0.001079947 0.2472474
vt 0.2501218 0.005364408
vt 0.001079947 0.005364408
vt 0.2501218 0.2472474
vt 0.001079947 0.4983318
vt 0.5000001 0.005364408
vt 0.2501218 0.4983318
vt 0.001079947 0.7485795
vt 0.5000001 0.2472474
vt 0.2501218 0.7485795
vt 0.001079947 0.9983373
vt 0.2501218 0.9983373
vt 0.5000002 0.4983317
vt 0.5000001 0.7485795
vt 0.5 0.9983373
vt 0.750715 0.9983373
vt 0.750715 0.7485795
vt 0.9997569 0.9983373
vt 0.9997569 0.7485795
vt 0.750715 0.4983318
vt 0.9997569 0.4983318
vt 0.750715 0.2472474
vt 0.9997569 0.2472474
vt 0.750715 0.00536435
vt 0.9997569 0.005364292
vt 0.001079947 0.2472474
vt 0.2501218 0.005364408
vt 0.001079947 0.005364408
vt 0.2501218 0.2472474
vt 0.001079947 0.4983318
vt 0.5000001 0.005364408
vt 0.2501218 0.4983318
vt 0.001079947 0.7485795
vt 0.5000001 0.2472474
vt 0.2501218 0.7485795
vt 0.001079947 0.9983373
vt 0.2501218 0.9983373
vt 0.5000002 0.4983317
vt 0.5000001 0.7485795
vt 0.5 0.9983373
vt 0.750715 0.9983373
vt 0.750715 0.7485795
vt 0.9997569 0.9983373
vt 0.9997569 0.7485795
vt 0.750715 0.4983318
vt 0.9997569 0.4983318
vt 0.750715 0.2472474
vt 0.9997569 0.2472474
vt 0.750715 0.00536435
vt 0.9997569 0.005364292
vn 0 -1 0
vn 0 -1 0
vn 0 -1 0
vn 0 -1 0
vn 0 -1 0
vn 0 -1 0
vn 0 -1 0
vn 0 -1 0
vn 0 -1 0
vn 0 -1 0
vn 0 -1 6.791558E-07
vn 0 -1 6.791558E-07
vn 0 -1 0
vn 0 -1 0
vn 0 -1 6.405957E-07
vn -3.084669E-07 -1 5.63477E-07
vn 0 -1 0
vn 0 -1 1.532317E-06
vn 0 -1 0
vn 0 -1 0
vn 0 -1 0
vn 0 -1 0
vn 0 -1 0
vn 0 -1 0
vn 0 -1 0
vn 0 -1 0
vn 0 -1 0
vn 0 -1 0
vn 0 -1 0
vn 0 -1 0
vn 0 -1 0
vn 0 -1 0
vn 0 -1 0
vn 0 -1 0
vn 0 -1 0
vn 0 -1 -2.982856E-07
vn 0 -1 -2.982856E-07
vn 0 -1 0
vn 0 -1 0
vn 0 -1 -2.953904E-07
vn 0 -1 -2.895989E-07
vn 0 -1 0
vn 0 -1 1.531953E-06
vn 0 -1 0
vn 0 -1 0
vn 0 -1 0
vn 0 -1 0
vn 0 -1 0
vn 0 -1 0
vn 0 -1 0
vn 0 -1 0
vn 0 -1 0
vn 0 -1 0
vn 0 -1 0
vn 0 -1 0
vn 0 -1 0
vn 0 -1 0
vn 0 -1 0
vn 0 -1 0
vn 0 -1 0
vn 5.434335E-07 -1 -4.264861E-07
vn 5.434335E-07 -1 -4.264861E-07
vn 0 -1 0
vn 0 -1 0
vn 5.640261E-07 -1 -3.939162E-07
vn 6.052112E-07 -1 -3.287766E-07
vn 0 -1 0
vn 0 -1 1.530861E-06
vn 0 -1 0
vn 0 -1 0
vn 0 -1 0
vn 0 -1 0
vn 0 -1 0
vn 0 -1 0
vn 0 -1 0
vn 0 -1 0
vn 0 -1 0
vn 0 -1 0
vn 0 -1 0
vn 0 -1 0
vn 0 -1 0
vn 0 -1 0
vn 0 -1 0
vn 0 -1 0
vn 0 -1 0
vn -3.130309E-07 -1 -6.900645E-07
vn -3.130309E-07 -1 -6.900644E-07
vn 0 -1 0
vn 0 -1 0
vn -2.987821E-07 -1 -6.962545E-07
vn -2.702873E-07 -1 -7.086403E-07
vn 0 -1 0
vn 0 -1 1.532317E-06
vn 0 -1 0
vn 0 -1 0
vn 0 -1 0
vn 0 -1 0
vn 0 -1 0
vn 0 -1 0
vn 0 -1 0
vn 0 -1 0
vn 0 -1 0
vn 0 -1 0
vn 0 -1 0
vn 0 -1 0
vn 0 -1 0
vn 0 -1 0
vn 0 -1 0
vn 0 -1 0
vn 0 -1 0
vn -3.452996E-07 -1 0
vn -3.452996E-07 -1 0
vn 0 -1 0
vn 0 -1 0
vn -3.338085E-07 -1 0
vn -3.108252E-07 -1 0
vn 0 -1 0
vn -1.208537E-06 -1 -4.532922E-07
vn 0 -1 0
vn 0 -1 0
vn 0 -1 0
vn 0 -1 0
vn 0 -1 0
vn 0 -1 0
vn 0 -1 0
vn 0 -1 0
vn 0 -1 0
vn 0 -1 0
vn 0 -1 0
vn 0 -1 0
vn 0 -1 0
vn 0 -1 0
vn 0 -1 0
vn 0 -1 0
vn 0 -1 0
vn 0 -1 2.812444E-07
vn 0 -1 2.812444E-07
vn 0 -1 0
vn 0 -1 0
vn 0 -1 2.915102E-07
vn 0 -1 3.120424E-07
vn 0 -1 0
vn -1.209264E-06 -1 -4.51837E-07
vn 0 -1 0
vn 0 -1 0
vn 0 -1 0
vn 0 -1 0
vn 0 -1 0
vn 0 -1 0
vn 0 -1 0
vn 0 -1 0
vn 0 -1 0
vn 0 -1 0
vn 0 -1 0
vn 0 -1 0
vn 0 -1 0
vn 0 -1 0
vn 0 -1 0
vn 0 -1 0
vn 0 -1 0
vn 0 -1 9.063571E-07
vn 0 -1 9.063569E-07
vn 0 -1 0
vn 0 -1 0
vn 0 -1 9.047654E-07
vn 0 -1 9.015935E-07
vn 0 -1 0
vn -1.208537E-06 -1 -4.525646E-07
vn 0 -1 0
vn 0 -1 0
vn 0 -1 0
vn 0 -1 0
vn 0 -1 0
vn 0 -1 0
vn 0 -1 0
vn 0 -1 0
vn 0 -1 0
vn 0 -1 0
vn 0 -1 0
vn 0 -1 0
vn 0 -1 0
vn 0 -1 0
vn 0 -1 0
vn 0 -1 0
vn 0 -1 0
vn 2.085805E-06 -1 -3.845763E-06
vn 2.085805E-06 -1 -3.845763E-06
vn 0 -1 0
vn 0 -1 0
vn 2.195659E-06 -1 -3.776488E-06
vn 2.415315E-06 -1 -3.637852E-06
vn 0 -1 0
vn -1.208173E-06 -1 -4.532922E-07
vn 0 -1 0
vn 0 -1 0
vn 0 -1 0
vn 0 -1 0
vn 0 -1 0
vn 0 -1 0
vn 0 -1 0
g fx_mesh_ray_03_0
f 3/3/3 2/2/2 1/1/1
f 2/2/2 4/4/4 1/1/1
f 1/1/1 4/4/4 5/5/5
f 4/4/4 2/2/2 6/6/6
f 4/4/4 7/7/7 5/5/5
f 5/5/5 7/7/7 8/8/8
f 9/9/9 4/4/4 6/6/6
f 7/7/7 4/4/4 9/9/9
f 7/7/7 10/10/10 8/8/8
f 8/8/8 10/10/10 11/11/11
f 10/10/10 12/12/12 11/11/11
f 10/10/10 7/7/7 13/13/13
f 13/13/13 7/7/7 9/9/9
f 10/10/10 14/14/14 12/12/12
f 14/14/14 10/10/10 13/13/13
f 14/14/14 15/15/15 12/12/12
f 16/16/16 15/15/15 14/14/14
f 17/17/17 16/16/16 14/14/14
f 17/17/17 14/14/14 13/13/13
f 18/18/18 16/16/16 17/17/17
f 19/19/19 18/18/18 17/17/17
f 20/20/20 17/17/17 13/13/13
f 19/19/19 17/17/17 20/20/20
f 20/20/20 13/13/13 9/9/9
f 21/21/21 19/19/19 20/20/20
f 22/22/22 20/20/20 9/9/9
f 21/21/21 20/20/20 22/22/22
f 22/22/22 9/9/9 6/6/6
f 23/23/23 21/21/21 22/22/22
f 24/24/24 22/22/22 6/6/6
f 23/23/23 22/22/22 24/24/24
f 25/25/25 23/23/23 24/24/24
f 28/28/28 27/27/27 26/26/26
f 27/27/27 29/29/29 26/26/26
f 26/26/26 29/29/29 30/30/30
f 29/29/29 27/27/27 31/31/31
f 29/29/29 32/32/32 30/30/30
f 30/30/30 32/32/32 33/33/33
f 34/34/34 29/29/29 31/31/31
f 32/32/32 29/29/29 34/34/34
f 32/32/32 35/35/35 33/33/33
f 33/33/33 35/35/35 36/36/36
f 35/35/35 37/37/37 36/36/36
f 35/35/35 32/32/32 38/38/38
f 38/38/38 32/32/32 34/34/34
f 35/35/35 39/39/39 37/37/37
f 39/39/39 35/35/35 38/38/38
f 39/39/39 40/40/40 37/37/37
f 41/41/41 40/40/40 39/39/39
f 42/42/42 41/41/41 39/39/39
f 42/42/42 39/39/39 38/38/38
f 43/43/43 41/41/41 42/42/42
f 44/44/44 43/43/43 42/42/42
f 45/45/45 42/42/42 38/38/38
f 44/44/44 42/42/42 45/45/45
f 45/45/45 38/38/38 34/34/34
f 46/46/46 44/44/44 45/45/45
f 47/47/47 45/45/45 34/34/34
f 46/46/46 45/45/45 47/47/47
f 47/47/47 34/34/34 31/31/31
f 48/48/48 46/46/46 47/47/47
f 49/49/49 47/47/47 31/31/31
f 48/48/48 47/47/47 49/49/49
f 50/50/50 48/48/48 49/49/49
f 53/53/53 52/52/52 51/51/51
f 52/52/52 54/54/54 51/51/51
f 51/51/51 54/54/54 55/55/55
f 54/54/54 52/52/52 56/56/56
f 54/54/54 57/57/57 55/55/55
f 55/55/55 57/57/57 58/58/58
f 59/59/59 54/54/54 56/56/56
f 57/57/57 54/54/54 59/59/59
f 57/57/57 60/60/60 58/58/58
f 58/58/58 60/60/60 61/61/61
f 60/60/60 62/62/62 61/61/61
f 60/60/60 57/57/57 63/63/63
f 63/63/63 57/57/57 59/59/59
f 60/60/60 64/64/64 62/62/62
f 64/64/64 60/60/60 63/63/63
f 64/64/64 65/65/65 62/62/62
f 66/66/66 65/65/65 64/64/64
f 67/67/67 66/66/66 64/64/64
f 67/67/67 64/64/64 63/63/63
f 68/68/68 66/66/66 67/67/67
f 69/69/69 68/68/68 67/67/67
f 70/70/70 67/67/67 63/63/63
f 69/69/69 67/67/67 70/70/70
f 70/70/70 63/63/63 59/59/59
f 71/71/71 69/69/69 70/70/70
f 72/72/72 70/70/70 59/59/59
f 71/71/71 70/70/70 72/72/72
f 72/72/72 59/59/59 56/56/56
f 73/73/73 71/71/71 72/72/72
f 74/74/74 72/72/72 56/56/56
f 73/73/73 72/72/72 74/74/74
f 75/75/75 73/73/73 74/74/74
f 78/78/78 77/77/77 76/76/76
f 77/77/77 79/79/79 76/76/76
f 76/76/76 79/79/79 80/80/80
f 79/79/79 77/77/77 81/81/81
f 79/79/79 82/82/82 80/80/80
f 80/80/80 82/82/82 83/83/83
f 84/84/84 79/79/79 81/81/81
f 82/82/82 79/79/79 84/84/84
f 82/82/82 85/85/85 83/83/83
f 83/83/83 85/85/85 86/86/86
f 85/85/85 87/87/87 86/86/86
f 85/85/85 82/82/82 88/88/88
f 88/88/88 82/82/82 84/84/84
f 85/85/85 89/89/89 87/87/87
f 89/89/89 85/85/85 88/88/88
f 89/89/89 90/90/90 87/87/87
f 91/91/91 90/90/90 89/89/89
f 92/92/92 91/91/91 89/89/89
f 92/92/92 89/89/89 88/88/88
f 93/93/93 91/91/91 92/92/92
f 94/94/94 93/93/93 92/92/92
f 95/95/95 92/92/92 88/88/88
f 94/94/94 92/92/92 95/95/95
f 95/95/95 88/88/88 84/84/84
f 96/96/96 94/94/94 95/95/95
f 97/97/97 95/95/95 84/84/84
f 96/96/96 95/95/95 97/97/97
f 97/97/97 84/84/84 81/81/81
f 98/98/98 96/96/96 97/97/97
f 99/99/99 97/97/97 81/81/81
f 98/98/98 97/97/97 99/99/99
f 100/100/100 98/98/98 99/99/99
f 103/103/103 102/102/102 101/101/101
f 102/102/102 104/104/104 101/101/101
f 101/101/101 104/104/104 105/105/105
f 104/104/104 102/102/102 106/106/106
f 104/104/104 107/107/107 105/105/105
f 105/105/105 107/107/107 108/108/108
f 109/109/109 104/104/104 106/106/106
f 107/107/107 104/104/104 109/109/109
f 107/107/107 110/110/110 108/108/108
f 108/108/108 110/110/110 111/111/111
f 110/110/110 112/112/112 111/111/111
f 110/110/110 107/107/107 113/113/113
f 113/113/113 107/107/107 109/109/109
f 110/110/110 114/114/114 112/112/112
f 114/114/114 110/110/110 113/113/113
f 114/114/114 115/115/115 112/112/112
f 116/116/116 115/115/115 114/114/114
f 117/117/117 116/116/116 114/114/114
f 117/117/117 114/114/114 113/113/113
f 118/118/118 116/116/116 117/117/117
f 119/119/119 118/118/118 117/117/117
f 120/120/120 117/117/117 113/113/113
f 119/119/119 117/117/117 120/120/120
f 120/120/120 113/113/113 109/109/109
f 121/121/121 119/119/119 120/120/120
f 122/122/122 120/120/120 109/109/109
f 121/121/121 120/120/120 122/122/122
f 122/122/122 109/109/109 106/106/106
f 123/123/123 121/121/121 122/122/122
f 124/124/124 122/122/122 106/106/106
f 123/123/123 122/122/122 124/124/124
f 125/125/125 123/123/123 124/124/124
f 128/128/128 127/127/127 126/126/126
f 127/127/127 129/129/129 126/126/126
f 126/126/126 129/129/129 130/130/130
f 129/129/129 127/127/127 131/131/131
f 129/129/129 132/132/132 130/130/130
f 130/130/130 132/132/132 133/133/133
f 134/134/134 129/129/129 131/131/131
f 132/132/132 129/129/129 134/134/134
f 132/132/132 135/135/135 133/133/133
f 133/133/133 135/135/135 136/136/136
f 135/135/135 137/137/137 136/136/136
f 135/135/135 132/132/132 138/138/138
f 138/138/138 132/132/132 134/134/134
f 135/135/135 139/139/139 137/137/137
f 139/139/139 135/135/135 138/138/138
f 139/139/139 140/140/140 137/137/137
f 141/141/141 140/140/140 139/139/139
f 142/142/142 141/141/141 139/139/139
f 142/142/142 139/139/139 138/138/138
f 143/143/143 141/141/141 142/142/142
f 144/144/144 143/143/143 142/142/142
f 145/145/145 142/142/142 138/138/138
f 144/144/144 142/142/142 145/145/145
f 145/145/145 138/138/138 134/134/134
f 146/146/146 144/144/144 145/145/145
f 147/147/147 145/145/145 134/134/134
f 146/146/146 145/145/145 147/147/147
f 147/147/147 134/134/134 131/131/131
f 148/148/148 146/146/146 147/147/147
f 149/149/149 147/147/147 131/131/131
f 148/148/148 147/147/147 149/149/149
f 150/150/150 148/148/148 149/149/149
f 153/153/153 152/152/152 151/151/151
f 152/152/152 154/154/154 151/151/151
f 151/151/151 154/154/154 155/155/155
f 154/154/154 152/152/152 156/156/156
f 154/154/154 157/157/157 155/155/155
f 155/155/155 157/157/157 158/158/158
f 159/159/159 154/154/154 156/156/156
f 157/157/157 154/154/154 159/159/159
f 157/157/157 160/160/160 158/158/158
f 158/158/158 160/160/160 161/161/161
f 160/160/160 162/162/162 161/161/161
f 160/160/160 157/157/157 163/163/163
f 163/163/163 157/157/157 159/159/159
f 160/160/160 164/164/164 162/162/162
f 164/164/164 160/160/160 163/163/163
f 164/164/164 165/165/165 162/162/162
f 166/166/166 165/165/165 164/164/164
f 167/167/167 166/166/166 164/164/164
f 167/167/167 164/164/164 163/163/163
f 168/168/168 166/166/166 167/167/167
f 169/169/169 168/168/168 167/167/167
f 170/170/170 167/167/167 163/163/163
f 169/169/169 167/167/167 170/170/170
f 170/170/170 163/163/163 159/159/159
f 171/171/171 169/169/169 170/170/170
f 172/172/172 170/170/170 159/159/159
f 171/171/171 170/170/170 172/172/172
f 172/172/172 159/159/159 156/156/156
f 173/173/173 171/171/171 172/172/172
f 174/174/174 172/172/172 156/156/156
f 173/173/173 172/172/172 174/174/174
f 175/175/175 173/173/173 174/174/174
f 178/178/178 177/177/177 176/176/176
f 177/177/177 179/179/179 176/176/176
f 176/176/176 179/179/179 180/180/180
f 179/179/179 177/177/177 181/181/181
f 179/179/179 182/182/182 180/180/180
f 180/180/180 182/182/182 183/183/183
f 184/184/184 179/179/179 181/181/181
f 182/182/182 179/179/179 184/184/184
f 182/182/182 185/185/185 183/183/183
f 183/183/183 185/185/185 186/186/186
f 185/185/185 187/187/187 186/186/186
f 185/185/185 182/182/182 188/188/188
f 188/188/188 182/182/182 184/184/184
f 185/185/185 189/189/189 187/187/187
f 189/189/189 185/185/185 188/188/188
f 189/189/189 190/190/190 187/187/187
f 191/191/191 190/190/190 189/189/189
f 192/192/192 191/191/191 189/189/189
f 192/192/192 189/189/189 188/188/188
f 193/193/193 191/191/191 192/192/192
f 194/194/194 193/193/193 192/192/192
f 195/195/195 192/192/192 188/188/188
f 194/194/194 192/192/192 195/195/195
f 195/195/195 188/188/188 184/184/184
f 196/196/196 194/194/194 195/195/195
f 197/197/197 195/195/195 184/184/184
f 196/196/196 195/195/195 197/197/197
f 197/197/197 184/184/184 181/181/181
f 198/198/198 196/196/196 197/197/197
f 199/199/199 197/197/197 181/181/181
f 198/198/198 197/197/197 199/199/199
f 200/200/200 198/198/198 199/199/199
