g fx_mesh_beam_03a
v -0.0338735 0.4295063 0
v 0.1173322 0.2604461 0
v -0.09711616 -0.3684023 0
v -0.7990878 -0.2786101 0
v -0.3115645 -0.9972523 0
v -1.564302 -0.9867274 0
v -0.7404612 -2.254949 0
v -3.09473 -2.402962 0
v -0.2015071 -4.466576 4.844665E-08
v 2.639284 -4.377534 -4.844665E-08
v 2.691717 -6.53019 9.689331E-08
v 6.01903 -6.500121 -9.689331E-08
v 2.525581 -8.292244 -4.844665E-08
v -0.7927942 -8.294826 4.844665E-08
v -0.9678673 -10.08437 0
v -4.277305 -10.05946 0
v -1.438253 -12.10185 4.844665E-08
v 1.471044 -12.18484 -2.422333E-08
v 1.400799 -14.14424 7.266998E-08
v 3.909956 -14.28531 -7.266998E-08
v 0.5616961 -16.26703 -4.844665E-08
v -2.62834 -16.35986 4.844665E-08
v -2.786563 -18.24875 0
v -6.657478 -18.57547 0
v -2.714241 -20.37086 4.844665E-08
v 0.237163 -20.07994 -4.844665E-08
v 1.228997 -22.16625 7.266998E-08
v 3.260889 -21.91112 -7.266998E-08
v 1.728975 -23.5119 -2.422333E-08
v 0.5820494 -23.57405 4.844665E-08
v 0.1970617 -25.11267 0
v -0.06489783 -24.98184 0
vt 0.0003415719 1.001077
vt 0.9980527 1.001077
vt 0.9980527 0.9682505
vt 0.0003415719 0.9682505
vt 0.9980527 0.9206468
vt 0.0003415719 0.9206468
vt 0.9980527 0.8464447
vt 0.0003415719 0.8464447
vt 0.0003415719 0.7722427
vt 0.9980527 0.7722427
vt 0.0003415719 0.6980405
vt 0.9980527 0.6980405
vt 0.9980527 0.6238385
vt 0.0003415719 0.6238385
vt 0.9980527 0.5496364
vt 0.0003415719 0.5496364
vt 0.0003415719 0.4754343
vt 0.9980527 0.4754343
vt 0.0003415719 0.4012322
vt 0.9980527 0.4012322
vt 0.9980527 0.3270301
vt 0.0003415719 0.3270301
vt 0.9980527 0.252828
vt 0.0003415719 0.252828
vt 0.0003415719 0.178626
vt 0.9980527 0.178626
vt 0.0003415719 0.1044239
vt 0.9980527 0.1044239
vt 0.9980527 0.04795413
vt 0.0003415719 0.04795413
vt 0.9980527 -0.001127173
vt 0.0003415719 -0.001127173
vn 0 0 1
vn 0 0 1
vn 0 0 1
vn 0 0 1
vn 0 0 1
vn 0 0 1
vn 0 0 1
vn 0 0 1
vn 0 0 1
vn 0 0 1
vn 0 0 1
vn 0 0 1
vn 0 0 1
vn 0 0 1
vn 0 0 1
vn 0 0 1
vn 0 0 1
vn 0 0 1
vn 0 0 1
vn 0 0 1
vn 0 0 1
vn 0 0 1
vn 0 0 1
vn 0 0 1
vn 0 0 1
vn 0 0 1
vn 0 0 1
vn 0 0 1
vn 0 0 1
vn 0 0 1
vn 0 0 1
vn 0 0 1
g fx_mesh_beam_03a_0
f 3/3/3 2/2/2 1/1/1
f 4/4/4 3/3/3 1/1/1
f 5/5/5 3/3/3 4/4/4
f 6/6/6 5/5/5 4/4/4
f 7/7/7 5/5/5 6/6/6
f 8/8/8 7/7/7 6/6/6
f 7/7/7 8/8/8 9/9/9
f 10/10/10 7/7/7 9/9/9
f 10/10/10 9/9/9 11/11/11
f 12/12/12 10/10/10 11/11/11
f 13/13/13 12/12/12 11/11/11
f 14/14/14 13/13/13 11/11/11
f 15/15/15 13/13/13 14/14/14
f 16/16/16 15/15/15 14/14/14
f 15/15/15 16/16/16 17/17/17
f 18/18/18 15/15/15 17/17/17
f 18/18/18 17/17/17 19/19/19
f 20/20/20 18/18/18 19/19/19
f 21/21/21 20/20/20 19/19/19
f 22/22/22 21/21/21 19/19/19
f 23/23/23 21/21/21 22/22/22
f 24/24/24 23/23/23 22/22/22
f 23/23/23 24/24/24 25/25/25
f 26/26/26 23/23/23 25/25/25
f 26/26/26 25/25/25 27/27/27
f 28/28/28 26/26/26 27/27/27
f 29/29/29 28/28/28 27/27/27
f 30/30/30 29/29/29 27/27/27
f 31/31/31 29/29/29 30/30/30
f 32/32/32 31/31/31 30/30/30
