g fx_mesh_helix_05_uv1
v 0.3520587 -0.9031211 0.9845792
v 0.1479538 -0.9561548 1.170949
v 0.3612041 -0.9013956 0.9931753
v 0.1285532 -0.9606766 1.151201
v -0.07244746 -0.952474 1.348479
v -0.1086861 -0.9642241 1.309423
v -0.2846004 -0.8954141 1.522958
v -0.3477711 -0.9178889 1.462668
v -0.4756421 -0.7792241 1.692552
v -0.5735529 -0.8172293 1.611336
v -0.6270257 -0.6191085 1.849934
v -0.7785832 -0.6628281 1.762789
v -0.7359537 -0.4167387 1.999916
v -0.9425994 -0.4675063 1.911702
v -0.7814829 -0.2009609 2.128752
v -1.055665 -0.2209258 2.070353
v -0.7745052 0.01532576 2.241175
v -1.102085 0.05576283 2.234428
v -0.7100037 0.2434954 2.350466
v -1.075277 0.3210964 2.389668
v -0.5974009 0.4267754 2.435605
v -0.9587386 0.5916877 2.555593
v -0.4479683 0.5791192 2.511853
v -0.7628001 0.8197829 2.717171
v -0.2662331 0.6947275 2.583723
v -0.5031766 0.9792873 2.869104
v -0.05680535 0.765394 2.655601
v -0.2055677 1.051476 3.006215
v 0.1912838 0.7758688 2.737767
v 0.07949006 1.03098 3.117193
v 0.4174376 0.7186744 2.81707
v 0.3649298 0.9196667 3.214414
v 0.6257089 0.5935754 2.904281
v 0.6001698 0.7310048 3.2868
v 0.7914147 0.4027326 2.999579
v 0.7670755 0.4866388 3.333535
v 0.8884855 0.1601066 3.1019
v 0.8568793 0.2099699 3.355137
v 0.8961693 -0.1073431 3.209233
v 0.868149 -0.07783804 3.353202
v 0.8061231 -0.36247 3.319
v 0.8032793 -0.3595412 3.33006
v -0.4736355 -0.404702 0.2457486
v -0.4606535 -0.285971 0.3157983
v -0.467877 -0.4077288 0.2590526
v -0.4905799 -0.2663409 0.2635016
v -0.4319706 -0.1738303 0.3759193
v -0.4921021 -0.1244451 0.2934462
v -0.3858058 -0.07463083 0.4375611
v -0.4774669 0.01813063 0.3385132
v -0.3191577 0.02374271 0.5082968
v -0.4529071 0.1430557 0.3924899
v -0.2455617 0.0940462 0.5742745
v -0.4088765 0.269905 0.4712202
v -0.1672404 0.1520869 0.6394199
v -0.3535818 0.3838555 0.5671326
v -0.08605095 0.2027215 0.704617
v -0.2909261 0.4812822 0.6771435
v -0.001913691 0.2505891 0.7721197
v -0.2248074 0.5605757 0.7965185
v 0.09377007 0.2953078 0.860591
v -0.1673856 0.6099296 0.9116251
v 0.1784575 0.333151 0.9411628
v -0.1011198 0.6496264 1.042279
v 0.2676676 0.3729383 1.037849
v -0.04144292 0.6715484 1.164132
v 0.34618 0.4054477 1.13687
v 0.02107342 0.677904 1.293521
v 0.4223545 0.4406837 1.245605
v 0.08400694 0.6759533 1.4156
v 0.4878404 0.4688446 1.364861
v 0.1456419 0.6601606 1.535799
v 0.5445395 0.4972044 1.487376
v 0.214514 0.6414641 1.653851
v 0.5907034 0.5188329 1.623624
v 0.2827701 0.6162267 1.763564
v 0.6225303 0.535655 1.758709
v 0.3608756 0.5904531 1.876611
v 0.6453483 0.5460796 1.904366
v 0.4440705 0.5677622 1.980464
v 0.6492505 0.5449574 2.048031
v 0.5337054 0.5460668 2.090697
v 0.6437732 0.534589 2.194321
v 0.6327208 0.5336186 2.198305
v 0.3374037 0.4046104 0.2391413
v 0.5288344 0.4364472 0.4178902
v 0.3295634 0.398885 0.250303
v 0.538891 0.4444326 0.4045936
v 0.7319447 0.4293611 0.5846208
v 0.7501903 0.444508 0.5628282
v 0.9276974 0.3738182 0.7472696
v 0.9635144 0.3998741 0.7159998
v 1.106393 0.2685434 0.9051535
v 1.165918 0.3084547 0.8637251
v 1.253713 0.1251419 1.052747
v 1.351929 0.171516 1.011576
v 1.363036 -0.05843306 1.193459
v 1.500815 -0.00583133 1.154246
v 1.423144 -0.2563564 1.317934
v 1.610237 -0.2253315 1.301185
v 1.43391 -0.4757504 1.436605
v 1.661142 -0.4606739 1.440475
v 1.391111 -0.6783172 1.535681
v 1.646019 -0.7206261 1.584675
v 1.30576 -0.865202 1.623558
v 1.559158 -0.9750804 1.725337
v 1.162406 -1.040062 1.709993
v 1.411353 -1.184422 1.850129
v 0.9946023 -1.162205 1.780066
v 1.190842 -1.358726 1.97351
v 0.8006711 -1.242645 1.845135
v 0.9253334 -1.463136 2.08337
v 0.5878951 -1.273573 1.907197
v 0.6384851 -1.485174 2.17644
v 0.3532518 -1.239297 1.97111
v 0.3731089 -1.424547 2.245926
v 0.148468 -1.144924 2.02914
v 0.1223752 -1.281591 2.298935
v -0.02734014 -0.9917644 2.087333
v -0.07233405 -1.073574 2.328968
v -0.1549013 -0.7867831 2.145858
v -0.1949416 -0.8220157 2.335229
v -0.216417 -0.5447434 2.204737
v -0.2376168 -0.5516368 2.317453
v -0.1992601 -0.2876222 2.26418
v -0.2008081 -0.287298 2.275862
vt -5.960464E-08 1
vt 0.0499999 2.384186E-07
vt -1.03316E-07 2.384186E-07
vt 0.04999994 1
vt 0.0999999 2.384186E-07
vt 0.09999994 1
vt 0.1499999 2.384186E-07
vt 0.1499999 1
vt 0.1999999 2.384186E-07
vt 0.1999999 1
vt 0.2499999 2.384186E-07
vt 0.2499999 1
vt 0.2999999 2.384186E-07
vt 0.3 1
vt 0.3499999 2.384186E-07
vt 0.35 1
vt 0.3999999 2.384186E-07
vt 0.4 1
vt 0.45 2.384186E-07
vt 0.45 1
vt 0.4999999 2.384186E-07
vt 0.5 1
vt 0.55 2.384186E-07
vt 0.55 1
vt 0.6 2.384186E-07
vt 0.6 1
vt 0.65 2.384186E-07
vt 0.65 1
vt 0.7 2.384186E-07
vt 0.7 1
vt 0.75 2.384186E-07
vt 0.7500001 1
vt 0.8 2.384186E-07
vt 0.8000001 1
vt 0.85 2.384186E-07
vt 0.8500001 1
vt 0.9 2.384186E-07
vt 0.9000001 1
vt 0.95 2.384186E-07
vt 0.9500001 1
vt 1 2.384186E-07
vt 1 1
vt -5.960464E-08 1
vt 0.0499999 2.384186E-07
vt -1.03316E-07 2.384186E-07
vt 0.04999994 1
vt 0.0999999 2.384186E-07
vt 0.09999994 1
vt 0.1499999 2.384186E-07
vt 0.1499999 1
vt 0.1999999 2.384186E-07
vt 0.1999999 1
vt 0.2499999 2.384186E-07
vt 0.2499999 1
vt 0.2999999 2.384186E-07
vt 0.3 1
vt 0.3499999 2.384186E-07
vt 0.35 1
vt 0.3999999 2.384186E-07
vt 0.4 1
vt 0.45 2.384186E-07
vt 0.45 1
vt 0.4999999 2.384186E-07
vt 0.5 1
vt 0.55 2.384186E-07
vt 0.55 1
vt 0.6 2.384186E-07
vt 0.6 1
vt 0.65 2.384186E-07
vt 0.65 1
vt 0.7 2.384186E-07
vt 0.7 1
vt 0.75 2.384186E-07
vt 0.7500001 1
vt 0.8 2.384186E-07
vt 0.8000001 1
vt 0.85 2.384186E-07
vt 0.8500001 1
vt 0.9 2.384186E-07
vt 0.9000001 1
vt 0.95 2.384186E-07
vt 0.9500001 1
vt 1 2.384186E-07
vt 1 1
vt -5.960464E-08 1
vt 0.0499999 2.384186E-07
vt -1.03316E-07 2.384186E-07
vt 0.04999994 1
vt 0.0999999 2.384186E-07
vt 0.09999994 1
vt 0.1499999 2.384186E-07
vt 0.1499999 1
vt 0.1999999 2.384186E-07
vt 0.1999999 1
vt 0.2499999 2.384186E-07
vt 0.2499999 1
vt 0.2999999 2.384186E-07
vt 0.3 1
vt 0.3499999 2.384186E-07
vt 0.35 1
vt 0.3999999 2.384186E-07
vt 0.4 1
vt 0.45 2.384186E-07
vt 0.45 1
vt 0.4999999 2.384186E-07
vt 0.5 1
vt 0.55 2.384186E-07
vt 0.55 1
vt 0.6 2.384186E-07
vt 0.6 1
vt 0.65 2.384186E-07
vt 0.65 1
vt 0.7 2.384186E-07
vt 0.7 1
vt 0.75 2.384186E-07
vt 0.7500001 1
vt 0.8 2.384186E-07
vt 0.8000001 1
vt 0.85 2.384186E-07
vt 0.8500001 1
vt 0.9 2.384186E-07
vt 0.9000001 1
vt 0.95 2.384186E-07
vt 0.9500001 1
vt 1 2.384186E-07
vt 1 1
vn 0.2203075 -0.9747619 -0.03610827
vn 0.171612 -0.9835729 0.05597821
vn 0.2191441 -0.9749737 -0.03744266
vn 0.1611231 -0.9843177 0.07181972
vn 0.06003791 -0.9704122 0.2338711
vn 0.05649581 -0.9677881 0.2453457
vn -0.05209984 -0.918197 0.3926829
vn -0.04934822 -0.9126055 0.4058522
vn -0.1399224 -0.8263098 0.5455583
vn -0.1237404 -0.8236318 0.553461
vn -0.1881571 -0.7179657 0.6701657
vn -0.1631155 -0.7178513 0.6768182
vn -0.1974852 -0.5981843 0.7766435
vn -0.158462 -0.6151235 0.7723425
vn -0.1596876 -0.504451 0.8485451
vn -0.1201389 -0.5331161 0.8374687
vn -0.09197253 -0.4514226 0.8875577
vn -0.05679527 -0.4925873 0.8684078
vn -0.01609387 -0.4402602 0.8977261
vn 0.006642494 -0.5017819 0.8649687
vn 0.0429264 -0.4868077 0.8724537
vn 0.04656314 -0.5546821 0.8307584
vn 0.06132092 -0.5725477 0.8175751
vn 0.04073074 -0.6416863 0.765885
vn 0.02079899 -0.6763825 0.7362568
vn -0.0256733 -0.7375752 0.6747767
vn -0.0962645 -0.77149 0.6289168
vn -0.1571419 -0.8105916 0.5641346
vn -0.2800331 -0.8202225 0.4988152
vn -0.3318698 -0.8335992 0.4415596
vn -0.4886596 -0.7939489 0.3617418
vn -0.5332409 -0.7877022 0.3085117
vn -0.6973445 -0.6814532 0.2221086
vn -0.7312618 -0.6603284 0.1709461
vn -0.8706545 -0.4851413 0.08123258
vn -0.8878329 -0.4587518 0.03604709
vn -0.9731315 -0.2232787 -0.05622723
vn -0.9749315 -0.2029067 -0.09130912
vn -0.9798324 0.07098538 -0.1867873
vn -0.9750612 0.07990835 -0.2070511
vn -0.9302363 0.2364356 -0.2806397
vn -0.9237901 0.2374072 -0.3004158
vn -0.9110269 -0.1310535 0.3909667
vn -0.8803115 -0.09355191 0.4650803
vn -0.9207963 -0.1185534 0.3715903
vn -0.8692873 -0.1142354 0.480926
vn -0.8262972 -0.04139551 0.561711
vn -0.8119122 -0.08863136 0.5770122
vn -0.7611951 -0.02661507 0.6479766
vn -0.7497136 -0.1033885 0.6536363
vn -0.6902878 -0.03449274 0.7227122
vn -0.6950123 -0.1540882 0.7022925
vn -0.6283007 -0.09116987 0.77261
vn -0.6508807 -0.2284034 0.724007
vn -0.5761661 -0.1736371 0.7986756
vn -0.6195099 -0.3203727 0.7166372
vn -0.5308291 -0.2672343 0.8042427
vn -0.5954645 -0.4175772 0.6863317
vn -0.5144679 -0.3822152 0.767616
vn -0.5882278 -0.5216433 0.6179615
vn -0.4947399 -0.484745 0.7212868
vn -0.5758395 -0.6126606 0.5413463
vn -0.469241 -0.5760691 0.6692961
vn -0.5504009 -0.6900221 0.47003
vn -0.4524612 -0.6658674 0.5932111
vn -0.5307961 -0.7609274 0.3731554
vn -0.4233696 -0.7412724 0.5208392
vn -0.4946021 -0.8188702 0.2912393
vn -0.3929211 -0.8087078 0.4377267
vn -0.4544616 -0.8675547 0.2020238
vn -0.3569301 -0.8653354 0.3518459
vn -0.4046147 -0.9065177 0.1204678
vn -0.308683 -0.9108452 0.274
vn -0.3410729 -0.9382468 0.05798364
vn -0.261524 -0.9475539 0.1837028
vn -0.2765695 -0.960935 -0.01063767
vn -0.2002551 -0.9735353 0.1101227
vn -0.1979767 -0.9791585 -0.04532093
vn -0.1381564 -0.9900918 0.02512374
vn -0.1218074 -0.988694 -0.087447
vn -0.07099718 -0.9956026 -0.06111422
vn -0.05077935 -0.9917242 -0.1179181
vn 0.003717887 -0.9934749 -0.1139902
vn 0.03422638 -0.9887117 -0.1458683
vn -0.3555496 0.9086538 0.2189355
vn -0.3173032 0.8998348 0.2993594
vn -0.3543952 0.9094347 0.21756
vn -0.31877 0.8987547 0.3010408
vn -0.2143373 0.877485 0.4290452
vn -0.2183318 0.8759677 0.4301301
vn -0.1178663 0.8262883 0.5507768
vn -0.1211856 0.8232084 0.5546549
vn -0.04232761 0.7517536 0.6580844
vn -0.05140778 0.7498563 0.6596004
vn 0.002454373 0.6663542 0.7456313
vn -0.008280726 0.6629848 0.748587
vn 0.01734466 0.5782804 0.8156537
vn -0.0002093308 0.5816967 0.8134058
vn -0.0006029563 0.5111025 0.8595195
vn -0.01985138 0.5173358 0.8555523
vn -0.03784273 0.4675815 0.8831396
vn -0.0578261 0.4848835 0.872665
vn -0.08196343 0.4643614 0.8818449
vn -0.09815021 0.4883643 0.8671025
vn -0.112707 0.5016288 0.8577095
vn -0.1210532 0.5315903 0.8383065
vn -0.1111001 0.5718411 0.8128066
vn -0.1105113 0.6016836 0.7910526
vn -0.06687424 0.6538461 0.7536666
vn -0.05439838 0.6838889 0.7275554
vn 0.02833665 0.7301106 0.6827412
vn 0.05538762 0.7573406 0.650667
vn 0.1834307 0.7787299 0.5999441
vn 0.2176561 0.7942185 0.5673119
vn 0.3842447 0.7708793 0.5080366
vn 0.4050816 0.7760361 0.4834012
vn 0.5853524 0.6933386 0.4202906
vn 0.6031373 0.6909901 0.3984443
vn 0.7699211 0.5406473 0.3390015
vn 0.7841098 0.532958 0.3180056
vn 0.9099968 0.3198891 0.2637741
vn 0.9177568 0.3114499 0.2464176
vn 0.9791257 0.04973745 0.1970758
vn 0.9814001 0.04477094 0.18668
vn 0.9830079 -0.1137418 0.1440771
vn 0.9842153 -0.1160241 0.1336357
g fx_mesh_helix_05_uv1_0
f 3/3/3 2/2/2 1/1/1
f 2/2/2 4/4/4 1/1/1
f 2/2/2 5/5/5 4/4/4
f 5/5/5 6/6/6 4/4/4
f 5/5/5 7/7/7 6/6/6
f 7/7/7 8/8/8 6/6/6
f 7/7/7 9/9/9 8/8/8
f 9/9/9 10/10/10 8/8/8
f 9/9/9 11/11/11 10/10/10
f 11/11/11 12/12/12 10/10/10
f 11/11/11 13/13/13 12/12/12
f 13/13/13 14/14/14 12/12/12
f 13/13/13 15/15/15 14/14/14
f 15/15/15 16/16/16 14/14/14
f 15/15/15 17/17/17 16/16/16
f 17/17/17 18/18/18 16/16/16
f 17/17/17 19/19/19 18/18/18
f 19/19/19 20/20/20 18/18/18
f 19/19/19 21/21/21 20/20/20
f 21/21/21 22/22/22 20/20/20
f 21/21/21 23/23/23 22/22/22
f 23/23/23 24/24/24 22/22/22
f 23/23/23 25/25/25 24/24/24
f 25/25/25 26/26/26 24/24/24
f 25/25/25 27/27/27 26/26/26
f 27/27/27 28/28/28 26/26/26
f 27/27/27 29/29/29 28/28/28
f 29/29/29 30/30/30 28/28/28
f 29/29/29 31/31/31 30/30/30
f 31/31/31 32/32/32 30/30/30
f 31/31/31 33/33/33 32/32/32
f 33/33/33 34/34/34 32/32/32
f 33/33/33 35/35/35 34/34/34
f 35/35/35 36/36/36 34/34/34
f 35/35/35 37/37/37 36/36/36
f 37/37/37 38/38/38 36/36/36
f 37/37/37 39/39/39 38/38/38
f 39/39/39 40/40/40 38/38/38
f 39/39/39 41/41/41 40/40/40
f 41/41/41 42/42/42 40/40/40
f 45/45/45 44/44/44 43/43/43
f 44/44/44 46/46/46 43/43/43
f 44/44/44 47/47/47 46/46/46
f 47/47/47 48/48/48 46/46/46
f 47/47/47 49/49/49 48/48/48
f 49/49/49 50/50/50 48/48/48
f 49/49/49 51/51/51 50/50/50
f 51/51/51 52/52/52 50/50/50
f 51/51/51 53/53/53 52/52/52
f 53/53/53 54/54/54 52/52/52
f 53/53/53 55/55/55 54/54/54
f 55/55/55 56/56/56 54/54/54
f 55/55/55 57/57/57 56/56/56
f 57/57/57 58/58/58 56/56/56
f 57/57/57 59/59/59 58/58/58
f 59/59/59 60/60/60 58/58/58
f 59/59/59 61/61/61 60/60/60
f 61/61/61 62/62/62 60/60/60
f 61/61/61 63/63/63 62/62/62
f 63/63/63 64/64/64 62/62/62
f 63/63/63 65/65/65 64/64/64
f 65/65/65 66/66/66 64/64/64
f 65/65/65 67/67/67 66/66/66
f 67/67/67 68/68/68 66/66/66
f 67/67/67 69/69/69 68/68/68
f 69/69/69 70/70/70 68/68/68
f 69/69/69 71/71/71 70/70/70
f 71/71/71 72/72/72 70/70/70
f 71/71/71 73/73/73 72/72/72
f 73/73/73 74/74/74 72/72/72
f 73/73/73 75/75/75 74/74/74
f 75/75/75 76/76/76 74/74/74
f 75/75/75 77/77/77 76/76/76
f 77/77/77 78/78/78 76/76/76
f 77/77/77 79/79/79 78/78/78
f 79/79/79 80/80/80 78/78/78
f 79/79/79 81/81/81 80/80/80
f 81/81/81 82/82/82 80/80/80
f 81/81/81 83/83/83 82/82/82
f 83/83/83 84/84/84 82/82/82
f 87/87/87 86/86/86 85/85/85
f 86/86/86 88/88/88 85/85/85
f 86/86/86 89/89/89 88/88/88
f 89/89/89 90/90/90 88/88/88
f 89/89/89 91/91/91 90/90/90
f 91/91/91 92/92/92 90/90/90
f 91/91/91 93/93/93 92/92/92
f 93/93/93 94/94/94 92/92/92
f 93/93/93 95/95/95 94/94/94
f 95/95/95 96/96/96 94/94/94
f 95/95/95 97/97/97 96/96/96
f 97/97/97 98/98/98 96/96/96
f 97/97/97 99/99/99 98/98/98
f 99/99/99 100/100/100 98/98/98
f 99/99/99 101/101/101 100/100/100
f 101/101/101 102/102/102 100/100/100
f 101/101/101 103/103/103 102/102/102
f 103/103/103 104/104/104 102/102/102
f 103/103/103 105/105/105 104/104/104
f 105/105/105 106/106/106 104/104/104
f 105/105/105 107/107/107 106/106/106
f 107/107/107 108/108/108 106/106/106
f 107/107/107 109/109/109 108/108/108
f 109/109/109 110/110/110 108/108/108
f 109/109/109 111/111/111 110/110/110
f 111/111/111 112/112/112 110/110/110
f 111/111/111 113/113/113 112/112/112
f 113/113/113 114/114/114 112/112/112
f 113/113/113 115/115/115 114/114/114
f 115/115/115 116/116/116 114/114/114
f 115/115/115 117/117/117 116/116/116
f 117/117/117 118/118/118 116/116/116
f 117/117/117 119/119/119 118/118/118
f 119/119/119 120/120/120 118/118/118
f 119/119/119 121/121/121 120/120/120
f 121/121/121 122/122/122 120/120/120
f 121/121/121 123/123/123 122/122/122
f 123/123/123 124/124/124 122/122/122
f 123/123/123 125/125/125 124/124/124
f 125/125/125 126/126/126 124/124/124
