g fx_mesh_helix_08a
v -0.001155743 -0.002535262 3.784895E-09
v 0.07507526 -0.01169793 0.1316692
v 0.04523241 0.01937847 3.784895E-09
v 0.01638127 -0.0311979 0.1131243
v -0.04754409 -0.02444904 3.784895E-09
v 0.1035535 -0.05309385 0.3111496
v -0.04073434 -0.05011971 0.09457931
v 0.03156106 -0.07127806 0.2728122
v 0.1235485 -0.1049837 0.5143054
v -0.03708436 -0.08839426 0.2344747
v 0.03807316 -0.1213014 0.4565619
v 0.1292956 -0.1638381 0.7337517
v -0.04233744 -0.1361658 0.3988183
v 0.0308986 -0.178332 0.6579182
v 0.1166708 -0.2238871 0.9647594
v -0.0609083 -0.1910538 0.5820847
v 0.006055832 -0.2375512 0.8734691
v 0.08656041 -0.2775137 1.205891
v -0.09674739 -0.2491578 0.7821788
v -0.03874172 -0.2925164 1.101052
v 0.0378693 -0.3171705 1.452338
v -0.1550203 -0.3051198 0.9962122
v -0.1034704 -0.3357462 1.339153
v -0.02519226 -0.3356895 1.701609
v -0.2349702 -0.3516763 1.225967
v -0.1853946 -0.3595524 1.586646
v -0.0958831 -0.3277186 1.951809
v -0.335445 -0.3807382 1.471682
v -0.2789645 -0.3570181 1.842653
v -0.1657902 -0.2904671 2.201674
v -0.4522402 -0.3839261 1.733498
v -0.3760772 -0.3230104 2.106472
v -0.2234564 -0.223703 2.451296
v -0.5777182 -0.3537617 2.01127
v -0.4666894 -0.2550896 2.377521
v -0.2621113 -0.1307698 2.699381
v -0.7031916 -0.2854286 2.303746
v -0.5397491 -0.1541957 2.655314
v -0.2740413 -0.01710206 2.946498
v -0.8134548 -0.1772547 2.611247
v -0.5843589 -0.02500303 2.939434
v -0.2530892 0.1099483 3.193855
v -0.8940812 -0.03288854 2.93237
v -0.5910503 0.1241324 3.229522
v -0.1949184 0.2415516 3.443202
v -0.9317366 0.138425 3.265189
v -0.5530252 0.2816609 3.525264
v -0.1102908 0.3700565 3.701356
v -0.916568 0.3222901 3.607325
v -0.4672189 0.4337466 3.82638
v 0.01469251 0.4834826 3.968893
v -0.8307553 0.4982923 3.951403
v -0.3350413 0.5655246 4.132623
v 0.1774365 0.5694464 4.247632
v -0.6913787 0.6483865 4.296354
v -0.1626866 0.6625891 4.44377
v 0.3713556 0.615502 4.539128
v -0.5085697 0.7560577 4.63991
v 0.03906283 0.7125695 4.759624
v 0.5855464 0.6106195 4.844778
v -0.2976554 0.8091668 4.980121
v 0.2555551 0.706615 5.080001
v -0.07723714 0.8013309 5.315223
vt 0.9999999 0.5000001
vt 0.9768854 1
vt 0.9999999 1
vt 0.9768854 0.5000001
vt 0.9999999 5.960464E-08
vt 0.9462656 1
vt 0.9768854 5.859428E-08
vt 0.9462656 0.5000001
vt 0.9114141 1
vt 0.9462656 5.725584E-08
vt 0.9114142 0.5000001
vt 0.8733116 1
vt 0.9114142 5.573244E-08
vt 0.8733116 0.5000001
vt 0.8324795 1
vt 0.8733116 5.406692E-08
vt 0.8324795 0.5000001
vt 0.7892469 1
vt 0.8324795 5.228209E-08
vt 0.7892469 0.5000001
vt 0.7438415 1
vt 0.789247 5.039234E-08
vt 0.7438415 0.5000001
vt 0.6964298 1
vt 0.7438415 4.84076E-08
vt 0.6964298 0.5000001
vt 0.6471394 1
vt 0.6964298 4.633517E-08
vt 0.6471394 0.5
vt 0.5960701 1
vt 0.6471394 4.418062E-08
vt 0.5960701 0.5
vt 0.5433021 1
vt 0.5960701 4.194831E-08
vt 0.5433021 0.5
vt 0.4889015 1
vt 0.5433022 3.964175E-08
vt 0.4889016 0.5
vt 0.4329228 1
vt 0.4889016 3.726382E-08
vt 0.4329229 0.5
vt 0.3754119 1
vt 0.4329229 3.481692E-08
vt 0.3754119 0.5
vt 0.3164074 1
vt 0.3754119 3.230303E-08
vt 0.3164074 0.5
vt 0.2559428 1
vt 0.3164074 2.972387E-08
vt 0.2559428 0.5
vt 0.1940464 1
vt 0.2559428 2.708088E-08
vt 0.1940465 0.5
vt 0.1307436 1
vt 0.1940465 2.43753E-08
vt 0.1307436 0.5
vt 0.06605506 1
vt 0.1307436 2.160824E-08
vt 0.06605512 0.5
vt -5.960464E-08 1
vt 0.06605512 1.878062E-08
vt -5.960464E-08 0.5
vt -5.960464E-08 1.589326E-08
vn 0.0969778 -0.3582972 -0.9285572
vn 0.09335636 -0.4536428 -0.8862804
vn 0.05683046 -0.3642896 -0.9295501
vn 0.12844 -0.4383714 -0.8895693
vn 0.1380137 -0.3536601 -0.925136
vn 0.1639166 -0.605729 -0.7786038
vn 0.1682654 -0.4281184 -0.8879197
vn 0.1923809 -0.5832988 -0.7891464
vn 0.2187521 -0.7298226 -0.6476932
vn 0.2226629 -0.5624962 -0.7962533
vn 0.2424028 -0.7089885 -0.6622508
vn 0.257128 -0.843105 -0.4722914
vn 0.2646079 -0.6902465 -0.6734556
vn 0.2731148 -0.8291546 -0.4877611
vn 0.2644253 -0.9262072 -0.2687366
vn 0.2917535 -0.8148838 -0.5008436
vn 0.2748726 -0.9197805 -0.2800871
vn 0.2389292 -0.9686804 -0.06760906
vn 0.284032 -0.9142038 -0.2890626
vn 0.2419855 -0.9674309 -0.07429978
vn 0.1915213 -0.9759879 0.1037654
vn 0.2448917 -0.9667898 -0.07311258
vn 0.1878089 -0.9770974 0.100042
vn 0.1369329 -0.9609565 0.2404412
vn 0.1820872 -0.9773283 0.1080447
vn 0.1291698 -0.9610123 0.2444802
vn 0.08741742 -0.9320387 0.3516565
vn 0.1152237 -0.959771 0.2560527
vn 0.0714302 -0.9315056 0.3566444
vn 0.04439141 -0.9004446 0.4326994
vn 0.0529518 -0.9300144 0.3636884
vn 0.02457377 -0.8988329 0.4376022
vn 0.01693462 -0.8678991 0.4964517
vn 0.002865515 -0.8949959 0.4460652
vn -0.005597893 -0.8650983 0.5015712
vn 0.002375048 -0.8440057 0.536329
vn -0.03132368 -0.8632038 0.5038829
vn -0.02033413 -0.8425683 0.5382054
vn -0.0004225904 -0.8333482 0.5527482
vn -0.04687249 -0.8415348 0.5381656
vn -0.0236626 -0.8330504 0.5526909
vn 0.001872276 -0.8373235 0.5467046
vn -0.04681509 -0.8310732 0.5541894
vn -0.01870257 -0.8391221 0.5436214
vn 0.0004120221 -0.858654 0.5125555
vn -0.03896995 -0.8393048 0.5422627
vn -0.01641898 -0.8615858 0.5073463
vn -0.01221763 -0.8906651 0.4544958
vn -0.03142446 -0.8619279 0.5060561
vn -0.02463996 -0.8922898 0.4507901
vn -0.04254141 -0.9270815 0.372438
vn -0.03487962 -0.8928381 0.4490249
vn -0.05121241 -0.9269843 0.3715877
vn -0.09474193 -0.9572883 0.2731726
vn -0.05716932 -0.928903 0.3658837
vn -0.0987324 -0.9568848 0.2731726
vn -0.1623849 -0.9731441 0.1631619
vn -0.1017559 -0.957087 0.2713491
vn -0.1642914 -0.9730219 0.1619775
vn -0.1992927 -0.974192 0.1059823
vn -0.1665207 -0.9730636 0.1594307
vn -0.2007533 -0.9739403 0.1055389
vn -0.2010801 -0.9737313 0.1068357
g fx_mesh_helix_08a_0
f 3/3/3 2/2/2 1/1/1
f 2/2/2 4/4/4 1/1/1
f 1/1/1 4/4/4 5/5/5
f 2/2/2 6/6/6 4/4/4
f 4/4/4 7/7/7 5/5/5
f 6/6/6 8/8/8 4/4/4
f 4/4/4 8/8/8 7/7/7
f 6/6/6 9/9/9 8/8/8
f 8/8/8 10/10/10 7/7/7
f 9/9/9 11/11/11 8/8/8
f 8/8/8 11/11/11 10/10/10
f 9/9/9 12/12/12 11/11/11
f 11/11/11 13/13/13 10/10/10
f 12/12/12 14/14/14 11/11/11
f 11/11/11 14/14/14 13/13/13
f 12/12/12 15/15/15 14/14/14
f 14/14/14 16/16/16 13/13/13
f 15/15/15 17/17/17 14/14/14
f 14/14/14 17/17/17 16/16/16
f 15/15/15 18/18/18 17/17/17
f 17/17/17 19/19/19 16/16/16
f 18/18/18 20/20/20 17/17/17
f 17/17/17 20/20/20 19/19/19
f 18/18/18 21/21/21 20/20/20
f 20/20/20 22/22/22 19/19/19
f 21/21/21 23/23/23 20/20/20
f 20/20/20 23/23/23 22/22/22
f 21/21/21 24/24/24 23/23/23
f 23/23/23 25/25/25 22/22/22
f 24/24/24 26/26/26 23/23/23
f 23/23/23 26/26/26 25/25/25
f 24/24/24 27/27/27 26/26/26
f 26/26/26 28/28/28 25/25/25
f 27/27/27 29/29/29 26/26/26
f 26/26/26 29/29/29 28/28/28
f 27/27/27 30/30/30 29/29/29
f 29/29/29 31/31/31 28/28/28
f 30/30/30 32/32/32 29/29/29
f 29/29/29 32/32/32 31/31/31
f 30/30/30 33/33/33 32/32/32
f 32/32/32 34/34/34 31/31/31
f 33/33/33 35/35/35 32/32/32
f 32/32/32 35/35/35 34/34/34
f 33/33/33 36/36/36 35/35/35
f 35/35/35 37/37/37 34/34/34
f 36/36/36 38/38/38 35/35/35
f 35/35/35 38/38/38 37/37/37
f 36/36/36 39/39/39 38/38/38
f 38/38/38 40/40/40 37/37/37
f 39/39/39 41/41/41 38/38/38
f 38/38/38 41/41/41 40/40/40
f 39/39/39 42/42/42 41/41/41
f 41/41/41 43/43/43 40/40/40
f 42/42/42 44/44/44 41/41/41
f 41/41/41 44/44/44 43/43/43
f 42/42/42 45/45/45 44/44/44
f 44/44/44 46/46/46 43/43/43
f 45/45/45 47/47/47 44/44/44
f 44/44/44 47/47/47 46/46/46
f 45/45/45 48/48/48 47/47/47
f 47/47/47 49/49/49 46/46/46
f 48/48/48 50/50/50 47/47/47
f 47/47/47 50/50/50 49/49/49
f 48/48/48 51/51/51 50/50/50
f 50/50/50 52/52/52 49/49/49
f 51/51/51 53/53/53 50/50/50
f 50/50/50 53/53/53 52/52/52
f 51/51/51 54/54/54 53/53/53
f 53/53/53 55/55/55 52/52/52
f 54/54/54 56/56/56 53/53/53
f 53/53/53 56/56/56 55/55/55
f 54/54/54 57/57/57 56/56/56
f 56/56/56 58/58/58 55/55/55
f 57/57/57 59/59/59 56/56/56
f 56/56/56 59/59/59 58/58/58
f 57/57/57 60/60/60 59/59/59
f 59/59/59 61/61/61 58/58/58
f 60/60/60 62/62/62 59/59/59
f 59/59/59 62/62/62 61/61/61
f 62/62/62 63/63/63 61/61/61
