g fx_mesh_expandenergy_04
v -1.196844 -4.466686 -0.4104449
v 4.210922E-07 -3.166854 0.3279709
v 3.850036E-07 -4.624253 -0.4104449
v -0.8196418 -3.058947 0.3279709
v -2.312126 -4.004722 -0.4104449
v -1.583426 -2.742576 0.327971
v -3.269841 -3.269841 -0.4104449
v -2.239304 -2.239304 0.327971
v -4.004721 -2.312127 -0.4104446
v -2.742576 -1.583428 0.327971
v -4.466686 -1.196845 -0.4104444
v -3.058946 -0.8196429 0.3279712
v -4.624253 -5.775499E-07 -0.4104441
v -3.166854 -5.950355E-07 0.3279713
v -4.466685 1.196848 -0.4104438
v -3.058946 0.8196437 0.3279715
v -4.00472 2.312129 -0.4104435
v -2.742576 1.583428 0.3279717
v -3.269839 3.269843 -0.4104432
v -2.239303 2.239306 0.3279719
v -2.312125 4.004722 -0.410443
v -1.583426 2.742577 0.327972
v -1.196843 4.466686 -0.4104427
v -0.8196411 3.058946 0.3279721
v 1.487511E-06 4.624253 -0.4104426
v 1.176128E-06 3.166855 0.3279723
v 1.196846 4.466685 -0.4104425
v 0.819643 3.058947 0.3279723
v 2.312128 4.004721 -0.4104425
v 1.583428 2.742576 0.3279723
v 3.269842 3.26984 -0.4104426
v 2.239305 2.239303 0.3279723
v 4.004722 2.312125 -0.4104428
v 2.742577 1.583426 0.3279721
v 4.466686 1.196844 -0.4104431
v 3.058946 0.8196411 0.327972
v 4.624253 -9.818151E-07 -0.4104434
v 3.166854 -8.718907E-07 0.3279719
v 4.466685 -1.196846 -0.4104436
v 3.058946 -0.819643 0.3279717
v 4.004721 -2.312127 -0.410444
v 2.742576 -1.583427 0.3279715
v 3.269841 -3.269841 -0.4104443
v 2.239304 -2.239304 0.3279713
v 2.312127 -4.004721 -0.4104445
v 1.583427 -2.742576 0.3279712
v 1.196845 -4.466686 -0.4104448
v 0.8196424 -3.058946 0.327971
v 3.850036E-07 -4.624253 -0.4104449
v 4.210922E-07 -3.166854 0.3279709
vt 0.04166669 0.9999998
vt -1.192093E-07 -1.788139E-07
vt 0 0.9999998
vt 0.04166663 -1.788139E-07
vt 0.08333331 0.9999998
vt 0.08333325 -1.788139E-07
vt 0.125 0.9999998
vt 0.1249999 -1.788139E-07
vt 0.1666666 0.9999998
vt 0.1666666 -1.788139E-07
vt 0.2083334 0.9999998
vt 0.2083333 -1.788139E-07
vt 0.25 0.9999998
vt 0.2499999 -1.788139E-07
vt 0.2916668 0.9999998
vt 0.2916667 -1.788139E-07
vt 0.3333334 0.9999998
vt 0.3333334 -1.788139E-07
vt 0.3750001 0.9999998
vt 0.3750001 -1.788139E-07
vt 0.4166667 0.9999998
vt 0.4166667 -1.788139E-07
vt 0.4583334 0.9999998
vt 0.4583334 -1.788139E-07
vt 0.5000001 0.9999998
vt 0.5 -1.788139E-07
vt 0.5416667 0.9999998
vt 0.5416666 -1.788139E-07
vt 0.5833334 0.9999998
vt 0.5833333 -1.788139E-07
vt 0.6250001 0.9999998
vt 0.625 -1.788139E-07
vt 0.6666667 0.9999998
vt 0.6666666 -2.384186E-07
vt 0.7083334 0.9999998
vt 0.7083333 -2.384186E-07
vt 0.7500001 0.9999998
vt 0.75 -2.384186E-07
vt 0.7916667 0.9999998
vt 0.7916666 -2.384186E-07
vt 0.8333334 0.9999998
vt 0.8333333 -2.384186E-07
vt 0.875 0.9999998
vt 0.8749999 -2.384186E-07
vt 0.9166667 0.9999998
vt 0.9166666 -2.384186E-07
vt 0.9583334 0.9999998
vt 0.9583333 -2.384186E-07
vt 1 0.9999998
vt 0.9999999 -2.384186E-07
vn -0.09192736 -0.3430779 0.9347978
vn 0 -0.3551804 0.9347978
vn 0 -0.3551804 0.9347978
vn -0.09192735 -0.3430779 0.9347978
vn -0.17759 -0.3075953 0.9347978
vn -0.17759 -0.3075952 0.9347978
vn -0.2511503 -0.2511505 0.9347978
vn -0.2511503 -0.2511505 0.9347978
vn -0.3075951 -0.1775903 0.9347978
vn -0.3075952 -0.1775903 0.9347978
vn -0.3430777 -0.09192767 0.9347978
vn -0.3430777 -0.09192768 0.9347978
vn -0.3551803 0 0.9347979
vn -0.3551803 0 0.9347979
vn -0.3430778 0.09192728 0.9347979
vn -0.3430778 0.09192727 0.9347979
vn -0.3075951 0.17759 0.9347979
vn -0.3075951 0.1775899 0.9347979
vn -0.2511503 0.2511502 0.9347979
vn -0.2511503 0.2511503 0.9347979
vn -0.1775901 0.307595 0.9347979
vn -0.1775901 0.307595 0.9347979
vn -0.09192739 0.3430776 0.9347979
vn -0.0919274 0.3430776 0.9347979
vn 0 0.3551801 0.9347979
vn 0 0.3551801 0.9347979
vn 0.09192744 0.3430776 0.9347979
vn 0.09192742 0.3430777 0.9347979
vn 0.1775902 0.307595 0.9347979
vn 0.1775902 0.307595 0.9347979
vn 0.2511504 0.25115 0.9347979
vn 0.2511505 0.25115 0.9347979
vn 0.3075951 0.1775898 0.9347979
vn 0.3075951 0.1775898 0.9347979
vn 0.3430777 0.09192707 0.9347979
vn 0.3430777 0.09192706 0.9347979
vn 0.3551802 -2.935134E-07 0.9347979
vn 0.3551802 -2.907511E-07 0.9347979
vn 0.3430777 -0.09192768 0.9347979
vn 0.3430777 -0.09192768 0.9347979
vn 0.307595 -0.1775904 0.9347978
vn 0.307595 -0.1775904 0.9347979
vn 0.2511502 -0.2511505 0.9347979
vn 0.2511503 -0.2511505 0.9347979
vn 0.17759 -0.3075952 0.9347979
vn 0.17759 -0.3075953 0.9347979
vn 0.09192724 -0.3430779 0.9347978
vn 0.09192725 -0.3430779 0.9347978
vn 0 -0.3551804 0.9347978
vn 0 -0.3551804 0.9347978
g fx_mesh_expandenergy_04_0
f 3/3/3 2/2/2 1/1/1
f 2/2/2 4/4/4 1/1/1
f 1/1/1 4/4/4 5/5/5
f 4/4/4 6/6/6 5/5/5
f 5/5/5 6/6/6 7/7/7
f 6/6/6 8/8/8 7/7/7
f 7/7/7 8/8/8 9/9/9
f 8/8/8 10/10/10 9/9/9
f 9/9/9 10/10/10 11/11/11
f 10/10/10 12/12/12 11/11/11
f 11/11/11 12/12/12 13/13/13
f 12/12/12 14/14/14 13/13/13
f 13/13/13 14/14/14 15/15/15
f 14/14/14 16/16/16 15/15/15
f 15/15/15 16/16/16 17/17/17
f 16/16/16 18/18/18 17/17/17
f 17/17/17 18/18/18 19/19/19
f 18/18/18 20/20/20 19/19/19
f 19/19/19 20/20/20 21/21/21
f 20/20/20 22/22/22 21/21/21
f 21/21/21 22/22/22 23/23/23
f 22/22/22 24/24/24 23/23/23
f 23/23/23 24/24/24 25/25/25
f 24/24/24 26/26/26 25/25/25
f 25/25/25 26/26/26 27/27/27
f 26/26/26 28/28/28 27/27/27
f 27/27/27 28/28/28 29/29/29
f 28/28/28 30/30/30 29/29/29
f 29/29/29 30/30/30 31/31/31
f 30/30/30 32/32/32 31/31/31
f 31/31/31 32/32/32 33/33/33
f 32/32/32 34/34/34 33/33/33
f 33/33/33 34/34/34 35/35/35
f 34/34/34 36/36/36 35/35/35
f 35/35/35 36/36/36 37/37/37
f 36/36/36 38/38/38 37/37/37
f 37/37/37 38/38/38 39/39/39
f 38/38/38 40/40/40 39/39/39
f 39/39/39 40/40/40 41/41/41
f 40/40/40 42/42/42 41/41/41
f 41/41/41 42/42/42 43/43/43
f 42/42/42 44/44/44 43/43/43
f 43/43/43 44/44/44 45/45/45
f 44/44/44 46/46/46 45/45/45
f 45/45/45 46/46/46 47/47/47
f 46/46/46 48/48/48 47/47/47
f 47/47/47 48/48/48 49/49/49
f 48/48/48 50/50/50 49/49/49
