g fx_mesh_ray_04
v 8.624903 2.303465E-06 3.397766
v 10.97385 3.29035E-06 5.405413
v 11.49987 3.162872E-06 4.530354
v 8.230388 2.405053E-06 4.05406
v 5.749936 1.444057E-06 2.265178
v 10.44783 3.417828E-06 6.280471
v 5.486925 1.519755E-06 2.702707
v 2.874969 5.8465E-07 1.13259
v 7.835871 2.506641E-06 4.710354
v 2.743464 6.344578E-07 1.351354
v 2.544787E-06 -2.269222E-07 1.52974E-06
v 5.223915 1.595453E-06 3.140236
v 7.441355 2.608229E-06 5.366648
v 9.921806 3.545307E-06 7.15553
v 2.611959 6.842654E-07 1.570119
v 2.480453 7.340731E-07 1.788883
v 2.348948 7.838809E-07 2.007648
v 4.960904 1.671151E-06 3.577765
v 4.697894 1.746849E-06 4.015295
v 7.04684 2.709817E-06 6.022941
v 9.395785 3.672785E-06 8.030589
v -7.468141 -9.193855E-07 -0.4690099
v -9.793602 -1.036461E-06 -1.371053
v -9.95752 -1.134261E-06 -0.6253455
v -7.345203 -8.400557E-07 -1.02829
v -4.97876 -7.045094E-07 -0.3126732
v -9.629683 -9.386596E-07 -2.116759
v -4.896801 -6.436504E-07 -0.6855268
v -2.48938 -4.896336E-07 -0.1563371
v -7.222264 -7.607256E-07 -1.58757
v -2.4484 -4.472453E-07 -0.3427639
v 7.553566E-07 -2.269227E-07 -9.849862E-07
v -4.814841 -5.827911E-07 -1.05838
v -7.099325 -6.813958E-07 -2.14685
v -9.465766 -8.408591E-07 -2.862466
v -2.40742 -4.04857E-07 -0.5291906
v -2.366441 -3.624687E-07 -0.7156172
v -2.325462 -3.200804E-07 -0.9020439
v -4.732882 -5.21932E-07 -1.431233
v -4.650923 -4.61073E-07 -1.804087
v -6.976387 -6.020658E-07 -2.70613
v -9.301848 -7.430582E-07 -3.608173
v -3.506276 -5.83888E-07 -3.939708
v -4.191444 -4.975079E-07 -5.558697
v -4.675034 -6.869312E-07 -5.252943
v -3.143584 -4.358413E-07 -4.169024
v -2.337518 -4.808448E-07 -2.626473
v -3.707854 -3.080847E-07 -5.86445
v -2.095724 -3.741745E-07 -2.77935
v -1.168761 -3.778018E-07 -1.313238
v -2.780891 -2.877945E-07 -4.398339
v -1.047864 -3.125079E-07 -1.389677
v -4.003941E-06 -2.269237E-07 -3.219585E-06
v -1.853929 -2.675041E-07 -2.932227
v -2.418199 -1.397477E-07 -4.627655
v -3.224264 -1.186616E-07 -6.170206
v -0.9269665 -2.47214E-07 -1.466115
v -0.806069 -1.819201E-07 -1.542554
v -0.6851715 -1.166262E-07 -1.618992
v -1.612134 -1.608338E-07 -3.085104
v -1.370339 -5.416345E-08 -3.237981
v -2.055506 8.29914E-09 -4.85697
v -2.740674 7.076164E-08 -6.47596
v -5.960481 -4.018965E-07 3.076404
v -8.065784 -3.59403E-07 3.829238
v -7.947306 -4.44276E-07 4.101871
v -6.049338 -3.322625E-07 2.871929
v -3.973654 -3.59517E-07 2.050936
v -8.18426 -2.745303E-07 3.556605
v -4.032893 -3.051219E-07 1.914619
v -1.986828 -3.171376E-07 1.025468
v -6.138196 -2.626286E-07 2.667454
v -2.016448 -2.779812E-07 0.9573104
v -1.993448E-06 -2.269231E-07 8.662856E-07
v -4.092131 -2.507267E-07 1.778303
v -6.227054 -1.929945E-07 2.46298
v -8.302738 -1.896576E-07 3.283972
v -2.046067 -2.388249E-07 0.889152
v -2.075686 -1.996686E-07 0.8209937
v -2.105305 -1.605123E-07 0.7528355
v -4.15137 -1.963316E-07 1.641987
v -4.210608 -1.419364E-07 1.50567
v -6.315912 -1.233606E-07 2.258505
v -8.421216 -1.047848E-07 3.011339
v -4.486485 1.895833E-06 6.062103
v -6.570419 2.746841E-06 7.468144
v -5.981979 2.619363E-06 8.082803
v -4.927815 1.997421E-06 5.601109
v -2.990991 1.172303E-06 4.041402
v -7.158858 2.874319E-06 6.853485
v -3.28521 1.248001E-06 3.734073
v -1.495496 4.487727E-07 2.020702
v -5.369145 2.099009E-06 5.140114
v -1.642606 4.985804E-07 1.867037
v -1.74369E-06 -2.269224E-07 1.669309E-06
v -3.57943 1.323698E-06 3.426743
v -5.810474 2.200597E-06 4.67912
v -7.747299 3.001798E-06 6.238826
v -1.789716 5.483881E-07 1.713373
v -1.936826 5.981958E-07 1.559708
v -2.083936 6.480035E-07 1.406043
v -3.87365 1.399396E-06 3.119414
v -4.16787 1.475094E-06 2.812084
v -6.251804 2.302185E-06 4.218125
v -8.335738 3.129276E-06 5.624166
v 5.203337 -1.017034E-06 -5.444129
v 7.455382 -1.114751E-06 -6.553074
v 6.937782 -1.264459E-06 -7.258837
v 5.591537 -8.987735E-07 -4.914806
v 3.468893 -7.69609E-07 -3.62942
v 7.972982 -9.650424E-07 -5.847311
v 3.727693 -6.827962E-07 -3.276538
v 1.734448 -5.221838E-07 -1.81471
v 5.979738 -7.805128E-07 -4.385483
v 1.863848 -4.668186E-07 -1.63827
v 3.491604E-06 -2.269236E-07 -1.296387E-06
v 3.986493 -5.959831E-07 -2.923656
v 6.367938 -6.622519E-07 -3.856161
v 8.490583 -8.153342E-07 -5.141549
v 1.993248 -4.114534E-07 -1.461829
v 2.122648 -3.560881E-07 -1.285388
v 2.252048 -3.007229E-07 -1.108947
v 4.245293 -5.091701E-07 -2.570775
v 4.504093 -4.223572E-07 -2.217893
v 6.756138 -5.439915E-07 -3.326839
v 9.008183 -6.656257E-07 -4.435785
v 6.652792 -5.648228E-07 0.06814031
v 8.966634 -4.930855E-07 0.443265
v 8.996582 -6.619971E-07 0.10328
v 6.630331 -4.321598E-07 0.3231286
v 4.309002 -4.676482E-07 0.03300038
v 8.936687 -3.241741E-07 0.7832496
v 4.294029 -3.712339E-07 0.2029927
v 1.965214 -3.70474E-07 -0.002139283
v 6.607871 -2.994967E-07 0.5781173
v 1.957727 -3.10308E-07 0.08285689
v 0 -2.254647E-07 -4.079738E-10
v 4.279056 -2.748193E-07 0.3729854
v 6.585411 -1.668337E-07 0.8331065
v 8.90674 -1.552627E-07 1.123235
v 1.95024 -2.50142E-07 0.1678532
v 1.942753 -1.89976E-07 0.2528495
v 1.935266 -1.2981E-07 0.3378456
v 4.264081 -1.784048E-07 0.5429779
v 4.249108 -8.199038E-08 0.7129701
v 6.56295 -3.417078E-08 1.088095
v 8.876792 1.364875E-08 1.46322
v -6.401268 8.473694E-07 -3.712379
v -8.436604 1.314048E-06 -5.105802
v -8.535023 1.221412E-06 -4.949839
v -6.327453 9.22826E-07 -3.829352
v -4.267511 4.733268E-07 -2.47492
v -8.338184 1.406684E-06 -5.261765
v -4.218301 5.316037E-07 -2.552902
v -2.133755 9.928436E-08 -1.237461
v -6.253638 9.982825E-07 -3.946324
v -2.10915 1.403815E-07 -1.276452
v 1.067664E-06 -2.269232E-07 -1.749259E-06
v -4.169092 5.898805E-07 -2.630883
v -6.179824 1.073739E-06 -4.063296
v -8.239765 1.499321E-06 -5.417727
v -2.084546 1.814787E-07 -1.315443
v -2.059941 2.225758E-07 -1.354433
v -2.035336 2.63673E-07 -1.393424
v -4.119882 6.481574E-07 -2.708864
v -4.070673 7.064342E-07 -2.786846
v -6.106009 1.149195E-06 -4.180268
v -8.141346 1.591957E-06 -5.573691
vt -0.0005232319 0.2472474
vt 0.2499999 0.005364408
vt -2.8213E-07 0.005364408
vt 0.3125 0.2472474
vt 0.003138021 0.4891307
vt 0.5000001 0.005364408
vt 0.375 0.4891307
vt 0.004009783 1.001585
vt 0.5000001 0.2472474
vt 0.4375001 1.001585
vt 0.5000001 1.243469
vt 0.5000002 0.4891306
vt 0.6875003 0.2472474
vt 0.7500004 0.00536435
vt 0.5000001 1.001585
vt 0.5625002 1.001585
vt 0.9959905 1.001585
vt 0.6250003 0.4891306
vt 0.9968624 0.4891306
vt 0.9963394 0.2472474
vt 1.000001 0.005364292
vt -0.0005232319 0.2472474
vt 0.2499999 0.005364408
vt -2.8213E-07 0.005364408
vt 0.3125 0.2472474
vt 0.00453271 0.4891307
vt 0.5000001 0.005364408
vt 0.375 0.4891307
vt 0.004009783 1.001585
vt 0.5000001 0.2472474
vt 0.4375001 1.001585
vt 0.5000001 1.243469
vt 0.5000002 0.4891306
vt 0.6875003 0.2472474
vt 0.7500004 0.00536435
vt 0.5000001 1.001585
vt 0.5625002 1.001585
vt 0.9959905 1.001585
vt 0.6250003 0.4891306
vt 0.9968624 0.4891306
vt 0.9963394 0.2472474
vt 1.000001 0.005364292
vt -0.0005232319 0.2472474
vt 0.2499999 0.005364408
vt -2.8213E-07 0.005364408
vt 0.3125 0.2472474
vt 0.00453271 0.4891307
vt 0.5000001 0.005364408
vt 0.375 0.4891307
vt 0.004009783 1.001585
vt 0.5000001 0.2472474
vt 0.4375001 1.001585
vt 0.5000001 1.243469
vt 0.5000002 0.4891306
vt 0.6875003 0.2472474
vt 0.7500004 0.00536435
vt 0.5000001 1.001585
vt 0.5625002 1.001585
vt 0.9959905 1.001585
vt 0.6250003 0.4891306
vt 0.9968624 0.4891306
vt 0.9963394 0.2472474
vt 1.000001 0.005364292
vt -0.0005232319 0.2472474
vt 0.2499999 0.005364408
vt -2.8213E-07 0.005364408
vt 0.3125 0.2472474
vt 0.00453271 0.4891307
vt 0.5000001 0.005364408
vt 0.375 0.4891307
vt 0.004009783 1.001585
vt 0.5000001 0.2472474
vt 0.4375001 1.001585
vt 0.5000001 1.243469
vt 0.5000002 0.4891306
vt 0.6875003 0.2472474
vt 0.7500004 0.00536435
vt 0.5000001 1.001585
vt 0.5625002 1.001585
vt 0.9959905 1.001585
vt 0.6250003 0.4891306
vt 0.9968624 0.4891306
vt 0.9963394 0.2472474
vt 1.000001 0.005364292
vt -0.0005232319 0.2472474
vt 0.2499999 0.005364408
vt -2.8213E-07 0.005364408
vt 0.3125 0.2472474
vt 0.00453271 0.4891307
vt 0.5000001 0.005364408
vt 0.375 0.4891307
vt 0.004009783 1.001585
vt 0.5000001 0.2472474
vt 0.4375001 1.001585
vt 0.5000001 1.243469
vt 0.5000002 0.4891306
vt 0.6875003 0.2472474
vt 0.7500004 0.00536435
vt 0.5000001 1.001585
vt 0.5625002 1.001585
vt 0.9959905 1.001585
vt 0.6250003 0.4891306
vt 0.9968624 0.4891306
vt 0.9963394 0.2472474
vt 1.000001 0.005364292
vt -0.0005232319 0.2472474
vt 0.2499999 0.005364408
vt -2.8213E-07 0.005364408
vt 0.3125 0.2472474
vt 0.00453271 0.4891307
vt 0.5000001 0.005364408
vt 0.375 0.4891307
vt 0.004009783 1.001585
vt 0.5000001 0.2472474
vt 0.4375001 1.001585
vt 0.5000001 1.243469
vt 0.5000002 0.4891306
vt 0.6875003 0.2472474
vt 0.7500004 0.00536435
vt 0.5000001 1.001585
vt 0.5625002 1.001585
vt 0.9959905 1.001585
vt 0.6250003 0.4891306
vt 0.9968624 0.4891306
vt 0.9963394 0.2472474
vt 1.000001 0.005364292
vt -0.0005232319 0.2472474
vt 0.2499999 0.005364408
vt -2.8213E-07 0.005364408
vt 0.3125 0.2472474
vt 0.00453271 0.4891307
vt 0.5000001 0.005364408
vt 0.375 0.4891307
vt 0.004009783 1.001585
vt 0.5000001 0.2472474
vt 0.4375001 1.001585
vt 0.5000001 1.243469
vt 0.5000002 0.4891306
vt 0.6875003 0.2472474
vt 0.7500004 0.00536435
vt 0.5000001 1.001585
vt 0.5625002 1.001585
vt 0.9959905 1.001585
vt 0.6250003 0.4891306
vt 0.9968624 0.4891306
vt 0.9963394 0.2472474
vt 1.000001 0.005364292
vt -0.0005232319 0.2472474
vt 0.2499999 0.005364408
vt -2.8213E-07 0.005364408
vt 0.3125 0.2472474
vt 0.00453271 0.4891307
vt 0.5000001 0.005364408
vt 0.375 0.4891307
vt 0.004009783 1.001585
vt 0.5000001 0.2472474
vt 0.4375001 1.001585
vt 0.5000001 1.243469
vt 0.5000002 0.4891306
vt 0.6875003 0.2472474
vt 0.7500004 0.00536435
vt 0.5000001 1.001585
vt 0.5625002 1.001585
vt 0.9959905 1.001585
vt 0.6250003 0.4891306
vt 0.9968624 0.4891306
vt 0.9963394 0.2472474
vt 1.000001 0.005364292
vn 0 -1 0
vn 0 -1 0
vn 0 -1 0
vn 0 -1 0
vn 0 -1 0
vn 0 -1 0
vn 0 -1 0
vn 0 -1 0
vn 0 -1 0
vn 0 -1 0
vn 0 -1 1.532317E-06
vn 0 -1 0
vn 0 -1 0
vn 0 -1 0
vn 0 -1 0
vn 0 -1 0
vn 0 -1 0
vn 0 -1 0
vn 0 -1 0
vn 0 -1 0
vn 0 -1 0
vn 0 -1 0
vn 0 -1 0
vn 0 -1 0
vn 0 -1 0
vn 0 -1 0
vn 0 -1 0
vn 0 -1 0
vn 0 -1 0
vn 0 -1 0
vn 0 -1 0
vn 0 -1 1.531953E-06
vn 0 -1 0
vn 0 -1 0
vn 0 -1 0
vn 0 -1 0
vn 0 -1 0
vn 0 -1 0
vn 0 -1 0
vn 0 -1 0
vn 0 -1 0
vn 0 -1 0
vn 0 -1 0
vn 0 -1 0
vn 0 -1 0
vn 0 -1 0
vn 0 -1 0
vn 0 -1 0
vn 0 -1 0
vn 0 -1 0
vn 0 -1 0
vn 0 -1 0
vn 0 -1 1.530861E-06
vn 0 -1 0
vn 0 -1 0
vn 0 -1 0
vn 0 -1 0
vn 0 -1 0
vn 0 -1 0
vn 0 -1 0
vn 0 -1 0
vn 0 -1 0
vn 0 -1 0
vn 0 -1 0
vn 0 -1 0
vn 0 -1 0
vn 0 -1 0
vn 0 -1 0
vn 0 -1 0
vn 0 -1 0
vn 0 -1 0
vn 0 -1 0
vn 0 -1 0
vn 0 -1 1.532317E-06
vn 0 -1 0
vn 0 -1 0
vn 0 -1 0
vn 0 -1 0
vn 0 -1 0
vn 0 -1 0
vn 0 -1 0
vn 0 -1 0
vn 0 -1 0
vn 0 -1 0
vn 0 -1 0
vn 0 -1 0
vn 0 -1 0
vn 0 -1 0
vn 0 -1 0
vn 0 -1 0
vn 0 -1 0
vn 0 -1 0
vn 0 -1 0
vn 0 -1 0
vn -1.208537E-06 -1 -4.532922E-07
vn 0 -1 0
vn 0 -1 0
vn 0 -1 0
vn 0 -1 0
vn 0 -1 0
vn 0 -1 0
vn 0 -1 0
vn 0 -1 0
vn 0 -1 0
vn 0 -1 0
vn 0 -1 0
vn 0 -1 0
vn 0 -1 0
vn 0 -1 0
vn 0 -1 0
vn 0 -1 0
vn 0 -1 0
vn 0 -1 0
vn 0 -1 0
vn 0 -1 0
vn -1.209264E-06 -1 -4.51837E-07
vn 0 -1 0
vn 0 -1 0
vn 0 -1 0
vn 0 -1 0
vn 0 -1 0
vn 0 -1 0
vn 0 -1 0
vn 0 -1 0
vn 0 -1 0
vn 0 -1 0
vn 0 -1 0
vn 0 -1 0
vn 0 -1 0
vn 0 -1 0
vn 0 -1 0
vn 0 -1 0
vn 0 -1 0
vn 0 -1 0
vn 0 -1 0
vn 0 -1 0
vn -1.208537E-06 -1 -4.525646E-07
vn 0 -1 0
vn 0 -1 0
vn 0 -1 0
vn 0 -1 0
vn 0 -1 0
vn 0 -1 0
vn 0 -1 0
vn 0 -1 0
vn 0 -1 0
vn 0 -1 0
vn 0 -1 0
vn 0 -1 0
vn 0 -1 0
vn 0 -1 0
vn 0 -1 0
vn 0 -1 0
vn 0 -1 0
vn 0 -1 0
vn 0 -1 0
vn 0 -1 0
vn -1.208173E-06 -1 -4.532922E-07
vn 0 -1 0
vn 0 -1 0
vn 0 -1 0
vn 0 -1 0
vn 0 -1 0
vn 0 -1 0
vn 0 -1 0
vn 0 -1 0
vn 0 -1 0
vn 0 -1 0
g fx_mesh_ray_04_0
f 3/3/3 2/2/2 1/1/1
f 2/2/2 4/4/4 1/1/1
f 1/1/1 4/4/4 5/5/5
f 4/4/4 2/2/2 6/6/6
f 4/4/4 7/7/7 5/5/5
f 5/5/5 7/7/7 8/8/8
f 9/9/9 4/4/4 6/6/6
f 7/7/7 4/4/4 9/9/9
f 7/7/7 10/10/10 8/8/8
f 8/8/8 10/10/10 11/11/11
f 10/10/10 7/7/7 12/12/12
f 12/12/12 7/7/7 9/9/9
f 13/13/13 9/9/9 6/6/6
f 14/14/14 13/13/13 6/6/6
f 10/10/10 15/15/15 11/11/11
f 15/15/15 10/10/10 12/12/12
f 15/15/15 16/16/16 11/11/11
f 16/16/16 15/15/15 12/12/12
f 17/17/17 11/11/11 16/16/16
f 18/18/18 12/12/12 9/9/9
f 18/18/18 16/16/16 12/12/12
f 17/17/17 16/16/16 18/18/18
f 13/13/13 18/18/18 9/9/9
f 19/19/19 17/17/17 18/18/18
f 19/19/19 18/18/18 13/13/13
f 20/20/20 19/19/19 13/13/13
f 20/20/20 13/13/13 14/14/14
f 21/21/21 20/20/20 14/14/14
f 24/24/24 23/23/23 22/22/22
f 23/23/23 25/25/25 22/22/22
f 22/22/22 25/25/25 26/26/26
f 25/25/25 23/23/23 27/27/27
f 25/25/25 28/28/28 26/26/26
f 26/26/26 28/28/28 29/29/29
f 30/30/30 25/25/25 27/27/27
f 28/28/28 25/25/25 30/30/30
f 28/28/28 31/31/31 29/29/29
f 29/29/29 31/31/31 32/32/32
f 31/31/31 28/28/28 33/33/33
f 33/33/33 28/28/28 30/30/30
f 34/34/34 30/30/30 27/27/27
f 35/35/35 34/34/34 27/27/27
f 31/31/31 36/36/36 32/32/32
f 36/36/36 31/31/31 33/33/33
f 36/36/36 37/37/37 32/32/32
f 37/37/37 36/36/36 33/33/33
f 38/38/38 32/32/32 37/37/37
f 39/39/39 33/33/33 30/30/30
f 39/39/39 37/37/37 33/33/33
f 38/38/38 37/37/37 39/39/39
f 34/34/34 39/39/39 30/30/30
f 40/40/40 38/38/38 39/39/39
f 40/40/40 39/39/39 34/34/34
f 41/41/41 40/40/40 34/34/34
f 41/41/41 34/34/34 35/35/35
f 42/42/42 41/41/41 35/35/35
f 45/45/45 44/44/44 43/43/43
f 44/44/44 46/46/46 43/43/43
f 43/43/43 46/46/46 47/47/47
f 46/46/46 44/44/44 48/48/48
f 46/46/46 49/49/49 47/47/47
f 47/47/47 49/49/49 50/50/50
f 51/51/51 46/46/46 48/48/48
f 49/49/49 46/46/46 51/51/51
f 49/49/49 52/52/52 50/50/50
f 50/50/50 52/52/52 53/53/53
f 52/52/52 49/49/49 54/54/54
f 54/54/54 49/49/49 51/51/51
f 55/55/55 51/51/51 48/48/48
f 56/56/56 55/55/55 48/48/48
f 52/52/52 57/57/57 53/53/53
f 57/57/57 52/52/52 54/54/54
f 57/57/57 58/58/58 53/53/53
f 58/58/58 57/57/57 54/54/54
f 59/59/59 53/53/53 58/58/58
f 60/60/60 54/54/54 51/51/51
f 60/60/60 58/58/58 54/54/54
f 59/59/59 58/58/58 60/60/60
f 55/55/55 60/60/60 51/51/51
f 61/61/61 59/59/59 60/60/60
f 61/61/61 60/60/60 55/55/55
f 62/62/62 61/61/61 55/55/55
f 62/62/62 55/55/55 56/56/56
f 63/63/63 62/62/62 56/56/56
f 66/66/66 65/65/65 64/64/64
f 65/65/65 67/67/67 64/64/64
f 64/64/64 67/67/67 68/68/68
f 67/67/67 65/65/65 69/69/69
f 67/67/67 70/70/70 68/68/68
f 68/68/68 70/70/70 71/71/71
f 72/72/72 67/67/67 69/69/69
f 70/70/70 67/67/67 72/72/72
f 70/70/70 73/73/73 71/71/71
f 71/71/71 73/73/73 74/74/74
f 73/73/73 70/70/70 75/75/75
f 75/75/75 70/70/70 72/72/72
f 76/76/76 72/72/72 69/69/69
f 77/77/77 76/76/76 69/69/69
f 73/73/73 78/78/78 74/74/74
f 78/78/78 73/73/73 75/75/75
f 78/78/78 79/79/79 74/74/74
f 79/79/79 78/78/78 75/75/75
f 80/80/80 74/74/74 79/79/79
f 81/81/81 75/75/75 72/72/72
f 81/81/81 79/79/79 75/75/75
f 80/80/80 79/79/79 81/81/81
f 76/76/76 81/81/81 72/72/72
f 82/82/82 80/80/80 81/81/81
f 82/82/82 81/81/81 76/76/76
f 83/83/83 82/82/82 76/76/76
f 83/83/83 76/76/76 77/77/77
f 84/84/84 83/83/83 77/77/77
f 87/87/87 86/86/86 85/85/85
f 86/86/86 88/88/88 85/85/85
f 85/85/85 88/88/88 89/89/89
f 88/88/88 86/86/86 90/90/90
f 88/88/88 91/91/91 89/89/89
f 89/89/89 91/91/91 92/92/92
f 93/93/93 88/88/88 90/90/90
f 91/91/91 88/88/88 93/93/93
f 91/91/91 94/94/94 92/92/92
f 92/92/92 94/94/94 95/95/95
f 94/94/94 91/91/91 96/96/96
f 96/96/96 91/91/91 93/93/93
f 97/97/97 93/93/93 90/90/90
f 98/98/98 97/97/97 90/90/90
f 94/94/94 99/99/99 95/95/95
f 99/99/99 94/94/94 96/96/96
f 99/99/99 100/100/100 95/95/95
f 100/100/100 99/99/99 96/96/96
f 101/101/101 95/95/95 100/100/100
f 102/102/102 96/96/96 93/93/93
f 102/102/102 100/100/100 96/96/96
f 101/101/101 100/100/100 102/102/102
f 97/97/97 102/102/102 93/93/93
f 103/103/103 101/101/101 102/102/102
f 103/103/103 102/102/102 97/97/97
f 104/104/104 103/103/103 97/97/97
f 104/104/104 97/97/97 98/98/98
f 105/105/105 104/104/104 98/98/98
f 108/108/108 107/107/107 106/106/106
f 107/107/107 109/109/109 106/106/106
f 106/106/106 109/109/109 110/110/110
f 109/109/109 107/107/107 111/111/111
f 109/109/109 112/112/112 110/110/110
f 110/110/110 112/112/112 113/113/113
f 114/114/114 109/109/109 111/111/111
f 112/112/112 109/109/109 114/114/114
f 112/112/112 115/115/115 113/113/113
f 113/113/113 115/115/115 116/116/116
f 115/115/115 112/112/112 117/117/117
f 117/117/117 112/112/112 114/114/114
f 118/118/118 114/114/114 111/111/111
f 119/119/119 118/118/118 111/111/111
f 115/115/115 120/120/120 116/116/116
f 120/120/120 115/115/115 117/117/117
f 120/120/120 121/121/121 116/116/116
f 121/121/121 120/120/120 117/117/117
f 122/122/122 116/116/116 121/121/121
f 123/123/123 117/117/117 114/114/114
f 123/123/123 121/121/121 117/117/117
f 122/122/122 121/121/121 123/123/123
f 118/118/118 123/123/123 114/114/114
f 124/124/124 122/122/122 123/123/123
f 124/124/124 123/123/123 118/118/118
f 125/125/125 124/124/124 118/118/118
f 125/125/125 118/118/118 119/119/119
f 126/126/126 125/125/125 119/119/119
f 129/129/129 128/128/128 127/127/127
f 128/128/128 130/130/130 127/127/127
f 127/127/127 130/130/130 131/131/131
f 130/130/130 128/128/128 132/132/132
f 130/130/130 133/133/133 131/131/131
f 131/131/131 133/133/133 134/134/134
f 135/135/135 130/130/130 132/132/132
f 133/133/133 130/130/130 135/135/135
f 133/133/133 136/136/136 134/134/134
f 134/134/134 136/136/136 137/137/137
f 136/136/136 133/133/133 138/138/138
f 138/138/138 133/133/133 135/135/135
f 139/139/139 135/135/135 132/132/132
f 140/140/140 139/139/139 132/132/132
f 136/136/136 141/141/141 137/137/137
f 141/141/141 136/136/136 138/138/138
f 141/141/141 142/142/142 137/137/137
f 142/142/142 141/141/141 138/138/138
f 143/143/143 137/137/137 142/142/142
f 144/144/144 138/138/138 135/135/135
f 144/144/144 142/142/142 138/138/138
f 143/143/143 142/142/142 144/144/144
f 139/139/139 144/144/144 135/135/135
f 145/145/145 143/143/143 144/144/144
f 145/145/145 144/144/144 139/139/139
f 146/146/146 145/145/145 139/139/139
f 146/146/146 139/139/139 140/140/140
f 147/147/147 146/146/146 140/140/140
f 150/150/150 149/149/149 148/148/148
f 149/149/149 151/151/151 148/148/148
f 148/148/148 151/151/151 152/152/152
f 151/151/151 149/149/149 153/153/153
f 151/151/151 154/154/154 152/152/152
f 152/152/152 154/154/154 155/155/155
f 156/156/156 151/151/151 153/153/153
f 154/154/154 151/151/151 156/156/156
f 154/154/154 157/157/157 155/155/155
f 155/155/155 157/157/157 158/158/158
f 157/157/157 154/154/154 159/159/159
f 159/159/159 154/154/154 156/156/156
f 160/160/160 156/156/156 153/153/153
f 161/161/161 160/160/160 153/153/153
f 157/157/157 162/162/162 158/158/158
f 162/162/162 157/157/157 159/159/159
f 162/162/162 163/163/163 158/158/158
f 163/163/163 162/162/162 159/159/159
f 164/164/164 158/158/158 163/163/163
f 165/165/165 159/159/159 156/156/156
f 165/165/165 163/163/163 159/159/159
f 164/164/164 163/163/163 165/165/165
f 160/160/160 165/165/165 156/156/156
f 166/166/166 164/164/164 165/165/165
f 166/166/166 165/165/165 160/160/160
f 167/167/167 166/166/166 160/160/160
f 167/167/167 160/160/160 161/161/161
f 168/168/168 167/167/167 161/161/161
