g fx_mesh_ui_cylinder_01
v 0.1935592 4.518125E-08 -0.7223728
v 4.480636E-08 4.406737E-08 -0.7478552
v 2.843119E-08 6.164558 -2.025135
v 0.5241435 6.164558 -1.95613
v 0.3739277 4.32161E-08 -0.6476617
v 1.012567 6.164558 -1.753818
v 0.5288135 3.830584E-08 -0.5288135
v 1.431987 6.164558 -1.431987
v 0.6476617 3.07851E-08 -0.3739277
v 1.753819 6.164558 -1.012567
v 0.7223727 2.116642E-08 -0.1935592
v 1.956131 6.164558 -0.5241434
v 0.7478553 1.010527E-08 -2.323682E-08
v 2.025136 6.164558 1.305062E-07
v 0.7223728 -1.64453E-09 0.1935592
v 1.956131 6.164558 0.5241437
v 0.6476614 -1.328229E-08 0.3739281
v 1.753818 6.164558 1.012569
v 0.5288132 -2.401486E-08 0.5288138
v 1.431986 6.164558 1.431988
v 0.3739272 -3.311084E-08 0.6476619
v 1.012567 6.164558 1.75382
v 0.1935588 -3.995038E-08 0.7223728
v 0.5241424 6.164558 1.956132
v -3.608181E-07 -4.406737E-08 0.7478552
v -1.088666E-06 6.164558 2.025136
v -0.1935595 -4.518124E-08 0.7223727
v -0.5241445 6.164558 1.956131
v -0.3739279 -4.321609E-08 0.6476616
v -1.012568 6.164558 1.753819
v -0.5288137 -3.830583E-08 0.5288134
v -1.431987 6.164558 1.431987
v -0.6476619 -3.078508E-08 0.3739274
v -1.753819 6.164558 1.012568
v -0.7223728 -2.11664E-08 0.1935589
v -1.956131 6.164558 0.5241429
v -0.7478553 -1.010525E-08 -2.868928E-07
v -2.025135 6.164558 -5.025155E-07
v -0.7223727 1.644547E-09 -0.1935595
v -1.95613 6.164558 -0.524144
v -0.6476616 1.328228E-08 -0.3739278
v -1.753818 6.164558 -1.012568
v -0.5288135 2.401483E-08 -0.5288137
v -1.431986 6.164558 -1.431987
v -0.3739275 3.311083E-08 -0.6476617
v -1.012567 6.164558 -1.753818
v -0.1935591 3.995038E-08 -0.7223728
v -0.5241433 6.164558 -1.95613
v 4.480636E-08 4.406737E-08 -0.7478552
v 2.843119E-08 6.164558 -2.025135
v 0.1935592 4.518125E-08 -0.7223728
v 2.843119E-08 6.164558 -2.025135
v 4.480636E-08 4.406737E-08 -0.7478552
v 0.5241435 6.164558 -1.95613
v 0.3739277 4.32161E-08 -0.6476617
v 1.012567 6.164558 -1.753818
v 0.5288135 3.830584E-08 -0.5288135
v 1.431987 6.164558 -1.431987
v 0.6476617 3.07851E-08 -0.3739277
v 1.753819 6.164558 -1.012567
v 0.7223727 2.116642E-08 -0.1935592
v 1.956131 6.164558 -0.5241434
v 0.7478553 1.010527E-08 -2.323682E-08
v 2.025136 6.164558 1.305062E-07
v 0.7223728 -1.64453E-09 0.1935592
v 1.956131 6.164558 0.5241437
v 0.6476614 -1.328229E-08 0.3739281
v 1.753818 6.164558 1.012569
v 0.5288132 -2.401486E-08 0.5288138
v 1.431986 6.164558 1.431988
v 0.3739272 -3.311084E-08 0.6476619
v 1.012567 6.164558 1.75382
v 0.1935588 -3.995038E-08 0.7223728
v 0.5241424 6.164558 1.956132
v -3.608181E-07 -4.406737E-08 0.7478552
v -1.088666E-06 6.164558 2.025136
v -0.1935595 -4.518124E-08 0.7223727
v -0.5241445 6.164558 1.956131
v -0.3739279 -4.321609E-08 0.6476616
v -1.012568 6.164558 1.753819
v -0.5288137 -3.830583E-08 0.5288134
v -1.431987 6.164558 1.431987
v -0.6476619 -3.078508E-08 0.3739274
v -1.753819 6.164558 1.012568
v -0.7223728 -2.11664E-08 0.1935589
v -1.956131 6.164558 0.5241429
v -0.7478553 -1.010525E-08 -2.868928E-07
v -2.025135 6.164558 -5.025155E-07
v -0.7223727 1.644547E-09 -0.1935595
v -1.95613 6.164558 -0.524144
v -0.6476616 1.328228E-08 -0.3739278
v -1.753818 6.164558 -1.012568
v -0.5288135 2.401483E-08 -0.5288137
v -1.431986 6.164558 -1.431987
v -0.3739275 3.311083E-08 -0.6476617
v -1.012567 6.164558 -1.753818
v -0.1935591 3.995038E-08 -0.7223728
v -0.5241433 6.164558 -1.95613
v 4.480636E-08 4.406737E-08 -0.7478552
v 2.843119E-08 6.164558 -2.025135
vt 0.9565841 0.001798719
vt 0.9980465 0.001798719
vt 0.9980465 0.997599
vt 0.9565841 0.997599
vt 0.9151218 0.001798719
vt 0.9151218 0.997599
vt 0.8736595 0.001798719
vt 0.8736595 0.997599
vt 0.8321972 0.001798719
vt 0.8321972 0.997599
vt 0.7907348 0.001798719
vt 0.7907348 0.997599
vt 0.7492726 0.001798719
vt 0.7492726 0.997599
vt 0.7078102 0.001798719
vt 0.7078102 0.997599
vt 0.6663477 0.001798719
vt 0.6663477 0.997599
vt 0.6248854 0.001798719
vt 0.6248854 0.997599
vt 0.5834231 0.001798719
vt 0.5834231 0.997599
vt 0.5419608 0.001798719
vt 0.5419608 0.997599
vt 0.5004985 0.001798719
vt 0.5004985 0.997599
vt 0.4590362 0.001798719
vt 0.4590362 0.997599
vt 0.4175739 0.001798719
vt 0.4175739 0.997599
vt 0.3761115 0.001798719
vt 0.3761115 0.997599
vt 0.3346492 0.001798719
vt 0.3346492 0.997599
vt 0.2931868 0.001798719
vt 0.2931868 0.997599
vt 0.2517245 0.001798719
vt 0.2517245 0.997599
vt 0.2102622 0.001798719
vt 0.2102622 0.997599
vt 0.1687999 0.001798719
vt 0.1687999 0.997599
vt 0.1273376 0.001798719
vt 0.1273376 0.997599
vt 0.08587525 0.001798719
vt 0.08587525 0.997599
vt 0.04441293 0.001798719
vt 0.04441293 0.997599
vt 0.00295061 0.001798719
vt 0.00295061 0.997599
vt 0.9565841 0.001798719
vt 0.9980465 0.997599
vt 0.9980465 0.001798719
vt 0.9565841 0.997599
vt 0.9151218 0.001798719
vt 0.9151218 0.997599
vt 0.8736595 0.001798719
vt 0.8736595 0.997599
vt 0.8321972 0.001798719
vt 0.8321972 0.997599
vt 0.7907348 0.001798719
vt 0.7907348 0.997599
vt 0.7492726 0.001798719
vt 0.7492726 0.997599
vt 0.7078102 0.001798719
vt 0.7078102 0.997599
vt 0.6663477 0.001798719
vt 0.6663477 0.997599
vt 0.6248854 0.001798719
vt 0.6248854 0.997599
vt 0.5834231 0.001798719
vt 0.5834231 0.997599
vt 0.5419608 0.001798719
vt 0.5419608 0.997599
vt 0.5004985 0.001798719
vt 0.5004985 0.997599
vt 0.4590362 0.001798719
vt 0.4590362 0.997599
vt 0.4175739 0.001798719
vt 0.4175739 0.997599
vt 0.3761115 0.001798719
vt 0.3761115 0.997599
vt 0.3346492 0.001798719
vt 0.3346492 0.997599
vt 0.2931868 0.001798719
vt 0.2931868 0.997599
vt 0.2517245 0.001798719
vt 0.2517245 0.997599
vt 0.2102622 0.001798719
vt 0.2102622 0.997599
vt 0.1687999 0.001798719
vt 0.1687999 0.997599
vt 0.1273376 0.001798719
vt 0.1273376 0.997599
vt 0.08587525 0.001798719
vt 0.08587525 0.997599
vt 0.04441293 0.001798719
vt 0.04441293 0.997599
vt 0.00295061 0.001798719
vt 0.00295061 0.997599
vn -0.06513292 0.9678409 0.2429849
vn -0.002288986 0.9911965 0.1323791
vn -0.004482081 0.9643127 0.2647282
vn -0.03412263 0.9912719 0.1273403
vn -0.0953709 0.9896531 0.1071969
vn -0.0976455 0.965775 0.2402995
vn -0.17204 0.9734092 0.1512503
vn -0.1892237 0.9583263 0.2140211
vn -0.2344084 0.9626869 0.1352283
vn -0.2800099 0.9582901 0.05722274
vn -0.216689 0.973489 0.07324699
vn -0.2640275 0.9630137 0.05379752
vn -0.1327538 0.9911464 -0.002288817
vn -0.265083 0.9642156 -0.004386225
vn -0.2429848 0.9678409 -0.06513291
vn -0.1273403 0.9912719 -0.03412263
vn -0.2344298 0.9674432 -0.0953742
vn -0.1037648 0.9903435 -0.09193867
vn -0.1686124 0.9793898 -0.1112003
vn -0.1102761 0.9890512 -0.09806564
vn -0.1352283 0.9626869 -0.2344084
vn -0.2014683 0.9630793 -0.1785741
vn -0.01201698 0.9794297 -0.2014275
vn 0.004193882 0.9684056 -0.2493454
vn 0.00429159 0.9659641 -0.2586405
vn 0.03359536 0.9696847 -0.2420394
vn 0.0651329 0.9678409 -0.2429848
vn 0.03205815 0.9922759 -0.1198364
vn 0.09536896 0.9896328 -0.1073854
vn 0.06217744 0.9917874 -0.1117668
vn 0.1722301 0.9734054 -0.1510589
vn 0.1507583 0.9846994 -0.08740161
vn 0.2916358 0.9493331 -0.1171121
vn 0.2887127 0.9427974 -0.1666677
vn 0.216686 0.9734753 -0.07343671
vn 0.160596 0.9826488 -0.09279089
vn 0.2589964 0.9658688 0.004291218
vn 0.1277895 0.9917991 0.002098078
vn 0.2429848 0.9678409 0.06513291
vn 0.2488139 0.9662527 0.06668746
vn 0.1073854 0.9896328 0.09536896
vn 0.1186896 0.9907339 0.06602348
vn 0.2271592 0.9656628 0.1260724
vn 0.1037648 0.9903435 0.09193867
vn 0.1354155 0.962662 0.2344024
vn 0.1764828 0.9356453 0.3056492
vn 0.01211141 0.9793532 0.2017933
vn -0.00448207 0.9643127 0.2647282
vn -0.002288986 0.9911965 0.1323791
vn -0.004482081 0.9643127 0.2647282
vn 0.03318878 -0.9917294 -0.123981
vn 0.002289704 -0.9906737 -0.1362367
vn 0.004291188 -0.9658688 -0.2589964
vn 0.06668746 -0.9662527 -0.2488139
vn 0.0953614 -0.9673133 -0.2349705
vn 0.0978767 -0.9890698 -0.1102782
vn 0.1112038 -0.9794213 -0.1684271
vn 0.09806564 -0.9890512 -0.1102761
vn 0.2342221 -0.962705 -0.1354216
vn 0.1895992 -0.9582962 -0.2138237
vn 0.2017935 -0.9793544 -0.01201606
vn 0.1602243 -0.9827091 -0.09279657
vn 0.2586405 -0.9659641 0.004291561
vn 0.1358621 -0.9907251 0.00228977
vn 0.123981 -0.9917294 0.03318878
vn 0.2488139 -0.9662527 0.06668746
vn 0.1077625 -0.9895922 0.09536503
vn 0.2402995 -0.965775 0.0976455
vn 0.1512453 -0.9733773 0.1722251
vn 0.2140057 -0.9582571 0.1895915
vn 0.1352283 -0.9626869 0.2344084
vn 0.05721662 -0.9581878 0.2803615
vn 0.07343063 -0.9733948 0.2170495
vn 0.09260745 -0.9827263 0.1602271
vn -0.002288732 -0.9910961 0.1331286
vn 0.02957217 -0.9890457 0.1446174
vn -0.03318878 -0.9917294 0.123981
vn -0.06668746 -0.9662527 0.2488139
vn -0.09536568 -0.9673566 0.2347903
vn -0.1285473 -0.9642955 0.2315377
vn -0.1112003 -0.9793898 0.1686124
vn -0.1285473 -0.9642955 0.2315377
vn -0.2342282 -0.9627299 0.1352343
vn -0.1602314 -0.9827524 0.09232378
vn -0.2017931 -0.9793521 0.01220676
vn -0.2800084 -0.9582849 0.05731779
vn -0.1327538 -0.9911464 -0.002288901
vn -0.2647282 -0.9643127 -0.004482111
vn -0.123981 -0.9917294 -0.03318878
vn -0.2488139 -0.9662527 -0.06668746
vn -0.2347903 -0.9673566 -0.09536568
vn -0.231893 -0.9641867 -0.1287235
vn -0.1512552 -0.9734412 -0.1718549
vn -0.2136416 -0.9583352 -0.1896069
vn -0.1173002 -0.9493119 -0.2916293
vn -0.09251291 -0.9827351 -0.1602286
vn -0.07333578 -0.9734017 -0.217051
vn -0.09270202 -0.9827177 -0.1602257
vn 0.004291188 -0.9658688 -0.2589964
vn 0.002289704 -0.9906737 -0.1362367
g fx_mesh_ui_cylinder_01_0
f 3/3/3 2/2/2 1/1/1
f 4/4/4 3/3/3 1/1/1
f 4/4/4 1/1/1 5/5/5
f 6/6/6 4/4/4 5/5/5
f 6/6/6 5/5/5 7/7/7
f 8/8/8 6/6/6 7/7/7
f 8/8/8 7/7/7 9/9/9
f 10/10/10 8/8/8 9/9/9
f 10/10/10 9/9/9 11/11/11
f 12/12/12 10/10/10 11/11/11
f 12/12/12 11/11/11 13/13/13
f 14/14/14 12/12/12 13/13/13
f 14/14/14 13/13/13 15/15/15
f 16/16/16 14/14/14 15/15/15
f 16/16/16 15/15/15 17/17/17
f 18/18/18 16/16/16 17/17/17
f 18/18/18 17/17/17 19/19/19
f 20/20/20 18/18/18 19/19/19
f 20/20/20 19/19/19 21/21/21
f 22/22/22 20/20/20 21/21/21
f 22/22/22 21/21/21 23/23/23
f 24/24/24 22/22/22 23/23/23
f 24/24/24 23/23/23 25/25/25
f 26/26/26 24/24/24 25/25/25
f 26/26/26 25/25/25 27/27/27
f 28/28/28 26/26/26 27/27/27
f 28/28/28 27/27/27 29/29/29
f 30/30/30 28/28/28 29/29/29
f 30/30/30 29/29/29 31/31/31
f 32/32/32 30/30/30 31/31/31
f 32/32/32 31/31/31 33/33/33
f 34/34/34 32/32/32 33/33/33
f 34/34/34 33/33/33 35/35/35
f 36/36/36 34/34/34 35/35/35
f 36/36/36 35/35/35 37/37/37
f 38/38/38 36/36/36 37/37/37
f 38/38/38 37/37/37 39/39/39
f 40/40/40 38/38/38 39/39/39
f 40/40/40 39/39/39 41/41/41
f 42/42/42 40/40/40 41/41/41
f 42/42/42 41/41/41 43/43/43
f 44/44/44 42/42/42 43/43/43
f 44/44/44 43/43/43 45/45/45
f 46/46/46 44/44/44 45/45/45
f 46/46/46 45/45/45 47/47/47
f 48/48/48 46/46/46 47/47/47
f 48/48/48 47/47/47 49/49/49
f 50/50/50 48/48/48 49/49/49
f 53/53/53 52/52/52 51/51/51
f 52/52/52 54/54/54 51/51/51
f 51/51/51 54/54/54 55/55/55
f 54/54/54 56/56/56 55/55/55
f 55/55/55 56/56/56 57/57/57
f 56/56/56 58/58/58 57/57/57
f 57/57/57 58/58/58 59/59/59
f 58/58/58 60/60/60 59/59/59
f 59/59/59 60/60/60 61/61/61
f 60/60/60 62/62/62 61/61/61
f 61/61/61 62/62/62 63/63/63
f 62/62/62 64/64/64 63/63/63
f 63/63/63 64/64/64 65/65/65
f 64/64/64 66/66/66 65/65/65
f 65/65/65 66/66/66 67/67/67
f 66/66/66 68/68/68 67/67/67
f 67/67/67 68/68/68 69/69/69
f 68/68/68 70/70/70 69/69/69
f 69/69/69 70/70/70 71/71/71
f 70/70/70 72/72/72 71/71/71
f 71/71/71 72/72/72 73/73/73
f 72/72/72 74/74/74 73/73/73
f 73/73/73 74/74/74 75/75/75
f 74/74/74 76/76/76 75/75/75
f 75/75/75 76/76/76 77/77/77
f 76/76/76 78/78/78 77/77/77
f 77/77/77 78/78/78 79/79/79
f 78/78/78 80/80/80 79/79/79
f 79/79/79 80/80/80 81/81/81
f 80/80/80 82/82/82 81/81/81
f 81/81/81 82/82/82 83/83/83
f 82/82/82 84/84/84 83/83/83
f 83/83/83 84/84/84 85/85/85
f 84/84/84 86/86/86 85/85/85
f 85/85/85 86/86/86 87/87/87
f 86/86/86 88/88/88 87/87/87
f 87/87/87 88/88/88 89/89/89
f 88/88/88 90/90/90 89/89/89
f 89/89/89 90/90/90 91/91/91
f 90/90/90 92/92/92 91/91/91
f 91/91/91 92/92/92 93/93/93
f 92/92/92 94/94/94 93/93/93
f 93/93/93 94/94/94 95/95/95
f 94/94/94 96/96/96 95/95/95
f 95/95/95 96/96/96 97/97/97
f 96/96/96 98/98/98 97/97/97
f 97/97/97 98/98/98 99/99/99
f 98/98/98 100/100/100 99/99/99
