g fx_mesh_expandenergy_03
v -1.482601 0.4854656 4.073411
v 2.581569E-07 -4.844666E-07 3.031607
v -3.45596E-09 0.4854654 4.334834
v -1.036871 -3.875732E-07 2.848778
v -2.786378 0.4854658 3.320676
v 2.810525E-07 -0.2876557 1.815829
v -1.94868 -2.422333E-07 2.322345
v -3.754076 0.485466 2.167417
v -0.6210508 -0.2876557 1.706321
v 2.732368E-07 -0.4854665 0.4926524
v -0.1684977 -0.4854663 0.4629416
v -1.167194 -0.2876556 1.391005
v -0.3166724 -0.4854663 0.3773929
v -2.62545 -9.689331E-08 1.515803
v -4.268979 0.4854663 0.7527367
v -1.572556 -0.2876554 0.9079136
v -0.4266516 -0.4854662 0.2463248
v -2.985551 1.4534E-07 0.5264322
v -4.268978 0.4854665 -0.752735
v -1.788244 -0.2876552 0.3153139
v -0.4851702 -0.4854659 0.08554602
v -2.985551 2.422333E-07 -0.5264338
v -3.754077 0.4854667 -2.167416
v -1.788245 -0.287655 -0.3153172
v -0.4851702 -0.4854658 -0.08555102
v -2.62545 4.360199E-07 -1.515804
v -2.786379 0.4854669 -3.320674
v -1.572556 -0.2876549 -0.9079168
v -0.4266517 -0.4854658 -0.2463299
v -1.948681 5.329132E-07 -2.322347
v -1.482602 0.4854669 -4.07341
v -1.167194 -0.2876549 -1.391009
v -0.3166724 -0.4854657 -0.3773979
v -1.036872 6.782532E-07 -2.84878
v -1.989769E-06 0.4854669 -4.334834
v -0.6210514 -0.2876547 -1.706324
v -0.168498 -0.4854656 -0.4629465
v -1.243689E-06 5.329132E-07 -3.031609
v 1.482598 0.4854667 -4.073412
v -6.548858E-07 -0.2876549 -1.815832
v -3.05645E-08 -0.4854658 -0.4926572
v 1.036869 4.844666E-07 -2.848781
v 2.786376 0.4854665 -3.320676
v 0.62105 -0.2876549 -1.706325
v 0.1684978 -0.4854658 -0.4629467
v 1.948679 2.906799E-07 -2.322348
v 3.754074 0.4854663 -2.167419
v 1.167193 -0.287655 -1.391009
v 0.3166726 -0.4854658 -0.3773981
v 2.625449 1.4534E-07 -1.515806
v 4.268978 0.485466 -0.7527385
v 1.572556 -0.2876552 -0.907918
v 0.4266518 -0.485466 -0.2463301
v 2.985551 -4.844665E-08 -0.5264363
v 4.268978 0.4854658 0.7527365
v 1.788245 -0.2876554 -0.3153188
v 0.4851708 -0.4854662 -0.08555148
v 2.985552 -2.422333E-07 0.5264322
v 3.754077 0.4854656 2.167418
v 1.788245 -0.2876556 0.315314
v 0.485171 -0.4854663 0.08554615
v 2.62545 -3.875732E-07 1.515803
v 2.786377 0.4854654 3.320676
v 1.572557 -0.2876557 0.9079137
v 0.426652 -0.4854664 0.2463249
v 1.94868 -4.360199E-07 2.322345
v 1.4826 0.4854654 4.073412
v 1.167194 -0.2876557 1.391006
v 0.3166728 -0.4854664 0.377393
v 1.036871 -5.329132E-07 2.848779
v -3.45596E-09 0.4854654 4.334834
v 2.581569E-07 -4.844666E-07 3.031607
v 0.6210513 -0.2876558 1.706321
v 0.1684983 -0.4854665 0.4629416
v 2.810525E-07 -0.2876557 1.815829
v 2.732368E-07 -0.4854665 0.4926524
vt 0.05600006 0.9995
vt 0.0005 0.6524892
vt 0.0005 0.9995
vt 0.05600006 0.6524892
vt 0.1115 0.9995
vt 0.0005 0.3176966
vt 0.1115 0.6524892
vt 0.167 0.9995
vt 0.05600006 0.3176966
vt 0.0005 0.0004999638
vt 0.05600006 0.0004999638
vt 0.1115 0.3176966
vt 0.1115 0.0004999638
vt 0.167 0.6524892
vt 0.2225 0.9995
vt 0.167 0.3176966
vt 0.167 0.0004999638
vt 0.2225 0.6524892
vt 0.278 0.9995
vt 0.2225 0.3176966
vt 0.2225 0.0004999638
vt 0.278 0.6524892
vt 0.3335 0.9995
vt 0.278 0.3176966
vt 0.278 0.0004999638
vt 0.3335 0.6524892
vt 0.389 0.9995
vt 0.3335 0.3176966
vt 0.3335 0.0004999638
vt 0.389 0.6524892
vt 0.4445 0.9995
vt 0.389 0.3176966
vt 0.389 0.0004999638
vt 0.4445 0.6524892
vt 0.4999999 0.9995
vt 0.4445 0.3176966
vt 0.4445 0.0004999638
vt 0.4999999 0.6524892
vt 0.5554999 0.9995
vt 0.4999999 0.3176966
vt 0.4999999 0.0004999638
vt 0.5554999 0.6524892
vt 0.6109999 0.9995
vt 0.5554999 0.3176966
vt 0.5554999 0.0004999638
vt 0.6109999 0.6524892
vt 0.6664999 0.9995
vt 0.6109999 0.3176966
vt 0.6109999 0.0004999638
vt 0.6664999 0.6524892
vt 0.7219999 0.9995
vt 0.6664999 0.3176966
vt 0.6664999 0.0004999638
vt 0.7219999 0.6524892
vt 0.7775 0.9995
vt 0.7219999 0.3176966
vt 0.7219999 0.0004999638
vt 0.7775 0.6524892
vt 0.8330001 0.9995
vt 0.7775 0.3176966
vt 0.7775 0.0004999638
vt 0.8330001 0.6524892
vt 0.8885 0.9995
vt 0.8330001 0.3176966
vt 0.8330001 0.0004999638
vt 0.8885 0.6524892
vt 0.9440001 0.9995
vt 0.8885 0.3176966
vt 0.8885 0.0004999638
vt 0.9440001 0.6524892
vt 0.9995 0.9995
vt 0.9995 0.6524892
vt 0.9440001 0.3176966
vt 0.9440001 0.0004999638
vt 0.9995 0.3176966
vt 0.9995 0.0004999638
vn 0.1193916 0.9370939 -0.3280254
vn 0 0.9550294 -0.2965109
vn 0 0.9370939 -0.3490774
vn 0.1014129 0.9550294 -0.2786291
vn 0.2243828 0.9370939 -0.2674087
vn 0 0.9810604 -0.1937018
vn 0.1905937 0.9550294 -0.2271405
vn 0.3023101 0.9370938 -0.1745387
vn 0.06625012 0.9810604 -0.1820201
vn 0 0.9890092 -0.1478537
vn 0.05056917 0.9890092 -0.138937
vn 0.1245093 0.9810604 -0.1483841
vn 0.09503873 0.9890092 -0.1132624
vn 0.2567862 0.9550294 -0.1482554
vn 0.3437745 0.9370937 -0.06061663
vn 0.1677509 0.9810604 -0.09685067
vn 0.1280453 0.9890092 -0.07392646
vn 0.2920066 0.9550294 -0.05148847
vn 0.3437747 0.9370937 0.0606168
vn 0.1907592 0.9810604 -0.03363569
vn 0.1456077 0.9890092 -0.02567408
vn 0.2920066 0.9550293 0.05148876
vn 0.3023105 0.9370936 0.174539
vn 0.1907592 0.9810604 0.03363613
vn 0.1456076 0.9890092 0.02567472
vn 0.2567864 0.9550293 0.1482558
vn 0.2243831 0.9370936 0.2674094
vn 0.1677508 0.9810604 0.09685111
vn 0.1280452 0.9890092 0.07392704
vn 0.1905939 0.9550293 0.227141
vn 0.1193919 0.9370936 0.3280262
vn 0.1245092 0.9810604 0.1483845
vn 0.0950385 0.9890092 0.1132628
vn 0.101413 0.9550293 0.2786297
vn 2.864207E-07 0.9370936 0.3490782
vn 0.06625012 0.9810604 0.1820205
vn 0.05056913 0.9890092 0.1389373
vn 2.575048E-07 0.9550293 0.2965116
vn -0.1193914 0.9370936 0.3280262
vn 2.733802E-07 0.9810604 0.1937021
vn 3.441428E-07 0.9890092 0.1478539
vn -0.1014127 0.9550293 0.2786298
vn -0.2243829 0.9370936 0.2674095
vn -0.06624983 0.9810604 0.1820206
vn -0.05056883 0.9890092 0.1389374
vn -0.1905937 0.9550293 0.2271412
vn -0.3023103 0.9370936 0.1745394
vn -0.1245091 0.9810604 0.1483846
vn -0.0950384 0.9890092 0.1132629
vn -0.2567862 0.9550293 0.1482561
vn -0.3437746 0.9370937 0.06061713
vn -0.1677507 0.9810604 0.09685148
vn -0.1280449 0.9890092 0.07392751
vn -0.2920066 0.9550293 0.05148908
vn -0.3437745 0.9370937 -0.06061647
vn -0.1907592 0.9810604 0.03363646
vn -0.1456075 0.9890092 0.02567511
vn -0.2920066 0.9550294 -0.05148835
vn -0.30231 0.9370939 -0.1745387
vn -0.1907592 0.9810604 -0.03363574
vn -0.1456076 0.9890092 -0.02567428
vn -0.2567861 0.9550294 -0.1482554
vn -0.2243826 0.9370939 -0.2674088
vn -0.1677508 0.9810604 -0.09685087
vn -0.1280451 0.9890092 -0.07392681
vn -0.1905936 0.9550294 -0.2271406
vn -0.1193915 0.9370939 -0.3280254
vn -0.1245092 0.9810604 -0.1483842
vn -0.09503861 0.9890092 -0.1132624
vn -0.1014128 0.9550294 -0.2786291
vn 0 0.9370939 -0.3490774
vn 0 0.9550294 -0.2965109
vn -0.06624997 0.9810605 -0.1820201
vn -0.05056899 0.9890092 -0.1389369
vn 0 0.9810604 -0.1937018
vn 0 0.9890092 -0.1478537
g fx_mesh_expandenergy_03_0
f 3/3/3 2/2/2 1/1/1
f 2/2/2 4/4/4 1/1/1
f 1/1/1 4/4/4 5/5/5
f 2/2/2 6/6/6 4/4/4
f 4/4/4 7/7/7 5/5/5
f 5/5/5 7/7/7 8/8/8
f 6/6/6 9/9/9 4/4/4
f 4/4/4 9/9/9 7/7/7
f 6/6/6 10/10/10 9/9/9
f 10/10/10 11/11/11 9/9/9
f 9/9/9 11/11/11 12/12/12
f 9/9/9 12/12/12 7/7/7
f 11/11/11 13/13/13 12/12/12
f 7/7/7 14/14/14 8/8/8
f 7/7/7 12/12/12 14/14/14
f 8/8/8 14/14/14 15/15/15
f 12/12/12 13/13/13 16/16/16
f 12/12/12 16/16/16 14/14/14
f 13/13/13 17/17/17 16/16/16
f 14/14/14 18/18/18 15/15/15
f 14/14/14 16/16/16 18/18/18
f 15/15/15 18/18/18 19/19/19
f 16/16/16 17/17/17 20/20/20
f 16/16/16 20/20/20 18/18/18
f 17/17/17 21/21/21 20/20/20
f 18/18/18 22/22/22 19/19/19
f 18/18/18 20/20/20 22/22/22
f 19/19/19 22/22/22 23/23/23
f 20/20/20 21/21/21 24/24/24
f 20/20/20 24/24/24 22/22/22
f 21/21/21 25/25/25 24/24/24
f 22/22/22 26/26/26 23/23/23
f 22/22/22 24/24/24 26/26/26
f 23/23/23 26/26/26 27/27/27
f 24/24/24 25/25/25 28/28/28
f 24/24/24 28/28/28 26/26/26
f 25/25/25 29/29/29 28/28/28
f 26/26/26 30/30/30 27/27/27
f 26/26/26 28/28/28 30/30/30
f 27/27/27 30/30/30 31/31/31
f 28/28/28 29/29/29 32/32/32
f 28/28/28 32/32/32 30/30/30
f 29/29/29 33/33/33 32/32/32
f 30/30/30 34/34/34 31/31/31
f 30/30/30 32/32/32 34/34/34
f 31/31/31 34/34/34 35/35/35
f 32/32/32 33/33/33 36/36/36
f 32/32/32 36/36/36 34/34/34
f 33/33/33 37/37/37 36/36/36
f 34/34/34 38/38/38 35/35/35
f 34/34/34 36/36/36 38/38/38
f 35/35/35 38/38/38 39/39/39
f 36/36/36 37/37/37 40/40/40
f 36/36/36 40/40/40 38/38/38
f 37/37/37 41/41/41 40/40/40
f 38/38/38 42/42/42 39/39/39
f 38/38/38 40/40/40 42/42/42
f 39/39/39 42/42/42 43/43/43
f 40/40/40 41/41/41 44/44/44
f 40/40/40 44/44/44 42/42/42
f 41/41/41 45/45/45 44/44/44
f 42/42/42 46/46/46 43/43/43
f 42/42/42 44/44/44 46/46/46
f 43/43/43 46/46/46 47/47/47
f 44/44/44 45/45/45 48/48/48
f 44/44/44 48/48/48 46/46/46
f 45/45/45 49/49/49 48/48/48
f 46/46/46 50/50/50 47/47/47
f 46/46/46 48/48/48 50/50/50
f 47/47/47 50/50/50 51/51/51
f 48/48/48 49/49/49 52/52/52
f 48/48/48 52/52/52 50/50/50
f 49/49/49 53/53/53 52/52/52
f 50/50/50 54/54/54 51/51/51
f 50/50/50 52/52/52 54/54/54
f 51/51/51 54/54/54 55/55/55
f 52/52/52 53/53/53 56/56/56
f 52/52/52 56/56/56 54/54/54
f 53/53/53 57/57/57 56/56/56
f 54/54/54 58/58/58 55/55/55
f 54/54/54 56/56/56 58/58/58
f 55/55/55 58/58/58 59/59/59
f 56/56/56 57/57/57 60/60/60
f 56/56/56 60/60/60 58/58/58
f 57/57/57 61/61/61 60/60/60
f 58/58/58 62/62/62 59/59/59
f 58/58/58 60/60/60 62/62/62
f 59/59/59 62/62/62 63/63/63
f 60/60/60 61/61/61 64/64/64
f 60/60/60 64/64/64 62/62/62
f 61/61/61 65/65/65 64/64/64
f 62/62/62 66/66/66 63/63/63
f 62/62/62 64/64/64 66/66/66
f 63/63/63 66/66/66 67/67/67
f 64/64/64 65/65/65 68/68/68
f 64/64/64 68/68/68 66/66/66
f 65/65/65 69/69/69 68/68/68
f 66/66/66 70/70/70 67/67/67
f 66/66/66 68/68/68 70/70/70
f 67/67/67 70/70/70 71/71/71
f 70/70/70 72/72/72 71/71/71
f 68/68/68 69/69/69 73/73/73
f 68/68/68 73/73/73 70/70/70
f 70/70/70 73/73/73 72/72/72
f 69/69/69 74/74/74 73/73/73
f 73/73/73 75/75/75 72/72/72
f 73/73/73 74/74/74 75/75/75
f 74/74/74 76/76/76 75/75/75
