g fx_mesh_arc_03
v -0.03144023 -0.05547944 -1.257225E-07
v -0.3319884 0.1972697 -9.559241E-08
v -0.1347416 0.4076385 -6.638476E-08
v 0.1346007 0.1207056 -1.010441E-07
v 0.2691079 -0.3082286 -1.558525E-07
v 0.09749763 0.5972242 -2.747566E-08
v 0.403943 -0.1662274 -1.357034E-07
v 0.3233784 0.2745935 -6.944872E-08
v 0.3679655 0.7563394 1.626028E-08
v 0.5492592 -0.04803731 -1.114218E-07
v 0.5397825 0.4017697 -3.452434E-08
v 0.6768364 0.8755605 5.921103E-08
v 0.7115995 0.0472 -8.530896E-08
v 0.7887042 0.49782 1.411662E-10
v 1.022519 0.9485552 9.648724E-08
v 0.9005719 0.1200794 -5.89287E-08
v 1.075033 0.5583297 3.095984E-08
v 1.404679 0.9724238 1.236384E-07
v 1.127547 0.1681042 -3.456757E-08
v 1.40366 0.5788846 5.434378E-08
v 1.788521 0.9461451 1.397092E-07
v 1.402641 0.1853455 -1.495084E-08
v 1.733659 0.5562576 6.822592E-08
v 2.13607 0.8709301 1.465786E-07
v 1.678797 0.1663702 -3.257324E-09
v 2.023007 0.4936098 7.392845E-08
v 2.446321 0.7508281 1.453808E-07
v 1.909946 0.1162894 1.278335E-09
v 2.274948 0.3961091 7.294724E-08
v 2.717576 0.592286 1.376924E-07
v 2.103575 0.04139006 5.137158E-10
v 2.492725 0.2689232 6.677814E-08
v 2.949295 0.4039555 1.254449E-07
v 2.267874 -0.05443968 -4.136144E-09
v 2.679581 0.1172201 5.691706E-08
v 3.142721 0.1948017 1.106052E-07
v 2.409867 -0.1695154 -1.161083E-08
v 2.83876 -0.05383232 4.485986E-08
v 2.534799 -0.3024663 -2.088549E-08
vt 0.5 0
vt 1 0
vt 1 0.07451635
vt 0.5 0.07451635
vt 0 0
vt 1 0.1494813
vt 0 0.07451635
vt 0.5 0.1494813
vt 1 0.2267402
vt 0 0.1494813
vt 0.5 0.2267402
vt 1 0.3088633
vt 0 0.2267402
vt 0.5 0.3088633
vt 1 0.3989406
vt 0 0.3088633
vt 0.5 0.3989406
vt 1 0.5002883
vt 0 0.3989406
vt 0.5 0.5002883
vt 1 0.6020992
vt 0 0.5002883
vt 0.5 0.6020992
vt 1 0.6932231
vt 0 0.6020992
vt 0.5 0.6932231
vt 1 0.7763737
vt 0 0.6932231
vt 0.5 0.7763737
vt 1 0.8539988
vt 0 0.7763737
vt 0.5 0.8539988
vt 1 0.9280806
vt 0 0.8539988
vt 0.5 0.9280806
vt 1 1
vt 0 0.9280806
vt 0.5 1
vt 0 1
vn 0 0 1
vn 0 0 1
vn 0 0 1
vn 0 0 1
vn 0 0 1
vn 0 0 1
vn 0 0 1
vn 0 0 1
vn 0 0 1
vn 0 0 1
vn 0 0 1
vn 0 0 1
vn 0 0 1
vn 0 0 1
vn 0 0 1
vn 0 0 1
vn 0 0 1
vn 0 0 1
vn 0 0 1
vn 0 0 1
vn 0 0 1
vn 0 0 1
vn 0 0 1
vn 0 0 1
vn 0 0 1
vn 0 0 1
vn 0 0 1
vn 0 0 1
vn 0 0 1
vn 0 0 1
vn 0 0 1
vn 0 0 1
vn 0 0 1
vn 0 0 1
vn 0 0 1
vn 0 0 1
vn 0 0 1
vn 0 0 1
vn 0 0 1
g fx_mesh_arc_03_0
f 3/3/3 2/2/2 1/1/1
f 4/4/4 3/3/3 1/1/1
f 4/4/4 1/1/1 5/5/5
f 6/6/6 3/3/3 4/4/4
f 7/7/7 4/4/4 5/5/5
f 8/8/8 6/6/6 4/4/4
f 8/8/8 4/4/4 7/7/7
f 9/9/9 6/6/6 8/8/8
f 10/10/10 8/8/8 7/7/7
f 11/11/11 9/9/9 8/8/8
f 11/11/11 8/8/8 10/10/10
f 12/12/12 9/9/9 11/11/11
f 13/13/13 11/11/11 10/10/10
f 14/14/14 12/12/12 11/11/11
f 14/14/14 11/11/11 13/13/13
f 15/15/15 12/12/12 14/14/14
f 16/16/16 14/14/14 13/13/13
f 17/17/17 15/15/15 14/14/14
f 17/17/17 14/14/14 16/16/16
f 18/18/18 15/15/15 17/17/17
f 19/19/19 17/17/17 16/16/16
f 20/20/20 18/18/18 17/17/17
f 20/20/20 17/17/17 19/19/19
f 21/21/21 18/18/18 20/20/20
f 22/22/22 20/20/20 19/19/19
f 23/23/23 21/21/21 20/20/20
f 23/23/23 20/20/20 22/22/22
f 24/24/24 21/21/21 23/23/23
f 25/25/25 23/23/23 22/22/22
f 26/26/26 24/24/24 23/23/23
f 26/26/26 23/23/23 25/25/25
f 27/27/27 24/24/24 26/26/26
f 28/28/28 26/26/26 25/25/25
f 29/29/29 27/27/27 26/26/26
f 29/29/29 26/26/26 28/28/28
f 30/30/30 27/27/27 29/29/29
f 31/31/31 29/29/29 28/28/28
f 32/32/32 30/30/30 29/29/29
f 32/32/32 29/29/29 31/31/31
f 33/33/33 30/30/30 32/32/32
f 34/34/34 32/32/32 31/31/31
f 35/35/35 33/33/33 32/32/32
f 35/35/35 32/32/32 34/34/34
f 36/36/36 33/33/33 35/35/35
f 37/37/37 35/35/35 34/34/34
f 38/38/38 36/36/36 35/35/35
f 38/38/38 35/35/35 37/37/37
f 39/39/39 38/38/38 37/37/37
