g fx_mesh_expandenergy_01
v -1.482601 0.4854656 4.073411
v -3.45596E-09 0.4854654 4.334834
v 2.581569E-07 -4.844666E-07 3.031607
v -1.036871 -3.875732E-07 2.848778
v -2.786378 0.4854658 3.320676
v -0.591141 -0.4854663 1.624145
v 5.197699E-07 -0.4854665 1.728379
v -1.110982 -0.4854663 1.324014
v -1.94868 -2.422333E-07 2.322345
v -3.754076 0.485466 2.167417
v -1.496823 -0.4854662 0.864188
v -2.62545 -9.689331E-08 1.515803
v -4.268979 0.4854663 0.7527367
v -1.702124 -0.4854659 0.3001275
v -2.985551 1.4534E-07 0.5264322
v -4.268978 0.4854665 -0.752735
v -1.702124 -0.4854659 -0.3001324
v -2.985551 2.422333E-07 -0.5264338
v -3.754077 0.4854667 -2.167416
v -1.496823 -0.4854659 -0.864193
v -2.62545 4.360199E-07 -1.515804
v -2.786379 0.4854669 -3.320674
v -1.110983 -0.4854658 -1.324019
v -1.948681 5.329132E-07 -2.322347
v -1.482602 0.4854669 -4.07341
v -0.591142 -0.4854656 -1.62415
v -1.036872 6.782532E-07 -2.84878
v -1.989769E-06 0.4854669 -4.334834
v -5.460566E-07 -0.4854658 -1.728384
v -1.243689E-06 5.329132E-07 -3.031609
v 1.482598 0.4854667 -4.073412
v 0.5911409 -0.4854658 -1.62415
v 1.036869 4.844666E-07 -2.848781
v 2.786376 0.4854665 -3.320676
v 1.110982 -0.4854658 -1.32402
v 1.948679 2.906799E-07 -2.322348
v 3.754074 0.4854663 -2.167419
v 1.496823 -0.4854659 -0.864194
v 2.625449 1.4534E-07 -1.515806
v 4.268978 0.485466 -0.7527385
v 1.702125 -0.4854662 -0.3001341
v 2.985551 -4.844665E-08 -0.5264363
v 4.268978 0.4854658 0.7527365
v 1.702125 -0.4854662 0.300128
v 2.985552 -2.422333E-07 0.5264322
v 3.754077 0.4854656 2.167418
v 1.496823 -0.4854662 0.8641883
v 2.62545 -3.875732E-07 1.515803
v 2.786377 0.4854654 3.320676
v 1.110983 -0.4854663 1.324014
v 1.94868 -4.360199E-07 2.322345
v 1.4826 0.4854654 4.073412
v 0.5911425 -0.4854665 1.624145
v 1.036871 -5.329132E-07 2.848779
v -3.45596E-09 0.4854654 4.334834
v 5.197699E-07 -0.4854665 1.728379
v 2.581569E-07 -4.844666E-07 3.031607
vt 0.05600006 0.9995
vt 0.0005 0.9995
vt 0.0005 0.5
vt 0.05600006 0.5
vt 0.1115 0.9995
vt 0.05600006 0.0004999638
vt 0.0005 0.0004999638
vt 0.1115 0.0004999638
vt 0.1115 0.5
vt 0.167 0.9995
vt 0.167 0.0004999638
vt 0.167 0.5
vt 0.2225 0.9995
vt 0.2225 0.0004999638
vt 0.2225 0.5
vt 0.278 0.9995
vt 0.278 0.0004999638
vt 0.278 0.5
vt 0.3335 0.9995
vt 0.3335 0.0004999638
vt 0.3335 0.5
vt 0.389 0.9995
vt 0.389 0.0004999638
vt 0.389 0.5
vt 0.4445 0.9995
vt 0.4445 0.0004999638
vt 0.4445 0.5
vt 0.4999999 0.9995
vt 0.4999999 0.0004999638
vt 0.4999999 0.5
vt 0.5554999 0.9995
vt 0.5554999 0.0004999638
vt 0.5554999 0.5
vt 0.6109999 0.9995
vt 0.6109999 0.0004999638
vt 0.6109999 0.5
vt 0.6664999 0.9995
vt 0.6664999 0.0004999638
vt 0.6664999 0.5
vt 0.7219999 0.9995
vt 0.7219999 0.0004999638
vt 0.7219999 0.5
vt 0.7775 0.9995
vt 0.7775 0.0004999638
vt 0.7775 0.5
vt 0.8330001 0.9995
vt 0.8330001 0.0004999638
vt 0.8330001 0.5
vt 0.8885 0.9995
vt 0.8885 0.0004999638
vt 0.8885 0.5
vt 0.9440001 0.9995
vt 0.9440001 0.0004999638
vt 0.9440001 0.5
vt 0.9995 0.9995
vt 0.9995 0.0004999638
vt 0.9995 0.5
vn -0.1196024 -0.9367581 0.3289065
vn -7.634721E-05 -0.9368549 0.3497185
vn 0 -0.9371545 0.3489145
vn -0.119358 -0.9371585 0.3278529
vn -0.2243761 -0.9372663 0.2668092
vn -0.1194272 -0.9371032 0.3279861
vn 3.810157E-05 -0.9371545 0.3489145
vn -0.2243464 -0.937066 0.2675369
vn -0.2243556 -0.9371043 0.2673952
vn -0.3027306 -0.9369544 0.1745584
vn -0.3023444 -0.9370998 0.1744471
vn -0.3024614 -0.9370658 0.1744266
vn -0.343684 -0.9371189 0.06073989
vn -0.3436618 -0.9371347 0.06062152
vn -0.343981 -0.93702 0.06058582
vn -0.3442238 -0.9369265 -0.06065114
vn -0.3436626 -0.9371369 -0.06058351
vn -0.3437118 -0.9371183 -0.06059217
vn -0.3021761 -0.9371274 -0.1745906
vn -0.3022931 -0.9370935 -0.1745701
vn -0.302475 -0.9370316 -0.174587
vn -0.2246294 -0.9370493 -0.2673578
vn -0.2243235 -0.9371228 -0.267357
vn -0.2243739 -0.9371807 -0.2671117
vn -0.1193255 -0.9369801 -0.3283741
vn -0.119329 -0.9370834 -0.3280783
vn -0.119358 -0.9371585 -0.3278529
vn 0 -0.9366641 -0.3502289
vn 0 -0.9370733 -0.3491327
vn -7.636355E-05 -0.9370547 -0.3491826
vn 0.1196503 -0.9371337 -0.3278175
vn 0.119346 -0.9370647 -0.3281253
vn 0.1194999 -0.9371508 -0.3278234
vn 0.2245927 -0.9368963 -0.2679244
vn 0.2243556 -0.9371043 -0.2673952
vn 0.2243922 -0.9372571 -0.2668282
vn 0.3027628 -0.937054 -0.1739666
vn 0.3021626 -0.9371616 -0.1744302
vn 0.3024534 -0.9370409 -0.1745745
vn 0.3436856 -0.9371234 -0.06066387
vn 0.3436618 -0.9371347 -0.06062152
vn 0.3439548 -0.937025 -0.06065751
vn 0.3442238 -0.9369265 0.06065114
vn 0.3436626 -0.9371369 0.06058351
vn 0.3437118 -0.9371183 0.06059217
vn 0.3021761 -0.9371274 0.1745906
vn 0.3023012 -0.9371184 0.1744221
vn 0.3024911 -0.9370815 0.174291
vn 0.2246294 -0.9370493 0.2673578
vn 0.2243326 -0.937161 0.2672153
vn 0.2243556 -0.9371043 0.2673952
vn 0.1196828 -0.9373118 0.3272958
vn 0.119352 -0.9371116 0.3279891
vn 0.119358 -0.9371585 0.3278529
vn -7.634721E-05 -0.9368549 0.3497185
vn 3.810157E-05 -0.9371545 0.3489145
vn 0 -0.9371545 0.3489145
g fx_mesh_expandenergy_01_0
f 3/3/3 2/2/2 1/1/1
f 4/4/4 3/3/3 1/1/1
f 4/4/4 1/1/1 5/5/5
f 3/3/3 4/4/4 6/6/6
f 7/7/7 3/3/3 6/6/6
f 6/6/6 4/4/4 8/8/8
f 9/9/9 4/4/4 5/5/5
f 4/4/4 9/9/9 8/8/8
f 9/9/9 5/5/5 10/10/10
f 8/8/8 9/9/9 11/11/11
f 12/12/12 9/9/9 10/10/10
f 9/9/9 12/12/12 11/11/11
f 12/12/12 10/10/10 13/13/13
f 11/11/11 12/12/12 14/14/14
f 15/15/15 12/12/12 13/13/13
f 12/12/12 15/15/15 14/14/14
f 15/15/15 13/13/13 16/16/16
f 14/14/14 15/15/15 17/17/17
f 18/18/18 15/15/15 16/16/16
f 15/15/15 18/18/18 17/17/17
f 18/18/18 16/16/16 19/19/19
f 17/17/17 18/18/18 20/20/20
f 21/21/21 18/18/18 19/19/19
f 18/18/18 21/21/21 20/20/20
f 21/21/21 19/19/19 22/22/22
f 20/20/20 21/21/21 23/23/23
f 24/24/24 21/21/21 22/22/22
f 21/21/21 24/24/24 23/23/23
f 24/24/24 22/22/22 25/25/25
f 23/23/23 24/24/24 26/26/26
f 27/27/27 24/24/24 25/25/25
f 24/24/24 27/27/27 26/26/26
f 27/27/27 25/25/25 28/28/28
f 26/26/26 27/27/27 29/29/29
f 30/30/30 27/27/27 28/28/28
f 27/27/27 30/30/30 29/29/29
f 30/30/30 28/28/28 31/31/31
f 29/29/29 30/30/30 32/32/32
f 33/33/33 30/30/30 31/31/31
f 30/30/30 33/33/33 32/32/32
f 33/33/33 31/31/31 34/34/34
f 32/32/32 33/33/33 35/35/35
f 36/36/36 33/33/33 34/34/34
f 33/33/33 36/36/36 35/35/35
f 36/36/36 34/34/34 37/37/37
f 35/35/35 36/36/36 38/38/38
f 39/39/39 36/36/36 37/37/37
f 36/36/36 39/39/39 38/38/38
f 39/39/39 37/37/37 40/40/40
f 38/38/38 39/39/39 41/41/41
f 42/42/42 39/39/39 40/40/40
f 39/39/39 42/42/42 41/41/41
f 42/42/42 40/40/40 43/43/43
f 41/41/41 42/42/42 44/44/44
f 45/45/45 42/42/42 43/43/43
f 42/42/42 45/45/45 44/44/44
f 45/45/45 43/43/43 46/46/46
f 44/44/44 45/45/45 47/47/47
f 48/48/48 45/45/45 46/46/46
f 45/45/45 48/48/48 47/47/47
f 48/48/48 46/46/46 49/49/49
f 47/47/47 48/48/48 50/50/50
f 51/51/51 48/48/48 49/49/49
f 48/48/48 51/51/51 50/50/50
f 51/51/51 49/49/49 52/52/52
f 50/50/50 51/51/51 53/53/53
f 54/54/54 51/51/51 52/52/52
f 51/51/51 54/54/54 53/53/53
f 54/54/54 52/52/52 55/55/55
f 53/53/53 54/54/54 56/56/56
f 57/57/57 54/54/54 55/55/55
f 54/54/54 57/57/57 56/56/56
