g fxMesh_KnightA_skill03_line_swordTop
v -0.2384871 0.7986603 2.867393
v -1.737902E-07 3.094647 3.417634
v -1.896472E-07 3.202396 2.980247
v -0.2384871 0.7652002 3.000858
v -1.551761E-07 2.931908 3.829983
v -0.238487 0.7166643 3.123781
v -1.340691E-07 2.717089 4.212071
v -0.238487 0.6538746 3.235428
v -1.105968E-07 2.45264 4.557826
v -0.238487 0.5776533 3.335068
v -8.496608E-08 2.142416 4.861313
v -0.238487 0.4888232 3.421966
v -5.745419E-08 1.791605 5.117287
v -0.238487 0.3882074 3.495389
v -2.837784E-08 1.406284 5.321726
v -0.2384869 0.2766275 3.554604
v 1.942503E-09 0.9928322 5.472046
v -0.2384869 0.1549065 3.598878
v 3.321693E-08 0.5573334 5.567019
v -0.2384869 0.02386671 3.627478
v 6.520791E-08 0.1051462 5.606452
v -0.2384868 -0.1156691 3.63967
v 9.809545E-08 -0.3594142 5.590838
v -0.2384868 -0.2628785 3.634721
v 1.215725E-07 -0.7387952 5.533474
v -0.2384868 -0.3749313 3.617757
v 1.391611E-07 -1.113667 5.429947
v -0.2384868 -0.4852594 3.587264
v 1.51046E-07 -1.479245 5.278578
v -0.2384868 -0.5918164 3.543104
v 1.573112E-07 -1.829661 5.077142
v -0.2384868 -0.6925555 3.48514
v 1.579701E-07 -2.157455 4.823594
v -0.2384868 -0.7854301 3.413235
v 1.524123E-07 -2.453507 4.51703
v -0.2384868 -0.8683936 3.327252
v 1.419992E-07 -2.707583 4.158746
v -0.2384868 -0.9393992 3.227052
v 1.264909E-07 -2.909636 3.752871
v -0.2384868 -0.9964002 3.1125
v 1.064298E-07 -3.051474 3.305908
v -0.2384868 -1.03735 2.983456
v 8.247819E-08 -3.127874 2.825142
v -0.2384868 -1.060202 2.839785
v 5.531849E-08 -3.13617 2.317372
v -0.2384868 -1.06291 2.681349
v 3.302187E-08 -3.097778 1.942183
v -0.2384869 -1.051333 2.567277
v 7.734974E-09 -3.022368 1.588005
v -0.2384869 -1.028881 2.46177
v -1.981831E-08 -2.913065 1.257144
v -0.2384869 -0.9967278 2.364367
v -4.907958E-08 -2.774665 0.9520509
v -0.238487 -0.9560466 2.274606
v -7.945214E-08 -2.612836 0.6741254
v -0.238487 -0.9080101 2.19203
v -1.103706E-07 -2.433525 0.4234984
v -0.238487 -0.8537915 2.116176
v -1.413486E-07 -2.242418 0.1991489
v -0.238487 -0.7945639 2.046583
v -1.719907E-07 -2.04465 -0.0007326603
v -0.2384871 -0.7315001 1.982793
v -2.019773E-07 -1.844768 -0.1783514
v -0.2384871 -0.6657732 1.924343
v -2.310384E-07 -1.64683 -0.3359959
v -0.2384871 -0.5985563 1.870774
v -2.589399E-07 -1.454497 -0.4757282
v -0.2384871 -0.5310224 1.821626
v -1.896472E-07 3.202396 2.980247
v 0.2384867 0.7652002 3.000858
v 0.2384867 0.7986603 2.867393
v -1.737902E-07 3.094647 3.417634
v 0.2384867 0.7166643 3.123781
v -1.551761E-07 2.931908 3.829983
v 0.2384867 0.6538746 3.235428
v -1.340691E-07 2.717089 4.212071
v 0.2384867 0.5776533 3.335068
v -1.105968E-07 2.45264 4.557826
v 0.2384868 0.4888232 3.421966
v -8.496608E-08 2.142416 4.861313
v 0.2384869 0.3882074 3.495389
v -5.745419E-08 1.791605 5.117287
v 0.2384869 0.2766275 3.554604
v -2.837784E-08 1.406284 5.321726
v 0.2384869 0.1549065 3.598878
v 1.942503E-09 0.9928322 5.472046
v 0.2384869 0.02386671 3.627478
v 3.321693E-08 0.5573334 5.567019
v 0.2384869 -0.1156691 3.63967
v 6.520791E-08 0.1051462 5.606452
v 0.2384869 -0.2628785 3.634721
v 9.809545E-08 -0.3594142 5.590838
v 0.2384869 -0.3749313 3.617757
v 1.215725E-07 -0.7387952 5.533474
v 0.2384869 -0.4852594 3.587264
v 1.391611E-07 -1.113667 5.429947
v 0.238487 -0.5918164 3.543104
v 1.51046E-07 -1.479245 5.278578
v 0.238487 -0.6925555 3.48514
v 1.573112E-07 -1.829661 5.077142
v 0.238487 -0.7854301 3.413235
v 1.579701E-07 -2.157455 4.823594
v 0.238487 -0.8683936 3.327252
v 1.524123E-07 -2.453507 4.51703
v 0.2384869 -0.9393992 3.227052
v 1.419992E-07 -2.707583 4.158746
v 0.2384869 -0.9964002 3.1125
v 1.264909E-07 -2.909636 3.752871
v 0.2384869 -1.03735 2.983456
v 1.064298E-07 -3.051474 3.305908
v 0.2384869 -1.060202 2.839785
v 8.247819E-08 -3.127874 2.825142
v 0.2384869 -1.06291 2.681349
v 5.531849E-08 -3.13617 2.317372
v 0.2384869 -1.051333 2.567277
v 3.302187E-08 -3.097778 1.942183
v 0.2384869 -1.028881 2.46177
v 7.734974E-09 -3.022368 1.588005
v 0.2384869 -0.9967278 2.364367
v -1.981831E-08 -2.913065 1.257144
v 0.2384869 -0.9560466 2.274606
v -4.907958E-08 -2.774665 0.9520509
v 0.2384868 -0.9080101 2.19203
v -7.945214E-08 -2.612836 0.6741254
v 0.2384868 -0.8537915 2.116176
v -1.103706E-07 -2.433525 0.4234984
v 0.2384867 -0.7945639 2.046583
v -1.413486E-07 -2.242418 0.1991489
v 0.2384867 -0.7315 1.982793
v -1.719907E-07 -2.04465 -0.0007326603
v 0.2384867 -0.6657732 1.924343
v -2.019773E-07 -1.844768 -0.1783514
v 0.2384867 -0.5985563 1.870774
v -2.310384E-07 -1.64683 -0.3359959
v 0.2384867 -0.5310224 1.821626
v -2.589399E-07 -1.454497 -0.4757282
vt 0 0
vt 0.5 0.03540099
vt 0.5 0
vt 0 0.03540099
vt 0.5 0.06940307
vt 0 0.06940307
vt 0.5 0.1023592
vt 0 0.1023592
vt 0.5 0.1346354
vt 0 0.1346354
vt 0.5 0.1666069
vt 0 0.1666069
vt 0.5 0.1986534
vt 0 0.1986534
vt 0.5 0.2311532
vt 0 0.2311532
vt 0.5 0.2644773
vt 0 0.2644773
vt 0.5 0.2989852
vt 0 0.2989852
vt 0.5 0.3350222
vt 0 0.3350222
vt 0.5 0.3729181
vt 0 0.3729181
vt 0.5 0.4020759
vt 0 0.4020759
vt 0.5 0.4315257
vt 0 0.4315257
vt 0.5 0.4612021
vt 0 0.4612021
vt 0.5 0.4911047
vt 0 0.4911047
vt 0.5 0.5213242
vt 0 0.5213242
vt 0.5 0.5520651
vt 0 0.5520651
vt 0.5 0.5836614
vt 0 0.5836614
vt 0.5 0.6165811
vt 0 0.6165811
vt 0.5 0.6514133
vt 0 0.6514133
vt 0.5 0.6888422
vt 0 0.6888422
vt 0.5 0.7296113
vt 0 0.7296113
vt 0.5 0.7591107
vt 0 0.7591107
vt 0.5 0.7868638
vt 0 0.7868638
vt 0.5 0.8132541
vt 0 0.8132541
vt 0.5 0.838609
vt 0 0.838609
vt 0.5 0.8631878
vt 0 0.8631878
vt 0.5 0.8871766
vt 0 0.8871766
vt 0.5 0.9106882
vt 0 0.9106882
vt 0.5 0.9337668
vt 0 0.9337668
vt 0.5 0.9563965
vt 0 0.9563965
vt 0.5 0.9785105
vt 0 0.9785105
vt 0.5 1
vt 0 1
vt 0.5 0
vt 1 0.03540099
vt 1 0
vt 0.5 0.03540099
vt 1 0.06940307
vt 0.5 0.06940307
vt 1 0.1023592
vt 0.5 0.1023592
vt 1 0.1346354
vt 0.5 0.1346354
vt 1 0.1666069
vt 0.5 0.1666069
vt 1 0.1986534
vt 0.5 0.1986534
vt 1 0.2311532
vt 0.5 0.2311532
vt 1 0.2644773
vt 0.5 0.2644773
vt 1 0.2989852
vt 0.5 0.2989852
vt 1 0.3350222
vt 0.5 0.3350222
vt 1 0.3729181
vt 0.5 0.3729181
vt 1 0.4020759
vt 0.5 0.4020759
vt 1 0.4315257
vt 0.5 0.4315257
vt 1 0.4612021
vt 0.5 0.4612021
vt 1 0.4911047
vt 0.5 0.4911047
vt 1 0.5213242
vt 0.5 0.5213242
vt 1 0.5520651
vt 0.5 0.5520651
vt 1 0.5836614
vt 0.5 0.5836614
vt 1 0.6165811
vt 0.5 0.6165811
vt 1 0.6514133
vt 0.5 0.6514133
vt 1 0.6888422
vt 0.5 0.6888422
vt 1 0.7296113
vt 0.5 0.7296113
vt 1 0.7591107
vt 0.5 0.7591107
vt 1 0.7868638
vt 0.5 0.7868638
vt 1 0.8132541
vt 0.5 0.8132541
vt 1 0.838609
vt 0.5 0.838609
vt 1 0.8631878
vt 0.5 0.8631878
vt 1 0.8871766
vt 0.5 0.8871766
vt 1 0.9106882
vt 0.5 0.9106882
vt 1 0.9337668
vt 0.5 0.9337668
vt 1 0.9563965
vt 0.5 0.9563965
vt 1 0.9785105
vt 0.5 0.9785105
vt 1 1
vt 0.5 1
vn 0.9747636 -0.2165985 -0.05404662
vn 0.9748619 -0.21225 -0.06777962
vn 0.9747039 -0.2170108 -0.05346687
vn 0.9748902 -0.2120133 -0.06811526
vn 0.9748946 -0.2010798 -0.09564185
vn 0.9748994 -0.2010422 -0.09567261
vn 0.9749005 -0.1859123 -0.122497
vn 0.9749061 -0.1858828 -0.1224977
vn 0.9749052 -0.166671 -0.1475823
vn 0.9749121 -0.166657 -0.147553
vn 0.9749103 -0.1438292 -0.1698912
vn 0.9749131 -0.1438103 -0.1698914
vn 0.9749069 -0.1180723 -0.1887203
vn 0.9749056 -0.1180836 -0.1887201
vn 0.9749049 -0.09042373 -0.2034305
vn 0.9748963 -0.09045173 -0.2034597
vn 0.9748868 -0.06189673 -0.2139263
vn 0.9748907 -0.06193715 -0.2138971
vn 0.9748906 -0.03346651 -0.220155
vn 0.9748827 -0.03350658 -0.220184
vn 0.9748787 -0.005945228 -0.2226571
vn 0.9748719 -0.005970939 -0.2226862
vn 0.9748774 0.02042409 -0.2218039
vn 0.9748703 0.02045249 -0.2218322
vn 0.9748692 0.04638664 -0.2178951
vn 0.9748742 0.04642485 -0.2178649
vn 0.9748682 0.07239471 -0.2106916
vn 0.974878 0.07243712 -0.2106318
vn 0.9748875 0.09829737 -0.1998296
vn 0.974888 0.09835778 -0.1997978
vn 0.974899 0.1238864 -0.1849981
vn 0.9749019 0.1239546 -0.1849363
vn 0.9749097 0.1485291 -0.165802
vn 0.9749137 0.1486049 -0.16571
vn 0.974924 0.1712957 -0.1420598
vn 0.9749306 0.1713341 -0.1419684
vn 0.9749265 0.1909176 -0.1143186
vn 0.9749312 0.1909484 -0.1142272
vn 0.9749327 0.2062386 -0.08349642
vn 0.9749292 0.2062682 -0.08346553
vn 0.9749236 0.2165533 -0.05126967
vn 0.9749188 0.2165677 -0.05129997
vn 0.9749067 0.2217713 -0.01934815
vn 0.9748985 0.221802 -0.0194092
vn 0.9748778 0.2225347 0.009567284
vn 0.9748628 0.2226104 0.009338376
vn 0.9748658 0.2200936 0.03457655
vn 0.9748571 0.2201466 0.03448492
vn 0.9748573 0.2150877 0.05822747
vn 0.9748573 0.2150959 0.05819713
vn 0.9748512 0.2075796 0.08109244
vn 0.9748521 0.2075959 0.08103947
vn 0.9748493 0.1980285 0.1022415
vn 0.9748472 0.1980826 0.1021579
vn 0.97484 0.1871641 0.1210631
vn 0.974836 0.1872253 0.1210022
vn 0.9748308 0.1756744 0.1372718
vn 0.9748262 0.1757506 0.1372069
vn 0.9748214 0.1642456 0.1508198
vn 0.9748181 0.1643224 0.1507573
vn 0.974814 0.1534121 0.1618712
vn 0.9748058 0.1535031 0.1618344
vn 0.9748034 0.1436307 0.1706712
vn 0.974801 0.1436845 0.1706392
vn 0.9747989 0.1350861 0.177536
vn 0.9747892 0.1351962 0.1775049
vn 0.9747851 0.1311798 0.1805153
vn 0.9747776 0.1313248 0.1804505
vn -0.9747583 -0.2167363 -0.05358898
vn -0.9748529 -0.2122042 -0.06805429
vn -0.9746889 -0.2168502 -0.0543823
vn -0.9748904 -0.2121583 -0.06765751
vn -0.9748977 -0.2010503 -0.09567283
vn -0.9748947 -0.2010794 -0.09564165
vn -0.974906 -0.1858831 -0.1224979
vn -0.9749043 -0.1859127 -0.1224668
vn -0.9749115 -0.1666608 -0.1475529
vn -0.9749165 -0.1666576 -0.1475229
vn -0.9749129 -0.1438106 -0.1698917
vn -0.9749103 -0.1438293 -0.1698913
vn -0.9749056 -0.1180838 -0.1887204
vn -0.9749052 -0.1180874 -0.1887201
vn -0.9749025 -0.09045024 -0.2034301
vn -0.9748914 -0.09043787 -0.2034891
vn -0.9748908 -0.06193525 -0.2138971
vn -0.9748863 -0.06190446 -0.2139267
vn -0.9748829 -0.0335051 -0.2201836
vn -0.9748775 -0.03346614 -0.2202135
vn -0.9748786 -0.005964304 -0.2226572
vn -0.9748787 -0.005940465 -0.2226573
vn -0.9748635 0.02045625 -0.221862
vn -0.9748774 0.02042787 -0.2218036
vn -0.9748673 0.04642852 -0.2178947
vn -0.9748693 0.04638653 -0.2178946
vn -0.9748769 0.07244891 -0.2106328
vn -0.974882 0.07238024 -0.2106328
vn -0.9748799 0.0983768 -0.1998283
vn -0.9748892 0.09828185 -0.1998291
vn -0.9748942 0.1239699 -0.1849668
vn -0.974901 0.1238708 -0.1849975
vn -0.9749051 0.1486277 -0.1657403
vn -0.9749197 0.1485298 -0.1657418
vn -0.9749222 0.1713565 -0.1419986
vn -0.9749268 0.1712801 -0.1420594
vn -0.9749282 0.1909638 -0.1142273
vn -0.9749268 0.190917 -0.1143183
vn -0.9749292 0.2062682 -0.08346553
vn -0.9749328 0.2062384 -0.08349633
vn -0.9749206 0.21656 -0.05129997
vn -0.9749171 0.2165826 -0.05126937
vn -0.9749067 0.2217636 -0.01943969
vn -0.9748998 0.2218017 -0.01934814
vn -0.9748766 0.2225495 0.009338382
vn -0.9748707 0.222566 0.009567317
vn -0.9748624 0.2201231 0.03448484
vn -0.9748584 0.2201237 0.03459175
vn -0.9748591 0.2150879 0.05819701
vn -0.9748573 0.215088 0.05822757
vn -0.9748554 0.2075806 0.08103942
vn -0.974851 0.2075801 0.08109268
vn -0.9748505 0.1980669 0.1021577
vn -0.9748434 0.1980586 0.1022413
vn -0.9748427 0.1872102 0.1209718
vn -0.974839 0.1871648 0.1210712
vn -0.9748343 0.1757285 0.137177
vn -0.9748263 0.1756896 0.1372833
vn -0.9748208 0.1643066 0.1507568
vn -0.9748192 0.1642459 0.1508334
vn -0.9748119 0.1534806 0.1618195
vn -0.9748119 0.1534123 0.1618841
vn -0.9748048 0.1436766 0.1706236
vn -0.974801 0.1436309 0.1706847
vn -0.974799 0.1351851 0.1774595
vn -0.9747945 0.1351015 0.1775476
vn -0.9747866 0.131279 0.1804352
vn -0.9747774 0.1311797 0.1805572
g fxMesh_KnightA_skill03_line_swordTop_0
f 3/3/3 2/2/2 1/1/1
f 4/4/4 1/1/1 2/2/2
f 2/2/2 5/5/5 4/4/4
f 6/6/6 4/4/4 5/5/5
f 5/5/5 7/7/7 6/6/6
f 8/8/8 6/6/6 7/7/7
f 7/7/7 9/9/9 8/8/8
f 10/10/10 8/8/8 9/9/9
f 9/9/9 11/11/11 10/10/10
f 12/12/12 10/10/10 11/11/11
f 11/11/11 13/13/13 12/12/12
f 14/14/14 12/12/12 13/13/13
f 13/13/13 15/15/15 14/14/14
f 16/16/16 14/14/14 15/15/15
f 15/15/15 17/17/17 16/16/16
f 18/18/18 16/16/16 17/17/17
f 17/17/17 19/19/19 18/18/18
f 20/20/20 18/18/18 19/19/19
f 19/19/19 21/21/21 20/20/20
f 22/22/22 20/20/20 21/21/21
f 21/21/21 23/23/23 22/22/22
f 24/24/24 22/22/22 23/23/23
f 23/23/23 25/25/25 24/24/24
f 26/26/26 24/24/24 25/25/25
f 25/25/25 27/27/27 26/26/26
f 28/28/28 26/26/26 27/27/27
f 27/27/27 29/29/29 28/28/28
f 30/30/30 28/28/28 29/29/29
f 29/29/29 31/31/31 30/30/30
f 32/32/32 30/30/30 31/31/31
f 31/31/31 33/33/33 32/32/32
f 34/34/34 32/32/32 33/33/33
f 33/33/33 35/35/35 34/34/34
f 36/36/36 34/34/34 35/35/35
f 35/35/35 37/37/37 36/36/36
f 38/38/38 36/36/36 37/37/37
f 37/37/37 39/39/39 38/38/38
f 40/40/40 38/38/38 39/39/39
f 39/39/39 41/41/41 40/40/40
f 42/42/42 40/40/40 41/41/41
f 41/41/41 43/43/43 42/42/42
f 44/44/44 42/42/42 43/43/43
f 43/43/43 45/45/45 44/44/44
f 46/46/46 44/44/44 45/45/45
f 45/45/45 47/47/47 46/46/46
f 48/48/48 46/46/46 47/47/47
f 47/47/47 49/49/49 48/48/48
f 50/50/50 48/48/48 49/49/49
f 49/49/49 51/51/51 50/50/50
f 52/52/52 50/50/50 51/51/51
f 51/51/51 53/53/53 52/52/52
f 54/54/54 52/52/52 53/53/53
f 53/53/53 55/55/55 54/54/54
f 56/56/56 54/54/54 55/55/55
f 55/55/55 57/57/57 56/56/56
f 58/58/58 56/56/56 57/57/57
f 57/57/57 59/59/59 58/58/58
f 60/60/60 58/58/58 59/59/59
f 59/59/59 61/61/61 60/60/60
f 62/62/62 60/60/60 61/61/61
f 61/61/61 63/63/63 62/62/62
f 64/64/64 62/62/62 63/63/63
f 63/63/63 65/65/65 64/64/64
f 66/66/66 64/64/64 65/65/65
f 65/65/65 67/67/67 66/66/66
f 68/68/68 66/66/66 67/67/67
f 71/71/71 70/70/70 69/69/69
f 72/72/72 69/69/69 70/70/70
f 70/70/70 73/73/73 72/72/72
f 74/74/74 72/72/72 73/73/73
f 73/73/73 75/75/75 74/74/74
f 76/76/76 74/74/74 75/75/75
f 75/75/75 77/77/77 76/76/76
f 78/78/78 76/76/76 77/77/77
f 77/77/77 79/79/79 78/78/78
f 80/80/80 78/78/78 79/79/79
f 79/79/79 81/81/81 80/80/80
f 82/82/82 80/80/80 81/81/81
f 81/81/81 83/83/83 82/82/82
f 84/84/84 82/82/82 83/83/83
f 83/83/83 85/85/85 84/84/84
f 86/86/86 84/84/84 85/85/85
f 85/85/85 87/87/87 86/86/86
f 88/88/88 86/86/86 87/87/87
f 87/87/87 89/89/89 88/88/88
f 90/90/90 88/88/88 89/89/89
f 89/89/89 91/91/91 90/90/90
f 92/92/92 90/90/90 91/91/91
f 91/91/91 93/93/93 92/92/92
f 94/94/94 92/92/92 93/93/93
f 93/93/93 95/95/95 94/94/94
f 96/96/96 94/94/94 95/95/95
f 95/95/95 97/97/97 96/96/96
f 98/98/98 96/96/96 97/97/97
f 97/97/97 99/99/99 98/98/98
f 100/100/100 98/98/98 99/99/99
f 99/99/99 101/101/101 100/100/100
f 102/102/102 100/100/100 101/101/101
f 101/101/101 103/103/103 102/102/102
f 104/104/104 102/102/102 103/103/103
f 103/103/103 105/105/105 104/104/104
f 106/106/106 104/104/104 105/105/105
f 105/105/105 107/107/107 106/106/106
f 108/108/108 106/106/106 107/107/107
f 107/107/107 109/109/109 108/108/108
f 110/110/110 108/108/108 109/109/109
f 109/109/109 111/111/111 110/110/110
f 112/112/112 110/110/110 111/111/111
f 111/111/111 113/113/113 112/112/112
f 114/114/114 112/112/112 113/113/113
f 113/113/113 115/115/115 114/114/114
f 116/116/116 114/114/114 115/115/115
f 115/115/115 117/117/117 116/116/116
f 118/118/118 116/116/116 117/117/117
f 117/117/117 119/119/119 118/118/118
f 120/120/120 118/118/118 119/119/119
f 119/119/119 121/121/121 120/120/120
f 122/122/122 120/120/120 121/121/121
f 121/121/121 123/123/123 122/122/122
f 124/124/124 122/122/122 123/123/123
f 123/123/123 125/125/125 124/124/124
f 126/126/126 124/124/124 125/125/125
f 125/125/125 127/127/127 126/126/126
f 128/128/128 126/126/126 127/127/127
f 127/127/127 129/129/129 128/128/128
f 130/130/130 128/128/128 129/129/129
f 129/129/129 131/131/131 130/130/130
f 132/132/132 130/130/130 131/131/131
f 131/131/131 133/133/133 132/132/132
f 134/134/134 132/132/132 133/133/133
f 133/133/133 135/135/135 134/134/134
f 136/136/136 134/134/134 135/135/135
