g worldmap_ep03_mesh3
v -6.583629 -168.6512 0
v -6.583629 -126.3975 0
v -109.335 -126.3975 0
v -109.335 -168.6512 0
v -89.31951 -145.1319 0
v -89.31951 -128.0015 0
v -130.9776 -128.0015 0
v -130.9776 -145.1319 0
v -214.975 -177.9717 0
v -214.975 -155.6516 0
v -267.3824 -155.6516 0
v -267.3824 -177.9717 0
v -159.9787 -167.4521 0
v -159.9787 -144.2015 0
v -201.0994 -144.2015 0
v -201.0994 -167.4521 0
v -455.5169 -314.1154 0
v -455.5169 -300.6837 0
v -482.3769 -300.6837 0
v -482.3769 -314.1154 0
v -163.2373 -223.1531 0
v -163.2373 -214.9772 0
v -179.589 -214.9772 0
v -179.589 -223.1531 0
v -161.5672 -224.0639 0
v -161.5672 -214.7201 0
v -180.6442 -214.7201 0
v -180.6442 -224.0639 0
v -461.8086 -307.0686 0
v -461.8086 -283.3118 0
v -519.5846 -283.3118 0
v -519.5846 -307.0686 0
v -167.4927 -138.6807 0
v -167.4927 -121.5502 0
v -209.1508 -121.5502 0
v -209.1508 -138.6807 0
v -294.5263 -169.2741 0
v -294.5263 -153.5219 0
v -330.7493 -153.5219 0
v -330.7493 -169.2741 0
v -315.5811 -80.39452 0
v -315.5811 -67.05225 0
v -346.264 -67.05225 0
v -346.264 -80.39452 0
v -91.41814 -125.7668 0
v -91.41814 -112.4284 0
v -60.7935 -112.4284 0
v -60.7935 -125.7668 0
vt 0.6176758 0.9550781
vt 0.6176758 0.9980469
vt 0.6699219 0.9980469
vt 0.6699219 0.9550781
vt 0.6176758 0.9550781
vt 0.6176758 0.9980469
vt 0.6699219 0.9980469
vt 0.6699219 0.9550781
vt 0.6176758 0.9550781
vt 0.6176758 0.9980469
vt 0.6699219 0.9980469
vt 0.6699219 0.9550781
vt 0.5366211 0.8046875
vt 0.5366211 0.8251953
vt 0.5571289 0.8251953
vt 0.5571289 0.8046875
vt 0.5366211 0.8046875
vt 0.5366211 0.8251953
vt 0.5571289 0.8251953
vt 0.5571289 0.8046875
vt 0.5366211 0.8046875
vt 0.5366211 0.8251953
vt 0.5571289 0.8251953
vt 0.5571289 0.8046875
vt 0.5117188 0.8046875
vt 0.5117188 0.828125
vt 0.5356445 0.828125
vt 0.5356445 0.8046875
vt 0.6176758 0.9550781
vt 0.6176758 0.9980469
vt 0.6699219 0.9980469
vt 0.6699219 0.9550781
vt 0.6176758 0.9550781
vt 0.6176758 0.9980469
vt 0.6699219 0.9980469
vt 0.6699219 0.9550781
vt 0.7158203 0.8955078
vt 0.7158203 0.9248047
vt 0.7495117 0.9248047
vt 0.7495117 0.8955078
vt 0.7158203 0.8955078
vt 0.7158203 0.9248047
vt 0.7495117 0.9248047
vt 0.7495117 0.8955078
vt 0.7158203 0.8955078
vt 0.7158203 0.9248047
vt 0.7495117 0.9248047
vt 0.7495117 0.8955078
vn 0 0 -1
vn 0 0 -1
vn 0 0 -1
vn 0 0 -1
vn 0 0 -1
vn 0 0 -1
vn 0 0 -1
vn 0 0 -1
vn 0 0 -1
vn 0 0 -1
vn 0 0 -1
vn 0 0 -1
vn 0 0 -1
vn 0 0 -1
vn 0 0 -1
vn 0 0 -1
vn 0 0 -1
vn 0 0 -1
vn 0 0 -1
vn 0 0 -1
vn 0 0 -1
vn 0 0 -1
vn 0 0 -1
vn 0 0 -1
vn 0 0 -1
vn 0 0 -1
vn 0 0 -1
vn 0 0 -1
vn 0 0 -1
vn 0 0 -1
vn 0 0 -1
vn 0 0 -1
vn 0 0 -1
vn 0 0 -1
vn 0 0 -1
vn 0 0 -1
vn 0 0 -1
vn 0 0 -1
vn 0 0 -1
vn 0 0 -1
vn 0 0 -1
vn 0 0 -1
vn 0 0 -1
vn 0 0 -1
vn 0 0 1
vn 0 0 1
vn 0 0 1
vn 0 0 1
g worldmap_ep03_mesh3_0
f 3/3/3 2/2/2 1/1/1
f 4/4/4 3/3/3 1/1/1
f 7/7/7 6/6/6 5/5/5
f 8/8/8 7/7/7 5/5/5
f 7/7/7 6/6/6 5/5/5
f 8/8/8 7/7/7 5/5/5
f 11/11/11 10/10/10 9/9/9
f 12/12/12 11/11/11 9/9/9
f 15/15/15 14/14/14 13/13/13
f 16/16/16 15/15/15 13/13/13
f 19/19/19 18/18/18 17/17/17
f 20/20/20 19/19/19 17/17/17
f 23/23/23 22/22/22 21/21/21
f 24/24/24 23/23/23 21/21/21
f 27/27/27 26/26/26 25/25/25
f 28/28/28 27/27/27 25/25/25
f 31/31/31 30/30/30 29/29/29
f 32/32/32 31/31/31 29/29/29
f 35/35/35 34/34/34 33/33/33
f 36/36/36 35/35/35 33/33/33
f 39/39/39 38/38/38 37/37/37
f 40/40/40 39/39/39 37/37/37
f 43/43/43 42/42/42 41/41/41
f 44/44/44 43/43/43 41/41/41
f 47/47/47 46/46/46 45/45/45
f 48/48/48 47/47/47 45/45/45
