g worldmap_ep04_mesh0
v -2274.365 -951.1433 0
v -2274.365 1.005859 0
v -4521.263 1.005859 0
v -4521.263 -951.1433 0
v -6280.944 -5434.833 0
v -6280.944 -3989.757 0
v -8120.11 -3989.757 0
v -8120.11 -5434.833 0
v -1193.867 -1550.943 0
v -1193.867 412.2754 0
v -2773.659 412.2754 0
v -2773.658 -1550.943 0
v -641.769 -1394.5 0
v -663.4468 468.4653 0
v -3394.378 432.2344 0
v -3372.7 -1430.73 0
v -9279.738 -3086.924 0
v -9279.738 -1409.709 0
v -11118.9 -1409.709 0
v -11118.9 -3086.924 0
v -2642.785 -926.8384 0
v -2642.785 442.3413 0
v -7024.15 442.3413 0
v -7024.15 -926.8384 0
v -7864.273 -888.991 0
v -7864.273 444.3115 0
v -4274.572 444.3115 0
v -4274.572 -888.991 0
v 538.4761 -2170.803 0
v 538.4761 460.3809 0
v -1472.443 460.3809 0
v -1472.443 -2170.803 0
v -7422.988 -5324.98 0
v -7422.988 -1954.936 0
v -11541.95 -1954.936 0
v -11541.95 -5324.98 0
v -728.5806 -5448.225 0
v -728.5806 -4003.147 0
v -2567.747 -4003.147 0
v -2567.747 -5448.225 0
v -10885.96 -893.1343 0
v -8875.037 -893.1343 0
v -8875.037 355.479 0
v -10885.96 355.479 0
vt 0.1347656 0.7207031
vt 0.1347656 0.7792969
vt 0.3222656 0.7792969
vt 0.3222656 0.7207031
vt 0.2705078 0.78125
vt 0.2705078 0.8564453
vt 0.3662109 0.8564453
vt 0.3662109 0.78125
vt 0.671875 0.1611328
vt 0.671875 0.2861328
vt 0.7724609 0.2861328
vt 0.7724609 0.1611328
vt 0.1347656 0.78125
vt 0.1347656 0.8613281
vt 0.2685547 0.8613281
vt 0.2685547 0.78125
vt 0.2705078 0.78125
vt 0.2705078 0.8564453
vt 0.3662109 0.8564453
vt 0.3662109 0.78125
vt 0.1347656 0.6601563
vt 0.1347656 0.71875
vt 0.3222656 0.71875
vt 0.3222656 0.6601563
vt 0.1347656 0.6601563
vt 0.1347656 0.71875
vt 0.3222656 0.71875
vt 0.3222656 0.6601563
vt 0.1455078 0.8632813
vt 0.1455078 0.9882813
vt 0.2460938 0.9882813
vt 0.2460938 0.8632813
vt 0.3603516 0.1669922
vt 0.3603516 0.3164063
vt 0.5429688 0.3164063
vt 0.5429688 0.1669922
vt 0.2705078 0.78125
vt 0.2705078 0.8564453
vt 0.3662109 0.8564453
vt 0.3662109 0.78125
vt 0.2460938 0.8632813
vt 0.1455078 0.8632813
vt 0.1455078 0.9257385
vt 0.2460938 0.9257385
vn 0 0 -1
vn 0 0 -1
vn 0 0 -1
vn 0 0 -1
vn 0 0 -1
vn 0 0 -1
vn 0 0 -1
vn 0 0 -1
vn 0 0 -1
vn 0 0 -1
vn 0 0 -1
vn 0 0 -1
vn 0 0 -1
vn 0 0 -1
vn 0 0 -1
vn 0 0 -1
vn 0 0 -1
vn 0 0 -1
vn 0 0 -1
vn 0 0 -1
vn 0 0 -1
vn 0 0 -1
vn 0 0 -1
vn 0 0 -1
vn 0 0 1
vn 0 0 1
vn 0 0 1
vn 0 0 1
vn 0 0 -1
vn 0 0 -1
vn 0 0 -1
vn 0 0 -1
vn 0 0 -1
vn 0 0 -1
vn 0 0 -1
vn 0 0 -1
vn 0 0 -1
vn 0 0 -1
vn 0 0 -1
vn 0 0 -1
vn 0 0 -1
vn 0 0 -1
vn 0 0 -1
vn 0 0 -1
g worldmap_ep04_mesh0_0
f 3/3/3 2/2/2 1/1/1
f 4/4/4 3/3/3 1/1/1
f 7/7/7 6/6/6 5/5/5
f 8/8/8 7/7/7 5/5/5
f 11/11/11 10/10/10 9/9/9
f 12/12/12 11/11/11 9/9/9
f 15/15/15 14/14/14 13/13/13
f 16/16/16 15/15/15 13/13/13
f 19/19/19 18/18/18 17/17/17
f 20/20/20 19/19/19 17/17/17
f 23/23/23 22/22/22 21/21/21
f 24/24/24 23/23/23 21/21/21
f 27/27/27 26/26/26 25/25/25
f 28/28/28 27/27/27 25/25/25
f 7/7/7 6/6/6 5/5/5
f 8/8/8 7/7/7 5/5/5
f 31/31/31 30/30/30 29/29/29
f 32/32/32 31/31/31 29/29/29
f 35/35/35 34/34/34 33/33/33
f 36/36/36 35/35/35 33/33/33
f 39/39/39 38/38/38 37/37/37
f 40/40/40 39/39/39 37/37/37
f 43/43/43 42/42/42 41/41/41
f 44/44/44 43/43/43 41/41/41
