g worldmap_ep04_mesh3
v -8147.094 -824.7664 0
v -8167.356 -790.2034 0
v -8246.288 -836.54 0
v -8147.094 -824.7664 0
v -8246.288 -836.54 0
v -8226.022 -871.0525 0
v -2447.332 -4310.525 0
v -2467.595 -4275.963 0
v -2546.523 -4322.298 0
v -2447.332 -4310.525 0
v -2546.523 -4322.298 0
v -2526.26 -4356.812 0
v -3009.537 -4063.38 0
v -3029.799 -4028.867 0
v -3108.678 -4075.154 0
v -3009.537 -4063.38 0
v -3108.678 -4075.154 0
v -3088.414 -4109.717 0
v -4028.386 -3554.687 0
v -4048.649 -3520.175 0
v -4127.529 -3566.461 0
v -4107.266 -3600.974 0
v -5459.113 -2168.782 0
v -5479.376 -2134.219 0
v -5558.254 -2180.556 0
v -5459.113 -2168.782 0
v -5558.254 -2180.556 0
v -5537.991 -2215.068 0
v -4990.845 -2160.091 0
v -5011.107 -2125.578 0
v -5090.037 -2171.865 0
v -5069.774 -2206.377 0
v -6003.48 -2381.668 0
v -6023.742 -2347.105 0
v -6102.672 -2393.441 0
v -6003.48 -2381.668 0
v -6102.672 -2393.441 0
v -6082.41 -2427.954 0
v -7477.107 -2776.312 0
v -7497.37 -2741.8 0
v -7576.299 -2788.086 0
v -7556.036 -2822.598 0
v -6308.838 -2787.278 0
v -6329.101 -2752.765 0
v -6408.029 -2799.102 0
v -6387.766 -2833.615 0
v -7475.136 -1236.642 0
v -7495.348 -1202.079 0
v -7574.278 -1248.416 0
v -7475.136 -1236.642 0
v -7574.278 -1248.416 0
v -7554.016 -1282.928 0
v -4895.594 -2161.202 0
v -4895.594 -2095.512 0
v -4941.071 -2095.512 0
v -4941.071 -2161.202 0
v -1182.699 -4170.606 0
v -1111.098 -4041.753 0
v -1431.563 -3863.632 0
v -1503.166 -3992.485 0
v -3666.284 -2791.674 0
v -3721.615 -2684.043 0
v -3989.427 -2821.74 0
v -3666.284 -2791.674 0
v -3989.427 -2821.74 0
v -3934.046 -2929.421 0
v -5561.69 -2253.219 0
v -5622.327 -2129.671 0
v -5929.655 -2280.505 0
v -5869.018 -2404.052 0
v -6501.662 -2892.229 0
v -6555.023 -2783.539 0
v -6825.312 -2916.232 0
v -6501.662 -2892.229 0
v -6825.312 -2916.232 0
v -6772.002 -3024.873 0
v -8708.691 -880.4004 0
v -8652.855 -763.1189 0
v -8924.758 -633.6589 0
v -8708.691 -880.4004 0
v -8924.758 -633.6589 0
v -8980.598 -750.9917 0
v -8067.913 -1178.027 0
v -8012.075 -1060.694 0
v -8283.98 -931.2852 0
v -8339.818 -1048.617 0
v -9271.15 -574.4878 0
v -9192.016 -411.4756 0
v -8739.92 -630.9302 0
v -8819.053 -793.8918 0
v -4629.399 -2228.307 0
v -4551.077 -2066.912 0
v -4094.582 -2288.439 0
v -4172.905 -2449.885 0
v -8745.428 -710.7185 0
v -8667.104 -549.2729 0
v -8210.562 -770.8501 0
v -8288.934 -932.2449 0
v -8039.059 -1103.646 0
v -7960.686 -942.25 0
v -7504.191 -1163.777 0
v -7582.514 -1325.222 0
v -7715.814 -1381.514 0
v -7637.492 -1220.118 0
v -7180.998 -1441.696 0
v -7259.32 -1603.09 0
v -7212.731 -1511.226 0
v -7134.358 -1349.831 0
v -6677.863 -1571.358 0
v -6756.186 -1732.803 0
v -5213.635 -1976.614 0
v -5135.313 -1815.219 0
v -4678.818 -2036.796 0
v -4757.141 -2198.191 0
v -2967.747 -4158.882 0
v -2906.151 -4031.899 0
v -2563.906 -4197.994 0
v -2625.503 -4324.977 0
v -220.8481 -4709.617 0
v -142.4751 -4548.222 0
v 314.019 -4769.749 0
v 235.6968 -4931.144 0
v -716.4536 -4459.339 0
v -619.1313 -4258.782 0
v -138.3818 -4492.134 0
v -235.7041 -4692.689 0
v -1219.941 -4283.997 0
v -1141.618 -4122.552 0
v -685.1245 -4344.128 0
v -763.4468 -4505.524 0
v -1987.3 -3731.697 0
v -1908.977 -3570.25 0
v -1452.483 -3791.828 0
v -1530.806 -3953.223 0
v -3393.923 -3914.011 0
v -3315.601 -3752.565 0
v -2859.107 -3974.143 0
v -2937.429 -4135.538 0
v -3910.802 -3727.25 0
v -3832.479 -3565.855 0
v -3375.935 -3787.381 0
v -3910.802 -3727.25 0
v -3375.935 -3787.381 0
v -3454.308 -3948.827 0
v -4223.182 -3457.365 0
v -4144.86 -3295.971 0
v -3688.315 -3517.547 0
v -3766.688 -3678.942 0
v -4307.063 -2544.933 0
v -4228.74 -2383.538 0
v -3772.247 -2605.115 0
v -3850.569 -2766.509 0
v -8436.584 -2447.661 0
v -8358.26 -2286.266 0
v -7901.767 -2507.843 0
v -7980.09 -2669.238 0
v -7479.482 -2873.432 0
v -7380.695 -2637.404 0
v -6782.966 -2887.48 0
v -6881.754 -3123.56 0
v -4724.952 -3297.537 0
v -4645.822 -3134.575 0
v -4193.774 -3353.929 0
v -4272.905 -3516.941 0
v -1985.835 -3633.768 0
v -2049.908 -3515.93 0
v -2378.054 -3694.506 0
v -1985.835 -3633.768 0
v -2378.054 -3694.506 0
v -2313.981 -3812.292 0
v -2138.437 -3907.088 0
v -2243.188 -3714.516 0
v -2779.622 -4006.381 0
v -2674.821 -4198.954 0
v -6929.455 -1748.821 0
v -7008.435 -1603.697 0
v -7412.63 -1823.657 0
v -7333.701 -1968.781 0
v -7403.635 -1917.038 0
v -7509.194 -1723.05 0
v -8049.62 -2017.089 0
v -7944.063 -2211.076 0
v -8022.283 -2168.933 0
v -8094.087 -2036.998 0
v -8434.563 -2222.244 0
v -8022.283 -2168.933 0
v -8434.563 -2222.244 0
v -8362.758 -2354.23 0
v -6430.769 -2680.354 0
v -6516.519 -2522.749 0
v -6955.58 -2761.659 0
v -6869.83 -2919.264 0
v -5782.257 -2532.35 0
v -5908.938 -2299.556 0
v -6450.93 -2594.452 0
v -6324.25 -2827.247 0
v -5063.256 -2136.038 0
v -5149.007 -1978.433 0
v -5588.068 -2217.292 0
v -5502.317 -2374.897 0
v -3967.295 -2971.816 0
v -4085.082 -2755.343 0
v -4688.166 -3083.489 0
v -4570.379 -3299.962 0
v -7619.906 -2826.287 0
v -7570.741 -2674.14 0
v -7973.42 -2544.073 0
v -8022.535 -2696.272 0
vt 0.5283203 0.5371094
vt 0.5146484 0.5371094
vt 0.5146484 0.5683594
vt 0.5283203 0.5371094
vt 0.5146484 0.5683594
vt 0.5283203 0.5683594
vt 0.5283203 0.5371094
vt 0.5146484 0.5371094
vt 0.5146484 0.5683594
vt 0.5283203 0.5371094
vt 0.5146484 0.5683594
vt 0.5283203 0.5683594
vt 0.5283203 0.5371094
vt 0.5146484 0.5371094
vt 0.5146484 0.5683594
vt 0.5283203 0.5371094
vt 0.5146484 0.5683594
vt 0.5283203 0.5683594
vt 0.5283203 0.5371094
vt 0.5146484 0.5371094
vt 0.5146484 0.5683594
vt 0.5283203 0.5683594
vt 0.5283203 0.5371094
vt 0.5146484 0.5371094
vt 0.5146484 0.5683594
vt 0.5283203 0.5371094
vt 0.5146484 0.5683594
vt 0.5283203 0.5683594
vt 0.5283203 0.5371094
vt 0.5146484 0.5371094
vt 0.5146484 0.5683594
vt 0.5283203 0.5683594
vt 0.5283203 0.5371094
vt 0.5146484 0.5371094
vt 0.5146484 0.5683594
vt 0.5283203 0.5371094
vt 0.5146484 0.5683594
vt 0.5283203 0.5683594
vt 0.5283203 0.5371094
vt 0.5146484 0.5371094
vt 0.5146484 0.5683594
vt 0.5283203 0.5683594
vt 0.5283203 0.5371094
vt 0.5146484 0.5371094
vt 0.5146484 0.5683594
vt 0.5283203 0.5683594
vt 0.5283203 0.5371094
vt 0.5146484 0.5371094
vt 0.5146484 0.5683594
vt 0.5283203 0.5371094
vt 0.5146484 0.5683594
vt 0.5283203 0.5683594
vt 0.5322266 0.3857422
vt 0.5322266 0.3984375
vt 0.5410156 0.3984375
vt 0.5410156 0.3857422
vt 0.6601563 0.2880859
vt 0.6601563 0.3212891
vt 0.7578125 0.3212891
vt 0.7578125 0.2880859
vt 0.6601563 0.2880859
vt 0.6601563 0.3212891
vt 0.7578125 0.3212891
vt 0.6601563 0.2880859
vt 0.7578125 0.3212891
vt 0.7578125 0.2880859
vt 0.6601563 0.2880859
vt 0.6601563 0.3212891
vt 0.7578125 0.3212891
vt 0.7578125 0.2880859
vt 0.6601563 0.2880859
vt 0.6601563 0.3212891
vt 0.7578125 0.3212891
vt 0.6601563 0.2880859
vt 0.7578125 0.3212891
vt 0.7578125 0.2880859
vt 0.6601563 0.2880859
vt 0.6601563 0.3212891
vt 0.7578125 0.3212891
vt 0.6601563 0.2880859
vt 0.7578125 0.3212891
vt 0.7578125 0.2880859
vt 0.6601563 0.2880859
vt 0.6601563 0.3212891
vt 0.7578125 0.3212891
vt 0.7578125 0.2880859
vt 0.5429688 0.09082031
vt 0.5429688 0.1591797
vt 0.7333984 0.1591797
vt 0.7333984 0.09082031
vt 0.5429688 0.09082031
vt 0.5429688 0.1591797
vt 0.7333984 0.1591797
vt 0.7333984 0.09082031
vt 0.5429688 0.09082031
vt 0.5429688 0.1591797
vt 0.7333984 0.1591797
vt 0.7333984 0.09082031
vt 0.5429688 0.09082031
vt 0.5429688 0.1591797
vt 0.7333984 0.1591797
vt 0.7333984 0.09082031
vt 0.5429688 0.09082031
vt 0.5429688 0.1591797
vt 0.7333984 0.1591797
vt 0.7333984 0.09082031
vt 0.5429688 0.09082031
vt 0.5429688 0.1591797
vt 0.7333984 0.1591797
vt 0.7333984 0.09082031
vt 0.5429688 0.09082031
vt 0.5429688 0.1591797
vt 0.7333984 0.1591797
vt 0.7333984 0.09082031
vt 0.5429688 0.09082031
vt 0.5429688 0.1591797
vt 0.7333984 0.1591797
vt 0.7333984 0.09082031
vt 0.5429688 0.09082031
vt 0.5429688 0.1591797
vt 0.7333984 0.1591797
vt 0.7333984 0.09082031
vt 0.5429688 0.09082031
vt 0.5429688 0.1591797
vt 0.7333984 0.1591797
vt 0.7333984 0.09082031
vt 0.5429688 0.09082031
vt 0.5429688 0.1591797
vt 0.7333984 0.1591797
vt 0.7333984 0.09082031
vt 0.5429688 0.09082031
vt 0.5429688 0.1591797
vt 0.7333984 0.1591797
vt 0.7333984 0.09082031
vt 0.5429688 0.09082031
vt 0.5429688 0.1591797
vt 0.7333984 0.1591797
vt 0.7333984 0.09082031
vt 0.5429688 0.09082031
vt 0.5429688 0.1591797
vt 0.7333984 0.1591797
vt 0.5429688 0.09082031
vt 0.7333984 0.1591797
vt 0.7333984 0.09082031
vt 0.5429688 0.09082031
vt 0.5429688 0.1591797
vt 0.7333984 0.1591797
vt 0.7333984 0.09082031
vt 0.5429688 0.09082031
vt 0.5429688 0.1591797
vt 0.7333984 0.1591797
vt 0.7333984 0.09082031
vt 0.5429688 0.09082031
vt 0.5429688 0.1591797
vt 0.7333984 0.1591797
vt 0.7333984 0.09082031
vt 0.5429688 0.09082031
vt 0.5429688 0.1591797
vt 0.7333984 0.1591797
vt 0.7333984 0.09082031
vt 0.5429688 0.09082031
vt 0.5429688 0.1591797
vt 0.7333984 0.1591797
vt 0.7333984 0.09082031
vt 0.5429688 0.09082031
vt 0.5429688 0.1591797
vt 0.7333984 0.1591797
vt 0.5429688 0.09082031
vt 0.7333984 0.1591797
vt 0.7333984 0.09082031
vt 0.5429688 0.09082031
vt 0.5429688 0.1591797
vt 0.7333984 0.1591797
vt 0.7333984 0.09082031
vt 0.5429688 0.09082031
vt 0.5429688 0.1591797
vt 0.7333984 0.1591797
vt 0.7333984 0.09082031
vt 0.5429688 0.09082031
vt 0.5429688 0.1591797
vt 0.7333984 0.1591797
vt 0.7333984 0.09082031
vt 0.5429688 0.09082031
vt 0.5429688 0.1591797
vt 0.7333984 0.1591797
vt 0.5429688 0.09082031
vt 0.7333984 0.1591797
vt 0.7333984 0.09082031
vt 0.5429688 0.09082031
vt 0.5429688 0.1591797
vt 0.7333984 0.1591797
vt 0.7333984 0.09082031
vt 0.5429688 0.09082031
vt 0.5429688 0.1591797
vt 0.7333984 0.1591797
vt 0.7333984 0.09082031
vt 0.5429688 0.09082031
vt 0.5429688 0.1591797
vt 0.7333984 0.1591797
vt 0.7333984 0.09082031
vt 0.5429688 0.09082031
vt 0.5429688 0.1591797
vt 0.7333984 0.1591797
vt 0.7333984 0.09082031
vt 0.6601563 0.2880859
vt 0.6601563 0.3212891
vt 0.7578125 0.3212891
vt 0.7578125 0.2880859
vn 0 0 -1
vn 0 0 -1
vn 0 0 -1
vn 0 0 -1
vn 0 0 -1
vn 0 0 -1
vn 0 0 -1
vn 0 0 -1
vn 0 0 -1
vn 0 0 -1
vn 0 0 -1
vn 0 0 -1
vn 0 0 -1
vn 0 0 -1
vn 0 0 -1
vn 0 0 -1
vn 0 0 -1
vn 0 0 -1
vn 0 0 -1
vn 0 0 -1
vn 0 0 -1
vn 0 0 -1
vn 0 0 -1
vn 0 0 -1
vn 0 0 -1
vn 0 0 -1
vn 0 0 -1
vn 0 0 -1
vn 0 0 -1
vn 0 0 -1
vn 0 0 -1
vn 0 0 -1
vn 0 0 -1
vn 0 0 -1
vn 0 0 -1
vn 0 0 -1
vn 0 0 -1
vn 0 0 -1
vn 0 0 -1
vn 0 0 -1
vn 0 0 -1
vn 0 0 -1
vn 0 0 -1
vn 0 0 -1
vn 0 0 -1
vn 0 0 -1
vn 0 0 -1
vn 0 0 -1
vn 0 0 -1
vn 0 0 -1
vn 0 0 -1
vn 0 0 -1
vn 0 0 -1
vn 0 0 -1
vn 0 0 -1
vn 0 0 -1
vn 0 0 -1
vn 0 0 -1
vn 0 0 -1
vn 0 0 -1
vn 0 0 -1
vn 0 0 -1
vn 0 0 -1
vn 0 0 -1
vn 0 0 -1
vn 0 0 -1
vn 0 0 -1
vn 0 0 -1
vn 0 0 -1
vn 0 0 -1
vn 0 0 -1
vn 0 0 -1
vn 0 0 -1
vn 0 0 -1
vn 0 0 -1
vn 0 0 -1
vn 0 0 -1
vn 0 0 -1
vn 0 0 -1
vn 0 0 -1
vn 0 0 -1
vn 0 0 -1
vn 0 0 -1
vn 0 0 -1
vn 0 0 -1
vn 0 0 -1
vn 0 0 1
vn 0 0 1
vn 0 0 1
vn 0 0 1
vn 0 0 1
vn 0 0 1
vn 0 0 1
vn 0 0 1
vn 0 0 1
vn 0 0 1
vn 0 0 1
vn 0 0 1
vn 0 0 1
vn 0 0 1
vn 0 0 1
vn 0 0 1
vn 0 0 1
vn 0 0 1
vn 0 0 1
vn 0 0 1
vn 0 0 1
vn 0 0 1
vn 0 0 1
vn 0 0 1
vn 0 0 1
vn 0 0 1
vn 0 0 1
vn 0 0 1
vn 0 0 1
vn 0 0 1
vn 0 0 1
vn 0 0 1
vn 0 0 1
vn 0 0 1
vn 0 0 1
vn 0 0 1
vn 0 0 1
vn 0 0 1
vn 0 0 1
vn 0 0 1
vn 0 0 1
vn 0 0 1
vn 0 0 1
vn 0 0 1
vn 0 0 1
vn 0 0 1
vn 0 0 1
vn 0 0 1
vn 0 0 1
vn 0 0 1
vn 0 0 1
vn 0 0 1
vn 0 0 1
vn 0 0 1
vn 0 0 1
vn 0 0 1
vn 0 0 1
vn 0 0 1
vn 0 0 1
vn 0 0 1
vn 0 0 1
vn 0 0 1
vn 0 0 1
vn 0 0 1
vn 0 0 1
vn 0 0 1
vn 0 0 1
vn 0 0 1
vn 0 0 1
vn 0 0 1
vn 0 0 1
vn 0 0 1
vn 0 0 1
vn 0 0 1
vn 0 0 1
vn 0 0 1
vn 0 0 1
vn 0 0 1
vn 0 0 -1
vn 0 0 -1
vn 0 0 -1
vn 0 0 -1
vn 0 0 -1
vn 0 0 -1
vn 0 0 -1
vn 0 0 -1
vn 0 0 -1
vn 0 0 -1
vn 0 0 -1
vn 0 0 -1
vn 0 0 -1
vn 0 0 -1
vn 0 0 -1
vn 0 0 -1
vn 0 0 -1
vn 0 0 -1
vn 0 0 -1
vn 0 0 -1
vn 0 0 -1
vn 0 0 -1
vn 0 0 -1
vn 0 0 -1
vn 0 0 -1
vn 0 0 -1
vn 0 0 -1
vn 0 0 -1
vn 0 0 -1
vn 0 0 -1
vn 0 0 -1
vn 0 0 -1
vn 0 0 -1
vn 0 0 -1
vn 0 0 -1
vn 0 0 -1
vn 0 0 -1
vn 0 0 -1
vn 0 0 -1
vn 0 0 -1
vn 0 0 -1
vn 0 0 -1
vn 0 0 -1
vn 0 0 -1
g worldmap_ep04_mesh3_0
f 3/3/3 2/2/2 1/1/1
f 6/6/6 5/5/5 4/4/4
f 9/9/9 8/8/8 7/7/7
f 12/12/12 11/11/11 10/10/10
f 15/15/15 14/14/14 13/13/13
f 18/18/18 17/17/17 16/16/16
f 21/21/21 20/20/20 19/19/19
f 22/22/22 21/21/21 19/19/19
f 25/25/25 24/24/24 23/23/23
f 28/28/28 27/27/27 26/26/26
f 31/31/31 30/30/30 29/29/29
f 32/32/32 31/31/31 29/29/29
f 35/35/35 34/34/34 33/33/33
f 38/38/38 37/37/37 36/36/36
f 41/41/41 40/40/40 39/39/39
f 42/42/42 41/41/41 39/39/39
f 45/45/45 44/44/44 43/43/43
f 46/46/46 45/45/45 43/43/43
f 49/49/49 48/48/48 47/47/47
f 52/52/52 51/51/51 50/50/50
f 55/55/55 54/54/54 53/53/53
f 56/56/56 55/55/55 53/53/53
f 59/59/59 58/58/58 57/57/57
f 60/60/60 59/59/59 57/57/57
f 63/63/63 62/62/62 61/61/61
f 66/66/66 65/65/65 64/64/64
f 69/69/69 68/68/68 67/67/67
f 70/70/70 69/69/69 67/67/67
f 73/73/73 72/72/72 71/71/71
f 76/76/76 75/75/75 74/74/74
f 79/79/79 78/78/78 77/77/77
f 82/82/82 81/81/81 80/80/80
f 85/85/85 84/84/84 83/83/83
f 86/86/86 85/85/85 83/83/83
f 89/89/89 88/88/88 87/87/87
f 90/90/90 89/89/89 87/87/87
f 93/93/93 92/92/92 91/91/91
f 94/94/94 93/93/93 91/91/91
f 97/97/97 96/96/96 95/95/95
f 98/98/98 97/97/97 95/95/95
f 101/101/101 100/100/100 99/99/99
f 102/102/102 101/101/101 99/99/99
f 105/105/105 104/104/104 103/103/103
f 106/106/106 105/105/105 103/103/103
f 109/109/109 108/108/108 107/107/107
f 110/110/110 109/109/109 107/107/107
f 113/113/113 112/112/112 111/111/111
f 114/114/114 113/113/113 111/111/111
f 117/117/117 116/116/116 115/115/115
f 118/118/118 117/117/117 115/115/115
f 121/121/121 120/120/120 119/119/119
f 122/122/122 121/121/121 119/119/119
f 125/125/125 124/124/124 123/123/123
f 126/126/126 125/125/125 123/123/123
f 129/129/129 128/128/128 127/127/127
f 130/130/130 129/129/129 127/127/127
f 133/133/133 132/132/132 131/131/131
f 134/134/134 133/133/133 131/131/131
f 137/137/137 136/136/136 135/135/135
f 138/138/138 137/137/137 135/135/135
f 141/141/141 140/140/140 139/139/139
f 144/144/144 143/143/143 142/142/142
f 147/147/147 146/146/146 145/145/145
f 148/148/148 147/147/147 145/145/145
f 151/151/151 150/150/150 149/149/149
f 152/152/152 151/151/151 149/149/149
f 155/155/155 154/154/154 153/153/153
f 156/156/156 155/155/155 153/153/153
f 159/159/159 158/158/158 157/157/157
f 160/160/160 159/159/159 157/157/157
f 163/163/163 162/162/162 161/161/161
f 164/164/164 163/163/163 161/161/161
f 167/167/167 166/166/166 165/165/165
f 170/170/170 169/169/169 168/168/168
f 173/173/173 172/172/172 171/171/171
f 174/174/174 173/173/173 171/171/171
f 177/177/177 176/176/176 175/175/175
f 178/178/178 177/177/177 175/175/175
f 181/181/181 180/180/180 179/179/179
f 182/182/182 181/181/181 179/179/179
f 185/185/185 184/184/184 183/183/183
f 188/188/188 187/187/187 186/186/186
f 191/191/191 190/190/190 189/189/189
f 192/192/192 191/191/191 189/189/189
f 195/195/195 194/194/194 193/193/193
f 196/196/196 195/195/195 193/193/193
f 199/199/199 198/198/198 197/197/197
f 200/200/200 199/199/199 197/197/197
f 203/203/203 202/202/202 201/201/201
f 204/204/204 203/203/203 201/201/201
f 207/207/207 206/206/206 205/205/205
f 208/208/208 207/207/207 205/205/205
