g worldmap_ep06_9
v -5597.423 -6645.023 0
v -5597.461 -6073.857 0
v -6669.419 -6073.857 0
v -6669.419 -6645.023 0
v -3056.81 -4572.225 0
v -3056.81 -4176.497 0
v -3557.291 -4176.497 0
v -3557.291 -4572.225 0
v -2877.53 -4130.833 0
v -2877.53 -3281.182 0
v -4165.586 -3281.182 0
v -4165.586 -4130.833 0
v -4561.276 -5246.164 0
v -4563.099 -4313.565 0
v -7656.139 -4319.58 0
v -7654.316 -5252.179 0
vt 0.9955471 0.3168604
vt 0.9491094 0.3168604
vt 0.9491094 0.4496124
vt 0.9955471 0.4496124
vt 0.9980916 0.623062
vt 0.9332061 0.623062
vt 0.9332061 0.748062
vt 0.9980916 0.748062
vt 0.2181934 0.6085271
vt 0.07888041 0.6085271
vt 0.07888041 0.9302325
vt 0.2181934 0.9302325
vt 0.07760815 0.6085271
vt 0.001272265 0.6085271
vt 0.001272265 0.994186
vt 0.07760815 0.994186
vn 0 0 -1
vn 0 0 -1
vn 0 0 -1
vn 0 0 -1
vn 0 0 -1
vn 0 0 -1
vn 0 0 -1
vn 0 0 -1
vn 0 0 -1
vn 0 0 -1
vn 0 0 -1
vn 0 0 -1
vn 0 0 -1
vn 0 0 -1
vn 0 0 -1
vn 0 0 -1
g worldmap_ep06_9_0
f 3/3/3 2/2/2 1/1/1
f 4/4/4 3/3/3 1/1/1
f 7/7/7 6/6/6 5/5/5
f 8/8/8 7/7/7 5/5/5
f 11/11/11 10/10/10 9/9/9
f 12/12/12 11/11/11 9/9/9
f 15/15/15 14/14/14 13/13/13
f 16/16/16 15/15/15 13/13/13
