g worldmap_ep05_mesh2
v -7635.046 2397.34 0
v -7635.046 4860.407 0
v 5179.832 4860.407 0
v 5179.832 2397.34 0
v -7889.994 2277.551 0
v -7889.994 4944.724 0
v 5276.499 4944.724 0
v 5276.499 2277.551 0
v 5669.529 2357.224 0
v 5669.529 4250.039 0
v 1858.83 4250.039 0
v 1858.83 2357.224 0
v 1767.503 2350.91 0
v 1767.501 3850.601 0
v -934.7275 3850.601 0
v -934.7275 2350.91 0
v -309.3145 2354.949 0
v -309.3145 4040.359 0
v -4896.602 4040.359 0
v -4896.602 2354.949 0
v -4474.6 2334.242 0
v -4474.6 4312.161 0
v -7520.409 4312.161 0
v -7520.409 2334.242 0
v 1670.184 -1457.886 0
v 1670.184 -357.7251 0
v 703.3711 -357.7251 0
v 703.3711 -1457.886 0
v 3443.44 -968.0938 0
v 3443.44 132.064 0
v 2476.628 132.064 0
v 2476.628 -968.0938 0
v 2528.49 -1686.786 0
v 2528.49 290.8086 0
v 1424.198 290.8086 0
v 1424.198 -1686.786 0
v -605.4438 -4586.155 0
v -605.4438 -3333.798 0
v -1697.852 -3333.798 0
v -1697.852 -4586.155 0
v 2070.552 -4560.202 0
v 2070.552 -3700.227 0
v 1089.346 -3700.227 0
v 1089.346 -4560.202 0
v 823.3936 -2603.641 0
v 823.3936 -1745.611 0
v 34.08252 -1745.611 0
v 34.08252 -2603.641 0
v 1185.688 -4611.183 0
v 1185.688 -3358.825 0
v 93.28076 -3358.825 0
v 93.28076 -4611.183 0
v 276.2148 -2943.74 0
v 276.2148 -2251.933 0
v -513.0962 -2251.933 0
v -513.0962 -2943.74 0
v 1485.996 -2036.729 0
v 2819.745 -346.8154 0
v -905.1035 -2777.149 0
v -538.5396 -3407.066 0
v 1485.996 -2036.729 0
v -905.1035 -2777.149 0
v 3358.102 -1164.726 0
v 2819.745 -346.8154 0
v 1485.996 -2036.729 0
v 2573.389 -178.043 0
v 3499.575 -714.4473 0
v 3439.264 295.7305 0
v 3382.385 226.2256 0
v 2573.389 -178.043 0
v 3439.264 295.7305 0
v 1389.747 -661.6563 0
v 2500.492 559.917 0
v 919.5967 -614.7158 0
v 1286.346 -1433.138 0
v 1389.747 -661.6563 0
v 919.5967 -614.7158 0
v 2573.389 -178.043 0
v 3382.385 226.2256 0
v 2500.492 559.917 0
v 1389.747 -661.6563 0
v 2573.389 -178.043 0
v 2500.492 559.917 0
v 254.2529 -4380.518 0
v 254.2529 -3280.358 0
v -712.5596 -3280.358 0
v -712.5596 -4380.518 0
v 1148.823 -3831.296 0
v 2270.805 -5262.643 0
v 2227.671 -3332.544 0
v 1929.821 -3904.471 0
v 1148.823 -3831.296 0
v 2227.671 -3332.544 0
v 590.2681 -4076.168 0
v -99.58984 -2525.731 0
v -932.7754 -2345.675 0
v -795.5283 -2543.839 0
v 590.2681 -4076.168 0
v -932.7754 -2345.675 0
v 1148.823 -3831.296 0
v 1929.821 -3904.471 0
v -99.58984 -2525.731 0
v 590.2681 -4076.168 0
v 1148.823 -3831.296 0
v -99.58984 -2525.731 0
v 173.3271 -3800.096 0
v 270.3174 -3221.718 0
v 67.69873 -3100.581 0
v 173.3271 -3800.096 0
v 67.69873 -3100.581 0
v 52.2373 -3755.385 0
v 155.2202 -4671.169 0
v 173.3271 -3800.096 0
v 52.2373 -3755.385 0
v 155.2202 -4671.169 0
v 52.2373 -3755.385 0
v 42.11475 -4478.855 0
v -1545.745 4401.958 0
v -1554.197 4455.026 0
v -1802.829 4415.422 0
v -1794.38 4362.353 0
v -121.2271 4084.7 0
v -147.8311 4168.786 0
v -541.7881 4044.027 0
v -515.1382 3959.944 0
v -2015.665 4064.227 0
v -1980.006 4144.967 0
v -2358.04 4311.836 0
v -2015.665 4064.227 0
v -2358.04 4311.836 0
v -2393.651 4231.141 0
v -3019.668 4079.408 0
v -2983.823 4383.758 0
v -5934.965 4731.379 0
v -5970.809 4427.028 0
v -5813.643 4113.116 0
v -5783.323 4371.359 0
v -8213.473 4656.719 0
v -8243.792 4398.521 0
v 2504.532 4409.201 0
v 2409.397 4849.449 0
v -118.3931 4303.2 0
v -23.30469 3862.997 0
v 5130.896 3785.691 0
v 5130.896 4157.133 0
v 2451.881 4157.133 0
v 2451.881 3785.691 0
vt 0.8818359 0.6591797
vt 0.8818359 0.6904297
vt 0.8974609 0.6904297
vt 0.8974609 0.6591797
vt 0.5849609 0.2109375
vt 0.3349609 0.2109375
vt 0.3349609 0.2421875
vt 0.5849609 0.2421875
vt 0.5629883 0.001953125
vt 0.5629883 0.1865234
vt 0.7485352 0.1865234
vt 0.7485352 0.001953125
vt 0.4282227 0.2441406
vt 0.4282227 0.4023438
vt 0.5703125 0.4023438
vt 0.5703125 0.2441406
vt 0.0009765625 0.4941406
vt 0.0009765625 0.671875
vt 0.2421875 0.671875
vt 0.2421875 0.4941406
vt 0.0009765625 0.6738281
vt 0.0009765625 0.8818359
vt 0.1611328 0.8818359
vt 0.1611328 0.6738281
vt 0.4228516 0.6455078
vt 0.3500977 0.6455078
vt 0.3500977 0.8115234
vt 0.4228516 0.8115234
vt 0.4228516 0.6455078
vt 0.3500977 0.6455078
vt 0.3500977 0.8115234
vt 0.4228516 0.8115234
vt 0.9951172 0.001953125
vt 0.9223633 0.001953125
vt 0.9223633 0.1679688
vt 0.9951172 0.1679688
vt 0.9951172 0.001953125
vt 0.9223633 0.001953125
vt 0.9223633 0.1679688
vt 0.9951172 0.1679688
vt 0.4228516 0.6455078
vt 0.3500977 0.6455078
vt 0.3500977 0.8115234
vt 0.4228516 0.8115234
vt 0.4228516 0.6455078
vt 0.3500977 0.6455078
vt 0.3500977 0.8115234
vt 0.4228516 0.8115234
vt 0.9951172 0.001953125
vt 0.9223633 0.001953125
vt 0.9223633 0.1679688
vt 0.9951172 0.1679688
vt 0.9951172 0.001953125
vt 0.9223633 0.001953125
vt 0.9223633 0.1679688
vt 0.9951172 0.1679688
vt 0.7186772 0.2636719
vt 0.7177398 0.2861328
vt 0.7207031 0.2861328
vt 0.7207031 0.2636719
vt 0.7186772 0.2636719
vt 0.7207031 0.2861328
vt 0.7094727 0.2861328
vt 0.7177398 0.2861328
vt 0.7186772 0.2636719
vt 0.714506 0.2636719
vt 0.7094727 0.2636719
vt 0.7094727 0.2861328
vt 0.7151219 0.2861328
vt 0.714506 0.2636719
vt 0.7094727 0.2861328
vt 0.7186772 0.2636719
vt 0.7177398 0.2861328
vt 0.7207031 0.2861328
vt 0.7207031 0.2636719
vt 0.7186772 0.2636719
vt 0.7207031 0.2861328
vt 0.714506 0.2636719
vt 0.7151219 0.2861328
vt 0.7177398 0.2861328
vt 0.7186772 0.2636719
vt 0.714506 0.2636719
vt 0.7177398 0.2861328
vt 0.4228516 0.6455078
vt 0.3500977 0.6455078
vt 0.3500977 0.8115234
vt 0.4228516 0.8115234
vt 0.714506 0.2636719
vt 0.7094727 0.2636719
vt 0.7094727 0.2861328
vt 0.7151219 0.2861328
vt 0.714506 0.2636719
vt 0.7094727 0.2861328
vt 0.7186772 0.2636719
vt 0.7177398 0.2861328
vt 0.7207031 0.2861328
vt 0.7207031 0.2636719
vt 0.7186772 0.2636719
vt 0.7207031 0.2861328
vt 0.714506 0.2636719
vt 0.7151219 0.2861328
vt 0.7177398 0.2861328
vt 0.7186772 0.2636719
vt 0.714506 0.2636719
vt 0.7177398 0.2861328
vt 0.8818359 0.6775109
vt 0.8818359 0.6904297
vt 0.8974609 0.6904297
vt 0.8818359 0.6775109
vt 0.8974609 0.6904297
vt 0.8974609 0.6755829
vt 0.8818359 0.6591797
vt 0.8818359 0.6775109
vt 0.8974609 0.6755829
vt 0.8818359 0.6591797
vt 0.8974609 0.6755829
vt 0.8974609 0.6591797
vt 0.1621094 0.9736328
vt 0.1621094 0.9921875
vt 0.2055664 0.9921875
vt 0.2055664 0.9736328
vt 0.1621094 0.9736328
vt 0.1621094 0.9921875
vt 0.2055664 0.9921875
vt 0.2055664 0.9736328
vt 0.1621094 0.9736328
vt 0.1621094 0.9921875
vt 0.2055664 0.9921875
vt 0.1621094 0.9736328
vt 0.2055664 0.9921875
vt 0.2055664 0.9736328
vt 0.5859375 0.1884766
vt 0.5859375 0.2207031
vt 0.7421875 0.2207031
vt 0.7421875 0.1884766
vt 0.2602539 0.6816406
vt 0.246582 0.6816406
vt 0.246582 0.9394531
vt 0.2602539 0.9394531
vt 0.4282227 0.4042969
vt 0.4282227 0.4521484
vt 0.5644531 0.4521484
vt 0.5644531 0.4042969
vt 0.5859375 0.2226563
vt 0.5859375 0.2617188
vt 0.7270508 0.2617188
vt 0.7270508 0.2226563
vn 0 0 1
vn 0 0 1
vn 0 0 1
vn 0 0 1
vn 0 0 1
vn 0 0 1
vn 0 0 1
vn 0 0 1
vn 0 0 -1
vn 0 0 -1
vn 0 0 -1
vn 0 0 -1
vn 0 0 -1
vn 0 0 -1
vn 0 0 -1
vn 0 0 -1
vn 0 0 -1
vn 0 0 -1
vn 0 0 -1
vn 0 0 -1
vn 0 0 -1
vn 0 0 -1
vn 0 0 -1
vn 0 0 -1
vn 0 0 -1
vn 0 0 -1
vn 0 0 -1
vn 0 0 -1
vn 0 0 -1
vn 0 0 -1
vn 0 0 -1
vn 0 0 -1
vn 0 0 -1
vn 0 0 -1
vn 0 0 -1
vn 0 0 -1
vn 0 0 -1
vn 0 0 -1
vn 0 0 -1
vn 0 0 -1
vn 0 0 -1
vn 0 0 -1
vn 0 0 -1
vn 0 0 -1
vn 0 0 -1
vn 0 0 -1
vn 0 0 -1
vn 0 0 -1
vn 0 0 -1
vn 0 0 -1
vn 0 0 -1
vn 0 0 -1
vn 0 0 -1
vn 0 0 -1
vn 0 0 -1
vn 0 0 -1
vn 0 0 -1
vn 0 0 -1
vn 0 0 -1
vn 0 0 -1
vn 0 0 -1
vn 0 0 -1
vn 0 0 -1
vn 0 0 -1
vn 0 0 -1
vn 0 0 -1
vn 0 0 -1
vn 0 0 -1
vn 0 0 1
vn 0 0 1
vn 0 0 1
vn 0 0 -1
vn 0 0 -1
vn 0 0 -1
vn 0 0 -1
vn 0 0 -1
vn 0 0 -1
vn 0 0 -1
vn 0 0 -1
vn 0 0 -1
vn 0 0 -1
vn 0 0 -1
vn 0 0 -1
vn 0 0 -1
vn 0 0 -1
vn 0 0 -1
vn 0 0 -1
vn 0 0 -1
vn 0 0 -1
vn 0 0 -1
vn 0 0 1
vn 0 0 1
vn 0 0 1
vn 0 0 -1
vn 0 0 -1
vn 0 0 -1
vn 0 0 -1
vn 0 0 -1
vn 0 0 -1
vn 0 0 -1
vn 0 0 -1
vn 0 0 -1
vn 0 0 -1
vn 0 0 -1
vn 0 0 -1
vn 0 0 -1
vn 0 0 -1
vn 0 0 -1
vn 0 0 -1
vn 0 0 -1
vn 0 0 -1
vn 0 0 -1
vn 0 0 -1
vn 0 0 -1
vn 0 0 -1
vn 0 0 -1
vn 0 0 -1
vn 0 0 -1
vn 0 0 -1
vn 0 0 -1
vn 0 0 -1
vn 0 0 -1
vn 0 0 -1
vn 0 0 -1
vn 0 0 -1
vn 0 0 -1
vn 0 0 -1
vn 0 0 -1
vn 0 0 -1
vn 0 0 -1
vn 0 0 -1
vn 0 0 -1
vn 0 0 -1
vn 0 0 -1
vn 0 0 -1
vn 0 0 -1
vn 0 0 -1
vn 0 0 -1
vn 0 0 -1
vn 0 0 -1
vn 0 0 -1
vn 0 0 -1
vn 0 0 -1
vn 0 0 -1
vn 0 0 -1
vn 0 0 -1
vn 0 0 -1
g worldmap_ep05_mesh2_0
f 3/3/3 2/2/2 1/1/1
f 4/4/4 3/3/3 1/1/1
f 7/7/7 6/6/6 5/5/5
f 8/8/8 7/7/7 5/5/5
f 11/11/11 10/10/10 9/9/9
f 12/12/12 11/11/11 9/9/9
f 15/15/15 14/14/14 13/13/13
f 16/16/16 15/15/15 13/13/13
f 19/19/19 18/18/18 17/17/17
f 20/20/20 19/19/19 17/17/17
f 23/23/23 22/22/22 21/21/21
f 24/24/24 23/23/23 21/21/21
f 27/27/27 26/26/26 25/25/25
f 28/28/28 27/27/27 25/25/25
f 31/31/31 30/30/30 29/29/29
f 32/32/32 31/31/31 29/29/29
f 35/35/35 34/34/34 33/33/33
f 36/36/36 35/35/35 33/33/33
f 39/39/39 38/38/38 37/37/37
f 40/40/40 39/39/39 37/37/37
f 43/43/43 42/42/42 41/41/41
f 44/44/44 43/43/43 41/41/41
f 47/47/47 46/46/46 45/45/45
f 48/48/48 47/47/47 45/45/45
f 51/51/51 50/50/50 49/49/49
f 52/52/52 51/51/51 49/49/49
f 55/55/55 54/54/54 53/53/53
f 56/56/56 55/55/55 53/53/53
f 59/59/59 58/58/58 57/57/57
f 62/62/62 61/61/61 60/60/60
f 65/65/65 64/64/64 63/63/63
f 68/68/68 67/67/67 66/66/66
f 71/71/71 70/70/70 69/69/69
f 74/74/74 73/73/73 72/72/72
f 77/77/77 76/76/76 75/75/75
f 80/80/80 79/79/79 78/78/78
f 83/83/83 82/82/82 81/81/81
f 86/86/86 85/85/85 84/84/84
f 87/87/87 86/86/86 84/84/84
f 90/90/90 89/89/89 88/88/88
f 93/93/93 92/92/92 91/91/91
f 96/96/96 95/95/95 94/94/94
f 99/99/99 98/98/98 97/97/97
f 102/102/102 101/101/101 100/100/100
f 105/105/105 104/104/104 103/103/103
f 108/108/108 107/107/107 106/106/106
f 111/111/111 110/110/110 109/109/109
f 114/114/114 113/113/113 112/112/112
f 117/117/117 116/116/116 115/115/115
f 120/120/120 119/119/119 118/118/118
f 121/121/121 120/120/120 118/118/118
f 124/124/124 123/123/123 122/122/122
f 125/125/125 124/124/124 122/122/122
f 128/128/128 127/127/127 126/126/126
f 131/131/131 130/130/130 129/129/129
f 134/134/134 133/133/133 132/132/132
f 135/135/135 134/134/134 132/132/132
f 138/138/138 137/137/137 136/136/136
f 139/139/139 138/138/138 136/136/136
f 142/142/142 141/141/141 140/140/140
f 143/143/143 142/142/142 140/140/140
f 146/146/146 145/145/145 144/144/144
f 147/147/147 146/146/146 144/144/144
