g worldmap_ep02_l0_mesh
v 347.8144 -1595.662 0
v 347.8143 -671.3682 0
v -2846.834 -671.3682 0
v -2846.834 -1595.662 0
v 2539.1 -1596.683 0
v 2539.1 -1026.942 0
v 743.7687 -1026.942 0
v 743.7687 -1596.683 0
vt 0.71875 0.2578125
vt 0.6181641 0.2578125
vt 0.6181641 0.6054688
vt 0.71875 0.6054688
vt 0.8046875 0.2578125
vt 0.7207031 0.2578125
vt 0.7207031 0.5224609
vt 0.8046875 0.5224609
vn 0 0 -1
vn 0 0 -1
vn 0 0 -1
vn 0 0 -1
vn 0 0 -1
vn 0 0 -1
vn 0 0 -1
vn 0 0 -1
g worldmap_ep02_l0_mesh_0
f 3/3/3 2/2/2 1/1/1
f 4/4/4 3/3/3 1/1/1
f 7/7/7 6/6/6 5/5/5
f 8/8/8 7/7/7 5/5/5
