g worldmap_ep06_4
v -5057.176 -1619.319 0
v -5057.176 -846.2134 0
v -7090.365 -846.2134 0
v -7090.365 -1619.319 0
v -5406.193 -2076.462 0
v -5406.193 -1902.69 0
v -5588.228 -1902.69 0
v -5588.228 -2076.462 0
v -6974.557 -1177.267 0
v -6974.557 -1003.496 0
v -7156.591 -1003.496 0
v -7156.591 -1177.267 0
v -7190.267 -2379.077 0
v -7190.267 -2213.57 0
v -7347.51 -2213.57 0
v -7347.51 -2379.077 0
v -5036.381 -1739.162 0
v -5036.381 -1573.693 0
v -5193.625 -1573.693 0
v -5193.625 -1739.162 0
v -4807.208 -1648.105 0
v -4807.208 -1557.088 0
v -4898.226 -1557.088 0
v -4898.226 -1648.105 0
v -6530.332 -1773.575 0
v -6530.332 -1682.557 0
v -6621.35 -1682.557 0
v -6621.35 -1773.575 0
v -6050.493 -2572.014 0
v -6050.493 -2464.43 0
v -6166.301 -2464.43 0
v -6166.301 -2572.014 0
v -5414.768 -2254.151 0
v -5414.768 -2146.568 0
v -5530.615 -2146.568 0
v -5530.615 -2254.151 0
v -5669.896 -2011.555 0
v -5669.896 -1904.01 0
v -5785.743 -1904.01 0
v -5785.743 -2011.555 0
v -6539.798 -790.3459 0
v -6539.798 -682.7624 0
v -6655.646 -682.7624 0
v -6655.646 -790.3459 0
v -7229.878 -1112.399 0
v -7229.878 -1004.815 0
v -7345.726 -1004.815 0
v -7345.726 -1112.399 0
v -4743.194 -1074.184 0
v -4743.194 -908.715 0
v -4859.002 -908.715 0
v -4859.002 -1074.184 0
vt 0.831425 0.001937985
vt 0.7099237 0.001937985
vt 0.7099237 0.4874031
vt 0.831425 0.4874031
vt 0.1246819 0.5862403
vt 0.1246819 0.6065891
vt 0.1386769 0.6065891
vt 0.1386769 0.5862403
vt 0.1246819 0.5862403
vt 0.1246819 0.6065891
vt 0.1386769 0.6065891
vt 0.1386769 0.5862403
vt 0.1399491 0.5862403
vt 0.1399491 0.6056201
vt 0.1520356 0.6056201
vt 0.1520356 0.5862403
vt 0.1399491 0.5862403
vt 0.1399491 0.6056201
vt 0.1520356 0.6056201
vt 0.1520356 0.5862403
vt 0.173028 0.5862403
vt 0.173028 0.5968992
vt 0.1800254 0.5968992
vt 0.1800254 0.5862403
vt 0.173028 0.5862403
vt 0.173028 0.5968992
vt 0.1800254 0.5968992
vt 0.1800254 0.5862403
vt 0.1717557 0.5862403
vt 0.163486 0.5862403
vt 0.163486 0.5998062
vt 0.1717557 0.5998062
vt 0.1717557 0.5862403
vt 0.163486 0.5862403
vt 0.163486 0.5998062
vt 0.1717557 0.5998062
vt 0.1717557 0.5862403
vt 0.163486 0.5862403
vt 0.163486 0.5998062
vt 0.1717557 0.5998062
vt 0.1717557 0.5862403
vt 0.163486 0.5862403
vt 0.163486 0.5998062
vt 0.1717557 0.5998062
vt 0.1717557 0.5862403
vt 0.163486 0.5862403
vt 0.163486 0.5998062
vt 0.1717557 0.5998062
vt 0.1533079 0.5862403
vt 0.1533079 0.6056201
vt 0.1622137 0.6056201
vt 0.1622137 0.5862403
vn 0 0 -1
vn 0 0 -1
vn 0 0 -1
vn 0 0 -1
vn 0 0 -1
vn 0 0 -1
vn 0 0 -1
vn 0 0 -1
vn 0 0 -1
vn 0 0 -1
vn 0 0 -1
vn 0 0 -1
vn 0 0 -1
vn 0 0 -1
vn 0 0 -1
vn 0 0 -1
vn 0 0 -1
vn 0 0 -1
vn 0 0 -1
vn 0 0 -1
vn 0 0 -1
vn 0 0 -1
vn 0 0 -1
vn 0 0 -1
vn 0 0 -1
vn 0 0 -1
vn 0 0 -1
vn 0 0 -1
vn 0 0 -1
vn 0 0 -1
vn 0 0 -1
vn 0 0 -1
vn 0 0 -1
vn 0 0 -1
vn 0 0 -1
vn 0 0 -1
vn 0 0 -1
vn 0 0 -1
vn 0 0 -1
vn 0 0 -1
vn 0 0 -1
vn 0 0 -1
vn 0 0 -1
vn 0 0 -1
vn 0 0 -1
vn 0 0 -1
vn 0 0 -1
vn 0 0 -1
vn 0 0 -1
vn 0 0 -1
vn 0 0 -1
vn 0 0 -1
g worldmap_ep06_4_0
f 3/3/3 2/2/2 1/1/1
f 4/4/4 3/3/3 1/1/1
f 7/7/7 6/6/6 5/5/5
f 8/8/8 7/7/7 5/5/5
f 11/11/11 10/10/10 9/9/9
f 12/12/12 11/11/11 9/9/9
f 15/15/15 14/14/14 13/13/13
f 16/16/16 15/15/15 13/13/13
f 19/19/19 18/18/18 17/17/17
f 20/20/20 19/19/19 17/17/17
f 23/23/23 22/22/22 21/21/21
f 24/24/24 23/23/23 21/21/21
f 27/27/27 26/26/26 25/25/25
f 28/28/28 27/27/27 25/25/25
f 31/31/31 30/30/30 29/29/29
f 32/32/32 31/31/31 29/29/29
f 35/35/35 34/34/34 33/33/33
f 36/36/36 35/35/35 33/33/33
f 39/39/39 38/38/38 37/37/37
f 40/40/40 39/39/39 37/37/37
f 43/43/43 42/42/42 41/41/41
f 44/44/44 43/43/43 41/41/41
f 47/47/47 46/46/46 45/45/45
f 48/48/48 47/47/47 45/45/45
f 51/51/51 50/50/50 49/49/49
f 52/52/52 51/51/51 49/49/49
