g worldmap_ep06_0
v -11668.98 -6650.843 0
v -11271.11 -4702.232 0
v -12285.5 -4495.135 0
v -12683.32 -6443.785 0
v 50.11816 -5978.571 0
v 880.3711 -4779.245 0
v 322.7451 -4393.216 0
v -507.5078 -5592.582 0
v -701.1826 -11101.58 0
v -701.1826 -8939.624 0
v -3286.139 -8939.624 0
v -3286.139 -11101.58 0
v 2809.855 -7479.738 0
v 1455.301 -4916.042 0
v -1266.18 -6353.969 0
v 88.37109 -8917.667 0
v 1421.898 -10795.9 0
v 1421.898 -7896.339 0
v -1656.128 -7896.339 0
v -1656.128 -10795.9 0
v -12131.86 -9370.037 0
v -11362.56 -6836.68 0
v -14307.74 -5942.297 0
v -15077.08 -8475.653 0
v -12041.54 -7541.581 0
v -11265.29 -5450.081 0
v -13696.85 -4547.667 0
v -14473.06 -6639.166 0
v -10345.73 -10683.78 0
v -10345.73 -7784.216 0
v -13423.72 -7784.216 0
v -13423.72 -10683.78 0
v -8656.943 -11016.73 0
v -8656.943 -8448.96 0
v -11734.93 -8448.96 0
v -11734.93 -11016.73 0
vt 0.8326972 0.2606589
vt 0.8326972 0.4021318
vt 0.8810433 0.4021318
vt 0.8810433 0.2606589
vt 0.8326972 0.2606589
vt 0.8326972 0.4021318
vt 0.8810433 0.4021318
vt 0.8810433 0.2606589
vt 0.990458 0.001937985
vt 0.8912213 0.001937985
vt 0.8912213 0.1831396
vt 0.990458 0.1831396
vt 0.990458 0.001937985
vt 0.8912213 0.001937985
vt 0.8912213 0.1831396
vt 0.990458 0.1831396
vt 0.990458 0.001937985
vt 0.8912213 0.001937985
vt 0.8912213 0.1831396
vt 0.990458 0.1831396
vt 0.990458 0.001937985
vt 0.8912213 0.001937985
vt 0.8912213 0.1831396
vt 0.990458 0.1831396
vt 0.990458 0.001937985
vt 0.8912213 0.001937985
vt 0.8912213 0.1831396
vt 0.990458 0.1831396
vt 0.990458 0.001937985
vt 0.8912213 0.001937985
vt 0.8912213 0.1831396
vt 0.990458 0.1831396
vt 0.990458 0.001937985
vt 0.8912213 0.001937985
vt 0.8912213 0.1831396
vt 0.990458 0.1831396
vn 0 0 -1
vn 0 0 -1
vn 0 0 -1
vn 0 0 -1
vn 0 0 -1
vn 0 0 -1
vn 0 0 -1
vn 0 0 -1
vn 0 0 -1
vn 0 0 -1
vn 0 0 -1
vn 0 0 -1
vn 0 0 -1
vn 0 0 -1
vn 0 0 -1
vn 0 0 -1
vn 0 0 -1
vn 0 0 -1
vn 0 0 -1
vn 0 0 -1
vn 0 0 -1
vn 0 0 -1
vn 0 0 -1
vn 0 0 -1
vn 0 0 -1
vn 0 0 -1
vn 0 0 -1
vn 0 0 -1
vn 0 0 -1
vn 0 0 -1
vn 0 0 -1
vn 0 0 -1
vn 0 0 -1
vn 0 0 -1
vn 0 0 -1
vn 0 0 -1
g worldmap_ep06_0_0
f 3/3/3 2/2/2 1/1/1
f 4/4/4 3/3/3 1/1/1
f 7/7/7 6/6/6 5/5/5
f 8/8/8 7/7/7 5/5/5
f 11/11/11 10/10/10 9/9/9
f 12/12/12 11/11/11 9/9/9
f 15/15/15 14/14/14 13/13/13
f 16/16/16 15/15/15 13/13/13
f 19/19/19 18/18/18 17/17/17
f 20/20/20 19/19/19 17/17/17
f 23/23/23 22/22/22 21/21/21
f 24/24/24 23/23/23 21/21/21
f 27/27/27 26/26/26 25/25/25
f 28/28/28 27/27/27 25/25/25
f 31/31/31 30/30/30 29/29/29
f 32/32/32 31/31/31 29/29/29
f 35/35/35 34/34/34 33/33/33
f 36/36/36 35/35/35 33/33/33
