g worldmap_ep01_l4
v 478.485 -1199.52 0
v 351.36 -933.6825 0
v -261.09 -1226.588 0
v -133.965 -1492.402 0
v -2814.818 -914.76 0
v -2488.05 -214.4025 0
v -2005.83 -401.0625 0
v -2332.62 -1101.42 0
v 588.3076 -645.5475 0
v 268.56 130.6575 0
v -226.3725 -73.2375 0
v 93.39753 -849.42 0
v 2167.034 177.7892 0
v 2308.184 438.7661 0
v 1772.019 651.5397 0
v 1660.796 359.5902 0
v 2321.145 127.5075 0
v 2221.11 334.0575 0
v 1745.213 103.6125 0
v 1845.247 -102.9375 0
v -476.5138 -1370.77 0
v -715.8332 -1105.027 0
v -867.3727 -1258.041 0
v -621.6526 -1509.651 0
v 1075.211 -714.9182 0
v 823.6403 -466.2449 0
v 695.6249 -622.4082 0
v 931.8416 -847.5433 0
v 2818.035 -193.995 0
v 2818.035 -44.055 0
v 2439.27 -44.055 0
v 2439.27 -193.995 0
vt 0.7747525 0.2414487
vt 0.7747525 0.3229376
vt 0.9608911 0.3229376
vt 0.9608911 0.2414487
vt 0.8232673 0.4225352
vt 0.8232673 0.5382293
vt 0.8955445 0.5382293
vt 0.8955445 0.4225352
vt 0.8232673 0.4225352
vt 0.8232673 0.5382293
vt 0.8955445 0.5382293
vt 0.8955445 0.4225352
vt 0.7351485 0.3239437
vt 0.7351485 0.4215292
vt 0.8945544 0.4215292
vt 0.8945544 0.3239437
vt 0.7747525 0.2414487
vt 0.7747525 0.3229376
vt 0.9608911 0.3229376
vt 0.9608911 0.2414487
vt 0.8663366 0.7857143
vt 0.8663366 0.8812877
vt 0.9217822 0.8812877
vt 0.9217822 0.7857143
vt 0.8678527 0.7883276
vt 0.8678527 0.8786744
vt 0.9202661 0.8786744
vt 0.9202661 0.7883276
vt 0.000990099 0.8651912
vt 0.000990099 0.8953722
vt 0.05841584 0.8953722
vt 0.05841584 0.8651912
vn 0 0 -1
vn 0 0 -1
vn 0 0 -1
vn 0 0 -1
vn 0 0 1
vn 0 0 1
vn 0 0 1
vn 0 0 1
vn 0 0 -1
vn 0 0 -1
vn 0 0 -1
vn 0 0 -1
vn 0 0 -1
vn 0 0 -1
vn 0 0 -1
vn 0 0 -1
vn 0 0 -1
vn 0 0 -1
vn 0 0 -1
vn 0 0 -1
vn 0 0 -1
vn 0 0 -1
vn 0 0 -1
vn 0 0 -1
vn 0 0 -1
vn 0 0 -1
vn 0 0 -1
vn 0 0 -1
vn 0 0 -1
vn 0 0 -1
vn 0 0 -1
vn 0 0 -1
g worldmap_ep01_l4_0
f 3/3/3 2/2/2 1/1/1
f 4/4/4 3/3/3 1/1/1
f 7/7/7 6/6/6 5/5/5
f 8/8/8 7/7/7 5/5/5
f 11/11/11 10/10/10 9/9/9
f 12/12/12 11/11/11 9/9/9
f 15/15/15 14/14/14 13/13/13
f 16/16/16 15/15/15 13/13/13
f 19/19/19 18/18/18 17/17/17
f 20/20/20 19/19/19 17/17/17
f 23/23/23 22/22/22 21/21/21
f 24/24/24 23/23/23 21/21/21
f 27/27/27 26/26/26 25/25/25
f 28/28/28 27/27/27 25/25/25
f 31/31/31 30/30/30 29/29/29
f 32/32/32 31/31/31 29/29/29
