g worldmap_ep08_7_mesh
v -2940.133 -3074.592 -6.910987
v -2940.133 -2652.647 -6.910987
v -3386.899 -2652.647 -6.910987
v -3386.899 -3074.592 -6.910987
v -99.60229 -3446.499 -6.910987
v -99.60229 -3024.554 -6.910987
v -546.3689 -3024.554 -6.910987
v -546.3689 -3446.499 -6.910987
v -1046.744 -4233.799 -6.910987
v -1046.744 -3811.853 -6.910987
v -1493.51 -3811.853 -6.910987
v -1493.51 -4233.799 -6.910987
v -1950.103 -3498.622 -6.910987
v -1950.103 -2729.193 -6.910987
v -4571.124 -2729.193 -6.910987
v -4571.124 -3498.622 -6.910987
v 647.3855 -3787.777 -6.910987
v 647.3855 -3018.349 -6.910987
v -1973.633 -3018.349 -6.910987
v -1973.633 -3787.777 -6.910987
v -763.7451 -4162.664 -6.910987
v -763.7451 -3715.897 -6.910987
v -3434.407 -3715.897 -6.910987
v -3434.407 -4162.664 -6.910987
v 470.1205 -3085.562 -6.910987
v 470.1205 -2638.798 -6.910987
v -2200.541 -2638.798 -6.910987
v -2200.541 -3085.562 -6.910987
vt 0.669454 0.9205449
vt 0.669454 0.9687855
vt 0.7137235 0.9687855
vt 0.7137235 0.9205449
vt 0.6677039 0.9253733
vt 0.6683304 0.9604199
vt 0.7119412 0.9583315
vt 0.7131943 0.922032
vt 0.6677039 0.9253733
vt 0.6683304 0.9604199
vt 0.7119412 0.9583315
vt 0.7131943 0.922032
vt 0.6104279 0.2673099
vt 0.6104279 0.3552781
vt 0.8701426 0.3552781
vt 0.8701426 0.2673099
vt 0.6104279 0.2673099
vt 0.6104279 0.3552781
vt 0.8701426 0.3552781
vt 0.8701426 0.2673099
vt 0.6104279 0.3564132
vt 0.6104279 0.4074915
vt 0.8750615 0.4074915
vt 0.8750615 0.3564132
vt 0.6104279 0.3564132
vt 0.6104279 0.4074915
vt 0.8750615 0.4074915
vt 0.8750615 0.3564132
vn 0 0 -1
vn 0 0 -1
vn 0 0 -1
vn 0 0 -1
vn 0 0 -1
vn 0 0 -1
vn 0 0 -1
vn 0 0 -1
vn 0 0 -1
vn 0 0 -1
vn 0 0 -1
vn 0 0 -1
vn 0 0 -1
vn 0 0 -1
vn 0 0 -1
vn 0 0 -1
vn 0 0 -1
vn 0 0 -1
vn 0 0 -1
vn 0 0 -1
vn 0 0 -1
vn 0 0 -1
vn 0 0 -1
vn 0 0 -1
vn 0 0 -1
vn 0 0 -1
vn 0 0 -1
vn 0 0 -1
g worldmap_ep08_7_mesh_0
f 3/3/3 2/2/2 1/1/1
f 4/4/4 3/3/3 1/1/1
f 7/7/7 6/6/6 5/5/5
f 8/8/8 7/7/7 5/5/5
f 11/11/11 10/10/10 9/9/9
f 12/12/12 11/11/11 9/9/9
f 15/15/15 14/14/14 13/13/13
f 16/16/16 15/15/15 13/13/13
f 19/19/19 18/18/18 17/17/17
f 20/20/20 19/19/19 17/17/17
f 23/23/23 22/22/22 21/21/21
f 24/24/24 23/23/23 21/21/21
f 27/27/27 26/26/26 25/25/25
f 28/28/28 27/27/27 25/25/25
