g worldmap_ep06_8
v -2996.6 -4621.497 0
v -2996.6 -4136.537 0
v -3594.069 -4136.537 0
v -3594.069 -4621.497 0
v -2828.142 -4165.944 0
v -2828.142 -3211.037 0
v -4206.167 -3211.037 0
v -4206.167 -4165.944 0
vt 0.7385496 0.5
vt 0.6984733 0.5
vt 0.6984733 0.5746124
vt 0.7385496 0.5746124
vt 0.8148855 0.6036822
vt 0.8148855 0.7277132
vt 0.9319338 0.7277132
vt 0.9319338 0.6036822
vn 0 0 -1
vn 0 0 -1
vn 0 0 -1
vn 0 0 -1
vn 0 0 -1
vn 0 0 -1
vn 0 0 -1
vn 0 0 -1
g worldmap_ep06_8_0
f 3/3/3 2/2/2 1/1/1
f 4/4/4 3/3/3 1/1/1
f 7/7/7 6/6/6 5/5/5
f 8/8/8 7/7/7 5/5/5
