g worldmap_ep05_mesh0
v 6600.174 -4624.229 0
v 6600.174 -2199.421 0
v 813.7822 -2199.421 0
v 813.7822 -4624.229 0
v 1594.737 -4661.931 0
v 1594.737 -3021.417 0
v -2780.043 -3021.417 0
v -2780.043 -4661.931 0
v -4032.631 -4490.884 0
v -4032.631 -1552.695 0
v -8862.564 -1552.695 0
v -8862.564 -4490.884 0
v -5491.138 -4568.327 0
v -5491.138 -3619.343 0
v -7361.99 -3619.343 0
v -7361.99 -4568.327 0
vt 0.0009765625 0.8837891
vt 0.0009765625 0.9912109
vt 0.1293945 0.9912109
vt 0.1293945 0.8837891
vt 0.7495117 0.001953125
vt 0.7495117 0.1308594
vt 0.9213867 0.1308594
vt 0.9213867 0.001953125
vt 0.4174805 0.4541016
vt 0.4174805 0.5966797
vt 0.534668 0.5966797
vt 0.534668 0.4541016
vt 0.6928711 0.4677734
vt 0.6416016 0.4677734
vt 0.6416016 0.6699219
vt 0.6928711 0.6699219
vn 0 0 -1
vn 0 0 -1
vn 0 0 -1
vn 0 0 -1
vn 0 0 -1
vn 0 0 -1
vn 0 0 -1
vn 0 0 -1
vn 0 0 -1
vn 0 0 -1
vn 0 0 -1
vn 0 0 -1
vn 0 0 -1
vn 0 0 -1
vn 0 0 -1
vn 0 0 -1
g worldmap_ep05_mesh0_0
f 3/3/3 2/2/2 1/1/1
f 4/4/4 3/3/3 1/1/1
f 7/7/7 6/6/6 5/5/5
f 8/8/8 7/7/7 5/5/5
f 11/11/11 10/10/10 9/9/9
f 12/12/12 11/11/11 9/9/9
f 15/15/15 14/14/14 13/13/13
f 16/16/16 15/15/15 13/13/13
