g worldmap_ep05_mesh6
v -4268.686 -1307.034 0
v -4789.813 -286.5024 0
v -6997.934 -1414.056 0
v -6476.85 -2434.542 0
v -802.7715 -3234.81 0
v -1303.799 -2741.631 0
v -2183.462 -3635.27 0
v -1682.435 -4128.495 0
v -3125.807 -558.7202 0
v -3698.011 -150.229 0
v -4426.592 -1170.856 0
v -3854.386 -1579.299 0
v -3713.705 -3132.247 0
v -3713.705 -2444.524 0
v -4643.651 -2444.524 0
v -4643.651 -3132.247 0
v -102.8862 -300.6626 0
v -102.8862 387.0576 0
v -1032.834 387.0576 0
v -1032.834 -300.6626 0
v -3076.313 -113.9224 0
v -2977.277 121.479 0
v -3263.983 242.1045 0
v -3363.019 6.750977 0
v -4617.604 -3735.324 0
v -4549.77 -3489.154 0
v -4849.709 -3406.557 0
v -4617.604 -3735.324 0
v -4849.709 -3406.557 0
v -4917.496 -3652.727 0
v -936.7705 -2918.25 0
v -868.9346 -2672.032 0
v -1168.873 -2589.432 0
v -936.7705 -2918.25 0
v -1168.873 -2589.432 0
v -1236.661 -2835.652 0
vt 0.2783203 0.4130859
vt 0.2783203 0.5410156
vt 0.4165039 0.5410156
vt 0.4165039 0.4130859
vt 0.2456055 0.6738281
vt 0.1621094 0.6738281
vt 0.1621094 0.9716797
vt 0.2456055 0.9716797
vt 0.2456055 0.6738281
vt 0.1621094 0.6738281
vt 0.1621094 0.9716797
vt 0.2456055 0.9716797
vt 0.5356445 0.4677734
vt 0.5356445 0.6230469
vt 0.640625 0.6230469
vt 0.640625 0.4677734
vt 0.5356445 0.4677734
vt 0.5356445 0.6230469
vt 0.640625 0.6230469
vt 0.640625 0.4677734
vt 0.800293 0.6816406
vt 0.7734375 0.6816406
vt 0.7734375 0.7470703
vt 0.800293 0.7470703
vt 0.800293 0.6816406
vt 0.7734375 0.6816406
vt 0.7734375 0.7470703
vt 0.800293 0.6816406
vt 0.7734375 0.7470703
vt 0.800293 0.7470703
vt 0.800293 0.6816406
vt 0.7734375 0.6816406
vt 0.7734375 0.7470703
vt 0.800293 0.6816406
vt 0.7734375 0.7470703
vt 0.800293 0.7470703
vn 0 0 -1
vn 0 0 -1
vn 0 0 -1
vn 0 0 -1
vn 0 0 -1
vn 0 0 -1
vn 0 0 -1
vn 0 0 -1
vn 0 0 -1
vn 0 0 -1
vn 0 0 -1
vn 0 0 -1
vn 0 0 -1
vn 0 0 -1
vn 0 0 -1
vn 0 0 -1
vn 0 0 -1
vn 0 0 -1
vn 0 0 -1
vn 0 0 -1
vn 0 0 -1
vn 0 0 -1
vn 0 0 -1
vn 0 0 -1
vn 0 0 -1
vn 0 0 -1
vn 0 0 -1
vn 0 0 -1
vn 0 0 -1
vn 0 0 -1
vn 0 0 -1
vn 0 0 -1
vn 0 0 -1
vn 0 0 -1
vn 0 0 -1
vn 0 0 -1
g worldmap_ep05_mesh6_0
f 3/3/3 2/2/2 1/1/1
f 4/4/4 3/3/3 1/1/1
f 7/7/7 6/6/6 5/5/5
f 8/8/8 7/7/7 5/5/5
f 11/11/11 10/10/10 9/9/9
f 12/12/12 11/11/11 9/9/9
f 15/15/15 14/14/14 13/13/13
f 16/16/16 15/15/15 13/13/13
f 19/19/19 18/18/18 17/17/17
f 20/20/20 19/19/19 17/17/17
f 23/23/23 22/22/22 21/21/21
f 24/24/24 23/23/23 21/21/21
f 27/27/27 26/26/26 25/25/25
f 30/30/30 29/29/29 28/28/28
f 33/33/33 32/32/32 31/31/31
f 36/36/36 35/35/35 34/34/34
