g worldmap_ep07_8_mesh
v 5904.286 -490.8853 0
v 4991.334 -215.7778 0
v 4861.279 -349.5293 0
v 5126.043 -97.06714 0
v 6042.443 -412.354 0
v 6299.808 -391.9526 0
v 5269.182 -51.27783 0
v 5563.779 56.67065 0
v 6528.963 -283.6707 0
v 6673.35 -164.6697 0
v 6636.161 315.6567 0
v 5720.216 291.6404 0
v 6699.9 199.4395 0
v 5905.452 912.3259 0
v 5738.291 709.0593 0
v 6657.685 573.6455 0
v 6106.43 1006.978 0
v 6950.41 736.3582 0
v 7455.003 745.167 0
v 6380.459 1146.34 0
v 6528.462 -1409.199 0
v 6469.254 -1271.624 0
v 5189.654 -1175.6 0
v 6506.899 -1796.244 0
v 6542.423 -1611.718 0
v 5191.4 -1311.887 0
v 6101.735 -2193.843 0
v 6426.87 -1940.26 0
v 5105.225 -1441.068 0
v 4328.1 -1672.091 0
v 5363.298 -2387.429 0
v 4702.555 -1594.889 0
v 2811.662 -2656.802 0
v 3488.896 -2799.198 0
v 3752.289 -2833.519 0
v 2816.484 -2507.261 0
v 4761.183 -609.3464 0
v 5882.39 -603.9031 0
v 5714.356 169.855 0
v 6719.557 27.00317 0
v 6606.911 426.0574 0
v 5697.697 498.854 0
v 7674.516 912.4089 0
v 6577.284 1262.807 0
v 7746.189 1138.57 0
v 6835.024 1447.833 0
v 8179.646 1387.999 0
v 7070.492 1740.308 0
v 8883.313 1461.918 0
v 7497.719 2329.748 0
v 6005.753 -759.2195 0
v 5852.015 -549.8872 0
v 4753.662 -532.6025 0
v 4919.327 -823.9556 0
v 6288.84 -1008.982 0
v 5135.182 -1048.123 0
v 4962.539 -1514.821 0
v 5732.061 -2346.999 0
v 3639.563 -1847.685 0
v 5026.192 -2467.58 0
v 3189.858 -2033.416 0
v 4892.69 -2598.798 0
v 2949.61 -2341.681 0
v 4853.594 -2737.452 0
v 5651.825 -355.5957 -7.848541
v 6164.978 244.7712 -7.848541
v 6028.564 246.7659 -7.848541
v 5786.574 -390.2495 -7.848541
v 6295.363 -524.7073 -7.848541
v 6964.952 -161.7622 -7.848541
v 6830.786 20.31348 -7.848541
v 7152.265 -746.2979 -7.848541
v 7165.396 -515.8989 -7.848541
v 6365.998 -656.6311 -7.848541
v 5818.277 -797.6963 -7.848541
v 6594.651 -1298.84 -7.848541
v 6063.179 -763.666 -7.848541
v 6192.263 -1478.778 -7.848541
v 5148.982 -1313.49 -7.848541
v 5103.854 -1500.445 -7.848541
v 5137.301 -1707.948 -7.848541
v 6478.27 -1605.027 -7.848541
v 5589.956 -2169.952 -7.848541
v 5705.176 -2207.763 -7.848541
v 5833.566 -2240.214 -7.848541
v 6672.393 -1643.42 -7.848541
v 6575.249 -1620.111 -7.848541
v 5762.306 356.9167 -7.848541
v 5672.724 460.0872 -7.848541
v 5017.843 -41.0564 -7.848541
v 5262.493 -259.5718 -7.848541
v 5886.835 292.5127 -7.848541
v 5453.21 -338.311 -7.848541
v 6293.242 190.4231 -7.848541
v 5881.477 -465.8301 -7.848541
v 6458.157 111.0193 -7.848541
v 6014.148 -496.5774 -7.848541
v 6180.766 -491.6741 -7.848541
v 6667.948 77.23828 -7.848541
v 7111.502 -316.3718 -7.848541
v 6356.566 -594.7625 -7.848541
v 6332.176 -724.7329 -7.848541
v 7020.258 -968.8857 -7.848541
v 6862.408 -1152.665 -7.848541
v 6199.13 -760.7163 -7.848541
v 5610.357 -853.291 -7.848541
v 6431.484 -1338.105 -7.848541
v 5395.415 -961.0735 -7.848541
v 6324.788 -1368.648 -7.848541
v 5216.663 -1132.97 -7.848541
v 6229.852 -1410.578 -7.848541
v 6251.485 -1521.843 -7.848541
v 5232.411 -1903.903 -7.848541
v 6313.811 -1562.396 -7.848541
v 5331.509 -2012.475 -7.848541
v 6395.085 -1587.826 -7.848541
v 5442.823 -2102.474 -7.848541
v 6787.407 -1694.611 -7.848541
v 5908.109 -2310.394 -7.848541
vt 0.1105108 0.7728722
vt 0.09479371 0.7845923
vt 0.09479371 0.8019605
vt 0.09479371 0.7157607
vt 0.1105108 0.7142639
vt 0.1105108 0.6905606
vt 0.09479371 0.6650754
vt 0.09479371 0.5975156
vt 0.1105108 0.6543767
vt 0.1105108 0.5975156
vt 0.1105108 0.488387
vt 0.09479371 0.4702899
vt 0.1105108 0.4993747
vt 0.09479371 0.2158384
vt 0.09479371 0.3415674
vt 0.1105108 0.3385738
vt 0.09479371 0.19206
vt 0.1105108 0.2158384
vt 0.1105108 0.167873
vt 0.09479371 0.1621877
vt 0.09479371 0.6360456
vt 0.09479371 0.6650754
vt 0.1105108 0.6543767
vt 0.09479371 0.5677926
vt 0.09479371 0.5975156
vt 0.1105108 0.5975156
vt 0.09479371 0.4702899
vt 0.09479371 0.5413398
vt 0.1105108 0.5374403
vt 0.1105108 0.2158384
vt 0.09479371 0.2158384
vt 0.1105108 0.3385738
vt 0.1105108 0.003225803
vt 0.09479371 0.003225803
vt 0.09479371 0.02421761
vt 0.1105108 0.03043774
vt 0.09479371 0.8290322
vt 0.1105108 0.8290322
vt 0.09479371 0.5413398
vt 0.1105108 0.5374403
vt 0.1105108 0.4672963
vt 0.09479371 0.4150694
vt 0.1105108 0.1095675
vt 0.09479371 0.1095675
vt 0.1105108 0.05506823
vt 0.09479371 0.04776936
vt 0.1105108 0.03043774
vt 0.09479371 0.02421761
vt 0.1105108 0.003225803
vt 0.09479371 0.003225803
vt 0.09479371 0.7845923
vt 0.09479371 0.8290322
vt 0.1105108 0.8290322
vt 0.1105108 0.7728722
vt 0.09479371 0.7157607
vt 0.1105108 0.7142639
vt 0.1105108 0.4672963
vt 0.09479371 0.3415674
vt 0.1105108 0.167873
vt 0.09479371 0.1621877
vt 0.1105108 0.1095675
vt 0.09479371 0.1095675
vt 0.1105108 0.05506823
vt 0.09479371 0.04776936
vt 0.675835 0.5110764
vt 0.6434185 0.5121707
vt 0.6434185 0.5205204
vt 0.675835 0.5024559
vt 0.675835 0.3633592
vt 0.6434185 0.3765878
vt 0.6434185 0.386478
vt 0.6434185 0.3344561
vt 0.6434185 0.3459918
vt 0.675835 0.3371657
vt 0.675835 0.2568877
vt 0.6434185 0.2520413
vt 0.675835 0.2686304
vt 0.6434185 0.1339401
vt 0.675835 0.1768306
vt 0.675835 0.1339401
vt 0.675835 0.1176177
vt 0.6434185 0.05174667
vt 0.675835 0.05174667
vt 0.675835 0.03899738
vt 0.675835 0.01684314
vt 0.6434185 0.01793788
vt 0.6434185 0.02877685
vt 0.6434185 0.5784674
vt 0.6434185 0.5967742
vt 0.675835 0.5967742
vt 0.675835 0.5566495
vt 0.6434185 0.5566495
vt 0.675835 0.5223269
vt 0.6434185 0.4970366
vt 0.675835 0.472301
vt 0.6434185 0.4509721
vt 0.675835 0.4536818
vt 0.675835 0.4058109
vt 0.6434185 0.4031012
vt 0.6434185 0.3633593
vt 0.675835 0.3499417
vt 0.675835 0.3084797
vt 0.6434185 0.3083141
vt 0.6434185 0.2874884
vt 0.675835 0.2865852
vt 0.675835 0.237811
vt 0.6434185 0.2323917
vt 0.675835 0.2200103
vt 0.6434185 0.20679
vt 0.675835 0.2007788
vt 0.6434185 0.1989723
vt 0.6434185 0.1156931
vt 0.675835 0.1005207
vt 0.6434185 0.09961754
vt 0.675835 0.07883576
vt 0.6434185 0.07350235
vt 0.675835 0.06488403
vt 0.6434185 0.003225803
vt 0.675835 0.003225803
vn 0 0 -1
vn 0 0 -1
vn 0 0 -1
vn 0 0 -1
vn 0 0 -1
vn 0 0 -1
vn 0 0 -1
vn 0 0 -1
vn 0 0 -1
vn 0 0 -1
vn 0 0 -1
vn 0 0 -1
vn 0 0 -1
vn 0 0 -1
vn 0 0 -1
vn 0 0 -1
vn 0 0 -1
vn 0 0 -1
vn 0 0 -1
vn 0 0 -1
vn 0 0 -1
vn 0 0 -1
vn 0 0 -1
vn 0 0 -1
vn 0 0 -1
vn 0 0 -1
vn 0 0 -1
vn 0 0 -1
vn 0 0 -1
vn 0 0 -1
vn 0 0 -1
vn 0 0 -1
vn 0 0 -1
vn 0 0 -1
vn 0 0 -1
vn 0 0 -1
vn 0 0 -1
vn 0 0 -1
vn 0 0 -1
vn 0 0 -1
vn 0 0 -1
vn 0 0 -1
vn 0 0 -1
vn 0 0 -1
vn 0 0 -1
vn 0 0 -1
vn 0 0 -1
vn 0 0 -1
vn 0 0 -1
vn 0 0 -1
vn 0 0 -1
vn 0 0 -1
vn 0 0 -1
vn 0 0 -1
vn 0 0 -1
vn 0 0 -1
vn 0 0 -1
vn 0 0 -1
vn 0 0 -1
vn 0 0 -1
vn 0 0 -1
vn 0 0 -1
vn 0 0 -1
vn 0 0 -1
vn 0 0 -1
vn 0 0 -1
vn 0 0 -1
vn 0 0 -1
vn 0 0 -1
vn 0 0 -1
vn 0 0 -1
vn 0 0 -1
vn 0 0 -1
vn 0 0 -1
vn 0 0 -1
vn 0 0 -1
vn 0 0 -1
vn 0 0 -1
vn 0 0 -1
vn 0 0 -1
vn 0 0 -1
vn 0 0 -1
vn 0 0 -1
vn 0 0 -1
vn 0 0 -1
vn 0 0 -1
vn 0 0 -1
vn 0 0 -1
vn 0 0 -1
vn 0 0 -1
vn 0 0 -1
vn 0 0 -1
vn 0 0 -1
vn 0 0 -1
vn 0 0 -1
vn 0 0 -1
vn 0 0 -1
vn 0 0 -1
vn 0 0 -1
vn 0 0 -1
vn 0 0 -1
vn 0 0 -1
vn 0 0 -1
vn 0 0 -1
vn 0 0 -1
vn 0 0 -1
vn 0 0 -1
vn 0 0 -1
vn 0 0 -1
vn 0 0 -1
vn 0 0 -1
vn 0 0 -1
vn 0 0 -1
vn 0 0 -1
vn 0 0 -1
vn 0 0 -1
vn 0 0 -1
vn 0 0 -1
vn 0 0 -1
g worldmap_ep07_8_mesh_0
f 3/3/3 2/2/2 1/1/1
f 6/6/6 5/5/5 4/4/4
f 6/6/6 4/4/4 7/7/7
f 10/10/10 9/9/9 8/8/8
f 13/13/13 12/12/12 11/11/11
f 16/16/16 15/15/15 14/14/14
f 19/19/19 18/18/18 17/17/17
f 19/19/19 17/17/17 20/20/20
f 23/23/23 22/22/22 21/21/21
f 26/26/26 25/25/25 24/24/24
f 29/29/29 28/28/28 27/27/27
f 32/32/32 31/31/31 30/30/30
f 35/35/35 34/34/34 33/33/33
f 36/36/36 35/35/35 33/33/33
f 38/38/38 37/37/37 3/3/3
f 38/38/38 3/3/3 1/1/1
f 1/1/1 2/2/2 4/4/4
f 5/5/5 1/1/1 4/4/4
f 9/9/9 6/6/6 7/7/7
f 9/9/9 7/7/7 8/8/8
f 10/10/10 8/8/8 39/39/39
f 40/40/40 10/10/10 39/39/39
f 13/13/13 40/40/40 39/39/39
f 13/13/13 39/39/39 12/12/12
f 41/41/41 11/11/11 12/12/12
f 41/41/41 12/12/12 42/42/42
f 15/15/15 16/16/16 42/42/42
f 42/42/42 16/16/16 41/41/41
f 16/16/16 14/14/14 18/18/18
f 18/18/18 14/14/14 17/17/17
f 20/20/20 44/44/44 43/43/43
f 19/19/19 20/20/20 43/43/43
f 45/45/45 43/43/43 44/44/44
f 45/45/45 44/44/44 46/46/46
f 47/47/47 45/45/45 46/46/46
f 47/47/47 46/46/46 48/48/48
f 48/48/48 50/50/50 49/49/49
f 47/47/47 48/48/48 49/49/49
f 53/53/53 52/52/52 51/51/51
f 54/54/54 53/53/53 51/51/51
f 54/54/54 51/51/51 55/55/55
f 56/56/56 54/54/54 55/55/55
f 56/56/56 55/55/55 22/22/22
f 23/23/23 56/56/56 22/22/22
f 21/21/21 25/25/25 26/26/26
f 23/23/23 21/21/21 26/26/26
f 24/24/24 28/28/28 29/29/29
f 26/26/26 24/24/24 29/29/29
f 57/57/57 29/29/29 27/27/27
f 57/57/57 27/27/27 58/58/58
f 57/57/57 58/58/58 32/32/32
f 32/32/32 58/58/58 31/31/31
f 59/59/59 30/30/30 31/31/31
f 59/59/59 31/31/31 60/60/60
f 60/60/60 62/62/62 61/61/61
f 59/59/59 60/60/60 61/61/61
f 63/63/63 61/61/61 62/62/62
f 63/63/63 62/62/62 64/64/64
f 36/36/36 63/63/63 64/64/64
f 36/36/36 64/64/64 35/35/35
f 67/67/67 66/66/66 65/65/65
f 68/68/68 65/65/65 66/66/66
f 71/71/71 70/70/70 69/69/69
f 74/74/74 73/73/73 72/72/72
f 77/77/77 76/76/76 75/75/75
f 80/80/80 79/79/79 78/78/78
f 81/81/81 80/80/80 78/78/78
f 84/84/84 83/83/83 82/82/82
f 87/87/87 86/86/86 85/85/85
f 90/90/90 89/89/89 88/88/88
f 90/90/90 88/88/88 91/91/91
f 88/88/88 92/92/92 91/91/91
f 93/93/93 91/91/91 92/92/92
f 93/93/93 92/92/92 67/67/67
f 93/93/93 67/67/67 65/65/65
f 68/68/68 66/66/66 94/94/94
f 95/95/95 68/68/68 94/94/94
f 95/95/95 94/94/94 96/96/96
f 95/95/95 96/96/96 97/97/97
f 98/98/98 97/97/97 96/96/96
f 98/98/98 96/96/96 99/99/99
f 98/98/98 99/99/99 71/71/71
f 71/71/71 69/69/69 98/98/98
f 70/70/70 100/100/100 69/69/69
f 101/101/101 69/69/69 100/100/100
f 101/101/101 100/100/100 73/73/73
f 74/74/74 101/101/101 73/73/73
f 102/102/102 74/74/74 72/72/72
f 102/102/102 72/72/72 103/103/103
f 102/102/102 103/103/103 104/104/104
f 105/105/105 102/102/102 104/104/104
f 77/77/77 105/105/105 104/104/104
f 77/77/77 104/104/104 76/76/76
f 106/106/106 75/75/75 76/76/76
f 106/106/106 76/76/76 107/107/107
f 108/108/108 106/106/106 107/107/107
f 108/108/108 107/107/107 109/109/109
f 110/110/110 108/108/108 109/109/109
f 110/110/110 109/109/109 111/111/111
f 79/79/79 110/110/110 111/111/111
f 79/79/79 111/111/111 78/78/78
f 81/81/81 78/78/78 112/112/112
f 113/113/113 81/81/81 112/112/112
f 113/113/113 112/112/112 114/114/114
f 115/115/115 113/113/113 114/114/114
f 115/115/115 114/114/114 116/116/116
f 117/117/117 115/115/115 116/116/116
f 117/117/117 116/116/116 82/82/82
f 83/83/83 117/117/117 82/82/82
f 84/84/84 82/82/82 87/87/87
f 84/84/84 87/87/87 85/85/85
f 85/85/85 86/86/86 118/118/118
f 119/119/119 85/85/85 118/118/118
