g worldmap_ep08_8_mesh
v -2406.177 -4459.601 -6.910987
v 372.5801 -3143.716 -6.910987
v -2313.68 -1811.879 -6.910987
v -349.832 -4462.987 -6.910987
v -2313.68 -1811.879 -6.910987
v -4314.687 -2360.841 -6.910987
v -2406.177 -4459.601 -6.910987
v -4306.622 -3823.446 -6.910987
v -237.8203 -4394.417 -6.910987
v 424.9326 -3133.557 -6.910987
v -4168.279 -2277.433 -6.910987
v -2314.705 -1758.458 -6.910987
vt 0.9825668 0.6316686
vt 0.9768814 0.6498297
vt 0.9926217 0.6498297
vt 0.9768814 0.6316686
vt 0.9926217 0.6498297
vt 0.9926217 0.6350371
vt 0.9825668 0.6316686
vt 0.9894721 0.6316686
vt 0.9768814 0.1118048
vt 0.9807127 0.4023807
vt 0.9926217 0.1118048
vt 0.9926217 0.4023836
vn 0 0 -1
vn 0 0 -1
vn 0 0 -1
vn 0 0 -1
vn 0 0 -1
vn 0 0 -1
vn 0 0 -1
vn 0 0 -1
vn 0 0 -1
vn 0 0 -1
vn 0 0 -1
vn 0 0 -1
g worldmap_ep08_8_mesh_0
f 3/3/3 2/2/2 1/1/1
f 2/2/2 4/4/4 1/1/1
f 7/7/7 6/6/6 5/5/5
f 6/6/6 7/7/7 8/8/8
f 11/11/11 10/10/10 9/9/9
f 12/12/12 10/10/10 11/11/11
