g worldmap_ep06_1
v -5091.512 -7564.976 0
v -5113.471 -6956.408 0
v -5733.561 -6978.793 0
v -5711.563 -7587.399 0
v -6658.439 -7480.32 0
v -6658.439 -6986.358 0
v -7161.75 -6986.358 0
v -7161.75 -7480.32 0
v -5201.152 -7774.983 0
v -5318.745 -7399.507 0
v -5845.995 -7564.625 0
v -5728.401 -7940.102 0
v -6800.436 -7669.843 0
v -6800.437 -7276.404 0
v -7352.981 -7276.404 0
v -7352.981 -7669.843 0
v -6682.338 -8930.159 0
v -6682.338 -8782.731 0
v -6783.21 -8782.731 0
v -6783.21 -8930.159 0
v -5960.057 -8163.883 0
v -5960.057 -7997.056 0
v -6103.605 -7997.056 0
v -6103.605 -8163.883 0
v -4952.736 -8094.941 0
v -4952.736 -7471.358 0
v -5588.073 -7471.358 0
v -5588.073 -8094.941 0
v -6925.905 -8011.954 0
v -6925.905 -7388.333 0
v -7561.281 -7388.333 0
v -7561.281 -8011.954 0
v -7480.622 -7902.391 0
v -7480.622 -7594.693 0
v -7076.165 -7594.693 0
v -7076.165 -7902.391 0
v -7038.067 -8311.038 0
v -7038.067 -7790.967 0
v -7768.379 -7790.967 0
v -7768.379 -8311.038 0
v -7530.593 -8101.303 0
v -7376.453 -7819.716 0
v -7731.793 -7625.265 0
v -7885.894 -7906.853 0
v -7293.621 -8797.784 0
v -7293.621 -7945.767 0
v -8321.039 -7945.767 0
v -8321.039 -8797.784 0
v -7572.377 -9170.894 0
v -7572.377 -8389.06 0
v -8785.243 -8389.06 0
v -8785.243 -9170.894 0
v -5054.189 -8514.954 0
v -5054.189 -7730.289 0
v -5962.773 -7730.289 0
v -5962.773 -8514.954 0
v -4984.549 -7894.438 0
v -4984.549 -7535.256 0
v -5175.623 -7535.256 0
v -5175.623 -7894.438 0
v -5196.807 -9035.88 0
v -5196.807 -8157.597 0
v -6408.704 -8157.597 0
v -6408.704 -9035.88 0
v -5523.67 -8829.558 0
v -5557.695 -8414.742 0
v -6054.333 -8455.44 0
v -6020.309 -8870.296 0
v -2836.755 -10146.56 0
v -2836.755 -8694.429 0
v -4307.117 -8694.429 0
v -4307.117 -10146.56 0
v -5256.632 -10079.75 0
v -5256.632 -8728.027 0
v -6625.384 -8728.027 0
v -6625.384 -10079.75 0
v 1116.877 -8273.986 0
v 1116.877 -6696.663 0
v -490.2051 -6696.663 0
v -490.2051 -8273.986 0
v 282.707 -7160.169 0
v 282.707 -5872.541 0
v -1029.248 -5872.541 0
v -1029.248 -7160.169 0
v -3959.147 -10006.5 0
v -3959.147 -8479.959 0
v -5799.98 -8479.959 0
v -5799.98 -10006.5 0
v -5079.058 -9870.711 0
v -5079.058 -8343.047 0
v -4290.009 -8343.047 0
v -4290.009 -9870.711 0
v -3605.593 -10429.89 0
v -3589.997 -9133.882 0
v -5600.488 -9109.673 0
v -5616.084 -10405.72 0
v -933.4199 -6992.45 0
v -933.4199 -5876.574 0
v -259.6348 -5876.574 0
v -259.6348 -6992.45 0
v -8809.415 -9201.467 0
v -8809.415 -8085.629 0
v -9390.28 -8085.629 0
v -9390.28 -9201.467 0
v -531.1748 -7138.752 0
v -531.1748 -6499.769 0
v -1428.467 -6499.769 0
v -1428.467 -7138.752 0
v -1217.53 -8827.503 0
v -1217.53 -8103.903 0
v -2090.108 -8103.903 0
v -2090.108 -8827.503 0
v 137.7607 -7669.338 0
v 137.7607 -6791.094 0
v -1074.098 -6791.094 0
v -1074.098 -7669.338 0
v 268.7002 -8940.712 0
v 268.7002 -7414.172 0
v -1572.094 -7414.172 0
v -1572.094 -8940.712 0
v -431.6602 -9951.41 0
v -431.6602 -8278.681 0
v -2125.453 -8278.681 0
v -2125.453 -9951.41 0
v -10916.32 -7698.436 0
v -10916.32 -6820.154 0
v -12128.17 -6820.154 0
v -12128.17 -7698.436 0
v -7789.989 -10106.44 0
v -7789.989 -8298.157 0
v -9621.044 -8298.157 0
v -9621.044 -10106.44 0
v -283.9609 -8955.144 0
v -283.9609 -7839.308 0
v -864.7881 -7839.308 0
v -864.7881 -8955.144 0
v -11442.05 -7730.831 0
v -11432.32 -6922.886 0
v -12685.69 -6907.795 0
v -12695.38 -7715.74 0
v -11901.18 -8208.111 0
v -11901.18 -7106.707 0
v -13229.31 -7106.707 0
v -13229.31 -8208.111 0
v -9882.536 -8395.111 0
v -9882.536 -7516.867 0
v -11094.39 -7516.867 0
v -11094.39 -8395.111 0
v -8946.29 -9897.365 0
v -8946.29 -8089.044 0
v -10777.31 -8089.044 0
v -10777.31 -9897.365 0
v -10446.72 -8883.526 0
v -10446.72 -7356.985 0
v -12287.55 -7356.985 0
v -12287.55 -8883.526 0
v -10215.72 -8437.284 0
v -10215.72 -7864.796 0
v -10938.12 -7864.796 0
v -10938.12 -8437.284 0
v -9803.429 -9290.076 0
v -9787.833 -7994.03 0
v -11798.32 -7969.859 0
v -11813.92 -9265.867 0
v -2240.215 -9063.93 0
v -2240.215 -7948.054 0
v -1566.429 -7948.054 0
v -1566.429 -9063.93 0
v -12362.08 -8422.851 0
v -11934.15 -6580.504 0
v -10945.38 -6810.182 0
v -11373.34 -8652.529 0
v 732.0117 -10092.79 0
v 732.0117 -8607.951 0
v -1058.579 -8607.951 0
v -1058.579 -10092.79 0
v -1603.79 -10079.98 0
v -1603.79 -8595.108 0
v -3394.343 -8595.108 0
v -3394.343 -10079.98 0
v -9277.964 -10259.65 0
v -9277.964 -8774.776 0
v -11068.52 -8774.776 0
v -11068.52 -10259.65 0
v -10678.38 -10128.36 0
v -10678.38 -8643.488 0
v -12468.93 -8643.488 0
v -12468.93 -10128.36 0
v -6349.073 -8889.966 0
v -6349.073 -8661.063 0
v -6512.02 -8661.063 0
v -6512.02 -8889.966 0
v -6382.981 -9062.806 0
v -6382.981 -8795.107 0
v -6623.522 -8795.107 0
v -6623.522 -9062.806 0
v -7144.758 -8350.61 0
v -7144.758 -8051.875 0
v -7420.215 -8051.875 0
v -7420.215 -8350.61 0
v -7211.837 -9498.26 0
v -9601.917 -8231.738 0
v -10347.36 -9638.475 0
v -7957.242 -10905 0
v -7545.452 -9192.463 0
v -7545.452 -8905.366 0
v -7828.669 -8905.366 0
v -7828.669 -9192.463 0
v -6499.489 -9198.673 0
v -6499.489 -8955.028 0
v -6727.575 -8955.028 0
v -6727.575 -9198.673 0
v -7386.851 -8875.105 0
v -7386.851 -8631.462 0
v -7614.937 -8631.462 0
v -7614.937 -8875.105 0
v -7672.162 -9287.207 0
v -7672.162 -9124.26 0
v -7838.989 -9124.26 0
v -7838.989 -9287.207 0
vt 0.601145 0.8391473
vt 0.5 0.8391473
vt 0.5 0.996124
vt 0.601145 0.996124
vt 0.601145 0.8391473
vt 0.5 0.8391473
vt 0.5 0.996124
vt 0.601145 0.996124
vt 0.1755725 0.9321705
vt 0.1456743 0.9321705
vt 0.1456743 0.996124
vt 0.1755725 0.996124
vt 0.1755725 0.9321705
vt 0.1456743 0.9321705
vt 0.1456743 0.996124
vt 0.1755725 0.996124
vt 0.8129771 0.8158915
vt 0.7888041 0.8158915
vt 0.7888041 0.8410853
vt 0.8129771 0.8410853
vt 0.9745547 0.75
vt 0.9745547 0.7916667
vt 0.9980916 0.7916667
vt 0.9980916 0.75
vt 0.601145 0.8391473
vt 0.5 0.8391473
vt 0.5 0.996124
vt 0.601145 0.996124
vt 0.601145 0.8391473
vt 0.5 0.8391473
vt 0.5 0.996124
vt 0.601145 0.996124
vt 0.9650127 0.875969
vt 0.9650127 0.9166667
vt 0.9987277 0.9166667
vt 0.9987277 0.875969
vt 0.1755725 0.9321705
vt 0.1456743 0.9321705
vt 0.1456743 0.996124
vt 0.1755725 0.996124
vt 0.9650127 0.875969
vt 0.9650127 0.9166667
vt 0.9987277 0.9166667
vt 0.9987277 0.875969
vt 0.4987277 0.8391473
vt 0.4122137 0.8391473
vt 0.4122137 0.998062
vt 0.4987277 0.998062
vt 0.8129771 0.4893411
vt 0.8129771 0.5649225
vt 0.8899491 0.5649225
vt 0.8899491 0.4893411
vt 0.601145 0.8391473
vt 0.5 0.8391473
vt 0.5 0.996124
vt 0.601145 0.996124
vt 0.8886768 0.9718992
vt 0.8587787 0.9718992
vt 0.8587787 0.996124
vt 0.8886768 0.996124
vt 0.8148855 0.7296512
vt 0.8148855 0.8546512
vt 0.928117 0.8546512
vt 0.928117 0.7296512
vt 0.9650127 0.875969
vt 0.9650127 0.9166667
vt 0.9987277 0.9166667
vt 0.9987277 0.875969
vt 0.7035623 0.8391473
vt 0.6024173 0.8391473
vt 0.6024173 0.995155
vt 0.7035623 0.995155
vt 0.7035623 0.8391473
vt 0.6024173 0.8391473
vt 0.6024173 0.995155
vt 0.7035623 0.995155
vt 0.601145 0.8391473
vt 0.5 0.8391473
vt 0.5 0.996124
vt 0.601145 0.996124
vt 0.601145 0.8391473
vt 0.5 0.8391473
vt 0.5 0.996124
vt 0.601145 0.996124
vt 0.4987277 0.8391473
vt 0.4122137 0.8391473
vt 0.4122137 0.998062
vt 0.4987277 0.998062
vt 0.8326972 0.2606589
vt 0.8326972 0.4021318
vt 0.8810433 0.4021318
vt 0.8810433 0.2606589
vt 0.8129771 0.4893411
vt 0.8129771 0.5649225
vt 0.8899491 0.5649225
vt 0.8899491 0.4893411
vt 0.8326972 0.2606589
vt 0.8326972 0.4021318
vt 0.8810433 0.4021318
vt 0.8810433 0.2606589
vt 0.8326972 0.2606589
vt 0.8326972 0.4021318
vt 0.8810433 0.4021318
vt 0.8810433 0.2606589
vt 0.1755725 0.9321705
vt 0.1456743 0.9321705
vt 0.1456743 0.996124
vt 0.1755725 0.996124
vt 0.4987277 0.8391473
vt 0.4122137 0.8391473
vt 0.4122137 0.998062
vt 0.4987277 0.998062
vt 0.8148855 0.7296512
vt 0.8148855 0.8546512
vt 0.928117 0.8546512
vt 0.928117 0.7296512
vt 0.4987277 0.8391473
vt 0.4122137 0.8391473
vt 0.4122137 0.998062
vt 0.4987277 0.998062
vt 0.7035623 0.8391473
vt 0.6024173 0.8391473
vt 0.6024173 0.995155
vt 0.7035623 0.995155
vt 0.8148855 0.7296512
vt 0.8148855 0.8546512
vt 0.928117 0.8546512
vt 0.928117 0.7296512
vt 0.7035623 0.8391473
vt 0.6024173 0.8391473
vt 0.6024173 0.995155
vt 0.7035623 0.995155
vt 0.8326972 0.2606589
vt 0.8326972 0.4021318
vt 0.8810433 0.4021318
vt 0.8810433 0.2606589
vt 0.8129771 0.4893411
vt 0.8129771 0.5649225
vt 0.8899491 0.5649225
vt 0.8899491 0.4893411
vt 0.4987277 0.8391473
vt 0.4122137 0.8391473
vt 0.4122137 0.998062
vt 0.4987277 0.998062
vt 0.8148855 0.7296512
vt 0.8148855 0.8546512
vt 0.928117 0.8546512
vt 0.928117 0.7296512
vt 0.7035623 0.8391473
vt 0.6024173 0.8391473
vt 0.6024173 0.995155
vt 0.7035623 0.995155
vt 0.4987277 0.8391473
vt 0.4122137 0.8391473
vt 0.4122137 0.998062
vt 0.4987277 0.998062
vt 0.9650127 0.875969
vt 0.9650127 0.9166667
vt 0.9987277 0.9166667
vt 0.9987277 0.875969
vt 0.8129771 0.4893411
vt 0.8129771 0.5649225
vt 0.8899491 0.5649225
vt 0.8899491 0.4893411
vt 0.8326972 0.2606589
vt 0.8326972 0.4021318
vt 0.8810433 0.4021318
vt 0.8810433 0.2606589
vt 0.8326972 0.2606589
vt 0.8326972 0.4021318
vt 0.8810433 0.4021318
vt 0.8810433 0.2606589
vt 0.4987277 0.8391473
vt 0.4122137 0.8391473
vt 0.4122137 0.998062
vt 0.4987277 0.998062
vt 0.4987277 0.8391473
vt 0.4122137 0.8391473
vt 0.4122137 0.998062
vt 0.4987277 0.998062
vt 0.4987277 0.8391473
vt 0.4122137 0.8391473
vt 0.4122137 0.998062
vt 0.4987277 0.998062
vt 0.4987277 0.8391473
vt 0.4122137 0.8391473
vt 0.4122137 0.998062
vt 0.4987277 0.998062
vt 0.9669211 0.8120155
vt 0.9293893 0.8120155
vt 0.9293893 0.8527132
vt 0.9669211 0.8527132
vt 0.7480916 0.7713178
vt 0.7041985 0.7713178
vt 0.7041985 0.8313953
vt 0.7480916 0.8313953
vt 0.394402 0.8391473
vt 0.3454199 0.8391473
vt 0.3454199 0.9079458
vt 0.394402 0.9079458
vt 0.8823155 0.3168604
vt 0.8823155 0.4864341
vt 0.9478372 0.4864341
vt 0.9478372 0.3168604
vt 0.879771 0.4040698
vt 0.8326972 0.4040698
vt 0.8326972 0.4748062
vt 0.879771 0.4748062
vt 0.9980916 0.8313953
vt 0.9681934 0.8313953
vt 0.9681934 0.874031
vt 0.9980916 0.874031
vt 0.9980916 0.8313953
vt 0.9681934 0.8313953
vt 0.9681934 0.874031
vt 0.9980916 0.874031
vt 0.9637405 0.9186047
vt 0.9637405 0.9593023
vt 0.9910942 0.9593023
vt 0.9910942 0.9186047
vn 0 0 -1
vn 0 0 -1
vn 0 0 -1
vn 0 0 -1
vn 0 0 -1
vn 0 0 -1
vn 0 0 -1
vn 0 0 -1
vn 0 0 -1
vn 0 0 -1
vn 0 0 -1
vn 0 0 -1
vn 0 0 -1
vn 0 0 -1
vn 0 0 -1
vn 0 0 -1
vn 0 0 -1
vn 0 0 -1
vn 0 0 -1
vn 0 0 -1
vn 0 0 -1
vn 0 0 -1
vn 0 0 -1
vn 0 0 -1
vn 0 0 -1
vn 0 0 -1
vn 0 0 -1
vn 0 0 -1
vn 0 0 -1
vn 0 0 -1
vn 0 0 -1
vn 0 0 -1
vn 0 0 1
vn 0 0 1
vn 0 0 1
vn 0 0 1
vn 0 0 -1
vn 0 0 -1
vn 0 0 -1
vn 0 0 -1
vn 0 0 -1
vn 0 0 -1
vn 0 0 -1
vn 0 0 -1
vn 0 0 -1
vn 0 0 -1
vn 0 0 -1
vn 0 0 -1
vn 0 0 -1
vn 0 0 -1
vn 0 0 -1
vn 0 0 -1
vn 0 0 -1
vn 0 0 -1
vn 0 0 -1
vn 0 0 -1
vn 0 0 -1
vn 0 0 -1
vn 0 0 -1
vn 0 0 -1
vn 0 0 -1
vn 0 0 -1
vn 0 0 -1
vn 0 0 -1
vn 0 0 -1
vn 0 0 -1
vn 0 0 -1
vn 0 0 -1
vn 0 0 -1
vn 0 0 -1
vn 0 0 -1
vn 0 0 -1
vn 0 0 -1
vn 0 0 -1
vn 0 0 -1
vn 0 0 -1
vn 0 0 -1
vn 0 0 -1
vn 0 0 -1
vn 0 0 -1
vn 0 0 -1
vn 0 0 -1
vn 0 0 -1
vn 0 0 -1
vn 0 0 -1
vn 0 0 -1
vn 0 0 -1
vn 0 0 -1
vn 0 0 1
vn 0 0 1
vn 0 0 1
vn 0 0 1
vn 0 0 -1
vn 0 0 -1
vn 0 0 -1
vn 0 0 -1
vn 0 0 1
vn 0 0 1
vn 0 0 1
vn 0 0 1
vn 0 0 -1
vn 0 0 -1
vn 0 0 -1
vn 0 0 -1
vn 0 0 -1
vn 0 0 -1
vn 0 0 -1
vn 0 0 -1
vn 0 0 -1
vn 0 0 -1
vn 0 0 -1
vn 0 0 -1
vn 0 0 -1
vn 0 0 -1
vn 0 0 -1
vn 0 0 -1
vn 0 0 -1
vn 0 0 -1
vn 0 0 -1
vn 0 0 -1
vn 0 0 -1
vn 0 0 -1
vn 0 0 -1
vn 0 0 -1
vn 0 0 -1
vn 0 0 -1
vn 0 0 -1
vn 0 0 -1
vn 0 0 -1
vn 0 0 -1
vn 0 0 -1
vn 0 0 -1
vn 0 0 -1
vn 0 0 -1
vn 0 0 -1
vn 0 0 -1
vn 0 0 -1
vn 0 0 -1
vn 0 0 -1
vn 0 0 -1
vn 0 0 -1
vn 0 0 -1
vn 0 0 -1
vn 0 0 -1
vn 0 0 -1
vn 0 0 -1
vn 0 0 -1
vn 0 0 -1
vn 0 0 -1
vn 0 0 -1
vn 0 0 -1
vn 0 0 -1
vn 0 0 -1
vn 0 0 -1
vn 0 0 -1
vn 0 0 -1
vn 0 0 -1
vn 0 0 -1
vn 0 0 -1
vn 0 0 -1
vn 0 0 -1
vn 0 0 -1
vn 0 0 -1
vn 0 0 -1
vn 0 0 1
vn 0 0 1
vn 0 0 1
vn 0 0 1
vn 0 0 1
vn 0 0 1
vn 0 0 1
vn 0 0 1
vn 0 0 -1
vn 0 0 -1
vn 0 0 -1
vn 0 0 -1
vn 0 0 -1
vn 0 0 -1
vn 0 0 -1
vn 0 0 -1
vn 0 0 -1
vn 0 0 -1
vn 0 0 -1
vn 0 0 -1
vn 0 0 -1
vn 0 0 -1
vn 0 0 -1
vn 0 0 -1
vn 0 0 -1
vn 0 0 -1
vn 0 0 -1
vn 0 0 -1
vn 0 0 -1
vn 0 0 -1
vn 0 0 -1
vn 0 0 -1
vn 0 0 -1
vn 0 0 -1
vn 0 0 -1
vn 0 0 -1
vn 0 0 -1
vn 0 0 -1
vn 0 0 -1
vn 0 0 -1
vn 0 0 -1
vn 0 0 -1
vn 0 0 -1
vn 0 0 -1
vn 0 0 -1
vn 0 0 -1
vn 0 0 -1
vn 0 0 -1
vn 0 0 -1
vn 0 0 -1
vn 0 0 -1
vn 0 0 -1
vn 0 0 -1
vn 0 0 -1
vn 0 0 -1
vn 0 0 -1
g worldmap_ep06_1_0
f 3/3/3 2/2/2 1/1/1
f 4/4/4 3/3/3 1/1/1
f 7/7/7 6/6/6 5/5/5
f 8/8/8 7/7/7 5/5/5
f 11/11/11 10/10/10 9/9/9
f 12/12/12 11/11/11 9/9/9
f 15/15/15 14/14/14 13/13/13
f 16/16/16 15/15/15 13/13/13
f 19/19/19 18/18/18 17/17/17
f 20/20/20 19/19/19 17/17/17
f 23/23/23 22/22/22 21/21/21
f 24/24/24 23/23/23 21/21/21
f 27/27/27 26/26/26 25/25/25
f 28/28/28 27/27/27 25/25/25
f 31/31/31 30/30/30 29/29/29
f 32/32/32 31/31/31 29/29/29
f 35/35/35 34/34/34 33/33/33
f 36/36/36 35/35/35 33/33/33
f 39/39/39 38/38/38 37/37/37
f 40/40/40 39/39/39 37/37/37
f 43/43/43 42/42/42 41/41/41
f 44/44/44 43/43/43 41/41/41
f 47/47/47 46/46/46 45/45/45
f 48/48/48 47/47/47 45/45/45
f 51/51/51 50/50/50 49/49/49
f 52/52/52 51/51/51 49/49/49
f 55/55/55 54/54/54 53/53/53
f 56/56/56 55/55/55 53/53/53
f 59/59/59 58/58/58 57/57/57
f 60/60/60 59/59/59 57/57/57
f 63/63/63 62/62/62 61/61/61
f 64/64/64 63/63/63 61/61/61
f 67/67/67 66/66/66 65/65/65
f 68/68/68 67/67/67 65/65/65
f 71/71/71 70/70/70 69/69/69
f 72/72/72 71/71/71 69/69/69
f 75/75/75 74/74/74 73/73/73
f 76/76/76 75/75/75 73/73/73
f 79/79/79 78/78/78 77/77/77
f 80/80/80 79/79/79 77/77/77
f 83/83/83 82/82/82 81/81/81
f 84/84/84 83/83/83 81/81/81
f 87/87/87 86/86/86 85/85/85
f 88/88/88 87/87/87 85/85/85
f 91/91/91 90/90/90 89/89/89
f 92/92/92 91/91/91 89/89/89
f 95/95/95 94/94/94 93/93/93
f 96/96/96 95/95/95 93/93/93
f 99/99/99 98/98/98 97/97/97
f 100/100/100 99/99/99 97/97/97
f 103/103/103 102/102/102 101/101/101
f 104/104/104 103/103/103 101/101/101
f 107/107/107 106/106/106 105/105/105
f 108/108/108 107/107/107 105/105/105
f 111/111/111 110/110/110 109/109/109
f 112/112/112 111/111/111 109/109/109
f 115/115/115 114/114/114 113/113/113
f 116/116/116 115/115/115 113/113/113
f 119/119/119 118/118/118 117/117/117
f 120/120/120 119/119/119 117/117/117
f 123/123/123 122/122/122 121/121/121
f 124/124/124 123/123/123 121/121/121
f 127/127/127 126/126/126 125/125/125
f 128/128/128 127/127/127 125/125/125
f 131/131/131 130/130/130 129/129/129
f 132/132/132 131/131/131 129/129/129
f 135/135/135 134/134/134 133/133/133
f 136/136/136 135/135/135 133/133/133
f 139/139/139 138/138/138 137/137/137
f 140/140/140 139/139/139 137/137/137
f 143/143/143 142/142/142 141/141/141
f 144/144/144 143/143/143 141/141/141
f 147/147/147 146/146/146 145/145/145
f 148/148/148 147/147/147 145/145/145
f 151/151/151 150/150/150 149/149/149
f 152/152/152 151/151/151 149/149/149
f 155/155/155 154/154/154 153/153/153
f 156/156/156 155/155/155 153/153/153
f 159/159/159 158/158/158 157/157/157
f 160/160/160 159/159/159 157/157/157
f 163/163/163 162/162/162 161/161/161
f 164/164/164 163/163/163 161/161/161
f 167/167/167 166/166/166 165/165/165
f 168/168/168 167/167/167 165/165/165
f 171/171/171 170/170/170 169/169/169
f 172/172/172 171/171/171 169/169/169
f 175/175/175 174/174/174 173/173/173
f 176/176/176 175/175/175 173/173/173
f 179/179/179 178/178/178 177/177/177
f 180/180/180 179/179/179 177/177/177
f 183/183/183 182/182/182 181/181/181
f 184/184/184 183/183/183 181/181/181
f 187/187/187 186/186/186 185/185/185
f 188/188/188 187/187/187 185/185/185
f 191/191/191 190/190/190 189/189/189
f 192/192/192 191/191/191 189/189/189
f 195/195/195 194/194/194 193/193/193
f 196/196/196 195/195/195 193/193/193
f 199/199/199 198/198/198 197/197/197
f 200/200/200 199/199/199 197/197/197
f 203/203/203 202/202/202 201/201/201
f 204/204/204 203/203/203 201/201/201
f 207/207/207 206/206/206 205/205/205
f 208/208/208 207/207/207 205/205/205
f 211/211/211 210/210/210 209/209/209
f 212/212/212 211/211/211 209/209/209
f 215/215/215 214/214/214 213/213/213
f 216/216/216 215/215/215 213/213/213
f 219/219/219 218/218/218 217/217/217
f 220/220/220 219/219/219 217/217/217
