g worldmap_ep06_10
v 234.4824 -60.6936 0
v 234.4824 -3704.921 0
v -12414.85 -3704.921 0
v -12414.85 -60.6936 0
v -11978.57 -3127.624 0
v -11978.57 -9812.711 0
v -568.1104 -9812.711 0
v -568.1104 -3127.624 0
v -12.1123 -1925.309 0
v -12.1123 -69.69421 0
v -12122.05 -69.69421 0
v -12122.05 -1925.309 0
v -214.9414 -7724.313 0
v -214.9414 -2982.601 0
v -12324.88 -2982.601 0
v -12324.88 -7724.313 0
v -2382.754 -5396.852 0
v -2382.754 1919.731 0
v -9631.56 1919.731 0
v -9631.56 -5396.852 0
v -1011.246 -1417.186 0
v -1011.246 -473.0652 0
v -5600.644 -473.0652 0
v -5600.644 -1417.186 0
v -2755.709 -3159.748 0
v -2770.141 -1258.081 0
v 182.2998 -1235.695 0
v 196.7324 -3137.362 0
v -5047.167 -2734.999 0
v -5047.167 -1575.09 0
v -2116.569 -1575.09 0
v -2116.569 -2734.999 0
v -9454.761 -2881.535 0
v -9468.106 -1120.352 0
v -12277.97 -1141.652 0
v -12264.62 -2902.834 0
v -6039.591 -1817.454 0
v -6039.591 -875.156 0
v -11964.03 -875.156 0
v -11964.03 -1817.454 0
v -6653.862 -1719.764 0
v -6653.862 -972.8464 0
v -11349.75 -972.8464 0
v -11349.75 -1719.764 0
v -6899.678 -2688.405 0
v -6899.678 -1303.357 0
v -10073.26 -1303.357 0
v -10073.26 -2688.405 0
v -142.3916 -998.0643 0
v -142.3916 -16.65894 0
v -3433.49 -16.65894 0
v -3433.49 -998.0643 0
v -9055.466 -1223.164 0
v -9055.466 -366.6456 0
v -11927.83 -366.6456 0
v -11927.83 -1223.164 0
v -4250.707 -802.1016 0
v -4224.093 409.0588 0
v -970.3174 337.5951 0
v -996.9297 -873.5648 0
v -7595.927 -897.4641 0
v -7595.927 -152.5643 0
v -10016.85 -152.5643 0
v -10016.85 -897.4641 0
v -10441.52 -1104.523 0
v -10441.52 -635.0807 0
v -12544.31 -635.0807 0
v -12544.31 -1104.523 0
vt 0.9148378 0.9662064
vt 0.9148378 0.9930959
vt 0.9324905 0.9930959
vt 0.9324905 0.9662064
vt 0.915792 0.9676599
vt 0.915792 0.9916424
vt 0.9315363 0.9916424
vt 0.9315363 0.9676599
vt 0.6882952 0.001937985
vt 0.6882952 0.498062
vt 0.7086514 0.498062
vt 0.7086514 0.001937985
vt 0.692112 0.01608661
vt 0.692112 0.4889548
vt 0.7048346 0.4889548
vt 0.7048346 0.01608661
vt 0.5655217 0.5765504
vt 0.5655217 0.7858527
vt 0.701654 0.7858527
vt 0.701654 0.5765504
vt 0.5477099 0.001937985
vt 0.4643766 0.001937985
vt 0.4643766 0.5746124
vt 0.5477099 0.5746124
vt 0.7347328 0.8565891
vt 0.7347328 0.9738372
vt 0.8575063 0.9738372
vt 0.8575063 0.8565891
vt 0.2805344 0.9098837
vt 0.2805344 0.997093
vt 0.4109415 0.997093
vt 0.4109415 0.9098837
vt 0.7347328 0.8565891
vt 0.7347328 0.9738372
vt 0.8575063 0.9738372
vt 0.8575063 0.8565891
vt 0.6087787 0.001937985
vt 0.5489822 0.001937985
vt 0.5489822 0.5746124
vt 0.6087787 0.5746124
vt 0.6087787 0.001937985
vt 0.5489822 0.001937985
vt 0.5489822 0.5746124
vt 0.6087787 0.5746124
vt 0.2805344 0.9098837
vt 0.2805344 0.997093
vt 0.4109415 0.997093
vt 0.4109415 0.9098837
vt 0.2824427 0.5862403
vt 0.2194656 0.5862403
vt 0.2194656 0.9079458
vt 0.2824427 0.9079458
vt 0.2824427 0.5862403
vt 0.2194656 0.5862403
vt 0.2194656 0.9079458
vt 0.2824427 0.9079458
vt 0.1234097 0.001937985
vt 0.001272265 0.001937985
vt 0.001272265 0.6065891
vt 0.1234097 0.6065891
vt 0.1234097 0.001937985
vt 0.001272265 0.001937985
vt 0.001272265 0.6065891
vt 0.1234097 0.6065891
vt 0.6870229 0.001937985
vt 0.6100509 0.001937985
vt 0.6100509 0.5271318
vt 0.6870229 0.5271318
vn 0 0 1
vn 0 0 1
vn 0 0 1
vn 0 0 1
vn 0 0 -1
vn 0 0 -1
vn 0 0 -1
vn 0 0 -1
vn 0 0 -1
vn 0 0 -1
vn 0 0 -1
vn 0 0 -1
vn 0 0 -1
vn 0 0 -1
vn 0 0 -1
vn 0 0 -1
vn 0 0 -1
vn 0 0 -1
vn 0 0 -1
vn 0 0 -1
vn 0 0 -1
vn 0 0 -1
vn 0 0 -1
vn 0 0 -1
vn 0 0 1
vn 0 0 1
vn 0 0 1
vn 0 0 1
vn 0 0 1
vn 0 0 1
vn 0 0 1
vn 0 0 1
vn 0 0 -1
vn 0 0 -1
vn 0 0 -1
vn 0 0 -1
vn 0 0 -1
vn 0 0 -1
vn 0 0 -1
vn 0 0 -1
vn 0 0 -1
vn 0 0 -1
vn 0 0 -1
vn 0 0 -1
vn 0 0 -1
vn 0 0 -1
vn 0 0 -1
vn 0 0 -1
vn 0 0 -1
vn 0 0 -1
vn 0 0 -1
vn 0 0 -1
vn 0 0 -1
vn 0 0 -1
vn 0 0 -1
vn 0 0 -1
vn 0 0 1
vn 0 0 1
vn 0 0 1
vn 0 0 1
vn 0 0 -1
vn 0 0 -1
vn 0 0 -1
vn 0 0 -1
vn 0 0 -1
vn 0 0 -1
vn 0 0 -1
vn 0 0 -1
g worldmap_ep06_10_0
f 3/3/3 2/2/2 1/1/1
f 4/4/4 3/3/3 1/1/1
f 7/7/7 6/6/6 5/5/5
f 8/8/8 7/7/7 5/5/5
f 11/11/11 10/10/10 9/9/9
f 12/12/12 11/11/11 9/9/9
f 15/15/15 14/14/14 13/13/13
f 16/16/16 15/15/15 13/13/13
f 19/19/19 18/18/18 17/17/17
f 20/20/20 19/19/19 17/17/17
f 23/23/23 22/22/22 21/21/21
f 24/24/24 23/23/23 21/21/21
f 27/27/27 26/26/26 25/25/25
f 28/28/28 27/27/27 25/25/25
f 31/31/31 30/30/30 29/29/29
f 32/32/32 31/31/31 29/29/29
f 35/35/35 34/34/34 33/33/33
f 36/36/36 35/35/35 33/33/33
f 39/39/39 38/38/38 37/37/37
f 40/40/40 39/39/39 37/37/37
f 43/43/43 42/42/42 41/41/41
f 44/44/44 43/43/43 41/41/41
f 47/47/47 46/46/46 45/45/45
f 48/48/48 47/47/47 45/45/45
f 51/51/51 50/50/50 49/49/49
f 52/52/52 51/51/51 49/49/49
f 55/55/55 54/54/54 53/53/53
f 56/56/56 55/55/55 53/53/53
f 59/59/59 58/58/58 57/57/57
f 60/60/60 59/59/59 57/57/57
f 63/63/63 62/62/62 61/61/61
f 64/64/64 63/63/63 61/61/61
f 67/67/67 66/66/66 65/65/65
f 68/68/68 67/67/67 65/65/65
