g CalibrationRGBScale001
v -0.06019626 0 -1.22532
v -0.05542148 0 -1.128127
v -0.1107093 0 -1.124049
v -0.1202473 0 -1.22089
v -5.493164E-07 0 -1.226799
v -0.1657304 0 -1.117262
v -5.068594E-07 0 -1.129489
v -0.1800088 0 -1.213519
v 0.06019568 0 -1.225322
v -0.2203523 0 -1.107785
v 0.05542093 0 -1.128129
v -0.2393366 0 -1.203225
v 0.1202469 0 -1.220892
v -0.2744433 0 -1.095638
v 0.1107089 0 -1.12405
v -0.2980878 0 -1.190032
v 0.1800084 0 -1.213521
v -0.3278733 0 -1.080852
v 0.1657301 0 -1.117264
v -0.3561208 0 -1.173972
v 0.2393362 0 -1.203227
v -0.3805132 0 -1.063462
v 0.220352 0 -1.107786
v -0.4132959 0 -1.155084
v 0.2980876 0 -1.190034
v -0.4322365 0 -1.04351
v 0.2744431 0 -1.09564
v -0.4694754 0 -1.133413
v 0.3561207 0 -1.173974
v -0.4829186 0 -1.021045
v 0.3278731 0 -1.080854
v -0.524524 0 -1.109012
v 0.4132959 0 -1.155085
v -0.5324371 0 -0.9961194
v 0.3805131 0 -1.063464
v -0.5783086 0 -1.081939
v 0.4694754 0 -1.133415
v -0.5806732 0 -0.968794
v 0.4322365 0 -1.043512
v -0.6307005 0 -1.05226
v 0.5245239 0 -1.109013
v -0.6275102 0 -0.9391347
v 0.4829186 0 -1.021046
v -0.6815727 0 -1.020045
v 0.578309 0 -1.08194
v -0.6728354 0 -0.907213
v 0.5324373 0 -0.9961206
v -0.730803 0 -0.985373
v 0.6307005 0 -1.052261
v -0.7165397 0 -0.8731058
v 0.5806732 0 -0.9687951
v -0.7782726 0 -0.9483275
v 0.6815729 0 -1.020046
v -0.7585179 0 -0.8368952
v 0.6275103 0 -0.9391358
v -0.8238674 0 -0.9089971
v 0.7308032 0 -0.9853743
v -0.798669 0 -0.7986684
v 0.6728358 0 -0.907214
v -0.8674774 0 -0.867477
v 0.778273 0 -0.9483286
v -0.8368957 0 -0.7585177
v 0.7165402 0 -0.8731069
v -0.9089978 0 -0.823867
v 0.8238679 0 -0.9089978
v -0.8731062 0 -0.7165394
v 0.7585185 0 -0.8368959
v -0.9483279 0 -0.7782723
v 0.8674778 0 -0.8674777
v -0.9072136 0 -0.6728352
v 0.7986692 0 -0.7986691
v -0.9853736 0 -0.7308025
v 0.908998 0 -0.8238676
v -0.9391354 0 -0.6275098
v 0.8368961 0 -0.7585182
v -1.020046 0 -0.6815723
v 0.9483287 0 -0.7782727
v -0.9687947 0 -0.5806728
v 0.873107 0 -0.7165399
v -1.05226 0 -0.6307001
v 0.9853743 0 -0.7308031
v -0.99612 0 -0.5324369
v 0.9072141 0 -0.6728355
v -1.08194 0 -0.5783085
v 1.020046 0 -0.6815726
v -1.021046 0 -0.4829182
v 0.9391358 0 -0.62751
v -1.109013 0 -0.5245236
v 1.052261 0 -0.6307002
v -1.043511 0 -0.4322362
v 0.9687952 0 -0.5806729
v -1.133414 0 -0.4694751
v 1.08194 0 -0.5783086
v -1.063463 0 -0.3805129
v 0.9961206 0 -0.532437
v -1.155085 0 -0.4132957
v 1.109013 0 -0.5245236
v -1.080853 0 -0.327873
v 1.021046 0 -0.4829182
v -1.173973 0 -0.3561205
v 1.133415 0 -0.4694751
v -1.095639 0 -0.274443
v 1.043512 0 -0.4322361
v -1.190033 0 -0.2980874
v 1.155085 0 -0.4132956
v -1.107786 0 -0.220352
v 1.063464 0 -0.3805129
v -1.203226 0 -0.2393362
v 1.173974 0 -0.3561203
v -1.117264 0 -0.1657301
v 1.080854 0 -0.3278727
v -1.21352 0 -0.1800084
v 1.190034 0 -0.2980872
v -1.12405 0 -0.110709
v 1.09564 0 -0.2744429
v -1.220891 0 -0.120247
v 1.203226 0 -0.2393359
v -1.128128 0 -0.05542113
v 1.107786 0 -0.2203517
v -1.225321 0 -0.06019589
v 1.213521 0 -0.1800081
v -1.129489 0 2.504229E-07
v 1.117264 0 -0.1657298
v -1.226799 0 2.660543E-07
v 1.220891 0 -0.1202466
v -1.128128 0 0.05542162
v 1.12405 0 -0.1107086
v -1.225322 0 0.06019641
v 1.225321 0 -0.06019538
v -1.12405 0 0.1107095
v 1.128128 0 -0.05542066
v -1.220891 0 0.1202476
v 1.226799 0 8.053362E-07
v -1.117264 0 0.1657306
v 1.129489 0 7.469288E-07
v -1.213521 0 0.180009
v 1.225321 0 0.06019701
v -1.107786 0 0.2203525
v 1.128128 0 0.05542217
v -1.203227 0 0.2393368
v 1.220891 0 0.1202482
v -1.09564 0 0.2744436
v 1.12405 0 0.1107101
v -1.190033 0 0.298088
v 1.213521 0 0.1800096
v -1.080854 0 0.3278735
v 1.117264 0 0.1657312
v -1.173974 0 0.3561212
v 1.203226 0 0.2393375
v -1.063464 0 0.3805135
v 1.107786 0 0.2203532
v -1.155085 0 0.4132963
v 1.190033 0 0.2980888
v -1.043512 0 0.4322369
v 1.095639 0 0.2744443
v -1.133415 0 0.4694757
v 1.173973 0 0.3561219
v -1.021046 0 0.4829189
v 1.080853 0 0.3278742
v -1.109014 0 0.5245244
v 1.155085 0 0.413297
v -0.9961208 0 0.5324375
v 1.063463 0 0.3805142
v -1.081941 0 0.5783091
v 1.133414 0 0.4694766
v -0.9687954 0 0.5806735
v 1.043511 0 0.4322375
v -1.052261 0 0.6307009
v 1.109013 0 0.524525
v -0.9391361 0 0.6275107
v 1.021046 0 0.4829196
v -1.020047 0 0.6815733
v 1.08194 0 0.57831
v -0.9072144 0 0.6728358
v 0.99612 0 0.5324383
v -0.9853746 0 0.7308034
v 1.05226 0 0.6307015
v -0.8731074 0 0.7165403
v 0.9687945 0 0.5806741
v -0.9483292 0 0.778273
v 1.020046 0 0.6815739
v -0.8368967 0 0.7585185
v 0.9391353 0 0.6275113
v -0.9089985 0 0.8238679
v 0.9853735 0 0.7308043
v -0.7986699 0 0.7986694
v 0.9072134 0 0.6728367
v -0.8674785 0 0.867478
v 0.9483281 0 0.7782739
v -0.7585191 0 0.8368962
v 0.8731064 0 0.716541
v -0.8238685 0 0.9089981
v 0.9089974 0 0.8238689
v -0.7165408 0 0.873107
v 0.8368954 0 0.7585194
v -0.7782737 0 0.9483289
v 0.8674773 0 0.8674788
v -0.6728365 0 0.9072142
v 0.7986688 0 0.7986701
v -0.730804 0 0.9853742
v 0.8238673 0 0.9089988
v -0.627511 0 0.9391361
v 0.7585179 0 0.8368969
v -0.6815736 0 1.020046
v 0.7782724 0 0.9483294
v -0.580674 0 0.9687953
v 0.7165395 0 0.8731077
v -0.6307014 0 1.052261
v 0.7308026 0 0.9853749
v -0.5324381 0 0.9961208
v 0.6728352 0 0.9072147
v -0.5783098 0 1.081941
v 0.6815723 0 1.020047
v -0.4829194 0 1.021046
v 0.6275099 0 0.9391366
v -0.5245248 0 1.109014
v 0.6307001 0 1.052262
v -0.4322373 0 1.043512
v 0.5806727 0 0.9687958
v -0.4694763 0 1.133415
v 0.5783084 0 1.081941
v -0.3805141 0 1.063464
v 0.5324368 0 0.9961213
v -0.4132969 0 1.155085
v 0.5245236 0 1.109014
v -0.327874 0 1.080854
v 0.4829181 0 1.021047
v -0.3561217 0 1.173974
v 0.4694749 0 1.133415
v -0.2744442 0 1.09564
v 0.432236 0 1.043512
v -0.2980887 0 1.190034
v 0.4132954 0 1.155086
v -0.2203531 0 1.107787
v 0.3805127 0 1.063464
v -0.2393374 0 1.203227
v 0.3561202 0 1.173974
v -0.1657312 0 1.117264
v 0.3278726 0 1.080854
v -0.1800096 0 1.213521
v 0.2980871 0 1.190034
v -0.11071 0 1.12405
v 0.2744427 0 1.09564
v -0.1202481 0 1.220892
v 0.2393358 0 1.203227
v -0.05542213 0 1.128129
v 0.2203516 0 1.107787
v -0.06019698 0 1.225322
v 0.180008 0 1.213522
v -7.34074E-07 0 1.129489
v 0.1657297 0 1.117265
v -7.961064E-07 0 1.226799
v 0.1202466 0 1.220892
v 0.05542067 0 1.128129
v 0.1107086 0 1.124051
v 0.06019539 0 1.225322
vt 0.9568017 0.5224413
vt 0.920568 0.5206613
vt 0.9190477 0.5412727
vt 0.9551504 0.5448285
vt 0.9573534 0.5000002
vt 0.9165177 0.5617846
vt 0.9210759 0.5000002
vt 0.9524024 0.5671077
vt 0.9568023 0.4775589
vt 0.9129844 0.5821478
vt 0.9205687 0.479339
vt 0.9485646 0.5892252
vt 0.9551511 0.4551717
vt 0.9084561 0.602313
vt 0.9190483 0.4587275
vt 0.9436462 0.6111277
vt 0.9524031 0.4328925
vt 0.902944 0.6222318
vt 0.9165183 0.4382155
vt 0.9376592 0.6327626
vt 0.9485653 0.4107749
vt 0.896461 0.6418561
vt 0.912985 0.4178523
vt 0.9306177 0.6540775
vt 0.943647 0.3888724
vt 0.8890228 0.6611387
vt 0.9084568 0.3976871
vt 0.9225388 0.6750214
vt 0.9376597 0.3672375
vt 0.8806476 0.6800331
vt 0.9029444 0.3777682
vt 0.913442 0.6955436
vt 0.9306182 0.3459224
vt 0.8713554 0.6984937
vt 0.8964615 0.3581439
vt 0.903349 0.7155948
vt 0.9225392 0.3249786
vt 0.8611684 0.7164761
vt 0.8890234 0.3388613
vt 0.8922845 0.7351265
vt 0.9134424 0.3044564
vt 0.8501114 0.7339371
vt 0.880648 0.3199669
vt 0.8802749 0.7540917
vt 0.9033495 0.2844052
vt 0.8382108 0.7508345
vt 0.8713558 0.3015063
vt 0.8673491 0.7724449
vt 0.892285 0.2648735
vt 0.8254957 0.7671275
vt 0.8611689 0.2835238
vt 0.8535385 0.7901417
vt 0.8802753 0.2459082
vt 0.8119962 0.7827771
vt 0.8501118 0.2660629
vt 0.8388761 0.8071395
vt 0.8673495 0.227555
vt 0.7977452 0.7977454
vt 0.8382113 0.2491655
vt 0.8233972 0.8233974
vt 0.8535388 0.2098582
vt 0.7827768 0.8119965
vt 0.825496 0.2328723
vt 0.8071393 0.8388762
vt 0.8388762 0.1928604
vt 0.7671273 0.8254959
vt 0.8119965 0.2172228
vt 0.7901415 0.8535386
vt 0.8233974 0.1766025
vt 0.7508343 0.8382111
vt 0.7977455 0.2022545
vt 0.7724447 0.8673494
vt 0.8071395 0.1611236
vt 0.7339369 0.8501117
vt 0.7827771 0.1880034
vt 0.7540916 0.8802752
vt 0.7901417 0.1464611
vt 0.716476 0.8611687
vt 0.7671275 0.1745039
vt 0.7351263 0.8922849
vt 0.7724449 0.1326504
vt 0.6984935 0.8713557
vt 0.7508345 0.1617887
vt 0.7155945 0.9033494
vt 0.7540917 0.1197246
vt 0.6800328 0.880648
vt 0.733937 0.1498882
vt 0.6955435 0.9134424
vt 0.7351263 0.107715
vt 0.6611385 0.8890232
vt 0.716476 0.1388311
vt 0.6750213 0.9225391
vt 0.7155946 0.09665039
vt 0.641856 0.8964615
vt 0.6984936 0.1286442
vt 0.6540775 0.9306182
vt 0.6955435 0.08655763
vt 0.6222317 0.9029443
vt 0.6800328 0.119352
vt 0.6327624 0.9376596
vt 0.6750213 0.07746071
vt 0.6023128 0.9084567
vt 0.6611385 0.1109766
vt 0.6111275 0.9436469
vt 0.6540775 0.06938183
vt 0.5821476 0.912985
vt 0.641856 0.1035386
vt 0.589225 0.9485653
vt 0.6327623 0.06234026
vt 0.5617844 0.9165182
vt 0.6222315 0.09705556
vt 0.5671074 0.9524029
vt 0.6111275 0.056353
vt 0.5412725 0.9190482
vt 0.6023128 0.09154322
vt 0.5448283 0.9551508
vt 0.5892249 0.05143473
vt 0.5206611 0.9205687
vt 0.5821475 0.08701503
vt 0.5224411 0.9568023
vt 0.5671073 0.0475969
vt 0.4999998 0.9210758
vt 0.5617843 0.08348163
vt 0.4999998 0.9573532
vt 0.5448282 0.04484913
vt 0.4793386 0.9205687
vt 0.5412724 0.08095184
vt 0.4775586 0.9568023
vt 0.522441 0.04319775
vt 0.4587272 0.9190483
vt 0.5206609 0.07943144
vt 0.4551714 0.955151
vt 0.4999997 0.04264686
vt 0.4382152 0.9165183
vt 0.4999997 0.07892426
vt 0.4328922 0.9524031
vt 0.4775584 0.04319778
vt 0.417852 0.912985
vt 0.4793385 0.07943145
vt 0.4107747 0.9485653
vt 0.4551712 0.04484916
vt 0.3976868 0.9084567
vt 0.458727 0.08095185
vt 0.3888721 0.9436469
vt 0.432892 0.04759708
vt 0.377768 0.9029446
vt 0.438215 0.08348177
vt 0.3672372 0.9376599
vt 0.4107745 0.05143479
vt 0.3581437 0.8964616
vt 0.4178518 0.08701512
vt 0.3459222 0.9306183
vt 0.3888718 0.05635315
vt 0.3388611 0.8890234
vt 0.3976865 0.09154335
vt 0.3249784 0.9225394
vt 0.367237 0.06234035
vt 0.3199667 0.8806481
vt 0.3777678 0.09705564
vt 0.3044562 0.9134426
vt 0.3459219 0.06938195
vt 0.3015062 0.8713559
vt 0.3581434 0.1035387
vt 0.2844051 0.9033498
vt 0.3249781 0.07746094
vt 0.2835237 0.861169
vt 0.3388609 0.1109768
vt 0.2648734 0.8922852
vt 0.3044559 0.08655772
vt 0.2660627 0.850112
vt 0.3199665 0.1193521
vt 0.2459081 0.8802755
vt 0.2844048 0.0966506
vt 0.2491654 0.8382115
vt 0.3015058 0.1286444
vt 0.2275549 0.8673497
vt 0.2648731 0.1077152
vt 0.2328722 0.8254963
vt 0.2835234 0.1388314
vt 0.2098581 0.8535391
vt 0.2459078 0.1197249
vt 0.2172227 0.8119968
vt 0.2660625 0.1498884
vt 0.1928603 0.8388766
vt 0.2275546 0.1326507
vt 0.2022544 0.7977458
vt 0.249165 0.1617889
vt 0.1766023 0.8233979
vt 0.2098578 0.1464613
vt 0.1880033 0.7827775
vt 0.2328719 0.1745042
vt 0.1611235 0.80714
vt 0.1928599 0.1611238
vt 0.1745038 0.7671279
vt 0.2172224 0.1880036
vt 0.146461 0.7901421
vt 0.1766021 0.1766027
vt 0.1617886 0.7508349
vt 0.2022541 0.2022546
vt 0.1326503 0.7724453
vt 0.1611233 0.1928606
vt 0.1498881 0.7339374
vt 0.1880031 0.217223
vt 0.1197246 0.7540921
vt 0.1464608 0.2098584
vt 0.138831 0.7164764
vt 0.1745036 0.2328726
vt 0.1077148 0.7351269
vt 0.1326501 0.2275553
vt 0.1286441 0.6984941
vt 0.1617884 0.2491657
vt 0.09665027 0.7155951
vt 0.1197243 0.2459084
vt 0.1193518 0.6800334
vt 0.1498879 0.2660631
vt 0.08655739 0.695544
vt 0.1077146 0.2648737
vt 0.1109765 0.661139
vt 0.1388308 0.283524
vt 0.07746062 0.6750217
vt 0.09665006 0.2844054
vt 0.1035384 0.6418564
vt 0.1286439 0.3015065
vt 0.06938162 0.654078
vt 0.08655718 0.3044565
vt 0.0970553 0.6222321
vt 0.1193516 0.3199672
vt 0.06234002 0.6327629
vt 0.07746038 0.3249788
vt 0.09154303 0.6023134
vt 0.1109764 0.3388616
vt 0.05635282 0.6111281
vt 0.06938151 0.3459226
vt 0.08701477 0.5821481
vt 0.1035383 0.3581441
vt 0.0514344 0.5892255
vt 0.06233993 0.3672377
vt 0.08348149 0.5617849
vt 0.09705526 0.3777684
vt 0.04759675 0.567108
vt 0.05635267 0.3888725
vt 0.08095153 0.5412729
vt 0.09154293 0.3976872
vt 0.04484883 0.5448287
vt 0.05143434 0.4107751
vt 0.07943112 0.5206615
vt 0.08701468 0.4178525
vt 0.04319745 0.5224416
vt 0.04759657 0.4328927
vt 0.07892394 0.5000002
vt 0.08348138 0.4382156
vt 0.04264656 0.5000003
vt 0.0448488 0.4551718
vt 0.0794311 0.4793391
vt 0.08095148 0.4587276
vt 0.04319739 0.477559
vn 0 1 0
vn 0 1 0
vn 0 1 0
vn 0 1 0
vn 0 1 0
vn 0 1 0
vn 0 1 0
vn 0 1 0
vn 0 1 0
vn 0 1 0
vn 0 1 0
vn 0 1 0
vn 0 1 0
vn 0 1 0
vn 0 1 0
vn 0 1 0
vn 0 1 0
vn 0 1 0
vn 0 1 0
vn 0 1 0
vn 0 1 0
vn 0 1 0
vn 0 1 0
vn 0 1 0
vn 0 1 0
vn 0 1 0
vn 0 1 0
vn 0 1 0
vn 0 1 0
vn 0 1 0
vn 0 1 0
vn 0 1 0
vn 0 1 0
vn 0 1 0
vn 0 1 0
vn 0 1 0
vn 0 1 0
vn 0 1 0
vn 0 1 0
vn 0 1 0
vn 0 1 0
vn 0 1 0
vn 0 1 0
vn 0 1 0
vn 0 1 0
vn 0 1 0
vn 0 1 0
vn 0 1 0
vn 0 1 0
vn 0 1 0
vn 0 1 0
vn 0 1 0
vn 0 1 0
vn 0 1 0
vn 0 1 0
vn 0 1 0
vn 0 1 0
vn 0 1 0
vn 0 1 0
vn 0 1 0
vn 0 1 0
vn 0 1 0
vn 0 1 0
vn 0 1 0
vn 0 1 0
vn 0 1 0
vn 0 1 0
vn 0 1 0
vn 0 1 0
vn 0 1 0
vn 0 1 0
vn 0 1 0
vn 0 1 0
vn 0 1 0
vn 0 1 0
vn 0 1 0
vn 0 1 0
vn 0 1 0
vn 0 1 0
vn 0 1 0
vn 0 1 0
vn 0 1 0
vn 0 1 0
vn 0 1 0
vn 0 1 0
vn 0 1 0
vn 0 1 0
vn 0 1 0
vn 0 1 0
vn 0 1 0
vn 0 1 0
vn 0 1 0
vn 0 1 0
vn 0 1 0
vn 0 1 0
vn 0 1 0
vn 0 1 0
vn 0 1 0
vn 0 1 0
vn 0 1 0
vn 0 1 0
vn 0 1 0
vn 0 1 0
vn 0 1 0
vn 0 1 0
vn 0 1 0
vn 0 1 0
vn 0 1 0
vn 0 1 0
vn 0 1 0
vn 0 1 0
vn 0 1 0
vn 0 1 0
vn 0 1 0
vn 0 1 0
vn 0 1 0
vn 0 1 0
vn 0 1 0
vn 0 1 0
vn 0 1 0
vn 0 1 0
vn 0 1 0
vn 0 1 0
vn 0 1 0
vn 0 1 0
vn 0 1 0
vn 0 1 0
vn 0 1 0
vn 0 1 0
vn 0 1 0
vn 0 1 0
vn 0 1 0
vn 0 1 0
vn 0 1 0
vn 0 1 0
vn 0 1 0
vn 0 1 0
vn 0 1 0
vn 0 1 0
vn 0 1 0
vn 0 1 0
vn 0 1 0
vn 0 1 0
vn 0 1 0
vn 0 1 0
vn 0 1 0
vn 0 1 0
vn 0 1 0
vn 0 1 0
vn 0 1 0
vn 0 1 0
vn 0 1 0
vn 0 1 0
vn 0 1 0
vn 0 1 0
vn 0 1 0
vn 0 1 0
vn 0 1 0
vn 0 1 0
vn 0 1 0
vn 0 1 0
vn 0 1 0
vn 0 1 0
vn 0 1 0
vn 0 1 0
vn 0 1 0
vn 0 1 0
vn 0 1 0
vn 0 1 0
vn 0 1 0
vn 0 1 0
vn 0 1 0
vn 0 1 0
vn 0 1 0
vn 0 1 0
vn 0 1 0
vn 0 1 0
vn 0 1 0
vn 0 1 0
vn 0 1 0
vn 0 1 0
vn 0 1 0
vn 0 1 0
vn 0 1 0
vn 0 1 0
vn 0 1 0
vn 0 1 0
vn 0 1 0
vn 0 1 0
vn 0 1 0
vn 0 1 0
vn 0 1 0
vn 0 1 0
vn 0 1 0
vn 0 1 0
vn 0 1 0
vn 0 1 0
vn 0 1 0
vn 0 1 0
vn 0 1 0
vn 0 1 0
vn 0 1 0
vn 0 1 0
vn 0 1 0
vn 0 1 0
vn 0 1 0
vn 0 1 0
vn 0 1 0
vn 0 1 0
vn 0 1 0
vn 0 1 0
vn 0 1 0
vn 0 1 0
vn 0 1 0
vn 0 1 0
vn 0 1 0
vn 0 1 0
vn 0 1 0
vn 0 1 0
vn 0 1 0
vn 0 1 0
vn 0 1 0
vn 0 1 0
vn 0 1 0
vn 0 1 0
vn 0 1 0
vn 0 1 0
vn 0 1 0
vn 0 1 0
vn 0 1 0
vn 0 1 0
vn 0 1 0
vn 0 1 0
vn 0 1 0
vn 0 1 0
vn 0 1 0
vn 0 1 0
vn 0 1 0
vn 0 1 0
vn 0 1 0
vn 0 1 0
vn 0 1 0
vn 0 1 0
vn 0 1 0
vn 0 1 0
vn 0 1 0
vn 0 1 0
vn 0 1 0
vn 0 1 0
vn 0 1 0
vn 0 1 0
vn 0 1 0
vn 0 1 0
vn 0 1 0
vn 0 1 0
vn 0 1 0
g CalibrationRGBScale001_0
f 3/3/3 2/2/2 1/1/1
f 4/4/4 3/3/3 1/1/1
f 1/1/1 2/2/2 5/5/5
f 6/6/6 3/3/3 4/4/4
f 2/2/2 7/7/7 5/5/5
f 8/8/8 6/6/6 4/4/4
f 5/5/5 7/7/7 9/9/9
f 10/10/10 6/6/6 8/8/8
f 7/7/7 11/11/11 9/9/9
f 12/12/12 10/10/10 8/8/8
f 9/9/9 11/11/11 13/13/13
f 14/14/14 10/10/10 12/12/12
f 11/11/11 15/15/15 13/13/13
f 16/16/16 14/14/14 12/12/12
f 13/13/13 15/15/15 17/17/17
f 18/18/18 14/14/14 16/16/16
f 15/15/15 19/19/19 17/17/17
f 20/20/20 18/18/18 16/16/16
f 17/17/17 19/19/19 21/21/21
f 22/22/22 18/18/18 20/20/20
f 19/19/19 23/23/23 21/21/21
f 24/24/24 22/22/22 20/20/20
f 21/21/21 23/23/23 25/25/25
f 26/26/26 22/22/22 24/24/24
f 23/23/23 27/27/27 25/25/25
f 28/28/28 26/26/26 24/24/24
f 25/25/25 27/27/27 29/29/29
f 30/30/30 26/26/26 28/28/28
f 27/27/27 31/31/31 29/29/29
f 32/32/32 30/30/30 28/28/28
f 29/29/29 31/31/31 33/33/33
f 34/34/34 30/30/30 32/32/32
f 31/31/31 35/35/35 33/33/33
f 36/36/36 34/34/34 32/32/32
f 33/33/33 35/35/35 37/37/37
f 38/38/38 34/34/34 36/36/36
f 35/35/35 39/39/39 37/37/37
f 40/40/40 38/38/38 36/36/36
f 37/37/37 39/39/39 41/41/41
f 42/42/42 38/38/38 40/40/40
f 39/39/39 43/43/43 41/41/41
f 44/44/44 42/42/42 40/40/40
f 41/41/41 43/43/43 45/45/45
f 46/46/46 42/42/42 44/44/44
f 43/43/43 47/47/47 45/45/45
f 48/48/48 46/46/46 44/44/44
f 45/45/45 47/47/47 49/49/49
f 50/50/50 46/46/46 48/48/48
f 47/47/47 51/51/51 49/49/49
f 52/52/52 50/50/50 48/48/48
f 49/49/49 51/51/51 53/53/53
f 54/54/54 50/50/50 52/52/52
f 51/51/51 55/55/55 53/53/53
f 56/56/56 54/54/54 52/52/52
f 53/53/53 55/55/55 57/57/57
f 58/58/58 54/54/54 56/56/56
f 55/55/55 59/59/59 57/57/57
f 60/60/60 58/58/58 56/56/56
f 57/57/57 59/59/59 61/61/61
f 62/62/62 58/58/58 60/60/60
f 59/59/59 63/63/63 61/61/61
f 64/64/64 62/62/62 60/60/60
f 61/61/61 63/63/63 65/65/65
f 66/66/66 62/62/62 64/64/64
f 63/63/63 67/67/67 65/65/65
f 68/68/68 66/66/66 64/64/64
f 65/65/65 67/67/67 69/69/69
f 70/70/70 66/66/66 68/68/68
f 67/67/67 71/71/71 69/69/69
f 72/72/72 70/70/70 68/68/68
f 69/69/69 71/71/71 73/73/73
f 74/74/74 70/70/70 72/72/72
f 71/71/71 75/75/75 73/73/73
f 76/76/76 74/74/74 72/72/72
f 73/73/73 75/75/75 77/77/77
f 78/78/78 74/74/74 76/76/76
f 75/75/75 79/79/79 77/77/77
f 80/80/80 78/78/78 76/76/76
f 77/77/77 79/79/79 81/81/81
f 82/82/82 78/78/78 80/80/80
f 79/79/79 83/83/83 81/81/81
f 84/84/84 82/82/82 80/80/80
f 81/81/81 83/83/83 85/85/85
f 86/86/86 82/82/82 84/84/84
f 83/83/83 87/87/87 85/85/85
f 88/88/88 86/86/86 84/84/84
f 85/85/85 87/87/87 89/89/89
f 90/90/90 86/86/86 88/88/88
f 87/87/87 91/91/91 89/89/89
f 92/92/92 90/90/90 88/88/88
f 89/89/89 91/91/91 93/93/93
f 94/94/94 90/90/90 92/92/92
f 91/91/91 95/95/95 93/93/93
f 96/96/96 94/94/94 92/92/92
f 93/93/93 95/95/95 97/97/97
f 98/98/98 94/94/94 96/96/96
f 95/95/95 99/99/99 97/97/97
f 100/100/100 98/98/98 96/96/96
f 97/97/97 99/99/99 101/101/101
f 102/102/102 98/98/98 100/100/100
f 99/99/99 103/103/103 101/101/101
f 104/104/104 102/102/102 100/100/100
f 101/101/101 103/103/103 105/105/105
f 106/106/106 102/102/102 104/104/104
f 103/103/103 107/107/107 105/105/105
f 108/108/108 106/106/106 104/104/104
f 105/105/105 107/107/107 109/109/109
f 110/110/110 106/106/106 108/108/108
f 107/107/107 111/111/111 109/109/109
f 112/112/112 110/110/110 108/108/108
f 109/109/109 111/111/111 113/113/113
f 114/114/114 110/110/110 112/112/112
f 111/111/111 115/115/115 113/113/113
f 116/116/116 114/114/114 112/112/112
f 113/113/113 115/115/115 117/117/117
f 118/118/118 114/114/114 116/116/116
f 115/115/115 119/119/119 117/117/117
f 120/120/120 118/118/118 116/116/116
f 117/117/117 119/119/119 121/121/121
f 122/122/122 118/118/118 120/120/120
f 119/119/119 123/123/123 121/121/121
f 124/124/124 122/122/122 120/120/120
f 121/121/121 123/123/123 125/125/125
f 126/126/126 122/122/122 124/124/124
f 123/123/123 127/127/127 125/125/125
f 128/128/128 126/126/126 124/124/124
f 125/125/125 127/127/127 129/129/129
f 130/130/130 126/126/126 128/128/128
f 127/127/127 131/131/131 129/129/129
f 132/132/132 130/130/130 128/128/128
f 129/129/129 131/131/131 133/133/133
f 134/134/134 130/130/130 132/132/132
f 131/131/131 135/135/135 133/133/133
f 136/136/136 134/134/134 132/132/132
f 133/133/133 135/135/135 137/137/137
f 138/138/138 134/134/134 136/136/136
f 135/135/135 139/139/139 137/137/137
f 140/140/140 138/138/138 136/136/136
f 137/137/137 139/139/139 141/141/141
f 142/142/142 138/138/138 140/140/140
f 139/139/139 143/143/143 141/141/141
f 144/144/144 142/142/142 140/140/140
f 141/141/141 143/143/143 145/145/145
f 146/146/146 142/142/142 144/144/144
f 143/143/143 147/147/147 145/145/145
f 148/148/148 146/146/146 144/144/144
f 145/145/145 147/147/147 149/149/149
f 150/150/150 146/146/146 148/148/148
f 147/147/147 151/151/151 149/149/149
f 152/152/152 150/150/150 148/148/148
f 149/149/149 151/151/151 153/153/153
f 154/154/154 150/150/150 152/152/152
f 151/151/151 155/155/155 153/153/153
f 156/156/156 154/154/154 152/152/152
f 153/153/153 155/155/155 157/157/157
f 158/158/158 154/154/154 156/156/156
f 155/155/155 159/159/159 157/157/157
f 160/160/160 158/158/158 156/156/156
f 157/157/157 159/159/159 161/161/161
f 162/162/162 158/158/158 160/160/160
f 159/159/159 163/163/163 161/161/161
f 164/164/164 162/162/162 160/160/160
f 161/161/161 163/163/163 165/165/165
f 166/166/166 162/162/162 164/164/164
f 163/163/163 167/167/167 165/165/165
f 168/168/168 166/166/166 164/164/164
f 165/165/165 167/167/167 169/169/169
f 170/170/170 166/166/166 168/168/168
f 167/167/167 171/171/171 169/169/169
f 172/172/172 170/170/170 168/168/168
f 169/169/169 171/171/171 173/173/173
f 174/174/174 170/170/170 172/172/172
f 171/171/171 175/175/175 173/173/173
f 176/176/176 174/174/174 172/172/172
f 173/173/173 175/175/175 177/177/177
f 178/178/178 174/174/174 176/176/176
f 175/175/175 179/179/179 177/177/177
f 180/180/180 178/178/178 176/176/176
f 177/177/177 179/179/179 181/181/181
f 182/182/182 178/178/178 180/180/180
f 179/179/179 183/183/183 181/181/181
f 184/184/184 182/182/182 180/180/180
f 181/181/181 183/183/183 185/185/185
f 186/186/186 182/182/182 184/184/184
f 183/183/183 187/187/187 185/185/185
f 188/188/188 186/186/186 184/184/184
f 185/185/185 187/187/187 189/189/189
f 190/190/190 186/186/186 188/188/188
f 187/187/187 191/191/191 189/189/189
f 192/192/192 190/190/190 188/188/188
f 189/189/189 191/191/191 193/193/193
f 194/194/194 190/190/190 192/192/192
f 191/191/191 195/195/195 193/193/193
f 196/196/196 194/194/194 192/192/192
f 193/193/193 195/195/195 197/197/197
f 198/198/198 194/194/194 196/196/196
f 195/195/195 199/199/199 197/197/197
f 200/200/200 198/198/198 196/196/196
f 197/197/197 199/199/199 201/201/201
f 202/202/202 198/198/198 200/200/200
f 199/199/199 203/203/203 201/201/201
f 204/204/204 202/202/202 200/200/200
f 201/201/201 203/203/203 205/205/205
f 206/206/206 202/202/202 204/204/204
f 203/203/203 207/207/207 205/205/205
f 208/208/208 206/206/206 204/204/204
f 205/205/205 207/207/207 209/209/209
f 210/210/210 206/206/206 208/208/208
f 207/207/207 211/211/211 209/209/209
f 212/212/212 210/210/210 208/208/208
f 209/209/209 211/211/211 213/213/213
f 214/214/214 210/210/210 212/212/212
f 211/211/211 215/215/215 213/213/213
f 216/216/216 214/214/214 212/212/212
f 213/213/213 215/215/215 217/217/217
f 218/218/218 214/214/214 216/216/216
f 215/215/215 219/219/219 217/217/217
f 220/220/220 218/218/218 216/216/216
f 217/217/217 219/219/219 221/221/221
f 222/222/222 218/218/218 220/220/220
f 219/219/219 223/223/223 221/221/221
f 224/224/224 222/222/222 220/220/220
f 221/221/221 223/223/223 225/225/225
f 226/226/226 222/222/222 224/224/224
f 223/223/223 227/227/227 225/225/225
f 228/228/228 226/226/226 224/224/224
f 225/225/225 227/227/227 229/229/229
f 230/230/230 226/226/226 228/228/228
f 227/227/227 231/231/231 229/229/229
f 232/232/232 230/230/230 228/228/228
f 229/229/229 231/231/231 233/233/233
f 234/234/234 230/230/230 232/232/232
f 231/231/231 235/235/235 233/233/233
f 236/236/236 234/234/234 232/232/232
f 233/233/233 235/235/235 237/237/237
f 238/238/238 234/234/234 236/236/236
f 235/235/235 239/239/239 237/237/237
f 240/240/240 238/238/238 236/236/236
f 237/237/237 239/239/239 241/241/241
f 242/242/242 238/238/238 240/240/240
f 239/239/239 243/243/243 241/241/241
f 244/244/244 242/242/242 240/240/240
f 241/241/241 243/243/243 245/245/245
f 246/246/246 242/242/242 244/244/244
f 243/243/243 247/247/247 245/245/245
f 248/248/248 246/246/246 244/244/244
f 245/245/245 247/247/247 249/249/249
f 250/250/250 246/246/246 248/248/248
f 247/247/247 251/251/251 249/249/249
f 252/252/252 250/250/250 248/248/248
f 249/249/249 251/251/251 253/253/253
f 254/254/254 250/250/250 252/252/252
f 251/251/251 255/255/255 253/253/253
f 256/256/256 254/254/254 252/252/252
f 253/253/253 255/255/255 256/256/256
f 255/255/255 254/254/254 256/256/256
