g fx_mesh_beam_04
v 1.68585 0 -2.481604E-06
v 1.68585 10.16 -2.481604E-06
v 4.22585 10.16 -2.481604E-06
v 4.22585 0 -2.481604E-06
v 5.065143 -7.751465E-07 -2.481604E-06
v 5.065143 10.16 -2.481604E-06
v 5.691642 10.16 -2.481604E-06
v 5.691642 -7.751465E-07 -2.481604E-06
v 0.1143372 -7.751465E-07 -2.481604E-06
v 0.1143372 10.16 -2.481604E-06
v 0.9523508 10.16 -2.481604E-06
v 0.9523508 -7.751465E-07 -2.481604E-06
v -2.389758 -7.751465E-07 -2.481604E-06
v -2.389758 10.16 -2.481604E-06
v -0.3591521 10.16 -2.481604E-06
v -0.3591521 -7.751465E-07 -2.481604E-06
v -3.352214 -7.751465E-07 -2.481604E-06
v -3.352214 10.16 -2.481604E-06
v -2.943152 10.16 -2.481604E-06
v -2.943152 -7.751465E-07 -2.481604E-06
v -5.691642 -7.751465E-07 -2.481604E-06
v -5.691642 10.16 -2.481604E-06
v -4.218275 10.16 -2.481604E-06
v -4.218275 -7.751465E-07 -2.481604E-06
vt 0 0
vt 0 1
vt 1 1
vt 1 0
vt 0 0
vt 0 1
vt 1 1
vt 1 0
vt 0 0
vt 0 1
vt 1 1
vt 1 0
vt 0 0
vt 0 1
vt 1 1
vt 1 0
vt 0 0
vt 0 1
vt 1 1
vt 1 0
vt 0 0
vt 0 1
vt 1 1
vt 1 0
vn 0 0 1
vn 0 0 1
vn 0 0 1
vn 0 0 1
vn 0 0 1
vn 0 0 1
vn 0 0 1
vn 0 0 1
vn 0 0 1
vn 0 0 1
vn 0 0 1
vn 0 0 1
vn 0 0 1
vn 0 0 1
vn 0 0 1
vn 0 0 1
vn 0 0 1
vn 0 0 1
vn 0 0 1
vn 0 0 1
vn 0 0 1
vn 0 0 1
vn 0 0 1
vn 0 0 1
g fx_mesh_beam_04_0
f 3/3/3 2/2/2 1/1/1
f 4/4/4 3/3/3 1/1/1
f 7/7/7 6/6/6 5/5/5
f 8/8/8 7/7/7 5/5/5
f 11/11/11 10/10/10 9/9/9
f 12/12/12 11/11/11 9/9/9
f 15/15/15 14/14/14 13/13/13
f 16/16/16 15/15/15 13/13/13
f 19/19/19 18/18/18 17/17/17
f 20/20/20 19/19/19 17/17/17
f 23/23/23 22/22/22 21/21/21
f 24/24/24 23/23/23 21/21/21
