g fx_mesh_expandenergy_14
v -4.047292 4.396155E-07 -1.084468
v -3.857568 0.1964166 -1.033632
v -3.861953 0.2820573 -0.1491374
v -4.143649 5.820369E-07 -0.1348765
v -4.237015 -0.1964157 -1.135304
v -3.623652 0.3587556 0.7122986
v -4.425345 -0.2820562 -0.1206156
v -3.965404 5.994478E-07 0.8214355
v -3.186329 0.4302957 1.512113
v -4.307156 -0.3587544 0.9305723
v -3.557539 5.053154E-07 1.729729
v -2.597966 0.496355 2.201165
v -3.92875 -0.4302947 1.947345
v -2.965042 3.139673E-07 2.535266
v -1.914059 0.556111 2.727672
v -3.332119 -0.4963543 2.869367
v -2.232896 3.983422E-08 3.183307
v -1.19003 0.6038338 3.049916
v -2.551733 -0.556111 3.638941
v -1.395653 -3.066531E-07 3.617661
v -0.4248981 0.6448758 3.180918
v -1.601276 -0.6038345 4.185407
v -0.4888075 -7.120197E-07 3.82262
v 0.3477277 0.6821886 3.128417
v -0.5527169 -0.6448774 4.464323
v 0.4412384 -1.154577E-06 3.804167
v 1.088023 0.716692 2.900444
v 0.534749 -0.6821909 4.479918
v 1.348082 -1.612211E-06 3.56829
v 1.755867 0.7486736 2.507716
v 1.608142 -0.7166951 4.236136
v 2.185327 -2.062677E-06 3.120969
v 2.295679 0.7774166 1.981729
v 2.614786 -0.7486777 3.734222
v 2.884241 -2.470525E-06 2.489641
v 2.681209 0.8030927 1.360777
v 3.472802 -0.7774216 2.997555
v 3.397491 -2.807737E-06 1.72396
v 2.906504 0.8257977 0.6758731
v 4.113772 -0.8030983 2.087143
v 3.710768 -3.062897E-06 0.8632341
v 2.965124 0.8447211 -0.04151704
v 4.515033 -0.8258038 1.050595
v 3.809767 -3.2244E-06 -0.05322302
v 2.858042 0.8511341 -0.7658115
v 4.654409 -0.8447276 -0.06492899
v 3.680177 -3.278981E-06 -0.9861012
v 4.502312 -0.8511406 -1.206391
vt 6.755127E-08 0.4999999
vt 4.569558E-08 0.9999999
vt 0.08869272 0.9999999
vt 0.08869275 0.4999999
vt 8.940697E-08 -5.960464E-08
vt 0.1805256 0.9999999
vt 0.08869278 -5.960464E-08
vt 0.1805257 0.4999999
vt 0.271364 0.9999999
vt 0.1805257 -5.960464E-08
vt 0.271364 0.4999999
vt 0.3575709 0.9999999
vt 0.271364 -5.960464E-08
vt 0.3575709 0.4999999
vt 0.4393415 0.9999999
vt 0.3575709 -5.960464E-08
vt 0.4393415 0.4999999
vt 0.5172016 0.9999999
vt 0.4393416 -5.960464E-08
vt 0.5172016 0.4999999
vt 0.5895643 0.9999999
vt 0.5172016 -5.960464E-08
vt 0.5895643 0.4999999
vt 0.6624615 0.9999999
vt 0.5895643 -5.960464E-08
vt 0.6624615 0.4999999
vt 0.7297178 0.9999999
vt 0.6624615 -5.960464E-08
vt 0.7297179 0.4999999
vt 0.7919925 0.9999999
vt 0.7297179 -5.960464E-08
vt 0.7919925 0.4999999
vt 0.8461573 0.9999999
vt 0.7919925 -5.960464E-08
vt 0.8461573 0.5
vt 0.8920196 0.9999999
vt 0.8461573 0
vt 0.8920196 0.5
vt 0.9266347 0.9999999
vt 0.8920196 0
vt 0.9266348 0.5
vt 0.9658973 0.9999999
vt 0.9266348 0
vt 0.9658977 0.5
vt 1 0.9999999
vt 0.9658977 0
vt 1 0.5
vt 1 0
vn -0.7077478 0.702805 -0.0718211
vn -0.7077592 0.7028065 -0.07169244
vn -0.7061154 0.7071358 0.03687736
vn -0.7065026 0.707104 0.02928992
vn -0.7077378 0.7028037 -0.07193243
vn -0.6731424 0.707076 0.2166169
vn -0.7061002 0.7071337 0.0372069
vn -0.6749165 0.7070623 0.2110702
vn -0.6083546 0.7070581 0.3605183
vn -0.6731747 0.7070788 0.2165071
vn -0.6108146 0.7070608 0.3563291
vn -0.5190327 0.7070256 0.4803332
vn -0.6085169 0.7070627 0.3602353
vn -0.5221081 0.7070453 0.4769591
vn -0.3958912 0.7071296 0.5858651
vn -0.5193589 0.707036 0.4799649
vn -0.4000927 0.7071604 0.5829665
vn -0.2386983 0.707123 0.6655825
vn -0.3970092 0.7071325 0.5851046
vn -0.2427608 0.7071201 0.6641147
vn -0.06778844 0.7070982 0.7038585
vn -0.2393538 0.7071209 0.6653492
vn -0.07146519 0.7070984 0.7034945
vn 0.09995693 0.7070892 0.7000238
vn -0.06849748 0.7071001 0.7037879
vn 0.09667807 0.7070932 0.7004803
vn 0.2602986 0.7070891 0.6574721
vn 0.09924264 0.7070928 0.7001218
vn 0.2574117 0.7070959 0.6586004
vn 0.4090543 0.707104 0.5767828
vn 0.2595918 0.7070932 0.6577471
vn 0.4066271 0.7071099 0.5784894
vn 0.5364287 0.7071135 0.4606893
vn 0.4083992 0.7071058 0.5772448
vn 0.5346889 0.7071136 0.4627074
vn 0.6315932 0.707103 0.3179548
vn 0.5360425 0.7071128 0.4611397
vn 0.6305001 0.7071047 0.3201133
vn 0.6892378 0.7071017 0.1579823
vn 0.6313089 0.7071043 0.3185163
vn 0.6887566 0.7071042 0.1600559
vn 0.7069976 0.7071118 -0.01212914
vn 0.6890954 0.7071034 0.1585951
vn 0.7070189 0.7071127 -0.01076354
vn 0.703072 0.7043774 -0.09768436
vn 0.7070065 0.7071112 -0.01163646
vn 0.7030743 0.7043776 -0.09766757
vn 0.7030763 0.7043775 -0.09765253
g fx_mesh_expandenergy_14_0
f 3/3/3 2/2/2 1/1/1
f 4/4/4 3/3/3 1/1/1
f 4/4/4 1/1/1 5/5/5
f 6/6/6 3/3/3 4/4/4
f 7/7/7 4/4/4 5/5/5
f 8/8/8 6/6/6 4/4/4
f 8/8/8 4/4/4 7/7/7
f 9/9/9 6/6/6 8/8/8
f 10/10/10 8/8/8 7/7/7
f 11/11/11 9/9/9 8/8/8
f 11/11/11 8/8/8 10/10/10
f 12/12/12 9/9/9 11/11/11
f 13/13/13 11/11/11 10/10/10
f 14/14/14 12/12/12 11/11/11
f 14/14/14 11/11/11 13/13/13
f 15/15/15 12/12/12 14/14/14
f 16/16/16 14/14/14 13/13/13
f 17/17/17 15/15/15 14/14/14
f 17/17/17 14/14/14 16/16/16
f 18/18/18 15/15/15 17/17/17
f 19/19/19 17/17/17 16/16/16
f 20/20/20 18/18/18 17/17/17
f 20/20/20 17/17/17 19/19/19
f 21/21/21 18/18/18 20/20/20
f 22/22/22 20/20/20 19/19/19
f 23/23/23 21/21/21 20/20/20
f 23/23/23 20/20/20 22/22/22
f 24/24/24 21/21/21 23/23/23
f 25/25/25 23/23/23 22/22/22
f 26/26/26 24/24/24 23/23/23
f 26/26/26 23/23/23 25/25/25
f 27/27/27 24/24/24 26/26/26
f 28/28/28 26/26/26 25/25/25
f 29/29/29 27/27/27 26/26/26
f 29/29/29 26/26/26 28/28/28
f 30/30/30 27/27/27 29/29/29
f 31/31/31 29/29/29 28/28/28
f 32/32/32 30/30/30 29/29/29
f 32/32/32 29/29/29 31/31/31
f 33/33/33 30/30/30 32/32/32
f 34/34/34 32/32/32 31/31/31
f 35/35/35 33/33/33 32/32/32
f 35/35/35 32/32/32 34/34/34
f 36/36/36 33/33/33 35/35/35
f 37/37/37 35/35/35 34/34/34
f 38/38/38 36/36/36 35/35/35
f 38/38/38 35/35/35 37/37/37
f 39/39/39 36/36/36 38/38/38
f 40/40/40 38/38/38 37/37/37
f 41/41/41 39/39/39 38/38/38
f 41/41/41 38/38/38 40/40/40
f 42/42/42 39/39/39 41/41/41
f 43/43/43 41/41/41 40/40/40
f 44/44/44 42/42/42 41/41/41
f 44/44/44 41/41/41 43/43/43
f 45/45/45 42/42/42 44/44/44
f 46/46/46 44/44/44 43/43/43
f 47/47/47 45/45/45 44/44/44
f 47/47/47 44/44/44 46/46/46
f 48/48/48 47/47/47 46/46/46
