g fx_mesh_ray_01
v -0.5727633 -3.58023 -1.236836E-07
v -0.3818421 -4.77364 -3.839758E-07
v -0.7636843 -4.77364 -2.564975E-07
v -0.2863816 -3.58023 -2.252717E-07
v -0.3818421 -2.38682 9.130227E-09
v 0 -4.77364 -5.114541E-07
v -0.1909211 -2.38682 -6.656766E-08
v -0.1909211 -1.193411 1.419441E-07
v 0 -3.58023 -3.268598E-07
v -0.09546053 -1.193411 9.213636E-08
v 0 -1.16272E-06 2.269229E-07
v 0 -2.38682 -1.422656E-07
v 0.2863816 -3.58023 -4.284479E-07
v 0.3818421 -4.77364 -6.389324E-07
v 0 -1.193411 4.232868E-08
v 0.09546053 -1.193411 -7.479002E-09
v 0.1909211 -1.193411 -5.728671E-08
v 0.1909211 -2.38682 -2.179635E-07
v 0.3818421 -2.38682 -2.936614E-07
v 0.5727633 -3.58023 -5.30036E-07
v 0.7636843 -4.77364 -7.664107E-07
vt 0.1249998 0.2472474
vt 0.2499999 0.005364408
vt -2.8213E-07 0.005364408
vt 0.3125 0.2472474
vt 0.2499999 0.4891307
vt 0.5000001 0.005364408
vt 0.375 0.4891307
vt 0.375 0.7310137
vt 0.5000001 0.2472474
vt 0.4375001 0.7310137
vt 0.5000001 0.9728968
vt 0.5000002 0.4891306
vt 0.6875003 0.2472474
vt 0.7500004 0.00536435
vt 0.5000001 0.7310137
vt 0.5625002 0.7310137
vt 0.6250002 0.7310137
vt 0.6250003 0.4891306
vt 0.7500004 0.4891306
vt 0.8750005 0.2472474
vt 1.000001 0.005364292
vn 3.556701E-07 0 1
vn 3.42799E-07 0 1
vn 3.42799E-07 0 1
vn 3.57116E-07 0 1
vn 4.014658E-07 0 1
vn 3.427989E-07 0 1
vn 4.048396E-07 0 1
vn 4.757869E-07 0 1
vn 3.571159E-07 0 1
vn 4.800041E-07 0 1
vn 5.217622E-07 0 1
vn 4.048396E-07 0 1
vn 3.57116E-07 0 1
vn 3.427989E-07 0 1
vn 4.80004E-07 0 1
vn 4.800041E-07 0 1
vn 4.75787E-07 0 1
vn 4.048396E-07 0 1
vn 4.014659E-07 0 1
vn 3.556702E-07 0 1
vn 3.427991E-07 0 1
g fx_mesh_ray_01_0
f 3/3/3 2/2/2 1/1/1
f 2/2/2 4/4/4 1/1/1
f 1/1/1 4/4/4 5/5/5
f 4/4/4 2/2/2 6/6/6
f 4/4/4 7/7/7 5/5/5
f 5/5/5 7/7/7 8/8/8
f 9/9/9 4/4/4 6/6/6
f 7/7/7 4/4/4 9/9/9
f 7/7/7 10/10/10 8/8/8
f 8/8/8 10/10/10 11/11/11
f 10/10/10 7/7/7 12/12/12
f 12/12/12 7/7/7 9/9/9
f 13/13/13 9/9/9 6/6/6
f 14/14/14 13/13/13 6/6/6
f 10/10/10 15/15/15 11/11/11
f 15/15/15 10/10/10 12/12/12
f 15/15/15 16/16/16 11/11/11
f 16/16/16 15/15/15 12/12/12
f 17/17/17 11/11/11 16/16/16
f 18/18/18 12/12/12 9/9/9
f 18/18/18 16/16/16 12/12/12
f 17/17/17 16/16/16 18/18/18
f 13/13/13 18/18/18 9/9/9
f 19/19/19 17/17/17 18/18/18
f 19/19/19 18/18/18 13/13/13
f 20/20/20 19/19/19 13/13/13
f 20/20/20 13/13/13 14/14/14
f 21/21/21 20/20/20 14/14/14
