g fx_mesh_box_up_01
v 1.27 -1.27 -5.551346E-08
v -1.27 -1.27 -5.551346E-08
v -1.27 -1.27 0.6349999
v 1.27 -1.27 0.6349999
v 1.27 -1.27 1.27
v -1.27 -1.27 1.27
v 1.27 -1.27 1.905
v -1.27 -1.27 1.905
v 1.27 -1.27 2.54
v -1.27 -1.27 2.54
v 1.27 1.27 5.551346E-08
v 1.27 -1.27 -5.551346E-08
v 1.27 -1.27 0.6349999
v 1.27 1.27 0.6350001
v 1.27 1.27 1.27
v 1.27 -1.27 1.27
v 1.27 1.27 1.905
v 1.27 -1.27 1.905
v 1.27 1.27 2.54
v 1.27 -1.27 2.54
v -1.27 1.27 5.551346E-08
v 1.27 1.27 5.551346E-08
v 1.27 1.27 0.6350001
v -1.27 1.27 0.6350001
v -1.27 1.27 1.27
v 1.27 1.27 1.27
v -1.27 1.27 1.905
v 1.27 1.27 1.905
v -1.27 1.27 2.54
v 1.27 1.27 2.54
v -1.27 -1.27 -5.551346E-08
v -1.27 1.27 5.551346E-08
v -1.27 1.27 0.6350001
v -1.27 -1.27 0.6349999
v -1.27 -1.27 1.27
v -1.27 1.27 1.27
v -1.27 -1.27 1.905
v -1.27 1.27 1.905
v -1.27 -1.27 2.54
v -1.27 1.27 2.54
vt 0.752647 0
vt 0.502647 0
vt 0.502647 0.25
vt 0.752647 0.25
vt 0.752647 0.5
vt 0.502647 0.5
vt 0.752647 0.75
vt 0.502647 0.75
vt 0.752647 1
vt 0.502647 1
vt 1.000793 0
vt 0.752647 0
vt 0.752647 0.25
vt 1.000793 0.25
vt 1.000793 0.5
vt 0.752647 0.5
vt 1.000793 0.75
vt 0.752647 0.75
vt 1.000793 1
vt 0.752647 1
vt 0.2507932 0
vt 0.0007932335 0
vt 0.0007932335 0.25
vt 0.2507932 0.25
vt 0.2507932 0.5
vt 0.0007932335 0.5
vt 0.2507932 0.75
vt 0.0007932335 0.75
vt 0.2507932 1
vt 0.0007932335 1
vt 0.502647 0
vt 0.2507932 0
vt 0.2507932 0.25
vt 0.502647 0.25
vt 0.502647 0.5
vt 0.2507932 0.5
vt 0.502647 0.75
vt 0.2507932 0.75
vt 0.502647 1
vt 0.2507932 1
vn 0 -1 0
vn 0 -1 0
vn 0 -1 0
vn 0 -1 0
vn 0 -1 0
vn 0 -1 0
vn 0 -1 0
vn 0 -1 0
vn 0 -1 0
vn 0 -1 0
vn 1 0 0
vn 1 0 0
vn 1 0 0
vn 1 0 0
vn 1 0 0
vn 1 0 0
vn 1 0 0
vn 1 0 0
vn 1 0 0
vn 1 0 0
vn 0 1 0
vn 0 1 0
vn 0 1 0
vn 0 1 0
vn 0 1 0
vn 0 1 0
vn 0 1 0
vn 0 1 0
vn 0 1 0
vn 0 1 0
vn -1 0 0
vn -1 0 0
vn -1 0 0
vn -1 0 0
vn -1 0 0
vn -1 0 0
vn -1 0 0
vn -1 0 0
vn -1 0 0
vn -1 0 0
g fx_mesh_box_up_01_0
f 3/3/3 2/2/2 1/1/1
f 4/4/4 3/3/3 1/1/1
f 3/3/3 4/4/4 5/5/5
f 6/6/6 3/3/3 5/5/5
f 6/6/6 5/5/5 7/7/7
f 8/8/8 6/6/6 7/7/7
f 8/8/8 7/7/7 9/9/9
f 10/10/10 8/8/8 9/9/9
f 13/13/13 12/12/12 11/11/11
f 14/14/14 13/13/13 11/11/11
f 13/13/13 14/14/14 15/15/15
f 16/16/16 13/13/13 15/15/15
f 16/16/16 15/15/15 17/17/17
f 18/18/18 16/16/16 17/17/17
f 18/18/18 17/17/17 19/19/19
f 20/20/20 18/18/18 19/19/19
f 23/23/23 22/22/22 21/21/21
f 24/24/24 23/23/23 21/21/21
f 23/23/23 24/24/24 25/25/25
f 26/26/26 23/23/23 25/25/25
f 26/26/26 25/25/25 27/27/27
f 28/28/28 26/26/26 27/27/27
f 28/28/28 27/27/27 29/29/29
f 30/30/30 28/28/28 29/29/29
f 33/33/33 32/32/32 31/31/31
f 34/34/34 33/33/33 31/31/31
f 33/33/33 34/34/34 35/35/35
f 36/36/36 33/33/33 35/35/35
f 36/36/36 35/35/35 37/37/37
f 38/38/38 36/36/36 37/37/37
f 38/38/38 37/37/37 39/39/39
f 40/40/40 38/38/38 39/39/39
