g fx_mesh_cone_02
v 0.9861007 12.7 3.680176
v 2.429019E-07 10.58333 3.217332
v 2.87647E-07 12.7 3.809999
v 0.8327072 10.58333 3.107704
v 1.905 12.7 3.299556
v 1.981568E-07 8.466666 2.624666
v 1.608667 10.58333 2.786292
v 2.694077 12.7 2.694076
v 0.6793138 8.466666 2.535233
v 1.534117E-07 6.35 2.031999
v 2.274998 10.58333 2.274997
v 3.299557 12.7 1.904999
v 1.312333 8.466666 2.273027
v 0.5259204 6.35 1.96276
v 1.086666E-07 4.233333 1.439332
v 2.786292 10.58333 1.608666
v 3.680177 12.7 0.9860998
v 1.855919 8.466666 1.855919
v 1.016 6.35 1.759763
v 0.3725269 4.233333 1.390288
v 6.392156E-08 2.116667 0.8466659
v 3.107705 10.58333 0.8327063
v 3.81 12.7 -7.751465E-07
v 2.273028 8.466666 1.312333
v 1.436841 6.35 1.43684
v 0.7196666 4.233333 1.246498
v 0.2191335 2.116667 0.8178164
v 1.917647E-08 0 0.2539992
v 0.06574005 0 0.2453444
v 0.4233333 2.116667 0.7332342
v 0.127 0 0.2199697
v 3.217333 10.58333 -7.751465E-07
v 3.680176 12.7 -0.9861041
v 2.535233 8.466666 0.6793129
v 1.759763 6.35 1.015999
v 1.017762 4.233333 1.017761
v 0.5986838 2.116667 0.598683
v 0.1796051 0 0.1796044
v 3.107705 10.58333 -0.8327102
v 3.299556 12.7 -1.905003
v 2.624666 8.466666 -7.751465E-07
v 1.962761 6.35 0.5259196
v 1.246499 4.233333 0.7196658
v 0.7332349 2.116667 0.4233326
v 0.2199704 0 0.1269992
v 2.786291 10.58333 -1.608669
v 2.694075 12.7 -2.694079
v 2.535233 8.466666 -0.6793163
v 2.032 6.35 -7.751465E-07
v 1.390289 4.233333 0.3725261
v 0.8178172 2.116667 0.2191327
v 0.2453451 0 0.06573927
v 2.274997 10.58333 -2.275
v 1.904998 12.7 -3.299559
v 2.273027 8.466666 -1.312336
v 1.962761 6.35 -0.5259225
v 1.439333 4.233333 -7.751465E-07
v 0.8466667 2.116667 -7.751465E-07
v 0.254 0 -7.751465E-07
v 1.608665 10.58333 -2.786294
v 0.9860986 12.7 -3.680178
v 1.855918 8.466666 -1.855921
v 1.759763 6.35 -1.016002
v 1.390289 4.233333 -0.3725287
v 0.8178172 2.116667 -0.2191349
v 0.2453451 0 -0.065741
v 0.8327054 10.58333 -3.107706
v -1.771316E-06 12.7 -3.810001
v 1.312332 8.466666 -2.273029
v 1.43684 6.35 -1.436843
v 1.246499 4.233333 -0.7196683
v 0.7332346 2.116667 -0.4233346
v 0.2199704 0 -0.1270009
v -1.495778E-06 10.58333 -3.217334
v -0.986102 12.7 -3.680178
v 0.6793123 8.466666 -2.535234
v 1.015999 6.35 -1.759765
v 1.017762 4.233333 -1.017764
v 0.5986834 2.116667 -0.598685
v 0.179605 0 -0.179606
v -0.8327084 10.58333 -3.107706
v -1.905001 12.7 -3.299557
v -1.22024E-06 8.466666 -2.624667
v 0.5259193 6.35 -1.962762
v 0.7196659 4.233333 -1.2465
v 0.4233329 2.116667 -0.7332359
v 0.1269999 0 -0.2199713
v -1.608668 10.58333 -2.786293
v -2.694078 12.7 -2.694076
v -0.6793147 8.466666 -2.535233
v -9.447018E-07 6.35 -2.032001
v 0.3725261 4.233333 -1.39029
v 0.219133 2.116667 -0.8178181
v 0.06573991 0 -0.245346
v -2.274999 10.58333 -2.274998
v -3.299557 12.7 -1.904999
v -1.312334 8.466666 -2.273028
v -0.5259211 6.35 -1.962762
v -6.691637E-07 4.233333 -1.439334
v -3.936258E-07 2.116667 -0.8466675
v -1.180877E-07 0 -0.2540008
v -2.786293 10.58333 -1.608666
v -3.680178 12.7 -0.9860997
v -1.855921 8.466666 -1.855919
v -1.016001 6.35 -1.759764
v -0.3725274 4.233333 -1.39029
v -0.2191338 2.116667 -0.8178179
v -0.06574014 0 -0.2453459
v -3.107706 10.58333 -0.8327065
v -3.81 12.7 7.085222E-07
v -2.273028 8.466666 -1.312333
v -1.436842 6.35 -1.436841
v -0.7196671 4.233333 -1.2465
v -0.4233336 2.116667 -0.7332355
v -0.1270001 0 -0.2199712
v -3.217333 10.58333 4.777293E-07
v -3.680177 12.7 0.986101
v -2.535233 8.466666 -0.6793134
v -1.759764 6.35 -1.016
v -1.017763 4.233333 -1.017763
v -0.5986841 2.116667 -0.5986843
v -0.1796052 0 -0.1796058
v -3.107705 10.58333 0.8327074
v -3.299556 12.7 1.905
v -2.624666 8.466666 2.469364E-07
v -1.962762 6.35 -0.5259202
v -1.2465 4.233333 -0.7196668
v -0.7332351 2.116667 -0.4233338
v -0.2199705 0 -0.1270007
v -2.786292 10.58333 1.608667
v -2.694076 12.7 2.694077
v -2.535233 8.466666 0.6793138
v -2.032 6.35 1.614346E-08
v -1.390289 4.233333 -0.372527
v -0.8178173 2.116667 -0.2191339
v -0.2453452 0 -0.0657407
v -2.274997 10.58333 2.274998
v -1.904999 12.7 3.299556
v -2.273027 8.466666 1.312333
v -1.962761 6.35 0.5259202
v -1.439333 4.233333 -2.146494E-07
v -0.8466667 2.116667 -4.454423E-07
v -0.254 0 -6.762352E-07
v -1.608666 10.58333 2.786292
v -0.9861001 12.7 3.680177
v -1.855919 8.466666 1.855919
v -1.759763 6.35 1.016
v -1.390289 4.233333 0.3725266
v -0.8178172 2.116667 0.219133
v -0.2453451 0 0.06573934
v -0.8327067 10.58333 3.107705
v 2.87647E-07 12.7 3.809999
v 2.429019E-07 10.58333 3.217332
v -1.312333 8.466666 2.273027
v -0.6793134 8.466666 2.535233
v 1.981568E-07 8.466666 2.624666
v -1.436841 6.35 1.436841
v -1.246499 4.233333 0.7196662
v -0.7332348 2.116667 0.4233328
v -0.2199704 0 0.1269993
v -0.52592 6.35 1.962761
v 1.534117E-07 6.35 2.031999
v -1.016 6.35 1.759763
v -1.017762 4.233333 1.017762
v -0.5986836 2.116667 0.5986832
v -0.1796051 0 0.1796044
v -0.7196664 4.233333 1.246498
v -0.3725267 4.233333 1.390288
v 1.086666E-07 4.233333 1.439332
v -0.4233332 2.116667 0.7332342
v -0.127 0 0.2199697
v -0.2191334 2.116667 0.8178166
v 6.392156E-08 2.116667 0.8466659
v -0.06574 0 0.2453444
v 1.917647E-08 0 0.2539992
vt 0.9583333 0
vt 0.9999999 0.1666667
vt 0.9999999 0
vt 0.9583333 0.1666667
vt 0.9166667 0
vt 0.9999999 0.3333334
vt 0.9166667 0.1666667
vt 0.875 0
vt 0.9583333 0.3333334
vt 0.9999999 0.5
vt 0.875 0.1666667
vt 0.8333333 0
vt 0.9166666 0.3333334
vt 0.9583333 0.5
vt 0.9999999 0.6666667
vt 0.8333333 0.1666667
vt 0.7916666 0
vt 0.875 0.3333334
vt 0.9166667 0.5
vt 0.9583333 0.6666667
vt 0.9999999 0.8333334
vt 0.7916666 0.1666667
vt 0.75 0
vt 0.8333333 0.3333334
vt 0.875 0.5
vt 0.9166666 0.6666667
vt 0.9583333 0.8333334
vt 0.9999999 1
vt 0.9583333 1
vt 0.9166667 0.8333334
vt 0.9166667 1
vt 0.75 0.1666667
vt 0.7083333 0
vt 0.7916666 0.3333334
vt 0.8333333 0.5
vt 0.875 0.6666667
vt 0.875 0.8333334
vt 0.875 1
vt 0.7083333 0.1666667
vt 0.6666666 0
vt 0.75 0.3333334
vt 0.7916667 0.5
vt 0.8333333 0.6666667
vt 0.8333333 0.8333334
vt 0.8333333 1
vt 0.6666666 0.1666667
vt 0.6249999 0
vt 0.7083333 0.3333334
vt 0.75 0.5
vt 0.7916666 0.6666667
vt 0.7916667 0.8333334
vt 0.7916667 1
vt 0.6249999 0.1666667
vt 0.5833333 0
vt 0.6666665 0.3333334
vt 0.7083333 0.5
vt 0.75 0.6666667
vt 0.75 0.8333334
vt 0.75 1
vt 0.5833333 0.1666667
vt 0.5416666 0
vt 0.6249999 0.3333334
vt 0.6666666 0.5
vt 0.7083333 0.6666667
vt 0.7083333 0.8333334
vt 0.7083333 1
vt 0.5416666 0.1666667
vt 0.4999999 0
vt 0.5833333 0.3333334
vt 0.6249999 0.5
vt 0.6666666 0.6666667
vt 0.6666666 0.8333334
vt 0.6666666 1
vt 0.4999999 0.1666667
vt 0.4583333 0
vt 0.5416666 0.3333334
vt 0.5833333 0.5
vt 0.6249999 0.6666667
vt 0.6249999 0.8333334
vt 0.6249999 1
vt 0.4583333 0.1666667
vt 0.4166666 0
vt 0.4999999 0.3333334
vt 0.5416666 0.5
vt 0.5833333 0.6666667
vt 0.5833333 0.8333334
vt 0.5833333 1
vt 0.4166666 0.1666667
vt 0.3749999 0
vt 0.4583333 0.3333334
vt 0.4999999 0.5
vt 0.5416666 0.6666667
vt 0.5416666 0.8333334
vt 0.5416666 1
vt 0.3749999 0.1666667
vt 0.3333333 0
vt 0.4166666 0.3333334
vt 0.4583333 0.5
vt 0.4999999 0.6666667
vt 0.4999999 0.8333334
vt 0.4999999 1
vt 0.3333333 0.1666667
vt 0.2916666 0
vt 0.3749999 0.3333334
vt 0.4166666 0.5
vt 0.4583333 0.6666667
vt 0.4583333 0.8333334
vt 0.4583333 1
vt 0.2916666 0.1666667
vt 0.2499999 0
vt 0.3333333 0.3333334
vt 0.3749999 0.5
vt 0.4166666 0.6666667
vt 0.4166666 0.8333334
vt 0.4166666 1
vt 0.2499999 0.1666667
vt 0.2083333 0
vt 0.2916666 0.3333334
vt 0.3333333 0.5
vt 0.3749999 0.6666667
vt 0.3749999 0.8333334
vt 0.3749999 1
vt 0.2083333 0.1666667
vt 0.1666666 0
vt 0.2499999 0.3333334
vt 0.2916666 0.5
vt 0.3333333 0.6666667
vt 0.3333333 0.8333334
vt 0.3333333 1
vt 0.1666666 0.1666667
vt 0.125 0
vt 0.2083333 0.3333334
vt 0.2499999 0.5
vt 0.2916666 0.6666667
vt 0.2916666 0.8333334
vt 0.2916666 1
vt 0.125 0.1666667
vt 0.08333331 0
vt 0.1666666 0.3333334
vt 0.2083333 0.5
vt 0.2499999 0.6666667
vt 0.2499999 0.8333334
vt 0.2499999 1
vt 0.08333331 0.1666667
vt 0.04166666 0
vt 0.125 0.3333334
vt 0.1666666 0.5
vt 0.2083333 0.6666667
vt 0.2083333 0.8333334
vt 0.2083333 1
vt 0.04166666 0.1666667
vt -5.960464E-08 0
vt -5.960464E-08 0.1666667
vt 0.08333331 0.3333334
vt 0.04166666 0.3333334
vt -5.960464E-08 0.3333334
vt 0.125 0.5
vt 0.1666666 0.6666667
vt 0.1666666 0.8333334
vt 0.1666666 1
vt 0.04166666 0.5
vt -5.960464E-08 0.5
vt 0.08333331 0.5
vt 0.125 0.6666667
vt 0.125 0.8333334
vt 0.125 1
vt 0.08333331 0.6666667
vt 0.04166666 0.6666667
vt -5.960464E-08 0.6666667
vt 0.08333331 0.8333334
vt 0.08333331 1
vt 0.04166666 0.8333334
vt -5.960464E-08 0.8333334
vt 0.04166666 1
vt -5.960464E-08 1
vn 0.2492334 -0.26963 0.9301519
vn 0 -0.26963 0.9629641
vn 0 -0.26963 0.9629641
vn 0.2492334 -0.26963 0.9301519
vn 0.481482 -0.26963 0.8339514
vn 0 -0.2696299 0.9629641
vn 0.481482 -0.26963 0.8339514
vn 0.6809185 -0.26963 0.6809184
vn 0.2492334 -0.2696299 0.9301519
vn 0 -0.2696299 0.9629641
vn 0.6809185 -0.26963 0.6809184
vn 0.8339514 -0.26963 0.481482
vn 0.4814821 -0.26963 0.8339514
vn 0.2492335 -0.2696299 0.9301519
vn 0 -0.26963 0.9629641
vn 0.8339514 -0.26963 0.481482
vn 0.9301518 -0.26963 0.2492334
vn 0.6809184 -0.2696299 0.6809185
vn 0.481482 -0.2696299 0.8339514
vn 0.2492335 -0.2696299 0.9301519
vn 0 -0.26963 0.9629641
vn 0.9301519 -0.26963 0.2492335
vn 0.9629641 -0.2696299 0
vn 0.8339512 -0.2696299 0.4814821
vn 0.6809184 -0.2696299 0.6809184
vn 0.481482 -0.26963 0.8339514
vn 0.2492334 -0.26963 0.9301519
vn 0 -0.2696299 0.9629641
vn 0.2492335 -0.26963 0.9301519
vn 0.4814821 -0.26963 0.8339514
vn 0.4814821 -0.26963 0.8339514
vn 0.9629641 -0.26963 0
vn 0.9301518 -0.2696299 -0.2492339
vn 0.9301519 -0.26963 0.2492335
vn 0.8339514 -0.2696299 0.481482
vn 0.6809185 -0.26963 0.6809184
vn 0.6809185 -0.26963 0.6809184
vn 0.6809185 -0.2696299 0.6809183
vn 0.9301518 -0.2696299 -0.2492339
vn 0.833951 -0.2696299 -0.4814825
vn 0.9629641 -0.2696299 0
vn 0.9301519 -0.2696299 0.2492335
vn 0.8339514 -0.2696299 0.4814821
vn 0.8339512 -0.2696299 0.4814821
vn 0.8339514 -0.26963 0.4814821
vn 0.833951 -0.2696299 -0.4814825
vn 0.680918 -0.26963 -0.6809188
vn 0.9301518 -0.2696299 -0.2492339
vn 0.9629641 -0.2696299 0
vn 0.9301519 -0.2696299 0.2492335
vn 0.9301519 -0.2696299 0.2492335
vn 0.9301519 -0.2696299 0.2492335
vn 0.6809179 -0.26963 -0.6809189
vn 0.4814814 -0.26963 -0.8339516
vn 0.833951 -0.26963 -0.4814826
vn 0.9301516 -0.2696299 -0.2492339
vn 0.9629641 -0.26963 0
vn 0.9629641 -0.2696299 0
vn 0.9629641 -0.2696299 0
vn 0.4814814 -0.26963 -0.8339516
vn 0.2492329 -0.2696299 -0.9301519
vn 0.680918 -0.2696299 -0.6809188
vn 0.833951 -0.2696299 -0.4814825
vn 0.9301516 -0.2696299 -0.2492339
vn 0.9301518 -0.2696299 -0.2492339
vn 0.9301516 -0.2696299 -0.2492339
vn 0.2492329 -0.2696299 -0.9301519
vn -4.206047E-07 -0.2696299 -0.9629641
vn 0.4814815 -0.2696299 -0.8339516
vn 0.680918 -0.2696299 -0.6809188
vn 0.833951 -0.2696299 -0.4814825
vn 0.833951 -0.2696299 -0.4814826
vn 0.833951 -0.26963 -0.4814826
vn -4.231319E-07 -0.2696299 -0.9629641
vn -0.2492339 -0.2696299 -0.9301518
vn 0.2492329 -0.2696299 -0.9301519
vn 0.4814815 -0.2696299 -0.8339516
vn 0.6809179 -0.2696299 -0.6809189
vn 0.6809179 -0.2696299 -0.6809189
vn 0.6809179 -0.2696299 -0.6809189
vn -0.2492338 -0.2696299 -0.9301516
vn -0.4814823 -0.2696299 -0.8339512
vn -4.494283E-07 -0.2696299 -0.9629641
vn 0.2492329 -0.2696299 -0.9301519
vn 0.4814815 -0.2696299 -0.8339516
vn 0.4814814 -0.2696299 -0.8339517
vn 0.4814814 -0.2696299 -0.8339517
vn -0.4814823 -0.2696299 -0.8339512
vn -0.6809187 -0.2696299 -0.680918
vn -0.2492338 -0.2696299 -0.9301516
vn -4.85287E-07 -0.2696299 -0.9629641
vn 0.2492329 -0.2696299 -0.9301519
vn 0.249233 -0.2696299 -0.9301519
vn 0.2492329 -0.2696298 -0.9301519
vn -0.6809187 -0.26963 -0.680918
vn -0.8339516 -0.2696299 -0.4814815
vn -0.4814823 -0.2696299 -0.8339512
vn -0.2492339 -0.2696299 -0.9301516
vn -4.781152E-07 -0.26963 -0.9629641
vn -4.494283E-07 -0.2696299 -0.9629641
vn -4.582829E-07 -0.2696299 -0.9629641
vn -0.8339516 -0.26963 -0.4814816
vn -0.9301519 -0.2696299 -0.2492331
vn -0.6809186 -0.2696299 -0.680918
vn -0.4814823 -0.2696299 -0.8339512
vn -0.2492338 -0.2696299 -0.9301518
vn -0.2492339 -0.2696299 -0.9301518
vn -0.2492339 -0.2696299 -0.9301518
vn -0.9301519 -0.2696299 -0.2492331
vn -0.9629641 -0.2696299 2.543191E-07
vn -0.8339516 -0.26963 -0.4814816
vn -0.6809187 -0.2696299 -0.6809181
vn -0.4814823 -0.2696299 -0.8339512
vn -0.4814823 -0.2696299 -0.8339512
vn -0.4814823 -0.2696299 -0.8339512
vn -0.9629641 -0.26963 2.749163E-07
vn -0.9301518 -0.26963 0.2492337
vn -0.9301519 -0.2696299 -0.2492331
vn -0.8339515 -0.2696299 -0.4814816
vn -0.6809188 -0.2696299 -0.680918
vn -0.6809188 -0.2696299 -0.680918
vn -0.6809187 -0.26963 -0.680918
vn -0.9301518 -0.26963 0.2492337
vn -0.8339511 -0.26963 0.4814824
vn -0.9629641 -0.2696299 3.012126E-07
vn -0.9301519 -0.2696299 -0.2492331
vn -0.8339515 -0.2696299 -0.4814816
vn -0.8339516 -0.2696299 -0.4814816
vn -0.8339516 -0.2696299 -0.4814815
vn -0.8339511 -0.26963 0.4814823
vn -0.6809182 -0.2696299 0.6809186
vn -0.9301518 -0.2696299 0.2492337
vn -0.9629641 -0.2696299 3.322901E-07
vn -0.9301519 -0.2696299 -0.2492331
vn -0.9301519 -0.2696299 -0.2492331
vn -0.9301519 -0.2696299 -0.2492331
vn -0.6809182 -0.2696299 0.6809185
vn -0.4814819 -0.2696299 0.8339514
vn -0.8339512 -0.2696299 0.4814823
vn -0.9301518 -0.2696299 0.2492337
vn -0.9629641 -0.26963 3.322901E-07
vn -0.9629641 -0.2696299 2.677445E-07
vn -0.9629641 -0.2696299 0
vn -0.4814819 -0.26963 0.8339514
vn -0.2492333 -0.26963 0.9301519
vn -0.6809183 -0.2696299 0.6809185
vn -0.8339512 -0.2696299 0.4814824
vn -0.9301518 -0.2696299 0.2492337
vn -0.9301518 -0.2696299 0.2492337
vn -0.9301518 -0.2696299 0.2492338
vn -0.2492332 -0.2696299 0.9301519
vn 0 -0.26963 0.9629641
vn 0 -0.26963 0.9629641
vn -0.4814819 -0.2696299 0.8339514
vn -0.2492333 -0.2696299 0.9301519
vn 0 -0.2696299 0.9629641
vn -0.6809182 -0.2696299 0.6809185
vn -0.8339512 -0.2696299 0.4814823
vn -0.8339511 -0.26963 0.4814824
vn -0.8339511 -0.2696299 0.4814824
vn -0.2492332 -0.2696299 0.9301519
vn 0 -0.2696299 0.9629641
vn -0.4814819 -0.2696299 0.8339514
vn -0.6809182 -0.2696299 0.6809185
vn -0.6809182 -0.2696299 0.6809185
vn -0.6809183 -0.2696299 0.6809185
vn -0.4814819 -0.26963 0.8339514
vn -0.2492333 -0.2696299 0.9301519
vn 0 -0.26963 0.9629641
vn -0.4814819 -0.2696299 0.8339514
vn -0.481482 -0.2696299 0.8339514
vn -0.2492333 -0.2696299 0.9301519
vn 0 -0.26963 0.9629641
vn -0.2492332 -0.2696299 0.9301519
vn 0 -0.2696299 0.9629641
g fx_mesh_cone_02_0
f 3/3/3 2/2/2 1/1/1
f 2/2/2 4/4/4 1/1/1
f 1/1/1 4/4/4 5/5/5
f 2/2/2 6/6/6 4/4/4
f 4/4/4 7/7/7 5/5/5
f 5/5/5 7/7/7 8/8/8
f 6/6/6 9/9/9 4/4/4
f 4/4/4 9/9/9 7/7/7
f 6/6/6 10/10/10 9/9/9
f 7/7/7 11/11/11 8/8/8
f 8/8/8 11/11/11 12/12/12
f 9/9/9 13/13/13 7/7/7
f 7/7/7 13/13/13 11/11/11
f 10/10/10 14/14/14 9/9/9
f 9/9/9 14/14/14 13/13/13
f 10/10/10 15/15/15 14/14/14
f 11/11/11 16/16/16 12/12/12
f 12/12/12 16/16/16 17/17/17
f 13/13/13 18/18/18 11/11/11
f 11/11/11 18/18/18 16/16/16
f 14/14/14 19/19/19 13/13/13
f 13/13/13 19/19/19 18/18/18
f 15/15/15 20/20/20 14/14/14
f 14/14/14 20/20/20 19/19/19
f 15/15/15 21/21/21 20/20/20
f 16/16/16 22/22/22 17/17/17
f 17/17/17 22/22/22 23/23/23
f 18/18/18 24/24/24 16/16/16
f 16/16/16 24/24/24 22/22/22
f 19/19/19 25/25/25 18/18/18
f 18/18/18 25/25/25 24/24/24
f 20/20/20 26/26/26 19/19/19
f 19/19/19 26/26/26 25/25/25
f 21/21/21 27/27/27 20/20/20
f 20/20/20 27/27/27 26/26/26
f 21/21/21 28/28/28 27/27/27
f 28/28/28 29/29/29 27/27/27
f 27/27/27 29/29/29 30/30/30
f 27/27/27 30/30/30 26/26/26
f 29/29/29 31/31/31 30/30/30
f 22/22/22 32/32/32 23/23/23
f 23/23/23 32/32/32 33/33/33
f 24/24/24 34/34/34 22/22/22
f 22/22/22 34/34/34 32/32/32
f 25/25/25 35/35/35 24/24/24
f 24/24/24 35/35/35 34/34/34
f 26/26/26 36/36/36 25/25/25
f 26/26/26 30/30/30 36/36/36
f 25/25/25 36/36/36 35/35/35
f 30/30/30 31/31/31 37/37/37
f 30/30/30 37/37/37 36/36/36
f 31/31/31 38/38/38 37/37/37
f 32/32/32 39/39/39 33/33/33
f 33/33/33 39/39/39 40/40/40
f 34/34/34 41/41/41 32/32/32
f 32/32/32 41/41/41 39/39/39
f 35/35/35 42/42/42 34/34/34
f 34/34/34 42/42/42 41/41/41
f 36/36/36 43/43/43 35/35/35
f 36/36/36 37/37/37 43/43/43
f 35/35/35 43/43/43 42/42/42
f 37/37/37 38/38/38 44/44/44
f 37/37/37 44/44/44 43/43/43
f 38/38/38 45/45/45 44/44/44
f 39/39/39 46/46/46 40/40/40
f 40/40/40 46/46/46 47/47/47
f 41/41/41 48/48/48 39/39/39
f 39/39/39 48/48/48 46/46/46
f 42/42/42 49/49/49 41/41/41
f 41/41/41 49/49/49 48/48/48
f 43/43/43 50/50/50 42/42/42
f 43/43/43 44/44/44 50/50/50
f 42/42/42 50/50/50 49/49/49
f 44/44/44 45/45/45 51/51/51
f 44/44/44 51/51/51 50/50/50
f 45/45/45 52/52/52 51/51/51
f 46/46/46 53/53/53 47/47/47
f 47/47/47 53/53/53 54/54/54
f 48/48/48 55/55/55 46/46/46
f 46/46/46 55/55/55 53/53/53
f 49/49/49 56/56/56 48/48/48
f 48/48/48 56/56/56 55/55/55
f 50/50/50 57/57/57 49/49/49
f 50/50/50 51/51/51 57/57/57
f 49/49/49 57/57/57 56/56/56
f 51/51/51 52/52/52 58/58/58
f 51/51/51 58/58/58 57/57/57
f 52/52/52 59/59/59 58/58/58
f 53/53/53 60/60/60 54/54/54
f 54/54/54 60/60/60 61/61/61
f 55/55/55 62/62/62 53/53/53
f 53/53/53 62/62/62 60/60/60
f 56/56/56 63/63/63 55/55/55
f 55/55/55 63/63/63 62/62/62
f 57/57/57 64/64/64 56/56/56
f 57/57/57 58/58/58 64/64/64
f 56/56/56 64/64/64 63/63/63
f 58/58/58 59/59/59 65/65/65
f 58/58/58 65/65/65 64/64/64
f 59/59/59 66/66/66 65/65/65
f 60/60/60 67/67/67 61/61/61
f 61/61/61 67/67/67 68/68/68
f 62/62/62 69/69/69 60/60/60
f 60/60/60 69/69/69 67/67/67
f 63/63/63 70/70/70 62/62/62
f 62/62/62 70/70/70 69/69/69
f 64/64/64 71/71/71 63/63/63
f 64/64/64 65/65/65 71/71/71
f 63/63/63 71/71/71 70/70/70
f 65/65/65 66/66/66 72/72/72
f 65/65/65 72/72/72 71/71/71
f 66/66/66 73/73/73 72/72/72
f 67/67/67 74/74/74 68/68/68
f 68/68/68 74/74/74 75/75/75
f 69/69/69 76/76/76 67/67/67
f 67/67/67 76/76/76 74/74/74
f 70/70/70 77/77/77 69/69/69
f 69/69/69 77/77/77 76/76/76
f 71/71/71 78/78/78 70/70/70
f 71/71/71 72/72/72 78/78/78
f 70/70/70 78/78/78 77/77/77
f 72/72/72 73/73/73 79/79/79
f 72/72/72 79/79/79 78/78/78
f 73/73/73 80/80/80 79/79/79
f 74/74/74 81/81/81 75/75/75
f 75/75/75 81/81/81 82/82/82
f 76/76/76 83/83/83 74/74/74
f 74/74/74 83/83/83 81/81/81
f 77/77/77 84/84/84 76/76/76
f 76/76/76 84/84/84 83/83/83
f 78/78/78 85/85/85 77/77/77
f 78/78/78 79/79/79 85/85/85
f 77/77/77 85/85/85 84/84/84
f 79/79/79 80/80/80 86/86/86
f 79/79/79 86/86/86 85/85/85
f 80/80/80 87/87/87 86/86/86
f 81/81/81 88/88/88 82/82/82
f 82/82/82 88/88/88 89/89/89
f 83/83/83 90/90/90 81/81/81
f 81/81/81 90/90/90 88/88/88
f 84/84/84 91/91/91 83/83/83
f 83/83/83 91/91/91 90/90/90
f 85/85/85 92/92/92 84/84/84
f 85/85/85 86/86/86 92/92/92
f 84/84/84 92/92/92 91/91/91
f 86/86/86 87/87/87 93/93/93
f 86/86/86 93/93/93 92/92/92
f 87/87/87 94/94/94 93/93/93
f 88/88/88 95/95/95 89/89/89
f 89/89/89 95/95/95 96/96/96
f 90/90/90 97/97/97 88/88/88
f 88/88/88 97/97/97 95/95/95
f 91/91/91 98/98/98 90/90/90
f 90/90/90 98/98/98 97/97/97
f 92/92/92 99/99/99 91/91/91
f 92/92/92 93/93/93 99/99/99
f 91/91/91 99/99/99 98/98/98
f 93/93/93 94/94/94 100/100/100
f 93/93/93 100/100/100 99/99/99
f 94/94/94 101/101/101 100/100/100
f 95/95/95 102/102/102 96/96/96
f 96/96/96 102/102/102 103/103/103
f 97/97/97 104/104/104 95/95/95
f 95/95/95 104/104/104 102/102/102
f 98/98/98 105/105/105 97/97/97
f 97/97/97 105/105/105 104/104/104
f 99/99/99 106/106/106 98/98/98
f 99/99/99 100/100/100 106/106/106
f 98/98/98 106/106/106 105/105/105
f 100/100/100 101/101/101 107/107/107
f 100/100/100 107/107/107 106/106/106
f 101/101/101 108/108/108 107/107/107
f 102/102/102 109/109/109 103/103/103
f 103/103/103 109/109/109 110/110/110
f 104/104/104 111/111/111 102/102/102
f 102/102/102 111/111/111 109/109/109
f 105/105/105 112/112/112 104/104/104
f 104/104/104 112/112/112 111/111/111
f 106/106/106 113/113/113 105/105/105
f 106/106/106 107/107/107 113/113/113
f 105/105/105 113/113/113 112/112/112
f 107/107/107 108/108/108 114/114/114
f 107/107/107 114/114/114 113/113/113
f 108/108/108 115/115/115 114/114/114
f 109/109/109 116/116/116 110/110/110
f 110/110/110 116/116/116 117/117/117
f 111/111/111 118/118/118 109/109/109
f 109/109/109 118/118/118 116/116/116
f 112/112/112 119/119/119 111/111/111
f 111/111/111 119/119/119 118/118/118
f 113/113/113 120/120/120 112/112/112
f 113/113/113 114/114/114 120/120/120
f 112/112/112 120/120/120 119/119/119
f 114/114/114 115/115/115 121/121/121
f 114/114/114 121/121/121 120/120/120
f 115/115/115 122/122/122 121/121/121
f 116/116/116 123/123/123 117/117/117
f 117/117/117 123/123/123 124/124/124
f 118/118/118 125/125/125 116/116/116
f 116/116/116 125/125/125 123/123/123
f 119/119/119 126/126/126 118/118/118
f 118/118/118 126/126/126 125/125/125
f 120/120/120 127/127/127 119/119/119
f 120/120/120 121/121/121 127/127/127
f 119/119/119 127/127/127 126/126/126
f 121/121/121 122/122/122 128/128/128
f 121/121/121 128/128/128 127/127/127
f 122/122/122 129/129/129 128/128/128
f 123/123/123 130/130/130 124/124/124
f 124/124/124 130/130/130 131/131/131
f 125/125/125 132/132/132 123/123/123
f 123/123/123 132/132/132 130/130/130
f 126/126/126 133/133/133 125/125/125
f 125/125/125 133/133/133 132/132/132
f 127/127/127 134/134/134 126/126/126
f 127/127/127 128/128/128 134/134/134
f 126/126/126 134/134/134 133/133/133
f 128/128/128 129/129/129 135/135/135
f 128/128/128 135/135/135 134/134/134
f 129/129/129 136/136/136 135/135/135
f 130/130/130 137/137/137 131/131/131
f 131/131/131 137/137/137 138/138/138
f 132/132/132 139/139/139 130/130/130
f 130/130/130 139/139/139 137/137/137
f 133/133/133 140/140/140 132/132/132
f 132/132/132 140/140/140 139/139/139
f 134/134/134 141/141/141 133/133/133
f 134/134/134 135/135/135 141/141/141
f 133/133/133 141/141/141 140/140/140
f 135/135/135 136/136/136 142/142/142
f 135/135/135 142/142/142 141/141/141
f 136/136/136 143/143/143 142/142/142
f 137/137/137 144/144/144 138/138/138
f 138/138/138 144/144/144 145/145/145
f 139/139/139 146/146/146 137/137/137
f 137/137/137 146/146/146 144/144/144
f 140/140/140 147/147/147 139/139/139
f 139/139/139 147/147/147 146/146/146
f 141/141/141 148/148/148 140/140/140
f 141/141/141 142/142/142 148/148/148
f 140/140/140 148/148/148 147/147/147
f 142/142/142 143/143/143 149/149/149
f 142/142/142 149/149/149 148/148/148
f 143/143/143 150/150/150 149/149/149
f 144/144/144 151/151/151 145/145/145
f 145/145/145 151/151/151 152/152/152
f 151/151/151 153/153/153 152/152/152
f 146/146/146 154/154/154 144/144/144
f 144/144/144 154/154/154 151/151/151
f 151/151/151 155/155/155 153/153/153
f 154/154/154 155/155/155 151/151/151
f 155/155/155 156/156/156 153/153/153
f 147/147/147 157/157/157 146/146/146
f 146/146/146 157/157/157 154/154/154
f 148/148/148 158/158/158 147/147/147
f 148/148/148 149/149/149 158/158/158
f 147/147/147 158/158/158 157/157/157
f 149/149/149 150/150/150 159/159/159
f 149/149/149 159/159/159 158/158/158
f 150/150/150 160/160/160 159/159/159
f 155/155/155 161/161/161 156/156/156
f 161/161/161 162/162/162 156/156/156
f 154/154/154 163/163/163 155/155/155
f 157/157/157 163/163/163 154/154/154
f 163/163/163 161/161/161 155/155/155
f 158/158/158 164/164/164 157/157/157
f 158/158/158 159/159/159 164/164/164
f 157/157/157 164/164/164 163/163/163
f 159/159/159 160/160/160 165/165/165
f 159/159/159 165/165/165 164/164/164
f 160/160/160 166/166/166 165/165/165
f 164/164/164 167/167/167 163/163/163
f 163/163/163 167/167/167 161/161/161
f 164/164/164 165/165/165 167/167/167
f 161/161/161 168/168/168 162/162/162
f 167/167/167 168/168/168 161/161/161
f 168/168/168 169/169/169 162/162/162
f 165/165/165 166/166/166 170/170/170
f 165/165/165 170/170/170 167/167/167
f 167/167/167 170/170/170 168/168/168
f 166/166/166 171/171/171 170/170/170
f 168/168/168 172/172/172 169/169/169
f 170/170/170 172/172/172 168/168/168
f 170/170/170 171/171/171 172/172/172
f 172/172/172 173/173/173 169/169/169
f 171/171/171 174/174/174 172/172/172
f 172/172/172 174/174/174 173/173/173
f 174/174/174 175/175/175 173/173/173
