g fx_mesh_helix_10
v 2.722559E-08 7.549028E-10 0.003064154
v 0.0164679 -0.2046504 0.08349955
v -0.1840119 -0.1719887 0.1949031
v -0.1578446 0.0445498 0.08330751
v -0.01646785 0.2046504 -0.07737125
v -0.4083023 -0.1254065 0.2475543
v -0.1316773 0.2610883 -0.02828805
v -0.3496721 0.1009395 0.1202423
v -0.6599834 -0.0708701 0.2375457
v -0.2910419 0.3272856 -0.007069626
v -0.5632135 0.1628729 0.1032418
v -0.9230328 -0.009778161 0.1554961
v -0.4664436 0.396616 -0.03106215
v -0.7832969 0.2287055 0.02515089
v -1.177463 0.0569544 -0.003711304
v -0.6435611 0.4671891 -0.1051944
v -0.9928137 0.2975983 -0.1169849
v -1.401414 0.128648 -0.2395113
v -0.8081642 0.5382422 -0.2302585
v -1.173855 0.3690322 -0.3214539
v -1.579834 0.1985863 -0.5442075
v -0.9462967 0.6094163 -0.4033965
v -1.308954 0.4426509 -0.5817131
v -1.685373 0.2740824 -0.9087602
v -1.038073 0.6867155 -0.6192188
v -1.382343 0.5181935 -0.8865448
v -1.700292 0.3545554 -1.314391
v -1.079312 0.7623045 -0.8643293
v -1.381165 0.5954589 -1.220532
v -1.611997 0.4394771 -1.737397
v -1.062038 0.8363626 -1.126673
v -1.296538 0.6742885 -1.564838
v -1.414331 0.5283608 -2.150635
v -0.9810785 0.9090999 -1.392279
v -1.124414 0.7545518 -1.898246
v -1.108426 0.6207591 -2.525311
v -0.8344967 0.9807429 -1.645857
v -0.8661681 0.8361411 -2.198402
v -0.7044538 0.714603 -2.836152
v -0.6239102 1.051523 -1.871494
v -0.5288603 0.9189647 -2.443198
v -0.2156147 0.8118212 -3.053612
v -0.3532669 1.123326 -2.050244
v -0.1251599 1.002944 -2.612202
v 0.3348053 0.9115517 -3.156281
v -0.03470505 1.194067 -2.170793
v 0.3270974 1.088011 -2.688062
v 0.918565 1.013292 -3.12837
v 0.3193896 1.264471 -2.219843
v 0.805687 1.174106 -2.657782
v 1.503707 1.1167 -2.961032
v 0.692809 1.33492 -2.187194
v 1.285088 1.261175 -2.5138
v 2.056238 1.221524 -2.653268
v 1.06647 1.405651 -2.066568
v 1.737836 1.349172 -2.254785
v 2.543378 1.327201 -2.213462
v 1.419433 1.47682 -1.856302
v 2.136047 1.438053 -1.886104
v 2.931597 1.43413 -1.655298
v 1.728716 1.548905 -1.558746
v 2.453064 1.527781 -1.419898
v 3.192261 1.542123 -1.00224
v 1.974532 1.621432 -1.184498
v 2.665093 1.61832 -0.8747743
v 3.302515 1.651018 -0.2845648
v 2.137926 1.694518 -0.7473083
v 2.752764 1.709639 -0.2750935
v 3.246873 1.760677 0.4620802
v 2.203014 1.76826 -0.2656223
v 2.702504 1.801709 0.3501131
v 3.018446 1.870972 1.198486
v 2.158135 1.842741 0.238146
v 2.50764 1.894502 0.968547
v 2.618245 1.981808 1.882873
v 1.996832 1.918031 0.7386084
v 2.169157 1.987994 1.54631
v 2.061098 2.092953 2.476596
v 1.720069 1.994179 1.209746
v 1.696065 2.082161 2.04972
v 1.36824 2.204385 2.943469
v 1.331033 2.071368 1.622843
v 1.105299 2.176983 2.447237
v 0.5692392 2.316085 3.25243
v 0.8423576 2.14958 1.951006
v 0.4212021 2.272439 2.711312
v -0.2992439 2.428032 3.379455
v 0.273165 2.228793 2.170194
v -0.3254567 2.368511 2.820134
v -1.191434 2.540471 3.309585
v -0.3516695 2.30899 2.260812
v -1.098864 2.465181 2.759108
v -1.006293 2.389891 2.208632
v 2.722559E-08 7.549028E-10 0.003064154
v 0.1260159 7.549028E-10 0.184014
v -0.07480574 0.0582842 0.3134013
v -0.1578446 0.0445498 0.08330751
v -0.1260158 7.549028E-10 -0.1778857
v -0.3249825 0.1352865 0.3830904
v -0.2408835 0.03081542 -0.1467863
v -0.3496721 0.1009395 0.1202423
v -0.6056039 0.2198195 0.3807268
v -0.3743617 0.06659254 -0.1426057
v -0.5632135 0.1628729 0.1032418
v -0.8958312 0.3095751 0.2975231
v -0.5208231 0.1059263 -0.1742432
v -0.7832969 0.2287055 0.02515089
v -1.172714 0.4031996 0.1306442
v -0.6707627 0.1478359 -0.2472213
v -0.9928137 0.2975983 -0.1169849
v -1.412912 0.4997797 -0.1164193
v -0.8129137 0.1919969 -0.364614
v -1.173855 0.3690322 -0.3214539
v -1.601789 0.6026872 -0.4301008
v -0.9347988 0.2382846 -0.5264884
v -1.308954 0.4426509 -0.5817131
v -1.712519 0.7075961 -0.8027512
v -1.016118 0.2826146 -0.7333255
v -1.382343 0.5181935 -0.8865448
v -1.728944 0.8138204 -1.213204
v -1.052166 0.3287909 -0.9703383
v -1.381165 0.5954589 -1.220532
v -1.640842 0.9207907 -1.636381
v -1.033385 0.3770976 -1.227859
v -1.296538 0.6742885 -1.564838
v -1.444741 1.028027 -2.044933
v -0.9522328 0.4277864 -1.493296
v -1.124414 0.7545518 -1.898246
v -1.144295 1.135118 -2.411019
v -0.804087 0.481077 -1.75156
v -0.8661681 0.8361411 -2.198402
v -0.7520207 1.244349 -2.710284
v -0.5880417 0.5371644 -1.985786
v -0.5288603 0.9189647 -2.443198
v -0.2819531 1.352349 -2.916972
v -0.3057 0.5935808 -2.176112
v -0.1251599 1.002944 -2.612202
v 0.2424054 1.459562 -3.012413
v 0.03163341 0.6535398 -2.307432
v 0.3270974 1.088011 -2.688062
v 0.793681 1.566179 -2.983652
v 0.4117895 0.7164601 -2.363711
v 0.805687 1.174106 -2.657782
v 1.34179 1.672292 -2.824367
v 0.817693 0.7820334 -2.331912
v 1.285088 1.261175 -2.5138
v 1.855434 1.777953 -2.535463
v 1.228387 0.8500586 -2.203233
v 1.737836 1.349172 -2.254785
v 2.304351 1.884663 -2.12607
v 1.620237 0.9203907 -1.974108
v 2.136047 1.438053 -1.886104
v 2.659435 1.990664 -1.610495
v 1.967743 0.9914433 -1.646138
v 2.453064 1.527781 -1.419898
v 2.895781 2.095977 -1.011106
v 2.246693 1.064898 -1.229301
v 2.665093 1.61832 -0.8747743
v 2.993943 2.200602 -0.3559655
v 2.434407 1.140664 -0.7384425
v 2.752764 1.709639 -0.2750935
v 2.941207 2.304516 0.3224781
v 2.511586 1.218677 -0.1942216
v 2.702504 1.801709 0.3501131
v 2.732542 2.407677 0.989017
v 2.463801 1.298902 0.3777482
v 2.50764 1.894502 0.968547
v 2.370498 2.508314 1.607316
v 2.282737 1.381326 0.9480772
v 2.169157 1.987994 1.54631
v 1.86785 2.608941 2.142359
v 1.967815 1.467673 1.485304
v 1.696065 2.082161 2.04972
v 1.244164 2.70957 2.562138
v 1.524281 1.555381 1.95708
v 1.105299 2.176983 2.447237
v 0.5262841 2.810214 2.839317
v 0.966434 1.644396 2.332337
v 0.4212021 2.272439 2.711312
v -0.2528026 2.910881 2.952897
v 0.3161201 1.734665 2.583307
v -0.3254567 2.368511 2.820134
v -1.054524 3.011471 2.888968
v -0.3981109 1.82614 2.68737
v -1.098864 2.465181 2.759108
v -1.143204 1.918891 2.629249
vt 1 0.5
vt 0.9999999 1
vt 0.9872888 1
vt 0.9872888 0.5
vt 1 2.980232E-08
vt 0.9731339 1
vt 0.9872888 2.92467E-08
vt 0.9731339 0.5
vt 0.95761 1
vt 0.9731339 2.862797E-08
vt 0.95761 0.5
vt 0.940719 1
vt 0.95761 2.79494E-08
vt 0.940719 0.5
vt 0.9224526 1
vt 0.940719 2.721107E-08
vt 0.9224526 0.5
vt 0.9028007 1
vt 0.9224526 2.641262E-08
vt 0.9028007 0.5
vt 0.8817531 1
vt 0.9028007 2.555361E-08
vt 0.8817532 0.5
vt 0.8593009 1
vt 0.8817532 2.463359E-08
vt 0.8593009 0.5
vt 0.8354356 1
vt 0.8593009 2.365217E-08
vt 0.8354356 0.5
vt 0.81015 1
vt 0.8354356 2.260898E-08
vt 0.81015 0.5
vt 0.7834377 1
vt 0.81015 2.150372E-08
vt 0.7834377 0.5
vt 0.7552932 1
vt 0.7834378 2.033609E-08
vt 0.7552933 0.5
vt 0.7257113 1
vt 0.7552933 1.910585E-08
vt 0.7257113 0.5
vt 0.6946879 1
vt 0.7257114 1.781279E-08
vt 0.6946879 0.5
vt 0.6622188 1
vt 0.694688 1.645671E-08
vt 0.6622188 0.5
vt 0.6283006 1
vt 0.6622188 1.503744E-08
vt 0.6283006 0.5
vt 0.5929303 1
vt 0.6283007 1.355483E-08
vt 0.5929303 0.5
vt 0.556105 1
vt 0.5929303 1.200874E-08
vt 0.556105 0.5
vt 0.5178224 1
vt 0.5561051 1.039906E-08
vt 0.5178224 0.5
vt 0.4780799 1
vt 0.5178224 8.725669E-09
vt 0.4780799 0.5
vt 0.4368756 1
vt 0.4780799 6.98847E-09
vt 0.4368757 0.5
vt 0.3942078 1
vt 0.4368757 5.187378E-09
vt 0.3942079 0.5
vt 0.3500748 1
vt 0.3942079 3.322308E-09
vt 0.3500748 0.5
vt 0.3044749 1
vt 0.3500748 1.393191E-09
vt 0.3044749 0.5
vt 0.2574066 1
vt 0.3044749 -6.000427E-10
vt 0.2574067 0.5
vt 0.208869 1
vt 0.2574067 -2.657465E-09
vt 0.2088691 0.5
vt 0.1588604 1
vt 0.2088691 -4.779107E-09
vt 0.1588605 0.5
vt 0.1073801 1
vt 0.1588605 -6.965053E-09
vt 0.1073802 0.5
vt 0.05442697 1
vt 0.1073802 -9.215331E-09
vt 0.05442703 0.5
vt 0 1
vt 0.05442703 -1.152998E-08
vt 0 0.5
vt 0 -1.390907E-08
vt 1 0.5
vt 0.9999999 1
vt 0.9872888 1
vt 0.9872888 0.5
vt 1 2.980232E-08
vt 0.9731339 1
vt 0.9872888 2.92467E-08
vt 0.9731339 0.5
vt 0.95761 1
vt 0.9731339 2.862797E-08
vt 0.95761 0.5
vt 0.940719 1
vt 0.95761 2.79494E-08
vt 0.940719 0.5
vt 0.9224526 1
vt 0.940719 2.721107E-08
vt 0.9224526 0.5
vt 0.9028007 1
vt 0.9224526 2.641262E-08
vt 0.9028007 0.5
vt 0.8817531 1
vt 0.9028007 2.555361E-08
vt 0.8817532 0.5
vt 0.8593009 1
vt 0.8817532 2.463359E-08
vt 0.8593009 0.5
vt 0.8354356 1
vt 0.8593009 2.365217E-08
vt 0.8354356 0.5
vt 0.81015 1
vt 0.8354356 2.260898E-08
vt 0.81015 0.5
vt 0.7834377 1
vt 0.81015 2.150372E-08
vt 0.7834377 0.5
vt 0.7552932 1
vt 0.7834378 2.033609E-08
vt 0.7552933 0.5
vt 0.7257113 1
vt 0.7552933 1.910585E-08
vt 0.7257113 0.5
vt 0.6946879 1
vt 0.7257114 1.781279E-08
vt 0.6946879 0.5
vt 0.6622188 1
vt 0.694688 1.645671E-08
vt 0.6622188 0.5
vt 0.6283006 1
vt 0.6622188 1.503744E-08
vt 0.6283006 0.5
vt 0.5929303 1
vt 0.6283007 1.355483E-08
vt 0.5929303 0.5
vt 0.556105 1
vt 0.5929303 1.200874E-08
vt 0.556105 0.5
vt 0.5178224 1
vt 0.5561051 1.039906E-08
vt 0.5178224 0.5
vt 0.4780799 1
vt 0.5178224 8.725669E-09
vt 0.4780799 0.5
vt 0.4368756 1
vt 0.4780799 6.98847E-09
vt 0.4368757 0.5
vt 0.3942078 1
vt 0.4368757 5.187378E-09
vt 0.3942079 0.5
vt 0.3500748 1
vt 0.3942079 3.322308E-09
vt 0.3500748 0.5
vt 0.3044749 1
vt 0.3500748 1.393191E-09
vt 0.3044749 0.5
vt 0.2574066 1
vt 0.3044749 -6.000427E-10
vt 0.2574067 0.5
vt 0.208869 1
vt 0.2574067 -2.657465E-09
vt 0.2088691 0.5
vt 0.1588604 1
vt 0.2088691 -4.779107E-09
vt 0.1588605 0.5
vt 0.1073801 1
vt 0.1588605 -6.965053E-09
vt 0.1073802 0.5
vt 0.05442697 1
vt 0.1073802 -9.215331E-09
vt 0.05442703 0.5
vt 0 1
vt 0.05442703 -1.152998E-08
vt 0 0.5
vt 0 -1.390907E-08
vn 0.5012 0.3493953 0.7916574
vn 0.499323 0.3498812 0.7926283
vn 0.3885695 0.385434 0.8369315
vn 0.3971073 0.3830819 0.8339989
vn 0.5034156 0.3488188 0.790505
vn 0.1731483 0.4482246 0.8769917
vn 0.3879555 0.3858326 0.8370327
vn 0.1789783 0.4465158 0.8766929
vn -0.03881487 0.5098389 0.8593938
vn 0.1708223 0.4488696 0.8771179
vn -0.0339971 0.5084365 0.860428
vn -0.2284029 0.5665613 0.7917324
vn -0.04045127 0.5103093 0.859039
vn -0.2248064 0.5654503 0.7935541
vn -0.3855548 0.6182517 0.6849178
vn -0.229714 0.5669647 0.7910641
vn -0.3830841 0.6173784 0.6870884
vn -0.5045515 0.6652478 0.550339
vn -0.3865492 0.6186036 0.6840391
vn -0.5026254 0.6643801 0.5531425
vn -0.5820678 0.7076024 0.4006194
vn -0.5053542 0.6656106 0.5491626
vn -0.5808619 0.7067588 0.4038458
vn -0.6187024 0.7454932 0.2478856
vn -0.582598 0.7079762 0.3991858
vn -0.6183898 0.7448607 0.2505525
vn -0.6181753 0.7795021 0.1011723
vn -0.6188549 0.7458104 0.2465474
vn -0.618427 0.7790328 0.1032275
vn -0.5856571 0.8099478 -0.03146779
vn -0.6180288 0.7797685 0.1000074
vn -0.5862085 0.8096048 -0.029996
vn -0.5276986 0.8371274 -0.144055
vn -0.5852982 0.8101699 -0.03241668
vn -0.5283504 0.836882 -0.1430885
vn -0.4514998 0.8613413 -0.2328929
vn -0.5272095 0.8373113 -0.1447757
vn -0.4522169 0.8611433 -0.2322329
vn -0.3646296 0.882797 -0.2961669
vn -0.4509117 0.8615036 -0.2334311
vn -0.3653201 0.8826414 -0.2957791
vn -0.2742831 0.9017051 -0.3342106
vn -0.3639974 0.8829393 -0.2965199
vn -0.274785 0.9016058 -0.334066
vn -0.186557 0.9183078 -0.3491522
vn -0.2736941 0.9018217 -0.334379
vn -0.1869044 0.9182437 -0.349135
vn -0.1065798 0.9327829 -0.3443209
vn -0.1860236 0.9184061 -0.3491785
vn -0.106802 0.9327424 -0.3443614
vn -0.03808402 0.9452956 -0.3239845
vn -0.1061131 0.9328673 -0.3442361
vn -0.03820962 0.9452717 -0.3240391
vn 0.01671042 0.9560018 -0.2928846
vn -0.03769217 0.9453693 -0.3238152
vn 0.01663273 0.9559854 -0.2929426
vn 0.05700011 0.9650328 -0.2558568
vn 0.01702967 0.9560682 -0.2926493
vn 0.05696176 0.9650229 -0.2559027
vn 0.08337151 0.9725123 -0.2174146
vn 0.05724005 0.9650927 -0.2555771
vn 0.08336975 0.9725113 -0.2174196
vn 0.09758747 0.978561 -0.1813695
vn 0.08352758 0.9725654 -0.2171169
vn 0.09759712 0.9785663 -0.1813359
vn 0.1022536 0.9832843 -0.1506528
vn 0.09766608 0.9786085 -0.1810709
vn 0.1022564 0.9832938 -0.1505892
vn 0.1005279 0.9867778 -0.1271363
vn 0.1022628 0.9833269 -0.1503684
vn 0.1005125 0.98679 -0.127054
vn 0.09578558 0.9891295 -0.1115705
vn 0.1004775 0.9868163 -0.1268773
vn 0.09574481 0.9891439 -0.1114775
vn 0.09128068 0.9904221 -0.1035949
vn 0.09568638 0.9891643 -0.1113461
vn 0.09121779 0.9904367 -0.1035102
vn 0.0898574 0.9907295 -0.1018856
vn 0.09114325 0.9904541 -0.1034102
vn 0.08978044 0.9907432 -0.1018198
vn 0.09370121 0.9901195 -0.1043241
vn 0.08969215 0.990759 -0.1017445
vn 0.09361518 0.9901325 -0.1042789
vn 0.1041425 0.9886556 -0.1082333
vn 0.09351928 0.9901467 -0.1042287
vn 0.1040525 0.9886677 -0.1082094
vn 0.1217804 0.9863353 -0.1109611
vn 0.1039546 0.9886808 -0.1081835
vn 0.1214824 0.9863707 -0.110973
vn 0.1324273 0.9848766 -0.1117185
vn 0.1211486 0.9864101 -0.1109874
vn 0.1319225 0.9849401 -0.1117564
vn 0.1313467 0.9850122 -0.1117996
vn 0.2047512 0.9692466 -0.1365213
vn 0.1999033 0.9705955 -0.1341008
vn 0.2280407 0.9632711 -0.141796
vn 0.2286832 0.9630111 -0.1425255
vn 0.2104937 0.9676073 -0.1393871
vn 0.2704354 0.9510497 -0.1495628
vn 0.2335774 0.9615574 -0.1443912
vn 0.2694833 0.9513322 -0.1494857
vn 0.3088623 0.9398825 -0.1456877
vn 0.2708269 0.9509413 -0.149544
vn 0.3079716 0.9401452 -0.1458787
vn 0.3557898 0.9257775 -0.127866
vn 0.3096076 0.9396631 -0.1455219
vn 0.3548609 0.9260685 -0.1283391
vn 0.4074579 0.9086315 -0.09146965
vn 0.3565198 0.925548 -0.1274927
vn 0.4065932 0.9089416 -0.09223372
vn 0.4572917 0.8886845 -0.03352907
vn 0.4080679 0.9084119 -0.09093106
vn 0.4564125 0.8890869 -0.03481566
vn 0.4972003 0.8664283 0.04575992
vn 0.4578092 0.8884462 -0.03277203
vn 0.4965126 0.8669183 0.04390774
vn 0.519537 0.8423846 0.1430715
vn 0.4975655 0.8661659 0.04674451
vn 0.5193197 0.8428375 0.1411813
vn 0.5181891 0.8167933 0.2536313
vn 0.5196444 0.8421595 0.1440041
vn 0.5184109 0.8172031 0.2518515
vn 0.4885929 0.789961 0.3704572
vn 0.5180895 0.8166069 0.2544333
vn 0.4891773 0.790325 0.3689064
vn 0.428413 0.7621498 0.4853761
vn 0.4883573 0.7898126 0.3710837
vn 0.4292537 0.7624668 0.4841339
vn 0.3376246 0.7335441 0.5898497
vn 0.4281157 0.7620363 0.4858163
vn 0.338734 0.7338508 0.5888311
vn 0.2188985 0.7043756 0.6752322
vn 0.3372896 0.7334504 0.5901579
vn 0.220185 0.7046654 0.6745111
vn 0.07728092 0.6748332 0.7339126
vn 0.2185651 0.7042996 0.6754194
vn 0.07847323 0.6750687 0.7335694
vn -0.08064828 0.6449951 0.7599192
vn 0.07703792 0.6747847 0.7339829
vn -0.07956766 0.6451936 0.7598645
vn -0.2465424 0.6149818 0.7490088
vn -0.08080643 0.6449655 0.7599275
vn -0.2455962 0.6151526 0.7491794
vn -0.4111129 0.5848922 0.6992049
vn -0.2466266 0.6149662 0.7489939
vn -0.4103195 0.5850408 0.6995464
vn -0.5648008 0.5547937 0.6109042
vn -0.4111374 0.5848873 0.6991945
vn -0.5641037 0.5549383 0.6114168
vn -0.6981593 0.524773 0.4870183
vn -0.5647957 0.5547946 0.6109082
vn -0.6975991 0.5249125 0.4876702
vn -0.8026916 0.4949024 0.332803
vn -0.6981364 0.5247785 0.4870452
vn -0.8023419 0.4950211 0.3334689
vn -0.8714632 0.4652117 0.1553384
vn -0.8026559 0.4949144 0.3328708
vn -0.8712968 0.465312 0.1559705
vn -0.8993251 0.4357427 -0.03664164
vn -0.8714351 0.4652285 0.1554451
vn -0.8993071 0.4358266 -0.03608084
vn -0.8833417 0.4065319 -0.2333224
vn -0.8993207 0.4357635 -0.03650253
vn -0.883432 0.4066004 -0.2328606
vn -0.8230277 0.3776194 -0.4242984
vn -0.8833729 0.4065556 -0.2331627
vn -0.823147 0.3776612 -0.4240294
vn -0.7203068 0.3490112 -0.5994576
vn -0.8231041 0.3776463 -0.424126
vn -0.7204027 0.3490333 -0.5993294
vn -0.5794173 0.3207166 -0.7492773
vn -0.720431 0.3490399 -0.5992916
vn -0.5795367 0.3207378 -0.7491758
vn -0.4069143 0.2927708 -0.865278
vn -0.5795786 0.3207453 -0.7491403
vn -0.4070495 0.2927911 -0.8652076
vn -0.2111175 0.2651879 -0.9408001
vn -0.4071044 0.2927993 -0.865179
vn -0.2112606 0.265207 -0.9407626
vn -0.001542447 0.2376753 -0.9713435
vn -0.2113266 0.2652159 -0.9407452
vn -0.001884956 0.2377137 -0.9713335
vn 0.104765 0.2225639 -0.9692728
vn -0.00217849 0.2377454 -0.971325
vn 0.1043076 0.2226217 -0.9693087
vn 0.1038359 0.2226813 -0.9693458
g fx_mesh_helix_10_0
f 3/3/3 2/2/2 1/1/1
f 4/4/4 3/3/3 1/1/1
f 4/4/4 1/1/1 5/5/5
f 6/6/6 3/3/3 4/4/4
f 7/7/7 4/4/4 5/5/5
f 8/8/8 6/6/6 4/4/4
f 8/8/8 4/4/4 7/7/7
f 9/9/9 6/6/6 8/8/8
f 10/10/10 8/8/8 7/7/7
f 11/11/11 9/9/9 8/8/8
f 11/11/11 8/8/8 10/10/10
f 12/12/12 9/9/9 11/11/11
f 13/13/13 11/11/11 10/10/10
f 14/14/14 12/12/12 11/11/11
f 14/14/14 11/11/11 13/13/13
f 15/15/15 12/12/12 14/14/14
f 16/16/16 14/14/14 13/13/13
f 17/17/17 15/15/15 14/14/14
f 17/17/17 14/14/14 16/16/16
f 18/18/18 15/15/15 17/17/17
f 19/19/19 17/17/17 16/16/16
f 20/20/20 18/18/18 17/17/17
f 20/20/20 17/17/17 19/19/19
f 21/21/21 18/18/18 20/20/20
f 22/22/22 20/20/20 19/19/19
f 23/23/23 21/21/21 20/20/20
f 23/23/23 20/20/20 22/22/22
f 24/24/24 21/21/21 23/23/23
f 25/25/25 23/23/23 22/22/22
f 26/26/26 24/24/24 23/23/23
f 26/26/26 23/23/23 25/25/25
f 27/27/27 24/24/24 26/26/26
f 28/28/28 26/26/26 25/25/25
f 29/29/29 27/27/27 26/26/26
f 29/29/29 26/26/26 28/28/28
f 30/30/30 27/27/27 29/29/29
f 31/31/31 29/29/29 28/28/28
f 32/32/32 30/30/30 29/29/29
f 32/32/32 29/29/29 31/31/31
f 33/33/33 30/30/30 32/32/32
f 34/34/34 32/32/32 31/31/31
f 35/35/35 33/33/33 32/32/32
f 35/35/35 32/32/32 34/34/34
f 36/36/36 33/33/33 35/35/35
f 37/37/37 35/35/35 34/34/34
f 38/38/38 36/36/36 35/35/35
f 38/38/38 35/35/35 37/37/37
f 39/39/39 36/36/36 38/38/38
f 40/40/40 38/38/38 37/37/37
f 41/41/41 39/39/39 38/38/38
f 41/41/41 38/38/38 40/40/40
f 42/42/42 39/39/39 41/41/41
f 43/43/43 41/41/41 40/40/40
f 44/44/44 42/42/42 41/41/41
f 44/44/44 41/41/41 43/43/43
f 45/45/45 42/42/42 44/44/44
f 46/46/46 44/44/44 43/43/43
f 47/47/47 45/45/45 44/44/44
f 47/47/47 44/44/44 46/46/46
f 48/48/48 45/45/45 47/47/47
f 49/49/49 47/47/47 46/46/46
f 50/50/50 48/48/48 47/47/47
f 50/50/50 47/47/47 49/49/49
f 51/51/51 48/48/48 50/50/50
f 52/52/52 50/50/50 49/49/49
f 53/53/53 51/51/51 50/50/50
f 53/53/53 50/50/50 52/52/52
f 54/54/54 51/51/51 53/53/53
f 55/55/55 53/53/53 52/52/52
f 56/56/56 54/54/54 53/53/53
f 56/56/56 53/53/53 55/55/55
f 57/57/57 54/54/54 56/56/56
f 58/58/58 56/56/56 55/55/55
f 59/59/59 57/57/57 56/56/56
f 59/59/59 56/56/56 58/58/58
f 60/60/60 57/57/57 59/59/59
f 61/61/61 59/59/59 58/58/58
f 62/62/62 60/60/60 59/59/59
f 62/62/62 59/59/59 61/61/61
f 63/63/63 60/60/60 62/62/62
f 64/64/64 62/62/62 61/61/61
f 65/65/65 63/63/63 62/62/62
f 65/65/65 62/62/62 64/64/64
f 66/66/66 63/63/63 65/65/65
f 67/67/67 65/65/65 64/64/64
f 68/68/68 66/66/66 65/65/65
f 68/68/68 65/65/65 67/67/67
f 69/69/69 66/66/66 68/68/68
f 70/70/70 68/68/68 67/67/67
f 71/71/71 69/69/69 68/68/68
f 71/71/71 68/68/68 70/70/70
f 72/72/72 69/69/69 71/71/71
f 73/73/73 71/71/71 70/70/70
f 74/74/74 72/72/72 71/71/71
f 74/74/74 71/71/71 73/73/73
f 75/75/75 72/72/72 74/74/74
f 76/76/76 74/74/74 73/73/73
f 77/77/77 75/75/75 74/74/74
f 77/77/77 74/74/74 76/76/76
f 78/78/78 75/75/75 77/77/77
f 79/79/79 77/77/77 76/76/76
f 80/80/80 78/78/78 77/77/77
f 80/80/80 77/77/77 79/79/79
f 81/81/81 78/78/78 80/80/80
f 82/82/82 80/80/80 79/79/79
f 83/83/83 81/81/81 80/80/80
f 83/83/83 80/80/80 82/82/82
f 84/84/84 81/81/81 83/83/83
f 85/85/85 83/83/83 82/82/82
f 86/86/86 84/84/84 83/83/83
f 86/86/86 83/83/83 85/85/85
f 87/87/87 84/84/84 86/86/86
f 88/88/88 86/86/86 85/85/85
f 89/89/89 87/87/87 86/86/86
f 89/89/89 86/86/86 88/88/88
f 90/90/90 87/87/87 89/89/89
f 91/91/91 89/89/89 88/88/88
f 92/92/92 90/90/90 89/89/89
f 92/92/92 89/89/89 91/91/91
f 93/93/93 92/92/92 91/91/91
f 96/96/96 95/95/95 94/94/94
f 97/97/97 96/96/96 94/94/94
f 97/97/97 94/94/94 98/98/98
f 99/99/99 96/96/96 97/97/97
f 100/100/100 97/97/97 98/98/98
f 101/101/101 99/99/99 97/97/97
f 101/101/101 97/97/97 100/100/100
f 102/102/102 99/99/99 101/101/101
f 103/103/103 101/101/101 100/100/100
f 104/104/104 102/102/102 101/101/101
f 104/104/104 101/101/101 103/103/103
f 105/105/105 102/102/102 104/104/104
f 106/106/106 104/104/104 103/103/103
f 107/107/107 105/105/105 104/104/104
f 107/107/107 104/104/104 106/106/106
f 108/108/108 105/105/105 107/107/107
f 109/109/109 107/107/107 106/106/106
f 110/110/110 108/108/108 107/107/107
f 110/110/110 107/107/107 109/109/109
f 111/111/111 108/108/108 110/110/110
f 112/112/112 110/110/110 109/109/109
f 113/113/113 111/111/111 110/110/110
f 113/113/113 110/110/110 112/112/112
f 114/114/114 111/111/111 113/113/113
f 115/115/115 113/113/113 112/112/112
f 116/116/116 114/114/114 113/113/113
f 116/116/116 113/113/113 115/115/115
f 117/117/117 114/114/114 116/116/116
f 118/118/118 116/116/116 115/115/115
f 119/119/119 117/117/117 116/116/116
f 119/119/119 116/116/116 118/118/118
f 120/120/120 117/117/117 119/119/119
f 121/121/121 119/119/119 118/118/118
f 122/122/122 120/120/120 119/119/119
f 122/122/122 119/119/119 121/121/121
f 123/123/123 120/120/120 122/122/122
f 124/124/124 122/122/122 121/121/121
f 125/125/125 123/123/123 122/122/122
f 125/125/125 122/122/122 124/124/124
f 126/126/126 123/123/123 125/125/125
f 127/127/127 125/125/125 124/124/124
f 128/128/128 126/126/126 125/125/125
f 128/128/128 125/125/125 127/127/127
f 129/129/129 126/126/126 128/128/128
f 130/130/130 128/128/128 127/127/127
f 131/131/131 129/129/129 128/128/128
f 131/131/131 128/128/128 130/130/130
f 132/132/132 129/129/129 131/131/131
f 133/133/133 131/131/131 130/130/130
f 134/134/134 132/132/132 131/131/131
f 134/134/134 131/131/131 133/133/133
f 135/135/135 132/132/132 134/134/134
f 136/136/136 134/134/134 133/133/133
f 137/137/137 135/135/135 134/134/134
f 137/137/137 134/134/134 136/136/136
f 138/138/138 135/135/135 137/137/137
f 139/139/139 137/137/137 136/136/136
f 140/140/140 138/138/138 137/137/137
f 140/140/140 137/137/137 139/139/139
f 141/141/141 138/138/138 140/140/140
f 142/142/142 140/140/140 139/139/139
f 143/143/143 141/141/141 140/140/140
f 143/143/143 140/140/140 142/142/142
f 144/144/144 141/141/141 143/143/143
f 145/145/145 143/143/143 142/142/142
f 146/146/146 144/144/144 143/143/143
f 146/146/146 143/143/143 145/145/145
f 147/147/147 144/144/144 146/146/146
f 148/148/148 146/146/146 145/145/145
f 149/149/149 147/147/147 146/146/146
f 149/149/149 146/146/146 148/148/148
f 150/150/150 147/147/147 149/149/149
f 151/151/151 149/149/149 148/148/148
f 152/152/152 150/150/150 149/149/149
f 152/152/152 149/149/149 151/151/151
f 153/153/153 150/150/150 152/152/152
f 154/154/154 152/152/152 151/151/151
f 155/155/155 153/153/153 152/152/152
f 155/155/155 152/152/152 154/154/154
f 156/156/156 153/153/153 155/155/155
f 157/157/157 155/155/155 154/154/154
f 158/158/158 156/156/156 155/155/155
f 158/158/158 155/155/155 157/157/157
f 159/159/159 156/156/156 158/158/158
f 160/160/160 158/158/158 157/157/157
f 161/161/161 159/159/159 158/158/158
f 161/161/161 158/158/158 160/160/160
f 162/162/162 159/159/159 161/161/161
f 163/163/163 161/161/161 160/160/160
f 164/164/164 162/162/162 161/161/161
f 164/164/164 161/161/161 163/163/163
f 165/165/165 162/162/162 164/164/164
f 166/166/166 164/164/164 163/163/163
f 167/167/167 165/165/165 164/164/164
f 167/167/167 164/164/164 166/166/166
f 168/168/168 165/165/165 167/167/167
f 169/169/169 167/167/167 166/166/166
f 170/170/170 168/168/168 167/167/167
f 170/170/170 167/167/167 169/169/169
f 171/171/171 168/168/168 170/170/170
f 172/172/172 170/170/170 169/169/169
f 173/173/173 171/171/171 170/170/170
f 173/173/173 170/170/170 172/172/172
f 174/174/174 171/171/171 173/173/173
f 175/175/175 173/173/173 172/172/172
f 176/176/176 174/174/174 173/173/173
f 176/176/176 173/173/173 175/175/175
f 177/177/177 174/174/174 176/176/176
f 178/178/178 176/176/176 175/175/175
f 179/179/179 177/177/177 176/176/176
f 179/179/179 176/176/176 178/178/178
f 180/180/180 177/177/177 179/179/179
f 181/181/181 179/179/179 178/178/178
f 182/182/182 180/180/180 179/179/179
f 182/182/182 179/179/179 181/181/181
f 183/183/183 180/180/180 182/182/182
f 184/184/184 182/182/182 181/181/181
f 185/185/185 183/183/183 182/182/182
f 185/185/185 182/182/182 184/184/184
f 186/186/186 185/185/185 184/184/184
