g fx_mesh_plane_cross_02
v -0.0009312258 3.875732E-07 -1.908295
v -0.0009313318 3.816592 -1.908295
v 0.0009313927 3.816591 1.908295
v 0.0009314987 -1.168494E-16 1.908295
v -1.908296 3.875732E-07 0.0009310439
v -1.908295 3.816592 0.0009319536
v 1.908296 3.816591 -0.0009310439
v 1.908295 5.70657E-20 -0.0009319536
vt 1 1
vt 1 1.192093E-07
vt 1.192093E-07 1.351025E-07
vt 2.384186E-07 1
vt 1 1
vt 1 1.192093E-07
vt 1.192093E-07 1.351025E-07
vt 2.384186E-07 1
vn -0.9999999 0 0.000507748
vn -0.9999999 0 0.000507748
vn -0.9999999 0 0.000507748
vn -0.9999999 0 0.000507748
vn 0.000507748 0 0.9999999
vn 0.000507748 0 0.9999999
vn 0.000507748 0 0.9999999
vn 0.000507748 0 0.9999999
g fx_mesh_plane_cross_02_0
f 3/3/3 2/2/2 1/1/1
f 4/4/4 3/3/3 1/1/1
f 7/7/7 6/6/6 5/5/5
f 8/8/8 7/7/7 5/5/5
