g fx_mesh_beam_03b
v 0.3657604 -0.4995571 2.422333E-08
v -0.1027643 0.2595942 0
v 0.05211043 0.3499608 0
v 1.059776 -0.5696993 -2.422333E-08
v 0.834285 -1.258708 2.422333E-08
v 2.067442 -1.489359 -2.422333E-08
v 1.771334 -2.777011 4.844665E-08
v 4.082773 -3.32868 -4.844665E-08
v 1.179052 -5.028776 -2.422333E-08
v -2.305029 -4.935466 2.422333E-08
v -1.724669 -6.728873 0
v -6.381392 -7.093921 0
v -1.457658 -8.692132 9.689331E-08
v 3.103909 -8.632066 -9.689331E-08
v 3.466076 -10.29034 1.695633E-07
v 7.932487 -10.53526 -1.695633E-07
v 2.985084 -12.69603 -9.689331E-08
v -0.4846351 -12.49808 9.689331E-08
v -1.962319 -14.8568 0
v -4.435346 -14.70582 0
v -1.457322 -16.69203 4.844665E-08
v 1.075126 -16.90166 -4.844665E-08
v 1.520703 -18.67823 9.689331E-08
v 4.112572 -18.94652 -9.689331E-08
v 1.306713 -20.60599 -4.844665E-08
v -1.00249 -20.38141 4.844665E-08
v -1.499146 -22.26546 0
v -3.525683 -22.0846 0
v -1.746317 -23.5602 0
v -0.5445875 -23.55696 0
v 0.03304843 -25.03579 0
v 0.4099715 -24.84847 0
vt 0.001919302 0.9579031
vt 0.001919302 1.000226
vt 0.99922 1.000226
vt 0.99922 0.9579031
vt 0.001919302 0.9100034
vt 0.99922 0.9100034
vt 0.001919302 0.8370067
vt 0.99922 0.8370067
vt 0.99922 0.76401
vt 0.001919302 0.76401
vt 0.99922 0.6910133
vt 0.001919302 0.6910133
vt 0.001919302 0.6180166
vt 0.99922 0.6180166
vt 0.001919302 0.5450199
vt 0.99922 0.5450199
vt 0.99922 0.4720233
vt 0.001919302 0.4720233
vt 0.99922 0.3990266
vt 0.001919302 0.3990266
vt 0.001919302 0.32603
vt 0.99922 0.32603
vt 0.001919302 0.2530333
vt 0.99922 0.2530333
vt 0.99922 0.1800366
vt 0.001919302 0.1800366
vt 0.99922 0.1070399
vt 0.001919302 0.1070399
vt 0.001919302 0.04762105
vt 0.99922 0.04762105
vt 0.001919302 0.0004513245
vt 0.99922 0.0004513245
vn 0 0 1
vn 0 0 1
vn 0 0 1
vn 0 0 1
vn 0 0 1
vn 0 0 1
vn 0 0 1
vn 0 0 1
vn 0 0 1
vn 0 0 1
vn 0 0 1
vn 0 0 1
vn 0 0 1
vn 0 0 1
vn 0 0 1
vn 0 0 1
vn 0 0 1
vn 0 0 1
vn 0 0 1
vn 0 0 1
vn 0 0 1
vn 0 0 1
vn 0 0 1
vn 0 0 1
vn 0 0 1
vn 0 0 1
vn 0 0 1
vn 0 0 1
vn 0 0 1
vn 0 0 1
vn 0 0 1
vn 0 0 1
g fx_mesh_beam_03b_0
f 3/3/3 2/2/2 1/1/1
f 4/4/4 3/3/3 1/1/1
f 4/4/4 1/1/1 5/5/5
f 6/6/6 4/4/4 5/5/5
f 6/6/6 5/5/5 7/7/7
f 8/8/8 6/6/6 7/7/7
f 9/9/9 8/8/8 7/7/7
f 10/10/10 9/9/9 7/7/7
f 11/11/11 9/9/9 10/10/10
f 12/12/12 11/11/11 10/10/10
f 11/11/11 12/12/12 13/13/13
f 14/14/14 11/11/11 13/13/13
f 14/14/14 13/13/13 15/15/15
f 16/16/16 14/14/14 15/15/15
f 17/17/17 16/16/16 15/15/15
f 18/18/18 17/17/17 15/15/15
f 19/19/19 17/17/17 18/18/18
f 20/20/20 19/19/19 18/18/18
f 19/19/19 20/20/20 21/21/21
f 22/22/22 19/19/19 21/21/21
f 22/22/22 21/21/21 23/23/23
f 24/24/24 22/22/22 23/23/23
f 25/25/25 24/24/24 23/23/23
f 26/26/26 25/25/25 23/23/23
f 27/27/27 25/25/25 26/26/26
f 28/28/28 27/27/27 26/26/26
f 27/27/27 28/28/28 29/29/29
f 30/30/30 27/27/27 29/29/29
f 30/30/30 29/29/29 31/31/31
f 32/32/32 30/30/30 31/31/31
