g fx_mesh_trail_03
v -9.588712E-07 1.45344 -3.508909
v -5.888276E-07 0.7409582 -3.725039
v 0.1237109 0.6636647 -3.336459
v 0.1237106 1.301824 -3.142876
v -1.29327E-06 2.110067 -3.157934
v 0.2068751 1.080006 -2.607361
v 0.2068754 0.5505831 -2.76796
v 0.1237103 1.889955 -2.828513
v -1.579174E-06 2.685605 -2.685601
v 0.2590445 0.862179 -2.08148
v 0.2590446 0.4395358 -2.209687
v 0.2590442 1.25169 -1.873282
v 0.2068749 1.567925 -2.346562
v 0.2590441 1.593097 -1.593095
v 0.2068746 1.995589 -1.995586
v 0.2590439 1.873284 -1.251686
v 0.12371 2.405455 -2.405451
v -1.805596E-06 3.157937 -2.110062
v 0.2068744 2.346564 -1.567921
v 0.2590438 2.081481 -0.8621753
v 0.1237098 2.828515 -1.88995
v -1.963833E-06 3.508911 -1.453435
v 0.2068744 2.607362 -1.080002
v 0.2590438 2.209688 -0.4395321
v 0.1237097 3.142876 -1.301819
v -2.047807E-06 3.725039 -0.7409529
v 0.2068743 2.76796 -0.5505786
v 0.2590438 2.252979 -1.33805E-06
v 0.1237096 3.336459 -0.6636601
v -2.054289E-06 3.798017 -2.376984E-06
v 0.2068743 2.822187 -1.71828E-06
v 0.2590438 2.209688 0.4395328
v 0.1237096 3.401824 -2.129028E-06
v -1.983031E-06 3.725039 0.740954
v 0.2068744 2.76796 0.5505796
v 0.2590439 2.081481 0.8621761
v 0.1237097 3.33646 0.663661
v -1.83677E-06 3.508911 1.453436
v 0.2068745 2.607361 1.080003
v 0.259044 1.873284 1.251686
v 0.1237098 3.142877 1.30182
v -1.621128E-06 3.157937 2.110063
v 0.2068746 2.346564 1.567922
v 0.2590442 1.593098 1.593095
v 0.12371 2.828515 1.88995
v -1.344391E-06 2.685606 2.685602
v 0.2068748 1.995589 1.995586
v 0.2590444 1.251689 1.873282
v 0.1237103 2.405455 2.405452
v -1.017195E-06 2.110067 3.157934
v 0.2068751 1.567925 2.346562
v 0.2590446 0.8621792 2.081479
v 0.1237105 1.889954 2.828513
v -6.521128E-07 1.453441 3.508909
v 0.2068754 1.080006 2.60736
v 0.2590448 0.4395363 2.209687
v 0.1237109 1.301824 3.142875
v -2.631749E-07 0.740959 3.725038
v 0.2068757 0.5505838 2.767959
v 0.2590451 2.420969E-06 2.252978
v 0.1237112 0.6636657 3.336458
v 1.346721E-07 3.060676E-06 3.798017
v 0.206876 2.653456E-06 2.822187
v 0.2590453 -0.4395317 2.209688
v 0.1237116 2.979443E-06 3.401824
v 5.261393E-07 -0.7409531 3.725039
v 0.2068763 -0.5505787 2.76796
v 0.2590455 -0.8621744 2.081481
v 0.2068766 -1.080001 2.607362
v 0.1237119 -0.6636596 3.336459
v 8.961827E-07 -1.453435 3.508911
v 0.1237122 -1.301819 3.142877
vt 0.001969098 0.9376686
vt 0.001969098 0.9963108
vt 0.3225153 0.9963108
vt 0.3225153 0.9376686
vt 0.001969098 0.8790263
vt 0.674535 0.9376686
vt 0.674535 0.9963108
vt 0.3225153 0.8790263
vt 0.001969098 0.8203837
vt 0.998031 0.9376686
vt 0.998031 0.9963108
vt 0.998031 0.8790263
vt 0.674535 0.8790263
vt 0.998031 0.8203837
vt 0.674535 0.8203837
vt 0.998031 0.7617418
vt 0.3225153 0.8203837
vt 0.001969098 0.7617418
vt 0.674535 0.7617418
vt 0.998031 0.7030994
vt 0.3225153 0.7617418
vt 0.001969098 0.7030994
vt 0.674535 0.7030994
vt 0.998031 0.6444571
vt 0.3225153 0.7030994
vt 0.001969098 0.6444571
vt 0.674535 0.6444571
vt 0.998031 0.5858154
vt 0.3225153 0.6444571
vt 0.001969098 0.5858154
vt 0.674535 0.5858154
vt 0.998031 0.5271733
vt 0.3225153 0.5858154
vt 0.001969098 0.5271733
vt 0.674535 0.5271733
vt 0.998031 0.4692439
vt 0.3225153 0.5271733
vt 0.001969098 0.4692439
vt 0.674535 0.4692439
vt 0.998031 0.4098888
vt 0.3225153 0.4692439
vt 0.001969098 0.4098888
vt 0.674535 0.4098888
vt 0.998031 0.3512467
vt 0.3225153 0.4098888
vt 0.001969098 0.3512467
vt 0.674535 0.3512467
vt 0.998031 0.2926043
vt 0.3225153 0.3512467
vt 0.001969098 0.2926043
vt 0.674535 0.2926043
vt 0.998031 0.233962
vt 0.3225153 0.2926043
vt 0.001969098 0.233962
vt 0.674535 0.233962
vt 0.998031 0.1753197
vt 0.3225153 0.233962
vt 0.001969098 0.1753197
vt 0.674535 0.1753197
vt 0.998031 0.1167086
vt 0.3225153 0.1753197
vt 0.001969098 0.1167086
vt 0.674535 0.1167086
vt 0.998031 0.0580976
vt 0.3225153 0.1167086
vt 0.001969098 0.0580976
vt 0.674535 0.0580976
vt 0.998031 -0.0005446714
vt 0.674535 -0.0005446714
vt 0.3225153 0.0580976
vt 0.001969098 -0.0005446714
vt 0.3225153 -0.0005446714
vn 0.9545475 0.1140626 -0.2753702
vn 0.9541366 0.08690354 -0.2864808
vn 0.9740046 0.06575814 -0.2167738
vn 0.9742448 0.08629294 -0.2083282
vn 0.9545475 0.1655931 -0.2478265
vn 0.9929827 0.04525618 -0.1092567
vn 0.9929155 0.03449297 -0.1137063
vn 0.9742448 0.1252778 -0.1874904
vn 0.9545476 0.2107598 -0.2107588
vn 0.9958262 0.03492794 -0.08432205
vn 0.995786 0.02662182 -0.08775859
vn 0.9958262 0.05070725 -0.07588778
vn 0.9929827 0.06570156 -0.09832834
vn 0.9958262 0.06453792 -0.06453727
vn 0.9929827 0.08362207 -0.08362135
vn 0.9958262 0.07588851 -0.05070664
vn 0.9742448 0.1594481 -0.1594472
vn 0.9545476 0.2478269 -0.165592
vn 0.9929827 0.09832903 -0.06570089
vn 0.9958262 0.08432269 -0.03492735
vn 0.9742448 0.1874909 -0.1252768
vn 0.9545476 0.2753704 -0.1140617
vn 0.9929827 0.1092572 -0.04525556
vn 0.9958262 0.08951647 -0.01780586
vn 0.9742448 0.2083285 -0.08629213
vn 0.9545475 0.2923317 -0.05814827
vn 0.9929827 0.1159868 -0.02307113
vn 0.9958262 0.09127017 0
vn 0.9742448 0.2211604 -0.04399146
vn 0.9545475 0.298059 0
vn 0.9929827 0.1182591 0
vn 0.9958262 0.08951643 0.01780571
vn 0.9742448 0.2254932 0
vn 0.9545475 0.2923319 0.05814818
vn 0.9929827 0.1159868 0.02307099
vn 0.9958262 0.08432262 0.03492726
vn 0.9742448 0.2211605 0.04399133
vn 0.9545475 0.2753707 0.1140618
vn 0.9929827 0.1092572 0.04525549
vn 0.9958262 0.07588841 0.05070654
vn 0.9742448 0.2083287 0.08629218
vn 0.9545475 0.2478272 0.1655921
vn 0.9929827 0.09832898 0.06570079
vn 0.9958262 0.06453792 0.06453723
vn 0.9742448 0.187491 0.1252768
vn 0.9545475 0.2107598 0.2107589
vn 0.9929827 0.083622 0.08362129
vn 0.9958262 0.05070722 0.07588781
vn 0.9742448 0.1594481 0.1594473
vn 0.9545475 0.1655931 0.2478265
vn 0.9929827 0.06570148 0.09832827
vn 0.9958262 0.0349279 0.08432193
vn 0.9742448 0.1252777 0.1874903
vn 0.9545475 0.1140627 0.2753703
vn 0.9929827 0.04525615 0.1092565
vn 0.9958262 0.01780641 0.0895156
vn 0.9742448 0.08629296 0.2083282
vn 0.9545476 0.05814904 0.2923313
vn 0.9929829 0.02307173 0.1159862
vn 0.9958262 6.109735E-07 0.09126934
vn 0.9742448 0.04399214 0.2211599
vn 0.9545477 7.70656E-07 0.2980584
vn 0.9929829 6.346452E-07 0.1182585
vn 0.9958262 -0.01780519 0.08951557
vn 0.9742449 7.282371E-07 0.2254927
vn 0.9545477 -0.05814755 0.2923312
vn 0.9929829 -0.02307048 0.1159862
vn 0.995786 -0.02662061 0.08775826
vn 0.9929155 -0.03449178 0.1137062
vn 0.9742449 -0.04399073 0.22116
vn 0.9541367 -0.08690219 0.2864808
vn 0.9740047 -0.06575687 0.2167738
g fx_mesh_trail_03_0
f 3/3/3 2/2/2 1/1/1
f 4/4/4 3/3/3 1/1/1
f 4/4/4 1/1/1 5/5/5
f 3/3/3 4/4/4 6/6/6
f 7/7/7 3/3/3 6/6/6
f 8/8/8 4/4/4 5/5/5
f 8/8/8 5/5/5 9/9/9
f 7/7/7 6/6/6 10/10/10
f 11/11/11 7/7/7 10/10/10
f 10/10/10 6/6/6 12/12/12
f 6/6/6 4/4/4 13/13/13
f 6/6/6 13/13/13 12/12/12
f 4/4/4 8/8/8 13/13/13
f 12/12/12 13/13/13 14/14/14
f 13/13/13 15/15/15 14/14/14
f 13/13/13 8/8/8 15/15/15
f 14/14/14 15/15/15 16/16/16
f 17/17/17 8/8/8 9/9/9
f 8/8/8 17/17/17 15/15/15
f 17/17/17 9/9/9 18/18/18
f 15/15/15 19/19/19 16/16/16
f 15/15/15 17/17/17 19/19/19
f 16/16/16 19/19/19 20/20/20
f 21/21/21 17/17/17 18/18/18
f 17/17/17 21/21/21 19/19/19
f 21/21/21 18/18/18 22/22/22
f 19/19/19 23/23/23 20/20/20
f 19/19/19 21/21/21 23/23/23
f 20/20/20 23/23/23 24/24/24
f 25/25/25 21/21/21 22/22/22
f 21/21/21 25/25/25 23/23/23
f 25/25/25 22/22/22 26/26/26
f 23/23/23 27/27/27 24/24/24
f 23/23/23 25/25/25 27/27/27
f 24/24/24 27/27/27 28/28/28
f 29/29/29 25/25/25 26/26/26
f 25/25/25 29/29/29 27/27/27
f 29/29/29 26/26/26 30/30/30
f 27/27/27 31/31/31 28/28/28
f 27/27/27 29/29/29 31/31/31
f 28/28/28 31/31/31 32/32/32
f 33/33/33 29/29/29 30/30/30
f 29/29/29 33/33/33 31/31/31
f 33/33/33 30/30/30 34/34/34
f 31/31/31 35/35/35 32/32/32
f 31/31/31 33/33/33 35/35/35
f 32/32/32 35/35/35 36/36/36
f 37/37/37 33/33/33 34/34/34
f 33/33/33 37/37/37 35/35/35
f 37/37/37 34/34/34 38/38/38
f 35/35/35 39/39/39 36/36/36
f 35/35/35 37/37/37 39/39/39
f 36/36/36 39/39/39 40/40/40
f 41/41/41 37/37/37 38/38/38
f 37/37/37 41/41/41 39/39/39
f 41/41/41 38/38/38 42/42/42
f 39/39/39 43/43/43 40/40/40
f 39/39/39 41/41/41 43/43/43
f 40/40/40 43/43/43 44/44/44
f 45/45/45 41/41/41 42/42/42
f 41/41/41 45/45/45 43/43/43
f 45/45/45 42/42/42 46/46/46
f 43/43/43 47/47/47 44/44/44
f 43/43/43 45/45/45 47/47/47
f 44/44/44 47/47/47 48/48/48
f 49/49/49 45/45/45 46/46/46
f 45/45/45 49/49/49 47/47/47
f 49/49/49 46/46/46 50/50/50
f 47/47/47 51/51/51 48/48/48
f 47/47/47 49/49/49 51/51/51
f 48/48/48 51/51/51 52/52/52
f 53/53/53 49/49/49 50/50/50
f 49/49/49 53/53/53 51/51/51
f 53/53/53 50/50/50 54/54/54
f 51/51/51 55/55/55 52/52/52
f 51/51/51 53/53/53 55/55/55
f 52/52/52 55/55/55 56/56/56
f 57/57/57 53/53/53 54/54/54
f 53/53/53 57/57/57 55/55/55
f 57/57/57 54/54/54 58/58/58
f 55/55/55 59/59/59 56/56/56
f 55/55/55 57/57/57 59/59/59
f 56/56/56 59/59/59 60/60/60
f 61/61/61 57/57/57 58/58/58
f 57/57/57 61/61/61 59/59/59
f 61/61/61 58/58/58 62/62/62
f 59/59/59 63/63/63 60/60/60
f 59/59/59 61/61/61 63/63/63
f 60/60/60 63/63/63 64/64/64
f 65/65/65 61/61/61 62/62/62
f 61/61/61 65/65/65 63/63/63
f 65/65/65 62/62/62 66/66/66
f 63/63/63 67/67/67 64/64/64
f 63/63/63 65/65/65 67/67/67
f 64/64/64 67/67/67 68/68/68
f 67/67/67 69/69/69 68/68/68
f 70/70/70 65/65/65 66/66/66
f 65/65/65 70/70/70 67/67/67
f 67/67/67 70/70/70 69/69/69
f 70/70/70 66/66/66 71/71/71
f 70/70/70 72/72/72 69/69/69
f 72/72/72 70/70/70 71/71/71
