g fxMesh_circleCross
v 0.3277249 -1.600591 0.03069819
v -0.3610871 -0.909908 0.1373149
v -0.3610871 -0.9196126 -0.02864296
v 0.3277249 -1.569284 0.3174866
v -0.3610871 -0.8722419 0.2936581
v 0.3277248 -1.489496 0.5870778
v -0.3610871 -0.8088114 0.4388147
v 0.3277248 -1.36611 0.8342624
v -0.3610871 -0.7218713 0.5702511
v 0.3277248 -1.203945 1.054487
v -0.3610871 -0.6140392 0.684938
v 0.3277248 -1.007556 1.243529
v -0.3610871 -0.4882342 0.779844
v 0.3277248 -0.7812957 1.397157
v -0.3610871 -0.3473327 0.8522339
v 0.3277248 -0.5295505 1.51094
v -0.3610871 -0.193674 0.8996635
v 0.3277249 -0.2570822 1.580264
v -0.3610871 -0.02864297 0.9196126
v 0.3277249 0.03069827 1.600591
v -0.361087 0.1373137 0.9099085
v 0.327725 0.3174873 1.569284
v -0.361087 0.293656 0.872243
v 0.327725 0.5870795 1.489496
v -0.361087 0.4388149 0.8088115
v 0.3277251 0.8342622 1.36611
v -0.3610869 0.570251 0.7218717
v 0.3277251 1.054487 1.203945
v -0.3610869 0.6849379 0.6140397
v 0.3277252 1.243529 1.007556
v -0.3610868 0.7798437 0.4882352
v 0.3277253 1.397157 0.7812951
v -0.3610868 0.8522343 0.3473319
v 0.3277253 1.51094 0.529551
v -0.3610868 0.8996634 0.1936754
v 0.3277254 1.580264 0.2570813
v -0.3610868 0.9196127 0.02864313
v 0.3277254 1.600591 -0.03069847
v -0.3610867 0.9099078 -0.137316
v 0.3277255 1.569285 -0.3174862
v -0.3610867 0.8722414 -0.2936592
v 0.3277255 1.489497 -0.5870776
v -0.3610867 0.8088111 -0.4388155
v 0.3277255 1.366111 -0.8342617
v -0.3610867 0.7218718 -0.5702508
v 0.3277255 1.203945 -1.054487
v -0.3610867 0.6140395 -0.6849381
v 0.3277255 1.007556 -1.243529
v -0.3610867 0.4882347 -0.779844
v 0.3277255 0.7812954 -1.397157
v -0.3610867 0.347333 -0.8522341
v 0.3277255 0.5295507 -1.51094
v -0.3610867 0.1936767 -0.8996633
v 0.3277255 0.2570806 -1.580264
v -0.3610868 0.0286433 -0.9196128
v 0.3277254 -0.03069845 -1.600591
v -0.3610868 -0.1373159 -0.9099079
v 0.3277254 -0.3174862 -1.569285
v -0.3610868 -0.2936581 -0.8722419
v 0.3277253 -0.5870782 -1.489496
v -0.3610868 -0.4388145 -0.8088117
v 0.3277253 -0.8342623 -1.36611
v -0.3610869 -0.5702519 -0.7218706
v 0.3277252 -1.054487 -1.203945
v -0.3610869 -0.684938 -0.6140394
v 0.3277251 -1.243529 -1.007556
v -0.361087 -0.7798437 -0.4882348
v 0.3277251 -1.397157 -0.7812952
v -0.361087 -0.8522342 -0.3473321
v 0.327725 -1.51094 -0.5295513
v -0.361087 -0.8996631 -0.1936768
v 0.327725 -1.580264 -0.2570805
v -0.3610871 -0.9196126 -0.02864296
v 0.3277249 -1.600591 0.03069819
v -0.3595949 -1.590925 0.02985567
v 0.3518249 -0.8735843 0.1273897
v 0.3518249 -0.8820988 -0.03191183
v -0.3595949 -1.559924 0.3149289
v 0.3518249 -0.8382385 0.2774943
v -0.3595949 -1.480734 0.5829124
v 0.3518248 -0.7781109 0.4170303
v -0.359595 -1.358199 0.8286486
v 0.3518248 -0.6953149 0.5435756
v -0.359595 -1.197102 1.047613
v 0.3518248 -0.5923612 0.6541664
v -0.359595 -1.00197 1.235599
v 0.3518248 -0.4720901 0.7458374
v -0.359595 -0.7771355 1.388394
v 0.3518249 -0.3372948 0.8159472
v -0.3595949 -0.5269638 1.50159
v 0.3518249 -0.1901811 0.8621706
v -0.3595949 -0.256182 1.570603
v 0.3518249 -0.03191209 0.8820989
v -0.3595949 0.02985597 1.590925
v 0.3518249 0.1273881 0.8735847
v -0.3595948 0.3149297 1.559924
v 0.351825 0.2774917 0.8382398
v -0.3595948 0.5829142 1.480734
v 0.351825 0.4170303 0.778111
v -0.3595947 0.8286487 1.358199
v 0.351825 0.5435751 0.6953152
v -0.3595946 1.047614 1.197101
v 0.3518251 0.654166 0.5923617
v -0.3595946 1.235599 1.00197
v 0.3518251 0.7458369 0.4720912
v -0.3595945 1.388394 0.777135
v 0.3518251 0.8159473 0.3372939
v -0.3595945 1.50159 0.5269642
v 0.3518252 0.8621702 0.1901826
v -0.3595944 1.570603 0.2561812
v 0.3518252 0.8820987 0.03191227
v -0.3595943 1.590925 -0.02985617
v 0.3518252 0.8735839 -0.1273907
v -0.3595943 1.559924 -0.3149287
v 0.3518252 0.8382377 -0.2774952
v -0.3595943 1.480734 -0.5829124
v 0.3518253 0.7781103 -0.4170309
v -0.3595943 1.3582 -0.8286483
v 0.3518253 0.6953151 -0.5435749
v -0.3595943 1.197101 -1.047613
v 0.3518253 0.5923613 -0.6541663
v -0.3595943 1.00197 -1.235599
v 0.3518253 0.4720904 -0.7458373
v -0.3595943 0.7771354 -1.388394
v 0.3518252 0.3372949 -0.815947
v -0.3595943 0.5269642 -1.50159
v 0.3518252 0.1901837 -0.86217
v -0.3595943 0.2561807 -1.570603
v 0.3518252 0.03191221 -0.8820987
v -0.3595943 -0.02985592 -1.590925
v 0.3518252 -0.1273907 -0.8735839
v -0.3595944 -0.3149284 -1.559924
v 0.3518251 -0.2774943 -0.8382383
v -0.3595945 -0.5829128 -1.480734
v 0.3518251 -0.4170302 -0.7781109
v -0.3595945 -0.8286486 -1.358199
v 0.3518251 -0.5435764 -0.6953138
v -0.3595946 -1.047613 -1.197102
v 0.3518251 -0.6541663 -0.5923612
v -0.3595946 -1.235599 -1.00197
v 0.351825 -0.7458372 -0.4720905
v -0.3595947 -1.388394 -0.7771353
v 0.351825 -0.8159474 -0.3372939
v -0.3595948 -1.50159 -0.5269648
v 0.3518249 -0.8621702 -0.1901839
v -0.3595948 -1.570603 -0.2561806
v 0.3518249 -0.8820988 -0.03191183
v -0.3595949 -1.590925 0.02985567
vt 0 0
vt 1 0.02873886
vt 1 0
vt 0 0.02873886
vt 1 0.05668783
vt 0 0.05668783
vt 1 0.0841704
vt 0 0.0841704
vt 1 0.1114143
vt 0 0.1114143
vt 1 0.1385857
vt 0 0.1385857
vt 1 0.1658296
vt 0 0.1658296
vt 1 0.1933122
vt 0 0.1933122
vt 1 0.2212612
vt 0 0.2212612
vt 1 0.25
vt 0 0.25
vt 1 0.2787389
vt 0 0.2787389
vt 1 0.3066879
vt 0 0.3066879
vt 1 0.3341704
vt 0 0.3341704
vt 1 0.3614143
vt 0 0.3614143
vt 1 0.3885857
vt 0 0.3885857
vt 1 0.4158297
vt 0 0.4158297
vt 1 0.4433122
vt 0 0.4433122
vt 1 0.4712612
vt 0 0.4712612
vt 1 0.5000001
vt 0 0.5000001
vt 1 0.5287389
vt 0 0.5287389
vt 1 0.5566879
vt 0 0.5566879
vt 1 0.5841704
vt 0 0.5841704
vt 1 0.6114143
vt 0 0.6114143
vt 1 0.6385857
vt 0 0.6385857
vt 1 0.6658297
vt 0 0.6658297
vt 1 0.6933122
vt 0 0.6933122
vt 1 0.7212611
vt 0 0.7212611
vt 1 0.75
vt 0 0.75
vt 1 0.7787389
vt 0 0.7787389
vt 1 0.8066878
vt 0 0.8066878
vt 1 0.8341703
vt 0 0.8341703
vt 1 0.8614143
vt 0 0.8614143
vt 1 0.8885857
vt 0 0.8885857
vt 1 0.9158296
vt 0 0.9158296
vt 1 0.9433121
vt 0 0.9433121
vt 1 0.9712611
vt 0 0.9712611
vt 1 1
vt 0 1
vt 0 0
vt 1 0.02873886
vt 1 0
vt 0 0.02873886
vt 1 0.05668783
vt 0 0.05668783
vt 1 0.0841704
vt 0 0.0841704
vt 1 0.1114143
vt 0 0.1114143
vt 1 0.1385857
vt 0 0.1385857
vt 1 0.1658296
vt 0 0.1658296
vt 1 0.1933122
vt 0 0.1933122
vt 1 0.2212612
vt 0 0.2212612
vt 1 0.25
vt 0 0.25
vt 1 0.2787389
vt 0 0.2787389
vt 1 0.3066879
vt 0 0.3066879
vt 1 0.3341704
vt 0 0.3341704
vt 1 0.3614143
vt 0 0.3614143
vt 1 0.3885857
vt 0 0.3885857
vt 1 0.4158297
vt 0 0.4158297
vt 1 0.4433122
vt 0 0.4433122
vt 1 0.4712612
vt 0 0.4712612
vt 1 0.5000001
vt 0 0.5000001
vt 1 0.5287389
vt 0 0.5287389
vt 1 0.5566879
vt 0 0.5566879
vt 1 0.5841704
vt 0 0.5841704
vt 1 0.6114143
vt 0 0.6114143
vt 1 0.6385857
vt 0 0.6385857
vt 1 0.6658297
vt 0 0.6658297
vt 1 0.6933122
vt 0 0.6933122
vt 1 0.7212611
vt 0 0.7212611
vt 1 0.75
vt 0 0.75
vt 1 0.7787389
vt 0 0.7787389
vt 1 0.8066878
vt 0 0.8066878
vt 1 0.8341703
vt 0 0.8341703
vt 1 0.8614143
vt 0 0.8614143
vt 1 0.8885857
vt 0 0.8885857
vt 1 0.9158296
vt 0 0.9158296
vt 1 0.9433121
vt 0 0.9433121
vt 1 0.9712611
vt 0 0.9712611
vt 1 1
vt 0 1
vn 0.7015596 0.7124808 -0.01360625
vn 0.705151 0.7013698 -0.1041271
vn 0.7051795 0.7086886 0.0219646
vn 0.7015574 0.6986504 -0.140374
vn 0.7050872 0.672179 -0.2258921
vn 0.7015455 0.6629981 -0.2612799
vn 0.7049934 0.6230087 -0.3388874
vn 0.7015306 0.6079606 -0.3718046
vn 0.7049257 0.5561766 -0.4401677
vn 0.701525 0.5359567 -0.4696947
vn 0.7049116 0.4736865 -0.52794
vn 0.7015332 0.44888 -0.5534959
vn 0.7049597 0.3770513 -0.6007197
vn 0.701555 0.3481922 -0.6217579
vn 0.7050582 0.2676922 -0.6566839
vn 0.7015835 0.2355114 -0.6725436
vn 0.7051724 0.1477587 -0.693469
vn 0.7015976 0.1134254 -0.7034881
vn 0.7051795 0.02196499 -0.7086886
vn 0.7015595 -0.01360662 -0.7124808
vn 0.7051508 -0.1041256 -0.7013701
vn 0.7015572 -0.1403745 -0.6986505
vn 0.7050871 -0.2258914 -0.6721794
vn 0.7015454 -0.2612806 -0.6629981
vn 0.7049932 -0.3388876 -0.6230087
vn 0.7015305 -0.371805 -0.6079605
vn 0.7049255 -0.4401678 -0.5561767
vn 0.7015247 -0.4696952 -0.5359567
vn 0.7049114 -0.52794 -0.4736869
vn 0.701533 -0.5534962 -0.44888
vn 0.7049595 -0.60072 -0.3770511
vn 0.7015549 -0.621758 -0.348192
vn 0.7050582 -0.656684 -0.2676922
vn 0.7015835 -0.6725438 -0.2355112
vn 0.7051722 -0.6934689 -0.1477592
vn 0.7015974 -0.7034884 -0.113425
vn 0.7051794 -0.7086887 -0.02196386
vn 0.7015595 -0.712481 0.01360674
vn 0.7051508 -0.7013697 0.1041283
vn 0.7015573 -0.6986504 0.1403741
vn 0.705087 -0.6721791 0.2258928
vn 0.7015455 -0.6629983 0.2612799
vn 0.7049931 -0.6230088 0.3388875
vn 0.7015304 -0.6079608 0.3718048
vn 0.7049252 -0.5561771 0.4401676
vn 0.7015246 -0.535957 0.469695
vn 0.7049112 -0.473687 0.52794
vn 0.701533 -0.4488804 0.5534961
vn 0.7049593 -0.3770516 0.6007199
vn 0.7015548 -0.3481924 0.6217581
vn 0.7050579 -0.2676932 0.6566837
vn 0.7015831 -0.2355112 0.6725441
vn 0.7051721 -0.1477598 0.6934691
vn 0.7015972 -0.1134251 0.7034886
vn 0.7051793 -0.02196426 0.7086887
vn 0.7015595 0.01360618 0.712481
vn 0.7051509 0.1041275 0.7013698
vn 0.7015574 0.140374 0.6986504
vn 0.705087 0.2258919 0.6721793
vn 0.7015454 0.2612799 0.6629983
vn 0.7049932 0.3388877 0.6230085
vn 0.7015306 0.3718046 0.6079607
vn 0.7049254 0.4401682 0.5561764
vn 0.7015249 0.4696946 0.535957
vn 0.7049115 0.5279396 0.4736871
vn 0.7015331 0.5534959 0.4488804
vn 0.7049595 0.6007197 0.3770515
vn 0.7015549 0.6217579 0.3481924
vn 0.7050581 0.6566837 0.267693
vn 0.7015833 0.6725438 0.2355114
vn 0.7051722 0.6934689 0.1477597
vn 0.7015974 0.7034884 0.1134252
vn 0.7051795 0.7086886 0.0219646
vn 0.7015596 0.7124808 -0.01360625
vn 0.7042865 -0.709792 0.01326089
vn 0.7078635 -0.6992084 0.100185
vn 0.7078965 -0.7058595 -0.02539229
vn 0.7042847 -0.6960663 0.1395518
vn 0.7077991 -0.6707569 0.2215979
vn 0.7042739 -0.6605989 0.2600142
vn 0.7077045 -0.6223297 0.334455
vn 0.7042598 -0.6058142 0.3701448
vn 0.7076359 -0.5562311 0.4357274
vn 0.7042546 -0.5341218 0.4676956
vn 0.7076212 -0.4744793 0.5235854
vn 0.7042629 -0.4474084 0.5512164
vn 0.7076693 -0.3785917 0.5965505
vn 0.7042841 -0.3471296 0.6192616
vn 0.7077702 -0.2699552 0.6528289
vn 0.7043117 -0.2348966 0.669902
vn 0.7078896 -0.1506439 0.6900715
vn 0.7043247 -0.1132856 0.7007803
vn 0.7078965 -0.02539325 0.7058597
vn 0.7042865 0.01326083 0.7097921
vn 0.7078635 0.1001829 0.6992087
vn 0.7042846 0.1395521 0.6960665
vn 0.7077991 0.2215966 0.6707574
vn 0.7042738 0.2600144 0.6605991
vn 0.7077046 0.3344548 0.6223297
vn 0.7042599 0.3701447 0.6058142
vn 0.707636 0.4357269 0.5562314
vn 0.7042547 0.4676957 0.5341217
vn 0.7076213 0.5235845 0.4744801
vn 0.704263 0.5512164 0.4474082
vn 0.7076695 0.5965503 0.3785916
vn 0.7042843 0.6192615 0.3471295
vn 0.7077703 0.6528288 0.269955
vn 0.7043119 0.6699018 0.2348965
vn 0.7078898 0.6900712 0.1506445
vn 0.7043249 0.7007803 0.1132851
vn 0.7078966 0.7058594 0.02539199
vn 0.7042868 0.7097918 -0.01326092
vn 0.7078637 0.6992079 -0.1001863
vn 0.704285 0.696066 -0.1395517
vn 0.7077994 0.6707565 -0.2215982
vn 0.7042742 0.6605989 -0.2600135
vn 0.7077048 0.6223295 -0.3344546
vn 0.7042602 0.605814 -0.3701447
vn 0.7076361 0.5562314 -0.4357268
vn 0.7042547 0.5341216 -0.4676957
vn 0.7076215 0.4744799 -0.5235846
vn 0.7042631 0.4474083 -0.5512161
vn 0.7076696 0.3785914 -0.5965503
vn 0.7042844 0.3471294 -0.6192614
vn 0.7077703 0.2699556 -0.6528286
vn 0.7043118 0.234896 -0.669902
vn 0.7078897 0.1506447 -0.6900712
vn 0.7043248 0.1132848 -0.7007804
vn 0.7078966 0.02539192 -0.7058594
vn 0.7042868 -0.0132608 -0.7097918
vn 0.7078637 -0.1001858 -0.699208
vn 0.704285 -0.139552 -0.6960661
vn 0.7077993 -0.2215977 -0.6707569
vn 0.7042739 -0.2600141 -0.6605989
vn 0.7077047 -0.3344554 -0.6223292
vn 0.70426 -0.3701447 -0.605814
vn 0.707636 -0.4357278 -0.5562307
vn 0.7042548 -0.4676957 -0.5341216
vn 0.7076213 -0.5235849 -0.4744797
vn 0.7042629 -0.5512164 -0.4474083
vn 0.7076694 -0.5965506 -0.3785914
vn 0.7042843 -0.6192614 -0.3471297
vn 0.7077703 -0.6528287 -0.2699556
vn 0.7043117 -0.669902 -0.2348963
vn 0.7078897 -0.6900713 -0.1506445
vn 0.7043247 -0.7007806 -0.1132847
vn 0.7078965 -0.7058595 -0.02539229
vn 0.7042865 -0.709792 0.01326089
g fxMesh_circleCross_0
f 3/3/3 2/2/2 1/1/1
f 4/4/4 1/1/1 2/2/2
f 2/2/2 5/5/5 4/4/4
f 6/6/6 4/4/4 5/5/5
f 5/5/5 7/7/7 6/6/6
f 8/8/8 6/6/6 7/7/7
f 7/7/7 9/9/9 8/8/8
f 10/10/10 8/8/8 9/9/9
f 9/9/9 11/11/11 10/10/10
f 12/12/12 10/10/10 11/11/11
f 11/11/11 13/13/13 12/12/12
f 14/14/14 12/12/12 13/13/13
f 13/13/13 15/15/15 14/14/14
f 16/16/16 14/14/14 15/15/15
f 15/15/15 17/17/17 16/16/16
f 18/18/18 16/16/16 17/17/17
f 17/17/17 19/19/19 18/18/18
f 20/20/20 18/18/18 19/19/19
f 19/19/19 21/21/21 20/20/20
f 22/22/22 20/20/20 21/21/21
f 21/21/21 23/23/23 22/22/22
f 24/24/24 22/22/22 23/23/23
f 23/23/23 25/25/25 24/24/24
f 26/26/26 24/24/24 25/25/25
f 25/25/25 27/27/27 26/26/26
f 28/28/28 26/26/26 27/27/27
f 27/27/27 29/29/29 28/28/28
f 30/30/30 28/28/28 29/29/29
f 29/29/29 31/31/31 30/30/30
f 32/32/32 30/30/30 31/31/31
f 31/31/31 33/33/33 32/32/32
f 34/34/34 32/32/32 33/33/33
f 33/33/33 35/35/35 34/34/34
f 36/36/36 34/34/34 35/35/35
f 35/35/35 37/37/37 36/36/36
f 38/38/38 36/36/36 37/37/37
f 37/37/37 39/39/39 38/38/38
f 40/40/40 38/38/38 39/39/39
f 39/39/39 41/41/41 40/40/40
f 42/42/42 40/40/40 41/41/41
f 41/41/41 43/43/43 42/42/42
f 44/44/44 42/42/42 43/43/43
f 43/43/43 45/45/45 44/44/44
f 46/46/46 44/44/44 45/45/45
f 45/45/45 47/47/47 46/46/46
f 48/48/48 46/46/46 47/47/47
f 47/47/47 49/49/49 48/48/48
f 50/50/50 48/48/48 49/49/49
f 49/49/49 51/51/51 50/50/50
f 52/52/52 50/50/50 51/51/51
f 51/51/51 53/53/53 52/52/52
f 54/54/54 52/52/52 53/53/53
f 53/53/53 55/55/55 54/54/54
f 56/56/56 54/54/54 55/55/55
f 55/55/55 57/57/57 56/56/56
f 58/58/58 56/56/56 57/57/57
f 57/57/57 59/59/59 58/58/58
f 60/60/60 58/58/58 59/59/59
f 59/59/59 61/61/61 60/60/60
f 62/62/62 60/60/60 61/61/61
f 61/61/61 63/63/63 62/62/62
f 64/64/64 62/62/62 63/63/63
f 63/63/63 65/65/65 64/64/64
f 66/66/66 64/64/64 65/65/65
f 65/65/65 67/67/67 66/66/66
f 68/68/68 66/66/66 67/67/67
f 67/67/67 69/69/69 68/68/68
f 70/70/70 68/68/68 69/69/69
f 69/69/69 71/71/71 70/70/70
f 72/72/72 70/70/70 71/71/71
f 71/71/71 73/73/73 72/72/72
f 74/74/74 72/72/72 73/73/73
f 77/77/77 76/76/76 75/75/75
f 78/78/78 75/75/75 76/76/76
f 76/76/76 79/79/79 78/78/78
f 80/80/80 78/78/78 79/79/79
f 79/79/79 81/81/81 80/80/80
f 82/82/82 80/80/80 81/81/81
f 81/81/81 83/83/83 82/82/82
f 84/84/84 82/82/82 83/83/83
f 83/83/83 85/85/85 84/84/84
f 86/86/86 84/84/84 85/85/85
f 85/85/85 87/87/87 86/86/86
f 88/88/88 86/86/86 87/87/87
f 87/87/87 89/89/89 88/88/88
f 90/90/90 88/88/88 89/89/89
f 89/89/89 91/91/91 90/90/90
f 92/92/92 90/90/90 91/91/91
f 91/91/91 93/93/93 92/92/92
f 94/94/94 92/92/92 93/93/93
f 93/93/93 95/95/95 94/94/94
f 96/96/96 94/94/94 95/95/95
f 95/95/95 97/97/97 96/96/96
f 98/98/98 96/96/96 97/97/97
f 97/97/97 99/99/99 98/98/98
f 100/100/100 98/98/98 99/99/99
f 99/99/99 101/101/101 100/100/100
f 102/102/102 100/100/100 101/101/101
f 101/101/101 103/103/103 102/102/102
f 104/104/104 102/102/102 103/103/103
f 103/103/103 105/105/105 104/104/104
f 106/106/106 104/104/104 105/105/105
f 105/105/105 107/107/107 106/106/106
f 108/108/108 106/106/106 107/107/107
f 107/107/107 109/109/109 108/108/108
f 110/110/110 108/108/108 109/109/109
f 109/109/109 111/111/111 110/110/110
f 112/112/112 110/110/110 111/111/111
f 111/111/111 113/113/113 112/112/112
f 114/114/114 112/112/112 113/113/113
f 113/113/113 115/115/115 114/114/114
f 116/116/116 114/114/114 115/115/115
f 115/115/115 117/117/117 116/116/116
f 118/118/118 116/116/116 117/117/117
f 117/117/117 119/119/119 118/118/118
f 120/120/120 118/118/118 119/119/119
f 119/119/119 121/121/121 120/120/120
f 122/122/122 120/120/120 121/121/121
f 121/121/121 123/123/123 122/122/122
f 124/124/124 122/122/122 123/123/123
f 123/123/123 125/125/125 124/124/124
f 126/126/126 124/124/124 125/125/125
f 125/125/125 127/127/127 126/126/126
f 128/128/128 126/126/126 127/127/127
f 127/127/127 129/129/129 128/128/128
f 130/130/130 128/128/128 129/129/129
f 129/129/129 131/131/131 130/130/130
f 132/132/132 130/130/130 131/131/131
f 131/131/131 133/133/133 132/132/132
f 134/134/134 132/132/132 133/133/133
f 133/133/133 135/135/135 134/134/134
f 136/136/136 134/134/134 135/135/135
f 135/135/135 137/137/137 136/136/136
f 138/138/138 136/136/136 137/137/137
f 137/137/137 139/139/139 138/138/138
f 140/140/140 138/138/138 139/139/139
f 139/139/139 141/141/141 140/140/140
f 142/142/142 140/140/140 141/141/141
f 141/141/141 143/143/143 142/142/142
f 144/144/144 142/142/142 143/143/143
f 143/143/143 145/145/145 144/144/144
f 146/146/146 144/144/144 145/145/145
f 145/145/145 147/147/147 146/146/146
f 148/148/148 146/146/146 147/147/147
