g GeoSphere001
v 50 -1.622488E-06 25
v 47.55283 15.45085 25
v 47.7676 7.4522 12.24381
v 47.7676 -7.452205 12.24381
v 47.55282 -15.45085 25
v 43.52314 21.69443 13.37728
v 40.45085 29.38927 25
v 43.52314 -21.69443 13.37728
v 40.45085 -29.38926 25
v 34.08202 34.68902 13.37728
v 29.38926 40.45085 25
v 34.08202 -34.68903 13.37728
v 29.38926 -40.45085 25
v 21.84847 43.12683 12.24381
v 15.45085 47.55283 25
v 21.84847 -43.12683 12.24381
v 15.45085 -47.55282 25
v 7.673535 47.73255 12.24381
v -1.59936E-06 50 25
v 7.673546 -47.73254 12.24381
v 1.279488E-05 -50 25
v -7.183238 48.09691 13.37728
v -15.45085 47.55283 25
v -7.18322 -48.09692 13.37728
v -15.45084 -47.55283 25
v -22.4593 43.13342 13.37728
v -29.38927 40.45085 25
v -22.45929 -43.13343 13.37728
v -29.38925 -40.45086 25
v -34.26451 34.10606 12.24381
v -40.45085 29.38926 25
v -34.2645 -34.10606 12.24381
v -40.45084 -29.38927 25
v -43.0251 22.04814 12.24381
v -47.55283 15.45084 25
v -43.0251 -22.04814 12.24381
v -47.55282 -15.45085 25
v -47.96263 8.031097 13.37728
v -50 -4.056219E-06 25
v -47.96262 -8.031106 13.37728
v -25.06876 35.10232 -0.2860451
v -34.40955 25 -1.286554
v -41.13096 12.99459 -0.2860451
v -44.72136 -3.909665E-06 2.63932
v -41.13097 -12.9946 -0.2860489
v -34.40954 -25.00001 -1.286556
v -36.90876 -3.226667E-06 -8.730446
v -30.89324 13.23382 -12.01991
v -30.89324 -13.23383 -12.01991
v -25.06875 -35.10233 -0.2860489
v -22.13265 25.29174 -12.01991
v -26.28655 -2.298043E-06 -17.53254
v -22.13264 -25.29174 -12.01991
v -13.81964 -42.53254 2.63932
v -11.40542 -35.10232 -8.730446
v -0.3515608 -43.13342 -0.2860432
v -18.09017 -13.14328 -19.72136
v -18.09017 13.14328 -19.72136
v -8.122983 -25 -17.53254
v 13.14328 -40.45085 -1.286551
v 3.039588 -33.4707 -12.0199
v -13.66333 -1.194486E-06 -23.09692
v 25.63762 -34.68903 -0.2860432
v -4.222195 -12.9946 -23.09692
v 6.909833 -21.26627 -19.72136
v 17.21451 -28.86498 -12.0199
v 36.18034 -26.28656 2.63932
v 29.85981 -21.69443 -8.730446
v 40.91367 -13.66333 -0.2860451
v 21.26627 -15.45085 -17.53254
v 11.05386 -8.031102 -23.09692
v 42.53254 -2.13248E-06 -1.286554
v 32.7718 -7.452203 -12.01991
v 40.91368 13.66332 -0.2860451
v 22.36068 -1.622488E-06 -19.72136
v 32.7718 7.452199 -12.01991
v 0 0 -25
v 36.18034 26.28655 2.63932
v 11.05386 8.031101 -23.09692
v -4.2222 12.9946 -23.09692
v 21.26627 15.45085 -17.53254
v 29.85982 21.69443 -8.730446
v 25.63762 34.68902 -0.2860451
v 6.90983 21.26627 -19.72136
v -8.122993 25 -17.53254
v 17.21451 28.86498 -12.01991
v 13.14328 40.45085 -1.286554
v 3.039578 33.47069 -12.01991
v -11.40544 35.10232 -8.730446
v -0.3515735 43.13342 -0.2860451
v -13.81966 42.53254 2.63932
vt 1 0.5
vt 0.9755282 0.6545085
vt 0.977676 0.574522
vt 0.977676 0.425478
vt 0.9755282 0.3454915
vt 0.9352313 0.7169442
vt 0.9045085 0.7938926
vt 0.9352313 0.2830557
vt 0.9045085 0.2061074
vt 0.8408201 0.8468902
vt 0.7938926 0.9045085
vt 0.8408201 0.1531098
vt 0.7938926 0.0954915
vt 0.7184846 0.9312683
vt 0.6545085 0.9755282
vt 0.7184847 0.06873167
vt 0.6545085 0.02447182
vt 0.5767354 0.9773254
vt 0.5 1
vt 0.5767354 0.02267456
vt 0.5000001 0
vt 0.4281676 0.9809691
vt 0.3454915 0.9755282
vt 0.4281678 0.01903084
vt 0.3454916 0.02447176
vt 0.275407 0.9313343
vt 0.2061074 0.9045085
vt 0.2754072 0.06866571
vt 0.2061075 0.09549141
vt 0.1573549 0.8410605
vt 0.09549153 0.7938926
vt 0.157355 0.1589394
vt 0.09549162 0.2061073
vt 0.069749 0.7204813
vt 0.02447179 0.6545085
vt 0.06974909 0.2795186
vt 0.02447182 0.3454915
vt 0.02037379 0.5803109
vt 2.980232E-08 0.5
vt 0.02037382 0.4196889
vt 0.2493124 0.8510232
vt 0.1559045 0.75
vt 0.08869043 0.6299459
vt 0.05278647 0.5
vt 0.0886904 0.370054
vt 0.1559046 0.2499999
vt 0.1309125 0.5
vt 0.1910676 0.6323382
vt 0.1910677 0.3676617
vt 0.2493125 0.1489767
vt 0.2786735 0.7529174
vt 0.2371345 0.5
vt 0.2786736 0.2470826
vt 0.3618036 0.07467458
vt 0.3859458 0.1489768
vt 0.4964844 0.06866577
vt 0.3190984 0.3685672
vt 0.3190983 0.6314328
vt 0.4187702 0.25
vt 0.6314328 0.09549153
vt 0.5303959 0.165293
vt 0.3633668 0.5
vt 0.7563761 0.1531098
vt 0.4577781 0.370054
vt 0.5690984 0.2873373
vt 0.6721451 0.2113502
vt 0.8618033 0.2371344
vt 0.7985981 0.2830557
vt 0.9091367 0.3633667
vt 0.7126626 0.3454915
vt 0.6105386 0.419689
vt 0.9253253 0.5
vt 0.827718 0.425478
vt 0.9091368 0.6366332
vt 0.7236068 0.5
vt 0.827718 0.574522
vt 0.5 0.5
vt 0.8618034 0.7628655
vt 0.6105386 0.580311
vt 0.457778 0.6299459
vt 0.7126627 0.6545085
vt 0.7985981 0.7169442
vt 0.7563761 0.8468902
vt 0.5690983 0.7126627
vt 0.4187701 0.75
vt 0.6721451 0.7886498
vt 0.6314328 0.9045085
vt 0.5303958 0.8347069
vt 0.3859456 0.8510232
vt 0.4964843 0.9313343
vt 0.3618034 0.9253254
vn 0.9936044 0 -0.112918
vn 0.9469358 0.3029847 -0.1072982
vn 0.9544232 0.1474308 -0.2595006
vn 0.9544231 -0.1474309 -0.2595007
vn 0.9469358 -0.3029849 -0.1072978
vn 0.8702775 0.4327185 -0.2353122
vn 0.804342 0.5843886 -0.1073499
vn 0.8702775 -0.4327185 -0.2353121
vn 0.804342 -0.5843885 -0.1073493
vn 0.6804703 0.6939656 -0.2353122
vn 0.5807747 0.8069621 -0.1072981
vn 0.6804703 -0.6939656 -0.2353121
vn 0.5807747 -0.8069621 -0.1072978
vn 0.4351479 0.8621519 -0.2595005
vn 0.3070405 0.9449739 -0.1129179
vn 0.4351478 -0.8621519 -0.2595004
vn 0.3070406 -0.9449739 -0.1129176
vn 0.154718 0.953269 -0.2595004
vn 0.004463719 0.9942168 -0.1072981
vn 0.1547183 -0.953269 -0.2595004
vn 0.004464068 -0.9942168 -0.107298
vn -0.1426093 0.9614004 -0.2353121
vn -0.3072312 0.9455607 -0.1073496
vn -0.142609 -0.9614005 -0.2353121
vn -0.3072309 -0.9455608 -0.1073493
vn -0.4497235 0.861613 -0.2353121
vn -0.5879973 0.8017147 -0.1072975
vn -0.4497233 -0.8616131 -0.235312
vn -0.5879971 -0.8017148 -0.1072978
vn -0.685487 0.6802698 -0.2595004
vn -0.8038429 0.5840259 -0.1129173
vn -0.6854869 -0.68027 -0.2595005
vn -0.8038428 -0.5840261 -0.1129176
vn -0.8588023 0.4417217 -0.2595004
vn -0.9441772 0.3114752 -0.1072977
vn -0.8588022 -0.441722 -0.2595003
vn -0.944177 -0.3114753 -0.1072979
vn -0.9584148 0.1614594 -0.2353122
vn -0.9942213 0 -0.1073498
vn -0.9584148 -0.1614597 -0.2353121
vn -0.5027195 0.7009 -0.5059767
vn -0.6881909 0.4999998 -0.5257313
vn -0.8219444 0.2615246 -0.5059767
vn -0.8944272 0 -0.4472135
vn -0.8219443 -0.2615247 -0.5059766
vn -0.6881908 -0.5000002 -0.5257311
vn -0.7394301 0 -0.6732333
vn -0.6197476 0.2680384 -0.7376099
vn -0.6197473 -0.2680386 -0.7376101
vn -0.5027193 -0.7009001 -0.5059767
vn -0.4464324 0.5065864 -0.7376099
vn -0.5250349 0 -0.8510806
vn -0.446432 -0.5065864 -0.7376101
vn -0.2763928 -0.8506509 -0.4472136
vn -0.2284962 -0.7032399 -0.6732333
vn -0.00526972 -0.8625312 -0.5059766
vn -0.3637917 -0.2643103 -0.8931941
vn -0.3637919 0.2643103 -0.8931941
vn -0.1622445 -0.4993379 -0.8510806
vn 0.2628656 -0.8090171 -0.525731
vn 0.06340745 -0.6722434 -0.7376099
vn -0.2713025 0 -0.9624941
vn 0.5112465 -0.6947048 -0.5059766
vn -0.08383701 -0.2580241 -0.9624941
vn 0.1389562 -0.4276631 -0.893194
vn 0.3438371 -0.5811262 -0.73761
vn 0.7236069 -0.525731 -0.4472136
vn 0.5982116 -0.4346261 -0.6732332
vn 0.8186873 -0.2715488 -0.5059766
vn 0.4247621 -0.3086079 -0.8510807
vn 0.2194883 -0.1594677 -0.9624941
vn 0.8506508 0 -0.5257311
vn 0.6589354 -0.1474308 -0.7376099
vn 0.8186874 0.2715486 -0.5059766
vn 0.4496714 0 -0.8931941
vn 0.6589354 0.1474307 -0.7376099
vn 0 0 -1
vn 0.7236068 0.5257311 -0.4472135
vn 0.2194883 0.1594677 -0.9624941
vn -0.083837 0.258024 -0.9624941
vn 0.4247622 0.3086078 -0.8510806
vn 0.5982116 0.4346261 -0.6732333
vn 0.5112466 0.6947047 -0.5059766
vn 0.1389561 0.427663 -0.8931941
vn -0.1622447 0.499338 -0.8510806
vn 0.3438372 0.5811261 -0.73761
vn 0.2628656 0.809017 -0.5257311
vn 0.06340723 0.6722434 -0.73761
vn -0.2284965 0.7032398 -0.6732333
vn -0.005270047 0.8625312 -0.5059766
vn -0.2763932 0.8506508 -0.4472136
g GeoSphere001_0
f 3/3/3 2/2/2 1/1/1
f 4/4/4 3/3/3 1/1/1
f 4/4/4 1/1/1 5/5/5
f 3/3/3 6/6/6 2/2/2
f 7/7/7 2/2/2 6/6/6
f 8/8/8 4/4/4 5/5/5
f 5/5/5 9/9/9 8/8/8
f 7/7/7 6/6/6 10/10/10
f 11/11/11 7/7/7 10/10/10
f 9/9/9 12/12/12 8/8/8
f 9/9/9 13/13/13 12/12/12
f 10/10/10 14/14/14 11/11/11
f 14/14/14 15/15/15 11/11/11
f 16/16/16 12/12/12 13/13/13
f 16/16/16 13/13/13 17/17/17
f 14/14/14 18/18/18 15/15/15
f 18/18/18 19/19/19 15/15/15
f 20/20/20 16/16/16 17/17/17
f 20/20/20 17/17/17 21/21/21
f 18/18/18 22/22/22 19/19/19
f 23/23/23 19/19/19 22/22/22
f 24/24/24 20/20/20 21/21/21
f 21/21/21 25/25/25 24/24/24
f 23/23/23 22/22/22 26/26/26
f 27/27/27 23/23/23 26/26/26
f 25/25/25 28/28/28 24/24/24
f 25/25/25 29/29/29 28/28/28
f 26/26/26 30/30/30 27/27/27
f 30/30/30 31/31/31 27/27/27
f 32/32/32 28/28/28 29/29/29
f 32/32/32 29/29/29 33/33/33
f 30/30/30 34/34/34 31/31/31
f 34/34/34 35/35/35 31/31/31
f 36/36/36 32/32/32 33/33/33
f 36/36/36 33/33/33 37/37/37
f 34/34/34 38/38/38 35/35/35
f 39/39/39 35/35/35 38/38/38
f 37/37/37 39/39/39 40/40/40
f 40/40/40 36/36/36 37/37/37
f 39/39/39 38/38/38 40/40/40
f 41/41/41 30/30/30 26/26/26
f 42/42/42 34/34/34 30/30/30
f 41/41/41 42/42/42 30/30/30
f 43/43/43 38/38/38 34/34/34
f 42/42/42 43/43/43 34/34/34
f 40/40/40 38/38/38 44/44/44
f 43/43/43 44/44/44 38/38/38
f 45/45/45 36/36/36 40/40/40
f 44/44/44 45/45/45 40/40/40
f 46/46/46 32/32/32 36/36/36
f 45/45/45 46/46/46 36/36/36
f 44/44/44 43/43/43 47/47/47
f 45/45/45 44/44/44 47/47/47
f 43/43/43 42/42/42 48/48/48
f 43/43/43 48/48/48 47/47/47
f 45/45/45 47/47/47 49/49/49
f 46/46/46 45/45/45 49/49/49
f 46/46/46 50/50/50 32/32/32
f 50/50/50 28/28/28 32/32/32
f 42/42/42 41/41/41 51/51/51
f 42/42/42 51/51/51 48/48/48
f 47/47/47 48/48/48 52/52/52
f 49/49/49 47/47/47 52/52/52
f 46/46/46 49/49/49 53/53/53
f 50/50/50 46/46/46 53/53/53
f 50/50/50 54/54/54 28/28/28
f 24/24/24 28/28/28 54/54/54
f 54/54/54 50/50/50 55/55/55
f 50/50/50 53/53/53 55/55/55
f 54/54/54 56/56/56 24/24/24
f 56/56/56 54/54/54 55/55/55
f 56/56/56 20/20/20 24/24/24
f 53/53/53 49/49/49 57/57/57
f 49/49/49 52/52/52 57/57/57
f 48/48/48 58/58/58 52/52/52
f 48/48/48 51/51/51 58/58/58
f 55/55/55 53/53/53 59/59/59
f 53/53/53 57/57/57 59/59/59
f 56/56/56 60/60/60 20/20/20
f 60/60/60 16/16/16 20/20/20
f 56/56/56 55/55/55 61/61/61
f 61/61/61 55/55/55 59/59/59
f 60/60/60 56/56/56 61/61/61
f 57/57/57 52/52/52 62/62/62
f 52/52/52 58/58/58 62/62/62
f 60/60/60 63/63/63 16/16/16
f 63/63/63 12/12/12 16/16/16
f 59/59/59 57/57/57 64/64/64
f 57/57/57 62/62/62 64/64/64
f 61/61/61 59/59/59 65/65/65
f 65/65/65 59/59/59 64/64/64
f 60/60/60 61/61/61 66/66/66
f 63/63/63 60/60/60 66/66/66
f 66/66/66 61/61/61 65/65/65
f 63/63/63 67/67/67 12/12/12
f 8/8/8 12/12/12 67/67/67
f 63/63/63 66/66/66 68/68/68
f 67/67/67 63/63/63 68/68/68
f 67/67/67 69/69/69 8/8/8
f 69/69/69 67/67/67 68/68/68
f 69/69/69 4/4/4 8/8/8
f 66/66/66 65/65/65 70/70/70
f 68/68/68 66/66/66 70/70/70
f 65/65/65 64/64/64 71/71/71
f 70/70/70 65/65/65 71/71/71
f 69/69/69 72/72/72 4/4/4
f 72/72/72 3/3/3 4/4/4
f 69/69/69 68/68/68 73/73/73
f 73/73/73 68/68/68 70/70/70
f 72/72/72 69/69/69 73/73/73
f 72/72/72 74/74/74 3/3/3
f 74/74/74 6/6/6 3/3/3
f 73/73/73 70/70/70 75/75/75
f 75/75/75 70/70/70 71/71/71
f 72/72/72 73/73/73 76/76/76
f 74/74/74 72/72/72 76/76/76
f 76/76/76 73/73/73 75/75/75
f 71/71/71 64/64/64 77/77/77
f 64/64/64 62/62/62 77/77/77
f 74/74/74 78/78/78 6/6/6
f 10/10/10 6/6/6 78/78/78
f 75/75/75 71/71/71 79/79/79
f 79/79/79 71/71/71 77/77/77
f 62/62/62 80/80/80 77/77/77
f 80/80/80 79/79/79 77/77/77
f 58/58/58 80/80/80 62/62/62
f 76/76/76 75/75/75 81/81/81
f 81/81/81 75/75/75 79/79/79
f 74/74/74 76/76/76 82/82/82
f 78/78/78 74/74/74 82/82/82
f 82/82/82 76/76/76 81/81/81
f 78/78/78 83/83/83 10/10/10
f 83/83/83 78/78/78 82/82/82
f 83/83/83 14/14/14 10/10/10
f 84/84/84 79/79/79 80/80/80
f 84/84/84 81/81/81 79/79/79
f 58/58/58 85/85/85 80/80/80
f 85/85/85 84/84/84 80/80/80
f 51/51/51 85/85/85 58/58/58
f 86/86/86 82/82/82 81/81/81
f 83/83/83 82/82/82 86/86/86
f 86/86/86 81/81/81 84/84/84
f 83/83/83 87/87/87 14/14/14
f 87/87/87 83/83/83 86/86/86
f 87/87/87 18/18/18 14/14/14
f 88/88/88 86/86/86 84/84/84
f 88/88/88 84/84/84 85/85/85
f 87/87/87 86/86/86 88/88/88
f 51/51/51 89/89/89 85/85/85
f 89/89/89 88/88/88 85/85/85
f 41/41/41 89/89/89 51/51/51
f 87/87/87 90/90/90 18/18/18
f 90/90/90 87/87/87 88/88/88
f 90/90/90 88/88/88 89/89/89
f 90/90/90 22/22/22 18/18/18
f 41/41/41 91/91/91 89/89/89
f 91/91/91 90/90/90 89/89/89
f 90/90/90 91/91/91 22/22/22
f 91/91/91 41/41/41 26/26/26
f 26/26/26 22/22/22 91/91/91
