g helix_04
v -0.1230151 -0.001155828 0.009163593
v 0.1303743 -0.01708566 0.0166501
v 0.1100117 -0.1003527 0.06586953
v -0.1303576 -0.02864456 0.02591239
v 0.06970133 -0.1632257 0.1228497
v -0.1473777 -0.05370501 0.04937929
v 0.01837336 -0.2064473 0.182041
v -0.1719638 -0.07449975 0.07774519
v -0.03136714 -0.2298586 0.2348247
v -0.2088213 -0.09164909 0.116824
v -0.08791186 -0.2401059 0.2937841
v -0.2434271 -0.09700028 0.1528877
v -0.1372209 -0.237827 0.3466934
v -0.2844813 -0.09494749 0.1969742
v -0.1847828 -0.2240261 0.4018842
v -0.3218885 -0.08375831 0.2405058
v -0.22409 -0.2026756 0.453182
v -0.3591967 -0.06351592 0.2891797
v -0.2573426 -0.1750785 0.503851
v -0.3921832 -0.03612775 0.339453
v -0.2825553 -0.143906 0.5517606
v -0.4203441 -0.0009684184 0.3933337
v -0.3006755 -0.1087524 0.5998638
v -0.4406083 0.03889093 0.4477578
v -0.3117878 -0.07205828 0.6471804
v -0.4535341 0.08217723 0.5035301
v -0.3160574 -0.03504954 0.6937254
v -0.4587198 0.1275231 0.5605578
v -0.31383 0.001169526 0.739537
v -0.4560073 0.1735328 0.6187374
v -0.3055947 0.03563546 0.7846732
v -0.4454826 0.218826 0.6779557
v -0.2919454 0.06753693 0.8292108
v -0.4274668 0.2620794 0.738089
v -0.2735443 0.09621606 0.8732425
v -0.4025006 0.3020681 0.7990046
v -0.251089 0.1211626 0.9168752
v -0.3713201 0.3377018 0.8605612
v -0.225284 0.1420013 0.9602268
v -0.3348256 0.3680581 0.922611
v -0.1968188 0.1584753 1.003425
v -0.2940454 0.392406 0.9850011
v -0.1663525 0.1704268 1.046602
v -0.2500938 0.4102235 1.047575
v -0.1345052 0.1777768 1.089898
v -0.2041285 0.4212053 1.110175
v -0.1018551 0.1805062 1.133451
v -0.1573064 0.425261 1.172646
v -0.06894131 0.1786396 1.177399
v -0.1107421 0.4225042 1.234833
v -0.03627001 0.1722326 1.221876
v -0.06546993 0.4132328 1.29659
v -0.004323815 0.1613637 1.267011
v -0.02241295 0.397902 1.357777
v 0.02642864 0.146131 1.312924
v 0.01764154 0.377091 1.418262
v 0.05875786 0.1230804 1.36616
v 0.04997075 0.3540403 1.471499
v 0.08378313 0.09882781 1.412994
v 0.08231543 0.3236417 1.5312
v 0.1059935 0.07117591 1.460807
v 0.1098482 0.2898482 1.589972
v 0.1250343 0.04040037 1.509681
v 0.1323584 0.2534874 1.647726
v 0.1405567 0.006800711 1.559684
v 0.1497881 0.2153466 1.704389
v 0.1522183 -0.02929142 1.610865
v 0.1622096 0.1761423 1.759906
v 0.1585313 -0.0683151 1.664231
v 0.1685226 0.1371186 1.813272
v 0.1597763 -0.1070164 1.716636
v 0.1698841 0.09698738 1.867621
v 0.1565167 -0.1464395 1.770262
v 0.1666516 0.05791639 1.920768
v 0.1486163 -0.1861279 1.825103
v 0.1592477 0.02030279 1.972715
v 0.1364244 -0.2236844 1.878502
v 0.1470557 -0.01725374 2.026114
v 0.1180251 -0.2607597 1.934538
v 0.1301415 -0.05074609 2.076888
v 0.09527014 -0.2962293 1.991717
v 0.1102973 -0.08147818 2.126521
v 0.06827968 -0.329636 2.04998
v 0.08796477 -0.1094542 2.175074
v 0.04029582 -0.3574771 2.103388
v 0.0599809 -0.1372953 2.228481
v 0.005199937 -0.3836157 2.162653
v 0.0314681 -0.1578456 2.276028
v -0.03296353 -0.4062086 2.222827
v 0.001833403 -0.1752577 2.322661
v -0.07385758 -0.424947 2.2838
v -0.02872532 -0.1897727 2.368489
vt 1.001328 0.0009585
vt -0.001724042 0.0009585
vt -0.001724042 0.07103019
vt 1.001328 0.07103019
vt -0.001724042 0.1234426
vt 1.001328 0.1234426
vt -0.001724042 0.1625217
vt 1.001328 0.1625217
vt -0.001724042 0.1980701
vt 1.001328 0.1980701
vt -0.001724042 0.2291746
vt 1.001328 0.2291746
vt -0.001724042 0.2572743
vt 1.001328 0.2572743
vt -0.001724042 0.2801529
vt 1.001328 0.2801529
vt -0.001724042 0.3045677
vt 1.001328 0.3045677
vt -0.001724042 0.3231027
vt 1.001328 0.3231027
vt -0.001724042 0.3415909
vt 1.001328 0.3415909
vt -0.001724042 0.3590787
vt 1.001328 0.3590787
vt -0.001724042 0.3742769
vt 1.001328 0.3742769
vt -0.001724042 0.389837
vt 1.001328 0.389837
vt -0.001724042 0.4064044
vt 1.001328 0.4064044
vt -0.001724042 0.421704
vt 1.001328 0.421704
vt -0.001724042 0.4363397
vt 1.001328 0.4363397
vt -0.001724042 0.451465
vt 1.001328 0.451465
vt -0.001724042 0.4634541
vt 1.001328 0.4634541
vt -0.001724042 0.4760456
vt 1.001328 0.4760456
vt -0.001724042 0.4873461
vt 1.001328 0.4873461
vt -0.001724042 0.4986648
vt 1.001328 0.4986648
vt -0.001724042 0.508855
vt 1.001328 0.508855
vt -0.001724042 0.5170275
vt 1.001328 0.5170275
vt -0.001724042 0.5250757
vt 1.001328 0.5250757
vt -0.001724042 0.5348047
vt 1.001328 0.5348047
vt -0.001724042 0.5454186
vt 1.001328 0.5454186
vt -0.001724042 0.5558855
vt 1.001328 0.5558855
vt -0.001724042 0.5665616
vt 1.001328 0.5665616
vt -0.001724042 0.5775433
vt 1.001328 0.5775433
vt -0.001724042 0.5896204
vt 1.001328 0.5896204
vt -0.001724042 0.605994
vt 1.001328 0.605994
vt -0.001724042 0.6221406
vt 1.001328 0.6221406
vt -0.001724042 0.6381138
vt 1.001328 0.6381138
vt -0.001724042 0.6539414
vt 1.001328 0.6539414
vt -0.001724042 0.6697056
vt 1.001328 0.6697056
vt -0.001724042 0.6852806
vt 1.001328 0.6852806
vt -0.001724042 0.7062101
vt 1.001328 0.7062101
vt -0.001724042 0.7285137
vt 1.001328 0.7285137
vt -0.001724042 0.7523403
vt 1.001328 0.7523403
vt -0.001724042 0.7816182
vt 1.001328 0.7816182
vt -0.001724042 0.8123339
vt 1.001328 0.8123339
vt -0.001724042 0.84658
vt 1.001328 0.84658
vt -0.001724042 0.8836813
vt 1.001328 0.8836813
vt -0.001724042 0.9335124
vt 1.001328 0.9335124
vt -0.001724042 1.001411
vt 1.001328 1.001411
vn 0.007930129 0.5102444 0.8599929
vn 0.007930129 0.5102444 0.8599929
vn 0.0386063 0.5818039 0.8124123
vn 0.03893055 0.5825383 0.8118704
vn 0.1077574 0.6933746 0.7124746
vn 0.1077865 0.693407 0.7124386
vn 0.1914375 0.7633616 0.6169527
vn 0.1900948 0.7625498 0.6183703
vn 0.286266 0.8070809 0.5164033
vn 0.2879933 0.80765 0.5145496
vn 0.3851874 0.8256996 0.4121296
vn 0.3848352 0.8256845 0.4124886
vn 0.4815853 0.820041 0.309206
vn 0.4822595 0.8199302 0.3084482
vn 0.5745862 0.7934045 0.2008985
vn 0.5741293 0.7935959 0.2014477
vn 0.6513515 0.7519558 0.1015066
vn 0.6512142 0.7520489 0.1016986
vn 0.7155192 0.6985824 0.003865033
vn 0.7153283 0.698776 0.004183241
vn 0.7669352 0.6347589 -0.09429374
vn 0.7671356 0.6344503 -0.09474029
vn 0.8013489 0.5687928 -0.1852419
vn 0.8014317 0.5685878 -0.1855132
vn 0.8201731 0.5069315 -0.2652101
vn 0.820185 0.5068745 -0.2652825
vn 0.8270855 0.44898 -0.3381517
vn 0.8270817 0.4491054 -0.3379943
vn 0.8242849 0.3975214 -0.4031515
vn 0.8243251 0.3978015 -0.402793
vn 0.8144388 0.3543209 -0.4595063
vn 0.8145562 0.3546851 -0.4590171
vn 0.8004151 0.3202653 -0.5067207
vn 0.8006042 0.3206299 -0.506191
vn 0.7850259 0.2953887 -0.5444995
vn 0.7852482 0.2956851 -0.544018
vn 0.7708048 0.2789699 -0.572744
vn 0.771006 0.279163 -0.5723789
vn 0.7598345 0.2696877 -0.5915404
vn 0.7599682 0.2697801 -0.5913266
vn 0.7536352 0.2658111 -0.6011476
vn 0.7536818 0.265833 -0.6010795
vn 0.7531188 0.2653999 -0.6019758
vn 0.7530949 0.265392 -0.6020094
vn 0.7586033 0.2664965 -0.5945591
vn 0.7585587 0.2664894 -0.5946193
vn 0.7698777 0.2672849 -0.5795231
vn 0.7698817 0.267285 -0.579518
vn 0.7863021 0.266208 -0.5575503
vn 0.7864233 0.2661926 -0.5573868
vn 0.806923 0.262036 -0.5293511
vn 0.8072098 0.2619587 -0.5289516
vn 0.8305928 0.2538891 -0.495637
vn 0.8310594 0.2536943 -0.4949539
vn 0.8579953 0.2393767 -0.4544698
vn 0.8586347 0.2389703 -0.4534751
vn 0.888015 0.2179543 -0.404877
vn 0.8874917 0.218372 -0.4057982
vn 0.9150025 0.1926076 -0.3545037
vn 0.9147443 0.1928903 -0.3550156
vn 0.9387665 0.1630018 -0.3035588
vn 0.9387178 0.1630707 -0.3036721
vn 0.9593102 0.1296954 -0.2508043
vn 0.9593808 0.1295637 -0.2506028
vn 0.9759774 0.09344055 -0.1968168
vn 0.9760792 0.0931784 -0.1964366
vn 0.9896097 0.04952846 -0.1349795
vn 0.989686 0.04920774 -0.1345378
vn 0.9975706 0.001919273 -0.06963591
vn 0.9975601 0.002027502 -0.06978382
vn 0.9991028 -0.04066958 -0.01181762
vn 0.9991018 -0.04071007 -0.01176305
vn 0.995814 -0.08086715 0.04260222
vn 0.9958097 -0.08089813 0.04264436
vn 0.9878885 -0.1205945 0.09763766
vn 0.9879237 -0.1204603 0.09744836
vn 0.9734281 -0.1640544 0.1597622
vn 0.9732777 -0.1644241 0.1602971
vn 0.9546109 -0.203004 0.2179617
vn 0.9544892 -0.2032174 0.218296
vn 0.9361503 -0.2318079 0.2643627
vn 0.9361474 -0.2318119 0.2643695
vn 0.9150879 -0.2577742 0.3101076
vn 0.9153276 -0.2575122 0.3096171
vn 0.8884911 -0.2837806 0.3606274
vn 0.8879392 -0.2842663 0.3616027
vn 0.8615658 -0.3046142 0.4060968
vn 0.8613259 -0.304769 0.4064895
vn 0.8405431 -0.3170006 0.4393155
vn 0.8406312 -0.3169535 0.4391808
vn 0.8300884 -0.3224411 0.4549561
vn 0.8300883 -0.322441 0.4549561
g helix_04_0
f 3/3/3 2/2/2 1/1/1
f 4/4/4 3/3/3 1/1/1
f 5/5/5 3/3/3 4/4/4
f 6/6/6 5/5/5 4/4/4
f 7/7/7 5/5/5 6/6/6
f 8/8/8 7/7/7 6/6/6
f 9/9/9 7/7/7 8/8/8
f 10/10/10 9/9/9 8/8/8
f 11/11/11 9/9/9 10/10/10
f 12/12/12 11/11/11 10/10/10
f 13/13/13 11/11/11 12/12/12
f 14/14/14 13/13/13 12/12/12
f 15/15/15 13/13/13 14/14/14
f 16/16/16 15/15/15 14/14/14
f 17/17/17 15/15/15 16/16/16
f 18/18/18 17/17/17 16/16/16
f 19/19/19 17/17/17 18/18/18
f 20/20/20 19/19/19 18/18/18
f 21/21/21 19/19/19 20/20/20
f 22/22/22 21/21/21 20/20/20
f 23/23/23 21/21/21 22/22/22
f 24/24/24 23/23/23 22/22/22
f 25/25/25 23/23/23 24/24/24
f 26/26/26 25/25/25 24/24/24
f 27/27/27 25/25/25 26/26/26
f 28/28/28 27/27/27 26/26/26
f 29/29/29 27/27/27 28/28/28
f 30/30/30 29/29/29 28/28/28
f 31/31/31 29/29/29 30/30/30
f 32/32/32 31/31/31 30/30/30
f 33/33/33 31/31/31 32/32/32
f 34/34/34 33/33/33 32/32/32
f 35/35/35 33/33/33 34/34/34
f 36/36/36 35/35/35 34/34/34
f 37/37/37 35/35/35 36/36/36
f 38/38/38 37/37/37 36/36/36
f 39/39/39 37/37/37 38/38/38
f 40/40/40 39/39/39 38/38/38
f 41/41/41 39/39/39 40/40/40
f 42/42/42 41/41/41 40/40/40
f 43/43/43 41/41/41 42/42/42
f 44/44/44 43/43/43 42/42/42
f 45/45/45 43/43/43 44/44/44
f 46/46/46 45/45/45 44/44/44
f 47/47/47 45/45/45 46/46/46
f 48/48/48 47/47/47 46/46/46
f 49/49/49 47/47/47 48/48/48
f 50/50/50 49/49/49 48/48/48
f 51/51/51 49/49/49 50/50/50
f 52/52/52 51/51/51 50/50/50
f 53/53/53 51/51/51 52/52/52
f 54/54/54 53/53/53 52/52/52
f 55/55/55 53/53/53 54/54/54
f 56/56/56 55/55/55 54/54/54
f 57/57/57 55/55/55 56/56/56
f 58/58/58 57/57/57 56/56/56
f 59/59/59 57/57/57 58/58/58
f 60/60/60 59/59/59 58/58/58
f 61/61/61 59/59/59 60/60/60
f 62/62/62 61/61/61 60/60/60
f 63/63/63 61/61/61 62/62/62
f 64/64/64 63/63/63 62/62/62
f 65/65/65 63/63/63 64/64/64
f 66/66/66 65/65/65 64/64/64
f 67/67/67 65/65/65 66/66/66
f 68/68/68 67/67/67 66/66/66
f 69/69/69 67/67/67 68/68/68
f 70/70/70 69/69/69 68/68/68
f 71/71/71 69/69/69 70/70/70
f 72/72/72 71/71/71 70/70/70
f 73/73/73 71/71/71 72/72/72
f 74/74/74 73/73/73 72/72/72
f 75/75/75 73/73/73 74/74/74
f 76/76/76 75/75/75 74/74/74
f 77/77/77 75/75/75 76/76/76
f 78/78/78 77/77/77 76/76/76
f 79/79/79 77/77/77 78/78/78
f 80/80/80 79/79/79 78/78/78
f 81/81/81 79/79/79 80/80/80
f 82/82/82 81/81/81 80/80/80
f 83/83/83 81/81/81 82/82/82
f 84/84/84 83/83/83 82/82/82
f 85/85/85 83/83/83 84/84/84
f 86/86/86 85/85/85 84/84/84
f 87/87/87 85/85/85 86/86/86
f 88/88/88 87/87/87 86/86/86
f 89/89/89 87/87/87 88/88/88
f 90/90/90 89/89/89 88/88/88
f 91/91/91 89/89/89 90/90/90
f 92/92/92 91/91/91 90/90/90
