g helix_mesh
v 0.2386148 0.01420197 -0.05516858
v -0.02470339 -0.03251778 0.1039561
v -0.01361502 0.003841807 -0.0198825
v 0.2860942 -0.01975199 0.06047664
v -0.03749265 -0.07713807 0.2338699
v 0.3602214 -0.08389302 0.2465995
v -0.07110256 -0.1318636 0.3707822
v 0.3623479 -0.1770003 0.4723765
v -0.1253698 -0.1916412 0.5211006
v 0.3038857 -0.2564853 0.6705701
v -0.1890898 -0.230011 0.6514025
v 0.2116344 -0.3124874 0.8597867
v -0.2742693 -0.2427838 0.7835681
v 0.09887227 -0.3311089 1.036096
v -0.3701139 -0.2199147 0.9172196
v -0.05434576 -0.3204925 1.273463
v -0.4688893 -0.1515453 1.062811
v -0.1265587 -0.2494557 1.426263
v -0.6083075 -0.02639723 1.288092
v -0.1975548 -0.148748 1.560812
v -0.6514629 0.1380415 1.455335
v -0.2285552 -0.03322089 1.678679
v -0.6357998 0.3247244 1.622316
v -0.2189129 0.08233961 1.782063
v -0.553713 0.5101885 1.786478
v -0.1728153 0.1855022 1.873425
v -0.4076064 0.6692199 1.945374
v -0.09726787 0.2671529 1.955177
v -0.2096303 0.7793405 2.096861
v -0.0003875127 0.3213688 2.029457
v 0.02058916 0.8245192 2.239209
v 0.1096255 0.3447365 2.097982
v 0.2594804 0.797283 2.371121
v 0.2248391 0.3356264 2.161987
v 0.4566372 0.7149921 2.477074
v 0.3639322 0.2771429 2.236745
v 0.648854 0.5585755 2.587254
v 0.4563571 0.1938068 2.290685
v 0.7890776 0.3522059 2.684893
v 0.5269269 0.08609382 2.340618
v 0.8666357 0.1128665 2.769351
v 0.5705312 -0.03981139 2.385847
v 0.8768944 -0.1128353 2.831659
v 0.5779055 -0.2057497 2.431613
v 0.8173146 -0.3739864 2.882826
v 0.5456898 -0.3327948 2.455524
v 0.7470291 -0.5636469 2.909222
v 0.4754042 -0.5224553 2.48192
v 0.6767434 -0.7533077 2.935617
v 0.4051185 -0.7121161 2.508316
v 0.606458 -0.942968 2.962013
v 0.3348331 -0.9017763 2.534711
v 0.1124999 -0.1132646 -0.07342941
v 0.1306954 0.1245465 0.1264571
v 0.1124999 0.1313084 -0.00162164
v 0.1306954 -0.1768163 0.03797564
v 0.145149 0.09277949 0.2934273
v 0.1424024 -0.2457954 0.1633752
v 0.1373203 0.04493231 0.4911852
v 0.134426 -0.343962 0.3264419
v 0.09406684 -0.008784529 0.6754188
v 0.08444905 -0.439342 0.516252
v 0.02647766 -0.04976075 0.8140175
v -0.003933084 -0.4927376 0.6971717
v -0.05346312 -0.061703 0.938027
v -0.1219339 -0.5121897 0.8816371
v -0.1200946 -0.04664779 1.030675
v -0.2675525 -0.4780079 1.085363
v -0.2141555 0.01663529 1.20142
v -0.4344225 -0.4170839 1.347824
v -0.2721537 0.09816734 1.310813
v -0.5337086 -0.2733126 1.538091
v -0.3002285 0.2035213 1.418202
v -0.5797894 -0.09870069 1.715812
v -0.2899207 0.3233806 1.525374
v -0.564792 0.08368337 1.879005
v -0.2353876 0.4451889 1.633259
v -0.4911405 0.2505019 2.026644
v -0.1349356 0.5538025 1.741999
v -0.3699387 0.3825703 2.158552
v 0.007680709 0.6330554 1.85108
v -0.2176985 0.4676539 2.275238
v 0.182758 0.6680101 1.959498
v -0.05254332 0.5012457 2.377693
v 0.375244 0.6473624 2.065909
v 0.1090755 0.4855469 2.4672
v 0.5541943 0.5725366 2.16208
v 0.2663752 0.4195984 2.551739
v 0.7210125 0.4344718 2.257976
v 0.3841986 0.3179105 2.619962
v 0.8488414 0.2453415 2.347194
v 0.4671631 0.1929582 2.678316
v 0.922565 0.01834716 2.427342
v 0.514602 0.05470793 2.727855
v 0.9325948 -0.2026122 2.488337
v 0.5222051 -0.1159727 2.774935
v 0.8774896 -0.4445829 2.5358
v 0.4855148 -0.2621982 2.80255
v 0.807204 -0.6342434 2.562196
v 0.4152293 -0.4518587 2.828946
v 0.7369184 -0.8239043 2.588591
v 0.3449436 -0.6415195 2.855342
v 0.666633 -1.013564 2.614987
v 0.2746582 -0.8311799 2.881737
vt 0 0
vt 1 0.04
vt 1 0
vt 0 0.04
vt 1 0.08
vt 0 0.08
vt 1 0.12
vt 0 0.12
vt 1 0.16
vt 0 0.16
vt 1 0.2
vt 0 0.2
vt 1 0.24
vt 0 0.24
vt 1 0.28
vt 0 0.28
vt 1 0.32
vt 0 0.32
vt 1 0.36
vt 0 0.36
vt 1 0.3999999
vt 0 0.3999999
vt 1 0.4399999
vt 0 0.4399999
vt 1 0.4799999
vt 0 0.4799999
vt 1 0.5199999
vt 0 0.5199999
vt 1 0.5599999
vt 0 0.5599999
vt 1 0.6
vt 0 0.6
vt 1 0.64
vt 0 0.64
vt 1 0.68
vt 0 0.68
vt 1 0.72
vt 0 0.72
vt 1 0.7600001
vt 0 0.7600001
vt 1 0.8000001
vt 0 0.8000001
vt 1 0.8400001
vt 0 0.8400001
vt 1 0.8800001
vt 0 0.8800001
vt 1 0.9200001
vt 0 0.9200001
vt 1 0.9600002
vt 0 0.9600002
vt 1 1
vt 0 1
vt 0 0
vt 1 0.04
vt 1 0
vt 0 0.04
vt 1 0.08
vt 0 0.08
vt 1 0.12
vt 0 0.12
vt 1 0.16
vt 0 0.16
vt 1 0.2
vt 0 0.2
vt 1 0.24
vt 0 0.24
vt 1 0.28
vt 0 0.28
vt 1 0.32
vt 0 0.32
vt 1 0.36
vt 0 0.36
vt 1 0.3999999
vt 0 0.3999999
vt 1 0.4399999
vt 0 0.4399999
vt 1 0.4799999
vt 0 0.4799999
vt 1 0.5199999
vt 0 0.5199999
vt 1 0.5599999
vt 0 0.5599999
vt 1 0.6
vt 0 0.6
vt 1 0.64
vt 0 0.64
vt 1 0.68
vt 0 0.68
vt 1 0.72
vt 0 0.72
vt 1 0.7600001
vt 0 0.7600001
vt 1 0.8000001
vt 0 0.8000001
vt 1 0.8400001
vt 0 0.8400001
vt 1 0.8800001
vt 0 0.8800001
vt 1 0.9200001
vt 0 0.9200001
vt 1 0.9600002
vt 0 0.9600002
vt 1 1
vt 0 1
vn 0 0.9594986 0.2817132
vn 0.00350234 0.9521835 0.3055066
vn 0 0.9594986 0.2817132
vn 0.003361626 0.9524891 0.3045542
vn 0.007541276 0.9339964 0.357203
vn 0.007517304 0.934388 0.356178
vn 0.008922177 0.9248293 0.3802778
vn 0.008949565 0.9249011 0.3801024
vn 0.02449495 0.9405984 0.3386364
vn 0.02469629 0.9407746 0.3381318
vn 0.07670607 0.9684653 0.2370469
vn 0.07661633 0.9684342 0.2372029
vn 0.1728494 0.9810336 0.08772822
vn 0.1724162 0.9810533 0.0883569
vn 0.2985583 0.9503216 -0.08804539
vn 0.2998649 0.9497436 -0.08982196
vn 0.4221772 0.865617 -0.269209
vn 0.4226776 0.865124 -0.2700077
vn 0.5105315 0.7404456 -0.4371475
vn 0.5107921 0.7398953 -0.4377742
vn 0.5495462 0.6007424 -0.5806097
vn 0.5496231 0.5999575 -0.5813482
vn 0.5420088 0.4761612 -0.6924572
vn 0.5418062 0.4753394 -0.69318
vn 0.5063994 0.3877479 -0.770202
vn 0.5060874 0.3872668 -0.770649
vn 0.4682702 0.3414551 -0.8149425
vn 0.468167 0.3413738 -0.8150359
vn 0.4505079 0.3281661 -0.8302708
vn 0.4505237 0.3281705 -0.8302605
vn 0.4662455 0.3288741 -0.8212533
vn 0.465598 0.3288347 -0.8216363
vn 0.5165838 0.3201715 -0.794123
vn 0.5143864 0.3208195 -0.795287
vn 0.5915321 0.2864545 -0.75368
vn 0.5953297 0.2842697 -0.7515139
vn 0.6791258 0.2140466 -0.7021198
vn 0.6811687 0.2117447 -0.7008377
vn 0.7530701 0.1025076 -0.6499058
vn 0.7529014 0.1028528 -0.6500467
vn 0.7984738 -0.04421147 -0.600404
vn 0.7977677 -0.03991467 -0.6016423
vn 0.8055268 -0.204642 -0.5561008
vn 0.8050987 -0.2104186 -0.554563
vn 0.7838398 -0.3265129 -0.5281898
vn 0.784694 -0.3241286 -0.52839
vn 0.7716039 -0.3590251 -0.5250983
vn 0.7716039 -0.3590251 -0.5250984
vn 0.7716039 -0.359025 -0.5250986
vn 0.7716039 -0.359025 -0.5250986
vn 0.7716039 -0.3590251 -0.5250986
vn 0.7716039 -0.3590251 -0.5250986
vn 0.9895375 0.0406445 -0.1384328
vn 0.9936082 0.0315566 -0.1083836
vn 0.9895375 0.0406445 -0.1384328
vn 0.9937215 0.03126641 -0.107424
vn 0.9999692 -0.006982815 -0.0035771
vn 0.9999691 -0.006909676 -0.003762286
vn 0.9851947 -0.07292674 0.1551547
vn 0.9854139 -0.07242402 0.153994
vn 0.9383616 -0.1378396 0.3169822
vn 0.9387294 -0.1374946 0.3160417
vn 0.8714582 -0.1796344 0.4563903
vn 0.8723857 -0.1792779 0.4547555
vn 0.808715 -0.1927768 0.5557132
vn 0.8101146 -0.1927693 0.5536736
vn 0.7765458 -0.189292 0.6009536
vn 0.7762365 -0.1891107 0.60141
vn 0.7815281 -0.1969128 0.5919791
vn 0.7818996 -0.197292 0.5913618
vn 0.8100679 -0.2446501 0.5328567
vn 0.8103684 -0.24532 0.5320913
vn 0.8328513 -0.3435607 0.4339642
vn 0.8328958 -0.3441415 0.4334182
vn 0.8184301 -0.4855772 0.3072248
vn 0.8182936 -0.4860906 0.3067759
vn 0.7452347 -0.6461544 0.1646499
vn 0.7447978 -0.6468111 0.1640478
vn 0.608225 -0.793587 0.01679501
vn 0.6073023 -0.7943099 0.01598405
vn 0.4186388 -0.8990831 -0.1280276
vn 0.4174824 -0.8995102 -0.1288018
vn 0.1987582 -0.9438533 -0.2638864
vn 0.1982834 -0.9438775 -0.2641572
vn -0.02482344 -0.9209056 -0.3889942
vn -0.02349026 -0.92125 -0.3882609
vn -0.2306127 -0.8347342 -0.5000365
vn -0.2349177 -0.8321656 -0.5023087
vn -0.4008641 -0.6961117 -0.5955975
vn -0.4031866 -0.6935325 -0.5970371
vn -0.5156416 -0.5276574 -0.6750492
vn -0.5157188 -0.5275013 -0.6751121
vn -0.5766212 -0.3375396 -0.7440262
vn -0.5759643 -0.3414869 -0.7427327
vn -0.5849524 -0.1345915 -0.7998223
vn -0.5845447 -0.1293047 -0.8009917
vn -0.5541518 0.0303874 -0.8318608
vn -0.5550079 0.02804882 -0.831372
vn -0.5346949 0.08108579 -0.8411459
vn -0.534695 0.0810858 -0.8411459
vn -0.534695 0.08108591 -0.8411459
vn -0.534695 0.08108591 -0.8411459
vn -0.534695 0.08108576 -0.8411459
vn -0.534695 0.08108576 -0.8411459
g helix_mesh_0
f 3/3/3 2/2/2 1/1/1
f 2/2/2 4/4/4 1/1/1
f 2/2/2 5/5/5 4/4/4
f 5/5/5 6/6/6 4/4/4
f 5/5/5 7/7/7 6/6/6
f 7/7/7 8/8/8 6/6/6
f 7/7/7 9/9/9 8/8/8
f 9/9/9 10/10/10 8/8/8
f 9/9/9 11/11/11 10/10/10
f 11/11/11 12/12/12 10/10/10
f 11/11/11 13/13/13 12/12/12
f 13/13/13 14/14/14 12/12/12
f 13/13/13 15/15/15 14/14/14
f 15/15/15 16/16/16 14/14/14
f 15/15/15 17/17/17 16/16/16
f 17/17/17 18/18/18 16/16/16
f 17/17/17 19/19/19 18/18/18
f 19/19/19 20/20/20 18/18/18
f 19/19/19 21/21/21 20/20/20
f 21/21/21 22/22/22 20/20/20
f 21/21/21 23/23/23 22/22/22
f 23/23/23 24/24/24 22/22/22
f 23/23/23 25/25/25 24/24/24
f 25/25/25 26/26/26 24/24/24
f 25/25/25 27/27/27 26/26/26
f 27/27/27 28/28/28 26/26/26
f 27/27/27 29/29/29 28/28/28
f 29/29/29 30/30/30 28/28/28
f 29/29/29 31/31/31 30/30/30
f 31/31/31 32/32/32 30/30/30
f 31/31/31 33/33/33 32/32/32
f 33/33/33 34/34/34 32/32/32
f 33/33/33 35/35/35 34/34/34
f 35/35/35 36/36/36 34/34/34
f 35/35/35 37/37/37 36/36/36
f 37/37/37 38/38/38 36/36/36
f 37/37/37 39/39/39 38/38/38
f 39/39/39 40/40/40 38/38/38
f 39/39/39 41/41/41 40/40/40
f 41/41/41 42/42/42 40/40/40
f 41/41/41 43/43/43 42/42/42
f 43/43/43 44/44/44 42/42/42
f 43/43/43 45/45/45 44/44/44
f 45/45/45 46/46/46 44/44/44
f 45/45/45 47/47/47 46/46/46
f 47/47/47 48/48/48 46/46/46
f 47/47/47 49/49/49 48/48/48
f 49/49/49 50/50/50 48/48/48
f 49/49/49 51/51/51 50/50/50
f 51/51/51 52/52/52 50/50/50
f 55/55/55 54/54/54 53/53/53
f 54/54/54 56/56/56 53/53/53
f 54/54/54 57/57/57 56/56/56
f 57/57/57 58/58/58 56/56/56
f 57/57/57 59/59/59 58/58/58
f 59/59/59 60/60/60 58/58/58
f 59/59/59 61/61/61 60/60/60
f 61/61/61 62/62/62 60/60/60
f 61/61/61 63/63/63 62/62/62
f 63/63/63 64/64/64 62/62/62
f 63/63/63 65/65/65 64/64/64
f 65/65/65 66/66/66 64/64/64
f 65/65/65 67/67/67 66/66/66
f 67/67/67 68/68/68 66/66/66
f 67/67/67 69/69/69 68/68/68
f 69/69/69 70/70/70 68/68/68
f 69/69/69 71/71/71 70/70/70
f 71/71/71 72/72/72 70/70/70
f 71/71/71 73/73/73 72/72/72
f 73/73/73 74/74/74 72/72/72
f 73/73/73 75/75/75 74/74/74
f 75/75/75 76/76/76 74/74/74
f 75/75/75 77/77/77 76/76/76
f 77/77/77 78/78/78 76/76/76
f 77/77/77 79/79/79 78/78/78
f 79/79/79 80/80/80 78/78/78
f 79/79/79 81/81/81 80/80/80
f 81/81/81 82/82/82 80/80/80
f 81/81/81 83/83/83 82/82/82
f 83/83/83 84/84/84 82/82/82
f 83/83/83 85/85/85 84/84/84
f 85/85/85 86/86/86 84/84/84
f 85/85/85 87/87/87 86/86/86
f 87/87/87 88/88/88 86/86/86
f 87/87/87 89/89/89 88/88/88
f 89/89/89 90/90/90 88/88/88
f 89/89/89 91/91/91 90/90/90
f 91/91/91 92/92/92 90/90/90
f 91/91/91 93/93/93 92/92/92
f 93/93/93 94/94/94 92/92/92
f 93/93/93 95/95/95 94/94/94
f 95/95/95 96/96/96 94/94/94
f 95/95/95 97/97/97 96/96/96
f 97/97/97 98/98/98 96/96/96
f 97/97/97 99/99/99 98/98/98
f 99/99/99 100/100/100 98/98/98
f 99/99/99 101/101/101 100/100/100
f 101/101/101 102/102/102 100/100/100
f 101/101/101 103/103/103 102/102/102
f 103/103/103 104/104/104 102/102/102
