g Helix001
v 0.03525461 0.09210133 -0.552933
v -0.06564166 0.1683675 -0.7545415
v -0.007990961 0.1739658 -0.6710692
v -0.02239609 0.08650298 -0.6364052
v 0.06394602 0.01912366 -0.4336404
v 0.006295328 0.01352532 -0.5171127
v 0.07985745 -0.04326956 -0.314339
v 0.02220671 -0.04886791 -0.3978113
v 0.08494687 -0.09380928 -0.1962712
v 0.02729613 -0.09940761 -0.2797434
v 0.08128944 -0.1316751 -0.08072729
v 0.0236387 -0.1372734 -0.1641995
v 0.07100926 -0.1565012 0.03100164
v 0.01335856 -0.1620995 -0.05247059
v 0.05621336 -0.1683675 0.1376703
v -0.001437291 -0.1739658 0.0541981
v 0.03892715 -0.1677766 0.2381214
v -0.01872354 -0.173375 0.1546491
v 0.02103513 -0.1556183 0.3313246
v -0.03661562 -0.1612166 0.2478524
v 0.004228691 -0.1331223 0.4164102
v -0.053422 -0.1387207 0.332938
v -0.01003846 -0.101802 0.4926955
v -0.06768916 -0.1074004 0.4092233
v -0.02058544 -0.06338992 0.5597059
v -0.07823619 -0.06898824 0.4762337
v -0.02652873 -0.01976837 0.6171874
v -0.08417948 -0.02536672 0.5337152
v -0.02729618 0.02710271 0.6651116
v -0.08494687 0.02150436 0.5816393
v -0.0226296 0.07525868 0.7036735
v -0.0802803 0.06966034 0.6202012
v -0.01257692 0.1228012 0.7332817
v -0.07022767 0.1172029 0.6498095
v 0.002526517 0.1679646 0.7545415
v -0.05512418 0.1623662 0.6710691
vt 0.9341931 0.01100547
vt 0.9913443 0.9985586
vt 0.9923417 0.01100547
vt 0.9333131 0.9985586
vt 0.8760446 0.01100546
vt 0.8752819 0.9985586
vt 0.817896 0.01100546
vt 0.8172507 0.9985586
vt 0.7597474 0.01100546
vt 0.7592195 0.9985586
vt 0.7015989 0.01100546
vt 0.7011883 0.9985586
vt 0.6434503 0.01100546
vt 0.6431571 0.9985586
vt 0.5853018 0.01100545
vt 0.5851259 0.9985586
vt 0.5271532 0.01100545
vt 0.5270947 0.9985586
vt 0.4690046 0.01100545
vt 0.4690635 0.9985586
vt 0.4108561 0.01100544
vt 0.4110323 0.9985586
vt 0.3527075 0.01100544
vt 0.3530011 0.9985586
vt 0.2945589 0.01100544
vt 0.2949699 0.9985585
vt 0.2364104 0.01100544
vt 0.2369387 0.9985585
vt 0.1782618 0.01100544
vt 0.1789075 0.9985585
vt 0.1201133 0.01100543
vt 0.1208763 0.9985585
vt 0.06196469 0.01100543
vt 0.06284505 0.9985585
vt 0.003816128 0.01100543
vt 0.00481385 0.9985585
vn -0.7466966 0.4550059 0.4851947
vn -0.7855154 0.3354737 0.5200221
vn -0.7855154 0.3354737 0.5200221
vn -0.7760547 0.3693172 0.511218
vn -0.6789903 0.5957665 0.4289924
vn -0.7194349 0.5185283 0.462106
vn -0.5922173 0.7205405 0.3606938
vn -0.6424148 0.653782 0.3998404
vn -0.4885413 0.8257014 0.2820365
vn -0.5468875 0.7711303 0.3259938
vn -0.3706157 0.9080712 0.195066
vn -0.4352804 0.8670262 0.2424799
vn -0.2415289 0.9650083 0.1020922
vn -0.3105075 0.9384179 0.1515161
vn -0.1047373 0.9944839 0.005639298
vn -0.1759087 0.9828364 0.0555755
vn 0.03600322 0.995144 -0.09160859
vn -0.03518645 0.9984697 -0.04266401
vn 0.1767198 0.9663599 -0.1868651
vn 0.1076783 0.984225 -0.1403793
vn 0.3133038 0.9082646 -0.2773014
vn 0.2485018 0.9397777 -0.2346589
vn 0.4415964 0.8217759 -0.3601069
vn 0.3829856 0.8656055 -0.3225665
vn 0.5574722 0.7086095 -0.4325476
vn 0.5068029 0.7630128 -0.4012012
vn 0.6569271 0.5712766 -0.4920264
vn 0.6156831 0.6341432 -0.4677572
vn 0.7361528 0.4130848 -0.5361342
vn 0.7054976 0.4819823 -0.5195827
vn 0.7916154 0.2381323 -0.562706
vn 0.7723312 0.3103724 -0.5542323
vn 0.8201311 0.05130566 -0.5698708
vn 0.8125669 0.1240116 -0.5695227
vn 0.8230494 -0.007908712 -0.5679147
vn 0.8230498 -0.007910556 -0.5679141
g Helix001_0
f 3/3/3 2/2/2 1/1/1
f 4/4/4 1/1/1 2/2/2
f 1/1/1 4/4/4 5/5/5
f 6/6/6 5/5/5 4/4/4
f 5/5/5 6/6/6 7/7/7
f 8/8/8 7/7/7 6/6/6
f 7/7/7 8/8/8 9/9/9
f 10/10/10 9/9/9 8/8/8
f 9/9/9 10/10/10 11/11/11
f 12/12/12 11/11/11 10/10/10
f 11/11/11 12/12/12 13/13/13
f 14/14/14 13/13/13 12/12/12
f 13/13/13 14/14/14 15/15/15
f 16/16/16 15/15/15 14/14/14
f 15/15/15 16/16/16 17/17/17
f 18/18/18 17/17/17 16/16/16
f 17/17/17 18/18/18 19/19/19
f 20/20/20 19/19/19 18/18/18
f 19/19/19 20/20/20 21/21/21
f 22/22/22 21/21/21 20/20/20
f 21/21/21 22/22/22 23/23/23
f 24/24/24 23/23/23 22/22/22
f 23/23/23 24/24/24 25/25/25
f 26/26/26 25/25/25 24/24/24
f 25/25/25 26/26/26 27/27/27
f 28/28/28 27/27/27 26/26/26
f 27/27/27 28/28/28 29/29/29
f 30/30/30 29/29/29 28/28/28
f 29/29/29 30/30/30 31/31/31
f 32/32/32 31/31/31 30/30/30
f 31/31/31 32/32/32 33/33/33
f 34/34/34 33/33/33 32/32/32
f 33/33/33 34/34/34 35/35/35
f 36/36/36 35/35/35 34/34/34
