g Sphere001
v 5.307211E-08 1.333606 0.03458142
v 0.3311381 1.664744 0.2293229
v 3.95671E-08 1.697358 0.2293228
v 0.2601736 1.307981 0.03458142
v 0.6495507 1.568154 0.2293229
v -0.2601708 1.307981 0.03458142
v -0.3311346 1.664745 0.2293227
v 0.5103489 1.232091 0.03458151
v 0.9430016 1.411302 0.2293229
v -0.5103463 1.232092 0.03458132
v -0.6495476 1.568156 0.2293227
v 0.7409117 1.108853 0.03458151
v 1.200213 1.200213 0.229323
v -0.7409095 1.108854 0.03458132
v -0.9429988 1.411304 0.2293227
v 0.9430017 0.9430017 0.03458151
v 1.411302 0.9430016 0.229323
v -0.9429999 0.9430035 0.03458132
v -1.200211 1.200216 0.2293226
v 1.108853 0.7409117 0.03458161
v 1.568155 0.6495506 0.229323
v -1.108851 0.7409138 0.03458122
v -1.4113 0.9430044 0.2293226
v 1.232091 0.5103486 0.03458161
v 1.664744 0.3311377 0.2293231
v -1.23209 0.510351 0.03458122
v -1.568153 0.6495537 0.2293226
v 1.307981 0.2601733 0.03458161
v 1.697358 -5.530695E-07 0.2293231
v -1.307981 0.2601758 0.03458122
v -1.664743 0.331141 0.2293225
v 1.333606 -4.345439E-07 0.03458161
v 1.664744 -0.3311388 0.2293231
v -1.333606 2.140914E-06 0.03458122
v -1.697358 2.724866E-06 0.2293225
v 1.307981 -0.2601741 0.03458161
v 1.568154 -0.6495516 0.229323
v -1.307981 -0.2601716 0.03458122
v -1.664744 -0.3311356 0.2293225
v 1.232091 -0.5103495 0.03458161
v 1.411301 -0.9430025 0.229323
v -1.232092 -0.5103471 0.03458122
v -1.568155 -0.6495486 0.2293226
v 1.108852 -0.7409123 0.03458161
v 1.200213 -1.200214 0.229323
v -1.108854 -0.7409102 0.03458122
v -1.411303 -0.9429998 0.2293226
v 0.9430012 -0.9430023 0.03458151
v 0.9430007 -1.411302 0.2293229
v -0.9430029 -0.9430005 0.03458132
v -1.200215 -1.200212 0.2293226
v 0.7409109 -1.108853 0.03458151
v 0.6495495 -1.568155 0.2293229
v -0.740913 -1.108852 0.03458132
v -0.9430035 -1.411301 0.2293227
v 0.5103478 -1.232092 0.03458151
v 0.3311367 -1.664744 0.2293229
v -0.5103502 -1.232091 0.03458132
v -0.6495526 -1.568154 0.2293227
v 0.2601725 -1.307981 0.03458142
v -1.673594E-06 -1.697358 0.2293228
v -0.260175 -1.307981 0.03458142
v -0.3311399 -1.664744 0.2293227
v -1.29295E-06 -1.333606 0.03458142
v -0.5103498 -0.7637904 -0.1101247
v -0.3515353 -0.8486787 -0.1101247
v -0.1792116 -0.9009528 -0.1101246
v -8.703747E-07 -0.9186037 -0.1101246
v 0.1792099 -0.9009531 -0.1101246
v 0.3515337 -0.8486795 -0.1101245
v -0.6495516 -0.64955 -0.1101247
v 0.5103483 -0.7637914 -0.1101245
v -0.7637917 -0.5103478 -0.1101247
v 0.6495506 -0.6495513 -0.1101245
v -0.8486797 -0.3515332 -0.1101247
v 0.7637908 -0.5103493 -0.1101245
v -0.9009532 -0.1792093 -0.1101247
v 0.8486789 -0.3515348 -0.1101245
v -0.9186037 1.474687E-06 -0.1101247
v 0.9009529 -0.1792111 -0.1101245
v -0.9009526 0.1792122 -0.1101247
v 0.9186037 -2.993191E-07 -0.1101245
v -0.8486785 0.3515359 -0.1101247
v 0.9009531 0.1792105 -0.1101245
v -0.7637901 0.5103503 -0.1101247
v 0.8486792 0.3515342 -0.1101245
v -0.6495496 0.6495522 -0.1101247
v 0.7637911 0.5103489 -0.1101245
v -0.5103473 0.763792 -0.1101247
v 0.6495509 0.6495509 -0.1101245
v -0.3515326 0.8486799 -0.1101247
v 0.5103489 0.7637911 -0.1101245
v -0.1792087 0.9009534 -0.1101246
v 0.3515344 0.8486792 -0.1101245
v 5.678181E-08 0.9186037 -0.1101246
v 0.1792107 0.9009529 -0.1101246
v -0.2601728 0.3893778 -0.1992342
v -0.1792098 0.4326532 -0.1992342
v 3.462678E-08 0 -0.2293228
v -0.3311375 0.3311388 -0.1992342
v -0.09135979 0.459302 -0.1992342
v -0.3893768 0.2601743 -0.1992342
v 5.055355E-08 0.4683001 -0.1992342
v -0.4326525 0.1792115 -0.1992342
v 0.09136084 0.4593019 -0.1992342
v -0.4593017 0.09136159 -0.1992342
v 0.1792107 0.4326529 -0.1992342
v -0.4683 7.517888E-07 -0.1992342
v 0.2601736 0.3893773 -0.1992342
v -0.4593019 -0.09136011 -0.1992342
v 0.3311382 0.3311382 -0.1992341
v -0.4326531 -0.1792101 -0.1992342
v 0.3893774 0.2601736 -0.1992341
v -0.3893776 -0.2601731 -0.1992342
v 0.432653 0.1792106 -0.1992341
v -0.3311385 -0.3311377 -0.1992342
v 0.4593019 0.09136071 -0.1992341
v -0.260174 -0.389377 -0.1992342
v 0.4683001 -1.525916E-07 -0.1992341
v -0.1792112 -0.4326527 -0.1992342
v 0.4593019 -0.091361 -0.1992341
v -0.09136126 -0.4593018 -0.1992342
v 0.4326529 -0.1792109 -0.1992341
v -4.221066E-07 -0.4683001 -0.1992342
v 0.3893772 -0.2601738 -0.1992341
v 0.09136044 -0.4593019 -0.1992342
v 0.331138 -0.3311384 -0.1992341
v 0.1792104 -0.432653 -0.1992342
v 0.2601734 -0.3893775 -0.1992342
vt 0.3268303 0.836814
vt 0.1984703 0.8760576
vt 0.2778834 0.9288696
vt 0.2644357 0.7953199
vt 0.1308862 0.8087677
vt 0.3961203 0.8653381
vt 0.3660729 0.9651738
vt 0.2113352 0.7424506
vt 0.07772812 0.7295856
vt 0.4696444 0.8797964
vt 0.4596514 0.9835759
vt 0.1695693 0.6802378
vt 0.04103925 0.6415545
vt 0.5445765 0.8796331
vt 0.5550218 0.9833677
vt 0.140743 0.6110721
vt 0.02222934 0.5480572
vt 0.6180369 0.8648543
vt 0.6485191 0.9645582
vt 0.1259641 0.5376117
vt 0.02202126 0.4526867
vt 0.6872026 0.8360282
vt 0.7365505 0.9278694
vt 0.1258006 0.4626795
vt 0.04042306 0.3591082
vt 0.7494156 0.7942624
vt 0.8157327 0.8747115
vt 0.1402589 0.3891553
vt 0.07672759 0.2709177
vt 0.8022851 0.7411618
vt 0.8830226 0.8071275
vt 0.1687831 0.3198646
vt 0.1295396 0.1915045
vt 0.8437793 0.6787672
vt 0.9358348 0.7277143
vt 0.2102772 0.25747
vt 0.1968296 0.1239204
vt 0.8723037 0.6094766
vt 0.9721395 0.6395239
vt 0.2631467 0.2043694
vt 0.2760117 0.0707624
vt 0.8867621 0.5359524
vt 0.9905414 0.5459454
vt 0.3253597 0.1626035
vt 0.3640428 0.03407353
vt 0.8865986 0.4610204
vt 0.9903335 0.450575
vt 0.3945253 0.1337773
vt 0.4575402 0.01526362
vt 0.8718199 0.3875599
vt 0.9715236 0.3570775
vt 0.4679857 0.1189985
vt 0.5529107 0.01505566
vt 0.8429937 0.3183942
vt 0.9348348 0.2690464
vt 0.5429178 0.118835
vt 0.6464892 0.03345752
vt 0.8012277 0.2561812
vt 0.881677 0.1898642
vt 0.6164419 0.1332933
vt 0.7346795 0.06976205
vt 0.7481273 0.2033117
vt 0.8140928 0.1225742
vt 0.6857328 0.1618176
vt 0.7382128 0.3746949
vt 0.709444 0.3318418
vt 0.6728676 0.2954246
vt 0.6298895 0.266843
vt 0.5821612 0.2471951
vt 0.5315168 0.237236
vt 0.7580686 0.4223369
vt 0.4799029 0.2373486
vt 0.7682483 0.4729375
vt 0.4293024 0.2475284
vt 0.768361 0.5245515
vt 0.3816603 0.2673843
vt 0.7584019 0.5751958
vt 0.3388073 0.2961532
vt 0.7387541 0.6229241
vt 0.3023902 0.3327295
vt 0.7101722 0.6659021
vt 0.2738086 0.3757076
vt 0.6737551 0.7024785
vt 0.2541607 0.4234359
vt 0.630902 0.7312473
vt 0.2442017 0.4740803
vt 0.5832599 0.7511032
vt 0.2443143 0.5256945
vt 0.5326596 0.7612828
vt 0.2544941 0.5762948
vt 0.4810454 0.7613955
vt 0.27435 0.6239369
vt 0.4304011 0.7514364
vt 0.3031189 0.6667899
vt 0.3826733 0.7317886
vt 0.3396952 0.7032069
vt 0.5197288 0.6328654
vt 0.4934162 0.6329228
vt 0.5062814 0.4993158
vt 0.5455247 0.6276758
vt 0.4675979 0.6278456
vt 0.5698126 0.6175535
vt 0.4432665 0.6178294
vt 0.5916587 0.6028872
vt 0.4213565 0.6032585
vt 0.6102239 0.5842409
vt 0.40271 0.5846933
vt 0.6247949 0.5623307
vt 0.3880438 0.5628471
vt 0.6348112 0.537999
vt 0.3779213 0.5385594
vt 0.6398883 0.5121809
vt 0.3727317 0.5127635
vt 0.6398311 0.4858681
vt 0.3726743 0.4864508
vt 0.6346413 0.4600723
vt 0.3777513 0.4606326
vt 0.6245189 0.4357846
vt 0.3877678 0.4363008
vt 0.6098527 0.4139382
vt 0.4023385 0.4143908
vt 0.5912064 0.3953729
vt 0.4209038 0.3957443
vt 0.5692962 0.3808022
vt 0.4427501 0.3810781
vt 0.5449645 0.3707857
vt 0.4670378 0.3709556
vt 0.5191464 0.3657087
vt 0.4928337 0.365766
vn 2.934084E-07 0.4059052 -0.9139153
vn 0.09207973 0.4629154 -0.8816069
vn 3.944698E-07 0.4719842 -0.881607
vn 0.07918835 0.3981059 -0.9139152
vn 0.1806207 0.4360567 -0.8816069
vn -0.07918731 0.398106 -0.9139153
vn -0.09207857 0.4629152 -0.8816071
vn 0.1553333 0.3750075 -0.9139152
vn 0.2622205 0.3924406 -0.8816069
vn -0.1553323 0.3750079 -0.9139153
vn -0.1806195 0.4360569 -0.8816071
vn 0.2255089 0.3374979 -0.9139152
vn 0.3337435 0.3337432 -0.8816069
vn -0.2255082 0.3374982 -0.9139152
vn -0.2622195 0.392441 -0.881607
vn 0.2870184 0.2870183 -0.9139152
vn 0.3924406 0.2622204 -0.8816069
vn -0.2870176 0.287019 -0.9139153
vn -0.3337424 0.333744 -0.881607
vn 0.3374979 0.2255088 -0.9139152
vn 0.4360566 0.1806204 -0.881607
vn -0.3374973 0.2255095 -0.9139153
vn -0.3924399 0.2622211 -0.881607
vn 0.3750076 0.1553331 -0.9139152
vn 0.4629154 0.09207935 -0.8816069
vn -0.3750071 0.1553338 -0.9139153
vn -0.4360561 0.1806213 -0.881607
vn 0.398106 0.07918804 -0.9139152
vn 0.4719844 0 -0.8816069
vn -0.3981056 0.07918887 -0.9139153
vn -0.4629149 0.09208037 -0.8816071
vn 0.4059054 0 -0.9139151
vn 0.4629154 -0.09207976 -0.8816068
vn -0.405905 6.881976E-07 -0.9139153
vn -0.471984 8.065276E-07 -0.8816071
vn 0.398106 -0.07918838 -0.9139152
vn 0.4360567 -0.1806207 -0.8816069
vn -0.3981057 -0.07918757 -0.9139153
vn -0.4629151 -0.09207889 -0.8816071
vn 0.3750076 -0.1553334 -0.9139152
vn 0.3924405 -0.2622205 -0.8816069
vn -0.3750076 -0.1553327 -0.9139153
vn -0.4360567 -0.18062 -0.881607
vn 0.3374979 -0.225509 -0.9139152
vn 0.3337431 -0.3337434 -0.881607
vn -0.337498 -0.2255085 -0.9139153
vn -0.3924408 -0.2622199 -0.881607
vn 0.2870182 -0.2870185 -0.9139152
vn 0.2622202 -0.3924407 -0.881607
vn -0.2870186 -0.287018 -0.9139153
vn -0.3337435 -0.3337429 -0.881607
vn 0.2255087 -0.337498 -0.9139152
vn 0.1806203 -0.4360567 -0.8816069
vn -0.2255093 -0.3374975 -0.9139152
vn -0.2622209 -0.3924402 -0.881607
vn 0.1553331 -0.3750076 -0.9139152
vn 0.09207924 -0.4629153 -0.8816069
vn -0.1553335 -0.3750074 -0.9139152
vn -0.180621 -0.4360564 -0.881607
vn 0.07918795 -0.3981059 -0.9139153
vn -3.517567E-07 -0.4719842 -0.881607
vn -0.07918841 -0.3981058 -0.9139153
vn -0.09207988 -0.462915 -0.881607
vn -3.446952E-07 -0.4059052 -0.9139152
vn -0.1480004 -0.2214978 -0.9638644
vn -0.1019444 -0.2461153 -0.9638644
vn -0.05197088 -0.2612748 -0.9638644
vn -2.738166E-07 -0.2663934 -0.9638644
vn 0.0519707 -0.2612748 -0.9638644
vn 0.1019444 -0.2461155 -0.9638644
vn -0.1883687 -0.1883684 -0.9638644
vn 0.1480002 -0.2214981 -0.9638644
vn -0.2214981 -0.148 -0.9638644
vn 0.1883686 -0.1883687 -0.9638644
vn -0.2461155 -0.101944 -0.9638644
vn 0.2214981 -0.1480003 -0.9638644
vn -0.2612747 -0.05197035 -0.9638644
vn 0.2461155 -0.1019445 -0.9638644
vn -0.2663933 4.315588E-07 -0.9638644
vn 0.2612749 -0.05197094 -0.9638644
vn -0.2612745 0.0519712 -0.9638645
vn 0.2663935 0 -0.9638644
vn -0.2461151 0.1019447 -0.9638644
vn 0.2612749 0.05197074 -0.9638644
vn -0.2214976 0.1480007 -0.9638644
vn 0.2461156 0.1019443 -0.9638644
vn -0.1883681 0.188369 -0.9638644
vn 0.2214981 0.1480003 -0.9638644
vn -0.1479997 0.2214983 -0.9638644
vn 0.1883687 0.1883685 -0.9638644
vn -0.1019436 0.2461156 -0.9638644
vn 0.1480004 0.221498 -0.9638644
vn -0.05197015 0.2612749 -0.9638644
vn 0.1019445 0.2461154 -0.9638644
vn 0 0.2663934 -0.9638644
vn 0.05197095 0.2612747 -0.9638644
vn -0.07412555 0.1109378 -0.9910591
vn -0.05105857 0.1232673 -0.9910591
vn 0 0 -1
vn -0.0943441 0.09434495 -0.9910591
vn -0.02602932 0.1308598 -0.9910591
vn -0.1109373 0.07412625 -0.9910591
vn 0 0.1334234 -0.9910591
vn -0.123267 0.05105914 -0.9910591
vn 0.02602973 0.1308598 -0.9910591
vn -0.1308596 0.02602983 -0.9910591
vn 0.05105904 0.1232672 -0.9910591
vn -0.1334233 0 -0.9910591
vn 0.07412642 0.1109374 -0.9910591
vn -0.1308597 -0.02602939 -0.9910591
vn 0.09434497 0.09434449 -0.9910591
vn -0.1232672 -0.05105871 -0.9910591
vn 0.1109376 0.07412614 -0.9910591
vn -0.1109376 -0.07412594 -0.9910591
vn 0.1232673 0.05105896 -0.9910591
vn -0.09434441 -0.09434468 -0.9910591
vn 0.1308599 0.02602962 -0.9910591
vn -0.07412595 -0.1109376 -0.9910591
vn 0.1334236 0 -0.9910591
vn -0.05105897 -0.1232671 -0.9910591
vn 0.1308599 -0.02602972 -0.9910591
vn -0.02602966 -0.1308597 -0.9910591
vn 0.1232673 -0.05105903 -0.9910591
vn 0 -0.1334234 -0.9910591
vn 0.1109376 -0.07412618 -0.9910591
vn 0.02602961 -0.1308598 -0.9910591
vn 0.09434489 -0.09434456 -0.9910591
vn 0.05105896 -0.1232673 -0.9910591
vn 0.07412632 -0.1109375 -0.9910591
g Sphere001_0
f 3/3/3 2/2/2 1/1/1
f 2/2/2 4/4/4 1/1/1
f 2/2/2 5/5/5 4/4/4
f 3/3/3 1/1/1 6/6/6
f 7/7/7 3/3/3 6/6/6
f 5/5/5 8/8/8 4/4/4
f 5/5/5 9/9/9 8/8/8
f 7/7/7 6/6/6 10/10/10
f 11/11/11 7/7/7 10/10/10
f 9/9/9 12/12/12 8/8/8
f 9/9/9 13/13/13 12/12/12
f 11/11/11 10/10/10 14/14/14
f 15/15/15 11/11/11 14/14/14
f 13/13/13 16/16/16 12/12/12
f 13/13/13 17/17/17 16/16/16
f 15/15/15 14/14/14 18/18/18
f 19/19/19 15/15/15 18/18/18
f 17/17/17 20/20/20 16/16/16
f 17/17/17 21/21/21 20/20/20
f 19/19/19 18/18/18 22/22/22
f 23/23/23 19/19/19 22/22/22
f 21/21/21 24/24/24 20/20/20
f 21/21/21 25/25/25 24/24/24
f 23/23/23 22/22/22 26/26/26
f 27/27/27 23/23/23 26/26/26
f 25/25/25 28/28/28 24/24/24
f 25/25/25 29/29/29 28/28/28
f 27/27/27 26/26/26 30/30/30
f 31/31/31 27/27/27 30/30/30
f 29/29/29 32/32/32 28/28/28
f 29/29/29 33/33/33 32/32/32
f 31/31/31 30/30/30 34/34/34
f 35/35/35 31/31/31 34/34/34
f 33/33/33 36/36/36 32/32/32
f 33/33/33 37/37/37 36/36/36
f 35/35/35 34/34/34 38/38/38
f 39/39/39 35/35/35 38/38/38
f 37/37/37 40/40/40 36/36/36
f 37/37/37 41/41/41 40/40/40
f 39/39/39 38/38/38 42/42/42
f 43/43/43 39/39/39 42/42/42
f 41/41/41 44/44/44 40/40/40
f 41/41/41 45/45/45 44/44/44
f 43/43/43 42/42/42 46/46/46
f 47/47/47 43/43/43 46/46/46
f 45/45/45 48/48/48 44/44/44
f 45/45/45 49/49/49 48/48/48
f 47/47/47 46/46/46 50/50/50
f 51/51/51 47/47/47 50/50/50
f 49/49/49 52/52/52 48/48/48
f 49/49/49 53/53/53 52/52/52
f 51/51/51 50/50/50 54/54/54
f 55/55/55 51/51/51 54/54/54
f 53/53/53 56/56/56 52/52/52
f 53/53/53 57/57/57 56/56/56
f 55/55/55 54/54/54 58/58/58
f 59/59/59 55/55/55 58/58/58
f 57/57/57 60/60/60 56/56/56
f 57/57/57 61/61/61 60/60/60
f 59/59/59 58/58/58 62/62/62
f 63/63/63 59/59/59 62/62/62
f 61/61/61 63/63/63 64/64/64
f 61/61/61 64/64/64 60/60/60
f 63/63/63 62/62/62 64/64/64
f 54/54/54 50/50/50 65/65/65
f 58/58/58 54/54/54 66/66/66
f 54/54/54 65/65/65 66/66/66
f 62/62/62 58/58/58 67/67/67
f 58/58/58 66/66/66 67/67/67
f 64/64/64 62/62/62 68/68/68
f 62/62/62 67/67/67 68/68/68
f 60/60/60 64/64/64 69/69/69
f 64/64/64 68/68/68 69/69/69
f 56/56/56 60/60/60 70/70/70
f 60/60/60 69/69/69 70/70/70
f 50/50/50 71/71/71 65/65/65
f 50/50/50 46/46/46 71/71/71
f 56/56/56 70/70/70 72/72/72
f 52/52/52 56/56/56 72/72/72
f 46/46/46 73/73/73 71/71/71
f 46/46/46 42/42/42 73/73/73
f 52/52/52 72/72/72 74/74/74
f 48/48/48 52/52/52 74/74/74
f 42/42/42 75/75/75 73/73/73
f 42/42/42 38/38/38 75/75/75
f 48/48/48 74/74/74 76/76/76
f 44/44/44 48/48/48 76/76/76
f 38/38/38 77/77/77 75/75/75
f 38/38/38 34/34/34 77/77/77
f 44/44/44 76/76/76 78/78/78
f 40/40/40 44/44/44 78/78/78
f 34/34/34 79/79/79 77/77/77
f 34/34/34 30/30/30 79/79/79
f 40/40/40 78/78/78 80/80/80
f 36/36/36 40/40/40 80/80/80
f 30/30/30 81/81/81 79/79/79
f 30/30/30 26/26/26 81/81/81
f 36/36/36 80/80/80 82/82/82
f 32/32/32 36/36/36 82/82/82
f 26/26/26 83/83/83 81/81/81
f 26/26/26 22/22/22 83/83/83
f 32/32/32 82/82/82 84/84/84
f 28/28/28 32/32/32 84/84/84
f 22/22/22 85/85/85 83/83/83
f 22/22/22 18/18/18 85/85/85
f 28/28/28 84/84/84 86/86/86
f 24/24/24 28/28/28 86/86/86
f 18/18/18 87/87/87 85/85/85
f 18/18/18 14/14/14 87/87/87
f 24/24/24 86/86/86 88/88/88
f 20/20/20 24/24/24 88/88/88
f 14/14/14 89/89/89 87/87/87
f 14/14/14 10/10/10 89/89/89
f 20/20/20 88/88/88 90/90/90
f 16/16/16 20/20/20 90/90/90
f 10/10/10 91/91/91 89/89/89
f 10/10/10 6/6/6 91/91/91
f 16/16/16 90/90/90 92/92/92
f 12/12/12 16/16/16 92/92/92
f 6/6/6 93/93/93 91/91/91
f 6/6/6 1/1/1 93/93/93
f 12/12/12 92/92/92 94/94/94
f 8/8/8 12/12/12 94/94/94
f 1/1/1 95/95/95 93/93/93
f 1/1/1 4/4/4 95/95/95
f 4/4/4 8/8/8 96/96/96
f 8/8/8 94/94/94 96/96/96
f 4/4/4 96/96/96 95/95/95
f 89/89/89 91/91/91 97/97/97
f 91/91/91 93/93/93 98/98/98
f 91/91/91 98/98/98 97/97/97
f 97/97/97 98/98/98 99/99/99
f 89/89/89 97/97/97 100/100/100
f 100/100/100 97/97/97 99/99/99
f 87/87/87 89/89/89 100/100/100
f 93/93/93 101/101/101 98/98/98
f 93/93/93 95/95/95 101/101/101
f 98/98/98 101/101/101 99/99/99
f 87/87/87 100/100/100 102/102/102
f 102/102/102 100/100/100 99/99/99
f 85/85/85 87/87/87 102/102/102
f 95/95/95 103/103/103 101/101/101
f 95/95/95 96/96/96 103/103/103
f 101/101/101 103/103/103 99/99/99
f 85/85/85 102/102/102 104/104/104
f 104/104/104 102/102/102 99/99/99
f 83/83/83 85/85/85 104/104/104
f 96/96/96 105/105/105 103/103/103
f 103/103/103 105/105/105 99/99/99
f 106/106/106 104/104/104 99/99/99
f 83/83/83 104/104/104 106/106/106
f 105/105/105 107/107/107 99/99/99
f 96/96/96 94/94/94 105/105/105
f 94/94/94 107/107/107 105/105/105
f 81/81/81 83/83/83 106/106/106
f 94/94/94 92/92/92 107/107/107
f 81/81/81 106/106/106 108/108/108
f 108/108/108 106/106/106 99/99/99
f 79/79/79 81/81/81 108/108/108
f 92/92/92 109/109/109 107/107/107
f 107/107/107 109/109/109 99/99/99
f 92/92/92 90/90/90 109/109/109
f 79/79/79 108/108/108 110/110/110
f 110/110/110 108/108/108 99/99/99
f 77/77/77 79/79/79 110/110/110
f 90/90/90 111/111/111 109/109/109
f 109/109/109 111/111/111 99/99/99
f 90/90/90 88/88/88 111/111/111
f 77/77/77 110/110/110 112/112/112
f 112/112/112 110/110/110 99/99/99
f 75/75/75 77/77/77 112/112/112
f 111/111/111 113/113/113 99/99/99
f 88/88/88 113/113/113 111/111/111
f 114/114/114 112/112/112 99/99/99
f 75/75/75 112/112/112 114/114/114
f 113/113/113 115/115/115 99/99/99
f 88/88/88 86/86/86 113/113/113
f 86/86/86 115/115/115 113/113/113
f 73/73/73 75/75/75 114/114/114
f 86/86/86 84/84/84 115/115/115
f 73/73/73 114/114/114 116/116/116
f 116/116/116 114/114/114 99/99/99
f 71/71/71 73/73/73 116/116/116
f 84/84/84 117/117/117 115/115/115
f 115/115/115 117/117/117 99/99/99
f 84/84/84 82/82/82 117/117/117
f 71/71/71 116/116/116 118/118/118
f 118/118/118 116/116/116 99/99/99
f 65/65/65 71/71/71 118/118/118
f 82/82/82 119/119/119 117/117/117
f 117/117/117 119/119/119 99/99/99
f 82/82/82 80/80/80 119/119/119
f 65/65/65 118/118/118 120/120/120
f 120/120/120 118/118/118 99/99/99
f 66/66/66 65/65/65 120/120/120
f 119/119/119 121/121/121 99/99/99
f 80/80/80 121/121/121 119/119/119
f 122/122/122 120/120/120 99/99/99
f 66/66/66 120/120/120 122/122/122
f 121/121/121 123/123/123 99/99/99
f 80/80/80 78/78/78 121/121/121
f 78/78/78 123/123/123 121/121/121
f 67/67/67 66/66/66 122/122/122
f 78/78/78 76/76/76 123/123/123
f 67/67/67 122/122/122 124/124/124
f 124/124/124 122/122/122 99/99/99
f 68/68/68 67/67/67 124/124/124
f 76/76/76 125/125/125 123/123/123
f 123/123/123 125/125/125 99/99/99
f 76/76/76 74/74/74 125/125/125
f 68/68/68 124/124/124 126/126/126
f 126/126/126 124/124/124 99/99/99
f 69/69/69 68/68/68 126/126/126
f 74/74/74 127/127/127 125/125/125
f 125/125/125 127/127/127 99/99/99
f 74/74/74 72/72/72 127/127/127
f 69/69/69 126/126/126 128/128/128
f 128/128/128 126/126/126 99/99/99
f 70/70/70 69/69/69 128/128/128
f 127/127/127 129/129/129 99/99/99
f 72/72/72 129/129/129 127/127/127
f 129/129/129 128/128/128 99/99/99
f 70/70/70 128/128/128 129/129/129
f 72/72/72 70/70/70 129/129/129
