g Sphere001
v -0.2446479 0.04866344 0.166671
v -0.2494409 -8.127817E-08 0.166671
v -0.2771638 -9.031145E-08 0.114805
v -0.2718382 0.05407192 0.114805
v -0.2304534 0.09545685 0.166671
v -0.2942356 -9.587412E-08 0.0585271
v -0.256066 0.106066 0.114805
v -0.2074025 0.1385819 0.166671
v -0.2885819 0.05740244 0.0585271
v -0.3 -9.775241E-08 2.264937E-08
v -0.2942356 0.05852703 2.264937E-08
v -0.2718382 0.112599 0.0585271
v -0.2771639 0.114805 2.264937E-08
v -0.2304533 0.153984 0.114805
v -0.1763813 0.1763813 0.166671
v -0.2446479 0.1634685 0.0585271
v -0.2494409 0.166671 2.264937E-08
v -0.1959844 0.1959844 0.114805
v -0.1385819 0.2074025 0.166671
v -0.208056 0.208056 0.0585271
v -0.212132 0.212132 2.264937E-08
v -0.153984 0.2304533 0.114805
v -0.09545688 0.2304534 0.166671
v -0.1634685 0.2446479 0.0585271
v -0.166671 0.2494409 2.264937E-08
v -0.106066 0.256066 0.114805
v -0.0486635 0.2446479 0.166671
v -0.1125991 0.2718382 0.0585271
v -0.114805 0.2771639 2.264937E-08
v -0.05407198 0.2718382 0.114805
v -1.090341E-08 0.2494409 0.166671
v -1.211522E-08 0.2771638 0.114805
v -0.05740251 0.2885819 0.0585271
v -0.0585271 0.2942356 2.264937E-08
v -1.286145E-08 0.2942356 0.0585271
v -1.311342E-08 0.3 2.264937E-08
vt 0.8668461 0.9854708
vt 0.9891065 0.9854708
vt 0.9891065 0.6600269
vt 0.8668461 0.6600269
vt 0.7445856 0.9854708
vt 0.9891065 0.3345828
vt 0.7445856 0.6600269
vt 0.6223249 0.9854708
vt 0.8668461 0.3345828
vt 0.9891065 0.009138717
vt 0.8668461 0.009138717
vt 0.7445856 0.3345828
vt 0.7445856 0.009138717
vt 0.6223249 0.6600269
vt 0.5000645 0.9854708
vt 0.6223249 0.3345828
vt 0.6223249 0.009138717
vt 0.5000645 0.6600269
vt 0.3778039 0.9854708
vt 0.5000645 0.3345828
vt 0.5000645 0.009138717
vt 0.3778039 0.6600269
vt 0.2555434 0.9854708
vt 0.3778039 0.3345828
vt 0.3778039 0.009138717
vt 0.2555434 0.6600269
vt 0.1332828 0.9854708
vt 0.2555434 0.3345828
vt 0.2555434 0.009138717
vt 0.1332828 0.6600269
vt 0.0110223 0.9854708
vt 0.0110223 0.6600269
vt 0.1332828 0.3345828
vt 0.1332828 0.009138717
vt 0.0110223 0.3345828
vt 0.0110223 0.009138717
vn -0.8649755 0.1720541 0.4713966
vn -0.8786131 0.08653577 0.4696282
vn -0.9209535 0.09070591 0.3789685
vn -0.9069965 0.1804126 0.3805373
vn -0.8147892 0.3374964 0.4713967
vn -0.9764678 0.09617357 0.1930312
vn -0.8543722 0.3538922 0.3805372
vn -0.7332908 0.4899692 0.4713968
vn -0.9621655 0.1913863 0.1939302
vn -0.9904384 0.09754954 0.09754991
vn -0.9760626 0.1941506 0.09801739
vn -0.9063401 0.3754181 0.1939302
vn -0.9194309 0.3808405 0.09801743
vn -0.7689146 0.5137722 0.3805372
vn -0.6236125 0.6236125 0.4713967
vn -0.8156844 0.5450228 0.1939301
vn -0.827466 0.5528949 0.09801739
vn -0.653908 0.653908 0.3805372
vn -0.4899692 0.7332907 0.4713966
vn -0.6936826 0.6936826 0.1939301
vn -0.7037019 0.7037019 0.09801733
vn -0.5137722 0.7689145 0.3805372
vn -0.3374965 0.8147892 0.4713965
vn -0.5450228 0.8156844 0.1939301
vn -0.5528949 0.8274658 0.09801737
vn -0.3538923 0.8543721 0.3805372
vn -0.1720542 0.8649756 0.4713964
vn -0.3754182 0.90634 0.1939301
vn -0.3808407 0.9194308 0.09801743
vn -0.1804128 0.9069965 0.3805372
vn -0.08653601 0.8786131 0.4696282
vn -0.09070621 0.9209535 0.3789685
vn -0.1913866 0.9621654 0.1939302
vn -0.1941509 0.9760625 0.09801738
vn -0.09617395 0.9764678 0.1930312
vn -0.0975499 0.9904383 0.0975499
g Sphere001_0
f 3/3/3 2/2/2 1/1/1
f 4/4/4 3/3/3 1/1/1
f 4/4/4 1/1/1 5/5/5
f 6/6/6 3/3/3 4/4/4
f 7/7/7 4/4/4 5/5/5
f 7/7/7 5/5/5 8/8/8
f 9/9/9 6/6/6 4/4/4
f 9/9/9 4/4/4 7/7/7
f 10/10/10 6/6/6 9/9/9
f 11/11/11 10/10/10 9/9/9
f 11/11/11 9/9/9 12/12/12
f 12/12/12 9/9/9 7/7/7
f 13/13/13 11/11/11 12/12/12
f 14/14/14 7/7/7 8/8/8
f 12/12/12 7/7/7 14/14/14
f 14/14/14 8/8/8 15/15/15
f 13/13/13 12/12/12 16/16/16
f 16/16/16 12/12/12 14/14/14
f 17/17/17 13/13/13 16/16/16
f 18/18/18 14/14/14 15/15/15
f 16/16/16 14/14/14 18/18/18
f 18/18/18 15/15/15 19/19/19
f 17/17/17 16/16/16 20/20/20
f 20/20/20 16/16/16 18/18/18
f 21/21/21 17/17/17 20/20/20
f 22/22/22 18/18/18 19/19/19
f 20/20/20 18/18/18 22/22/22
f 22/22/22 19/19/19 23/23/23
f 21/21/21 20/20/20 24/24/24
f 24/24/24 20/20/20 22/22/22
f 25/25/25 21/21/21 24/24/24
f 26/26/26 22/22/22 23/23/23
f 24/24/24 22/22/22 26/26/26
f 26/26/26 23/23/23 27/27/27
f 25/25/25 24/24/24 28/28/28
f 28/28/28 24/24/24 26/26/26
f 29/29/29 25/25/25 28/28/28
f 30/30/30 26/26/26 27/27/27
f 28/28/28 26/26/26 30/30/30
f 30/30/30 27/27/27 31/31/31
f 32/32/32 30/30/30 31/31/31
f 29/29/29 28/28/28 33/33/33
f 33/33/33 28/28/28 30/30/30
f 33/33/33 30/30/30 32/32/32
f 34/34/34 29/29/29 33/33/33
f 35/35/35 33/33/33 32/32/32
f 34/34/34 33/33/33 35/35/35
f 36/36/36 34/34/34 35/35/35
