g waterfall_mesh5
v -0.1510003 -0.3940001 -0.0008568118
v -0.03599961 -0.4630005 -0.0008568118
v 0.09099873 -0.4679994 -0.0008568118
v 0.1770034 -0.3880006 -0.0008568118
v -0.1309988 -0.2530004 -0.0008568118
v 0.1989953 -0.2529991 -0.0008568118
v -0.127 -0.1359999 -0.0008568118
v 0.2009993 -0.1220002 -0.0008568118
v -0.1260004 -0.04500001 -0.029
v 0.1900012 0.01599988 -0.029
v -0.1380047 0.04700047 -0.04500001
v 0.1799971 0.1360005 -0.04500001
v -0.1609991 0.1479996 -0.023
v 0.1529998 0.2400001 -0.023
v -0.1990009 0.2110005 -0.0008568118
v 0.1020002 0.3259996 -0.0008568118
v -0.2589985 0.2609995 -0.0008568118
v 0.03499887 0.3910002 -0.0008568118
v -0.3370045 0.3070005 -0.0008568118
v -0.05800031 0.4260004 -0.0008568118
vt 1.854366E-07 0.8888889
vt 2.086162E-07 1
vt 1 0.9999998
vt 1 0.8888887
vt 1.622571E-07 0.7777778
vt 1 0.7777776
vt 1.390775E-07 0.6666667
vt 1 0.6666665
vt 1.158979E-07 0.5555557
vt 0.9999999 0.5555554
vt 9.271832E-08 0.4444446
vt 0.9999999 0.4444443
vt 6.953874E-08 0.3333335
vt 0.9999999 0.3333333
vt 4.635916E-08 0.2222224
vt 0.9999999 0.2222221
vt 2.317958E-08 0.1111113
vt 0.9999999 0.1111111
vt 0 2.086162E-07
vt 0.9999998 0
vn 0 0 -1
vn 0 0 -1
vn 0 0 -1
vn 0 0 -1
vn 0 0 -1
vn 0 0 -1
vn 0 0 -1
vn 0 0 -1
vn 0 0 -1
vn 0 0 -1
vn 0 0 -1
vn 0 0 -1
vn 0 0 -1
vn 0 0 -1
vn 0 0 -1
vn 0 0 -1
vn 0 0 -1
vn 0 0 -1
vn 0 0 -1
vn 0 0 -1
g waterfall_mesh5_0
f 3/3/3 2/2/2 1/1/1
f 4/4/4 3/3/3 1/1/1
f 4/4/4 1/1/1 5/5/5
f 6/6/6 4/4/4 5/5/5
f 6/6/6 5/5/5 7/7/7
f 8/8/8 6/6/6 7/7/7
f 8/8/8 7/7/7 9/9/9
f 10/10/10 8/8/8 9/9/9
f 10/10/10 9/9/9 11/11/11
f 12/12/12 10/10/10 11/11/11
f 12/12/12 11/11/11 13/13/13
f 14/14/14 12/12/12 13/13/13
f 14/14/14 13/13/13 15/15/15
f 16/16/16 14/14/14 15/15/15
f 16/16/16 15/15/15 17/17/17
f 18/18/18 16/16/16 17/17/17
f 18/18/18 17/17/17 19/19/19
f 20/20/20 18/18/18 19/19/19
