g worldmap_ep01_l9
v 2148.165 1090.508 0
v 2148.165 1432.8 0
v 857.4525 1432.8 0
v 857.4525 1090.508 0
v -1205.145 1073.902 0
v -1205.145 1516.95 0
v -2875.838 1516.95 0
v -2875.838 1073.902 0
v 582.7949 1130.49 0
v 582.7949 1283.49 0
v 254.295 1283.49 0
v 254.295 1130.49 0
v 923.2424 1155.6 0
v 923.2424 1455.368 0
v 546.9299 1455.368 0
v 546.9299 1155.6 0
v 2536.222 1164.375 0
v 2536.222 1400.198 0
v 2135.857 1400.198 0
v 2135.857 1164.375 0
vt 0.4168317 0.6639839
vt 0.4168317 0.7414487
vt 0.7034653 0.7414487
vt 0.7034653 0.6639839
vt 0.4168317 0.6639839
vt 0.4168317 0.7414487
vt 0.7034653 0.7414487
vt 0.7034653 0.6639839
vt 0.479703 0.9341046
vt 0.479703 0.9884306
vt 0.5955446 0.9884306
vt 0.5955446 0.9341046
vt 0.9519802 0.001006007
vt 0.9519802 0.03822941
vt 0.9985148 0.03822941
vt 0.9985148 0.001006007
vt 0.9212871 0.9084507
vt 0.9212871 0.9426559
vt 0.9792079 0.9426559
vt 0.9792079 0.9084507
vn 0 0 -1
vn 0 0 -1
vn 0 0 -1
vn 0 0 -1
vn 0 0 -1
vn 0 0 -1
vn 0 0 -1
vn 0 0 -1
vn 0 0 -1
vn 0 0 -1
vn 0 0 -1
vn 0 0 -1
vn 0 0 -1
vn 0 0 -1
vn 0 0 -1
vn 0 0 -1
vn 0 0 -1
vn 0 0 -1
vn 0 0 -1
vn 0 0 -1
g worldmap_ep01_l9_0
f 3/3/3 2/2/2 1/1/1
f 4/4/4 3/3/3 1/1/1
f 7/7/7 6/6/6 5/5/5
f 8/8/8 7/7/7 5/5/5
f 11/11/11 10/10/10 9/9/9
f 12/12/12 11/11/11 9/9/9
f 15/15/15 14/14/14 13/13/13
f 16/16/16 15/15/15 13/13/13
f 19/19/19 18/18/18 17/17/17
f 20/20/20 19/19/19 17/17/17
