g worldmap_ep07_6_mesh
v 6154.59 -1975.328 0
v 6127.581 -1919.94 0
v 6034.008 -1995.605 0
v 6193.687 -2034.663 0
v 6154.59 -1975.328 0
v 6034.008 -1995.605 0
v 6193.687 -2034.663 0
v 6034.008 -1995.605 0
v 6007.958 -2077.834 0
v 1685.222 -2597.385 0
v 1685.222 1764.532 0
v -7754.863 1764.532 0
v -7754.863 -2597.385 0
v 6007.958 -2077.834 0
v 6229.005 -2099.025 0
v 6193.687 -2034.663 0
v 6021.087 -2216.198 0
v 6229.005 -2099.025 0
v 6021.087 -2216.198 0
v 6267.731 -2162.804 0
v 6091.225 -2289.535 0
v 6267.731 -2162.804 0
v 6091.225 -2289.535 0
v 6312.897 -2233.441 0
v 6186.832 -2334.285 0
v 6371.525 -2334.535 0
v 6312.897 -2233.441 0
v 6186.832 -2334.285 0
v 6241.391 -2374.257 0
v 6443.118 -2466.209 0
v 6371.525 -2334.535 0
v 6241.391 -2374.257 0
v 6277.371 -2490.891 0
v 6275.626 -2605.321 0
v 6443.118 -2466.209 0
v 6277.371 -2490.891 0
v 6574.792 -2606.028 0
v 6043.981 -1986.672 -0.9764328
v 6807.81 -1607.479 -0.9764328
v 6139.837 -1888.072 -0.9764328
v 7040.618 -1636.315 -0.9764328
v 6807.81 -1607.479 -0.9764328
v 6043.981 -1986.672 -0.9764328
v 7252.235 -1711.024 -0.9764328
v 6254.394 -2362.789 -0.9764328
v 6283.852 -2413.646 -0.9764328
v 6285.181 -2605.778 -0.9764328
v 7352.58 -1756.065 -0.9764328
v 6293.117 -2491.97 -0.9764328
v 7510.974 -1770.981 -0.9764328
v 7352.58 -1756.065 -0.9764328
v 6285.181 -2605.778 -0.9764328
v 6573.296 -1642.839 -0.9764328
v 6282.48 -1791.425 -0.9764328
v 6139.837 -1888.072 -0.9764328
v 6807.81 -1607.479 -0.9764328
v 6043.981 -1986.672 -0.9764328
v 6022.498 -2062.003 -0.9764328
v 6200.335 -2322.484 -0.9764328
v 6254.394 -2362.789 -0.9764328
v 6037.21 -2206.641 -0.9764328
v 6097.539 -2278.275 -0.9764328
v 6022.498 -2062.003 -0.9764328
v 6200.335 -2322.484 -0.9764328
v 7040.618 -1636.315 -0.9764328
v 6043.981 -1986.672 -0.9764328
v 7252.235 -1711.024 -0.9764328
v 6254.394 -2362.789 -0.9764328
v 6283.852 -2413.646 -0.9764328
v 6293.117 -2491.97 -0.9764328
v 7252.235 -1711.024 -0.9764328
v 7352.58 -1756.065 -0.9764328
v 7995.082 -2604.947 -0.9764328
v 7988.807 -1737.45 -0.9764328
v 7510.974 -1770.981 -0.9764328
v 6285.181 -2605.778 -0.9764328
v 7997.199 -2607.98 -2.720406
v 7995.082 -2063.499 -2.720406
v 6282.148 -2606.526 -2.720406
v 6294.158 -2401.431 -2.720406
v 7995.082 -2063.499 -2.720406
v 7987.186 -1625.222 -2.720406
v 6294.158 -2401.431 -2.720406
v 6020.755 -2203.65 -2.720406
v -4617.451 -2706.664 -3.145508
v -7764.544 1214.691 -3.145508
v -7768.079 -1333.867 -3.145508
v -1843.604 -1650.899 -3.145508
v 6061.35 1288.028 -24.68158
v 6221.442 1603.231 -24.68158
v 4719.756 1897.578 -24.68158
v 4477.061 1757.261 -24.68158
v 5964.701 1159.179 -24.68158
v 4596.81 1826.484 -24.68158
v 3873.782 1422.154 -24.68158
v 5656.146 462.3313 -24.68158
v 3982.397 1478.04 -24.68158
v 3873.782 1422.154 -24.68158
v 5618.001 300.8652 -24.68158
v 5656.146 462.3313 -24.68158
v 3191.645 1071.341 -24.68158
v 5128.617 -146.9277 -24.68158
v 3384.025 1170.273 -24.68158
v 3015.759 980.8435 -24.68158
v 5074.06 -451.7034 -24.68158
v 5055.945 -304.8208 -24.68158
v 2689.836 -2111.157 -24.68158
v 280.5156 -426.0244 -24.68158
v -312.209 -730.9243 -24.68158
v 2689.836 -2111.157 -24.68158
v -312.209 -730.9243 -24.68158
v 2692.371 -2236.184 -24.68158
v 6239.269 1745.169 -24.68158
v 4801.655 1944.904 -24.68158
v 4719.756 1897.578 -24.68158
v 6221.442 1603.231 -24.68158
v 6061.35 1288.028 -24.68158
v 4719.756 1897.578 -24.68158
v 4596.81 1826.484 -24.68158
v 5964.701 1159.179 -24.68158
v 4405.673 1715.959 -24.68158
v 5964.701 1159.179 -24.68158
v 5880.354 1100.302 -24.68158
v 4322.323 1667.761 -24.68158
v 5880.354 1100.302 -24.68158
v 4405.673 1715.959 -24.68158
v 5790.232 973.9875 -24.68158
v 5790.232 973.9875 -24.68158
v 4322.323 1667.761 -24.68158
v 4221.397 1609.423 -24.68158
v 5714.856 840.9001 -24.68158
v 4089.351 1533.053 -24.68158
v 5553.391 664.0598 -24.68158
v 5714.856 840.9001 -24.68158
v 4221.397 1609.423 -24.68158
v 5656.146 462.3313 -24.68158
v 5553.391 664.0598 -24.68158
v 4089.351 1533.053 -24.68158
v 3743.813 1355.299 -24.68158
v 5618.001 300.8652 -24.68158
v 3873.782 1422.154 -24.68158
v 5484.084 123.4434 -24.68158
v 3743.813 1355.299 -24.68158
v 3535.56 1248.223 -24.68158
v 5484.084 123.4434 -24.68158
v 5241.054 -56.7627 -24.68158
v 5241.054 -56.7627 -24.68158
v 3535.56 1248.223 -24.68158
v 3384.025 1170.273 -24.68158
v 5128.617 -146.9277 -24.68158
v 5055.945 -304.8208 -24.68158
v 5128.617 -146.9277 -24.68158
v 3191.645 1071.341 -24.68158
v 3015.759 980.8435 -24.68158
v 3015.759 980.8435 -24.68158
v 2831.896 886.3149 -24.68158
v 5074.06 -451.7034 -24.68158
v 5034.671 -715.8408 -24.68158
v 2831.896 886.3149 -24.68158
v 4911.639 -904.3159 -24.68158
v 5034.671 -715.8408 -24.68158
v 2570.918 752.0645 -24.68158
v 2349.534 638.1736 -24.68158
v 4911.639 -904.3159 -24.68158
v 4594.274 -1095.781 -24.68158
v 2349.534 638.1736 -24.68158
v 2078.5 498.7715 -24.68158
v 4594.274 -1095.781 -24.68158
v 4385.521 -1313.59 -24.68158
v 2078.5 498.7715 -24.68158
v 1864.429 388.7026 -24.68158
v 4385.521 -1313.59 -24.68158
v 4111.705 -1542.701 -24.68158
v 1864.429 388.7026 -24.68158
v 1614.46 260.1453 -24.68158
v 4111.705 -1542.701 -24.68158
v 3771.858 -1703.627 -24.68158
v 1339.353 118.6235 -24.68158
v 3771.858 -1703.627 -24.68158
v 1614.46 260.1453 -24.68158
v 3470.449 -1747.63 -24.68158
v 3470.449 -1747.63 -24.68158
v 1339.353 118.6235 -24.68158
v 1023.607 -43.79858 -24.68158
v 3243.542 -1814.527 -24.68158
v 1023.607 -43.79858 -24.68158
v 694.5254 -213.0764 -24.68158
v 3243.542 -1814.527 -24.68158
v 2869.874 -1987.253 -24.68158
v 280.5156 -426.0244 -24.68158
v 2869.874 -1987.253 -24.68158
v 694.5254 -213.0764 -24.68158
v 2689.836 -2111.157 -24.68158
v -312.209 -730.9243 -24.68158
v -1753.271 -1472.273 -24.68158
v 2692.371 -2236.184 -24.68158
v 2644.67 -2417.014 -24.68158
v -4114.56 -2687.052 -24.68158
v 2644.67 -2417.014 -24.68158
v -1753.271 -1472.273 -24.68158
v 2492.885 -2644.129 -24.68158
v 5883.015 1147.421 -42.82825
v 5967.359 1206.298 -42.82825
v 6241.969 1792.288 -42.82825
v 5883.015 1147.421 -42.82825
v 6241.969 1792.288 -42.82825
v 4557.458 1813.562 -42.82825
v 5658.848 509.4492 -42.82825
v 5616.259 778.8657 -42.82825
v 4092.05 1580.172 -42.82825
v 3382.82 1215.397 -42.82825
v 5486.784 170.562 -42.82825
v 5620.702 347.9832 -42.82825
v 5486.784 170.562 -42.82825
v 3382.82 1215.397 -42.82825
v 5243.755 -9.643555 -42.82825
v 3080.789 1060.039 -42.82825
v 5131.317 -99.80859 -42.82825
v 3250.772 1147.462 -42.82825
v 2973.751 1004.984 -42.82825
v 5076.763 -404.5842 -42.82825
v 5058.645 -257.7019 -42.82825
v 6064.05 1335.188 -42.82825
v 6224.104 1650.352 -42.82825
v 6241.969 1792.288 -42.82825
v 5967.359 1206.298 -42.82825
v 5616.259 778.8657 -42.82825
v 5883.015 1147.421 -42.82825
v 4557.458 1813.562 -42.82825
v 4092.05 1580.172 -42.82825
v 5658.848 509.4492 -42.82825
v 4092.05 1580.172 -42.82825
v 3382.82 1215.397 -42.82825
v 5620.702 347.9832 -42.82825
v 5243.755 -9.643555 -42.82825
v 3382.82 1215.397 -42.82825
v 3250.772 1147.462 -42.82825
v 5131.317 -99.80859 -42.82825
v 5058.645 -257.7019 -42.82825
v 5131.317 -99.80859 -42.82825
v 3080.789 1060.039 -42.82825
v 2973.751 1004.984 -42.82825
v 2973.751 1004.984 -42.82825
v 2797.703 914.4446 -42.82825
v 5076.763 -404.5842 -42.82825
v 5037.37 -668.6816 -42.82825
v 4914.34 -857.1963 -42.82825
v 5037.37 -668.6816 -42.82825
v 2797.703 914.4446 -42.82825
v 2645.543 836.1636 -42.82825
v 2451.627 736.4417 -42.82825
v 4914.34 -857.1963 -42.82825
v 2645.543 836.1636 -42.82825
v 4596.976 -1048.663 -42.82825
v 2212.043 613.2019 -42.82825
v 4596.976 -1048.663 -42.82825
v 2451.627 736.4417 -42.82825
v 4388.224 -1266.472 -42.82825
v 2212.043 613.2019 -42.82825
v 1861.355 432.8718 -42.82825
v 4388.224 -1266.472 -42.82825
v 4114.403 -1495.583 -42.82825
v 1861.355 432.8718 -42.82825
v 1513.408 253.9124 -42.82825
v 4114.403 -1495.583 -42.82825
v 3774.56 -1656.509 -42.82825
v 1226.793 106.4487 -42.82825
v 3774.56 -1656.509 -42.82825
v 1513.408 253.9124 -42.82825
v 3473.149 -1700.511 -42.82825
v 3473.149 -1700.511 -42.82825
v 1226.793 106.4487 -42.82825
v 1019.91 0.07861328 -42.82825
v 3246.241 -1767.408 -42.82825
v 1019.91 0.07861328 -42.82825
v 714.1777 -157.1907 -42.82825
v 3246.241 -1767.408 -42.82825
v 2872.576 -1940.135 -42.82825
v 376.1221 -331.0398 -42.82825
v 2872.576 -1940.135 -42.82825
v 714.1777 -157.1907 -42.82825
v 2692.539 -2064.04 -42.82825
v 2692.539 -2064.04 -42.82825
v 376.1221 -331.0398 -42.82825
v 162.6357 -440.8579 -42.82825
v 2695.071 -2189.066 -42.82825
v 162.6357 -440.8579 -42.82825
v -314.4492 -686.2568 -42.82825
v 2695.071 -2189.066 -42.82825
v 2647.371 -2369.895 -42.82825
v -4183.906 -2676.415 -42.82825
v 2647.371 -2369.895 -42.82825
v -314.4492 -686.2568 -42.82825
v 2495.584 -2597.01 -42.82825
v 6151.887 1186.603 -56.74466
v 6246.419 1729.713 -56.74466
v 6222.232 1800.848 -56.74466
v 6222.232 1800.848 -56.74466
v 338.5186 -2670.431 -56.74466
v 6151.887 1186.603 -56.74466
v 6222.232 1800.848 -56.74466
v -4276.817 -2703.755 -56.74466
v 338.5186 -2670.431 -56.74466
v 4541.05 1808.286 -56.74466
vt 0.3462127 0.6406479
vt 0.3467583 0.6446844
vt 0.3467583 0.6342433
vt 0.3457812 0.6374563
vt 0.3462127 0.6406479
vt 0.3467583 0.6342433
vt 0.3457812 0.6374563
vt 0.3467583 0.6342433
vt 0.3467583 0.6225339
vt 0.3347686 0.6135818
vt 0.3347686 0.6401132
vt 0.343031 0.6401132
vt 0.343031 0.6135818
vt 0.3467583 0.6225339
vt 0.3452159 0.6332746
vt 0.3457812 0.6374563
vt 0.3467583 0.6153576
vt 0.3452159 0.6332746
vt 0.3467583 0.6153576
vt 0.3446665 0.6292102
vt 0.3456727 0.6120873
vt 0.3446665 0.6292102
vt 0.3456727 0.6120873
vt 0.3440309 0.6245083
vt 0.3450617 0.6102465
vt 0.3434757 0.6204015
vt 0.3440309 0.6245083
vt 0.3450617 0.6102465
vt 0.3444843 0.6085071
vt 0.3426856 0.6145573
vt 0.3434757 0.6204015
vt 0.3444843 0.6085071
vt 0.3439882 0.6070126
vt 0.3431861 0.6045963
vt 0.3426856 0.6145573
vt 0.3439882 0.6070126
vt 0.3412756 0.604127
vt 0.345776 0.6333903
vt 0.3426936 0.65
vt 0.345776 0.6425263
vt 0.3413807 0.65
vt 0.3426936 0.65
vt 0.345776 0.6333903
vt 0.3401184 0.65
vt 0.3437862 0.6108711
vt 0.3433521 0.6095635
vt 0.3422185 0.6061483
vt 0.3381274 0.65
vt 0.3426503 0.6074492
vt 0.3359153 0.65
vt 0.3381274 0.65
vt 0.3422185 0.6061483
vt 0.3440275 0.65
vt 0.345776 0.65
vt 0.345776 0.6425263
vt 0.3426936 0.65
vt 0.345776 0.6333903
vt 0.345776 0.6231446
vt 0.3442914 0.6123931
vt 0.3437862 0.6108711
vt 0.345776 0.6168653
vt 0.3448261 0.6140038
vt 0.345776 0.6231446
vt 0.3442914 0.6123931
vt 0.3413807 0.65
vt 0.345776 0.6333903
vt 0.3401184 0.65
vt 0.3437862 0.6108711
vt 0.3433521 0.6095635
vt 0.3426503 0.6074492
vt 0.3401184 0.65
vt 0.3381274 0.65
vt 0.3320236 0.6048387
vt 0.3320236 0.65
vt 0.3359153 0.65
vt 0.3422185 0.6061483
vt 0.08649816 0.7061988
vt 0.0902263 0.3167371
vt 0.07809445 0.3464658
vt 0.07809439 0.215057
vt 0.0902263 0.3167371
vt 0.0932274 0.003225803
vt 0.07809439 0.215057
vt 0.0780943 0.003225803
vt 0.08496162 0.7012367
vt 0.07913802 0.05806452
vt 0.07913802 0.7741935
vt 0.09276768 0.05806452
vt 0.332085 0.6483618
vt 0.332085 0.6497984
vt 0.3457146 0.6485778
vt 0.3457146 0.644961
vt 0.332085 0.6437201
vt 0.3457146 0.6467459
vt 0.3457146 0.6387659
vt 0.332085 0.6384507
vt 0.3457146 0.6389757
vt 0.3457146 0.6387659
vt 0.332085 0.6360481
vt 0.332085 0.6384507
vt 0.3457146 0.6374484
vt 0.332085 0.6241902
vt 0.3457146 0.63782
vt 0.3457146 0.6371087
vt 0.332085 0.6131426
vt 0.332085 0.6216242
vt 0.3449448 0.6050408
vt 0.3457146 0.6318253
vt 0.3457146 0.63068
vt 0.3449448 0.6050408
vt 0.3457146 0.63068
vt 0.3453678 0.6050408
vt 0.3327805 0.6497984
vt 0.3457146 0.6497984
vt 0.3457146 0.6485778
vt 0.332085 0.6497984
vt 0.332085 0.6483618
vt 0.3457146 0.6485778
vt 0.3457146 0.6467459
vt 0.332085 0.6437201
vt 0.3457146 0.6438966
vt 0.332085 0.6437201
vt 0.332085 0.6424273
vt 0.3457146 0.6426544
vt 0.332085 0.6424273
vt 0.3457146 0.6438966
vt 0.332085 0.6413976
vt 0.332085 0.6413976
vt 0.3457146 0.6426544
vt 0.3457146 0.6411502
vt 0.332085 0.6405302
vt 0.3457146 0.6391823
vt 0.332085 0.6397486
vt 0.332085 0.6405302
vt 0.3457146 0.6411502
vt 0.332085 0.6384507
vt 0.332085 0.6397486
vt 0.3457146 0.6391823
vt 0.3457146 0.6385148
vt 0.332085 0.6360481
vt 0.3457146 0.6387659
vt 0.332085 0.6325744
vt 0.3457146 0.6385148
vt 0.3457146 0.6381126
vt 0.332085 0.6325744
vt 0.332085 0.6270232
vt 0.332085 0.6270232
vt 0.3457146 0.6381126
vt 0.3457146 0.63782
vt 0.332085 0.6241902
vt 0.332085 0.6216242
vt 0.332085 0.6241902
vt 0.3457146 0.6374484
vt 0.3457146 0.6371087
vt 0.3457146 0.6371087
vt 0.3457146 0.6367536
vt 0.332085 0.6131426
vt 0.332085 0.6050408
vt 0.3457146 0.6367536
vt 0.3328848 0.6050408
vt 0.332085 0.6050408
vt 0.3457146 0.6362495
vt 0.3457146 0.6358219
vt 0.3328848 0.6050408
vt 0.3334126 0.6050408
vt 0.3457146 0.6358219
vt 0.3457146 0.6352984
vt 0.3334126 0.6050408
vt 0.3341455 0.6050408
vt 0.3457146 0.6352984
vt 0.3457146 0.634885
vt 0.3341455 0.6050408
vt 0.3357729 0.6050408
vt 0.3457146 0.634885
vt 0.3457146 0.6344022
vt 0.3357729 0.6050408
vt 0.3415039 0.6050408
vt 0.3457146 0.6338709
vt 0.3415039 0.6050408
vt 0.3457146 0.6344022
vt 0.3424584 0.6050408
vt 0.3424584 0.6050408
vt 0.3457146 0.6338709
vt 0.3457146 0.6332609
vt 0.3433014 0.6050408
vt 0.3457146 0.6332609
vt 0.3457146 0.6326251
vt 0.3433014 0.6050408
vt 0.3444263 0.6050408
vt 0.3457146 0.6318253
vt 0.3444263 0.6050408
vt 0.3457146 0.6326251
vt 0.3449448 0.6050408
vt 0.3457146 0.63068
vt 0.3457145 0.627895
vt 0.3453678 0.6050408
vt 0.3455955 0.6050408
vt 0.3457145 0.6233315
vt 0.3455955 0.6050408
vt 0.3457145 0.627895
vt 0.3457146 0.6050408
vt 0.3322691 0.6420217
vt 0.3322691 0.6432796
vt 0.3329459 0.6491936
vt 0.3322691 0.6420217
vt 0.3329459 0.6491936
vt 0.3452076 0.6450583
vt 0.3322691 0.6381525
vt 0.3322691 0.6394154
vt 0.3455305 0.6388643
vt 0.3455305 0.6375315
vt 0.3322691 0.6324351
vt 0.3322691 0.6358149
vt 0.3322691 0.6324351
vt 0.3455305 0.6375315
vt 0.3322691 0.6270339
vt 0.3455305 0.636964
vt 0.3322691 0.6242774
vt 0.3455305 0.6372834
vt 0.3455305 0.6367629
vt 0.3322691 0.6135285
vt 0.3322691 0.6217808
vt 0.3322691 0.6477958
vt 0.3322691 0.6491936
vt 0.3329459 0.6491936
vt 0.3322691 0.6432796
vt 0.3322691 0.6394154
vt 0.3322691 0.6420217
vt 0.3452076 0.6450583
vt 0.3455305 0.6388643
vt 0.3322691 0.6381525
vt 0.3455305 0.6388643
vt 0.3455305 0.6375315
vt 0.3322691 0.6358149
vt 0.3322691 0.6270339
vt 0.3455305 0.6375315
vt 0.3455305 0.6372834
vt 0.3322691 0.6242774
vt 0.3322691 0.6217808
vt 0.3322691 0.6242774
vt 0.3455305 0.636964
vt 0.3455305 0.6367629
vt 0.3455305 0.6367629
vt 0.3455305 0.636432
vt 0.3322691 0.6135285
vt 0.3322691 0.6056457
vt 0.3330474 0.6056457
vt 0.3322691 0.6056457
vt 0.3455305 0.636432
vt 0.3455305 0.636146
vt 0.3455305 0.6357816
vt 0.3330474 0.6056457
vt 0.3455305 0.636146
vt 0.3335609 0.6056457
vt 0.3455305 0.6353314
vt 0.3335609 0.6056457
vt 0.3455305 0.6357816
vt 0.334274 0.6056457
vt 0.3455305 0.6353314
vt 0.3455305 0.6346724
vt 0.334274 0.6056457
vt 0.3358574 0.6056457
vt 0.3455305 0.6346724
vt 0.3455305 0.6340186
vt 0.3358574 0.6056457
vt 0.3414336 0.6056457
vt 0.3455305 0.6334798
vt 0.3414336 0.6056457
vt 0.3455305 0.6340186
vt 0.3423623 0.6056457
vt 0.3423623 0.6056457
vt 0.3455305 0.6334798
vt 0.3455305 0.6330911
vt 0.3431824 0.6056457
vt 0.3455305 0.6330911
vt 0.3455305 0.6325166
vt 0.3431824 0.6056457
vt 0.344277 0.6056457
vt 0.3455305 0.6318813
vt 0.344277 0.6056457
vt 0.3455305 0.6325166
vt 0.3447815 0.6056457
vt 0.3447815 0.6056457
vt 0.3455305 0.6318813
vt 0.3455305 0.6314801
vt 0.345193 0.6056457
vt 0.3455305 0.6314801
vt 0.3455305 0.6305836
vt 0.345193 0.6056457
vt 0.3454146 0.6056457
vt 0.3455305 0.6233126
vt 0.3454146 0.6056457
vt 0.3455305 0.6305836
vt 0.3455305 0.6056457
vt 0.07951784 0.003225803
vt 0.0780943 0.003225803
vt 0.0780943 0.3452395
vt 0.0780943 0.3452395
vt 0.08992325 0.003225803
vt 0.07951784 0.003225803
vt 0.0780943 0.3452395
vt 0.08431819 0.8290322
vt 0.08992325 0.003225803
vt 0.07838491 0.8290322
vn 0 0 -1
vn 0 0 -1
vn 0 0 -1
vn 0 0 -1
vn 0 0 -1
vn 0 0 -1
vn 0 0 -1
vn 0 0 -1
vn 0 0 -1
vn 0 0 -1
vn 0 0 -1
vn 0 0 -1
vn 0 0 -1
vn 0 0 -1
vn 0 0 -1
vn 0 0 -1
vn 0 0 -1
vn 0 0 -1
vn 0 0 -1
vn 0 0 -1
vn 0 0 -1
vn 0 0 -1
vn 0 0 -1
vn 0 0 -1
vn 0 0 -1
vn 0 0 -1
vn 0 0 -1
vn 0 0 -1
vn 0 0 -1
vn 0 0 -1
vn 0 0 -1
vn 0 0 -1
vn 0 0 -1
vn 0 0 -1
vn 0 0 -1
vn 0 0 -1
vn 0 0 -1
vn 0 0 -1
vn 0 0 -1
vn 0 0 -1
vn 0 0 -1
vn 0 0 -1
vn 0 0 -1
vn 0 0 -1
vn 0 0 -1
vn 0 0 -1
vn 0 0 -1
vn 0 0 -1
vn 0 0 -1
vn 0 0 -1
vn 0 0 -1
vn 0 0 -1
vn 0 0 -1
vn 0 0 -1
vn 0 0 -1
vn 0 0 -1
vn 0 0 -1
vn 0 0 -1
vn 0 0 -1
vn 0 0 -1
vn 0 0 -1
vn 0 0 -1
vn 0 0 -1
vn 0 0 -1
vn 0 0 -1
vn 0 0 -1
vn 0 0 -1
vn 0 0 -1
vn 0 0 -1
vn 0 0 -1
vn 0 0 -1
vn 0 0 -1
vn 0 0 -1
vn 0 0 -1
vn 0 0 -1
vn 0 0 -1
vn 0 0 -1
vn 0 0 -1
vn 0 0 -1
vn 0 0 -1
vn 0 0 -1
vn 0 0 -1
vn 0 0 -1
vn 0 0 -1
vn 0 0 -1
vn 0 0 -1
vn 0 0 -1
vn 0 0 -1
vn 0 0 -1
vn 0 0 -1
vn 0 0 -1
vn 0 0 -1
vn 0 0 -1
vn 0 0 -1
vn 0 0 -1
vn 0 0 -1
vn 0 0 -1
vn 0 0 -1
vn 0 0 -1
vn 0 0 -1
vn 0 0 -1
vn 0 0 -1
vn 0 0 -1
vn 0 0 -1
vn 0 0 -1
vn 0 0 -1
vn 0 0 -1
vn 0 0 -1
vn 0 0 -1
vn 0 0 -1
vn 0 0 -1
vn 0 0 -1
vn 0 0 -1
vn 0 0 -1
vn 0 0 -1
vn 0 0 -1
vn 0 0 -1
vn 0 0 -1
vn 0 0 -1
vn 0 0 -1
vn 0 0 -1
vn 0 0 -1
vn 0 0 -1
vn 0 0 -1
vn 0 0 -1
vn 0 0 -1
vn 0 0 -1
vn 0 0 -1
vn 0 0 -1
vn 0 0 -1
vn 0 0 -1
vn 0 0 -1
vn 0 0 -1
vn 0 0 -1
vn 0 0 -1
vn 0 0 -1
vn 0 0 -1
vn 0 0 -1
vn 0 0 -1
vn 0 0 -1
vn 0 0 -1
vn 0 0 -1
vn 0 0 -1
vn 0 0 -1
vn 0 0 -1
vn 0 0 -1
vn 0 0 -1
vn 0 0 -1
vn 0 0 -1
vn 0 0 -1
vn 0 0 -1
vn 0 0 -1
vn 0 0 -1
vn 0 0 -1
vn 0 0 -1
vn 0 0 -1
vn 0 0 -1
vn 0 0 -1
vn 0 0 -1
vn 0 0 -1
vn 0 0 -1
vn 0 0 -1
vn 0 0 -1
vn 0 0 -1
vn 0 0 -1
vn 0 0 -1
vn 0 0 -1
vn 0 0 -1
vn 0 0 -1
vn 0 0 -1
vn 0 0 -1
vn 0 0 -1
vn 0 0 -1
vn 0 0 -1
vn 0 0 -1
vn 0 0 -1
vn 0 0 -1
vn 0 0 -1
vn 0 0 -1
vn 0 0 -1
vn 0 0 -1
vn 0 0 -1
vn 0 0 -1
vn 0 0 -1
vn 0 0 -1
vn 0 0 -1
vn 0 0 -1
vn 0 0 -1
vn 0 0 -1
vn 0 0 -1
vn 0 0 -1
vn 0 0 -1
vn 0 0 -1
vn 0 0 -1
vn 0 0 -1
vn 0 0 -1
vn 0 0 -1
vn 0 0 -1
vn 0 0 -1
vn 0 0 -1
vn 0 0 -1
vn 0 0 -1
vn 0 0 -1
vn 0 0 -1
vn 0 0 -1
vn 0 0 -1
vn 0 0 -1
vn 0 0 -1
vn 0 0 -1
vn 0 0 -1
vn 0 0 -1
vn 0 0 -1
vn 0 0 -1
vn 0 0 -1
vn 0 0 -1
vn 0 0 -1
vn 0 0 -1
vn 0 0 -1
vn 0 0 -1
vn 0 0 -1
vn 0 0 -1
vn 0 0 -1
vn 0 0 -1
vn 0 0 -1
vn 0 0 -1
vn 0 0 -1
vn 0 0 -1
vn 0 0 -1
vn 0 0 -1
vn 0 0 -1
vn 0 0 -1
vn 0 0 -1
vn 0 0 -1
vn 0 0 -1
vn 0 0 -1
vn 0 0 -1
vn 0 0 -1
vn 0 0 -1
vn 0 0 -1
vn 0 0 -1
vn 0 0 -1
vn 0 0 -1
vn 0 0 -1
vn 0 0 -1
vn 0 0 -1
vn 0 0 -1
vn 0 0 -1
vn 0 0 -1
vn 0 0 -1
vn 0 0 -1
vn 0 0 -1
vn 0 0 -1
vn 0 0 -1
vn 0 0 -1
vn 0 0 -1
vn 0 0 -1
vn 0 0 -1
vn 0 0 -1
vn 0 0 -1
vn 0 0 -1
vn 0 0 -1
vn 0 0 -1
vn 0 0 -1
vn 0 0 -1
vn 0 0 -1
vn 0 0 -1
vn 0 0 -1
vn 0 0 -1
vn 0 0 -1
vn 0 0 -1
vn 0 0 -1
vn 0 0 -1
vn 0 0 -1
vn 0 0 -1
vn 0 0 -1
vn 0 0 -1
vn 0 0 -1
vn 0 0 -1
vn 0 0 -1
vn 0 0 -1
vn 0 0 -1
vn 0 0 -1
vn 0 0 -1
vn 0 0 -1
vn 0 0 -1
vn 0 0 -1
vn 0 0 -1
vn 0 0 -1
vn 0 0 -1
vn 0 0 -1
vn 0 0 -1
vn 0 0 -1
vn 0 0 -1
vn 0 0 -1
vn 0 0 -1
vn 0 0 -1
vn 0 0 -1
vn 0 0 -1
vn 0 0 -1
vn 0 0 -1
vn 0 0 -1
vn 0 0 -1
vn 0 0 -1
vn 0 0 -1
g worldmap_ep07_6_mesh_0
f 3/3/3 2/2/2 1/1/1
f 6/6/6 5/5/5 4/4/4
f 9/9/9 8/8/8 7/7/7
f 12/12/12 11/11/11 10/10/10
f 13/13/13 12/12/12 10/10/10
f 16/16/16 15/15/15 14/14/14
f 14/14/14 15/15/15 17/17/17
f 20/20/20 19/19/19 18/18/18
f 19/19/19 20/20/20 21/21/21
f 24/24/24 23/23/23 22/22/22
f 25/25/25 23/23/23 24/24/24
f 28/28/28 27/27/27 26/26/26
f 26/26/26 29/29/29 28/28/28
f 32/32/32 31/31/31 30/30/30
f 32/32/32 30/30/30 33/33/33
f 36/36/36 35/35/35 34/34/34
f 34/34/34 35/35/35 37/37/37
f 40/40/40 39/39/39 38/38/38
f 43/43/43 42/42/42 41/41/41
f 46/46/46 45/45/45 44/44/44
f 49/49/49 48/48/48 47/47/47
f 52/52/52 51/51/51 50/50/50
f 55/55/55 54/54/54 53/53/53
f 55/55/55 53/53/53 56/56/56
f 59/59/59 58/58/58 57/57/57
f 57/57/57 60/60/60 59/59/59
f 63/63/63 62/62/62 61/61/61
f 64/64/64 62/62/62 63/63/63
f 67/67/67 66/66/66 65/65/65
f 66/66/66 67/67/67 68/68/68
f 71/71/71 70/70/70 69/69/69
f 71/71/71 72/72/72 70/70/70
f 75/75/75 74/74/74 73/73/73
f 76/76/76 75/75/75 73/73/73
f 79/79/79 78/78/78 77/77/77
f 78/78/78 79/79/79 80/80/80
f 83/83/83 82/82/82 81/81/81
f 82/82/82 83/83/83 84/84/84
f 87/87/87 86/86/86 85/85/85
f 86/86/86 88/88/88 85/85/85
f 91/91/91 90/90/90 89/89/89
f 94/94/94 93/93/93 92/92/92
f 97/97/97 96/96/96 95/95/95
f 100/100/100 99/99/99 98/98/98
f 103/103/103 102/102/102 101/101/101
f 106/106/106 105/105/105 104/104/104
f 109/109/109 108/108/108 107/107/107
f 112/112/112 111/111/111 110/110/110
f 115/115/115 114/114/114 113/113/113
f 115/115/115 113/113/113 116/116/116
f 119/119/119 118/118/118 117/117/117
f 119/119/119 117/117/117 120/120/120
f 92/92/92 122/122/122 121/121/121
f 121/121/121 122/122/122 123/123/123
f 126/126/126 125/125/125 124/124/124
f 124/124/124 125/125/125 127/127/127
f 130/130/130 129/129/129 128/128/128
f 130/130/130 128/128/128 131/131/131
f 134/134/134 133/133/133 132/132/132
f 135/135/135 134/134/134 132/132/132
f 138/138/138 137/137/137 136/136/136
f 138/138/138 136/136/136 97/97/97
f 141/141/141 140/140/140 139/139/139
f 140/140/140 142/142/142 139/139/139
f 145/145/145 144/144/144 143/143/143
f 146/146/146 144/144/144 145/145/145
f 149/149/149 148/148/148 147/147/147
f 149/149/149 147/147/147 150/150/150
f 153/153/153 152/152/152 151/151/151
f 153/153/153 151/151/151 154/154/154
f 157/157/157 156/156/156 155/155/155
f 158/158/158 156/156/156 157/157/157
f 161/161/161 160/160/160 159/159/159
f 160/160/160 162/162/162 159/159/159
f 162/162/162 164/164/164 163/163/163
f 164/164/164 165/165/165 163/163/163
f 168/168/168 167/167/167 166/166/166
f 169/169/169 167/167/167 168/168/168
f 172/172/172 171/171/171 170/170/170
f 172/172/172 173/173/173 171/171/171
f 176/176/176 175/175/175 174/174/174
f 176/176/176 177/177/177 175/175/175
f 180/180/180 179/179/179 178/178/178
f 178/178/178 179/179/179 181/181/181
f 184/184/184 183/183/183 182/182/182
f 185/185/185 184/184/184 182/182/182
f 188/188/188 187/187/187 186/186/186
f 188/188/188 189/189/189 187/187/187
f 192/192/192 191/191/191 190/190/190
f 190/190/190 191/191/191 193/193/193
f 196/196/196 195/195/195 194/194/194
f 196/196/196 197/197/197 195/195/195
f 200/200/200 199/199/199 198/198/198
f 201/201/201 198/198/198 199/199/199
f 204/204/204 203/203/203 202/202/202
f 207/207/207 206/206/206 205/205/205
f 210/210/210 209/209/209 208/208/208
f 213/213/213 212/212/212 211/211/211
f 216/216/216 215/215/215 214/214/214
f 219/219/219 218/218/218 217/217/217
f 222/222/222 221/221/221 220/220/220
f 225/225/225 224/224/224 223/223/223
f 225/225/225 223/223/223 226/226/226
f 229/229/229 228/228/228 227/227/227
f 230/230/230 229/229/229 227/227/227
f 233/233/233 232/232/232 231/231/231
f 233/233/233 231/231/231 234/234/234
f 237/237/237 236/236/236 235/235/235
f 237/237/237 235/235/235 238/238/238
f 241/241/241 240/240/240 239/239/239
f 241/241/241 239/239/239 242/242/242
f 245/245/245 244/244/244 243/243/243
f 246/246/246 244/244/244 245/245/245
f 249/249/249 248/248/248 247/247/247
f 249/249/249 247/247/247 250/250/250
f 253/253/253 252/252/252 251/251/251
f 251/251/251 252/252/252 254/254/254
f 257/257/257 256/256/256 255/255/255
f 256/256/256 258/258/258 255/255/255
f 261/261/261 260/260/260 259/259/259
f 261/261/261 262/262/262 260/260/260
f 265/265/265 264/264/264 263/263/263
f 265/265/265 266/266/266 264/264/264
f 269/269/269 268/268/268 267/267/267
f 267/267/267 268/268/268 270/270/270
f 273/273/273 272/272/272 271/271/271
f 274/274/274 273/273/273 271/271/271
f 277/277/277 276/276/276 275/275/275
f 277/277/277 278/278/278 276/276/276
f 281/281/281 280/280/280 279/279/279
f 279/279/279 280/280/280 282/282/282
f 285/285/285 284/284/284 283/283/283
f 286/286/286 285/285/285 283/283/283
f 289/289/289 288/288/288 287/287/287
f 289/289/289 290/290/290 288/288/288
f 293/293/293 292/292/292 291/291/291
f 294/294/294 291/291/291 292/292/292
f 297/297/297 296/296/296 295/295/295
f 300/300/300 299/299/299 298/298/298
f 303/303/303 302/302/302 301/301/301
f 302/302/302 304/304/304 301/301/301
