g worldmap_ep02_l4_mesh
v -444.8454 655.0678 0
v -438.0469 667.1829 0
v -487.8191 668.1342 0
v -496.8303 629.7262 0
v -529.6813 652.775 0
v -546.7727 626.4822 0
v -164.195 451.1432 0
v -153.0811 484.8553 0
v -243.2938 502.8878 0
v -520.8604 680.9802 0
v -483.7395 699.8749 0
v -552.3776 691.9661 0
v -520.8604 680.9802 0
v -457.9117 693.3657 0
v -483.7395 699.8749 0
v -497.6614 674.5522 0
v -497.6614 674.5522 0
v -442.4524 680.1792 0
v -457.9117 693.3657 0
v -491.5237 671.9289 0
v -438.0469 667.1829 0
v -442.4524 680.1792 0
v -491.5237 671.9289 0
v -487.8191 668.1342 0
v -444.8454 655.0678 0
v -487.8191 668.1342 0
v -490.6826 664.4495 0
v -466.5325 643.4233 0
v -466.5325 643.4233 0
v -490.6826 664.4495 0
v -505.4511 662.1166 0
v -491.6539 635.4033 0
v -491.6539 635.4033 0
v -505.4511 662.1166 0
v -529.6813 652.775 0
v -496.8303 629.7262 0
v -491.3535 622.0666 0
v -496.8303 629.7262 0
v -546.7727 626.4822 0
v -530.7026 600.1192 0
v -530.7026 600.1192 0
v -464.6101 613.3958 0
v -491.3535 622.0666 0
v -495.6388 583.1781 0
v -495.6388 583.1781 0
v -414.7078 601.9916 0
v -464.6101 613.3958 0
v -461.9167 571.093 0
v -461.9167 571.093 0
v -370.5827 594.2219 0
v -414.7078 601.9916 0
v -413.3361 557.5261 0
v -323.1134 583.0479 0
v -370.5827 594.2219 0
v -413.3361 557.5261 0
v -358.3374 544.4498 0
v -278.3576 572.2945 0
v -323.1134 583.0479 0
v -358.3374 544.4498 0
v -311.1885 532.4247 0
v -225.7118 559.5486 0
v -278.3576 572.2945 0
v -311.1885 532.4247 0
v -269.0259 521.511 0
v -186.4028 544.0292 0
v -225.7118 559.5486 0
v -269.0259 521.511 0
v -248.5103 511.859 0
v -159.9698 516.1544 0
v -186.4028 544.0292 0
v -248.5103 511.859 0
v -243.7644 507.6938 0
v -153.0811 484.8553 0
v -159.9698 516.1544 0
v -243.7644 507.6938 0
v -243.2938 502.8878 0
v -182.638 431.1883 0
v -254.1346 494.0972 0
v -297.3112 481.5312 0
v -218.9634 405.4061 0
v -340.0045 471.6188 0
v -263.3889 381.1358 0
v -218.9634 405.4061 0
v -297.3112 481.5312 0
v -263.3889 381.1358 0
v -340.0045 471.6188 0
v -379.4037 467.2233 0
v -317.8969 369.9218 0
v -429.5063 457.0906 0
v -365.0157 360.2998 0
v -317.8969 369.9218 0
v -379.4037 467.2233 0
v -365.0157 360.2998 0
v -429.5063 457.0906 0
v -475.3435 437.9668 0
v -397.4262 344.6102 0
v -523.033 397.0157 0
v -437.7565 294.1472 0
v -397.4262 344.6102 0
v -475.3435 437.9668 0
v -437.7565 294.1472 0
v -523.033 397.0157 0
v -577.9415 359.7592 0
v -483.5537 251.2937 0
v -622.9077 336.9206 0
v -546.9429 226.3826 0
v -483.5537 251.2937 0
v -577.9415 359.7592 0
v -546.9429 226.3826 0
v -622.9077 336.9206 0
v -700.074 325.4563 0
v -625.571 187.3839 0
v -772.6447 292.6754 0
v -691.203 144.4103 0
v -625.571 187.3839 0
v -700.074 325.4563 0
v -748.6647 103.6494 0
v -772.6447 292.6754 0
v -849.801 222.5979 0
v -813.5056 54.19767 0
v -748.6647 103.6494 0
v -849.801 222.5979 0
v -915.8434 148.4554 0
v -929.5204 -47.99992 0
v -813.5056 54.19767 0
v -915.8434 148.4554 0
v -1026.912 22.12763 0
v -929.5204 -47.99992 0
v -1090.211 -67.23394 0
v -972.8846 -110.6581 0
v -1132.514 -174.2075 0
v -980.1937 -173.7269 0
v -972.8846 -110.6581 0
v -1090.211 -67.23394 0
v -966.9472 -239.1786 0
v -1132.514 -174.2075 0
v -1136.719 -239.9095 0
v -959.578 -309.6666 0
v -966.9472 -239.1786 0
v -1136.719 -239.9095 0
v -1128.439 -318.8981 0
v -960.2889 -442.3523 0
v -959.578 -309.6666 0
v -1128.439 -318.8981 0
v -1093.946 -480.4198 0
v -960.2889 -442.3523 0
v -1018.041 -608.7801 0
v -917.8959 -542.5974 0
v -845.4955 -742.8674 0
v -805.4456 -623.4784 0
v -917.8959 -542.5974 0
v -1018.041 -608.7801 0
v -673.5709 -659.6335 0
v -845.4955 -742.8674 0
v -735.5082 -766.0464 0
v -553.2006 -697.9914 0
v -673.5709 -659.6335 0
v -735.5082 -766.0464 0
v -593.8613 -799.5282 0
v -553.2006 -697.9914 0
v -457.5211 -846.3066 0
v -445.3359 -721.4407 0
v -298.9832 -898.6719 0
v -304.9406 -740.6647 0
v -445.3359 -721.4407 0
v -457.5211 -846.3066 0
v -172.255 -765.4056 0
v -298.9832 -898.6719 0
v -172.275 -895.2877 0
v -2.10257 -749.9062 0
v -172.255 -765.4056 0
v -172.275 -895.2877 0
v -41.92227 -913.2202 0
v 125.2965 -767.8887 0
v -2.10257 -749.9062 0
v -41.92227 -913.2202 0
v 92.51557 -925.6957 0
v 268.8157 -840.1189 0
v 125.2965 -767.8887 0
v 92.51557 -925.6957 0
v 219.8646 -994.3013 0
v 406.5677 -926.9673 0
v 268.8157 -840.1189 0
v 219.8646 -994.3013 0
v 366.2774 -1073.56 0
v 551.6888 -976.3589 0
v 406.5677 -926.9673 0
v 366.2774 -1073.56 0
v 535.6789 -1123.973 0
v 680.1492 -996.2137 0
v 551.6888 -976.3589 0
v 535.6789 -1123.973 0
v 695.4683 -1150.376 0
v 819.3931 -981.175 0
v 680.1492 -996.2137 0
v 695.4683 -1150.376 0
v 858.7222 -1135.157 0
v 934.7371 -917.5054 0
v 819.3931 -981.175 0
v 858.7222 -1135.157 0
v 994.2113 -1086.386 0
v 1015.218 -870.4768 0
v 934.7371 -917.5054 0
v 994.2113 -1086.386 0
v 1118.587 -1009.731 0
v 1083.262 -810.7321 0
v 1015.218 -870.4768 0
v 1118.587 -1009.731 0
v 1192.038 -935.1275 0
v 1111.267 -748.8849 0
v 1083.262 -810.7321 0
v 1192.038 -935.1275 0
v 1255.247 -845.3054 0
v 1120.969 -687.4282 0
v 1111.267 -748.8849 0
v 1255.247 -845.3054 0
v 1276.394 -723.6134 0
v 1124.304 -623.1479 0
v 1120.969 -687.4282 0
v 1276.394 -723.6134 0
v 1273.87 -611.924 0
v 1109.996 -556.1944 0
v 1124.304 -623.1479 0
v 1273.87 -611.924 0
v 1246.887 -483.8741 0
v 1054.897 -487.1582 0
v 1109.996 -556.1944 0
v 1246.887 -483.8741 0
v 1172.894 -393.9919 0
v 915.8334 -381.5363 0
v 1054.897 -487.1582 0
v 1172.894 -393.9919 0
v 1000.299 -276.1047 0
v 784.8099 -279.7693 0
v 915.8334 -381.5363 0
v 1000.299 -276.1047 0
v 865.4405 -182.3076 0
v 671.9389 -201.4315 0
v 784.8099 -279.7693 0
v 865.4405 -182.3076 0
v 769.4306 -111.6794 0
v 560.2394 -107.9948 0
v 671.9389 -201.4315 0
v 769.4306 -111.6794 0
v 680.84 -40.58066 0
v 524.9153 11.50436 0
v 560.2394 -107.9948 0
v 680.84 -40.58066 0
v 637.9265 37.92735 0
v 506.0618 145.4916 0
v 524.9153 11.50436 0
v 637.9265 37.92735 0
v 632.7599 129.1813 0
v 554.6624 267.0434 0
v 506.0618 145.4916 0
v 632.7599 129.1813 0
v 654.8375 216.4202 0
v 653.6861 377.5714 0
v 554.6624 267.0434 0
v 654.8375 216.4202 0
v 731.5733 313.8218 0
v 779.1727 444.555 0
v 653.6861 377.5714 0
v 731.5733 313.8218 0
v 814.3166 370.4225 0
v 867.9736 496.62 0
v 779.1727 444.555 0
v 814.3166 370.4225 0
v 890.1113 393.1008 0
v 1012.554 528.5599 0
v 867.9736 496.62 0
v 890.1113 393.1008 0
v 1016.028 404.9956 0
v 1213.255 496.1194 0
v 1012.554 528.5599 0
v 1016.028 404.9956 0
v 1173.265 374.4976 0
v 1389.905 450.6726 0
v 1213.255 496.1194 0
v 1173.265 374.4976 0
v 1353.179 322.5126 0
v 1550.796 371.2735 0
v 1389.905 450.6726 0
v 1353.179 322.5126 0
v 1516.523 215.2888 0
v 1684.022 332.0145 0
v 1550.796 371.2735 0
v 1516.523 215.2888 0
v 1662.666 163.5141 0
v 1808.147 309.3863 0
v 1684.022 332.0145 0
v 1662.666 163.5141 0
v 1806.485 160.3902 0
v 2063.086 276.325 0
v 1808.147 309.3863 0
v 1806.485 160.3902 0
v 2062.415 132.145 0
v -164.195 451.1432 0
v -243.2938 502.8878 0
v -254.1346 494.0972 0
v -182.638 431.1883 0
vt 0.1289063 0.2378768
vt 0.1289063 0.2474208
vt 0.1914063 0.2400328
vt 0.1289063 0.1951472
vt 0.1914063 0.204872
vt 0.1914063 0.1775635
vt 0.1289063 -0.0684256
vt 0.1289063 -0.03522021
vt 0.1914063 -0.0458349
vt 0.1914063 0.2686455
vt 0.1289063 0.2792854
vt 0.1914063 0.2794737
vt 0.1914063 0.2686455
vt 0.1289063 0.2709166
vt 0.1289063 0.2792854
vt 0.1914063 0.2598212
vt 0.1914063 0.2598212
vt 0.1289063 0.2598325
vt 0.1289063 0.2709166
vt 0.1914063 0.2509662
vt 0.1289063 0.2474208
vt 0.1289063 0.2598325
vt 0.1914063 0.2509662
vt 0.1914063 0.2400328
vt 0.1289063 0.2378768
vt 0.1914063 0.2400328
vt 0.1914063 0.2288768
vt 0.1289063 0.2249003
vt 0.1289063 0.2249003
vt 0.1914063 0.2288768
vt 0.1914063 0.2168521
vt 0.1289063 0.2148782
vt 0.1289063 0.2148782
vt 0.1914063 0.2168521
vt 0.1914063 0.204872
vt 0.1289063 0.1951472
vt 0.1289063 0.1703328
vt 0.1289063 0.1951472
vt 0.1914063 0.1775635
vt 0.1914063 0.1534385
vt 0.1914063 0.1534385
vt 0.1289063 0.1595314
vt 0.1289063 0.1703328
vt 0.1914063 0.1403826
vt 0.1914063 0.1403826
vt 0.1289063 0.1449957
vt 0.1289063 0.1595314
vt 0.1914063 0.131078
vt 0.1914063 0.131078
vt 0.1289063 0.1316166
vt 0.1289063 0.1449957
vt 0.1914063 0.1183615
vt 0.1289063 0.1142571
vt 0.1289063 0.1316166
vt 0.1914063 0.1183615
vt 0.1914063 0.1095762
vt 0.1289063 0.09906629
vt 0.1289063 0.1142571
vt 0.1914063 0.1095762
vt 0.1914063 0.07991692
vt 0.1289063 0.07504702
vt 0.1289063 0.09906629
vt 0.1914063 0.07991692
vt 0.1914063 0.05702084
vt 0.1289063 0.01717675
vt 0.1289063 0.07504702
vt 0.1914063 0.05702084
vt 0.1914063 0.007293284
vt 0.1289063 -0.007000029
vt 0.1289063 0.01717675
vt 0.1914063 0.007293284
vt 0.1914063 -0.01871109
vt 0.1289063 -0.03522021
vt 0.1289063 -0.007000029
vt 0.1914063 -0.01871109
vt 0.1914063 -0.0458349
vt 0.1289063 1.99335
vt 0.1914063 1.99335
vt 0.1914063 1.9605
vt 0.1289063 1.957385
vt 0.1914063 1.923892
vt 0.1289063 1.923893
vt 0.1289063 1.957385
vt 0.1914063 1.9605
vt 0.1289063 1.923893
vt 0.1914063 1.923892
vt 0.1914063 1.892636
vt 0.1289063 1.887517
vt 0.1914063 1.854434
vt 0.1289063 1.854435
vt 0.1289063 1.887517
vt 0.1914063 1.892636
vt 0.1289063 1.854435
vt 0.1914063 1.854434
vt 0.1914063 1.818666
vt 0.1289063 1.817525
vt 0.1914063 1.784976
vt 0.1289063 1.784977
vt 0.1289063 1.817525
vt 0.1914063 1.818666
vt 0.1289063 1.784977
vt 0.1914063 1.784976
vt 0.1914063 1.754311
vt 0.1289063 1.750127
vt 0.1914063 1.715518
vt 0.1289063 1.715519
vt 0.1289063 1.750127
vt 0.1914063 1.754311
vt 0.1289063 1.715519
vt 0.1914063 1.715518
vt 0.1914063 1.685891
vt 0.1289063 1.681628
vt 0.1914063 1.646059
vt 0.1289063 1.64606
vt 0.1289063 1.681628
vt 0.1914063 1.685891
vt 0.1289063 1.613763
vt 0.1914063 1.646059
vt 0.1914063 1.610741
vt 0.1289063 1.576602
vt 0.1289063 1.613763
vt 0.1914063 1.610741
vt 0.1914063 1.576602
vt 0.1289063 1.507144
vt 0.1289063 1.576602
vt 0.1914063 1.576602
vt 0.1914063 1.507143
vt 0.1289063 1.507144
vt 0.1914063 1.469376
vt 0.1289063 1.469185
vt 0.1914063 1.437685
vt 0.1289063 1.437686
vt 0.1289063 1.469185
vt 0.1914063 1.469376
vt 0.1289063 1.419671
vt 0.1914063 1.437685
vt 0.1914063 1.417677
vt 0.1289063 1.403845
vt 0.1289063 1.419671
vt 0.1914063 1.417677
vt 0.1914063 1.402874
vt 0.1289063 1.368228
vt 0.1289063 1.403845
vt 0.1914063 1.402874
vt 0.1914063 1.368227
vt 0.1289063 1.368228
vt 0.1914063 1.337818
vt 0.1289063 1.336604
vt 0.1914063 1.298769
vt 0.1289063 1.29877
vt 0.1289063 1.336604
vt 0.1914063 1.337818
vt 0.1289063 1.264152
vt 0.1914063 1.298769
vt 0.1914063 1.259092
vt 0.1289063 1.229312
vt 0.1289063 1.264152
vt 0.1914063 1.259092
vt 0.1914063 1.229311
vt 0.1289063 1.229312
vt 0.1914063 1.196565
vt 0.1289063 1.195723
vt 0.1914063 1.159853
vt 0.1289063 1.159853
vt 0.1289063 1.195723
vt 0.1914063 1.196565
vt 0.1289063 1.123076
vt 0.1914063 1.159853
vt 0.1914063 1.117734
vt 0.1289064 1.075654
vt 0.1289063 1.123076
vt 0.1914063 1.117734
vt 0.1914056 1.073234
vt 0.1289063 1.020937
vt 0.1289064 1.075654
vt 0.1914056 1.073234
vt 0.1914063 1.020936
vt 0.1289063 0.9514788
vt 0.1289063 1.020937
vt 0.1914063 1.020936
vt 0.1914063 0.9514779
vt 0.1289063 0.8820207
vt 0.1289063 0.9514788
vt 0.1914063 0.9514779
vt 0.1914063 0.8820198
vt 0.1289063 0.8125626
vt 0.1289063 0.8820207
vt 0.1914063 0.8820198
vt 0.1914063 0.8125616
vt 0.1289063 0.7431045
vt 0.1289063 0.8125626
vt 0.1914063 0.8125616
vt 0.1914063 0.7431033
vt 0.1289063 0.6736462
vt 0.1289063 0.7431045
vt 0.1914063 0.7431033
vt 0.1914063 0.6736451
vt 0.1289063 0.604188
vt 0.1289063 0.6736462
vt 0.1914063 0.6736451
vt 0.1914063 0.604187
vt 0.1289063 0.5347298
vt 0.1289063 0.604188
vt 0.1914063 0.604187
vt 0.1914063 0.5347288
vt 0.1289063 0.4652716
vt 0.1289063 0.5347298
vt 0.1914063 0.5347288
vt 0.1914063 0.4652707
vt 0.1289063 0.3958134
vt 0.1289063 0.4652716
vt 0.1914063 0.4652707
vt 0.1914063 0.3958125
vt 0.1289063 0.3263552
vt 0.1289063 0.3958134
vt 0.1914063 0.3958125
vt 0.1914063 0.3263543
vt 0.1289063 0.2568971
vt 0.1289063 0.3263552
vt 0.1914063 0.3263543
vt 0.1914063 0.2568962
vt 0.1289063 0.1874389
vt 0.1289063 0.2568971
vt 0.1914063 0.2568962
vt 0.1914063 0.187438
vt 0.1289063 0.1179807
vt 0.1289063 0.1874389
vt 0.1914063 0.187438
vt 0.1914063 0.1179798
vt 0.1289063 0.0485225
vt 0.1289063 0.1179807
vt 0.1914063 0.1179798
vt 0.1914063 0.04852158
vt 0.1289063 -0.02093571
vt 0.1289063 0.0485225
vt 0.1914063 0.04852158
vt 0.1914063 -0.02093661
vt 0.1289063 -0.09039378
vt 0.1289063 -0.02093571
vt 0.1914063 -0.02093661
vt 0.1914063 -0.09039474
vt 0.1289063 -0.159852
vt 0.1289063 -0.09039378
vt 0.1914063 -0.09039474
vt 0.1914063 -0.1598529
vt 0.1289063 -0.2293103
vt 0.1289063 -0.159852
vt 0.1914063 -0.1598529
vt 0.1914063 -0.2293111
vt 0.1289063 -0.2987684
vt 0.1289063 -0.2293103
vt 0.1914063 -0.2293111
vt 0.1914063 -0.2987694
vt 0.1289063 -0.3682266
vt 0.1289063 -0.2987684
vt 0.1914063 -0.2987694
vt 0.1914063 -0.3682275
vt 0.1289063 -0.4376848
vt 0.1289063 -0.3682266
vt 0.1914063 -0.3682275
vt 0.1914063 -0.4376857
vt 0.1289063 -0.507143
vt 0.1289063 -0.4376848
vt 0.1914063 -0.4376857
vt 0.1914063 -0.507144
vt 0.1289063 -0.5766011
vt 0.1289063 -0.507143
vt 0.1914063 -0.507144
vt 0.1914063 -0.576602
vt 0.1289063 -0.6460594
vt 0.1289063 -0.5766011
vt 0.1914063 -0.576602
vt 0.1914063 -0.6460602
vt 0.1289063 -0.7155175
vt 0.1289063 -0.6460594
vt 0.1914063 -0.6460602
vt 0.1914063 -0.7155184
vt 0.1289063 -0.7849756
vt 0.1289063 -0.7155175
vt 0.1914063 -0.7155184
vt 0.1914063 -0.7849766
vt 0.1289063 -0.8544338
vt 0.1289063 -0.7849756
vt 0.1914063 -0.7849766
vt 0.1914063 -0.8544348
vt 0.1289063 -0.923892
vt 0.1289063 -0.8544338
vt 0.1914063 -0.8544348
vt 0.1914063 -0.9238929
vt 0.1289063 -0.9797741
vt 0.1289063 -0.923892
vt 0.1914063 -0.9238929
vt 0.1914063 -0.9809886
vt 0.1289063 -0.9933503
vt 0.1289063 -0.9797741
vt 0.1914063 -0.9809886
vt 0.1914063 -0.9933503
vt 0.1289062 1.112617
vt 0.1914234 1.108601
vt 0.1914507 1.099236
vt 0.1289062 1.099175
vn 0 0 -1
vn 0 0 -1
vn 0 0 -1
vn 0 0 -1
vn 0 0 -1
vn 0 0 -1
vn 0 0 -1
vn 0 0 -1
vn 0 0 -1
vn 0 0 -1
vn 0 0 -1
vn 0 0 -1
vn 0 0 -1
vn 0 0 -1
vn 0 0 -1
vn 0 0 -1
vn 0 0 -1
vn 0 0 -1
vn 0 0 -1
vn 0 0 -1
vn 0 0 -1
vn 0 0 -1
vn 0 0 -1
vn 0 0 -1
vn 0 0 -1
vn 0 0 -1
vn 0 0 -1
vn 0 0 -1
vn 0 0 -1
vn 0 0 -1
vn 0 0 -1
vn 0 0 -1
vn 0 0 -1
vn 0 0 -1
vn 0 0 -1
vn 0 0 -1
vn 0 0 -1
vn 0 0 -1
vn 0 0 -1
vn 0 0 -1
vn 0 0 -1
vn 0 0 -1
vn 0 0 -1
vn 0 0 -1
vn 0 0 -1
vn 0 0 -1
vn 0 0 -1
vn 0 0 -1
vn 0 0 -1
vn 0 0 -1
vn 0 0 -1
vn 0 0 -1
vn 0 0 -1
vn 0 0 -1
vn 0 0 -1
vn 0 0 -1
vn 0 0 -1
vn 0 0 -1
vn 0 0 -1
vn 0 0 -1
vn 0 0 -1
vn 0 0 -1
vn 0 0 -1
vn 0 0 -1
vn 0 0 -1
vn 0 0 -1
vn 0 0 -1
vn 0 0 -1
vn 0 0 -1
vn 0 0 -1
vn 0 0 -1
vn 0 0 -1
vn 0 0 -1
vn 0 0 -1
vn 0 0 -1
vn 0 0 -1
vn 0 0 -1
vn 0 0 -1
vn 0 0 -1
vn 0 0 -1
vn 0 0 -1
vn 0 0 -1
vn 0 0 -1
vn 0 0 -1
vn 0 0 -1
vn 0 0 -1
vn 0 0 -1
vn 0 0 -1
vn 0 0 -1
vn 0 0 -1
vn 0 0 -1
vn 0 0 -1
vn 0 0 -1
vn 0 0 -1
vn 0 0 -1
vn 0 0 -1
vn 0 0 -1
vn 0 0 -1
vn 0 0 -1
vn 0 0 -1
vn 0 0 -1
vn 0 0 -1
vn 0 0 -1
vn 0 0 -1
vn 0 0 -1
vn 0 0 -1
vn 0 0 -1
vn 0 0 -1
vn 0 0 -1
vn 0 0 -1
vn 0 0 -1
vn 0 0 -1
vn 0 0 -1
vn 0 0 -1
vn 0 0 -1
vn 0 0 -1
vn 0 0 -1
vn 0 0 -1
vn 0 0 -1
vn 0 0 -1
vn 0 0 -1
vn 0 0 -1
vn 0 0 -1
vn 0 0 -1
vn 0 0 -1
vn 0 0 -1
vn 0 0 -1
vn 0 0 -1
vn 0 0 -1
vn 0 0 -1
vn 0 0 -1
vn 0 0 -1
vn 0 0 -1
vn 0 0 -1
vn 0 0 -1
vn 0 0 -1
vn 0 0 -1
vn 0 0 -1
vn 0 0 -1
vn 0 0 -1
vn 0 0 -1
vn 0 0 -1
vn 0 0 -1
vn 0 0 -1
vn 0 0 -1
vn 0 0 -1
vn 0 0 -1
vn 0 0 -1
vn 0 0 -1
vn 0 0 -1
vn 0 0 -1
vn 0 0 -1
vn 0 0 -1
vn 0 0 -1
vn 0 0 -1
vn 0 0 -1
vn 0 0 -1
vn 0 0 -1
vn 0 0 -1
vn 0 0 -1
vn 0 0 -1
vn 0 0 -1
vn 0 0 -1
vn 0 0 -1
vn 0 0 -1
vn 0 0 -1
vn 0 0 -1
vn 0 0 -1
vn 0 0 -1
vn 0 0 -1
vn 0 0 -1
vn 0 0 -1
vn 0 0 -1
vn 0 0 -1
vn 0 0 -1
vn 0 0 -1
vn 0 0 -1
vn 0 0 -1
vn 0 0 -1
vn 0 0 -1
vn 0 0 -1
vn 0 0 -1
vn 0 0 -1
vn 0 0 -1
vn 0 0 -1
vn 0 0 -1
vn 0 0 -1
vn 0 0 -1
vn 0 0 -1
vn 0 0 -1
vn 0 0 -1
vn 0 0 -1
vn 0 0 -1
vn 0 0 -1
vn 0 0 -1
vn 0 0 -1
vn 0 0 -1
vn 0 0 -1
vn 0 0 -1
vn 0 0 -1
vn 0 0 -1
vn 0 0 -1
vn 0 0 -1
vn 0 0 -1
vn 0 0 -1
vn 0 0 -1
vn 0 0 -1
vn 0 0 -1
vn 0 0 -1
vn 0 0 -1
vn 0 0 -1
vn 0 0 -1
vn 0 0 -1
vn 0 0 -1
vn 0 0 -1
vn 0 0 -1
vn 0 0 -1
vn 0 0 -1
vn 0 0 -1
vn 0 0 -1
vn 0 0 -1
vn 0 0 -1
vn 0 0 -1
vn 0 0 -1
vn 0 0 -1
vn 0 0 -1
vn 0 0 -1
vn 0 0 -1
vn 0 0 -1
vn 0 0 -1
vn 0 0 -1
vn 0 0 -1
vn 0 0 -1
vn 0 0 -1
vn 0 0 -1
vn 0 0 -1
vn 0 0 -1
vn 0 0 -1
vn 0 0 -1
vn 0 0 -1
vn 0 0 -1
vn 0 0 -1
vn 0 0 -1
vn 0 0 -1
vn 0 0 -1
vn 0 0 -1
vn 0 0 -1
vn 0 0 -1
vn 0 0 -1
vn 0 0 -1
vn 0 0 -1
vn 0 0 -1
vn 0 0 -1
vn 0 0 -1
vn 0 0 -1
vn 0 0 -1
vn 0 0 -1
vn 0 0 -1
vn 0 0 -1
vn 0 0 -1
vn 0 0 -1
vn 0 0 -1
vn 0 0 -1
vn 0 0 -1
vn 0 0 -1
vn 0 0 -1
vn 0 0 -1
vn 0 0 -1
vn 0 0 -1
vn 0 0 -1
vn 0 0 -1
vn 0 0 -1
vn 0 0 -1
vn 0 0 -1
vn 0 0 -1
vn 0 0 -1
vn 0 0 -1
vn 0 0 -1
vn 0 0 -1
vn 0 0 -1
vn 0 0 -1
vn 0 0 -1
vn 0 0 -1
vn 0 0 -1
vn 0 0 -1
vn 0 0 -1
vn 0 0 -1
vn 0 0 -1
vn 0 0 -1
vn 0 0 -1
vn 0 0 -1
vn 0 0 -1
vn 0 0 -1
vn 0 0 -1
vn 0 0 -1
vn 0 0 -1
vn 0 0 -1
vn 0 0 -1
vn 0 0 -1
vn 0 0 -1
vn 0 0 -1
g worldmap_ep02_l4_mesh_0
f 3/3/3 2/2/2 1/1/1
f 6/6/6 5/5/5 4/4/4
f 9/9/9 8/8/8 7/7/7
f 12/12/12 11/11/11 10/10/10
f 15/15/15 14/14/14 13/13/13
f 13/13/13 14/14/14 16/16/16
f 19/19/19 18/18/18 17/17/17
f 20/20/20 17/17/17 18/18/18
f 23/23/23 22/22/22 21/21/21
f 24/24/24 23/23/23 21/21/21
f 27/27/27 26/26/26 25/25/25
f 27/27/27 25/25/25 28/28/28
f 31/31/31 30/30/30 29/29/29
f 31/31/31 29/29/29 32/32/32
f 35/35/35 34/34/34 33/33/33
f 35/35/35 33/33/33 36/36/36
f 39/39/39 38/38/38 37/37/37
f 39/39/39 37/37/37 40/40/40
f 43/43/43 42/42/42 41/41/41
f 41/41/41 42/42/42 44/44/44
f 47/47/47 46/46/46 45/45/45
f 45/45/45 46/46/46 48/48/48
f 51/51/51 50/50/50 49/49/49
f 52/52/52 49/49/49 50/50/50
f 55/55/55 54/54/54 53/53/53
f 56/56/56 55/55/55 53/53/53
f 59/59/59 58/58/58 57/57/57
f 60/60/60 59/59/59 57/57/57
f 63/63/63 62/62/62 61/61/61
f 64/64/64 63/63/63 61/61/61
f 67/67/67 66/66/66 65/65/65
f 68/68/68 67/67/67 65/65/65
f 71/71/71 70/70/70 69/69/69
f 72/72/72 71/71/71 69/69/69
f 75/75/75 74/74/74 73/73/73
f 76/76/76 75/75/75 73/73/73
f 79/79/79 78/78/78 77/77/77
f 79/79/79 77/77/77 80/80/80
f 83/83/83 82/82/82 81/81/81
f 84/84/84 83/83/83 81/81/81
f 87/87/87 86/86/86 85/85/85
f 87/87/87 85/85/85 88/88/88
f 91/91/91 90/90/90 89/89/89
f 92/92/92 91/91/91 89/89/89
f 95/95/95 94/94/94 93/93/93
f 95/95/95 93/93/93 96/96/96
f 99/99/99 98/98/98 97/97/97
f 100/100/100 99/99/99 97/97/97
f 103/103/103 102/102/102 101/101/101
f 103/103/103 101/101/101 104/104/104
f 107/107/107 106/106/106 105/105/105
f 108/108/108 107/107/107 105/105/105
f 111/111/111 110/110/110 109/109/109
f 111/111/111 109/109/109 112/112/112
f 115/115/115 114/114/114 113/113/113
f 116/116/116 115/115/115 113/113/113
f 118/118/118 114/114/114 117/117/117
f 119/119/119 118/118/118 117/117/117
f 122/122/122 121/121/121 120/120/120
f 123/123/123 122/122/122 120/120/120
f 126/126/126 125/125/125 124/124/124
f 127/127/127 126/126/126 124/124/124
f 129/129/129 127/127/127 128/128/128
f 129/129/129 128/128/128 130/130/130
f 133/133/133 132/132/132 131/131/131
f 134/134/134 133/133/133 131/131/131
f 136/136/136 132/132/132 135/135/135
f 137/137/137 136/136/136 135/135/135
f 140/140/140 139/139/139 138/138/138
f 141/141/141 140/140/140 138/138/138
f 144/144/144 143/143/143 142/142/142
f 145/145/145 144/144/144 142/142/142
f 147/147/147 145/145/145 146/146/146
f 147/147/147 146/146/146 148/148/148
f 151/151/151 150/150/150 149/149/149
f 152/152/152 151/151/151 149/149/149
f 154/154/154 150/150/150 153/153/153
f 155/155/155 154/154/154 153/153/153
f 158/158/158 157/157/157 156/156/156
f 159/159/159 158/158/158 156/156/156
f 161/161/161 159/159/159 160/160/160
f 161/161/161 160/160/160 162/162/162
f 165/165/165 164/164/164 163/163/163
f 166/166/166 165/165/165 163/163/163
f 168/168/168 164/164/164 167/167/167
f 169/169/169 168/168/168 167/167/167
f 172/172/172 171/171/171 170/170/170
f 172/172/172 170/170/170 173/173/173
f 176/176/176 175/175/175 174/174/174
f 177/177/177 176/176/176 174/174/174
f 180/180/180 179/179/179 178/178/178
f 181/181/181 180/180/180 178/178/178
f 184/184/184 183/183/183 182/182/182
f 185/185/185 184/184/184 182/182/182
f 188/188/188 187/187/187 186/186/186
f 189/189/189 188/188/188 186/186/186
f 192/192/192 191/191/191 190/190/190
f 193/193/193 192/192/192 190/190/190
f 196/196/196 195/195/195 194/194/194
f 197/197/197 196/196/196 194/194/194
f 200/200/200 199/199/199 198/198/198
f 201/201/201 200/200/200 198/198/198
f 204/204/204 203/203/203 202/202/202
f 205/205/205 204/204/204 202/202/202
f 208/208/208 207/207/207 206/206/206
f 209/209/209 208/208/208 206/206/206
f 212/212/212 211/211/211 210/210/210
f 213/213/213 212/212/212 210/210/210
f 216/216/216 215/215/215 214/214/214
f 217/217/217 216/216/216 214/214/214
f 220/220/220 219/219/219 218/218/218
f 221/221/221 220/220/220 218/218/218
f 224/224/224 223/223/223 222/222/222
f 225/225/225 224/224/224 222/222/222
f 228/228/228 227/227/227 226/226/226
f 229/229/229 228/228/228 226/226/226
f 232/232/232 231/231/231 230/230/230
f 233/233/233 232/232/232 230/230/230
f 236/236/236 235/235/235 234/234/234
f 237/237/237 236/236/236 234/234/234
f 240/240/240 239/239/239 238/238/238
f 241/241/241 240/240/240 238/238/238
f 244/244/244 243/243/243 242/242/242
f 245/245/245 244/244/244 242/242/242
f 248/248/248 247/247/247 246/246/246
f 249/249/249 248/248/248 246/246/246
f 252/252/252 251/251/251 250/250/250
f 253/253/253 252/252/252 250/250/250
f 256/256/256 255/255/255 254/254/254
f 257/257/257 256/256/256 254/254/254
f 260/260/260 259/259/259 258/258/258
f 261/261/261 260/260/260 258/258/258
f 264/264/264 263/263/263 262/262/262
f 265/265/265 264/264/264 262/262/262
f 268/268/268 267/267/267 266/266/266
f 269/269/269 268/268/268 266/266/266
f 272/272/272 271/271/271 270/270/270
f 273/273/273 272/272/272 270/270/270
f 276/276/276 275/275/275 274/274/274
f 277/277/277 276/276/276 274/274/274
f 280/280/280 279/279/279 278/278/278
f 281/281/281 280/280/280 278/278/278
f 284/284/284 283/283/283 282/282/282
f 285/285/285 284/284/284 282/282/282
f 288/288/288 287/287/287 286/286/286
f 289/289/289 288/288/288 286/286/286
f 292/292/292 291/291/291 290/290/290
f 293/293/293 292/292/292 290/290/290
f 296/296/296 295/295/295 294/294/294
f 297/297/297 296/296/296 294/294/294
f 300/300/300 299/299/299 298/298/298
f 300/300/300 298/298/298 301/301/301
