g worldmap_ep03_mesh7
v -588.41 -36.76642 0
v -586.8564 -33.59348 0
v -602.278 -26.04829 0
v -603.8315 -29.22132 0
v -606.8563 -58.17564 0
v -604.4579 -53.27792 0
v -628.2382 -41.64085 0
v -630.6326 -46.53857 0
v -396.9662 -104.3576 0
v -396.9662 10.88334 0
v -515.7108 10.88334 0
v -515.7108 -104.3576 0
vt 0.3935547 0.8671875
vt 0.3935547 0.8808594
vt 0.4267578 0.8808594
vt 0.4267578 0.8671875
vt 0.3935547 0.8671875
vt 0.3935547 0.8808594
vt 0.4267578 0.8808594
vt 0.4267578 0.8671875
vt 0.128418 0.21875
vt 0.128418 0.5078125
vt 0.2773438 0.5078125
vt 0.2773438 0.21875
vn 0 0 -1
vn 0 0 -1
vn 0 0 -1
vn 0 0 -1
vn 0 0 -1
vn 0 0 -1
vn 0 0 -1
vn 0 0 -1
vn 0 0 -1
vn 0 0 -1
vn 0 0 -1
vn 0 0 -1
g worldmap_ep03_mesh7_0
f 3/3/3 2/2/2 1/1/1
f 4/4/4 3/3/3 1/1/1
f 7/7/7 6/6/6 5/5/5
f 8/8/8 7/7/7 5/5/5
f 11/11/11 10/10/10 9/9/9
f 12/12/12 11/11/11 9/9/9
