g worldmap_ep08_5_mesh
v -4191.046 -6139.1 -10.36648
v -4235.111 -3278.093 -10.36648
v -7083.955 -6147.52 -10.36648
v -7087.299 -4669.945 -10.36648
v -4600.372 -6136.247 -10.36648
v 1670.824 -6143.332 -10.36648
v -4600.597 -5063.188 -10.36648
v 1670.467 -5120.842 -10.36648
v -7090.416 -4960.533 -10.36648
v -9438.506 -4953.582 -10.36648
v -7089.212 -6136.069 -10.36648
v -9428.926 -6137.897 -10.36648
vt 0.9926215 0.4023806
vt 0.9926217 0.1118048
vt 0.9768814 0.243013
vt 0.9768814 0.1118048
vt 0.9768814 0.371302
vt 0.9923292 0.3595265
vt 0.9768814 0.1118048
vt 0.9923335 0.1120602
vt 0.9926217 0.1118048
vt 0.9768814 0.1118048
vt 0.9926215 0.3008307
vt 0.9768816 0.3031406
vn 0 0 -1
vn 0 0 -1
vn 0 0 -1
vn 0 0 -1
vn 0 0 -1
vn 0 0 -1
vn 0 0 -1
vn 0 0 -1
vn 0 0 -1
vn 0 0 -1
vn 0 0 -1
vn 0 0 -1
g worldmap_ep08_5_mesh_0
f 3/3/3 2/2/2 1/1/1
f 3/3/3 4/4/4 2/2/2
f 7/7/7 6/6/6 5/5/5
f 6/6/6 7/7/7 8/8/8
f 11/11/11 10/10/10 9/9/9
f 11/11/11 12/12/12 10/10/10
