g worldmap_ep01_l5
v 907.8525 404.3925 0
v 1016.032 554.715 0
v 824.1974 607.5675 0
v 619.8075 602.9325 0
v 560.025 554.715 0
v 551.835 445.275 0
v 659.4075 379.2375 0
v 619.8075 602.9325 0
v 551.835 445.275 0
v 907.8525 404.3925 0
v 824.1974 607.5675 0
v 675.7424 648.045 0
v -2563.853 105.66 0
v -2512.012 448.2675 0
v -2674.305 569.4075 0
v -2563.853 105.66 0
v -2475.945 362.61 0
v -2512.012 448.2675 0
v -1625.782 -427.3425 0
v -1601.708 -820.1925 0
v -1474.852 -609.9075 0
v -1763.46 -1054.417 0
v -1677.532 -853.8975 0
v -1871.46 -409.2975 0
v -1474.852 -1502.392 0
v -1577.588 -1259.865 0
v -1764.675 -1502.392 0
v -2047.275 -1502.392 0
v -1933.155 -373.68 0
v -2050.357 -242.955 0
v -1763.46 -1054.417 0
v -1871.46 -409.2975 0
v -1933.155 -373.68 0
v -1933.155 -373.68 0
v -2047.275 -1502.392 0
v -1763.46 -1054.417 0
v -2333.948 -13.815 0
v -2338.335 -1502.392 0
v -2225.767 -185.1075 0
v -2563.853 105.66 0
v -2333.948 -13.815 0
v -2453.423 67.365 0
v 1404.765 225.225 0
v 1443.667 675.8099 0
v 1267.807 469.305 0
v -1837.642 663.975 0
v -2055.083 582.8175 0
v -2112.458 480.105 0
v -1586.97 92.63249 0
v -1449.45 663.975 0
v -1570.838 663.975 0
v 3149.932 -80.0775 0
v 1319.4 102.51 0
v 1311.39 -68.2425 0
v -1137.825 -82.8225 0
v -1042.988 631.71 0
v -1144.913 663.975 0
v -1269.473 -98.145 0
v -1137.825 -82.8225 0
v -1465.583 -60.795 0
v -1136.272 -147.24 0
v -1074.892 -240.6375 0
v -1137.825 -82.8225 0
v -727.4249 -876.9825 0
v -912.195 -1131.367 0
v -849.5099 -1242.09 0
v -885.5099 -969.9525 0
v -727.4249 -876.9825 0
v -878.1749 -909 0
v 585.6975 -76.2525 0
v 571.3425 -1502.392 0
v 706.725 -1379.003 0
v -849.5099 -1242.09 0
v -729.45 -1382.152 0
v -727.4249 -876.9825 0
v -6.997445 -1502.392 0
v 571.3425 -1502.392 0
v 585.6975 -76.2525 0
v -727.4249 -876.9825 0
v -729.45 -1382.152 0
v -615.375 -696.8925 0
v 571.3425 -1502.392 0
v -6.997445 -1502.392 0
v -684.09 -1502.392 0
v 619.8075 602.9325 0
v 907.8525 404.3925 0
v 675.7424 648.045 0
v 659.4075 379.2375 0
v 907.8525 404.3925 0
v 659.4075 379.2375 0
v 756.27 356.5125 0
v 817.8975 366.66 0
v -2563.853 105.66 0
v -2491.718 189.045 0
v -2475.945 362.61 0
v -2457.923 252.1575 0
v -2674.305 569.4075 0
v -3912.772 697.9725 0
v -3912.772 90.6975 0
v -1601.708 -820.1925 0
v -1519.132 -781.4475 0
v -1474.852 -700.5599 0
v -1474.852 -609.9075 0
v -1677.532 -853.8975 0
v -1625.782 -427.3425 0
v -1601.708 -820.1925 0
v -2047.275 -1502.392 0
v -2554.29 -1502.392 0
v -2338.335 -1502.392 0
v -2563.853 105.66 0
v -2050.357 -242.955 0
v -2554.29 -1502.392 0
v -3912.772 90.6975 0
v -3912.772 -1502.392 0
v 3149.932 233.325 0
v 3149.932 880.695 0
v 1443.667 675.8099 0
v 1404.765 225.225 0
v -1968.503 135.315 0
v -1749.713 163.3275 0
v -1734.93 663.975 0
v -1968.503 135.315 0
v -1837.642 663.975 0
v -2112.458 480.105 0
v -2160.473 296.01 0
v -1749.713 163.3275 0
v -1586.97 92.63249 0
v -1465.583 -60.795 0
v -1449.45 663.975 0
v -1606.995 35.2575 0
v 34.33499 290.7 0
v 585.6975 -76.2525 0
v 639.0675 99.8325 0
v 359.82 322.7175 0
v 3149.932 233.325 0
v 1319.4 102.51 0
v -1074.892 -240.6375 0
v -902.8125 587.34 0
v -1042.988 631.71 0
v -1137.825 -82.8225 0
v -946.1475 -375.66 0
v -752.355 539.7075 0
v -902.8125 587.34 0
v -1074.892 -240.6375 0
v -1137.825 -82.8225 0
v -1144.913 663.975 0
v -577.5751 484.4025 0
v -752.355 539.7075 0
v -786.1275 -543.4875 0
v -699.4125 -600.84 0
v -577.5751 484.4025 0
v -615.375 -696.8925 0
v -699.4125 -600.84 0
v -6.997445 -1502.392 0
v 34.33499 290.7 0
v -615.375 -696.8925 0
v -946.1475 -375.66 0
v -1150.92 -492.7725 0
v -1114.29 -543.4875 0
v -786.1275 -543.4875 0
v -752.355 539.7075 0
v -946.1475 -375.66 0
v -898.1775 -587.4974 0
v -1011.577 -588.8475 0
v -1114.29 -543.4875 0
v -912.195 -1131.367 0
v -885.5099 -969.9525 0
v -966.8925 -1057.995 0
v -727.4249 -876.9825 0
v 1031.918 -1165.32 0
v 1327.05 -1174.747 0
v 585.6975 -76.2525 0
v 706.725 -1379.003 0
v 1031.918 -1165.32 0
v 839.3851 -1325.003 0
v 1749.668 -1307.385 0
v -684.09 -1502.392 0
v -6.997445 -1502.392 0
v -615.375 -696.8925 0
v -729.45 -1382.152 0
v 3149.932 -1502.392 0
v 1749.668 -1307.385 0
v 2124.18 -1502.392 0
vt 0.9604887 0.5399454
vt 0.9604877 0.5402986
vt 0.9606157 0.5403041
vt 0.960935 0.5403057
vt 0.9611024 0.5403095
vt 0.9611095 0.5396091
vt 0.960942 0.5396069
vt 0.960935 0.5403057
vt 0.9611095 0.5396091
vt 0.9604887 0.5399454
vt 0.9606157 0.5403041
vt 0.9607376 0.540307
vt 0.9609191 0.5401579
vt 0.9608853 0.5403832
vt 0.9609914 0.5404629
vt 0.9609191 0.5401579
vt 0.9608617 0.5403269
vt 0.9608853 0.5403832
vt 0.9603059 0.5398073
vt 0.9602901 0.5395489
vt 0.9602072 0.5396872
vt 0.9603959 0.5393949
vt 0.9603397 0.5395268
vt 0.9604665 0.5398192
vt 0.9602072 0.5391002
vt 0.9602744 0.5392597
vt 0.9603966 0.5391002
vt 0.9605814 0.5391002
vt 0.9605068 0.5398426
vt 0.9605834 0.5399286
vt 0.9603959 0.5393949
vt 0.9604665 0.5398192
vt 0.9605068 0.5398426
vt 0.9605068 0.5398426
vt 0.9605814 0.5391002
vt 0.9603959 0.5393949
vt 0.9607689 0.5400793
vt 0.9607717 0.5391002
vt 0.9606981 0.5399666
vt 0.9609191 0.5401579
vt 0.9607689 0.5400793
vt 0.960847 0.5401327
vt 0.9606535 0.5402474
vt 0.9606184 0.5404117
vt 0.9606773 0.5403388
vt 0.9612164 0.5404117
vt 0.9612541 0.5403813
vt 0.9612641 0.5403429
vt 0.9611729 0.5401978
vt 0.961149 0.5404117
vt 0.9611701 0.5404117
vt 0.9603946 0.5401331
vt 0.9606683 0.5402014
vt 0.9606697 0.5401375
vt 0.9610949 0.540132
vt 0.9610785 0.5403996
vt 0.9610962 0.5404117
vt 0.9611177 0.5401263
vt 0.9610949 0.540132
vt 0.9611518 0.5401403
vt 0.9610946 0.540108
vt 0.961084 0.540073
vt 0.9610949 0.540132
vt 0.9610236 0.5398347
vt 0.9610558 0.5397394
vt 0.9610448 0.539698
vt 0.9610511 0.5397999
vt 0.9610236 0.5398347
vt 0.9610498 0.5398227
vt 0.9607957 0.5401345
vt 0.9607981 0.5395998
vt 0.9607747 0.539646
vt 0.9610448 0.539698
vt 0.961024 0.5396456
vt 0.9610236 0.5398347
vt 0.9608986 0.5396008
vt 0.9607981 0.5395998
vt 0.9607957 0.5401345
vt 0.9610236 0.5398347
vt 0.961024 0.5396456
vt 0.9610042 0.5399022
vt 0.9607981 0.5395998
vt 0.9608986 0.5396008
vt 0.9610161 0.5395998
vt 0.960935 0.5403057
vt 0.9604887 0.5399454
vt 0.9607376 0.540307
vt 0.960942 0.5396069
vt 0.9604887 0.5399454
vt 0.960942 0.5396069
vt 0.960748 0.5396063
vt 0.9604974 0.539597
vt 0.9609191 0.5401579
vt 0.960872 0.5402128
vt 0.9608617 0.5403269
vt 0.9608499 0.5402542
vt 0.9609914 0.5404629
vt 0.961765 0.5404373
vt 0.9617661 0.5401481
vt 0.9602901 0.5395489
vt 0.9602361 0.5395744
vt 0.9602072 0.5396276
vt 0.9602072 0.5396872
vt 0.9603397 0.5395268
vt 0.9603059 0.5398073
vt 0.9602901 0.5395489
vt 0.9605814 0.5391002
vt 0.9609129 0.5391002
vt 0.9607717 0.5391002
vt 0.9609191 0.5401579
vt 0.9605834 0.5399286
vt 0.9609129 0.5391002
vt 0.9617661 0.5401481
vt 0.9617661 0.5391002
vt 0.9603946 0.5402504
vt 0.9603946 0.5404117
vt 0.9606184 0.5404117
vt 0.9606535 0.5402474
vt 0.9612391 0.5402137
vt 0.9612011 0.5402243
vt 0.9611986 0.5404117
vt 0.9612391 0.5402137
vt 0.9612164 0.5404117
vt 0.9612641 0.5403429
vt 0.9612725 0.5402739
vt 0.9612011 0.5402243
vt 0.9611729 0.5401978
vt 0.9611518 0.5401403
vt 0.961149 0.5404117
vt 0.9611763 0.5401763
vt 0.9608914 0.5402719
vt 0.9607957 0.5401345
vt 0.9607864 0.5402005
vt 0.9608349 0.5402839
vt 0.9603946 0.5402504
vt 0.9606683 0.5402014
vt 0.961084 0.540073
vt 0.9610541 0.540383
vt 0.9610785 0.5403996
vt 0.9610949 0.540132
vt 0.9610616 0.5400224
vt 0.961028 0.5403652
vt 0.9610541 0.540383
vt 0.961084 0.540073
vt 0.9610949 0.540132
vt 0.9610962 0.5404117
vt 0.9609976 0.5403445
vt 0.961028 0.5403652
vt 0.9610339 0.5399596
vt 0.9610188 0.5399381
vt 0.9609976 0.5403445
vt 0.9610042 0.5399022
vt 0.9610188 0.5399381
vt 0.9608986 0.5396008
vt 0.9608914 0.5402719
vt 0.9610042 0.5399022
vt 0.9610616 0.5400224
vt 0.9610972 0.5399786
vt 0.9610908 0.5399596
vt 0.9610339 0.5399596
vt 0.961028 0.5403652
vt 0.9610616 0.5400224
vt 0.9610533 0.5399431
vt 0.961073 0.5399426
vt 0.9610908 0.5399596
vt 0.9610558 0.5397394
vt 0.9610511 0.5397999
vt 0.9610652 0.539767
vt 0.9610236 0.5398347
vt 0.9607182 0.5397261
vt 0.960667 0.5397226
vt 0.9607957 0.5401345
vt 0.9607747 0.539646
vt 0.9607182 0.5397261
vt 0.9607517 0.5396663
vt 0.9605936 0.5396729
vt 0.9610161 0.5395998
vt 0.9608986 0.5396008
vt 0.9610042 0.5399022
vt 0.961024 0.5396456
vt 0.9603946 0.5395998
vt 0.9605936 0.5396729
vt 0.9605286 0.5395998
vn 0 0 -1
vn 0 0 -1
vn 0 0 -1
vn 0 0 -1
vn 0 0 -1
vn 0 0 -1
vn 0 0 -1
vn 0 0 -1
vn 0 0 -1
vn 0 0 -1
vn 0 0 -1
vn 0 0 -1
vn 0 0 -1
vn 0 0 -1
vn 0 0 -1
vn 0 0 -1
vn 0 0 -1
vn 0 0 -1
vn 0 0 -1
vn 0 0 -1
vn 0 0 -1
vn 0 0 -1
vn 0 0 -1
vn 0 0 -1
vn 0 0 -1
vn 0 0 -1
vn 0 0 -1
vn 0 0 -1
vn 0 0 -1
vn 0 0 -1
vn 0 0 -1
vn 0 0 -1
vn 0 0 -1
vn 0 0 -1
vn 0 0 -1
vn 0 0 -1
vn 0 0 -1
vn 0 0 -1
vn 0 0 -1
vn 0 0 -1
vn 0 0 -1
vn 0 0 -1
vn 0 0 -1
vn 0 0 -1
vn 0 0 -1
vn 0 0 -1
vn 0 0 -1
vn 0 0 -1
vn 0 0 -1
vn 0 0 -1
vn 0 0 -1
vn 0 0 -1
vn 0 0 -1
vn 0 0 -1
vn 0 0 -1
vn 0 0 -1
vn 0 0 -1
vn 0 0 -1
vn 0 0 -1
vn 0 0 -1
vn 0 0 -1
vn 0 0 -1
vn 0 0 -1
vn 0 0 -1
vn 0 0 -1
vn 0 0 -1
vn 0 0 -1
vn 0 0 -1
vn 0 0 -1
vn 0 0 -1
vn 0 0 -1
vn 0 0 -1
vn 0 0 -1
vn 0 0 -1
vn 0 0 -1
vn 0 0 -1
vn 0 0 -1
vn 0 0 -1
vn 0 0 -1
vn 0 0 -1
vn 0 0 -1
vn 0 0 0
vn 0 0 0
vn 0 0 0
vn 0 0 -1
vn 0 0 -1
vn 0 0 -1
vn 0 0 -1
vn 0 0 -1
vn 0 0 -1
vn 0 0 -1
vn 0 0 -1
vn 0 0 -1
vn 0 0 -1
vn 0 0 -1
vn 0 0 -1
vn 0 0 -1
vn 0 0 -1
vn 0 0 -1
vn 0 0 -1
vn 0 0 -1
vn 0 0 -1
vn 0 0 -1
vn 0 0 -1
vn 0 0 -1
vn 0 0 -1
vn 0 0 -1
vn 0 0 -1
vn 0 0 -1
vn 0 0 -1
vn 0 0 -1
vn 0 0 -1
vn 0 0 -1
vn 0 0 -1
vn 0 0 -1
vn 0 0 -1
vn 0 0 -1
vn 0 0 -1
vn 0 0 -1
vn 0 0 -1
vn 0 0 -1
vn 0 0 -1
vn 0 0 -1
vn 0 0 -1
vn 0 0 -1
vn 0 0 -1
vn 0 0 -1
vn 0 0 -1
vn 0 0 -1
vn 0 0 -1
vn 0 0 -1
vn 0 0 -1
vn 0 0 -1
vn 0 0 -1
vn 0 0 -1
vn 0 0 -1
vn 0 0 -1
vn 0 0 -1
vn 0 0 -1
vn 0 0 -1
vn 0 0 -1
vn 0 0 -1
vn 0 0 -1
vn 0 0 -1
vn 0 0 -1
vn 0 0 -1
vn 0 0 -1
vn 0 0 -1
vn 0 0 -1
vn 0 0 -1
vn 0 0 -1
vn 0 0 -1
vn 0 0 -1
vn 0 0 -1
vn 0 0 -1
vn 0 0 -1
vn 0 0 -1
vn 0 0 -1
vn 0 0 -1
vn 0 0 -1
vn 0 0 -1
vn 0 0 -1
vn 0 0 -1
vn 0 0 -1
vn 0 0 -1
vn 0 0 -1
vn 0 0 -1
vn 0 0 -1
vn 0 0 -1
vn 0 0 -1
vn 0 0 -1
vn 0 0 -1
vn 0 0 -1
vn 0 0 -1
vn 0 0 -1
vn 0 0 -1
vn 0 0 -1
vn 0 0 -1
vn 0 0 -1
vn 0 0 -1
vn 0 0 -1
vn 0 0 -1
vn 0 0 -1
g worldmap_ep01_l5_0
f 3/3/3 2/2/2 1/1/1
f 6/6/6 5/5/5 4/4/4
f 9/9/9 8/8/8 7/7/7
f 12/12/12 11/11/11 10/10/10
f 15/15/15 14/14/14 13/13/13
f 18/18/18 17/17/17 16/16/16
f 21/21/21 20/20/20 19/19/19
f 24/24/24 23/23/23 22/22/22
f 27/27/27 26/26/26 25/25/25
f 30/30/30 29/29/29 28/28/28
f 33/33/33 32/32/32 31/31/31
f 36/36/36 35/35/35 34/34/34
f 39/39/39 38/38/38 37/37/37
f 42/42/42 41/41/41 40/40/40
f 45/45/45 44/44/44 43/43/43
f 48/48/48 47/47/47 46/46/46
f 51/51/51 50/50/50 49/49/49
f 54/54/54 53/53/53 52/52/52
f 57/57/57 56/56/56 55/55/55
f 60/60/60 59/59/59 58/58/58
f 63/63/63 62/62/62 61/61/61
f 66/66/66 65/65/65 64/64/64
f 69/69/69 68/68/68 67/67/67
f 72/72/72 71/71/71 70/70/70
f 75/75/75 74/74/74 73/73/73
f 78/78/78 77/77/77 76/76/76
f 81/81/81 80/80/80 79/79/79
f 84/84/84 83/83/83 82/82/82
f 87/87/87 86/86/86 85/85/85
f 85/85/85 86/86/86 88/88/88
f 91/91/91 90/90/90 89/89/89
f 91/91/91 89/89/89 92/92/92
f 95/95/95 94/94/94 93/93/93
f 94/94/94 95/95/95 96/96/96
f 99/99/99 98/98/98 97/97/97
f 99/99/99 97/97/97 13/13/13
f 102/102/102 101/101/101 100/100/100
f 100/100/100 103/103/103 102/102/102
f 32/32/32 105/105/105 104/104/104
f 104/104/104 105/105/105 106/106/106
f 36/36/36 27/27/27 107/107/107
f 27/27/27 36/36/36 26/26/26
f 109/109/109 108/108/108 37/37/37
f 37/37/37 108/108/108 110/110/110
f 109/109/109 39/39/39 111/111/111
f 109/109/109 111/111/111 107/107/107
f 113/113/113 13/13/13 112/112/112
f 114/114/114 113/113/113 112/112/112
f 117/117/117 116/116/116 115/115/115
f 118/118/118 117/117/117 115/115/115
f 46/46/46 120/120/120 119/119/119
f 120/120/120 46/46/46 121/121/121
f 124/124/124 123/123/123 122/122/122
f 124/124/124 122/122/122 125/125/125
f 51/51/51 49/49/49 126/126/126
f 121/121/121 51/51/51 126/126/126
f 129/129/129 128/128/128 127/127/127
f 130/130/130 127/127/127 128/128/128
f 133/133/133 132/132/132 131/131/131
f 134/134/134 133/133/133 131/131/131
f 118/118/118 135/135/135 52/52/52
f 136/136/136 118/118/118 52/52/52
f 139/139/139 138/138/138 137/137/137
f 140/140/140 139/139/139 137/137/137
f 143/143/143 142/142/142 141/141/141
f 143/143/143 141/141/141 144/144/144
f 60/60/60 129/129/129 145/145/145
f 129/129/129 146/146/146 145/145/145
f 149/149/149 148/148/148 147/147/147
f 150/150/150 149/149/149 147/147/147
f 131/131/131 152/152/152 151/151/151
f 152/152/152 153/153/153 151/151/151
f 155/155/155 70/70/70 154/154/154
f 154/154/154 156/156/156 155/155/155
f 158/158/158 144/144/144 157/157/157
f 157/157/157 159/159/159 158/158/158
f 162/162/162 161/161/161 160/160/160
f 160/160/160 163/163/163 162/162/162
f 163/163/163 164/164/164 141/141/141
f 141/141/141 164/164/164 165/165/165
f 168/168/168 167/167/167 166/166/166
f 167/167/167 169/169/169 166/166/166
f 132/132/132 54/54/54 170/170/170
f 170/170/170 54/54/54 171/171/171
f 174/174/174 173/173/173 172/172/172
f 174/174/174 175/175/175 173/173/173
f 54/54/54 52/52/52 171/171/171
f 171/171/171 52/52/52 176/176/176
f 179/179/179 178/178/178 177/177/177
f 177/177/177 180/180/180 179/179/179
f 182/182/182 52/52/52 181/181/181
f 182/182/182 181/181/181 183/183/183
