g worldmap_ep04_mesh1
v -6185.694 -3793.243 0
v -6185.694 -3528.311 0
v -6442.643 -3528.311 0
v -6442.643 -3793.243 0
v -9540.424 -3002.64 0
v -9540.424 -1021.179 0
v -10412.64 -1021.179 0
v -10412.64 -3002.64 0
v -7216.773 -3301.579 0
v -7272.862 -3039.578 0
v -6982.613 -2977.425 0
v -7216.773 -3301.579 0
v -6982.613 -2977.425 0
v -6926.474 -3239.426 0
v -5845.37 -3683.339 0
v -5845.37 -3567.371 0
v -5977.912 -3567.371 0
v -5977.912 -3683.339 0
v -10439.47 -1454.581 0
v -9130.979 -1454.581 0
v -9130.979 363.0586 0
v -10439.47 363.0586 0
v -5461.185 -2910.926 0
v -5461.185 -2804.711 0
v -5575.435 -2804.711 0
v -5575.435 -2910.926 0
v -8224.155 -1580.958 0
v -8224.155 -876.9646 0
v -8565.738 -876.9646 0
v -8565.738 -1580.958 0
v -5245.924 -2759.94 0
v -5405.956 -2444.477 0
v -4856.181 -2165.599 0
v -4696.15 -2481.062 0
v -5691.504 -2988.44 0
v -5851.534 -2672.978 0
v -5301.71 -2394.098 0
v -5691.504 -2988.44 0
v -5301.71 -2394.098 0
v -5141.73 -2709.561 0
v -6303.733 -3296.324 0
v -6463.764 -2980.861 0
v -5913.94 -2702.032 0
v -5753.96 -3017.445 0
v -6755.833 -3534.627 0
v -6915.863 -3219.164 0
v -6366.038 -2940.285 0
v -6755.833 -3534.627 0
v -6366.038 -2940.285 0
v -6206.058 -3255.748 0
v -8830.068 -2114.057 0
v -8830.068 -1153.974 0
v -8183.274 -1153.974 0
v -8183.274 -2114.057 0
v -8760.639 -1255.086 0
v -8760.639 -492.6279 0
v -9027.49 -492.6279 0
v -9027.49 -1255.086 0
v -8801.871 -2179.848 0
v -8801.871 33.39648 0
v -9701.316 33.39648 0
v -9701.316 -2179.848 0
v -9368.822 -2387.984 0
v -9368.822 -1427.901 0
v -8722.031 -1427.901 0
v -8722.031 -2387.984 0
v -8319.959 -1972.167 0
v -8319.959 -1268.173 0
v -7980.19 -1268.173 0
v -7980.19 -1972.167 0
v -6355.325 -3394.909 0
v -6355.325 -3308.451 0
v -6501.006 -3308.451 0
v -6501.006 -3394.909 0
v -9214.201 -2512.037 0
v -9214.201 -1749.579 0
v -8946.791 -1749.579 0
v -8946.791 -2512.037 0
v -8621.324 -2434.169 0
v -8621.324 -2005.265 0
v -8885.297 -2005.265 0
v -8885.297 -2434.169 0
v -4488.975 -3986.674 0
v -4263.001 -3534.728 0
v -5297.972 -3017.192 0
v -5523.944 -3469.139 0
v -4395.341 -2494.503 0
v -4632.027 -2019.666 0
v -5522.934 -2463.78 0
v -5286.248 -2938.617 0
v -8468.014 -2209.156 0
v -8468.014 -1944.173 0
v -8724.961 -1944.173 0
v -8724.961 -2209.156 0
v -9082.314 -2529.975 0
v -8961.748 -2268.428 0
v -9425.268 -2054.835 0
v -9545.832 -2316.382 0
v -5855.83 -3974.092 0
v -5855.83 -3094.858 0
v -6224.704 -3094.858 0
v -6224.704 -3974.092 0
v -8960.133 -2598.343 0
v -8960.133 -2295.159 0
v -9152.148 -2295.159 0
v -9152.148 -2598.343 0
v -8746.439 -2705.367 0
v -8648.408 -2522.851 0
v -8964.477 -2353.118 0
v -9062.508 -2535.635 0
v -8418.746 -2854.736 0
v -8298.23 -2593.139 0
v -8761.699 -2379.546 0
v -8418.746 -2854.736 0
v -8761.699 -2379.546 0
v -8882.264 -2641.092 0
v -2073.859 -5115.732 0
v -2073.859 -4044.482 0
v -2442.734 -4044.482 0
v -2442.734 -5115.732 0
v -4612.875 -3930.383 0
v -4612.875 -3843.925 0
v -4758.555 -3843.925 0
v -4758.555 -3930.383 0
v -8309.904 -2926.136 0
v -8309.904 -2622.952 0
v -8501.922 -2622.952 0
v -8501.922 -2926.136 0
v -8096.159 -3033.16 0
v -7998.129 -2850.644 0
v -8314.199 -2680.86 0
v -8412.229 -2863.376 0
v -7768.467 -3182.478 0
v -7647.951 -2920.881 0
v -8111.47 -2707.288 0
v -8231.985 -2968.885 0
v -7662.959 -3280.609 0
v -7662.959 -2977.425 0
v -7854.975 -2977.425 0
v -7854.975 -3280.609 0
v -4716.514 -4221.389 0
v -4716.514 -3852.515 0
v -4858 -3852.515 0
v -4858 -4221.389 0
v -7449.266 -3387.633 0
v -7351.235 -3205.116 0
v -7667.305 -3035.383 0
v -7765.334 -3217.9 0
v -7121.573 -3537.002 0
v -7001.057 -3275.405 0
v -7464.524 -3061.811 0
v -7121.573 -3537.002 0
v -7464.524 -3061.811 0
v -7585.091 -3323.358 0
v -5359.012 -4232.304 0
v -5359.012 -3161.053 0
v -5727.886 -3161.053 0
v -5727.886 -4232.304 0
v -7006.768 -3595.668 0
v -7006.768 -3292.484 0
v -7198.784 -3292.484 0
v -7198.784 -3595.668 0
v -4870.228 -4459.439 0
v -4870.228 -3388.189 0
v -5239.103 -3388.189 0
v -5239.103 -4459.439 0
v -6793.072 -3702.691 0
v -6695.044 -3520.175 0
v -7011.113 -3350.442 0
v -7109.143 -3532.959 0
v -6465.381 -3852.061 0
v -6344.866 -3590.463 0
v -6808.333 -3376.87 0
v -6465.381 -3852.061 0
v -6808.333 -3376.87 0
v -6928.899 -3638.417 0
v -3578.512 -4459.945 0
v -3352.488 -4007.999 0
v -4387.458 -3490.463 0
v -4613.482 -3942.409 0
v -6357.095 -3915.073 0
v -6357.095 -3611.888 0
v -6549.11 -3611.888 0
v -6549.11 -3915.073 0
v -4525.761 -4292.738 0
v -4625.761 -4111.283 0
v -4311.561 -3938.165 0
v -4211.561 -4119.621 0
v -6162.752 -4022.753 0
v -6064.724 -3840.237 0
v -6380.792 -3670.453 0
v -6478.823 -3852.97 0
v -5815.708 -4171.465 0
v -5695.192 -3909.867 0
v -6158.66 -3696.274 0
v -5815.708 -4171.465 0
v -6158.66 -3696.274 0
v -6279.227 -3957.821 0
v -4184.173 -4280.561 0
v -4184.173 -4015.578 0
v -3928.69 -4015.578 0
v -3928.69 -4280.561 0
v -2659.005 -4930.941 0
v -2433.031 -4478.995 0
v -3468.001 -3961.46 0
v -3693.975 -4413.407 0
v -4171.894 -4329.626 0
v -4171.894 -4026.442 0
v -4363.911 -4026.442 0
v -4363.911 -4329.626 0
v -5713.938 -4260.551 0
v -5713.938 -3957.366 0
v -5905.957 -3957.366 0
v -5905.957 -4260.551 0
v -3958.2 -4436.701 0
v -3860.17 -4254.184 0
v -4176.239 -4084.401 0
v -4274.27 -4266.918 0
v -4842.74 -4456.054 0
v -4975.535 -4200.47 0
v -4522.678 -3965.148 0
v -4389.884 -4220.732 0
v -2440.004 -4992.236 0
v -2440.004 -4623.361 0
v -2581.491 -4623.361 0
v -2581.491 -4992.236 0
v -3630.508 -4586.02 0
v -3509.942 -4324.421 0
v -3973.459 -4110.828 0
v -4094.026 -4372.426 0
v -5500.245 -4367.575 0
v -5402.215 -4185.058 0
v -5718.285 -4015.325 0
v -5816.315 -4197.842 0
v -5172.554 -4516.943 0
v -5052.037 -4255.346 0
v -5515.556 -4041.753 0
v -5636.071 -4303.3 0
v -5259.566 -4574.599 0
v -5253.402 -4271.465 0
v -5061.387 -4275.407 0
v -5259.566 -4574.599 0
v -5061.387 -4275.407 0
v -5067.602 -4578.49 0
v -3465.525 -4683.847 0
v -3465.525 -4380.663 0
v -3657.542 -4380.663 0
v -3657.542 -4683.847 0
v -3251.831 -4790.871 0
v -3153.802 -4608.354 0
v -3469.87 -4438.57 0
v -3567.9 -4621.087 0
v -2924.139 -4940.188 0
v -2803.624 -4678.592 0
v -3267.142 -4464.999 0
v -3387.657 -4726.595 0
v -4950.824 -4524.725 0
v -4944.66 -4221.591 0
v -4752.644 -4225.533 0
v -4950.824 -4524.725 0
v -4752.644 -4225.533 0
v -4758.859 -4528.616 0
v -5052.139 -3254.585 0
v -5052.139 -3168.127 0
v -5197.769 -3168.127 0
v -5197.769 -3254.585 0
v -2783.209 -5015.986 0
v -2783.209 -4712.8 0
v -2975.226 -4712.8 0
v -2975.226 -5015.986 0
v -2569.515 -5123.009 0
v -2471.485 -4940.492 0
v -2787.504 -4770.76 0
v -2885.534 -4953.276 0
v -2241.823 -5272.327 0
v -2121.257 -5010.78 0
v -2584.775 -4797.187 0
v -2241.823 -5272.327 0
v -2584.775 -4797.187 0
v -2705.291 -5058.734 0
v -5164.266 -4642.007 0
v -5264.266 -4460.551 0
v -4950.066 -4287.433 0
v -4850.066 -4468.889 0
v -3664.162 -3987.837 0
v -3664.162 -3871.212 0
v -3807.72 -3871.212 0
v -3807.72 -3987.837 0
v -4955.676 -3300.872 0
v -4955.676 -3184.247 0
v -5099.233 -3184.247 0
v -5099.233 -3300.872 0
v -8034.259 -159.5801 0
v -8034.259 330.5669 0
v -9181.303 330.5669 0
v -9181.303 -159.5801 0
v -1131.384 -4629.526 0
v -1131.384 -3558.275 0
v -1500.259 -3558.275 0
v -1500.259 -4629.526 0
v -8683.172 -1350.841 0
v -8683.172 -1151.7 0
v -8842.498 -1151.7 0
v -8842.498 -1350.841 0
v -8192.976 -2046.346 0
v -8192.976 -1847.204 0
v -8352.246 -1847.204 0
v -8352.246 -2046.346 0
vt 0.8164063 0.1552734
vt 0.8164063 0.2197266
vt 0.8789063 0.2197266
vt 0.8789063 0.1552734
vt 0.001953125 0.9335938
vt 0.001953125 0.9648438
vt 0.03320313 0.9648438
vt 0.03320313 0.9335938
vt 0.1435547 0.8759766
vt 0.03515625 0.8759766
vt 0.03515625 0.9980469
vt 0.1435547 0.8759766
vt 0.03515625 0.9980469
vt 0.1435547 0.9980469
vt 0.001953125 0.9667969
vt 0.001953125 0.9941406
vt 0.03320313 0.9941406
vt 0.03320313 0.9667969
vt 0.3036142 0.001953125
vt 0.1777344 0.001953125
vt 0.1777344 0.1650391
vt 0.3036142 0.1650391
vt 0.3876953 0.5371094
vt 0.3876953 0.6533203
vt 0.5126953 0.6533203
vt 0.5126953 0.5371094
vt 0.5302734 0.3183594
vt 0.3652344 0.3183594
vt 0.3652344 0.3984375
vt 0.5302734 0.3984375
vt 0.3925781 0.6601563
vt 0.3242188 0.6601563
vt 0.3242188 0.7792969
vt 0.3925781 0.7792969
vt 0.3925781 0.6601563
vt 0.3242188 0.6601563
vt 0.3242188 0.7792969
vt 0.3925781 0.6601563
vt 0.3242188 0.7792969
vt 0.3925781 0.7792969
vt 0.3925781 0.6601563
vt 0.3242188 0.6601563
vt 0.3242188 0.7792969
vt 0.3925781 0.7792969
vt 0.3925781 0.6601563
vt 0.3242188 0.6601563
vt 0.3242188 0.7792969
vt 0.3925781 0.6601563
vt 0.3242188 0.7792969
vt 0.3925781 0.7792969
vt 0.3632813 0.3320313
vt 0.1777344 0.3320313
vt 0.1777344 0.4570313
vt 0.3632813 0.4570313
vt 0.5410156 0.4003906
vt 0.3652344 0.4003906
vt 0.3652344 0.4619141
vt 0.5410156 0.4619141
vt 0.001953125 0.001953125
vt 0.001953125 0.4296875
vt 0.1757813 0.4296875
vt 0.1757813 0.001953125
vt 0.3632813 0.3320313
vt 0.1777344 0.3320313
vt 0.1777344 0.4570313
vt 0.3632813 0.4570313
vt 0.5302734 0.3183594
vt 0.3652344 0.3183594
vt 0.3652344 0.3984375
vt 0.5302734 0.3984375
vt 0.8808594 0.1982422
vt 0.8808594 0.2167969
vt 0.9121094 0.2167969
vt 0.9121094 0.1982422
vt 0.5410156 0.4003906
vt 0.3652344 0.4003906
vt 0.3652344 0.4619141
vt 0.5410156 0.4619141
vt 0.3945313 0.6552734
vt 0.3945313 0.7568359
vt 0.4570313 0.7568359
vt 0.4570313 0.6552734
vt 0.1328125 0.6503906
vt 0.03515625 0.6503906
vt 0.03515625 0.8740234
vt 0.1328125 0.8740234
vt 0.1640625 0.4589844
vt 0.1640625 0.5615234
vt 0.3564453 0.5615234
vt 0.3564453 0.4589844
vt 0.8164063 0.1552734
vt 0.8164063 0.2197266
vt 0.8789063 0.2197266
vt 0.8789063 0.1552734
vt 0.5146484 0.6552734
vt 0.4589844 0.6552734
vt 0.4589844 0.7539063
vt 0.5146484 0.7539063
vt 0.5283203 0.4638672
vt 0.3583984 0.4638672
vt 0.3583984 0.5351563
vt 0.5283203 0.5351563
vt 0.9951172 0.1513672
vt 0.9365234 0.1513672
vt 0.9365234 0.1884766
vt 0.9951172 0.1884766
vt 0.8144531 0.1601563
vt 0.7744141 0.1601563
vt 0.7744141 0.2294922
vt 0.8144531 0.2294922
vt 0.5146484 0.6552734
vt 0.4589844 0.6552734
vt 0.4589844 0.7539063
vt 0.5146484 0.6552734
vt 0.4589844 0.7539063
vt 0.5146484 0.7539063
vt 0.9980469 0.001953125
vt 0.7910156 0.001953125
vt 0.7910156 0.07324219
vt 0.9980469 0.07324219
vt 0.8808594 0.1982422
vt 0.8808594 0.2167969
vt 0.9121094 0.2167969
vt 0.9121094 0.1982422
vt 0.9951172 0.1513672
vt 0.9365234 0.1513672
vt 0.9365234 0.1884766
vt 0.9951172 0.1884766
vt 0.8144531 0.1601563
vt 0.7744141 0.1601563
vt 0.7744141 0.2294922
vt 0.8144531 0.2294922
vt 0.5146484 0.6552734
vt 0.4589844 0.6552734
vt 0.4589844 0.7539063
vt 0.5146484 0.7539063
vt 0.9951172 0.1513672
vt 0.9365234 0.1513672
vt 0.9365234 0.1884766
vt 0.9951172 0.1884766
vt 0.3681641 0.78125
vt 0.3681641 0.8525391
vt 0.3955078 0.8525391
vt 0.3955078 0.78125
vt 0.8144531 0.1601563
vt 0.7744141 0.1601563
vt 0.7744141 0.2294922
vt 0.8144531 0.2294922
vt 0.5146484 0.6552734
vt 0.4589844 0.6552734
vt 0.4589844 0.7539063
vt 0.5146484 0.6552734
vt 0.4589844 0.7539063
vt 0.5146484 0.7539063
vt 0.9980469 0.001953125
vt 0.7910156 0.001953125
vt 0.7910156 0.07324219
vt 0.9980469 0.07324219
vt 0.9951172 0.1513672
vt 0.9365234 0.1513672
vt 0.9365234 0.1884766
vt 0.9951172 0.1884766
vt 0.9980469 0.001953125
vt 0.7910156 0.001953125
vt 0.7910156 0.07324219
vt 0.9980469 0.07324219
vt 0.8144531 0.1601563
vt 0.7744141 0.1601563
vt 0.7744141 0.2294922
vt 0.8144531 0.2294922
vt 0.5146484 0.6552734
vt 0.4589844 0.6552734
vt 0.4589844 0.7539063
vt 0.5146484 0.6552734
vt 0.4589844 0.7539063
vt 0.5146484 0.7539063
vt 0.1328125 0.6503906
vt 0.03515625 0.6503906
vt 0.03515625 0.8740234
vt 0.1328125 0.8740234
vt 0.9951172 0.1513672
vt 0.9365234 0.1513672
vt 0.9365234 0.1884766
vt 0.9951172 0.1884766
vt 0.8144531 0.1601563
vt 0.7744141 0.1601563
vt 0.7744141 0.2294922
vt 0.8144531 0.2294922
vt 0.8144531 0.1601563
vt 0.7744141 0.1601563
vt 0.7744141 0.2294922
vt 0.8144531 0.2294922
vt 0.5146484 0.6552734
vt 0.4589844 0.6552734
vt 0.4589844 0.7539063
vt 0.5146484 0.6552734
vt 0.4589844 0.7539063
vt 0.5146484 0.7539063
vt 0.8164063 0.1552734
vt 0.8164063 0.2197266
vt 0.8789063 0.2197266
vt 0.8789063 0.1552734
vt 0.1328125 0.6503906
vt 0.03515625 0.6503906
vt 0.03515625 0.8740234
vt 0.1328125 0.8740234
vt 0.9951172 0.1513672
vt 0.9365234 0.1513672
vt 0.9365234 0.1884766
vt 0.9951172 0.1884766
vt 0.9951172 0.1513672
vt 0.9365234 0.1513672
vt 0.9365234 0.1884766
vt 0.9951172 0.1884766
vt 0.8144531 0.1601563
vt 0.7744141 0.1601563
vt 0.7744141 0.2294922
vt 0.8144531 0.2294922
vt 0.5146484 0.6552734
vt 0.4589844 0.6552734
vt 0.4589844 0.7539063
vt 0.5146484 0.7539063
vt 0.3681641 0.78125
vt 0.3681641 0.8525391
vt 0.3955078 0.8525391
vt 0.3955078 0.78125
vt 0.5146484 0.6552734
vt 0.4589844 0.6552734
vt 0.4589844 0.7539063
vt 0.5146484 0.7539063
vt 0.8144531 0.1601563
vt 0.7744141 0.1601563
vt 0.7744141 0.2294922
vt 0.8144531 0.2294922
vt 0.5146484 0.6552734
vt 0.4589844 0.6552734
vt 0.4589844 0.7539063
vt 0.5146484 0.7539063
vt 0.9951172 0.1513672
vt 0.9365234 0.1513672
vt 0.9365234 0.1884766
vt 0.9951172 0.1513672
vt 0.9365234 0.1884766
vt 0.9951172 0.1884766
vt 0.9951172 0.1513672
vt 0.9365234 0.1513672
vt 0.9365234 0.1884766
vt 0.9951172 0.1884766
vt 0.8144531 0.1601563
vt 0.7744141 0.1601563
vt 0.7744141 0.2294922
vt 0.8144531 0.2294922
vt 0.5146484 0.6552734
vt 0.4589844 0.6552734
vt 0.4589844 0.7539063
vt 0.5146484 0.7539063
vt 0.9951172 0.1513672
vt 0.9365234 0.1513672
vt 0.9365234 0.1884766
vt 0.9951172 0.1513672
vt 0.9365234 0.1884766
vt 0.9951172 0.1884766
vt 0.8808594 0.1982422
vt 0.8808594 0.2167969
vt 0.9121094 0.2167969
vt 0.9121094 0.1982422
vt 0.9951172 0.1513672
vt 0.9365234 0.1513672
vt 0.9365234 0.1884766
vt 0.9951172 0.1884766
vt 0.8144531 0.1601563
vt 0.7744141 0.1601563
vt 0.7744141 0.2294922
vt 0.8144531 0.2294922
vt 0.5146484 0.6552734
vt 0.4589844 0.6552734
vt 0.4589844 0.7539063
vt 0.5146484 0.6552734
vt 0.4589844 0.7539063
vt 0.5146484 0.7539063
vt 0.8144531 0.1601563
vt 0.7744141 0.1601563
vt 0.7744141 0.2294922
vt 0.8144531 0.2294922
vt 0.6542969 0.3505859
vt 0.6289063 0.3505859
vt 0.6289063 0.3818359
vt 0.6542969 0.3818359
vt 0.6542969 0.3505859
vt 0.6289063 0.3505859
vt 0.6289063 0.3818359
vt 0.6542969 0.3818359
vt 0.1640625 0.5634766
vt 0.1640625 0.6582031
vt 0.3857422 0.6582031
vt 0.3857422 0.5634766
vt 0.9980469 0.001953125
vt 0.7910156 0.001953125
vt 0.7910156 0.07324219
vt 0.9980469 0.07324219
vt 0.8076172 0.07519531
vt 0.8076172 0.1533203
vt 0.8701172 0.1533203
vt 0.8701172 0.07519531
vt 0.8076172 0.07519531
vt 0.8076172 0.1533203
vt 0.8701172 0.1533203
vt 0.8701172 0.07519531
vn 0 0 -1
vn 0 0 -1
vn 0 0 -1
vn 0 0 -1
vn 0 0 -1
vn 0 0 -1
vn 0 0 -1
vn 0 0 -1
vn 0 0 1
vn 0 0 1
vn 0 0 1
vn 0 0 1
vn 0 0 1
vn 0 0 1
vn 0 0 -1
vn 0 0 -1
vn 0 0 -1
vn 0 0 -1
vn 0 0 -1
vn 0 0 -1
vn 0 0 -1
vn 0 0 -1
vn 0 0 -1
vn 0 0 -1
vn 0 0 -1
vn 0 0 -1
vn 0 0 -1
vn 0 0 -1
vn 0 0 -1
vn 0 0 -1
vn 0 0 1
vn 0 0 1
vn 0 0 1
vn 0 0 1
vn 0 0 1
vn 0 0 1
vn 0 0 1
vn 0 0 1
vn 0 0 1
vn 0 0 1
vn 0 0 1
vn 0 0 1
vn 0 0 1
vn 0 0 1
vn 0 0 1
vn 0 0 1
vn 0 0 1
vn 0 0 1
vn 0 0 1
vn 0 0 1
vn 0 0 1
vn 0 0 1
vn 0 0 1
vn 0 0 1
vn 0 0 -1
vn 0 0 -1
vn 0 0 -1
vn 0 0 -1
vn 0 0 -1
vn 0 0 -1
vn 0 0 -1
vn 0 0 -1
vn 0 0 1
vn 0 0 1
vn 0 0 1
vn 0 0 1
vn 0 0 1
vn 0 0 1
vn 0 0 1
vn 0 0 1
vn 0 0 -1
vn 0 0 -1
vn 0 0 -1
vn 0 0 -1
vn 0 0 1
vn 0 0 1
vn 0 0 1
vn 0 0 1
vn 0 0 -1
vn 0 0 -1
vn 0 0 -1
vn 0 0 -1
vn 0 0 -1
vn 0 0 -1
vn 0 0 -1
vn 0 0 -1
vn 0 0 -1
vn 0 0 -1
vn 0 0 -1
vn 0 0 -1
vn 0 0 -1
vn 0 0 -1
vn 0 0 -1
vn 0 0 -1
vn 0 0 -1
vn 0 0 -1
vn 0 0 -1
vn 0 0 -1
vn 0 0 -1
vn 0 0 -1
vn 0 0 -1
vn 0 0 -1
vn 0 0 -1
vn 0 0 -1
vn 0 0 -1
vn 0 0 -1
vn 0 0 -1
vn 0 0 -1
vn 0 0 -1
vn 0 0 -1
vn 0 0 -1
vn 0 0 -1
vn 0 0 -1
vn 0 0 -1
vn 0 0 -1
vn 0 0 -1
vn 0 0 -1
vn 0 0 -1
vn 0 0 -1
vn 0 0 -1
vn 0 0 -1
vn 0 0 -1
vn 0 0 -1
vn 0 0 -1
vn 0 0 -1
vn 0 0 -1
vn 0 0 -1
vn 0 0 -1
vn 0 0 -1
vn 0 0 -1
vn 0 0 -1
vn 0 0 -1
vn 0 0 -1
vn 0 0 -1
vn 0 0 -1
vn 0 0 -1
vn 0 0 -1
vn 0 0 -1
vn 0 0 -1
vn 0 0 -1
vn 0 0 -1
vn 0 0 -1
vn 0 0 -1
vn 0 0 -1
vn 0 0 -1
vn 0 0 -1
vn 0 0 -1
vn 0 0 -1
vn 0 0 -1
vn 0 0 -1
vn 0 0 -1
vn 0 0 -1
vn 0 0 -1
vn 0 0 -1
vn 0 0 -1
vn 0 0 -1
vn 0 0 -1
vn 0 0 -1
vn 0 0 -1
vn 0 0 -1
vn 0 0 -1
vn 0 0 -1
vn 0 0 -1
vn 0 0 -1
vn 0 0 -1
vn 0 0 -1
vn 0 0 -1
vn 0 0 -1
vn 0 0 -1
vn 0 0 -1
vn 0 0 -1
vn 0 0 -1
vn 0 0 -1
vn 0 0 -1
vn 0 0 -1
vn 0 0 -1
vn 0 0 -1
vn 0 0 -1
vn 0 0 -1
vn 0 0 -1
vn 0 0 -1
vn 0 0 -1
vn 0 0 -1
vn 0 0 -1
vn 0 0 1
vn 0 0 1
vn 0 0 1
vn 0 0 1
vn 0 0 -1
vn 0 0 -1
vn 0 0 -1
vn 0 0 -1
vn 0 0 -1
vn 0 0 -1
vn 0 0 -1
vn 0 0 -1
vn 0 0 -1
vn 0 0 -1
vn 0 0 1
vn 0 0 1
vn 0 0 1
vn 0 0 1
vn 0 0 -1
vn 0 0 -1
vn 0 0 -1
vn 0 0 -1
vn 0 0 -1
vn 0 0 -1
vn 0 0 -1
vn 0 0 -1
vn 0 0 -1
vn 0 0 -1
vn 0 0 -1
vn 0 0 -1
vn 0 0 -1
vn 0 0 -1
vn 0 0 -1
vn 0 0 -1
vn 0 0 1
vn 0 0 1
vn 0 0 1
vn 0 0 1
vn 0 0 -1
vn 0 0 -1
vn 0 0 -1
vn 0 0 -1
vn 0 0 -1
vn 0 0 -1
vn 0 0 -1
vn 0 0 -1
vn 0 0 -1
vn 0 0 -1
vn 0 0 -1
vn 0 0 -1
vn 0 0 -1
vn 0 0 -1
vn 0 0 -1
vn 0 0 -1
vn 0 0 1
vn 0 0 1
vn 0 0 1
vn 0 0 1
vn 0 0 1
vn 0 0 1
vn 0 0 -1
vn 0 0 -1
vn 0 0 -1
vn 0 0 -1
vn 0 0 -1
vn 0 0 -1
vn 0 0 -1
vn 0 0 -1
vn 0 0 -1
vn 0 0 -1
vn 0 0 -1
vn 0 0 -1
vn 0 0 1
vn 0 0 1
vn 0 0 1
vn 0 0 1
vn 0 0 1
vn 0 0 1
vn 0 0 -1
vn 0 0 -1
vn 0 0 -1
vn 0 0 -1
vn 0 0 -1
vn 0 0 -1
vn 0 0 -1
vn 0 0 -1
vn 0 0 -1
vn 0 0 -1
vn 0 0 -1
vn 0 0 -1
vn 0 0 -1
vn 0 0 -1
vn 0 0 -1
vn 0 0 -1
vn 0 0 -1
vn 0 0 -1
vn 0 0 1
vn 0 0 1
vn 0 0 1
vn 0 0 1
vn 0 0 -1
vn 0 0 -1
vn 0 0 -1
vn 0 0 -1
vn 0 0 -1
vn 0 0 -1
vn 0 0 -1
vn 0 0 -1
vn 0 0 -1
vn 0 0 -1
vn 0 0 -1
vn 0 0 -1
vn 0 0 -1
vn 0 0 -1
vn 0 0 -1
vn 0 0 -1
vn 0 0 -1
vn 0 0 -1
vn 0 0 -1
vn 0 0 -1
vn 0 0 -1
vn 0 0 -1
vn 0 0 -1
vn 0 0 -1
g worldmap_ep04_mesh1_0
f 3/3/3 2/2/2 1/1/1
f 4/4/4 3/3/3 1/1/1
f 7/7/7 6/6/6 5/5/5
f 8/8/8 7/7/7 5/5/5
f 11/11/11 10/10/10 9/9/9
f 14/14/14 13/13/13 12/12/12
f 17/17/17 16/16/16 15/15/15
f 18/18/18 17/17/17 15/15/15
f 21/21/21 20/20/20 19/19/19
f 21/21/21 19/19/19 22/22/22
f 25/25/25 24/24/24 23/23/23
f 26/26/26 25/25/25 23/23/23
f 29/29/29 28/28/28 27/27/27
f 30/30/30 29/29/29 27/27/27
f 33/33/33 32/32/32 31/31/31
f 34/34/34 33/33/33 31/31/31
f 37/37/37 36/36/36 35/35/35
f 40/40/40 39/39/39 38/38/38
f 43/43/43 42/42/42 41/41/41
f 44/44/44 43/43/43 41/41/41
f 47/47/47 46/46/46 45/45/45
f 50/50/50 49/49/49 48/48/48
f 53/53/53 52/52/52 51/51/51
f 54/54/54 53/53/53 51/51/51
f 57/57/57 56/56/56 55/55/55
f 58/58/58 57/57/57 55/55/55
f 61/61/61 60/60/60 59/59/59
f 62/62/62 61/61/61 59/59/59
f 65/65/65 64/64/64 63/63/63
f 66/66/66 65/65/65 63/63/63
f 69/69/69 68/68/68 67/67/67
f 70/70/70 69/69/69 67/67/67
f 73/73/73 72/72/72 71/71/71
f 74/74/74 73/73/73 71/71/71
f 77/77/77 76/76/76 75/75/75
f 78/78/78 77/77/77 75/75/75
f 81/81/81 80/80/80 79/79/79
f 82/82/82 81/81/81 79/79/79
f 85/85/85 84/84/84 83/83/83
f 86/86/86 85/85/85 83/83/83
f 89/89/89 88/88/88 87/87/87
f 90/90/90 89/89/89 87/87/87
f 93/93/93 92/92/92 91/91/91
f 94/94/94 93/93/93 91/91/91
f 97/97/97 96/96/96 95/95/95
f 98/98/98 97/97/97 95/95/95
f 101/101/101 100/100/100 99/99/99
f 102/102/102 101/101/101 99/99/99
f 105/105/105 104/104/104 103/103/103
f 106/106/106 105/105/105 103/103/103
f 109/109/109 108/108/108 107/107/107
f 110/110/110 109/109/109 107/107/107
f 113/113/113 112/112/112 111/111/111
f 116/116/116 115/115/115 114/114/114
f 119/119/119 118/118/118 117/117/117
f 120/120/120 119/119/119 117/117/117
f 123/123/123 122/122/122 121/121/121
f 124/124/124 123/123/123 121/121/121
f 127/127/127 126/126/126 125/125/125
f 128/128/128 127/127/127 125/125/125
f 131/131/131 130/130/130 129/129/129
f 132/132/132 131/131/131 129/129/129
f 135/135/135 134/134/134 133/133/133
f 136/136/136 135/135/135 133/133/133
f 139/139/139 138/138/138 137/137/137
f 140/140/140 139/139/139 137/137/137
f 143/143/143 142/142/142 141/141/141
f 144/144/144 143/143/143 141/141/141
f 147/147/147 146/146/146 145/145/145
f 148/148/148 147/147/147 145/145/145
f 151/151/151 150/150/150 149/149/149
f 154/154/154 153/153/153 152/152/152
f 157/157/157 156/156/156 155/155/155
f 158/158/158 157/157/157 155/155/155
f 161/161/161 160/160/160 159/159/159
f 162/162/162 161/161/161 159/159/159
f 165/165/165 164/164/164 163/163/163
f 166/166/166 165/165/165 163/163/163
f 169/169/169 168/168/168 167/167/167
f 170/170/170 169/169/169 167/167/167
f 173/173/173 172/172/172 171/171/171
f 176/176/176 175/175/175 174/174/174
f 179/179/179 178/178/178 177/177/177
f 180/180/180 179/179/179 177/177/177
f 183/183/183 182/182/182 181/181/181
f 184/184/184 183/183/183 181/181/181
f 187/187/187 186/186/186 185/185/185
f 188/188/188 187/187/187 185/185/185
f 191/191/191 190/190/190 189/189/189
f 192/192/192 191/191/191 189/189/189
f 195/195/195 194/194/194 193/193/193
f 198/198/198 197/197/197 196/196/196
f 201/201/201 200/200/200 199/199/199
f 202/202/202 201/201/201 199/199/199
f 205/205/205 204/204/204 203/203/203
f 206/206/206 205/205/205 203/203/203
f 209/209/209 208/208/208 207/207/207
f 210/210/210 209/209/209 207/207/207
f 213/213/213 212/212/212 211/211/211
f 214/214/214 213/213/213 211/211/211
f 217/217/217 216/216/216 215/215/215
f 218/218/218 217/217/217 215/215/215
f 221/221/221 220/220/220 219/219/219
f 222/222/222 221/221/221 219/219/219
f 225/225/225 224/224/224 223/223/223
f 226/226/226 225/225/225 223/223/223
f 229/229/229 228/228/228 227/227/227
f 230/230/230 229/229/229 227/227/227
f 233/233/233 232/232/232 231/231/231
f 234/234/234 233/233/233 231/231/231
f 237/237/237 236/236/236 235/235/235
f 238/238/238 237/237/237 235/235/235
f 241/241/241 240/240/240 239/239/239
f 244/244/244 243/243/243 242/242/242
f 247/247/247 246/246/246 245/245/245
f 248/248/248 247/247/247 245/245/245
f 251/251/251 250/250/250 249/249/249
f 252/252/252 251/251/251 249/249/249
f 255/255/255 254/254/254 253/253/253
f 256/256/256 255/255/255 253/253/253
f 259/259/259 258/258/258 257/257/257
f 262/262/262 261/261/261 260/260/260
f 265/265/265 264/264/264 263/263/263
f 266/266/266 265/265/265 263/263/263
f 269/269/269 268/268/268 267/267/267
f 270/270/270 269/269/269 267/267/267
f 273/273/273 272/272/272 271/271/271
f 274/274/274 273/273/273 271/271/271
f 277/277/277 276/276/276 275/275/275
f 280/280/280 279/279/279 278/278/278
f 283/283/283 282/282/282 281/281/281
f 284/284/284 283/283/283 281/281/281
f 287/287/287 286/286/286 285/285/285
f 288/288/288 287/287/287 285/285/285
f 291/291/291 290/290/290 289/289/289
f 292/292/292 291/291/291 289/289/289
f 295/295/295 294/294/294 293/293/293
f 296/296/296 295/295/295 293/293/293
f 299/299/299 298/298/298 297/297/297
f 300/300/300 299/299/299 297/297/297
f 303/303/303 302/302/302 301/301/301
f 304/304/304 303/303/303 301/301/301
f 307/307/307 306/306/306 305/305/305
f 308/308/308 307/307/307 305/305/305
