g worldmap_ep01_l0
v 904.7251 -1549.62 0
v 4282.56 -1549.62 0
v 4240.215 -1394.55 0
v 968.2201 -1394.55 0
v 397.1026 -1452.532 0
v 397.1025 -1078.245 0
v -822.3975 -1078.245 0
v -822.3975 -1453.905 0
v 418.2751 -1541.25 0
v 397.1026 -1452.532 0
v -822.3975 -1453.905 0
v -864.72 -1541.25 0
v 3535.762 -920.8575 0
v 3535.762 -128.8575 0
v 1663.763 -128.8575 0
v 1663.763 -920.8575 0
v 4240.215 -849.735 0
v 968.22 -849.735 0
v -1345.275 -1413.292 0
v -1345.275 -617.3099 0
v -4193.28 -617.3099 0
v -4193.28 -1416.42 0
v -1309.59 -1551.105 0
v -1345.275 -1413.292 0
v -4193.28 -1416.42 0
v -4232.813 -1551.105 0
vt 0.8049505 0.8073441
vt 0.4811881 0.8073441
vt 0.4811881 0.8107105
vt 0.8049505 0.8107106
vt 0.4811881 0.865966
vt 0.4811881 0.9330986
vt 0.6960396 0.9330986
vt 0.6960396 0.8657174
vt 0.4811881 0.8636821
vt 0.4811881 0.865966
vt 0.6960396 0.8657174
vt 0.6960396 0.8636821
vt 0.2143564 0.525654
vt 0.2143564 0.6051308
vt 0.399505 0.6051308
vt 0.399505 0.525654
vt 0.4811881 0.862676
vt 0.8049505 0.862676
vt 0.4168317 0.5828019
vt 0.4168317 0.6629779
vt 0.6990099 0.6629779
vt 0.6990099 0.582486
vt 0.4168317 0.5799799
vt 0.4168317 0.5828019
vt 0.6990099 0.582486
vt 0.6990099 0.5799799
vn 0 0 -1
vn 0 0 -1
vn 0 0 -1
vn 0 0 -1
vn 0 0 -1
vn 0 0 -1
vn 0 0 -1
vn 0 0 -1
vn 0 0 -1
vn 0 0 -1
vn 0 0 -1
vn 0 0 -1
vn 0 0 -1
vn 0 0 -1
vn 0 0 -1
vn 0 0 -1
vn 0 0 -1
vn 0 0 -1
vn 0 0 -1
vn 0 0 -1
vn 0 0 -1
vn 0 0 -1
vn 0 0 -1
vn 0 0 -1
vn 0 0 -1
vn 0 0 -1
g worldmap_ep01_l0_0
f 3/3/3 2/2/2 1/1/1
f 4/4/4 3/3/3 1/1/1
f 7/7/7 6/6/6 5/5/5
f 8/8/8 7/7/7 5/5/5
f 11/11/11 10/10/10 9/9/9
f 12/12/12 11/11/11 9/9/9
f 15/15/15 14/14/14 13/13/13
f 16/16/16 15/15/15 13/13/13
f 4/4/4 18/18/18 17/17/17
f 4/4/4 17/17/17 3/3/3
f 21/21/21 20/20/20 19/19/19
f 22/22/22 21/21/21 19/19/19
f 25/25/25 24/24/24 23/23/23
f 26/26/26 25/25/25 23/23/23
