g worldmap_ep02_l6_mesh
v 85.65706 -1604.623 0
v 967.1776 -991.8283 0
v 106.1025 -991.8283 0
v 1048.619 -1605.925 0
v -717.6358 -1603.502 0
v 113.8722 -981.9359 0
v -661.1954 -1000.92 0
v 136.1 -1605.555 0
v 2063.646 -1599.777 0
v 2063.646 712.8599 0
v 1461.385 712.8599 0
v 976.5593 -1599.777 0
v 1215.778 768.3192 0
v 979.0823 791.0176 0
v 507.4935 712.8599 0
v 488.6101 -1321.61 0
v 429.3761 -1128.879 0
v 336.2798 712.8599 0
v 338.1823 -1077.165 0
v 239.459 -983.1474 0
v 178.0422 707.2329 0
v 164.2451 -1012.294 0
v 767.0075 775.8887 0
v 177.2012 602.6424 0
v -138.3428 688.6898 0
v 274.753 508.7852 0
v 81.51185 -1050.842 0
v 84.33537 -1030.156 0
v 17.58203 -1043.323 0
v 43.90489 -1067.763 0
v -618.5221 -1599.777 0
v -354.9431 -1300.844 0
v -2053.694 -1599.777 0
v -357.9369 712.8599 0
v -2053.694 534.6876 0
v -119.8896 -1087.508 0
v 168.6005 -469.9367 0
v 135.1087 -1011.353 0
v 401.3211 -836.8648 0
v 409.1709 -673.0002 0
v 310.5878 -525.2358 0
v 327.0684 -953.4404 0
v 164.2451 -1012.294 0
v 268.2048 263.2587 0
v 173.5567 147.7444 0
v 302.818 354.7329 0
v 178.0422 707.2329 0
vt 0.4459777 0.920896
vt 0.3759766 0.6835938
vt 0.3759766 0.9208984
vt 0.4461268 0.683594
vt 0.4446324 0.9208961
vt 0.3759766 0.6835938
vt 0.3759766 0.9208984
vt 0.4472546 0.6836368
vt 0.8417724 0.4918359
vt 0.8413736 0.4918359
vt 0.8413736 0.4919118
vt 0.8417724 0.4919729
vt 0.841364 0.4919428
vt 0.8413601 0.4919727
vt 0.8413736 0.492023
vt 0.8417245 0.492025
vt 0.8416912 0.4920314
vt 0.8413736 0.4920413
vt 0.8416823 0.4920411
vt 0.8416661 0.4920516
vt 0.8413746 0.4920582
vt 0.8416711 0.4920596
vt 0.8413627 0.4919953
vt 0.8415481 0.4961074
vt 0.8415434 0.4961181
vt 0.8415559 0.4961074
vt 0.8416388 0.4961106
vt 0.8416377 0.4961105
vt 0.8416384 0.4961128
vt 0.8416398 0.4961119
vt 0.8416689 0.4961344
vt 0.8416525 0.4961254
vt 0.8416689 0.4961832
vt 0.8415421 0.4961255
vt 0.8415421 0.4961832
vt 0.8416408 0.4961174
vt 0.8416069 0.4961076
vt 0.8416367 0.4961088
vt 0.8416271 0.4960997
vt 0.8416181 0.4960995
vt 0.84161 0.4961028
vt 0.8416334 0.4961023
vt 0.8416367 0.4961078
vt 0.8415677 0.4961075
vt 0.8415731 0.4961075
vt 0.8415615 0.4961074
vt 0.8415424 0.4961073
vn 0 0 -1
vn 0 0 -1
vn 0 0 -1
vn 0 0 -1
vn 0 0 -1
vn 0 0 -1
vn 0 0 -1
vn 0 0 -1
vn 0 0 -1
vn 0 0 -1
vn 0 0 -1
vn 0 0 -1
vn 0 0 -1
vn 0 0 -1
vn 0 0 -1
vn 0 0 -1
vn 0 0 -1
vn 0 0 -1
vn 0 0 -1
vn 0 0 -1
vn 0 0 -1
vn 0 0 -1
vn 0 0 -1
vn 0 0 -1
vn 0 0 -1
vn 0 0 -1
vn 0 0 -1
vn 0 0 -1
vn 0 0 -1
vn 0 0 -1
vn 0 0 -1
vn 0 0 -1
vn 0 0 -1
vn 0 0 -1
vn 0 0 -1
vn 0 0 -1
vn 0 0 -1
vn 0 0 -1
vn 0 0 -1
vn 0 0 -1
vn 0 0 -1
vn 0 0 -1
vn 0 0 -1
vn 0 0 -1
vn 0 0 -1
vn 0 0 -1
vn 0 0 -1
g worldmap_ep02_l6_mesh_0
f 3/3/3 2/2/2 1/1/1
f 1/1/1 2/2/2 4/4/4
f 7/7/7 6/6/6 5/5/5
f 5/5/5 6/6/6 8/8/8
f 11/11/11 10/10/10 9/9/9
f 12/12/12 11/11/11 9/9/9
f 11/11/11 12/12/12 13/13/13
f 12/12/12 14/14/14 13/13/13
f 12/12/12 15/15/15 14/14/14
f 16/16/16 15/15/15 12/12/12
f 17/17/17 15/15/15 16/16/16
f 15/15/15 19/19/19 18/18/18
f 19/19/19 15/15/15 17/17/17
f 19/19/19 20/20/20 18/18/18
f 21/21/21 18/18/18 20/20/20
f 21/21/21 20/20/20 22/22/22
f 23/23/23 14/14/14 15/15/15
f 26/26/26 25/25/25 24/24/24
f 29/29/29 28/28/28 27/27/27
f 29/29/29 27/27/27 30/30/30
f 33/33/33 32/32/32 31/31/31
f 35/35/35 34/34/34 32/32/32
f 32/32/32 33/33/33 35/35/35
f 34/34/34 36/36/36 32/32/32
f 25/25/25 29/29/29 36/36/36
f 25/25/25 36/36/36 34/34/34
f 28/28/28 29/29/29 25/25/25
f 37/37/37 28/28/28 25/25/25
f 40/40/40 39/39/39 38/38/38
f 37/37/37 38/38/38 28/28/28
f 38/38/38 37/37/37 40/40/40
f 37/37/37 41/41/41 40/40/40
f 39/39/39 42/42/42 38/38/38
f 38/38/38 42/42/42 43/43/43
f 45/45/45 25/25/25 44/44/44
f 37/37/37 25/25/25 45/45/45
f 26/26/26 46/46/46 25/25/25
f 44/44/44 25/25/25 46/46/46
f 25/25/25 47/47/47 24/24/24
